<?xml version="1.0" encoding="utf-8"?>
<!-- Generator: Adobe Illustrator 23.1.0, SVG Export Plug-In . SVG Version: 6.00 Build 0)  -->
<svg version="1.1" id="Capa_1" xmlns="http://www.w3.org/2000/svg" xmlns:xlink="http://www.w3.org/1999/xlink" x="0px" y="0px"
	 viewBox="0 0 400 400" style="enable-background:new 0 0 400 400;" xml:space="preserve">
<style type="text/css">
	.st0{fill:#DA2A25;}
	.st1{fill:#FDFDFC;}
	.st2{fill:#E3241D;}
	.st3{fill:#CB392D;}
	.st4{fill:#E12829;}
	.st5{fill:#DC3426;}
	.st6{fill:#E0162F;}
	.st7{fill:#F21E22;}
	.st8{fill:#ED2227;}
	.st9{fill:#DA2A24;}
	.st10{fill:#E42E2B;}
	.st11{fill:#F42431;}
	.st12{fill:#FAFBFA;}
	.st13{fill:#EC2526;}
	.st14{fill:#EB1F37;}
	.st15{fill:#F21F34;}
	.st16{fill:#FEFEFE;}
	.st17{fill:#CF2E1A;}
	.st18{fill:#DD2A18;}
	.st19{fill:#131413;}
	.st20{fill:#161717;}
	.st21{fill:#141515;}
	.st22{fill:#1D1D1D;}
	.st23{fill:#F1F2F2;}
	.st24{fill:#1A1A1A;}
	.st25{fill:#F8F8F8;}
	.st26{fill:#131313;}
	.st27{fill:#141616;}
	.st28{fill:#222525;}
	.st29{fill:#282828;}
	.st30{fill:#BEBEBE;}
	.st31{fill:#F4F4F4;}
	.st32{fill:#E2E2E2;}
	.st33{fill:#DDDDDD;}
</style>
<path class="st0" d="M204.59,400c-2.3,0-4.61,0-6.91,0c-4.5-1.93-8.04-4.59-9.64-8.77c-0.79-1.75-1.22-3.54-0.7-5.42
	c8.2-11.78,6.44-14.44-10.78-15.54c-5.32-0.34-9.72-1.21-10.79-6.39c-1.75-7.31-1.53-14.68-1.52-22.05
	c0.02-69.68-0.17-139.37,0.2-209.05c0.06-10.79-1.88-20.85-7.11-30.58c-1.1-1.53-1.72-3.19-1.98-4.95
	c-0.05-2.81-0.23-5.65,1.55-8.23c2.64-3.02,6.45-4.47,10.6-3.7c5.3,0.99,9.17-1.62,13.64-2.76c13.12-0.71,26.24-0.8,39.34,0.01
	c4.37,1.51,8.52,3.19,13.65,3.08c4.64-0.1,6.27,3.84,8.42,6.71c0.4,1.02,0.53,2.05,0.43,3.11c-0.72,3.76-0.52,7.73-3.61,10.94
	c-1.71,6.71,1.08,13.24,1.06,19.92c-0.26,73.39-0.15,146.78-0.18,220.16c0,5.13,0.45,10.32-1.54,15.31
	c-1.64,4.26,1.65,8.13,1.4,12.3c-0.22,3.7-1.4,6.95-5.18,9.18c-6.28,2.9-13.63,4.08-19.15,8.25
	C211.66,393.99,209.25,398.04,204.59,400z"/>
<path class="st0" d="M187.68,386.83c-10.62-4.92-21.99-6.05-34.04-5.97c-32.98,0.22-65.97-0.26-98.96-0.33
	c-30.99-0.07-48.72-14.15-50.65-40.45C2.15,234.26,2.33,128.44,3.97,22.62c0.02-1.5,1.63-2.81,3.92-3.14
	c3.67,1.98,4.02,6.05,7.15,8.44c4.42,7.99,2.22,16.49,2.65,24.78c0.3,5.79,0.26,11.6,0.08,17.39c-0.21,6.67,3.51,9.32,11.17,9.14
	c5.37-0.13,10.75,0.06,16.13,0.06c77.94,0,155.88-0.48,233.81,0.26c27.26,0.26,54.47-0.36,81.7-0.3
	c19.27,0.05,19.28-0.07,19.35-15.82c0.04-9.99-0.06-19.97,0.05-29.96c0.05-4.49-0.22-9.06,2.54-13.18c8.72-4.73,8.57,1.09,8.67,5.49
	c0.31,12.78,0.09,25.57,0.11,34.8c0.11-16.45-0.11-36.45-0.04-56.46c0.51-1.01,1.31-1.82,2.37-2.44c6.24,2.32,4.18,7.11,4.23,10.96
	c0.35,26.01,0.43,52.02,0.59,78.03c-4.06,7.52-9.85,10.14-17.63,7.97c-6.91-1.93-7.97-5.34-3.15-12.04
	c-6.59,2.09-12.99,1.11-19.25,1.68c-3.22,0.29-6.16,0.99-6.25,4.41c-0.09,3.52,3.1,4.76,6.1,4.31c11.69-1.76,18.95,5.42,27.95,9.11
	c3.48,1.43,5.25,3.67,4.9,6.93c-0.35,3.2-2.61,5.22-5.98,6.52c-7.21,2.79-16.49,0.74-20.27-4.49c-7.1-9.84-18.02-9.91-25.98-0.14
	c-2.63,4.61-1.78,9.51-1.78,14.29c-0.05,71.73,0,143.47-0.1,215.2c-0.01,5.04,1.36,10.36-2.59,14.98c-3.47,2.38-7.04,2.42-10.7,0.33
	c-2.71-2.68-2.61-5.96-2.6-9.16c0.09-78.4-0.48-156.8,0.25-235.18c2.15-5.84,7.04-11.41,2.69-17.95c-1.45-2.08-4.29-2.93-6.03-4.77
	c-1.15-1.16-2.04-2.49-3.52-3.41c-5.78-2.45-11.97-1.3-17.96-1.43c-24.45-0.52-49.02,1.41-73.31-2.53
	c-14.82,0.01-29.64,0.02-44.45,0.04c-11.21,1.74-22.59,2.15-33.91,2.36c-19.91,0.37-39.83,0.08-59.74,0.11
	c-7.05,0.01-11.59,1.6-7.98,8.58c0.5,1.8,0.36,3.56-0.38,5.29c-2.66,3.8-2.44,8.01-2.44,12.19c-0.01,77.38-0.01,154.76,0,232.14
	c0,3.21-0.14,6.43,0.94,9.53c4,3.73-1.69,11.19,7.17,13.09c1.55,0.56,2.95,1.29,4.17,2.27c2.75,3.81,7.52,4.08,11.94,4.36
	c16.65,1.06,33.19,0.96,48.84-5.02c2.09-0.89,4.29-1.2,6.6-0.79c1.05,0.27,1.99,0.74,2.8,1.36c2.44,1.76,4.42,7.33,7.84,0.63
	c0.33-1.29,0.92-2.48,1.87-3.53c0.41-0.26,0.84-0.51,1.26-0.77c3.31,0.41,6.5,0.77,9.99,0.33c7.96-1,14.95,0.36,18.73,7.41
	C200.63,382.62,190.84,382.96,187.68,386.83z"/>
<path class="st1" d="M84.81,370.83c-1.19-0.01-2.38-0.02-3.57-0.04c-9.67-3.99-3.05-12.22-6.49-17.95c-1.42-2.36-0.33-5.7-0.33-8.59
	c-0.01-76.22-0.02-152.44,0-228.65c0.01-23.89,0.04-23.89,28.5-23.89c14.19,0,28.38,0.06,42.57-0.03c5.22-0.03,10,0.4,13.01,4.59
	c0.09,1.39,0.18,2.77,0.27,4.16c3.3,3.86,1.25,8.5,2.63,12.65c1.08,10.94,0.46,21.89,0.47,32.83c0.07,70.2,0.1,140.4-0.08,210.61
	c-0.01,5.13,2.29,11.32-5.65,14.45c-2.3,0.04-4.6,0.07-6.9,0.11c-18.5,4.89-37.45,4.04-56.39,3.08
	C89.7,373.98,87.02,372.72,84.81,370.83z"/>
<path class="st2" d="M158.77,112.02c0-3.87,0-7.74,0-11.6c6.22,6.84,8.99,14.54,8.98,23.15c-0.07,74.92,0.1,149.84-0.29,224.75
	c-0.03,6.27,5.67,12.52,0.28,18.78c0,0-0.06,0.05-0.06,0.05c-4.93,1.81-5.94-0.96-6.75-4.03c-1.17-4.42-1.29-8.88-1.29-13.39
	c0.04-75.75,0.04-151.5-0.02-227.24C159.62,119.01,160.43,115.43,158.77,112.02z"/>
<path class="st3" d="M158.49,96.26c-3.76-2.2-8.07-1.73-12.26-1.74c-19.19-0.03-38.41,0.45-57.57-0.2
	c-9.96-0.34-11.86,2.64-11.79,10.39c0.4,41.2,0.08,82.4,0.06,123.6c-0.03,43.78-0.01,87.55,0.01,131.33c0,4.08-1.32,8.56,4.28,11.15
	c-10.38-0.62-9.14-5.75-6.31-11.48c-2.49-3.57-1.67-7.51-1.67-11.32c-0.05-78.72-0.05-157.44,0-236.16c0-3.8-0.82-7.75,1.66-11.32
	c-0.03-1.38-0.06-2.76-0.09-4.14c-2.58-5.3-1.3-9.24,6.21-9.32c24.47-0.28,48.95-0.46,73.42,0.1c1.56,0.04,2.86,0.82,3.92,1.8
	C158.42,91.39,158.46,93.82,158.49,96.26z"/>
<path class="st4" d="M246.1,380.54c-4.54,0.42-9.08,0.84-13.62,1.25c9.51-5.47,1.27-12.4,2.19-18.58c3.51-3.09,3.39-6.95,3.39-10.85
	c-0.03-77.76-0.1-155.51,0.16-233.27c0.02-4.9-4.05-10.1,0.79-14.84c0.59-3.29-0.98-6.91,2.15-9.81c0.57,0.4,1.15,0.8,1.73,1.2
	c4.14,5.57,3,11.83,3,17.86c0.09,76.48,0.05,152.96,0.06,229.45c0,3.86-0.04,7.71,0.03,11.57c0.22,12.02,0.83,12.58,14.92,12.7
	c14.18,0.12,28.36-0.05,42.54,0.08c5.34,0.05,10.8-0.17,15.5,2.63c1.71,6.51-4.67,5.7-8.65,6.16c-8.52,0.99-17.21,0.07-25.76,1.07
	c-11.79,1.5-23.81-0.75-35.56,1.48C247.94,379.2,246.98,379.83,246.1,380.54z"/>
<path class="st5" d="M319.83,92.41c2.55,0.27,5.32,0.11,6.87,2.4c-0.88,5.68,1.83,11.63-1.76,17.11
	c-0.14,63.56-0.33,127.12-0.41,190.68c-0.02,18.94,0.27,37.87,0.42,56.81c3.28,4.08,3.69,8.09-0.46,11.97
	c-1.66,0.34-2.86-0.14-3.6-1.43c-4.48-5.51-3.17-11.81-3.18-17.83c-0.09-78.92-0.05-157.84-0.07-236.76
	c-0.01-16.96-0.05-16.96-20.26-17c-13.44-0.02-26.89,0.1-40.33-0.07c-5.35-0.07-10.87,0.15-15.17-3.35c0,0-0.73-0.49-0.73-0.49
	c0.12-0.63,0.16-1.27,0.13-1.91c-1.65-4.6,1.6-5.01,5.7-4.71c15.22,4.09,30.88,0.94,46.27,2.03
	C302.14,90.49,311.52,87.67,319.83,92.41z"/>
<path class="st6" d="M239,104.26c0.05,83.46,0.12,166.92,0.1,250.38c0,3.22,1.76,7.45-4.43,8.58c1.83-5.27,2.26-10.64,2.25-16.14
	c-0.09-74.17-0.04-148.34-0.11-222.51c0-4.67,0.86-9.3-3.05-13.8C230.22,106.7,233.44,104.31,239,104.26z"/>
<path class="st7" d="M158.38,88.95c-24.17-0.04-48.34,0.1-72.5-0.23c-6.91-0.09-11.23,1.15-11.05,7.64
	c-5.92-1.65-4.09-5.64-3.22-8.78c0.91-3.28,4.86-2.48,7.75-2.48c33.14,0.03,66.28,0.13,99.42,0.21
	C173.53,92.68,164.46,84.89,158.38,88.95z"/>
<path class="st8" d="M246.08,88.79c-2.9,0.08-4.4,1.42-4.79,3.75c-3.66-6.55-14.12-1.2-18.06-7.26c29.54-0.09,59.07-0.2,88.61-0.28
	c3.46-0.01,7.17-0.29,7.97,3.74c-2.85,2.13-6.37,1.96-9.81,1.96c-18.02,0.04-36.05,0.04-54.07,0
	C252.47,90.7,248.96,90.87,246.08,88.79z"/>
<path class="st9" d="M321.66,370.79c0.86,0.09,1.72,0.18,2.58,0.27c3.89,4.82,9.57,7.26,14.86,3.05c4.94-3.93,7.96-9.6-0.79-13.98
	c-1.6-0.8-2.06-2.56-2.21-4.21c-0.27-77.9-0.06-155.77-0.09-233.64c0-3.48-0.75-7.15,2.22-10.2c-0.92-6.64,3.02-8.67,10.26-7.66
	c2.96,0.41,5.7,1.39,8.99,0.66c6.08-1.35,12.01-2.26,9.48,6.38c-0.99,3.37,1.99,6.31,6.74,6.2c5.09-0.12,11.14,1.87,14.48-3.31
	c1.1-1.71,0.68-5.24-1.08-5.05c-11.33,1.23-14.93-12.86-27.77-9.16c-5.7,1.64-11.94,0.97-12.08-7.2c-0.15-8.67,5.89-8.26,12.7-8
	c10.57,0.41,21.24-0.9,32.88,0.96c-3.21,4.01-7.29,2.47-10.6,2.91c-2.45,0.32-6.05-0.53-5.8,2.96c0.17,2.35,2.05,3.92,5.06,4.62
	c7.5,1.75,12.16-2.08,16.96-5.74c2.2,4.64,1.36,9.52,1.36,14.29c0.09,71.44,0.49,142.89-0.19,214.32
	c-0.15,15.43-2.16,31.34-14.93,44.22c-7.56,2.6-14.39,6-18.76,12.1c-10.9,1.2-11.15,0.95-8.81-8.88c-4.98,3.49,0.2,9.69-4.97,13.12
	c-20.45,2.7-41.03,0.73-61.54,1.09c-14.82,0.26-29.67-0.23-44.5-0.38c0.02-0.61,0.04-1.23,0.08-1.84
	c6.32-3.51,13.41-1.24,20.11-1.88c5.57-0.54,11.53,1.34,16.66-1.92c6.48-3.76,13.81-1.17,20.68-1.95c5.4-0.62,11.28,1.61,16.19-1.93
	l0.83-0.64C320.64,370.38,321.66,370.79,321.66,370.79z"/>
<path class="st10" d="M12.65,26.87c-7.92,2.69-1.46-4.89-5.92-5.2c0,19.76-0.53,39.52,0.3,59.24c0.27,6.45-0.87,12.7-0.85,19.09
	c0.27,76.03,0.21,152.05,0.11,228.08c-0.01,4.02,1.75,8.44-2.25,12c-3.87-7.61-3.69-15.77-3.71-23.71
	C0.09,214.31,0.1,112.25,0.08,10.2c0-2.18-0.62-4.55,1.53-6.41c11.19,2.54,22.59,2.94,34.14,2.92c105.4-0.12,210.8-0.04,316.2,0.12
	c5.76,0.01,13.48-2.68,16.59,4.74c-6.41,5.03-14.45,3.6-21.94,3.6c-97.17,0.11-194.34,0.07-291.5,0.07c-3.84,0-7.71,0.26-11.52-0.05
	C30.57,14.15,18.51,14.66,12.65,26.87z"/>
<path class="st9" d="M368.28,10.48c-4.41-1.66-9.08-0.95-13.64-0.95C244.13,9.49,133.61,9.54,23.1,9.45
	C15.42,9.44,6.86,10.74,1.62,3.79C1.6,2.56,2.19,1.76,3.77,1.66c9.49,1.38,18.99,0.06,28.49,0.09C74,1.9,115.75,1.36,157.47,2.04
	c17.08,0.28,34.19,1.08,51.29,1.13c4.38,1.34,8.93,1.62,13.57,1.62c44.87-0.02,89.74,0,134.6-0.04c3.78,0,7.73,0.52,11.03-1.69
	c8.59-3.37,17.08-3.23,25.44,0.66c2.28,25.31-1.23,50.5-1.34,75.82c-4.2-4.62-2.93-9.7-3-14.56c-0.2-12.56,0-25.12-0.11-37.69
	c-0.03-3.02,1.34-6.72-3.88-8.08C380.22,15.29,372.07,15.82,368.28,10.48z"/>
<path class="st10" d="M209.21,5.67c-7.26,0.09-14.43-0.02-21.67,1.49c-4.96,1.04-10.73,1.67-15.41-1.62
	c-3.31-2.33-7.24-1.76-11.01-1.76C115.84,3.75,70.57,3.82,25.29,3.7c-7.21-0.02-15.1,4.08-21.53-2.04
	c3.84-2.09,8.18-1.37,12.32-1.37C138.69,0.25,261.3,0.24,383.91,0.32c3.22,0,6.93-1.3,9.71,1.35c-0.07,0.68-0.14,1.37-0.21,2.05
	c-7.61-0.62-15.22-2.02-22.83,0.05c-4.36,2.94-9.54,1.86-14.39,1.87C307.19,5.71,258.2,5.69,209.21,5.67z"/>
<path class="st4" d="M352.14,379.83c-0.01-4.42-0.11-8.84,0.02-13.26c0.07-2.4-0.92-5.39,2.8-6.55c2.38-0.74,4.24,0.71,5.92,2.03
	c2.75,2.17,2.51,4.65,0.34,6.75c-6.73,6.51-0.65,6.01,4.56,6.06c0.62,0.37,0.85,0.76,0.68,1.18c-0.17,0.42-0.36,0.63-0.55,0.63
	C361.95,379.68,357.27,380.45,352.14,379.83z"/>
<path class="st11" d="M365.91,376.68c0.01-0.61-0.04-1.21-0.13-1.81c0.43-10.65,9-11.8,18.91-11.39
	C380.26,369.72,375.66,375.77,365.91,376.68z"/>
<path class="st12" d="M368.28,10.48c6.64,1.5,17.84-3.16,16.78,8.74c-0.13,18.34-0.64,36.69-0.19,55.02
	c0.17,6.82-1.23,9.45-10.42,9.42c-116.69-0.29-233.39-0.29-350.08-0.04c-9.07,0.02-10.86-2.63-10.81-9.48
	c0.11-15.75,1.22-31.54-0.9-47.27c1.4-15.41,1.4-15.38,20.93-15.41c107.36-0.17,214.72-0.34,322.08-0.54
	C359.86,10.9,364.07,10.63,368.28,10.48z"/>
<path class="st13" d="M74.91,100.51c0.14,39.59,0.41,79.18,0.4,118.78c-0.01,46.68-0.25,93.35-0.39,140.03
	c-5.41-1.21-3.95-4.98-3.95-7.95c-0.08-80.98-0.09-161.95-0.03-242.93C70.94,105.45,69.46,101.68,74.91,100.51z"/>
<path class="st14" d="M338.24,112.08c0,82.43,0,164.87,0.01,247.3c-0.32,0.26-0.64,0.53-0.96,0.79c-0.87,0.22-1.75,0.24-2.62,0
	c-0.32-0.26-0.64-0.52-0.96-0.79c0-78.95-0.05-157.9,0.12-236.86C333.83,118.89,330.87,113.77,338.24,112.08z"/>
<path class="st0" d="M158.77,112.02c3.37,3.38,1.96,7.41,1.96,11.16c0.08,75.34,0.01,150.69,0.16,226.03
	c0.01,6.41-1.62,13.61,6.79,17.94c0.01,1.29,0.02,2.58,0.02,3.87c-3.67,2.55-7.41,2.92-11.26,0.28l-0.3-0.36
	c3.01-3.08,1.98-6.73,1.98-10.2c0.05-79.07,0.05-158.14,0.1-237.2C158.22,119.7,158.58,115.86,158.77,112.02z"/>
<path class="st2" d="M84.81,370.83c21.48,0.08,42.95,0.15,64.43,0.23c-4.87,6.24-13.72,6.03-20.6,7.17
	c-10.32,1.71-21.37,0.81-32.05,0.23C91.34,378.16,84.32,378.11,84.81,370.83z"/>
<path class="st4" d="M338.24,359.38c4.7,0.01,9.64-0.21,9.19,5.65c-0.46,5.93-2.67,11.16-9.81,13.5c-2.32,0.76-5.3-0.03-7.93,0.24
	c-8.93,0.9-9.27-2.33-5.45-7.7c0.24-3.89,0.48-7.77,0.72-11.66c2.91-0.01,5.83-0.01,8.74-0.02c0,0,0,0,0,0
	c2.8,2.21,1.62,4.53-1.29,7.68C337.48,364.85,335.13,360.93,338.24,359.38L338.24,359.38z"/>
<path class="st9" d="M246.08,88.79c24.58-0.01,49.15-0.03,73.73-0.04c0.01,1.22,0.02,2.45,0.03,3.67
	c-21.61,0.07-43.22,0.17-64.82,0.21C251.33,92.63,247.07,93.31,246.08,88.79z"/>
<path class="st2" d="M156.43,371.31c3.75-0.09,7.51-0.19,11.26-0.28c-0.43,2.87,1.36,7.25-4.25,7.21
	C159.17,378.21,154.4,376.71,156.43,371.31z"/>
<path class="st9" d="M340.45,99.03c-1.44-3.72-5.98-6.99-2.5-11.16c0.34-0.41,2.61-0.4,2.98,0.02
	C344.05,91.49,343.39,95.24,340.45,99.03z"/>
<path class="st15" d="M324.95,111.92c0.17-5.74-2.42-11.67,1.76-17.12C328.64,100.7,333.12,106.77,324.95,111.92z"/>
<path class="st2" d="M182.71,376.03c-3.67,3.1-6.59,3.53-9.42,0.91c-0.47-0.43-0.23-2.17,0.32-2.48
	C176.69,372.76,179.1,374.76,182.71,376.03z"/>
<path class="st16" d="M321.66,370.79l-0.97-0.18c0,0-0.87,0.4-0.87,0.4c-22.96,0.01-45.92-0.03-68.88,0.08
	c-6.1,0.03-9.82-0.73-9.81-7.27c0.26-88.35,0.21-176.7,0.26-265.05c0-1.28,0.33-2.55,0.5-3.83c24.56-0.15,49.12-0.2,73.67-0.52
	c5.48-0.07,7.57,1.62,7.41,6.13c-0.19,5.46,0.15,10.94,0.15,16.41c0.01,79.84,0.03,159.67-0.04,239.51
	C323.08,361.25,323.98,366.15,321.66,370.79z"/>
<path class="st17" d="M285.25,376.83c-0.95,4.45-5.13,3.79-8.77,3.81c-9.33,0.04-18.67,0-28-0.01c0.9-4.53,5.14-3.77,8.74-3.79
	C266.57,376.78,275.91,376.82,285.25,376.83z"/>
<path class="st18" d="M209.21,5.67c3.46-2.98,7.92-1.87,11.99-1.88c49.79-0.07,99.59-0.04,149.38-0.03
	c1.26,0.34,3.69,0.57,1.47,2.06c-3.13,2.11-7.19,1.78-11.03,1.78c-47.38-0.01-94.77,0-142.15-0.03
	C215.51,7.58,211.9,8.18,209.21,5.67z"/>
<path class="st19" d="M80.4,45.39c0,4.19-0.52,8.43,0.16,12.54c0.55,3.32-3.89,9.07,5.33,9.12c6.89,0.04,13.07,1.19,14.16-7.77
	c1.22-10.13,5.18-20.03,7.91-30.04c0.69-2.55,1.11-5.16,5.14-5.54c4.2-0.39,5.26,2.17,6,4.67c3.98,13.41,7.97,26.82,11.59,40.29
	c0.62,2.3,3.26,6.14-2.46,6.92c-4.63,0.63-5.64-2.42-6.26-5.44c-0.26-1.27-0.6-2.52-0.89-3.78c-0.83-3.6-2.92-5.39-7.8-5.28
	c-4.5,0.1-6.45,1.78-6.54,5.09c-0.23,8.61-5.8,10.05-15.04,9.74c-19.31-0.65-19.29-0.2-19.35-16.15
	c-0.04-9.98-0.18-19.95-0.32-29.93c-0.04-3.06-0.06-6.19,5.06-5.88c5.04,0.3,3.03,3.79,3.15,5.98c0.28,5.14,0.09,10.3,0.09,15.45
	C80.36,45.39,80.38,45.39,80.4,45.39z"/>
<path class="st20" d="M246.06,75.02c-4.96,2.32-6.76-0.2-8.31-3.62c-2.17-4.8-4.57-9.53-6.96-14.25c-0.96-1.9-2.75-3.32-5.31-2.91
	c-3.07,0.49-2.44,2.84-2.49,4.66c-0.11,3.85-0.14,7.71-0.12,11.56c0.01,2.82-0.49,5.23-4.82,5.16c-3.73-0.06-4.1-2.23-4.11-4.63
	c-0.06-14.13-0.13-28.26-0.16-42.39c0-1.94,0.12-4.39,2.97-4.5c7.9-0.32,16.39-2.51,23.48,1.6c6.36,3.69,8.42,11.34,5.17,15.55
	c-8.2,10.63-2.23,19.69,1.08,29.34C247.64,72.16,247.33,73.62,246.06,75.02z"/>
<path class="st21" d="M329.96,23.38c3.44,0.04,6.87,0.13,10.31,0.13c16.28-0.03,25.29,8.51,18.41,20.82
	c-4.89,8.75-2.26,14.72,1.04,22.06c1.26,2.8,5.7,7.04,0.01,9.04c-6.03,2.12-7.21-3.13-8.99-6.54c-1.99-3.81-3.78-7.7-5.83-11.48
	c-0.94-1.74-2.17-3.65-5.02-3.16c-2.89,0.5-2.89,2.74-2.98,4.58c-0.18,3.85-0.36,7.72-0.04,11.55c0.44,5.32-2.86,5.93-7.83,4.9
	c-1.43-1.13-2.55-2.45-2.79-4.11c-2.06-14.38-1.55-28.78-0.06-43.16C326.4,25.99,327.89,24.46,329.96,23.38z"/>
<path class="st22" d="M170.5,23.21c11.05,2.82,3.2,11.16,7.46,17.2c3.58-4.96,6.81-9.49,10.1-14c2.16-2.96,5.73-3.68,8.96-2.32
	c3.57,1.51,1.23,4.34-0.37,5.64c-14.77,12.04-8.32,23.93-0.54,36.24c1.61,2.54,7.63,6.78,0.72,9.45c-5.85,2.25-7.4-2.59-9.21-6.15
	c-2.45-4.84-5.14-9.6-7.72-14.39c-1.15,0.11-2.29,0.23-3.44,0.34c0,4.86-0.06,9.72,0.02,14.57c0.08,5.17-2.65,7.07-8.62,5.42
	c-5.47-15.51-5.64-31.11-1.39-46.85C167.1,26.07,167.55,24.07,170.5,23.21z"/>
<path class="st20" d="M294.46,25.21c9.51-3.31,19.57-0.58,29.26-1.89c6.09,6.04,3.2,9.65-4.56,12.05c-3.01,0.93-7,0.01-9.02,3.2
	c2.32,3.32,6.81,2.43,10.04,3.83c3.25,1.4,5.83,3.16,6.03,6.42c0.23,3.75-2.51,5.85-6.29,7.2c-2.11,0.76-4.41,1.02-6.6,1.6
	c-1.86,0.5-3.77,1.12-3.59,3.13c0.16,1.89,1.98,2.5,3.87,3c5.52,1.46,14.06,1.06,12.5,8.39c-1.63,7.62-10.07,2.9-15.35,3.98
	c-2.52,0.52-5.34-0.09-7.99,0.12c-5.56,0.45-7.34-1.61-7.19-6.14c0.29-9.28,0.24-18.58-0.03-27.86c-0.06-1.95,2.36-5.46-3.04-5.61
	c-0.76,1.49-1.53,2.97-2.29,4.46C285.41,34.64,285.6,29.11,294.46,25.21z"/>
<path class="st23" d="M292.5,36.65c0.1-2.15,0.17-4.31,3.27-6.44c0,12.94,0.33,25.25-0.14,37.53c-0.24,6.25,2.09,8.89,9.75,8.12
	c4.15-0.42,8.4-0.05,12.61-0.08c3.93-0.03,7.6,0.1,7.22-4.94c-0.36-4.72-4.07-3.3-7.18-3.77c-5.66-0.85-14.42,3.57-14.38-7.02
	c0.02-7.04,4.13-6.77,9.9-6.82c4.03-0.04,10.31,1.91,10.16-4.47c-0.15-6.36-6.49-4.02-10.45-4.27c-5.01-0.31-9.57,0.65-9.5-6.09
	c0.07-7,5.11-6.02,9.85-5.63c8.79,0.72,13.44-1.23,10.11-9.43c2.08,0.02,4.16,0.03,6.25,0.05c-2.54,17.27-0.65,34.6-0.92,51.9
	c-10.26,5.04-21.13,1.47-31.64,1.14c-3.95-0.12-2.82-4.64-3.07-7.4C293.32,58.24,296.4,47.31,292.5,36.65z"/>
<path class="st24" d="M161.86,67.69c-1.31,6-6.17,8.66-12.89,8.9c-6.98,0.25-11.46-3.15-13.88-8.36
	c-5.35-11.47-5.86-23.17-1.21-34.85c2.32-5.82,7.07-10.12,14.82-10.59c7.72-0.47,11.61,3.87,14.23,9.26
	c2.97,3.19,3.58,6.61-0.17,9.44c-4.06,3.08-7.01,0.14-9.63-2.16c-4.91-4.3-7.16-1.78-8.61,2.32c-1.32,3.74-1.09,7.63-0.76,11.47
	c0.27,3.18,0.09,7.08,3.77,8.65c4.28,1.83,5.22-2.55,7.51-4.3c2.41-1.83,5.49-3.85,7.93-1.55
	C167.02,59.72,166.69,64.06,161.86,67.69z"/>
<path class="st25" d="M161.86,67.69c0.71-2,1.87-3.98,2.01-6.01c0.13-1.97,1.34-4.9-2.55-5.49c-3.43-0.52-4.49,1.52-5.02,4.01
	c-0.76,3.62-2.17,7.32-7.49,7.27c-6.02-0.07-6.55-4.49-7.66-8.18c-2.21-7.34-1.82-14.64,0.51-21.9c0.98-3.06,3.45-5.1,7.01-5.64
	c3.04-0.46,4.54,1.53,5.99,3.63c1.67,2.41,1.39,7.55,7.11,5.57c5.67-1.96-0.68-6.01,1.16-8.9c3.92-2.11,0.13-8.85,7.56-8.84
	c-1.93,1.11-3.45,2.39-3.41,4.58c0.28,15.81,0.52,31.63,0.77,47.44C165.86,72.72,163.86,70.2,161.86,67.69z"/>
<path class="st26" d="M66.08,50.2c9.03,16.44,0.98,26.88-19.45,25.65c-5.15-0.31-7.62-1.37-7.55-6.03
	c0.2-13.11,0.17-26.22-0.03-39.32c-0.06-3.94,1.19-6.19,6.37-5.52c5.43,0.7,11.37-1.9,16.32,1.8c0.69,6.13-6.82,5.04-9.82,7.91
	c-2.06,2.68-2.08,5.32,0.15,7.93c7.33,4.48,5.74,9.17,0.52,13.96c-0.58,2.11-2.3,4.89,1.16,5.73c2.59,0.63,3.27-2,3.42-3.96
	c0.12-1.59-0.16-3.19,0.14-4.79C59.05,50.23,59.61,44.76,66.08,50.2z"/>
<path class="st27" d="M294.46,25.21c-5.27,4.57-5.02,10.18-4.25,15.89c-2.52,9.99-5.09,19.97-7.53,29.98c-0.7,2.87-2.27,4.78-6,4.66
	c-3.46-0.12-4.03-2.42-4.62-4.68c-3.41-13.11-6.84-26.2-10.27-39.31c-2.15-2.32-1.52-4.5,0.45-6.62c5.17-1.19,6.45,1.31,7.32,4.93
	c2.03,8.38,4.46,16.69,7.14,26.54c5.39-9.25,6.15-18.01,8.41-26.33C286.51,25.08,289.19,24.13,294.46,25.21z"/>
<path class="st28" d="M262.23,25.13c-0.15,2.21-0.3,4.41-0.45,6.62c-4.77,0.9-2.67,4.07-2.7,6.29c-0.11,8.67-0.37,17.36,0.27,26.01
	c0.62,8.42-1.64,13.47-13.31,10.97c0.14-1.47,0.28-2.95,0.42-4.42c4.7,0.43,3.38-2.49,3.37-4.46c-0.03-10.88,0.32-21.77-0.43-32.62
	C248.82,24.76,251.99,21.53,262.23,25.13z"/>
<path class="st29" d="M47.85,32.73c3.81-3.34,10.9-1.29,13.9-5.96c7.47,3.09,6.94,8.71,6.09,14.22c-0.47,3.07-2.71,5.92-1.76,9.2
	c-4.82-1.97-6.43,0.07-6.69,3.78c-3.75,3.14-7.58,2.67-11.45,0.19c0.23-2.83,6.92-0.61,5.53-5.84c-0.96-3.61-5.48-1.3-5.6-4.08
	C55.14,40.4,55.08,36.56,47.85,32.73z"/>
<path class="st9" d="M338.24,359.38c-0.2,4.21,3.07,8.82-1.88,12.51c-9.35-3.02-3.53-8.11-2.66-12.5
	C335.22,359.38,336.73,359.38,338.24,359.38z"/>
<path class="st30" d="M113.33,39.97c1.77,5.21,5.32,8.34,1.91,12.15c-0.42,0.47-2.79,0.51-3.18,0.07
	C108.72,48.46,112.62,45.3,113.33,39.97z"/>
<path class="st31" d="M223.11,38.84c-1.01-4.64,0.28-6.83,6.33-6.56c5.36,0.24,8.02,2.06,7.73,6.32c-0.27,3.9-2.5,6.31-7.97,6.49
	C222.87,45.3,222.26,42.52,223.11,38.84z"/>
<path class="st32" d="M344.32,32.22c6.13-0.03,7.57,3.1,7.22,7.49c-0.44,5.42-5.21,5.61-9.81,5.4c-7.41-0.33-4.61-5.34-5.01-8.64
	C336.09,31.41,340.61,32.18,344.32,32.22z"/>
<path class="st33" d="M47.94,54.16c3.79-1.17,7.62-0.8,11.45-0.19c0.56,2.15,1.48,4.29,1.62,6.46c0.26,4.21-2.36,6.48-7.44,6.82
	c-6.08,0.41-5.44-3.18-5.52-6.37C48,58.64,47.98,56.4,47.94,54.16z"/>
<path class="st31" d="M47.85,32.73c4.83,0.46,11.56-1.84,11.56,5.61c0,7.26-6.69,5.31-11.54,5.9C45.5,40.41,49.53,36.57,47.85,32.73
	z"/>
</svg>
