<?xml version="1.0" encoding="utf-8"?>
<!-- Generator: Adobe Illustrator 23.1.0, SVG Export Plug-In . SVG Version: 6.00 Build 0)  -->
<svg version="1.1" id="Capa_1" xmlns="http://www.w3.org/2000/svg" xmlns:xlink="http://www.w3.org/1999/xlink" x="0px" y="0px"
	 viewBox="0 0 400 400" style="enable-background:new 0 0 400 400;" xml:space="preserve">
<style type="text/css">
	.st0{fill:#E93439;}
	.st1{fill:#F9F0EE;}
	.st2{fill:#FDFCFC;}
</style>
<path class="st0" d="M58.66,279.58c-10.25-16.93-19.92-34.09-27.49-52.21C15.3,189.36,6.9,149.89,2.89,109.56
	C0.54,85.95,0.16,62.27,0,38.59c-0.03-4.38,1.17-5.54,6.17-5.06c29.3,2.83,58.64,5.19,88.16,2.98
	c35.58-2.67,68.13-12.78,96.42-32.81c6.02-4.25,9.69-5.42,16.3-0.35c32.69,25.15,71.87,34.01,113.64,35.55
	c24.28,0.89,48.48-0.72,72.62-2.77c4.89-0.41,6.74,0.22,6.68,5.23c-0.38,39.84-3.47,79.45-12.79,118.43
	c-9.12,38.13-22.95,74.67-44.73,108.66c-8.78,13.7-18.62,26.64-28.27,39.77c-11.24,11.4-21.34,23.8-33.87,34.1
	c-5.42,4.45-11.23,8.45-15.3,14.08c-18.99,14.46-38.5,28.26-59.19,40.72c-5.74,3.46-10.18,4.12-15.61,0.26
	c-2.8-1.99-6.11-3.4-9.19-5.06c-9.05-5.84-18.1-11.68-27.15-17.51c-6.67-5.06-12.85-10.67-20.51-14.58
	c-2.42-3.57-5.85-6.2-9.66-8.47l-0.08-0.12c-0.01-0.73-0.38-1.14-1.22-1.13l-0.16-0.09c-3.16-3.28-5.88-7.03-10.83-8.39
	c0,0-0.29-0.25-0.27-0.25c-5.09-8.24-13.28-14.05-20.02-20.99c-3.76-4.29-7.5-8.57-11.26-12.86
	C72.8,298.47,65.73,289.03,58.66,279.58z M25.67,177.39c-0.03,3.9,1.1,7.55,2.89,11.05l-0.01-0.01c-0.14,4.03,1.99,7.58,3.14,11.31
	c9.43,30.28,23.52,58.96,42.54,85c18.14,24.82,39.55,47.63,65.12,66.89c17.38,13.09,35.11,25.63,54.22,36.56
	c3.14,1.79,5.33,1.87,8.49-0.04c29.53-17.71,56.94-37.71,81.06-61.31c28.95-28.35,52.07-60.2,68.81-95.77
	c27.06-57.53,36.32-118.15,37.63-180.14c0.1-4.44-2.1-5.01-6.25-4.71c-19.87,1.46-39.77,2.87-59.73,2.29
	c-39.33-1.14-77.02-8.3-109.64-29.27c-11.12-7.15-18.03-8.03-29.76-0.41c-28.55,18.53-61.81,25.78-96.6,27.46
	c-24.27,1.18-48.44-0.48-72.61-2.31c-0.9-0.01-1.8-0.04-2.69-0.05c-1.43,0.09-1.86,0.98-1.85,2.07c0.29,13.8-0.6,27.64,1.7,41.37
	c0.16,4.01,0.34,8.02,0.5,12.02c-0.34,6.79,0.57,13.47,2.23,20.07c0.18,2.4,0.34,4.79,0.52,7.19c1.2,9.21,1.74,18.53,4.91,27.46
	c0.19,1.57,0.39,3.13,0.59,4.7c1.32,6.27,1.76,12.74,4.84,18.64L25.67,177.39z"/>
<path class="st1" d="M265.03,356.41c4.06-5.63,9.88-9.62,15.3-14.08c12.53-10.29,22.63-22.68,33.87-34.1
	c1.7,5.91-4.04,8.96-7.09,12.06c-6.89,6.99-14.07,13.99-20.84,20.95c-5.09,5.24-13.73,7.47-16.06,15.2
	C269.46,359,266.82,356.91,265.03,356.41z"/>
<path class="st1" d="M58.66,279.58c7.08,9.45,14.14,18.89,21.22,28.34c-3.66,0.99-6.1-0.42-7.72-3.3
	c-3.13-5.58-6.68-10.92-10.86-15.91C58.98,285.95,57.95,283.01,58.66,279.58z"/>
<path class="st1" d="M153.9,374.8c9.05,5.84,18.1,11.68,27.15,17.51c-4.6,2.25-6.02-2.45-9.12-3.53
	c-6.97-2.4-12.25-7.17-17.94-11.32C152.7,376.54,153.65,375.7,153.9,374.8z"/>
<path class="st1" d="M91.13,320.77c6.75,6.94,14.93,12.75,20.02,20.99c-7.31-4.35-11.89-11.43-19.19-15.84
	C90.12,324.82,91.46,322.5,91.13,320.77z"/>
<path class="st1" d="M111.44,342.02c4.95,1.37,7.68,5.11,10.83,8.39C117.95,348.35,111.12,349,111.44,342.02z"/>
<path class="st1" d="M123.72,351.74c3.8,2.28,7.23,4.9,9.66,8.47C128,359.43,125.09,356.32,123.72,351.74z"/>
<path class="st1" d="M122.43,350.49c0.84-0.01,1.21,0.4,1.22,1.13C123.25,351.25,122.84,350.88,122.43,350.49z"/>
<path class="st1" d="M14.97,43.97c24.17,1.83,48.34,3.49,72.62,2.31c34.79-1.68,68.05-8.93,96.6-27.46
	c11.73-7.62,18.63-6.74,29.76,0.41c32.62,20.95,70.29,28.13,109.64,29.27c19.97,0.58,39.86-0.84,59.73-2.29
	c4.15-0.31,6.34,0.27,6.25,4.71c-1.29,61.99-10.56,122.61-37.63,180.14c-16.74,35.59-39.85,67.42-68.81,95.77
	c-24.12,23.61-51.53,43.6-81.06,61.31c-3.17,1.9-5.35,1.83-8.49,0.04c-19.12-10.92-36.84-23.48-54.22-36.56
	c-25.57-19.26-46.98-42.05-65.12-66.89c-19.03-26.04-33.11-54.72-42.54-85c-1.16-3.72-3.29-7.27-3.14-11.31
	c3.73-0.57,2.59-3.27,2.75-5.33c0.46-6.05-1.1-12.1,0.01-18.15c2.87,10.32,5.48,20.72,8.68,30.95
	C51.85,233.9,70.59,269.02,97.42,300c26.76,30.91,59.51,56.17,96.17,77.21c3.78,2.16,6.17,1.04,9.1-0.78
	c18.51-11.49,36.24-23.76,53.05-37.35c33.63-27.2,60.29-59.01,80-95.61c31.11-57.81,41.4-119.72,42.65-183.33
	c0.08-4.09-1.06-5.17-5.74-4.82c-16.03,1.2-32.08,2.23-48.19,2.24c-44.65,0.05-86.28-8.81-122.12-34.44
	c-3.43-2.45-5.19-0.74-7.55,0.84c-16.75,11.22-35.11,19.51-55.13,24.71c-36.04,9.38-72.63,7.72-109.28,4.42
	c-8.86-0.8-8.97-1.04-8.74,7.33c0.48,17.49,1.12,34.98,1.69,52.46c-4.37-0.56-2.61-3.69-2.82-5.83
	c-1.16-12.12,2.41-24.52-2.65-36.44c-0.53-1.24-0.56-3.14,0.14-4.23c2.95-4.59-1.8-10.07,2.31-14.56c0.93-1.01-0.45-2.61-1.93-3.49
	C16.62,47.31,15.09,46.04,14.97,43.97z"/>
<path class="st2" d="M14.97,43.97c0.12,2.09,1.65,3.34,3.36,4.37c1.48,0.89,2.86,2.49,1.93,3.49c-4.11,4.49,0.63,9.97-2.31,14.56
	c-0.69,1.09-0.65,2.99-0.14,4.23c5.06,11.92,1.5,24.32,2.65,36.44c0.2,2.14-1.55,5.27,2.82,5.83l-0.04,0.01
	c-2.23,12.48,2.3,24.58,3.36,36.83c0.38,4.51-0.34,11.08,4.7,15.18l0.01,0.05c-1.1,6.05,0.45,12.1-0.01,18.15
	c-0.16,2.07,0.98,4.75-2.75,5.33l0.01,0.01c-1.24-3.62,2.98-8.42-2.89-11.05l0.05,0.02c1.01-6.78,0.95-13.32-4.84-18.64
	c-0.19-1.57-0.39-3.13-0.59-4.7c-0.08-4.04-0.68-8.14-0.12-12.11c0.83-5.89-1.97-10.55-4.79-15.35c-0.18-2.4-0.34-4.79-0.52-7.19
	c0.04-5.24,0.11-10.49,0.11-15.72c0-1.77,0.44-3.78-2.34-4.34c-0.16-4.01-0.34-8.02-0.5-12.02c0.05-14.48,0.1-28.96,0.15-43.44
	C13.17,43.93,14.07,43.94,14.97,43.97z"/>
<path class="st1" d="M15.38,126.63c2.8,4.8,5.61,9.46,4.79,15.35c-0.56,3.97,0.04,8.06,0.12,12.11
	C17.12,145.16,16.58,135.84,15.38,126.63z"/>
<path class="st1" d="M12.28,43.9c-0.05,14.47-0.1,28.96-0.15,43.44c-2.29-13.73-1.42-27.57-1.7-41.37
	C10.41,44.88,10.85,43.99,12.28,43.9z"/>
<path class="st1" d="M20.88,158.78c5.8,5.32,5.85,11.86,4.84,18.64C22.65,171.52,22.21,165.05,20.88,158.78z"/>
<path class="st1" d="M12.63,99.37c2.78,0.56,2.34,2.59,2.34,4.34c0,5.24-0.07,10.49-0.11,15.72
	C13.2,112.82,12.29,106.16,12.63,99.37z"/>
<path class="st1" d="M25.67,177.39c5.88,2.62,1.65,7.42,2.89,11.05C26.76,184.94,25.64,181.29,25.67,177.39z"/>
<path class="st0" d="M23.3,112.87c-0.57-17.49-1.21-34.97-1.69-52.46c-0.23-8.37-0.12-8.14,8.74-7.33
	c36.65,3.3,73.25,4.96,109.28-4.42c20.02-5.21,38.38-13.48,55.13-24.71c2.35-1.58,4.12-3.29,7.55-0.84
	c35.83,25.63,77.47,34.48,122.12,34.44c16.11-0.01,32.16-1.04,48.19-2.24c4.68-0.35,5.82,0.73,5.74,4.82
	c-1.25,63.61-11.54,125.52-42.65,183.33c-19.71,36.61-46.37,68.41-80,95.61c-16.81,13.59-34.54,25.86-53.05,37.35
	c-2.93,1.82-5.32,2.96-9.1,0.78c-36.65-21.04-69.41-46.3-96.17-77.21c-26.81-30.98-45.56-66.1-57.42-104.11
	c-3.2-10.24-5.8-20.63-8.68-30.95l-0.01-0.05c-2.68-17.34-5.36-34.68-8.04-52.01L23.3,112.87z M189.2,344.22
	c5.39-1.84,9.55-9.39,16.84-2.72c1.03,0.95,4.36,0.62,2.84-2.59c-2.35-4.95,0.04-8.09,4.72-10.51c1.43-0.74,3.31-1.42,3.28-4.03
	c-6.86,0.26-14,0.96-15.88-7.67c-0.41-1.89-3.55-1.72-3.78,1.11c-0.52,6.11-4.59,7.15-10.28,6.59c-1.52-0.15-3.55-0.69-5.16,1.16
	c3.09,2.18,6.85,3.81,8.91,6.51c2.61,3.4-2.44,6.72-1.77,10.43c0.11,0.61,0.24,1.2,0.37,1.79l-0.45,0.06L189.2,344.22z
	 M185.59,109.47c0.31-2.81,0.45-7.58,1.5-12.18c1.02-4.54,3.97-8.06,9.77-7.77c5.5,0.28,7.4,4.07,8.53,8.3
	c0.67,2.51-0.75,6.36,4.64,5.75c3.13-0.35,6.3-0.43,9.39-0.95c1.25-0.21,0.9-1.67,0.91-2.68c0.05-9.31-7.44-19.15-16.35-21.4
	c-12.25-3.1-23.83,0.52-29.33,9.96c-8.4,14.41-7.85,29.44-1.09,44.08c4.19,9.07,16.18,13.9,26.55,12.11
	c10.47-1.81,18.58-9.56,19.99-19.28c0.24-1.65,1.47-4.13-1.57-4.55c-3.55-0.48-7.29-0.75-10.79-0.22c-3.08,0.47-1.89,3.78-2.83,5.74
	c-1.82,3.8-4.08,6.82-9.42,6.62c-5.05-0.19-7.04-3.19-8.34-6.9C185.49,121.3,185.81,116.33,185.59,109.47z M99.31,111.79
	c0.16-4.51-0.14-9.04,1.2-13.48c1.39-4.65,3.58-8.81,9.64-8.82c6.26-0.01,8.12,4.39,9.17,9.07c0.57,2.55,0.16,5.65,4.86,4.95
	c3.1-0.47,6.27-0.48,9.39-0.92c1.05-0.15,0.76-1.31,0.8-2.1c0.48-8.44-7.55-19.38-15.95-21.76c-11.91-3.36-24.39,0.22-29.7,9.18
	c-8.49,14.34-8.19,29.34-1.65,44.06c4.18,9.41,15.56,14.37,26.09,12.75c11.26-1.73,19.42-9.38,21.05-19.83
	c0.23-1.48,1.24-3.67-1.48-4.01c-3.57-0.43-7.28-0.79-10.81-0.35c-3.48,0.43-2.45,3.96-3.38,6.06c-1.66,3.74-3.82,6.48-8.78,6.39
	c-4.87-0.09-7.2-2.84-8.74-6.56C99.04,121.68,99.39,116.72,99.31,111.79z M190.45,183.25c-0.16-0.45-0.33-0.89-0.5-1.34
	c-5.87,0-11.8-0.51-17.58,0.14c-6.33,0.69-8.81-1.82-10.23-6.89c-1.48-5.31-3.67-10.45-6.06-17.04c-3.17,7.87-5.84,13.94-8.04,20.16
	c-1.1,3.09-2.9,3.8-6.29,3.76c-6.57-0.09-13.23-0.73-20.95,0.66c6.41,4.34,11.72,8.14,17.27,11.6c2.93,1.83,3.42,3.61,2.35,6.69
	c-2.1,6.14-5.24,12.04-6.27,19.57c6.53-4.3,12.3-7.84,17.73-11.78c3.03-2.2,5.17-2.25,8.22,0.02c5.04,3.77,10.49,7.09,16.32,10.95
	c-0.26-7-2.19-12.67-4.67-18.05c-1.82-3.96-0.5-5.92,2.97-8.04C180.1,190.38,185.23,186.74,190.45,183.25z M244.26,160.66
	c-3.99,5.49-5.85,11.22-7.47,16.93c-0.87,3.09-2.1,4.59-5.85,4.4c-5.19-0.26-10.41-0.09-15.61-0.02c-1.02,0.01-2.34-0.33-2.91,0.95
	c-0.54,1.25,0.63,1.82,1.31,2.56c2.33,2.5,5.61,3.81,8.41,5.69c4.55,3.04,10.17,6.44,6.03,12.57c-2.26,3.34-1.21,7.56-4.49,10.4
	c-1.08,0.94-0.88,2.29,0.41,3.22c1.27,0.92,2.07-0.04,2.79-0.74c3.78-3.61,9.51-4.53,13.39-7.97c2.64-2.34,4.76-1.89,7.68-0.09
	c5.61,3.46,10.55,7.92,18.22,10.92c-2.37-6.75-4.11-12.46-6.38-17.97c-1.43-3.49-0.64-5.48,2.72-7.68
	c5.32-3.49,11.28-6.37,16.52-11.91c-7.38,0-13.47-0.24-19.53,0.07c-4.68,0.25-7.27-0.71-8.66-5.34
	C249.3,171.44,248.18,165.89,244.26,160.66z M257.43,111.22c0,9.25,0.18,18.52-0.08,27.77c-0.11,3.8,1.28,5.03,5.4,4.95
	c9.28-0.19,18.56-0.21,27.83,0.07c4.68,0.15,6.03-1.2,6.26-5.53c0.31-5.52-1.58-7.55-7.57-6.86c-2.9,0.33-5.92-0.25-8.81,0.1
	c-5.66,0.68-7.31-1.3-7.17-6.42c0.37-13.98,0.07-27.98,0.16-41.97c0.03-3.08-0.39-5.31-4.7-4.89c-2.01,0.2-4.1,0.19-6.1-0.02
	c-4.29-0.43-5.39,1.36-5.31,5C257.57,92.7,257.43,101.95,257.43,111.22z M220.57,278.8c7.88-8.61,15.15-7.09,23.54-0.35
	c-7.01-9.66-2.63-15.34,7.49-19.54c-13.85-2.08-13.85-2.08-20.17-13.42c-1.08,10.58-7.2,14.55-18.45,12.98
	C223.41,262.96,225.84,269.21,220.57,278.8z M348.2,184.47c-11.66,2.15-17.04-2.68-18.52-13.01c-5.69,11.42-5.69,11.42-19.88,13.54
	c10.7,4.32,13.56,10.58,7.39,20.19c8.25-8.91,15.87-7.47,24.4-0.26C334.66,195.49,337.68,189.29,348.2,184.47z M146.68,312.13
	c-7.2-9.56-3.52-15.67,5.76-20.76c-11.53,2.35-16.73-2.34-18.92-12.05c-0.9,11.22-8.38,13.3-18.56,12.29
	c6.15,4.64,14.34,7.68,7.68,16.25c-0.26,0.33,0.41,1.51,0.95,2.04c1.16,1.14,2.19-0.06,2.75-0.63c5.87-5.96,10.96-2.87,16.07,0.98
	C143.05,310.75,143.96,310.96,146.68,312.13z M187.87,258.44c-12.58-1.53-12.58-1.53-19.52-13.77
	c-0.29,11.32-6.79,14.71-17.77,13.53c10.33,4.32,12.07,10.66,7.36,19.6c7.99-7.59,15.27-6.89,23.08,0.24
	C175.75,268.93,177.67,262.54,187.87,258.44z M82.76,204.33c-6.11-8.78-3.32-15.05,7.34-19.31c-5.65-1.77-10.94,0.78-13.88-1.79
	c-2.83-2.49-3.61-6.89-5.29-10.46c-1.96,9.05-6.79,13.9-18.51,11.97c11.17,4.74,11.4,11.5,5.59,20.06
	C71.27,198.49,71.27,198.49,82.76,204.33z M109.64,261.09c-5.93-9.13-3.44-15.66,6.78-21.08c-11.73,4.13-15.53-2.55-19.82-10.39
	c-0.11,11.14-8.27,11.31-17.27,11.58c12.02,4.28,10.14,11.65,6.76,20.21C94.08,251.63,101.5,254.42,109.64,261.09z M265.16,278.94
	c-0.44,11.49-7.35,13.98-18.41,12.73c11.26,3.98,13.09,10.46,7.74,19.77c8.18-7.42,15.45-6.84,23.33,0.1
	c-6.18-9.55-1.89-15.39,8.74-20.03c-6.68-0.36-11.66,0.58-14.96-1.14C268.27,288.64,269.24,283.2,265.16,278.94z M320.59,241.96
	c0.26-0.79,0.52-1.58,0.78-2.36c-13.42,5.27-15.86-2.84-18.85-10.92c-1.57,8.93-5.35,14.86-16.84,12.22
	c1.67,4.68,7.66,4.76,7.85,8.42c0.18,3.43-1.29,6.93-2.06,10.49c0.87-0.04,1.37,0.06,1.74-0.1c5.39-2.33,10.37-7.8,16.74-1.11
	c1.06,1.11,3.55,0.43,2.37-2.3c-2.53-5.81-0.11-9.76,5.87-12.33C319.12,243.54,319.78,242.62,320.59,241.96z M230.03,136.39
	c-1.51,5.89,0.99,7.79,7.36,7.68c5.38-0.09,8-1.1,7.27-6.47c-0.54-4,1.63-8.86-6.56-8.37C232.3,129.56,227.88,129.7,230.03,136.39z
	 M317.96,137.36c-0.05-8.03-0.11-7.48-7.65-8.14c-8.32-0.72-6.68,4.07-7.19,8.45c-0.63,5.47,2.06,6.23,7.35,6.41
	C317.05,144.29,319.19,142.13,317.96,137.36z M157.95,136.77c1.29-5.06-0.19-7.67-7.08-7.61c-6.15,0.05-7.68,1.93-7.51,7.17
	c0.15,4.98,0.46,8,7.55,7.76C156.93,143.9,159.35,142.45,157.95,136.77z"/>
<path class="st1" d="M23.25,112.89c2.68,17.34,5.36,34.68,8.04,52.01c-5.04-4.09-4.3-10.66-4.7-15.18
	C25.56,137.45,21.01,125.37,23.25,112.89z"/>
<path class="st1" d="M185.59,109.47c0.22,6.85-0.1,11.82,1.58,16.61c1.31,3.71,3.29,6.7,8.34,6.9c5.33,0.2,7.59-2.82,9.42-6.62
	c0.94-1.95-0.24-5.27,2.83-5.74c3.5-0.53,7.24-0.26,10.79,0.22c3.03,0.42,1.81,2.91,1.57,4.55c-1.42,9.72-9.54,17.49-19.99,19.28
	c-10.37,1.78-22.36-3.04-26.55-12.11c-6.78-14.64-7.31-29.67,1.09-44.08c5.5-9.44,17.08-13.06,29.33-9.96
	c8.9,2.25,16.4,12.08,16.35,21.4c0,1.01,0.35,2.46-0.91,2.68c-3.09,0.53-6.26,0.61-9.39,0.95c-5.39,0.61-3.97-3.25-4.64-5.75
	c-1.13-4.22-3.03-8.02-8.53-8.3c-5.8-0.31-8.75,3.23-9.77,7.77C186.04,101.9,185.91,106.66,185.59,109.47z"/>
<path class="st1" d="M99.31,111.8c0.08,4.92-0.27,9.88,1.7,14.63c1.54,3.71,3.87,6.47,8.74,6.56c4.95,0.1,7.12-2.65,8.78-6.39
	c0.94-2.1-0.11-5.63,3.38-6.06c3.52-0.45,7.24-0.09,10.81,0.35c2.71,0.33,1.71,2.52,1.48,4.01c-1.63,10.44-9.8,18.1-21.05,19.83
	c-10.53,1.62-21.91-3.34-26.09-12.75c-6.53-14.72-6.85-29.72,1.65-44.06c5.31-8.96,17.79-12.54,29.7-9.18
	c8.4,2.37,16.43,13.32,15.95,21.76c-0.04,0.79,0.24,1.97-0.8,2.1c-3.1,0.43-6.29,0.46-9.39,0.92c-4.68,0.71-4.29-2.4-4.86-4.95
	c-1.05-4.69-2.93-9.08-9.17-9.07c-6.04,0.01-8.25,4.17-9.64,8.82C99.17,102.74,99.47,107.28,99.31,111.8z"/>
<path class="st1" d="M190.45,183.25c-5.23,3.49-10.36,7.11-15.73,10.4c-3.46,2.12-4.79,4.08-2.97,8.04
	c2.48,5.38,4.41,11.06,4.67,18.05c-5.82-3.86-11.28-7.17-16.32-10.95c-3.05-2.29-5.19-2.23-8.22-0.02
	c-5.43,3.93-11.2,7.48-17.73,11.78c1.05-7.52,4.18-13.43,6.27-19.57c1.06-3.08,0.57-4.87-2.35-6.69
	c-5.55-3.46-10.85-7.26-17.27-11.6c7.72-1.39,14.37-0.74,20.95-0.66c3.39,0.05,5.19-0.67,6.29-3.76c2.2-6.22,4.87-12.29,8.04-20.16
	c2.38,6.59,4.57,11.74,6.06,17.04c1.43,5.07,3.91,7.59,10.23,6.89c5.78-0.64,11.72-0.14,17.58-0.14
	C190.13,182.38,190.29,182.82,190.45,183.25z"/>
<path class="st1" d="M244.26,160.66c3.92,5.23,5.04,10.79,6.59,16.01c1.39,4.64,3.99,5.59,8.66,5.34
	c6.06-0.32,12.15-0.07,19.53-0.07c-5.24,5.53-11.2,8.42-16.52,11.91c-3.36,2.2-4.15,4.21-2.72,7.68c2.26,5.52,4.01,11.22,6.38,17.97
	c-7.68-3.01-12.63-7.45-18.22-10.92c-2.93-1.81-5.05-2.25-7.68,0.09c-3.88,3.44-9.61,4.34-13.39,7.97
	c-0.73,0.69-1.52,1.66-2.79,0.74c-1.28-0.94-1.48-2.29-0.41-3.22c3.28-2.84,2.23-7.06,4.49-10.4c4.14-6.12-1.5-9.52-6.03-12.57
	c-2.82-1.88-6.1-3.2-8.41-5.69c-0.68-0.74-1.86-1.3-1.31-2.56c0.56-1.29,1.88-0.94,2.91-0.95c5.2-0.06,10.42-0.24,15.61,0.02
	c3.76,0.19,4.98-1.32,5.85-4.4C238.41,171.86,240.28,166.15,244.26,160.66z"/>
<path class="st1" d="M257.43,111.22c0-9.25,0.15-18.52-0.07-27.77c-0.08-3.64,1.01-5.44,5.31-5c2.01,0.21,4.1,0.22,6.1,0.02
	c4.29-0.43,4.71,1.79,4.7,4.89c-0.1,13.99,0.2,27.98-0.16,41.97c-0.14,5.12,1.51,7.1,7.17,6.42c2.89-0.35,5.92,0.22,8.81-0.1
	c5.99-0.68,7.88,1.35,7.57,6.86c-0.24,4.33-1.59,5.68-6.26,5.53c-9.27-0.3-18.56-0.27-27.83-0.07c-4.12,0.09-5.51-1.15-5.4-4.95
	C257.6,129.73,257.43,120.47,257.43,111.22z"/>
<path class="st1" d="M220.57,278.8c5.27-9.6,2.84-15.84-7.59-20.32c11.26,1.57,17.38-2.4,18.45-12.98
	c6.31,11.34,6.31,11.34,20.17,13.42c-10.11,4.19-14.49,9.87-7.49,19.54C235.72,271.72,228.45,270.21,220.57,278.8z"/>
<path class="st1" d="M348.2,184.47c-10.52,4.82-13.54,11.02-6.63,20.46c-8.53-7.21-16.15-8.65-24.4,0.26
	c6.17-9.61,3.31-15.87-7.39-20.19c14.19-2.14,14.19-2.14,19.88-13.54C331.16,181.78,336.54,186.63,348.2,184.47z"/>
<path class="st1" d="M146.68,312.13c-2.72-1.16-3.63-1.37-4.29-1.87c-5.12-3.85-10.19-6.93-16.07-0.98
	c-0.56,0.57-1.59,1.77-2.75,0.63c-0.54-0.53-1.21-1.72-0.95-2.04c6.68-8.58-1.52-11.63-7.68-16.25c10.19,1,17.68-1.09,18.56-12.29
	c2.19,9.71,7.39,14.4,18.92,12.05C143.16,296.47,139.48,302.56,146.68,312.13z"/>
<path class="st1" d="M187.87,258.44c-10.19,4.09-12.11,10.49-6.85,19.6c-7.81-7.12-15.09-7.84-23.08-0.24
	c4.71-8.94,2.97-15.29-7.36-19.6c10.97,1.18,17.49-2.21,17.77-13.53C175.29,256.91,175.29,256.91,187.87,258.44z"/>
<path class="st1" d="M82.76,204.33c-11.49-5.84-11.49-5.84-24.76,0.46c5.8-8.55,5.57-15.33-5.59-20.06
	c11.72,1.93,16.55-2.92,18.51-11.97c1.67,3.56,2.46,7.98,5.29,10.46c2.94,2.59,8.23,0.04,13.88,1.79
	C79.44,189.27,76.65,195.54,82.76,204.33z"/>
<path class="st1" d="M109.64,261.09c-8.12-6.67-15.54-9.46-23.54,0.32c3.36-8.55,5.25-15.92-6.76-20.21
	c8.98-0.27,17.16-0.43,17.27-11.58c4.29,7.83,8.08,14.52,19.82,10.39C106.2,245.43,103.69,251.96,109.64,261.09z"/>
<path class="st1" d="M265.16,278.94c4.08,4.25,3.12,9.7,6.44,11.43c3.29,1.72,8.27,0.78,14.96,1.14
	c-10.63,4.63-14.92,10.48-8.74,20.03c-7.88-6.94-15.15-7.52-23.33-0.1c5.35-9.3,3.51-15.8-7.74-19.77
	C257.81,292.92,264.72,290.43,265.16,278.94z"/>
<path class="st1" d="M320.59,241.96c-0.79,0.68-1.46,1.58-2.4,1.99c-5.97,2.57-8.4,6.53-5.87,12.33c1.2,2.75-1.31,3.41-2.37,2.3
	c-6.37-6.69-11.35-1.21-16.74,1.11c-0.37,0.16-0.87,0.06-1.74,0.1c0.76-3.56,2.25-7.06,2.06-10.49c-0.19-3.66-6.18-3.75-7.85-8.42
	c11.49,2.65,15.27-3.29,16.84-12.22c2.98,8.08,5.42,16.18,18.85,10.92C321.09,240.37,320.85,241.17,320.59,241.96z"/>
<path class="st1" d="M189.3,344.31c-0.12-0.59-0.27-1.19-0.37-1.79c-0.67-3.72,4.38-7.03,1.77-10.43c-2.07-2.7-5.82-4.34-8.91-6.51
	c1.61-1.86,3.62-1.31,5.16-1.16c5.7,0.56,9.76-0.47,10.28-6.59c0.24-2.82,3.38-2.99,3.78-1.11c1.88,8.63,9.02,7.93,15.88,7.67
	c0.03,2.61-1.85,3.3-3.28,4.03c-4.68,2.42-7.06,5.55-4.72,10.51c1.51,3.19-1.8,3.54-2.84,2.59c-7.29-6.67-11.46,0.88-16.84,2.72
	L189.3,344.31z"/>
<path class="st1" d="M230.03,136.39c-2.15-6.68,2.27-6.83,8.07-7.16c8.19-0.48,6.03,4.38,6.56,8.37c0.72,5.37-1.91,6.38-7.27,6.47
	C231.02,144.17,228.52,142.26,230.03,136.39z"/>
<path class="st1" d="M317.96,137.36c1.22,4.75-0.91,6.91-7.5,6.72c-5.28-0.16-7.98-0.93-7.35-6.41c0.5-4.39-1.13-9.18,7.19-8.45
	C317.85,129.88,317.91,129.34,317.96,137.36z"/>
<path class="st1" d="M157.95,136.77c1.4,5.68-1.02,7.12-7.04,7.32c-7.09,0.25-7.4-2.77-7.55-7.76c-0.16-5.26,1.36-7.12,7.51-7.17
	C157.75,129.11,159.25,131.71,157.95,136.77z"/>
<polygon class="st1" points="189.2,344.22 188.85,344.36 189.3,344.3 "/>
</svg>
