<?xml version="1.0" encoding="utf-8"?>
<!-- Generator: Adobe Illustrator 23.1.0, SVG Export Plug-In . SVG Version: 6.00 Build 0)  -->
<svg version="1.1" id="Capa_1" xmlns="http://www.w3.org/2000/svg" xmlns:xlink="http://www.w3.org/1999/xlink" x="0px" y="0px"
	 viewBox="0 0 400 400" style="enable-background:new 0 0 400 400;" xml:space="preserve">
<style type="text/css">
	.st0{fill:#060403;}
	.st1{fill:#EA260F;}
	.st2{fill:#ED2810;}
	.st3{fill:#EC2710;}
	.st4{fill:#F4F1F0;}
</style>
<path class="st0" d="M199.84,400c-19.05-24.1-48.56-32.53-79.64-38.89c-23.22-4.76-47.06-7.6-69.84-13.77
	C13.12,337.25,0,322.91,0,292.12C0,197.41,0,102.71,0,8c0-2.49,0-4.99,0-7.76c4.8,0.6,6.84,3.13,9.49,4.82
	c25.83,16.51,57.07,17.14,83.6,1.43c3.58-2.12,5.86-3.74,10.75-0.93c28.95,16.63,58.76,15.66,88.48,1.27
	c5.42-2.62,9.1-3.01,14.81-0.22c29.94,14.62,59.96,15.6,89.44-1.07c2.82-1.59,4.68-2.5,8.44-0.46c33.2,18.07,58.59,17.13,89.39-2.87
	c1.19-0.78,2.53-1.42,3.96-2.22c2.55,2.6,1.35,5.23,1.35,7.62c0.08,95.74,0.08,191.47,0.06,287.21c0,26.88-12.83,41.38-45.16,51.07
	c-23.78,7.13-49.02,9.9-73.49,14.95c-2.23,0.46-4.46,0.89-6.69,1.36C244.92,368.4,217.66,377.42,199.84,400z M61.84,131.96
	c-0.11-3.87-0.32-7.74-0.32-11.61c-0.03-28.92,0.03-57.84-0.09-86.75c-0.01-2.72,1.92-7.13-4.61-6.87
	c-15.51,0.63-29.83-2.56-43.33-8.21c-2.2,3.48-1.4,6.35-1.4,9.13c-0.05,88.82-0.05,177.64-0.04,266.45c0,23.23,9.76,34.53,37.1,43.2
	c12.03,3.81,12.33,3.65,12.35-6.56c0.1-40.02,0.2-80.03,0.29-120.05c14.51,6.7,24.79,4.1,31.25-8.19c1.99-3.78,2.89-7.91,4.45-11.84
	c2.49-6.28-0.16-9.83-9.05-10.47c-0.8,2.95-1.46,5.95-2.43,8.89c-1.69,5.12-3.81,10.66-12,10.56c-8.15-0.11-10.52-5.82-11.78-10.85
	c-2.93-11.74-2.82-23.6,0.03-35.38c0.54-2.22,1.86-4.45,3.45-6.35c5.58-6.66,13.92-6.19,18.16,0.98c1.09,1.85,1.35,3.99,2.37,5.87
	c0.95,1.73-0.37,5.49,4.79,4.04c3.67-1.03,7.83-1.96,6.25-6.34c-1.34-3.71-2.09-7.59-3.83-11.18
	C87.3,127.65,76.74,124.91,61.84,131.96z M338.36,213.79c-0.03,17.02-0.09,34.05-0.1,51.07c-0.01,23.21,0,46.43,0.01,69.64
	c0,3.12-0.86,6.64,5.98,4.73c26.48-7.42,44.05-18.23,43.91-44.3c-0.48-89.24-0.18-178.49-0.21-267.73c0-2.69-0.31-5.39-0.52-8.89
	c-13.58,5.26-26.54,9.09-40.64,8.26c-7.38-0.43-8.67,1.87-8.63,7c0.24,31.72,0.11,63.45,0.11,95.18c-7.22,0.16-14.44,0.6-21.64,0.4
	c-5.36-0.15-6.65,1.48-6.62,5.41c0.18,24.49,0.18,48.99,0,73.48c-0.03,3.99,1.45,5.48,6.71,5.34
	C323.92,213.19,331.15,213.63,338.36,213.79z M224.07,202.09c0.16,3.61,0.46,7.21,0.46,10.82c0.03,49.29,0.07,98.59-0.07,147.88
	c-0.01,5.09,0.45,7.33,7.86,4.15c15.11-6.48,31.55-10.49,48.36-13.1c8.18-1.27,10.3-4.08,10.27-10.4
	c-0.31-62.45-0.19-124.91-0.19-187.36c0-42.32-0.12-84.65,0.14-126.97c0.04-6.19-1.29-7.76-9.16-4.96
	c-14.51,5.15-29.95,5.71-45.51,3.44c-11.7-1.71-11.66-1.82-11.7,7.66c-0.14,35.61-0.29,71.22-0.43,106.82
	c-4.75-6.15-9.15-12.87-20.41-11.97c-11.56,0.92-15.87,7.96-19.69,15.2c-3.66,6.94-3.95,14.42-5.52,21.7
	c-3.97-2.33-2.33-5.71-2.34-8.62c-0.1-41.81-0.16-83.63,0.06-125.44c0.03-5.61-0.84-7.92-9.19-6.11
	c-16.32,3.55-32.75,2.61-48.37-2.62c-6.71-2.24-8.89-2-8.88,4.38c0.19,105.57,0.19,211.13,0,316.7c-0.01,5.1,2.02,7.28,8.33,8.33
	c16.12,2.7,31.83,6.56,46.71,12.26c11.26,4.31,11.26,4.31,11.26-5.91c0-57.56-0.04-115.12,0.08-172.67
	c0.01-3.15-1.83-6.79,2.33-9.38c0.48,2.79,1.03,5.57,1.44,8.37c1.25,8.46,3.14,16.8,9.89,23.81c8.42,8.75,21.46,8.63,29.58-0.16
	C221.13,206.07,222.53,204.04,224.07,202.09z"/>
<path class="st1" d="M178.5,175.9c-4.16,2.6-2.33,6.24-2.33,9.39c-0.12,57.56-0.08,115.12-0.08,172.67c0,10.23,0,10.23-11.26,5.91
	c-14.88-5.7-30.58-9.56-46.71-12.26c-6.31-1.06-8.34-3.23-8.33-8.33c0.19-105.57,0.2-211.13,0-316.7c-0.01-6.38,2.17-6.62,8.88-4.38
	c15.62,5.23,32.04,6.17,48.37,2.62c8.35-1.82,9.22,0.49,9.19,6.11c-0.23,41.81-0.17,83.63-0.06,125.44
	c0.01,2.91-1.63,6.29,2.34,8.61C178.5,168.62,178.5,172.26,178.5,175.9z"/>
<path class="st1" d="M224.12,140.06c0.14-35.61,0.29-71.22,0.43-106.83c0.04-9.48,0-9.37,11.7-7.66
	c15.56,2.28,30.99,1.72,45.51-3.44c7.87-2.8,9.2-1.23,9.16,4.96c-0.27,42.32-0.14,84.65-0.14,126.97
	c0,62.45-0.12,124.91,0.19,187.36c0.03,6.32-2.09,9.13-10.27,10.4c-16.82,2.62-33.25,6.62-48.36,13.1
	c-7.41,3.18-7.88,0.94-7.86-4.15c0.14-49.29,0.09-98.58,0.07-147.88c0-3.61-0.3-7.21-0.46-10.82c1.16-3.68,2.5-7.33,3.42-11.04
	c0.89-3.6,2.98-7.57-3.02-9.95c-0.09-7.94-0.18-15.88-0.26-23.82c3.49-1.35,4.01-3.5,3.09-6.27
	C226.09,147.39,225.16,143.71,224.12,140.06z"/>
<path class="st2" d="M338.27,128.76c0-31.73,0.13-63.45-0.11-95.18c-0.04-5.13,1.25-7.44,8.63-7c14.11,0.83,27.06-3.01,40.64-8.26
	c0.21,3.5,0.52,6.19,0.52,8.89c0.03,89.24-0.27,178.49,0.21,267.73c0.14,26.06-17.43,36.88-43.91,44.3
	c-6.84,1.92-5.98-1.61-5.98-4.73c0-23.21-0.02-46.43-0.01-69.64c0.01-17.02,0.06-34.05,0.1-51.07c0.95-0.13,1.92-0.41,2.85-0.36
	c6.98,0.38,11.75,0.26,11.84-7.58c0.09-7.97-4.86-7.91-11.79-7.58c-0.94,0.05-1.91-0.21-2.86-0.33c0.02-6.71,0.05-13.41,0.07-20.12
	c8.19,0.33,11.45-1.84,11.55-9.1c0.12-8.15-6.67-5.69-11.62-6.65c0.01-5.85,0.01-11.69,0.02-17.54c7.6-0.15,14.17,0.39,13.54-9.09
	C351.34,126.03,343.1,130.48,338.27,128.76z"/>
<path class="st3" d="M61.8,210.7c-0.1,40.02-0.2,80.03-0.29,120.05c-0.02,10.21-0.32,10.38-12.35,6.56
	c-27.34-8.67-37.1-19.98-37.1-43.2c-0.02-88.82-0.01-177.64,0.04-266.45c0-2.77-0.8-5.65,1.4-9.13c13.5,5.64,27.82,8.83,43.33,8.21
	c6.52-0.26,4.59,4.15,4.61,6.87c0.13,28.92,0.06,57.83,0.09,86.75c0,3.87,0.21,7.74,0.32,11.61
	C44.03,152.97,44.01,190.08,61.8,210.7z"/>
<path class="st4" d="M338.42,162.08c4.95,0.95,11.74-1.51,11.62,6.65c-0.1,7.26-3.37,9.42-11.55,9.1c-4.2-0.19-8.4-0.43-12.6-0.56
	c-2.32-0.07-4.97-0.06-4.97,2.47c0,5.85-1.74,12.42,1.13,17.29c2.02,3.44,10.66,1.1,16.37,0.93c0.95,0.12,1.92,0.38,2.86,0.33
	c6.92-0.34,11.88-0.4,11.79,7.58c-0.09,7.84-4.86,7.96-11.84,7.58c-0.93-0.05-1.9,0.23-2.85,0.36c-7.22-0.16-14.44-0.6-21.65-0.4
	c-5.26,0.14-6.74-1.35-6.71-5.34c0.18-24.49,0.18-48.99,0-73.48c-0.03-3.92,1.26-5.56,6.62-5.41c7.2,0.2,14.43-0.24,21.64-0.4
	c4.83,1.72,13.08-2.72,13.71,6.69c0.63,9.48-5.94,8.94-13.54,9.09c-4.25-0.12-8.49-0.27-12.74-0.37c-2.38-0.06-4.12,0.11-4.92,2.55
	c-3.94,11.97,0.24,16.26,15.72,15.65C337.14,162.35,337.78,162.18,338.42,162.08z"/>
<path class="st4" d="M61.8,210.7c-17.79-20.62-17.77-57.72,0.04-78.74c14.9-7.05,25.46-4.31,31.63,8.46
	c1.73,3.59,2.49,7.47,3.83,11.18c1.58,4.38-2.58,5.31-6.25,6.34c-5.17,1.45-3.84-2.31-4.79-4.04c-1.03-1.88-1.28-4.02-2.37-5.87
	c-4.24-7.17-12.58-7.64-18.16-0.98c-1.59,1.9-2.92,4.13-3.45,6.35c-2.85,11.77-2.96,23.64-0.03,35.38
	c1.26,5.04,3.63,10.75,11.78,10.85c8.19,0.11,10.31-5.43,12-10.56c0.97-2.94,1.63-5.93,2.43-8.89c8.89,0.64,11.55,4.19,9.05,10.47
	c-1.56,3.93-2.46,8.06-4.45,11.84C86.59,214.8,76.31,217.39,61.8,210.7z"/>
<path class="st4" d="M224.48,181.09c6,2.38,3.91,6.35,3.02,9.95c-0.92,3.72-2.27,7.37-3.42,11.04c-1.54,1.95-2.94,3.98-4.65,5.83
	c-8.12,8.79-21.16,8.91-29.58,0.16c-6.75-7.01-8.64-15.35-9.89-23.81c-0.41-2.79-0.96-5.58-1.44-8.37c0-3.64,0-7.28,0-10.92
	c1.56-7.27,1.85-14.76,5.51-21.7c3.82-7.24,8.13-14.28,19.69-15.2c11.26-0.9,15.66,5.82,20.41,11.97c1.05,3.65,1.98,7.33,3.18,10.95
	c0.92,2.77,0.4,4.92-3.09,6.27c-7.95,3.08-7.25-1.91-8.48-5.43c-1.39-3.97-2.94-8.16-9.03-9.23c-5.29-0.93-9.45,1.38-11.18,4.8
	c-8.05,15.9-8.45,32.11,0.28,47.83c3.7,6.65,12.79,6.06,17.65-0.39c2.55-3.39,3.67-7.25,3.93-11.04
	C217.72,178.86,221.13,180.38,224.48,181.09z"/>
<path class="st0" d="M224.48,181.09c-3.35-0.71-6.76-2.23-7.09,2.73c-0.26,3.78-1.37,7.65-3.93,11.04
	c-4.87,6.45-13.96,7.04-17.65,0.39c-8.74-15.71-8.33-31.93-0.28-47.83c1.73-3.42,5.89-5.73,11.18-4.8c6.09,1.07,7.64,5.26,9.03,9.23
	c1.23,3.52,0.53,8.51,8.48,5.43C224.3,165.21,224.39,173.15,224.48,181.09z"/>
<path class="st0" d="M338.41,197.94c-5.71,0.18-14.35,2.51-16.37-0.93c-2.86-4.87-1.12-11.44-1.13-17.29c0-2.53,2.65-2.54,4.97-2.47
	c4.2,0.13,8.4,0.37,12.6,0.56C338.46,184.53,338.43,191.24,338.41,197.94z"/>
<path class="st0" d="M338.42,162.08c-0.64,0.1-1.28,0.27-1.92,0.3c-15.48,0.61-19.66-3.69-15.72-15.65
	c0.81-2.45,2.55-2.61,4.92-2.55c4.25,0.1,8.49,0.24,12.74,0.37C338.43,150.38,338.42,156.23,338.42,162.08z"/>
</svg>
