<?xml version="1.0" encoding="utf-8"?>
<!-- Generator: Adobe Illustrator 23.1.0, SVG Export Plug-In . SVG Version: 6.00 Build 0)  -->
<svg version="1.1" id="Capa_1" xmlns="http://www.w3.org/2000/svg" xmlns:xlink="http://www.w3.org/1999/xlink" x="0px" y="0px"
	 viewBox="0 0 400 400" style="enable-background:new 0 0 400 400;" xml:space="preserve">
<style type="text/css">
	.st0{fill:#003298;}
	.st1{fill:#FEFEFE;}
	.st2{fill:#FE0000;}
	.st3{fill:#FE0101;}
</style>
<path class="st0" d="M201.83,400c-0.61,0-1.21,0-1.82,0c-15.12-3.72-28.33-11.72-41.14-20.61c-30.21-20.4-56.56-45.25-77.87-75.91
	c-20.35-26.85-35.54-56.8-47.41-88.75c-13.33-31.07-20.37-64.01-25.9-97.39c-2.65-16.04-4.45-32.19-5.06-48.47
	C0.75,61.8,4.01,54.42,1.43,47.4C0.72,39.24,1.31,31,0,22.88C1.05,15.2-2.24,6.68,3.93,0c0.61,0,1.21,0,1.82,0
	c11.98,3.53,21.31,12.96,33.17,16.75c3.22,1.22,5.94,3.79,9.57,3.91c1.35,0.38,2.55,1.14,3.88,1.6c13.97,4.27,28.26,6.86,42.7,8
	c14.55,1.15,28.84-1.87,43.04-4.93c13.67-1.92,25.61-8.94,37.87-14.84c7.91-3.81,15.48-8.38,24.04-10.49c0.61,0,1.21,0,1.82,0
	c4.46,2.07,9.35,2.97,13.65,5.5c4.43,2.42,8.5,5.52,13.08,7.65c5.92,1.97,10.9,6.45,17.3,7.11c15.3,4.95,30.88,8.56,46.79,10.02
	c15.77,1.45,31.13-2.05,46.39-5.77c4.98-1.21,9.85-2.86,14.88-3.85c3.04-1.16,6.1-2.29,8.93-4.01c7.11-4.18,14.42-7.94,21.62-11.94
	c3.72-2.07,7.81-5.27,12.61-2.34c2.95,3.36,2.72,7.57,2.77,11.67c0.14,11.71-0.02,23.43,0.14,35.14
	c-3.1,27.98-3.33,56.33-9.28,83.97c-1.4,6.49-2.67,13.01-4.17,19.46c-7.82,29.97-16.1,59.79-29.57,87.63
	c-1.99,5.27-4.64,10.17-7.64,14.86c-8.5,17.91-18.86,34.54-30.79,50.09c-7.16,10.42-14.82,20.38-23.93,29
	c-2.31,1.91-4.4,4.05-6.14,6.56c-15.24,16.51-32.96,29.63-51.18,42.08c-5.99,2.38-10.76,7.09-16.54,9.86
	C215.06,396.94,208.1,397.46,201.83,400z"/>
<path class="st1" d="M163.39,285.22c-35.71-16.12-59.26-43.24-66.79-84.24c-9.56-52.01,15.63-102.62,61.27-124.08
	c1.93-0.91,3.84-1.85,5.75-2.78c3.96-7.53,11.25-7.42,17.93-8.88c14.04-3.08,28.02-2.45,41.96,0.54c5.59,1.2,11.26,2.55,14.43,8.51
	c33.21,14.78,55.89,39.95,65.2,77.04c13.33,53.12-11.41,107.37-58.65,130.6c-2.19,1.07-4.38,2.13-6.57,3.2
	c-2.14,4.32-5.85,5.98-10.07,7.21c-17.16,5.01-34.36,4.92-51.65,0.94C171.08,292.11,166.48,290,163.39,285.22z"/>
<path class="st2" d="M13.93,18.63c19.23,11.2,38.52,18.95,59.14,22.85c15.44,2.93,15.42,3.09,15.42,20.33c0,72.64,0,145.29,0,217.93
	c0,3.11,0,6.21,0,9.9C48.26,252.86,7.06,103.11,13.93,18.63z"/>
<path class="st2" d="M312.6,289c0-40.32,0-80.64,0-120.96c0-38.77-0.02-77.54,0.03-116.31c0.01-3.87-1.46-8.57,4.88-9.1
	c24.46-2.04,46.94-10.9,69.96-24.29C387.13,117.17,368.8,208.77,312.6,289z"/>
<path class="st2" d="M163.39,285.22c24.85,9.35,49.69,9.15,74.52-0.09c0.06,25.22,0,50.45,0.27,75.67c0.05,4.49-1.33,7.25-5.01,9.01
	c-0.27,0.13-0.5,0.36-0.75,0.53c-30.7,20.92-32.6,20.86-63.61,0.24c-3.96-2.63-5.83-5.42-5.76-10.65
	C163.39,335.03,163.32,310.13,163.39,285.22z"/>
<path class="st2" d="M237.93,74.3c-24.75-9.22-49.52-9.24-74.31-0.17c-0.15-12.49-0.11-24.98-0.55-37.45
	c-0.16-4.47,1.9-6.19,5.26-7.57c9.59-3.92,18.79-8.75,27.47-14.56c3.59-2.4,6.14-1.91,9.69,0.18c8.7,5.11,17.58,9.97,26.74,14.05
	c4.76,2.12,6.13,4.76,5.95,9.96C237.78,50.57,237.98,62.44,237.93,74.3z"/>
<path class="st2" d="M216.68,174.45c0,21.78,0.32,43.56-0.17,65.33c-0.18,8,1.57,9.21,8.42,6.32c45.91-19.4,57.45-82.48,21.43-118.4
	c-2.97-2.96-6.05-4.45-1.67-9.5c4.52-5.22,6.45-0.63,8.48,1.49c23.16,24.16,30.98,53.23,20.76,85.86
	c-9.83,31.38-31.64,49.5-62.41,55.57c-6.12,1.21-4.7-3.05-4.7-6.22c-0.07-23.38-0.03-46.76-0.03-70.14
	c0-26.26-0.08-52.52,0.12-78.78c0.02-2.74-2.54-7.82,3.48-7.72c4.83,0.08,6.48,2.7,6.42,7.99
	C216.52,128.97,216.68,151.71,216.68,174.45z"/>
<path class="st2" d="M198.52,170.96c0,21.45-0.21,42.91,0.13,64.36c0.1,6.26-1.45,7.63-7.19,6.35
	c-25.44-5.68-41.99-21.15-48.24-48.15c-0.68-2.93-4.74-7.52,1.58-9.03c4.82-1.15,7.2,0.61,8.35,6.66
	c3.11,16.3,12.53,28.03,26.63,35.37c8.13,4.23,8.92,3.68,8.92-5.87c0.02-38.1-0.04-76.21,0.11-114.31c0.01-2.75-2.05-6.94,2.29-8.08
	c4.69-1.23,7.7-0.42,7.57,6.42C198.25,126.76,198.52,148.86,198.52,170.96z"/>
<path class="st3" d="M123.33,179.25c0.08-33.03,18.76-63.03,47.17-75.13c2.85-1.21,7.28-5.31,9.25-1.12
	c2.15,4.56,0.43,8.77-5.57,11.58c-25.47,11.9-39.71,33.29-40.67,62.63c-0.99,30.24,12.67,52.48,37.93,66.63
	c1.59,0.89,3.26,1.73,4.99,2.25c5.72,1.72,4.43,6.95,3.42,10.26c-1.12,3.68-4.5,0.83-6.78-0.04
	C142.99,244.84,123.25,214.2,123.33,179.25z"/>
</svg>
