<?xml version="1.0" encoding="utf-8"?>
<!-- Generator: Adobe Illustrator 23.1.0, SVG Export Plug-In . SVG Version: 6.00 Build 0)  -->
<svg version="1.1" id="Capa_1" xmlns="http://www.w3.org/2000/svg" xmlns:xlink="http://www.w3.org/1999/xlink" x="0px" y="0px"
	 viewBox="0 0 400 400" style="enable-background:new 0 0 400 400;" xml:space="preserve">
<style type="text/css">
	.st0{fill:#68ADDF;}
	.st1{fill:#FEFEFE;}
	.st2{fill:#69AEDF;}
</style>
<path class="st0" d="M399.49,0.83c0.84,1.1,0.38,2.34,0.39,3.51c0.03,108.23,0.02,216.46,0.03,324.68c0,4.68-0.22,9.32-1.63,13.91
	c-4.41,14.41-16.63,22.48-35.46,23.33c-26.97,1.22-53.96,0.33-80.95,0.55c-16.54,0.13-33.08,0.09-49.62-0.04
	c-3.06-0.02-4.81,0.78-6.4,2.76c-7.52,9.34-15.2,18.59-22.85,27.87c-2.87,3.48-2.92,3.48-5.88-0.1
	c-7.4-8.96-14.88-17.88-22.08-26.94c-2.05-2.58-4.26-3.61-8.22-3.59c-39.17,0.13-78.33,0.1-117.5,0.04
	c-5.59-0.01-11.21-0.28-16.72-1.18c-19.59-3.21-30.11-12.77-31.84-28.53C0.14,331.45,0,325.81,0,320.16C0,215.13,0,110.1,0,5.07
	C0,3.64,0,2.2,0,0c5.39,3.43,10.01,6.44,14.73,9.34c20.04,12.35,42.13,21.42,67.17,25.6c32.91,5.49,63.36,0.03,92.06-13.04
	c8.12-3.7,15.83-7.88,23.09-12.53c2.36-1.51,3.73-1.56,6.2,0.02c19.01,12.14,39.99,21.32,64.13,25.45
	c32.3,5.52,62.47,0.44,91.18-11.6c14.12-5.92,26.88-13.37,38.91-21.62C398.01,1.25,398.46,0.64,399.49,0.83z"/>
<path class="st1" d="M394.22,9.85c0,1.79,0,2.97,0,4.15c0,104.91,0,209.82,0.01,314.73c0,4.19-0.16,8.36-1.25,12.47
	c-3.38,12.81-14.16,19.81-31.28,20.64c-20.42,0.99-40.86,0.37-61.29,0.48c-23.72,0.13-47.44,0.07-71.16-0.02
	c-2.99-0.01-4.82,0.64-6.45,2.68c-6.64,8.32-13.59,16.49-20.25,24.8c-1.93,2.41-2.94,2.46-4.91-0.02
	c-6.46-8.12-13.32-16.04-19.73-24.19c-1.99-2.53-4.26-3.3-7.92-3.29c-39.79,0.1-79.59,0.08-119.38,0.04
	c-5.44-0.01-10.89-0.27-16.27-1.08c-17.54-2.65-26.58-10.85-27.93-25.07c-0.57-6.01-0.75-12.02-0.75-18.05
	C5.69,216.91,5.69,115.69,5.69,14.46c0-1.32,0-2.64,0-4.41c3.53,1.17,5.73,3.11,8.28,4.59c20.42,11.89,42.5,20.9,67.63,24.89
	c28.53,4.53,55.74,1.34,81.96-8.24c11.65-4.26,22.53-9.54,32.62-15.78c2.72-1.68,4.44-1.98,7.47-0.14
	c19.26,11.65,40.34,20.35,64.41,24.19c28.38,4.52,55.46,1.21,81.62-7.94c14.17-4.96,27.3-11.31,39.45-18.92
	C390.54,11.81,392.07,11.04,394.22,9.85z"/>
<path class="st0" d="M295.8,64.1c-88.89,69.16-177.78,138.32-265.73,206.75c0-74.81,0-151.33,0-228.4
	c7.88,4.66,15.66,8.88,24.29,11.98c18.52,6.65,37.81,9.35,58.2,7.99c30.26-2.02,57.29-11.04,83.05-22.96
	c3.41-1.58,5.85-1.65,9.28-0.03c21.26,10.02,43.68,17.92,68.21,21.49c7.17,1.04,14.49,1.5,21.73,2.22
	C295.15,63.45,295.48,63.77,295.8,64.1z"/>
<path class="st0" d="M108.64,342.68c87.62-68.2,175.12-136.32,262.62-204.44c-0.13,0.11-0.77,1.63-0.78,3.01
	c-0.18,54.6-0.36,109.19-0.65,163.79c-0.04,8.09,1.17,16.23-0.93,24.27c-2.24,8.59-8.71,13.1-19.84,14.13
	c-5.61,0.52-11.17,0.18-16.76,0.15c-37.76-0.16-75.53-0.05-113.29-0.07c-2.36,0-3.67,0.79-4.81,2.31
	c-3.73,4.97-7.7,9.83-11.37,14.83c-1.83,2.5-2.97,3.01-5.05,0.1c-3.51-4.93-7.54-9.62-11.06-14.54c-1.52-2.13-3.38-2.79-6.38-2.78
	c-22.47,0.08-44.94,0.05-67.41,0.03C111.77,343.48,110.49,343.82,108.64,342.68z"/>
<path class="st0" d="M299.58,151.56c-15.29-0.14-31.94-13.69-31.63-25.72c0.3-11.37,15.11-22.51,29.62-22.29
	c15.13,0.24,32.06,13.88,31.58,25.44C328.65,141.07,314.71,151.7,299.58,151.56z"/>
<path class="st0" d="M159.46,210.32c16.32,0.15,33.41,13.9,33.42,25.86c0,5.22-3.31,9.15-7.49,12.7c-4.88,4.14-10.14,8-15.13,12.07
	c-1.66,1.35-2.84,1.46-4.59,0.05c-12.33-9.93-24.71-19.81-37.13-29.66c-1.6-1.27-1.41-2.14,0.15-3.32
	c5.84-4.43,11.48-9.04,17.4-13.41C150.09,211.65,154.9,209.97,159.46,210.32z"/>
<path class="st0" d="M118.58,293.38c-0.44,5.84-3.05,9.96-7.27,13.41c-5.08,4.15-10.41,8.11-15.47,12.27
	c-1.85,1.52-3.01,1.47-4.86-0.02c-12.23-9.79-24.56-19.51-36.89-29.23c-1.37-1.08-2.25-1.91-0.37-3.27
	c6.43-4.63,12.08-9.91,18.86-14.26c6.12-3.92,12.97-4.56,20.22-2.79C105.95,272.72,118.66,285.11,118.58,293.38z"/>
<path class="st0" d="M241.27,204.39c-0.1,1.23-1.15,1.67-1.88,2.25c-9.05,7.12-18.17,14.18-27.14,21.36
	c-1.78,1.42-2.77,1.25-4.42-0.07c-12.37-9.89-24.81-19.72-37.3-29.52c-1.55-1.22-1.72-1.96-0.07-3.23
	c9.02-6.96,18.01-13.96,26.85-21.06c2.19-1.76,3.64-1.01,4.74,0.49c1.13,1.54,6.01,2.16,2.33,5.07c-5.73,4.52-11.39,9.1-17.28,13.49
	c-2.37,1.76-2.96,2.85-0.28,4.91c6.44,4.95,6.28,5.07,12.72,0c4.19-3.3,8.46-6.54,12.58-9.89c3.48-2.83,4.34,0.62,6.06,1.58
	c1.63,0.91,3.72,1.97,0.99,3.99c-5.68,4.2-11,8.71-16.66,12.93c-1.97,1.47-1.8,2.3-0.01,3.78c8.74,7.24,8.68,7.28,17.72,0.16
	c3.75-2.95,7.74-5.74,11.21-8.88c2.64-2.39,4.55-2.38,6.84,0.09C239.18,202.81,240.36,203.62,241.27,204.39z"/>
<path class="st0" d="M278.82,175.41c-1.5,1.33-2.18,2-2.93,2.59c-7.95,6.25-15.99,12.43-23.83,18.78c-2.23,1.81-3.52,1.91-5.85,0.01
	c-11.7-9.55-23.56-18.97-35.47-28.36c-1.91-1.5-2.37-2.4-0.21-4.12c5.9-4.68,5.8-4.79,11.59-0.18c8.67,6.9,17.37,13.77,25.89,20.79
	c2.04,1.68,3.12,1.63,5.09,0c5.05-4.19,10.31-8.22,15.58-12.23c0.98-0.75,1.76-2.51,3.66-1.5
	C274.63,172.39,276.63,173.95,278.82,175.41z"/>
<path class="st2" d="M346.17,122.59c-1.06-0.01-7.32-5.12-7.23-5.91c0.06-0.59,6.36-5.62,7.1-5.68c0.88-0.06,7.46,4.98,7.5,5.75
	C353.59,117.52,347.16,122.6,346.17,122.59z"/>
<path class="st2" d="M142.82,281.9c-0.09,0.6-6.95,5.78-7.61,5.74c-0.89-0.06-7.11-5.44-7.02-6.08c0.12-0.86,6.6-5.76,7.48-5.65
	C136.5,276.01,142.9,281.37,142.82,281.9z"/>
<path class="st1" d="M317.43,130.14c0.08,8.56-10.33,14.49-20.57,11.71c-9.51-2.57-17.61-11.04-17.14-17.91
	c0.52-7.58,11.03-13.25,20.12-10.85C308.63,115.4,317.38,123.89,317.43,130.14z"/>
<path class="st1" d="M159.1,219.27c2.73-0.04,5.09,0.56,7.18,1.68c5.59,3,10.34,6.7,13.84,11.27c2.8,3.65,2.38,6.82-0.95,10.21
	c-8.77,8.94-8.79,8.96-18.62,1.14c-5.36-4.26-10.52-8.69-16.03-12.84c-2.34-1.76-2.09-2.78,0.21-4.25c2.16-1.39,4-3.09,6.09-4.55
	C153.2,220.25,155.92,219.12,159.1,219.27z"/>
<path class="st1" d="M84.47,277.61c2.43-0.16,4.64,0.39,6.66,1.38c6.33,3.11,11.35,7.2,14.95,12.38c2.33,3.34,1.57,6.35-1.18,9.26
	c-8.52,8.99-8.99,9.03-18.73,1.3c-5.49-4.36-10.92-8.75-16.5-13.04c-1.79-1.37-2.27-2.34-0.08-3.75c2.89-1.85,5.53-3.95,8.37-5.86
	C79.81,278.03,82.02,277.47,84.47,277.61z"/>
</svg>
