<?xml version="1.0" encoding="utf-8"?>
<!-- Generator: Adobe Illustrator 23.1.0, SVG Export Plug-In . SVG Version: 6.00 Build 0)  -->
<svg version="1.1" id="Capa_1" xmlns="http://www.w3.org/2000/svg" xmlns:xlink="http://www.w3.org/1999/xlink" x="0px" y="0px"
	 viewBox="0 0 400 400" style="enable-background:new 0 0 400 400;" xml:space="preserve">
<style type="text/css">
	.st0{fill:#1866AA;}
	.st1{fill:#EFF7F7;}
	.st2{fill:#1266B3;}
	.st3{fill:#FDFDFD;}
	.st4{fill:#F7FAFA;}
	.st5{fill:#FCFDFD;}
</style>
<path class="st0" d="M412,177.97c-0.26-0.48-0.53-0.97-0.75-1.47c-0.01-0.02,0.49-0.22,0.75-0.33C412,176.77,412,177.37,412,177.97z
	"/>
<path class="st0" d="M373.91,131.12c6.04,7.49,17.24,3.84,24.36,8.99c0,0.61,0,1.21,0,1.82c1.86,16.49,1.4,32.81-4.65,48.7
	c0.37,0.65,0.74,1.3,1.11,1.96c-0.02,4.08-1.4,7.73-4.3,10.89c-3.99,1.88-12.69-7.08-12.42,3.56c0.23,9.02,0.49,18.28,3.96,27.03
	c-0.8,2.87-1.61,5.74-2.41,8.61c-2.38,1.34-3.11,3.3-3.98,5.72c-4.42,12.38-13.02,22.35-22.58,32.08
	c-8.04,8.18-15.33,16.94-23.42,25.19c-16.42,16.73-33.66,32.56-53.05,46.48c-11.82,8.49-23.31,17.41-36.5,24.3
	c-1.81,0.94-3.43,1.71-5.49,1.69c-0.23-9.2-9.91-9.05-15.85-12.45c-1.56-0.89-4.77,1.22-2.39,2.75c5.51,3.54,4.88,11.4,12.37,13.2
	c-7.2,6.55-17.23,9.61-24.56,16.14c-4.31,3.84-9.01,2.3-13.12-1.42c-3.45-3.12-7.36-5.83-11.06-8.72c-0.66-0.12-1.31-0.23-1.97-0.35
	c-12.08-7.38-24.16-14.75-36.24-22.13c0,0,0.05,0.03,0.05,0.03c-12.84-10-26.92-18.72-38.77-29.75c6.07-5.81,6.13-5.81,6.49-10.94
	c0.14-2.02,3.2-4.94-1.36-5.74c-3.17-0.56-6.98-1.35-9.6,0.93c-2.28,1.98-1.08,4.32,1.01,6.27c2.66,2.47,1.45,5.65,1.73,8.56
	c-17.69-14.29-34.2-29.54-48.39-46.71c1.56-0.51,3.1-1.07,4.68-1.51c2.56-0.71,5.59,6.11,8.08-0.72c1.21-3.31,3.91-6.12,3.29-10
	c-0.49-3.06-4.19-5.04-5.08-3.33c-2.92,5.57-12.85,6.65-11.48,14.61c-6.57-7.48-13.14-14.95-19.7-22.43
	c-2.16-4.44-7.39-7.34-7.89-12.6c-2.67-4.85-5.34-9.69-8.01-14.54c-1.45-10.67-6.99-20.32-9.68-30.7c-0.63-2.43-0.58-4.64-0.41-6.98
	c9.2,0.41,3.84-7.29,7.12-10.22c1.39-1.24,2.95-2.92-0.29-3.84c-1.99-0.56-4.15-0.17-4.65,2c-0.66,2.84-0.52,5.85-2.46,8.39
	c-0.81-2.42-1.63-4.83-2.44-7.25c-2.13-16.75-3.71-33.51-1.81-50.38c0,0,0.16-0.18,0.16-0.18c5.5-1.04,11.36-0.68,16.47-3.3
	c3.74-3.18,9.62-3.91,12.13-8.49c5.32-2.44,7.53-6.98,9.53-11.55c7.52-17.2-2.1-30.99-11.43-44.79c-2.13-3.15-5.25-4.89-0.99-9.91
	C40.43,45.44,54.28,31.7,65,15.92c2.19-1.42,4.07-1.49,6.98-0.67c5.47,1.54,11.22,3,17.18,2.16c1.35,0.09,2.69,0.17,4.04,0.26
	c2.65,1.26,5.48,1.58,8.43,1.23c2.03,0.02,4.06,0.03,6.1,0.05c1.21,0.1,2.43,0.2,3.64,0.3c3.99,0.1,7.98,0.2,11.97,0.3
	c5.51,1.42,11.02,1.8,16.53,0.04c2.59-0.14,5.18-0.28,7.78-0.43c17.85,2.22,30.29-7.63,43.1-15.98c6.18-4.03,10.47-4.41,16.53,0
	c5.95,4.33,11.66,9.88,20.53,9.49l0.15,0.12c5.62,3.05,11.67,4.9,18.29,5.14c0,0,0.07-0.02,0.07-0.02c1.04,1.44,2.53,1.27,4.07,0.91
	c3.96,0.28,7.92,0.56,11.88,0.84c0.27,0.89,0.55,1.78,0.82,2.66c-1.44,2.58-3.64,1.46-5.99,1.3c-8.5-0.58-17.1-1.48-25.33,1.72
	c14.31,1.28,28.56,1.35,42.8,1.24c4.39-0.03,4.17-3.08,4.03-5.85c0.54-0.56,1.08-1.12,1.62-1.68l0.16-0.03
	c0.29-0.75,0.59-1.51,0.88-2.26c0.99,4,4.37,2.42,7.07,2.41c10.87,2.77,21.47-0.5,31.46-2.85c11.09-2.6,17.38-0.33,21.55,8.6
	c-9.57,0.49-19.3-4.37-29.98-0.08c4.44,3.04,9.42,0.53,12.17,4.06c5.8,7.46,12.97,10.06,22.25,4.85c0.99,0.12,2.37-0.1,2.92,0.4
	c9.15,8.31,16.21,18.03,23.11,27.84c3,4.27,0.18,6.57-4.1,8.1c-0.45-6.43-3.32-11.8-8.77-16.05c-1.91-1.49-3.97-2.51-6.05-0.3
	c-1.84,1.95-1.3,3.69,0.67,5.48c5.89,5.38,12.31,10.88-2.65,13.16c-2.99,0.46-4.19,3.35-3.01,5.79c1.83,3.79,3.68-0.68,5.31-0.35
	c7.79,1.57,9.39-5.71,14.56-7.79c-0.65,8.82-6.11,16.25-9.34,24.28c-2.53,6.3-4.49,11.64,1.03,17.13c-0.22,0.62-0.1,1.19,0.37,1.69
	c0.31,3.06,1.69,5.69,3.98,7.96c0,0,0.32,0.68,0.33,0.68c0.04,2.03,0.53,3.79,3.21,4.23C367.89,129.37,372.49,128.64,373.91,131.12z
	 M202.7,136.07c-0.83-0.28-1.66-0.56-2.5-0.84c-2.04-0.14-4.09-0.29-6.13-0.43c-14.85-2.79-29.9-0.69-44.82-1.52
	c-7.66-0.43-12.5,0.3-11.23,9.02c0.93,6.4,0.04,13.02-0.03,19.54c-0.27,0.51-0.42,1.05-0.46,1.61c-5.92-0.18-11.84-0.35-17.76-0.53
	c-0.27-1.55-0.54-3.1-0.81-4.64c3.56,0.53,7.11,1.41,10.68,1.51c7.16,0.2,4.5-5.18,5.46-8.4c0.59-1.97,1.12-4.95-1.8-5.16
	c-5.62-0.4-3.18,4.02-3.82,6.49c-0.39,1.54-0.77,3-2.74,3.19c-1.97,0.18-2.71-1.17-3.38-2.63c-2.09-4.55-2.48-9.01-0.73-13.83
	c1.52-4.17,2.24-8.66-5.51-8.21c-0.09-11.86-0.23-23.72-0.24-35.59c-0.01-3.34,0.49-6.8,4.56-8.21
	c12.87-4.47,20.09-0.15,21.18,12.48c0.18,2.03-0.53,4.19,1.13,5.99c11.95,2.82,23.89,2.7,35.84,0.01c0.01-1.19,0.02-2.38,0.04-3.57
	c0-1.21,0.01-2.42,0.01-3.63c-0.06-1.81-0.13-3.63-0.19-5.44c-0.68-4.57-0.53-9.43-5.58-12.43c-2.11-3-4.21-5.99-6.32-8.99
	c8.72-2.44,6.7-8.83,5.96-14.2c-0.72-5.26-4.99-8.11-10.84-9.26c-14.92-2.95-29.95-4.66-45.26-3.69c0-2.4,0-4.81,0-7.21
	c18.57,0.6,37.14,1.26,55.72,1.73c3.7,0.09,8.74,1.38,8.75-4.5c0.01-5.16-4.42-3.93-7.91-4.5c-8.99-1.48-16.82,3.1-25.31,3.54
	c-10.38,0.54-20.83,0.13-31.25,0.13c-0.69-4.4-4.53-3.54-7.71-3.58c-5.99-0.08-11.98-0.08-17.96-0.02
	c-3.73,0.04-6.48-0.56-6.65-4.73c-0.09-2.19,1.35-6.38-4.04-4.93c-4.22,1.14-4.87,3.57-1.48,6.6c1.84,1.64,2.03,3.85,0.15,5.57
	c-1.8,1.65-4.37,1.04-6.66,0.96c-2.92-0.11-3.81-1.79-4.06-4.15c-0.3-2.84,1.08-6.04-2.02-8.35c-0.28-0.13-0.56-0.27-0.84-0.4
	c0.27,0.14,0.55,0.28,0.82,0.42c-0.68,5.29-6.85,6.84-9.35,10.91c-0.98,1.59-5.14,1.91-3.09,4.51c1.11,1.41,3.97,2.33,6.09,2.41
	c8.22,0.29,16.52,0.91,24.53-1.62c0.6,0.99,1.3,2.88,1.8,2.84c10.6-0.84,20.02,4.75,30.49,4.37c-0.76,5.39,1.66,7.41,7.93,7.34
	c7.64-0.08,15.54-1.29,23.84,1.15c-3.46,3.5-7,2.21-10.07,2.25c-12.1,0.17-24.2,0.07-36.3,0.1c-2.94,0.01-5.51,0.58-5.24,3.94
	c0.23,2.81,2.59,3.18,5.07,3.18c14.12,0.01,29.43,3.05,42.04-0.84c14.18-4.38,17.82,0.05,21.16,9.74
	c-17.98-6.38-36.5-8.61-55.52-4.96c-14.49,2.78-26.23,8.75-29.16,23.28c-3.95,10.37-1.79,21.08-1.75,31.59
	c0.05,12.32-2.15,24.78,1.55,37c3.07,16.37,18.68,26.62,40.75,26.75c12.55-0.24,12.44,6.94,12,15.26
	c-0.61,11.59-0.22,23.22-0.11,34.83c0.03,3.03-1.34,6.98,4.37,7.47c0.49,1.34,0.99,2.67,1.48,4.01c-0.59,1.2-0.63,2.31,0.65,3.21
	c19.28,2.46,38.57,2.08,57.85-0.02c8.77,0.85,15.57-4.95,24.14-6.23c0,9.76-0.07,18.95,0.03,28.13c0.07,6.16-0.69,12.53,4.21,17.8
	c1.98,3.53,3.18,7.59,7.96,9.18l-0.06-0.08c0.7,0.34,1.39,0.68,2.09,1.02c0.65,0.26,1.31,0.51,1.96,0.77
	c2.37,1.88,5.1,3.02,8.29,3.21c1.12,0.17,2.24,0.33,3.36,0.5c14.92,3.75,29.68,3.21,44.09-1.77c6.96-2.4,13.12-5.95,15.77-12.77
	c0.46-1.2,0.92-2.4,1.38-3.6c3.3-4.43,2.18-9.76,3.71-14.56c5.04-0.37,4.28-3.77,4.3-6.68c0.05-7.17,0.02-14.34,0.02-21.51
	c0-14.34,0.09-28.68-0.13-43.02c-0.03-1.76,2.37-7.4-4.32-3.79c-11.67-3.42-23.54-1.55-35.35-1.07c1.68-5.29,6.57-2.61,10.06-3.08
	c6.73-0.9,13.94,1.45,22.54-2.52c-13.34-2.87-25.3,1.53-37.18-4.33c0,10.09,0,19.25,0,28.4c-5.62,0.88-3.94,4.88-3.97,7.87
	c-0.14,13.49,0.01,26.99-0.12,40.48c-0.03,2.72,1.14,5.82-2.22,8.86c-2.62-3.44-1.72-6.74-1.73-9.77
	c-0.08-22.79,0.03-45.58-0.12-68.37c-0.02-2.89,1.8-7.64-4.12-7.46c-5.75,0.18-3.74,4.87-3.76,7.76
	c-0.15,23.99,0.26,47.99-0.2,71.97c-0.29,15,1.88,18,19.38,17.09c-0.61,1.09-1.22,2.19-1.83,3.28c-1.85,0.51-3.69,1.03-5.54,1.54
	c-13.73-1.54-14.27-2.16-14.23-14.47c0.07-23.3,0.1-46.6-0.06-69.89c-0.02-2.34,1.85-5.38-1.8-7.1c-1.42-0.93-2.89-0.87-4.4-0.19
	c-1.01,0-2.01,0-3.02,0c-1.49-0.02-2.98-0.04-4.46-0.07c-11.31,1.58-11.88-5.49-12.54-12.44c-0.78-8.21,1.56-16.58-1.55-24.68
	c-0.13-0.7-0.25-1.41-0.38-2.11c-2.38-8.81-8.44-14.75-17.73-18.18l0.06,0.08c-2.18-2.13-5.21-1.91-8.02-2.29L202.7,136.07z
	 M149.7,257.23c10.32,0,20.64,0,30.96,0c-0.02-1.13-0.03-2.25-0.05-3.38c-9.39,0-18.77-0.08-28.16,0.07
	c-1.84,0.03-2.49,1.75-2.78,3.29c-3.28,0.38-7.92-1.19-7.78,4.16c0.04,1.65,1.29,2.77,3.14,2.8
	C151.03,264.3,149.27,260.16,149.7,257.23z M278.82,33.88c-10.32,0-20.64,0-30.97,0c0,1.2,0,2.4,0,3.6c10.32,0,20.64,0,30.97,0
	c0.29,1.54,0.93,3.29,2.76,3.31c12.13,0.14,24.27,0.07,38.72,0.07c-4.12-3.75-5.25-6.72-9.19-6.99c-0.35-2.46-1.94-3.59-4.7-3.58
	c-7.63,0.03-15.26,0.03-22.89,0C280.77,30.3,279.18,31.42,278.82,33.88z M44.75,120.33c-6.79,2.26-7.86,7.13-8.16,12.89
	c-0.33,6.38,6.82,4.64,9.54,7.71c1.39,1.57,4.5,1.49,5.97-0.84c1.06-1.67,0.93-3.88-1.01-4.83c-7.01-3.42-6.62-9.14-6.31-14.91
	c7.65-3.86,3.27-8.58,2.04-13.07C43.8,111.46,45.18,115.96,44.75,120.33z M64.92,127.85c0-7.76,0.03-15.52-0.02-23.29
	c-0.02-2.72,0.1-5.79-4.42-5.51c-3.8,0.23-3.58,3-3.58,5.37c-0.03,15.52-0.03,31.05,0,46.57c0,2.45,0.11,5.01,3.93,5.08
	c3.82,0.07,4.07-2.45,4.08-4.93C64.94,143.37,64.92,135.61,64.92,127.85z M330.4,191.88c-0.67,0-1.34,0.01-2.01,0.01
	c0,26.16,0,52.31,0,78.47c0.67-0.01,1.34-0.01,2.01-0.02C330.4,244.18,330.4,218.03,330.4,191.88z M338.43,186.47
	c-0.64,0.02-1.28,0.04-1.92,0.05c0,18.34,0,36.68,0,55.02c0.64-0.01,1.28-0.02,1.92-0.03C338.43,223.17,338.43,204.82,338.43,186.47
	z M149.87,110.43c8.59,8,18.26,6.23,27.49,6.21c2.72,0,4.51-1.1,4.32-3.81c-0.15-2.18-1.68-3.23-3.97-3.19
	C168.82,109.81,159.86,108.81,149.87,110.43z M193.65,259.73c7.81,1.39,14.59,1.1,20.01,5.12c2.42,1.8,4.33,0.45,4.57-2.36
	c0.42-5.05-0.52-8.67-7.74-8.99C204.29,253.22,199.59,255.2,193.65,259.73z M277.63,328.41c-0.09-0.91-0.19-1.81-0.28-2.72
	c-8.2,0-16.39-0.02-24.59,0.01c-2.69,0.01-5.72-0.07-5.87,3.33c-0.18,4.07,3.4,3.38,6.3,3.89
	C262.22,334.53,269.19,328.76,277.63,328.41z M147.08,128.39c0.04,0.55,0.08,1.11,0.12,1.66c15.17,0,30.34,0,45.51,0
	c-0.02-0.55-0.05-1.11-0.07-1.66C177.45,128.39,162.26,128.39,147.08,128.39z M5.59,143.66c4.45,2.38,9.51,2.07,13.62,4.97
	c2.15,1.52,5.84,0.9,7.71-2.07c1.37-2.18,2.57-4.67,0.77-6.72c-2.11-2.41-6.24-2.34-8.31-1.01
	C15.17,141.55,10.29,141.72,5.59,143.66z M127.57,91.53c-1.36,0.33-5.24,0.43-4.58,1.32c2.71,3.67,0.77,9.09,5.71,11.68
	c2.38,1.25,4.92,2.04,7.52,0.46c0.49-0.3,0.81-0.93,1.03-1.47C138.95,99.31,132.92,91.46,127.57,91.53z M141.64,349.32
	c0.12-6.12-5.65-7.39-10.24-8.91c-3.02-1-5.57,2.4-4.89,4.32c1.63,4.59,5.63,8.14,10.91,9.38
	C140.92,354.93,141.61,351.98,141.64,349.32z M158.31,25.83c0-0.6-0.01-1.2-0.01-1.8c-13.16,0-26.32,0-39.49,0
	c0.01,0.6,0.02,1.2,0.03,1.8C132,25.83,145.16,25.83,158.31,25.83z M37.36,263.91c10.04-6.71,12.59-12.73,8.87-20.82
	C41.05,249.25,35.51,254.59,37.36,263.91z M137.61,128.44c4.94-2.22,5.26-7.68,7.62-11.87c0.92-1.64-1.5-3.82-3.49-3.07
	c-5.58,2.09-6.49,7.25-8.01,11.73C133.18,126.85,133.81,128.92,137.61,128.44z M70.96,154.91c-2.8,6.73-1.78,11.14-1.89,15.42
	c-0.07,2.48,1.32,3.97,4.29,3.81c3.17-0.17,3.44-2.25,3.66-4.45C77.53,164.56,72.62,161.72,70.96,154.91z M42.16,58.96
	c1.37-2.92,7.75-1.91,8.01-6.58c0.15-2.63-3.38-3.8-5.86-3.65c-4.7,0.3-5.12,4.74-6.95,7.46C36.14,58.01,38.88,58.91,42.16,58.96z
	 M337.89,279.71c-9.01,4-6.74,10.03-4.71,16C335.16,290.61,342.38,286.63,337.89,279.71z M82.53,304.36
	c-2.33,5.01-1.97,8.59,2.09,11.83c2.28,1.83,4.2,3.13,6.4,0.31c1.61-2.07,2.89-4.52-1.36-5.28C85.69,310.5,85.92,306.7,82.53,304.36
	z M262.54,350.69c-0.06-0.9-1.58-3.27-5.87-3.26c-2.44,0-4.12,1.08-2.94,3.32c1.29,2.45-0.46,6.64,4.49,7.1
	C261.9,358.19,262.71,355.96,262.54,350.69z M363.65,260.63c3.85-0.12,3.97-2.62,3.9-5.08c-0.06-2.3,0.48-5.38-3.64-5.04
	c-3.86,0.32-4.34,3.2-4.31,6.06C359.64,258.94,360.54,260.66,363.65,260.63z M390.96,143.6c-2.01-2.25-4.57-1.45-6.72-1.92
	c-2.56-0.57-3.9-4.78-7.45-2.12c-1.4,1.05-1.28,2.74-0.46,4.05c1.86,2.97,5.21,1.8,7.98,1.87
	C386.42,145.54,388.94,146.3,390.96,143.6z M124,106.29c-2.96,5.43-5.57,8.41-3.71,12.42c0.2,0.43,1.99,0.82,2.43,0.52
	C126.95,116.32,125.55,112.58,124,106.29z M216.22,291.98c2.31-4.11,3.52-8.21-1.2-13.83C214.26,283.99,213.52,287.98,216.22,291.98
	z M71.52,97.47c0.57-3.94,3.61-8.28-2-12.46C68.96,89.87,68.16,93.81,71.52,97.47z"/>
<path class="st1" d="M335.34,325.68c-0.26,0.78-0.52,1.55-0.77,2.33c-0.25-0.15-0.51-0.3-0.76-0.45c0.5-0.64,1-1.27,1.5-1.91
	C335.31,325.65,335.34,325.68,335.34,325.68z"/>
<path class="st1" d="M337.36,323.88c-0.67,0.6-1.34,1.2-2.01,1.8c0,0-0.03-0.03-0.03-0.03c0.67-0.6,1.34-1.2,2.01-1.8
	C337.32,323.85,337.36,323.88,337.36,323.88z"/>
<path class="st1" d="M367.36,125.98c-2.68-0.44-3.17-2.21-3.21-4.23C368.89,120.94,367.08,124.09,367.36,125.98z"/>
<path class="st1" d="M139.87,19.57c-5.52,1.76-11.03,1.38-16.53-0.04C128.86,15.72,134.36,19.57,139.87,19.57z"/>
<path class="st1" d="M101.63,18.89c-2.95,0.36-5.78,0.03-8.43-1.23c2.12-2.63,5.28-1.53,8.06-1.79c0,0,0,0,0,0
	C101.38,16.88,101.51,17.88,101.63,18.89z"/>
<path class="st2" d="M228.68,381.63c-7.49-1.8-6.86-9.66-12.37-13.2c-2.38-1.53,0.83-3.64,2.39-2.75
	c5.94,3.41,15.62,3.26,15.85,12.45C232.59,379.3,230.63,380.46,228.68,381.63z"/>
<path class="st3" d="M362.32,286.98c-0.27,0.13-0.55,0.37-0.8,0.35c-0.25-0.02-0.47-0.3-0.7-0.47
	C361.32,286.9,361.82,286.94,362.32,286.98z"/>
<path class="st3" d="M367.6,273.44c-0.28-0.14-0.56-0.28-0.84-0.42c0.28,0.14,0.57,0.27,0.85,0.41
	C367.61,273.43,367.6,273.44,367.6,273.44z"/>
<path class="st1" d="M2.14,138.31c-1.9,16.86-0.32,33.63,1.81,50.38c-1.1-1.8-3.15-3.61-3.14-5.41
	C0.92,168.29-1.79,153.21,2.14,138.31z"/>
<path class="st2" d="M6.4,195.94c1.94-2.54,1.81-5.54,2.46-8.39c0.5-2.17,2.66-2.56,4.65-2c3.24,0.92,1.69,2.6,0.29,3.84
	c-3.28,2.92,2.07,10.63-7.12,10.22C6.59,198.38,6.49,197.16,6.4,195.94z"/>
<path class="st1" d="M18.77,134.83c-5.11,2.62-10.96,2.26-16.47,3.3C6.37,131.37,13.32,136.1,18.77,134.83z"/>
<path class="st4" d="M137.52,163.45c0.04-0.56,0.19-1.1,0.46-1.61c6.44,0.55,10.45-0.52,7.84-7.71c-0.84-2.31-2.79-4.34-3.05-6.29
	c-0.6-4.57-5.58-12.04,4.05-12.69c11.86-0.81,24-1.66,35.92,0.78c3.83,0.79,7.88,1.87,11.32-1.14c2.04,0.14,4.09,0.29,6.13,0.43
	c0.83,0.28,1.66,0.56,2.5,0.84c0,0-0.27-0.16-0.27-0.15c1.64,3.67,5.14,2.1,8.02,2.28c0,0-0.06-0.08-0.06-0.08
	c-2.76,5.69,4.98,6.91,5.88,11.04c-2.54,2.61-5.51,3.76-9.6,3.71c-9.98-0.14-19.97,0.18-29.96,0.61c-5.92,0.26-5.09,1.61-5.16,5.55
	c-0.36,19.66,2.3,39.4-1.6,59c-0.83,4.15-0.27,8.38,3.06,11.85c7.93,5.86,13.09-0.35,18.97-3.46c1.68,1.96,3.84,2.74,5.42,0.32
	c1.45-2.22,0.75-4.51-2.13-5.83c0.34-1.72,0.67-3.44,1.01-5.16c4.9-1.48,6.05-4.61,5.97-9.01c-0.27-13.96,0.09-27.94-0.19-41.9
	c-0.11-5.58,0.78-9.59,8.5-8.48c7.47,1.07,7.44-2.51,5.73-7.2c4.53,1.61,9.3,2.9,11.84,7.14c0.13,0.7,0.25,1.41,0.38,2.11
	c-0.9,10.09,1.05,20.27-1.85,30.36c-1.19,4.15,0.71,8.9,5.82,10.27c3.47,0.94,9.09,2.9,10.12-3.51c1.49,0.02,2.98,0.04,4.46,0.07
	c1.01,0,2.01,0,3.02,0c1.51-0.68,2.98-0.74,4.4,0.19c0.04,21.28,0.15,42.56,0.07,63.84c-0.03,6.62,3.72,15.98-11.59,12.62
	c1.94,3.46,3.46,6.27,6.81,5.76c3.92-0.6,4.41,0.73,4.9,3.62c1.56,9.08,5.71,10.47,15.9,5.63c1.85-0.51,3.69-1.03,5.54-1.54
	c3.79,3.23,1.17,7.61,2.47,11.4c1.5,4.37-0.7,7.24-6.76,7.01c-7.28-0.27-14.6,0.07-21.9,0.15c-1.12-0.17-2.24-0.33-3.36-0.5
	c-0.78-5.14-3.9-5.48-8.29-3.21c-0.65-0.26-1.31-0.51-1.96-0.76c-0.7-0.34-1.39-0.68-2.09-1.02c0,0,0.06,0.08,0.06,0.08
	c2.46-3.5-5.04-5.69-1.45-9.55c2.32-2.5,8.41-6.13,4.42-8.27c-4.88-2.63-5.87,4.29-8.51,7.11c-0.61,0.65-1.6,1.02-2.42,1.52
	c-4.9-5.27-4.14-11.64-4.21-17.8c-0.1-9.18-0.03-18.36-0.03-28.13c-8.57,1.29-15.37,7.09-24.14,6.23
	c-19.28,0.01-38.57,0.01-57.85,0.02c-1.29-0.9-1.24-2.01-0.65-3.21c0.03-20.4,1.04-40.81-0.51-61.2c-5.7-1.9-11.45-1.98-17.24-0.37
	c-22.07-0.13-37.68-10.39-40.75-26.75c0.07-22.86,0.13-45.72,0.2-68.59c2.93-14.53,14.68-20.5,29.16-23.28
	c19.02-3.65,37.54-1.42,55.52,4.96c0.55,0.21,1.12,0.31,1.71,0.3c2.11,3,4.21,5.99,6.32,8.99c0.23,4.73-1.63,10.2,5.58,12.43
	c0.06,1.81,0.13,3.63,0.19,5.44c-4.23,0.46-8.9-1.03-13.64,1.82c5.04,2.9,9.48,1.32,13.63,1.82c-0.01,1.19-0.02,2.38-0.04,3.57
	c-11.95,0-23.89,0-35.84-0.01c-1.66-1.81-0.95-3.97-1.13-5.99c-1.09-12.63-8.31-16.95-21.18-12.48c-4.07,1.41-4.56,4.87-4.56,8.21
	c0.02,11.86,0.15,23.72,0.24,35.58c0.17,9.04-3.04,18.26,1.83,27.05c0.27,1.55,0.54,3.1,0.81,4.64c-0.37,2-3.91,5.01,0.65,5.66
	C126.75,169.49,133.68,170.03,137.52,163.45z M244.52,295.05c0.28,0.14,0.56,0.27,0.84,0.41
	C245.08,295.32,244.8,295.19,244.52,295.05c-1.92-1.55-0.85-5.04-4.66-6.21C238.28,293.49,240.75,294.69,244.52,295.05z
	 M244.67,248.64c-2.77,6.53-2.65,10.53-0.19,17.13C247.11,259.2,247.02,255.2,244.67,248.64z M185.84,147.03
	c1.25-0.18,2.81-0.87,3.19-2.42c0.48-1.95-1.16-2.46-2.95-2.49c-1.76-0.03-3.39,0.4-3.63,2.21
	C182.22,146.08,183.35,147,185.84,147.03z M249.07,292.58c0.24-0.5,0.78-1.1,0.62-1.46c-0.15-0.35-1.02-0.46-1.58-0.67
	c-0.24,0.5-0.79,1.1-0.63,1.46C247.65,292.26,248.51,292.37,249.07,292.58z M170.45,232.97c-0.55-0.29-1.04-0.74-1.53-0.75
	c-0.51-0.01-1.03,0.41-1.54,0.64c0.48,0.27,0.96,0.73,1.46,0.75C169.33,233.63,169.86,233.22,170.45,232.97z M178.69,144.7
	c-0.5-0.04-1-0.08-1.49-0.12c0.23,0.17,0.45,0.46,0.7,0.48C178.15,145.08,178.43,144.84,178.69,144.7z"/>
<path class="st4" d="M311.16,286.14c-0.46,1.2-0.92,2.4-1.38,3.6c-4.54-0.8-9.44,5.05-13.92-2.77c-0.49,3.52-0.85,4.94-0.84,6.36
	c0.01,3.79,0.14,7.19-6.03,7.19c-6.04,0-6.24-3.21-6.15-7.11c0.07-2.69,0.2-5.43-0.19-8.09c-3.98-27.47-0.7-55.05-1.73-82.57
	c-0.12-3.28,1.59-5.88,5.26-4.59c4.87,1.7,8.35-0.69,12.43-1.68c9.47-2.29,11.58-0.28,12.66,8.01c2.45,18.81,1.5,37.65,1.89,56.48
	c0.11,5.17,0.28,10.67-2.51,14.89C307.88,280.03,309.87,282.79,311.16,286.14z"/>
<path class="st2" d="M277.93,282.43c-17.5,0.91-19.66-2.09-19.38-17.09c0.46-23.98,0.05-47.98,0.2-71.97
	c0.02-2.89-1.99-7.58,3.76-7.76c5.92-0.19,4.1,4.57,4.12,7.46c0.14,22.79,0.04,45.58,0.12,68.37c0.01,3.03-0.89,6.33,1.73,9.77
	c3.35-3.04,2.19-6.14,2.22-8.86c0.13-13.49-0.02-26.99,0.12-40.48c0.03-2.99-1.65-6.99,3.97-7.87c0,16.67-0.05,33.34,0.04,50.01
	c0.02,3.05-1.32,6.92,4.17,7.72C278.65,275.29,278.29,278.86,277.93,282.43z"/>
<path class="st2" d="M167.54,71.84c-0.6,0.01-1.17-0.09-1.71-0.3c-3.34-9.69-6.99-14.12-21.16-9.74
	c-12.61,3.9-27.92,0.85-42.04,0.84c-2.48,0-4.85-0.37-5.07-3.18c-0.27-3.36,2.3-3.94,5.24-3.94c12.1-0.03,24.2,0.08,36.3-0.1
	c3.07-0.04,6.61,1.25,10.07-2.25c-8.3-2.44-16.19-1.23-23.84-1.15c-6.26,0.07-8.69-1.96-7.93-7.34l0,0
	c15.31-0.97,30.34,0.74,45.26,3.69c5.86,1.16,10.12,4.01,10.84,9.26C174.24,63.01,176.27,69.4,167.54,71.84z"/>
<path class="st1" d="M277.93,282.43c0.36-3.57,0.71-7.14,1.07-10.71c0.8-19.27,0.83-38.54-0.02-57.8c0.13-6.13,0.26-12.27,0.39-18.4
	c11.82-0.49,23.69-2.36,35.35,1.07c0.04,25,0.09,50,0.13,75c-1.53,4.79-0.41,10.12-3.71,14.56c-1.29-3.35-3.27-6.11-0.52-10.28
	c2.79-4.22,2.62-9.72,2.51-14.89c-0.39-18.83,0.56-37.67-1.89-56.48c-1.08-8.29-3.19-10.3-12.66-8.01
	c-4.08,0.99-7.56,3.38-12.43,1.68c-3.67-1.29-5.38,1.31-5.26,4.59c1.03,27.51-2.25,55.1,1.73,82.57c0.39,2.66,0.26,5.39,0.19,8.09
	c-0.1,3.89,0.1,7.1,6.15,7.11c6.18,0,6.05-3.4,6.03-7.19c-0.01-1.42,0.36-2.84,0.84-6.36c4.47,7.82,9.38,1.98,13.92,2.77
	c-2.65,6.82-8.8,10.37-15.77,12.77c-14.42,4.97-29.18,5.52-44.09,1.77c7.3-0.08,14.61-0.42,21.9-0.15c6.06,0.23,8.26-2.64,6.76-7.01
	c-1.3-3.79,1.33-8.17-2.47-11.4C276.71,284.62,277.32,283.53,277.93,282.43z"/>
<path class="st2" d="M64.92,127.85c0,7.76,0.02,15.52-0.01,23.29c-0.01,2.49-0.26,5-4.08,4.93c-3.81-0.07-3.92-2.63-3.93-5.08
	c-0.02-15.52-0.03-31.05,0-46.57c0.01-2.37-0.22-5.14,3.58-5.37c4.53-0.27,4.41,2.79,4.42,5.51
	C64.95,112.32,64.92,120.08,64.92,127.85z"/>
<path class="st2" d="M85.12,37.49c-8,2.52-16.31,1.91-24.53,1.62c-2.12-0.07-4.98-0.99-6.09-2.41c-2.05-2.6,2.11-2.92,3.09-4.51
	c2.51-4.06,8.67-5.62,9.35-10.91l0.02-0.02c3.1,2.31,1.72,5.51,2.02,8.35c0.25,2.36,1.14,4.04,4.06,4.15
	c2.29,0.08,4.86,0.69,6.66-0.96c1.88-1.72,1.69-3.93-0.15-5.57c-3.4-3.02-2.74-5.46,1.48-6.6c5.39-1.45,3.95,2.74,4.04,4.93
	c0.17,4.16,2.92,4.77,6.65,4.73c5.99-0.07,11.98-0.06,17.96,0.02c3.18,0.04,7.02-0.82,7.71,3.58c0,0,0,0,0,0
	c-8.23,0-16.46-0.04-24.7,0.01C89.54,33.92,85.77,33.13,85.12,37.49L85.12,37.49z"/>
<path class="st2" d="M117.4,33.88c10.42,0,20.87,0.41,31.25-0.13c8.49-0.44,16.32-5.02,25.31-3.54c3.49,0.57,7.92-0.66,7.91,4.5
	c-0.01,5.88-5.05,4.6-8.75,4.5c-18.58-0.47-37.15-1.13-55.72-1.73c0,0,0,0,0,0C117.4,36.29,117.4,35.08,117.4,33.88L117.4,33.88z"/>
<path class="st2" d="M330.4,191.88c0,26.15,0,52.3,0,78.46c-0.67,0.01-1.34,0.01-2.01,0.02c0-26.16,0-52.31,0-78.47
	C329.06,191.89,329.73,191.88,330.4,191.88z"/>
<path class="st2" d="M314.86,271.58c-0.04-25-0.09-50-0.13-75c6.69-3.61,4.29,2.03,4.32,3.79c0.23,14.34,0.13,28.68,0.13,43.02
	c0,7.17,0.03,14.34-0.02,21.51C319.14,267.81,319.91,271.22,314.86,271.58z"/>
<path class="st1" d="M270.56,287.25c-10.19,4.84-14.34,3.45-15.9-5.63c-0.5-2.89-0.99-4.22-4.9-3.62c-3.35,0.51-4.87-2.3-6.81-5.76
	c15.31,3.37,11.56-6,11.59-12.62c0.09-21.28-0.03-42.56-0.07-63.84c3.66,1.72,1.79,4.76,1.8,7.1c0.16,23.3,0.13,46.6,0.06,69.89
	C256.3,285.09,256.83,285.71,270.56,287.25z"/>
<path class="st1" d="M194.07,134.8c-3.44,3.01-7.49,1.92-11.32,1.14c-11.92-2.44-24.06-1.59-35.92-0.78
	c-9.63,0.65-4.65,8.12-4.05,12.69c0.26,1.95,2.21,3.98,3.05,6.29c2.61,7.18-1.39,8.26-7.84,7.71c0.08-6.52,0.96-13.14,0.03-19.54
	c-1.27-8.72,3.57-9.45,11.23-9.02C164.17,134.11,179.22,132.01,194.07,134.8z"/>
<path class="st2" d="M121.69,185.21c5.79-1.61,11.54-1.53,17.23,0.36c-0.33,19.06-0.65,38.13-0.97,57.2
	c-5.72-0.49-4.34-4.44-4.37-7.47c-0.11-11.61-0.5-23.24,0.11-34.83C134.13,192.15,134.25,184.96,121.69,185.21z"/>
<path class="st2" d="M341.35,24.9c2.71,2.45,3.84,5.54,4.44,8.83c-9.28,5.2-16.45,2.6-22.25-4.85c-2.75-3.53-7.74-1.02-12.17-4.06
	C322.06,20.53,331.78,25.39,341.35,24.9z"/>
<path class="st2" d="M390.42,203.48c-0.12,10.79-3.72,20.81-8.46,30.58c-3.48-8.75-3.74-18.01-3.96-27.03
	C377.73,196.4,386.43,205.36,390.42,203.48z"/>
<path class="st2" d="M367.79,70c-5.17,2.08-6.77,9.37-14.56,7.79c-1.63-0.33-3.48,4.14-5.31,0.35c-1.18-2.44,0.02-5.34,3.01-5.79
	c14.95-2.28,8.54-7.78,2.65-13.16c-1.96-1.8-2.5-3.53-0.67-5.48c2.08-2.21,4.14-1.19,6.05,0.3c5.45,4.24,8.32,9.62,8.77,16.05
	C367.72,70.06,367.79,70,367.79,70z"/>
<path class="st2" d="M118.95,158.28c-4.87-8.79-1.66-18.01-1.83-27.05c7.75-0.44,7.03,4.05,5.51,8.21
	c-1.75,4.82-1.36,9.28,0.73,13.83c0.67,1.46,1.4,2.81,3.38,2.63c1.97-0.18,2.35-1.65,2.74-3.19c0.63-2.47-1.81-6.89,3.82-6.49
	c2.92,0.21,2.39,3.19,1.8,5.16c-0.97,3.22,1.69,8.6-5.46,8.4C126.06,159.69,122.51,158.81,118.95,158.28z"/>
<path class="st2" d="M338.43,186.47c0,18.35,0,36.7,0,55.04c-0.64,0.01-1.28,0.02-1.92,0.03c0-18.34,0-36.68,0-55.02
	C337.15,186.51,337.79,186.49,338.43,186.47z"/>
<path class="st2" d="M279.38,195.52c-0.13,6.13-0.26,12.27-0.39,18.4c-1.4,0.03-2.8,0.05-4.2,0.08c0-9.16,0-18.31,0-28.4
	c11.88,5.85,23.84,1.46,37.18,4.33c-8.59,3.97-15.81,1.61-22.54,2.52C285.95,192.91,281.06,190.23,279.38,195.52z"/>
<path class="st2" d="M149.87,110.43c9.99-1.62,18.95-0.62,27.84-0.78c2.28-0.04,3.82,1,3.97,3.19c0.19,2.71-1.6,3.8-4.32,3.81
	C168.13,116.66,158.46,118.43,149.87,110.43z"/>
<path class="st2" d="M44.77,120.35c-0.31,5.78-0.7,11.49,6.31,14.91c1.95,0.95,2.07,3.16,1.01,4.83c-1.47,2.33-4.58,2.41-5.97,0.84
	c-2.72-3.07-9.87-1.33-9.54-7.71c0.3-5.76,1.37-10.64,8.16-12.89L44.77,120.35z"/>
<path class="st2" d="M193.65,259.73c5.94-4.52,10.64-6.5,16.84-6.23c7.22,0.32,8.17,3.94,7.74,8.99c-0.24,2.82-2.15,4.16-4.57,2.36
	C208.24,260.83,201.46,261.12,193.65,259.73z"/>
<path class="st2" d="M277.63,328.41c-8.44,0.35-15.41,6.12-24.45,4.52c-2.9-0.51-6.48,0.17-6.3-3.89c0.15-3.4,3.18-3.32,5.87-3.33
	c8.2-0.04,16.39-0.01,24.59-0.01C277.44,326.59,277.54,327.5,277.63,328.41z"/>
<path class="st2" d="M52.87,287.8c-0.46-0.19-0.63-0.5-0.51-0.94c-1.38-7.96,8.55-9.04,11.48-14.61c0.9-1.71,4.6,0.26,5.08,3.33
	c0.62,3.88-2.09,6.69-3.29,10c-2.49,6.83-5.52,0.01-8.08,0.72C55.97,286.73,54.43,287.29,52.87,287.8z"/>
<path class="st2" d="M147.08,128.39c15.18,0,30.37,0,45.55,0c0.02,0.55,0.05,1.11,0.07,1.66c-15.17,0-30.34,0-45.51,0
	C147.15,129.5,147.11,128.95,147.08,128.39z"/>
<path class="st1" d="M242.59,195.53c-1.03,6.41-6.65,4.44-10.12,3.51c-5.11-1.38-7.01-6.12-5.82-10.27
	c2.9-10.09,0.95-20.27,1.85-30.36c3.11,8.1,0.76,16.47,1.55,24.68C230.71,190.03,231.28,197.11,242.59,195.53z"/>
<path class="st2" d="M278.6,20.7c0.14,2.77,0.36,5.81-4.03,5.85c-14.24,0.11-28.48,0.04-42.8-1.24c8.23-3.19,16.83-2.3,25.33-1.72
	c2.35,0.16,4.54,1.28,5.99-1.3C268.31,22.2,273.64,22.83,278.6,20.7z"/>
<path class="st2" d="M5.59,143.66c4.7-1.94,9.58-2.11,13.8-4.83c2.07-1.33,6.2-1.4,8.31,1.01c1.8,2.06,0.6,4.54-0.77,6.72
	c-1.87,2.97-5.57,3.59-7.71,2.07C15.1,145.73,10.04,146.04,5.59,143.66z"/>
<path class="st2" d="M127.57,91.53c5.36-0.07,11.39,7.77,9.68,11.99c-0.22,0.54-0.54,1.17-1.03,1.47c-2.6,1.58-5.14,0.79-7.52-0.46
	c-4.93-2.59-2.99-8.02-5.71-11.68C122.33,91.96,126.21,91.87,127.57,91.53z"/>
<path class="st2" d="M311.11,33.88c3.93,0.27,5.07,3.24,9.19,6.99c-14.45,0-26.59,0.07-38.72-0.07c-1.82-0.02-2.47-1.77-2.76-3.31
	c0,0,0,0,0,0c8.23,0,16.46,0.04,24.69-0.01C306.67,37.45,310.46,38.24,311.11,33.88L311.11,33.88z"/>
<path class="st2" d="M141.64,349.32c-0.04,2.66-0.72,5.61-4.22,4.79c-5.28-1.24-9.28-4.8-10.91-9.38c-0.68-1.92,1.87-5.32,4.89-4.32
	C135.99,341.93,141.76,343.2,141.64,349.32z"/>
<path class="st2" d="M117.4,44.69c-10.47,0.38-19.89-5.2-30.49-4.37c-0.5,0.04-1.2-1.85-1.8-2.84c0,0,0,0,0,0
	c10.76,0,21.52,0,32.29,0c0,0,0,0,0,0C117.4,39.89,117.4,42.29,117.4,44.69C117.4,44.69,117.4,44.69,117.4,44.69z"/>
<path class="st2" d="M103,335.44c-0.58-0.31-1.15-0.62-1.73-0.93c-0.27-2.91,0.93-6.09-1.73-8.56c-2.1-1.95-3.29-4.29-1.01-6.27
	c2.62-2.27,6.43-1.49,9.6-0.93c4.56,0.81,1.5,3.73,1.36,5.74C109.13,329.63,109.07,329.63,103,335.44z"/>
<path class="st2" d="M158.31,25.83c-13.16,0-26.32,0-39.48,0c-0.01-0.6-0.02-1.2-0.03-1.8c13.16,0,26.32,0,39.49,0
	C158.31,24.63,158.31,25.23,158.31,25.83z"/>
<path class="st2" d="M37.36,263.91c-1.84-9.33,3.7-14.67,8.87-20.82C49.94,251.18,47.4,257.21,37.36,263.91z"/>
<path class="st1" d="M81.14,89.87c-0.07,22.86-0.13,45.72-0.2,68.59c-3.7-12.21-1.51-24.67-1.55-37
	C79.35,110.94,77.19,100.23,81.14,89.87z"/>
<path class="st1" d="M137.96,242.77c0.32-19.07,0.64-38.14,0.97-57.2c1.56,20.4,0.55,40.81,0.52,61.21
	C138.95,245.44,138.45,244.11,137.96,242.77z"/>
<path class="st2" d="M137.61,128.44c-3.8,0.47-4.43-1.59-3.88-3.21c1.53-4.49,2.43-9.64,8.01-11.73c1.98-0.74,4.41,1.43,3.49,3.07
	C142.87,120.76,142.55,126.22,137.61,128.44z"/>
<path class="st2" d="M278.82,37.49c-10.32,0-20.64,0-30.97,0c0-1.2,0-2.4,0-3.6c10.32,0,20.64,0,30.97,0l0,0
	C278.83,35.08,278.83,36.28,278.82,37.49L278.82,37.49z"/>
<path class="st2" d="M149.68,257.22c0.29-1.54,0.94-3.26,2.78-3.29c9.38-0.15,18.77-0.07,28.16-0.07c0.02,1.13,0.03,2.25,0.05,3.38
	c-10.32,0-20.64,0-30.96,0L149.68,257.22z"/>
<path class="st2" d="M278.82,33.88c0.35-2.47,1.95-3.58,4.7-3.57c7.63,0.02,15.26,0.02,22.89,0c2.76-0.01,4.35,1.11,4.7,3.58
	c0,0-0.01,0.01-0.01,0C300.35,33.88,289.59,33.88,278.82,33.88L278.82,33.88z"/>
<path class="st2" d="M70.96,154.91c1.66,6.8,6.57,9.64,6.06,14.77c-0.22,2.2-0.49,4.28-3.66,4.45c-2.98,0.16-4.36-1.33-4.29-3.81
	C69.19,166.06,68.16,161.64,70.96,154.91z"/>
<path class="st1" d="M228.12,156.3c-2.54-4.24-7.32-5.52-11.84-7.14c0,0-0.01-0.01-0.01-0.01c-0.9-4.13-8.65-5.35-5.88-11.04
	C219.68,141.55,225.74,147.49,228.12,156.3z"/>
<path class="st1" d="M140.09,249.99c19.28-0.01,38.57-0.01,57.85-0.02C178.66,252.07,159.38,252.45,140.09,249.99z"/>
<path class="st2" d="M42.16,58.96c-3.28-0.05-6.02-0.95-4.8-2.77c1.83-2.72,2.26-7.16,6.95-7.46c2.48-0.16,6,1.02,5.86,3.65
	C49.91,57.05,43.53,56.05,42.16,58.96z"/>
<path class="st2" d="M337.89,279.71c4.49,6.92-2.73,10.89-4.71,16C331.15,289.74,328.88,283.72,337.89,279.71z"/>
<path class="st1" d="M226.32,289.67c0.82-0.5,1.8-0.87,2.42-1.52c2.65-2.83,3.64-9.74,8.51-7.11c3.99,2.15-2.1,5.77-4.42,8.27
	c-3.59,3.86,3.91,6.04,1.45,9.55C229.5,297.26,228.3,293.2,226.32,289.67z"/>
<path class="st2" d="M82.53,304.36c3.38,2.33,3.15,6.14,7.13,6.85c4.25,0.76,2.97,3.22,1.36,5.28c-2.2,2.82-4.12,1.52-6.4-0.31
	C80.57,312.96,80.2,309.37,82.53,304.36z"/>
<path class="st1" d="M137.52,163.45c-3.84,6.58-10.77,6.04-17.11,5.13c-4.56-0.65-1.02-3.66-0.65-5.66
	C125.68,163.1,131.6,163.27,137.52,163.45z"/>
<path class="st2" d="M262.54,350.69c0.18,5.27-0.63,7.5-4.32,7.16c-4.94-0.46-3.2-4.64-4.49-7.1c-1.18-2.24,0.5-3.32,2.94-3.32
	C260.96,347.43,262.48,349.79,262.54,350.69z"/>
<path class="st2" d="M363.65,260.62c-3.1,0.03-4.01-1.68-4.04-4.06c-0.04-2.86,0.45-5.74,4.31-6.06c4.12-0.34,3.57,2.74,3.64,5.04
	C367.62,258.01,367.5,260.5,363.65,260.62z"/>
<path class="st2" d="M390.96,143.6c-2.02,2.7-4.54,1.94-6.65,1.88c-2.76-0.07-6.11,1.09-7.98-1.87c-0.83-1.32-0.94-3.01,0.46-4.05
	c3.54-2.66,4.89,1.55,7.45,2.12C386.39,142.15,388.96,141.35,390.96,143.6z"/>
<path class="st1" d="M278.6,20.7c-4.97,2.13-10.29,1.49-15.51,1.59c-0.27-0.89-0.55-1.78-0.82-2.66c6.02,0.74,11.81-3.97,17.95-0.63
	C279.68,19.58,279.14,20.14,278.6,20.7z"/>
<path class="st1" d="M143.74,105.91c11.95,0,23.89,0,35.84,0.01C167.63,108.6,155.68,108.73,143.74,105.91z"/>
<path class="st2" d="M124,106.29c1.54,6.3,2.95,10.04-1.28,12.94c-0.44,0.3-2.24-0.09-2.43-0.52
	C118.43,114.7,121.04,111.72,124,106.29z"/>
<path class="st2" d="M216.22,291.98c-2.7-4-1.95-7.99-1.2-13.83C219.74,283.78,218.52,287.87,216.22,291.98z"/>
<path class="st2" d="M44.75,120.33c0.43-4.37-0.94-8.87,2.07-13.05c1.23,4.49,5.6,9.21-2.04,13.07
	C44.77,120.35,44.75,120.33,44.75,120.33z"/>
<path class="st2" d="M149.7,257.23c-0.43,2.92,1.33,7.07-4.66,6.95c-1.85-0.04-3.1-1.15-3.14-2.8c-0.14-5.35,4.51-3.78,7.78-4.16
	C149.68,257.22,149.7,257.23,149.7,257.23z"/>
<path class="st2" d="M71.52,97.47c-3.37-3.66-2.56-7.59-2-12.46C75.14,89.19,72.1,93.52,71.52,97.47z"/>
<path class="st1" d="M179.61,102.34c-4.15-0.5-8.59,1.08-13.63-1.82c4.74-2.84,9.41-1.36,13.64-1.82
	C179.62,99.92,179.62,101.13,179.61,102.34z"/>
<path class="st1" d="M179.43,93.27c-7.21-2.23-5.35-7.71-5.58-12.43C178.91,83.84,178.75,88.7,179.43,93.27z"/>
<path class="st1" d="M238.27,300.56c4.39-2.27,7.51-1.93,8.29,3.21C243.36,303.57,240.63,302.44,238.27,300.56z"/>
<path class="st1" d="M210.45,138.19c-2.88-0.18-6.38,1.39-8.02-2.28C205.24,136.28,208.26,136.07,210.45,138.19z"/>
<path class="st5" d="M281.27,16.73c2.55-0.28,5.1-0.57,7.66-0.85c-0.19,1.09-0.39,2.17-0.58,3.26
	C285.64,19.15,282.26,20.73,281.27,16.73z"/>
<path class="st5" d="M101.63,18.89c-0.12-1.01-0.25-2.02-0.37-3.02c2.76,0.01,5.5,0.04,6.47,3.06
	C105.69,18.92,103.66,18.91,101.63,18.89z"/>
<path class="st1" d="M246.32,17.89c1.36,0.3,2.72,0.61,4.07,0.91C248.85,19.15,247.36,19.33,246.32,17.89z"/>
<path class="st1" d="M250.07,195.59c-1.01,0-2.02,0-3.02,0C248.06,195.59,249.07,195.59,250.07,195.59z"/>
<path class="st2" d="M66.95,21.28c-0.27-0.14-0.55-0.28-0.82-0.42c0.28,0.13,0.56,0.27,0.84,0.4
	C66.97,21.27,66.95,21.28,66.95,21.28z"/>
<path class="st1" d="M234.22,298.77c0.7,0.34,1.39,0.68,2.09,1.02C235.61,299.45,234.91,299.11,234.22,298.77z"/>
<path class="st1" d="M202.7,136.07c-0.83-0.28-1.66-0.56-2.5-0.84C201.03,135.51,201.86,135.79,202.7,136.07z"/>
<path class="st0" d="M196.28,215.76c-0.34,1.72-0.67,3.44-1.01,5.16c-1.1,1.83-2.19,3.67-3.29,5.5c-5.88,3.11-11.04,9.31-18.97,3.46
	c0.22-5.31,0.45-10.62,0.67-15.94c1.5-0.55,1.56-1.11,0.03-1.7c-0.01-4.22-0.02-8.45-0.03-12.67c2.34-1.32,2.25-3.44,2.24-5.52
	c-0.1-12.72-0.21-25.45-0.32-38.17c14.89-1.29,19.84,2.39,20.06,15.1C195.91,185.9,196.07,200.83,196.28,215.76z M190.99,212.71
	c0.62-0.03,1.24-0.07,1.86-0.1c0-13.54,0-27.07,0-40.61c-0.62,0.02-1.24,0.04-1.86,0.06C190.99,185.62,190.99,199.17,190.99,212.71z
	 M185.8,220.75c-0.25-2.18-1.7-3.05-4.03-2.96c-2.41,0.1-3.56,1.3-3.57,3.38c-0.01,2.71,1.82,3.65,4.52,3.39
	C185.15,224.31,185.92,222.75,185.8,220.75z"/>
<path class="st1" d="M173.68,213.94c-0.22,5.31-0.44,10.63-0.67,15.94c-3.34-3.48-3.89-7.7-3.07-11.86c3.9-19.6,1.24-39.34,1.6-59
	c0.07-3.95-0.76-5.29,5.16-5.55c9.99-0.44,19.98-0.75,29.96-0.61c4.09,0.06,7.07-1.09,9.6-3.71c0,0,0.01,0.01,0.01,0.01
	c1.71,4.7,1.74,8.28-5.73,7.2c-7.72-1.11-8.61,2.9-8.5,8.48c0.28,13.96-0.08,27.94,0.19,41.9c0.08,4.4-1.07,7.53-5.97,9.01
	c-0.2-14.93-0.36-29.86-0.62-44.79c-0.22-12.72-5.17-16.4-20.05-15.1c-2.83,0.48-2.39,2.55-2.38,4.22
	c0.1,13.16,0.29,26.32,0.45,39.48c0.01,4.22,0.02,8.45,0.03,12.67C173.32,212.8,173.31,213.37,173.68,213.94z"/>
<path class="st1" d="M244.67,248.64c2.35,6.56,2.43,10.56-0.19,17.13C242.02,259.17,241.9,255.17,244.67,248.64z"/>
<path class="st1" d="M185.84,147.03c-2.49-0.04-3.63-0.95-3.39-2.71c0.24-1.8,1.87-2.24,3.63-2.21c1.79,0.03,3.43,0.54,2.95,2.49
	C188.65,146.17,187.09,146.86,185.84,147.03z"/>
<path class="st1" d="M191.97,226.42c1.1-1.83,2.2-3.67,3.29-5.5c2.88,1.31,3.58,3.6,2.13,5.83
	C195.81,229.16,193.66,228.38,191.97,226.42z"/>
<path class="st1" d="M244.52,295.05c-3.78-0.36-6.24-1.56-4.66-6.21C243.68,290.01,242.6,293.5,244.52,295.05L244.52,295.05z"/>
<path class="st1" d="M249.06,292.59c-0.56-0.22-1.42-0.32-1.58-0.68c-0.16-0.35,0.39-0.96,0.63-1.46c0.55,0.21,1.42,0.32,1.58,0.67
	C249.85,291.48,249.3,292.09,249.06,292.59z"/>
<path class="st1" d="M170.45,232.97c-0.59,0.25-1.12,0.66-1.62,0.64c-0.5-0.02-0.97-0.48-1.46-0.75c0.52-0.23,1.04-0.65,1.54-0.64
	C169.41,232.23,169.89,232.68,170.45,232.97z"/>
<path class="st1" d="M178.69,144.71c-0.27,0.13-0.54,0.38-0.8,0.36c-0.25-0.02-0.47-0.31-0.7-0.48
	C177.7,144.63,178.19,144.67,178.69,144.71z"/>
<path class="st1" d="M244.52,295.05c0.28,0.14,0.56,0.27,0.84,0.41C245.08,295.32,244.8,295.18,244.52,295.05L244.52,295.05z"/>
<path class="st0" d="M274.79,214c1.4-0.03,2.8-0.05,4.2-0.08c0.85,19.27,0.82,38.53,0.02,57.8c-5.49-0.79-4.16-4.66-4.17-7.72
	C274.74,247.33,274.79,230.67,274.79,214z"/>
<path class="st0" d="M117.4,37.49c-10.76,0-21.52,0-32.29,0c0.65-4.36,4.43-3.57,7.59-3.59c8.23-0.06,16.46-0.02,24.7-0.01
	C117.4,35.08,117.4,36.29,117.4,37.49z"/>
<path class="st0" d="M278.83,33.88c10.76,0,21.52,0,32.28,0c-0.65,4.35-4.43,3.56-7.59,3.58c-8.23,0.06-16.46,0.02-24.69,0.01
	C278.83,36.28,278.83,35.08,278.83,33.88z"/>
<path class="st2" d="M190.99,212.71c0-13.55,0-27.1,0-40.64c0.62-0.02,1.24-0.04,1.86-0.06c0,13.54,0,27.07,0,40.61
	C192.23,212.65,191.61,212.68,190.99,212.71z"/>
<path class="st2" d="M173.68,199.57c-0.16-13.16-0.35-26.32-0.45-39.48c-0.01-1.67-0.45-3.74,2.38-4.22
	c0.1,12.72,0.21,25.45,0.31,38.17C175.93,196.12,176.02,198.24,173.68,199.57z"/>
<path class="st2" d="M185.8,220.74c0.12,2.01-0.64,3.56-3.08,3.81c-2.7,0.27-4.53-0.68-4.52-3.39c0.01-2.08,1.17-3.28,3.57-3.38
	C184.1,217.69,185.55,218.57,185.8,220.74z"/>
<path class="st2" d="M173.68,213.94c-0.37-0.57-0.36-1.14,0.03-1.7C175.24,212.83,175.17,213.4,173.68,213.94z"/>
</svg>
