<?xml version="1.0" encoding="utf-8"?>
<!-- Generator: Adobe Illustrator 23.1.0, SVG Export Plug-In . SVG Version: 6.00 Build 0)  -->
<svg version="1.1" id="Capa_1" xmlns="http://www.w3.org/2000/svg" xmlns:xlink="http://www.w3.org/1999/xlink" x="0px" y="0px"
	 viewBox="0 0 400 400" style="enable-background:new 0 0 400 400;" xml:space="preserve">
<style type="text/css">
	.st0{fill:#D5B44F;}
	.st1{fill:#D6B44F;}
	.st2{fill:#D3B452;}
	.st3{fill:#D1B25D;}
	.st4{fill:#C9B371;}
	.st5{fill:#CAB76F;}
	.st6{fill:#C9B370;}
	.st7{fill:#F7F5E5;}
	.st8{fill:#D2B160;}
	.st9{fill:#CAB66B;}
	.st10{fill:#C6B454;}
	.st11{fill:#CCAE6B;}
	.st12{fill:#F8F8E0;}
	.st13{fill:#B99F6A;}
	.st14{fill:#FCFAE3;}
	.st15{fill:#CAB572;}
	.st16{fill:#FBF6DE;}
	.st17{fill:#F9F3DE;}
	.st18{fill:#F7F6DA;}
	.st19{fill:#CAB47C;}
	.st20{fill:#D0C091;}
	.st21{fill:#D4D3D9;}
	.st22{fill:#C9C9CF;}
	.st23{fill:#D2CFD5;}
	.st24{fill:#C0BDBF;}
	.st25{fill:#CCAE65;}
	.st26{fill:#BDAB7F;}
	.st27{fill:#CDB273;}
	.st28{fill:#B7A98A;}
	.st29{fill:#C6B9A5;}
	.st30{fill:#BDBAA9;}
	.st31{fill:#CAB77B;}
	.st32{fill:#4A372D;}
	.st33{fill:#C9BC9B;}
	.st34{fill:#D9CAB7;}
	.st35{fill:#DDC59F;}
	.st36{fill:#BAAA6B;}
	.st37{fill:#D0C191;}
	.st38{fill:#C2C0C6;}
	.st39{fill:#C2BBA5;}
	.st40{fill:#CAB76B;}
	.st41{fill:#33261F;}
	.st42{fill:#D5B255;}
	.st43{fill:#D1C193;}
	.st44{fill:#C9C4C2;}
	.st45{fill:#C5B478;}
	.st46{fill:#CEB66C;}
	.st47{fill:#C8B26D;}
	.st48{fill:#CCBB90;}
	.st49{fill:#CDB278;}
	.st50{fill:#BCB998;}
	.st51{fill:#CCCAD1;}
	.st52{fill:#D2CFD4;}
	.st53{fill:#EFD1A8;}
	.st54{fill:#D4CBBF;}
	.st55{fill:#918D7F;}
	.st56{fill:#43381E;}
	.st57{fill:#0D0800;}
	.st58{fill:#0F090B;}
	.st59{fill:#020202;}
	.st60{fill:#DCCA9D;}
	.st61{fill:#C9C7CD;}
	.st62{fill:#C9BEA3;}
	.st63{fill:#B9A986;}
	.st64{fill:#E0DBE3;}
	.st65{fill:#F1D3AD;}
	.st66{fill:#ECD2A9;}
	.st67{fill:#DBCD9F;}
	.st68{fill:#F5F4F5;}
	.st69{fill:#F7F8F4;}
	.st70{fill:#E9E6DC;}
	.st71{fill:#EEF0EF;}
	.st72{fill:#433826;}
	.st73{fill:#C7B89F;}
	.st74{fill:#271A05;}
	.st75{fill:#423318;}
	.st76{fill:#BEB6BB;}
	.st77{fill:#F0EEE7;}
	.st78{fill:#4A3F37;}
	.st79{fill:#D8C79A;}
	.st80{fill:#CAC0A7;}
	.st81{fill:#BAAF8E;}
	.st82{fill:#B7B4B6;}
	.st83{fill:#D2C3A7;}
	.st84{fill:#100B0D;}
	.st85{fill:#0E0B09;}
	.st86{fill:#CDC0B0;}
	.st87{fill:#F1D2AD;}
	.st88{fill:#CFC4A5;}
	.st89{fill:#F2F2EE;}
	.st90{fill:#D6D4DA;}
	.st91{fill:#443820;}
	.st92{fill:#E2D3C7;}
	.st93{fill:#DFCCA3;}
	.st94{fill:#DFCA9B;}
	.st95{fill:#E6DDD6;}
	.st96{fill:#F2D3AC;}
	.st97{fill:#E3D2B2;}
	.st98{fill:#C2AF7F;}
	.st99{fill:#301A09;}
	.st100{fill:#E5DAC0;}
	.st101{fill:#A39A75;}
	.st102{fill:#BFAE96;}
	.st103{fill:#423820;}
	.st104{fill:#3A2E1F;}
	.st105{fill:#BCB28D;}
	.st106{fill:#92856D;}
	.st107{fill:#BEB395;}
	.st108{fill:#888163;}
	.st109{fill:#BAAD97;}
	.st110{fill:#A8977C;}
	.st111{fill:#C6BAA5;}
	.st112{fill:#3F363F;}
	.st113{fill:#483722;}
	.st114{fill:#0A090B;}
	.st115{fill:#524837;}
	.st116{fill:#362B0F;}
	.st117{fill:#65594C;}
	.st118{fill:#C6B7A7;}
	.st119{fill:#DFD3C5;}
	.st120{fill:#D1C2A6;}
	.st121{fill:#F1F0E8;}
	.st122{fill:#D7B352;}
	.st123{fill:#B5AF6C;}
	.st124{fill:#231712;}
	.st125{fill:#34240E;}
	.st126{fill:#3D1811;}
	.st127{fill:#26150E;}
	.st128{fill:#1D0F0C;}
	.st129{fill:#806540;}
	.st130{fill:#191600;}
</style>
<path class="st0" d="M283.69,9.5c7.9,1.06,11.77,8.3,19.47,9.66c6.33,1.1,10.81,4.81,15.4,8.36c1.78,1.29,3.56,2.58,5.34,3.87
	c10.71,6.7,22.48,11.38,35.64,12.4c10.01,0.77,19.24,4.96,29.66,4.09c6.62-0.55,8.5,3.81,7.8,8.93
	c-1.93,14.11-3.61,28.19-3.67,42.46c-0.08,20.96-5.67,41.45-8.37,62.19c0.13,6.87-2.29,13.28-4.67,19.69
	c-5.03,7.95-7.94,16.63-10.37,25.33c-6.77,24.29-20.71,46.21-29.56,69.79c-6.1,3.43-8.69,8.84-10.7,14.59
	c-7.16,6.43-8.87,15.78-15.59,22.38c-3.99,3.91-7.22,10.68-14.6,8.26c-6.63-2.17-4.13-8.8-4.59-13.72c-0.1-1.09,0.09-2.19,0.19-3.28
	c0.46-4.03,2.99-7.17,5.81-10.17c3.78-4.29,8.07-8.33,9.54-13.84c0.37-1.47,0.9-2.9,1.63-4.27c3.19-4.76,7.35-9.03,9.49-14.32
	c4.16-6.94,7.69-14.12,10.5-21.56c5.8-10.74,8.87-22.3,13.38-33.43c0.48-1.62,1.07-3.2,1.73-4.76c4.27-10.69,7.75-21.57,10.68-32.6
	c4.8-5.6,2.64-12.12,3.15-18.3c2.43-11.45,3.55-23.11,7.58-34.28c1.28-1.67,4.49-0.07,4.35-0.5c-3.81-11.66-1.26-23.53-1.73-35.28
	c-0.54-13.7-1.1-14.5-16.35-14.93c-3.39-0.1-6.78,0-10.17-0.05c-3.45,0.04-6.85-0.24-10.1-1.32c-17.9-1.29-29.13-15.15-46.05-18.62
	c-5.16-1.05-9.03-5.32-12.1-9.43c-1.77-4.76-5.75-6.89-11.28-7.17c-1.11-0.25-2.16-0.65-3.17-1.11c-3.19-2.35-7.14-3.07-11.06-3.87
	c-4.56-1.92-12.21,0.12-12.47-7.35c1.31-2.91,4.19-3.72,7.32-4.16c2.87,0.06,6.15,0.54,5.47-3.55c-0.58-3.52,1.56-6.14,3.69-8.78
	c4.23,0.04,8.46,0.09,12.69,0.13C272.67,4.25,277.79,7.44,283.69,9.5z"/>
<path class="st1" d="M84.04,27.28c13.7-7.34,26.32-16.02,39.47-24.02c9.4-5.71,21.23-2.26,32.05-1.97c2.53,2.93,0.51,5-1.72,7.04
	c-2.38,1.47-5.28,2.16-7.61,3.71c-6.19,7.51-14.97,13.16-19.95,21.53c-6.26,9.45-16.48,14.52-27.35,18.89
	c-15.4,2.2-30.67,4.71-43.86,12.74c-23.37,2.93-23.09,2.93-23.47,24.24c-0.26,14.6,1.63,29.25-1.18,43.83
	c-0.36,1.88,3.21-0.11,4.01,1.63c3.45,5.2,2.35,10.9,2.6,16.45c-2.55,15.22,2.12,29.76,5.55,44.41c0.96,4.09,4.07,7.14,7.24,10.1
	c3.37,6.88,2.32,14.05,1.92,21.18c-0.89,3.19-2.15,6.1-6.74,6.22c-6.71-2.36-8.05-7.52-9.45-12.99c-1.34-5.24-4.2-10.08-7.73-14.53
	l0.09-0.03c-2.15-14.51-8.54-28.38-8.63-43.18c-0.04-6.33-4.4-10.98-7.57-16.13c-1.63-27.74-8.75-55.08-7.69-83
	c0.21-5.41-0.9-11.25,5.43-14.97c17.92-0.96,35.02-5.43,52.24-9.49C70.52,36.85,77.57,32.6,84.04,27.28z"/>
<path class="st2" d="M59.13,276.62c-0.56-0.51-0.78-1.11-0.67-1.81c-0.36-6.21,4.34-8.43,10.15-8.79
	c6.57-0.41,10.05,3.95,11.85,8.51c3.61,9.15,8.47,17.64,14.83,25.51c1.45,1.8,2.8,3.71,5.21,4.71c8.11,2.69,10.99,9.4,15.25,15.06
	c8.72,7.5,14.61,16.88,21.99,25.27c1.29,1.46,2.19,1.76,3.9,1.08c2.86-0.75,5.66-0.67,8.43,0.24c2.8,1.1,4.89,2.97,7.05,4.78
	c6.84,4.74,16.35,6.19,21.35,13.18c15.21,10.02,27.44,10.42,41.09,1.3c0.91-0.67,1.93-1.2,3.01-1.63c7.92-0.57,14.6-3.22,19.48-8.91
	c12.83-6.31,21.71-2.28,22.75,10.29c-1.11,2.79-3.41,4.7-6.17,6.25c-10.23-0.25-14.85,7.24-21.52,11.91
	c-9.47,7.05-21.34,10.26-32.11,15.2c-7.78,3.57-13.67-1.48-19.91-4.14c-4.87-2.08-10.53-3.01-14.23-6.94
	c-9.03-6.38-16.89-14.24-28.54-17.33c-12.03-5.43-19.22-15.64-29.47-22.83c-7.4-4.35-13.81-9.41-16.28-17.3
	c0.51-10.45-10.7-15.05-15.62-22.85C74.37,296.9,69.16,285.35,59.13,276.62z"/>
<path class="st3" d="M99.61,307.74c-11.37-6.91-16.43-17.52-20.34-28.3c-4.78-13.16-9.28-14.5-20.81-4.63
	c-5.01-8.28-10.02-16.57-15.03-24.85c-9.02-5.58-6.36-15.11-10-22.51c0.67-7.74-6.65-13.91-5.61-21.73
	c7.62,0.75,8.88,7.37,9.55,11.19c0.99,5.66,5.21,9.89,6.08,15.26c1.98,1.4,2.63,3.74,5.51,5.6c1.75-3.64,2.44-6.79-0.43-10.04
	c-0.08-7.33-0.17-14.65-0.25-21.98c0.58-0.21,1.17-0.43,1.75-0.64c9,5.27,7.17,14.73,11.19,21.93c2.37,7.6,6.8,14.46,10.43,21.59
	c3.29,9.79,10.83,17.8,15.05,27.2c4.33,8.94,13.5,15.66,15.51,25.68C102.35,303.91,101.36,305.95,99.61,307.74z"/>
<path class="st4" d="M384.95,161.47c2.33-30.18,4.6-60.35,7.71-90.48c0.54-5.22-1.32-10.16,1.32-16c2.68-5.93-5.12-4.6-9.35-5.21
	c-19.08-2.77-38.61-3.94-55.91-12.85c-2.8-1.44-5.17-2.35-4.83-5.52c22.61,7.19,45.09,14.78,69.84,14.04
	c7.29-0.22,6.32,4.98,6.09,8.81c-1.62,27.28-2.81,54.62-8.1,81.58C390.05,144.43,389.89,153.47,384.95,161.47z"/>
<path class="st5" d="M12.86,49.74c-3.48,0.44-5.04,2.2-5.03,5.26c0.06,15.8-3.33,32.37,1.04,47.2c4.53,15.39,2.48,30.32,4.17,45.38
	c1.45,1.78,1.31,3.45-0.44,5.02c-6.63-16.48-7.22-33.87-9.48-50.95C1.14,86.65,1.48,71.41,0.11,56.32
	c-0.79-8.78,2.56-12.53,12.76-10.71C14.38,46.99,14.37,48.37,12.86,49.74z"/>
<path class="st6" d="M338.7,276.49c4.48-18.01,13.09-34.72,21.55-51.44c6.3-12.44,7.19-26.35,14.29-38.57
	c1.43-2.46,2.59-4.53,5.73-5.31c-3.96,21.51-13.13,41.67-21.02,62.16c-2.62,6.96-2.39,15.06-10.42,19.86
	c-3.35,2.38-2.83,6.27-4.73,9.22c-2.04,1.11-0.91,3.52-2.57,4.79C340.44,277.43,339.5,277.16,338.7,276.49z"/>
<path class="st7" d="M257.53,370.08c2.39-0.83,4.06-2.28,4.96-4.39c3.46-6.19,11.56-9.21,14.25-15.94
	c5.08-3.97,10.37-7.75,14.9-12.23c9.61-7.83,14.44-19.32,25.84-25.77c0.46,0.32,0.91,0.64,1.37,0.96
	c-0.37,7.73-6.14,12.95-10.17,19.27c-7.58,11.87-22.31,17.5-29.19,30.07c-3.7,6.76-13.66,12.39-24.73,12.03
	C253.75,371.73,256.15,371.17,257.53,370.08z"/>
<path class="st8" d="M12.6,152.61c0.15-1.67,0.29-3.34,0.44-5.02c5.16,1.39,10.13,4.57,9.56,8.87c-2.22,16.84,8.95,32.42,5.31,49.23
	C18.79,188.88,15.41,170.8,12.6,152.61z"/>
<path class="st9" d="M12.86,49.74c0-1.38,0.01-2.76,0.01-4.14c8.76-0.54,17.56-0.89,25.7-4.29c6.05-3.69,13.08-4.37,20.13-4.99
	c8.45-3.02,16.9-6.03,25.35-9.05c-4.4,12.83-18.81,15.89-29.67,16.95C40.41,45.6,27.31,52.14,12.86,49.74z"/>
<path class="st3" d="M59.13,276.62c5.57-0.24,7.93,1.09,10.33,6.67c4.99,11.6,12.08,22.75,21.87,32.07
	c4.59,4.37,9.12,8.36,8.06,14.88c-9.91-0.53-11.35-8.09-15.01-13.8C76.54,302.89,65.17,291.05,59.13,276.62z"/>
<path class="st10" d="M170.76,0.98c20.39,0.01,40.79,0.01,61.18,0.02c3.47,4.7-3.27,5.29-4.31,8.2c-2.93,2.03-5.77,0.66-8.64-0.12
	C205.99,7.77,193,7.84,180.03,9.35c-1.39,0.07-2.74-0.06-4.08-0.37C172.29,7.27,167.82,5.95,170.76,0.98z"/>
<path class="st11" d="M226.89,7.42c-1.44-4.02,6.44-2.44,5.06-6.41c7.65-0.04,15.3-0.09,22.94-0.13c3.23,3.2-4.6,7.02,0.76,10.68
	c0.7,0.48-1.7,8.34-8.33,3.79c-4.17-4.15-8.75-5.71-14.2-1.69C225,16.18,229.28,9.27,226.89,7.42z"/>
<path class="st7" d="M340.97,276.62c1.05-1.41,2.09-2.81,3.14-4.22c1.88,17.19-12.52,28.35-20.59,41.81
	c-1.5,2.5-2.79-1.59-4.67-1.52c0,0-0.35-0.48-0.35-0.48c-0.68-7.34,5.79-12.12,8.58-18.22
	C332.79,288.87,332.89,280.31,340.97,276.62z"/>
<path class="st12" d="M84.38,316.44c6.15,3.65,7.88,10.96,15.01,13.8c2.17,7.13,10.17,10.81,13.46,17.28
	C99.28,345.37,81.75,326.24,84.38,316.44z"/>
<path class="st13" d="M170.76,0.98c-0.34,3.37,3.62,4.26,5,6.64c-1.27,3.17,0.17,6.99-3.05,9.7c-8.6-0.2-8.6-0.2-9.38-6.32
	c0.13,5.9,0.25,5.56,4.19,6.69c2.89,0.83,8.03-3,8.59,2.94c-6.16,4.55-12.4,4.06-18.69,0.26c-2.81-4.13-4.05-8.65-4.35-13.41
	c0.83-2.06,1.66-4.13,2.5-6.19C160.63,1.19,165.69,1.08,170.76,0.98z"/>
<path class="st14" d="M33.43,227.45c5.29,6.84,7.38,14.76,10,22.51c-10.63,0.32-19.83,0.04-10.66-12.72
	C34.51,234.81,33.29,230.75,33.43,227.45z"/>
<path class="st15" d="M142.32,370.35c14.78-0.83,21.47,8.49,28.54,17.33C159.89,383.74,150.68,377.58,142.32,370.35z"/>
<path class="st16" d="M318.56,27.52c-6.61-0.72-11.51-3.83-15.4-8.36c0.34-3.48,2.09-5.84,6.34-4.09
	C315.33,17.48,320.02,20.9,318.56,27.52z"/>
<path class="st17" d="M348.83,263.19c3.47-6.62,6.95-13.24,10.42-19.86c-0.3,5.38,0.31,10.69-1.33,16.14
	C356.3,264.87,352.93,263.98,348.83,263.19z"/>
<path class="st18" d="M58.7,36.33c-6.22,3.17-12.99,4.64-20.13,4.99C44.17,36.23,49.05,28.95,58.7,36.33z"/>
<path class="st19" d="M257.53,370.08c-0.92,1.33-1.84,2.67-2.76,4c-7.42,0.97-9.72,9.22-17.64,9.48
	C241.46,376.22,246.32,369.49,257.53,370.08z"/>
<path class="st11" d="M283.69,9.5c-8.18,1.22-13.55-1.6-16.11-8.5C276.08-0.69,279.81,4.51,283.69,9.5z"/>
<path class="st20" d="M277.65,34.31c5.99,10.4,20.83,8.8,28.61,15.58c8.13,7.08,19.63,7,27.56,13.24c1.47,7.56-1.42,14.6-3.87,21.58
	c-1.88,5.36-3.3,10.64-2.78,16.24c0.02,3.55-0.04,7.09-0.51,10.61c-0.58,2.98-2.09,5.44-5.24,6.93c-4.28,1.79-9.04,3.36-13.29,1.02
	c-14.04-7.76-24.95-4.76-33.86,6.66c-4.85-0.77-7.69-3.31-7.18-7.6c0.56-4.74,3.92-8.15,8.89-9.98c5.18-1.9,10.66-1.82,16.43-0.89
	c-3.49-3.53-9.14-5.11-10.89-9.86c-2.14-7.5,6.02-11.49,7.86-17.61c-3.34-5.1-9.6-3.8-14.64-5c-4.4-1.05-9.43,0-13.23-3.09
	c-2.8-4.32-1.37-8.47,0.57-12.62c10.86-6.91,1.15-16.22,3.64-24.11c0.11-1.65,0.64-3.13,2.19-4.21
	C272.25,29.64,274.99,31.89,277.65,34.31z"/>
<path class="st21" d="M333.92,241.28c-0.76,8.32-5.94,15.04-10.43,22.01c-2.83,1.98-3.73,6.3-8.82,5.55
	c-1.11-0.39-1.87-1.07-2.3-2.04c-0.67-4.47-1.24-8.97-5.6-12.15c-2.59-3.19-8.62-4.91-5.91-10.39c1.94-2.42,4.35-5,3.52-7.99
	c-3.36-11.99,2.72-23.12,3.45-34.61c0.77-12.01-0.29-24.51-5.92-36.07c-3.73-11.02,5.15-17.86,11.12-25.68
	c7.93-4.18,12.69-0.57,13.86,5.75c2.77,15.09,10.12,28.95,14.11,43.67c0.59,2.16,1.54,4.51,0.87,6.56
	C337.02,210.75,339.87,226.6,333.92,241.28z"/>
<path class="st22" d="M333.92,241.28c-2.67-10.72,1.97-21.34,0.34-32.54c-0.89-6.09,5.45-14.9,2.14-23.38
	c-5.14-13.18-11.13-26.19-12.73-40.2c-0.77-6.74-5.73-4.74-10.17-4.16c-2.98-8.88,1.67-16.56,5.07-24.43
	c3.32-0.1,4.92-1.67,5.07-4.5c5.35-7.4,9.91-5.81,17.11-0.75c9.64,6.77,12.16,17.16,19.82,24.85c4.45,4.46,0.46,11.47,1.25,17.3
	c-0.64,5.55,1.68,11.41-2.42,16.56c0.28,12.05-5.29,22.78-10.02,33.69c-0.73-0.32-1.33-0.76-1.79-1.34
	c-2.32,2.05,0.82,3.39,0.88,5.13C343.51,218.72,342.48,231.24,333.92,241.28z"/>
<path class="st23" d="M313.73,277.04c-0.2,1.32-0.4,2.63-0.61,3.95c-3.83,4.17-7.58,8.39-9.88,13.43c-1.76,2.89-3.51,5.78-5.27,8.68
	c-2.61,3.45-2.48,8.5-7.9,10.31c-6.71,1.47-11.1-3.67-16.99-4.54c-8.33-0.48-16.76-1.67-24.42,2.64c-2.3,1-4.6,2.07-7.19,0.69
	c-3.31-4.74-1.28-8.52,2.76-11.96c9.19-2.94,9.56-10.64,12.09-17.2c2.89-4.73,2.36-9.9,2.74-14.96c0.39-5.26,1.1-10.37,8.51-11.79
	c5.68-0.6,11.33-0.9,16.87,0.78c9.25,4.41,20.37,5.02,29.02,10.71l-0.02-0.02C316.39,270.78,315.4,273.9,313.73,277.04z"/>
<path class="st24" d="M359.34,152.17c-1-7.25,3.31-15.3-8.58-20.51c-3.15-1.38-5.79-10.75-10.48-16.25
	c-5.63-6.59-9.6-7.65-16.63-3.34c0-3.7,0.01-7.41,0.01-11.11c5.34-8.68,7.26-18.87,15.13-26.4c3.63-3.48,7.05-7.38,12.95-8.24
	c4.66,0.42,8.69,2.57,13.12,3.6c3.42,0.8,6.79,2.37,6.7,5.67c-0.38,13.7,3.18,27.56-2.03,41.06c2.01,12.23-4.42,23.52-5.22,35.44
	C362.68,153.43,361.02,153.43,359.34,152.17z"/>
<path class="st25" d="M157.78,18.13c5.87,4.41,11.87,4.16,17.97,0.39c-0.78-0.88-0.83-1.8-0.15-2.75c1.78-1.47,3.85-2.34,6.35-2.32
	c4.93,3.14,10.43,3.23,16.12,2.25c3.98,1.93,8.67-1.27,12.57,1.28c2.96,1.48,5.37-0.14,7.9-1.1c3.69-1.93,6.97-6.44,11.59-0.67
	c1.2,1.49,3.35-1.26,5.24-1.65c2.55,0.42,4.55,1.28,4.23,4.01c1.91,6.05,9.89,1.12,12.78,5.39c-4.29,4.18-10.09,3.2-15.44,3.23
	c-27.48,0.15-54.96,0.01-82.44,0.09c-5.04,0.01-10.17-0.55-15.02,1.19c-4.1,2.13-7.16,6.14-12.82,5.48
	c-0.57-0.34-1.14-0.68-1.71-1.02c3.3-9.7,12.82-15.11,20.02-22.12C148.36,13.61,151.79,17.38,157.78,18.13z"/>
<path class="st26" d="M135.09,27.39c1.43-6.07,7.04-4.14,11.22-4.16c35.36-0.19,70.71-0.2,106.07-0.27
	c3.88,0.7,9.37-1.38,10.25,4.52c-8.05,7.17-18.16,1.39-27.06,3.3c-28.41,0.51-56.81-0.1-85.22,0.08c-4.61,0.03-9.38,0.12-13.65-1.99
	C136.16,28.38,135.63,27.89,135.09,27.39z"/>
<path class="st27" d="M290.12,312.4c2.55-3.15,3.29-7.46,7.86-9.3c0.06,1.09,0.02,2.19,0.19,3.27c0.74,4.5-2.68,11.68,2.15,12.95
	c6.64,1.75,8.61-6.26,12.84-9.82c6.64-5.6,4.67-16.46,15.53-19.55c1.68,1.55,1.46,3.15,0.18,4.79c-3.46,5.83-6.91,11.66-10.37,17.48
	c-9.62,7.94-14.26,19.48-25.14,26.51c-2.31-0.83-3.36-2.53-4.07-4.48c-0.19-1-0.19-2.01-0.06-3.02
	C292.93,325.08,282.84,318.42,290.12,312.4z"/>
<path class="st28" d="M369.54,116.66c-0.02-11.06-0.17-22.13-0.01-33.19c0.09-6.01,1.16-11.81-9.58-11.32
	c-3.53,0.16-7.26-2.94-10.9-4.55c-5.34,1.73-6.93,0.16-5.12-4.42c32.43-0.01,30.83-3.61,30.59,26.24
	c-0.07,8.79,0.02,17.59-0.1,26.38C374.33,122.27,371.24,116.68,369.54,116.66z"/>
<path class="st29" d="M343.93,63.18c0.18,2.82,1.86,4.32,5.12,4.42c-12.34,8.87-13.38,24.3-25.39,33.36
	c-0.35-13.37,5.61-25.46,10.16-37.83C337.19,63.15,340.56,63.17,343.93,63.18z"/>
<path class="st30" d="M237,27.64c8.54-0.05,17.08-0.1,25.63-0.16c0.77,0.08,1.55,0.12,2.32,0.13c1.47,1.14,4.04,1.74,2.76,4.24
	c-0.03,1.61-0.06,3.23-0.08,4.84c-2.74,2.83-6.14,4.22-10.44,3.61c-5.52-3.08-12.28-2.83-18.13-5.09
	C236.33,33.11,234.41,30.83,237,27.64z"/>
<path class="st31" d="M328.87,294.74c-0.06-1.6-0.12-3.19-0.18-4.79c0.18-6.28-1.52-13.63,10.02-13.46
	c0.75,0.08,1.51,0.13,2.27,0.14C337.17,282.78,334.95,289.74,328.87,294.74z"/>
<path class="st32" d="M239.6,17.57c-1.54-0.86-3.08-1.73-4.62-2.59c-1.85-0.21-2.06-1.68-2.77-2.76c0.2-8.78,8.19-0.97,12.22-4.02
	c2.33-1.76,3.25,4.07,2.89,7.13C244.75,16.08,242.18,16.82,239.6,17.57z"/>
<path class="st33" d="M359.34,152.17c1.66-0.02,3.32-0.05,4.98-0.07c-1.59,5.99,4.59,13.59-4.91,17.93
	C359.39,164.07,359.36,158.12,359.34,152.17z"/>
<path class="st21" d="M348.48,207.5c-0.95-0.66-2.23-1.16-2.8-2.02c-1.77-2.66-4.96-5.15-2.51-8.66c0.53-0.77,2.27-1.67,3-1.44
	c4.83,1.55,2.06,5.55,3.22,8.33C349.08,204.98,348.78,206.24,348.48,207.5z"/>
<path class="st34" d="M313.73,277.04c-0.1-3.09-0.2-6.19-0.3-9.28c3.35-1.49,6.71-2.98,10.06-4.47
	C322.36,269.02,318.64,273.35,313.73,277.04z"/>
<path class="st35" d="M303.25,294.42c-0.85-6.8,2.95-10.99,9.88-13.43C311.92,286.64,308.55,291.08,303.25,294.42z"/>
<path class="st36" d="M267.7,31.86c-0.92-1.42-1.84-2.83-2.76-4.25c5.79-0.02,12.19-0.92,12.71,6.7
	C274.34,33.49,271.02,32.68,267.7,31.86z"/>
<path class="st37" d="M99.44,49.8c9.17-5.23,18.55-10.22,25.5-17.86c0,0,0.02,0.38,0.02,0.38c3.43,3.13,4.4,7.4,6.76,11.03
	c0.73,2.11,0.69,4.19-0.32,6.23c-5.82,6.64-1.01,13.53,0.54,19.77c1.7,6.85,3.12,13.65,3.94,20.6c-0.98,2.11-2.83,3.54-4.87,4.83
	c-5.55,3.98-12.39,4.51-19.08,5.36c-7.5,0.95-13.43,2.99-16.3,10.22c-3.2,8.05-9.53,8.57-16.67,3.05c-0.81-0.79-1.44-1.69-1.91-2.67
	c-1.54-3.51-0.13-8.34-5.9-9.97c-5.57-3.07-6.96-7.78-6.78-13.11c1.08-4.61,1.47-9.06-1.2-13.53c-2.12-3.55-2.97-7.44-0.21-11.22
	C75.48,59.28,87.01,53.58,99.44,49.8z"/>
<path class="st38" d="M79.07,109.94c-0.03,0.71-0.02,1.43,0.04,2.14c1.49,1.51,1.47,3.14,0.5,4.84
	c-11.38,8.75-20.12,18.92-23.06,32.31c-1.79,8.17-6.85,13.27-17.16,12.96c-5.05-2.03-3.48-7.04-6.03-10.2
	c-0.09-5.78-0.19-11.56-0.28-17.34c-4.41-6.61-1.65-13.79-2.18-20.69c0.85-5.03,4.12-9.47,4.56-14.67c0.25-3,2.29-6.75,5.67-6.32
	c9.61,1.21,14.36-5.4,21.15-8.7c2.22,0.34,3.58,1.52,4.22,3.36c1.6,4.18,0.47,9.76,7.53,11.13
	C78.11,101.66,74.92,107.05,79.07,109.94z"/>
<path class="st39" d="M66.51,87.62c-0.89-0.74-1.79-1.48-2.68-2.22c-2.55-2.4-5.5-4.51-7.03-7.63c-1.93-3.93-4.36-7.19-10.26-5.96
	c-6.09,1.27-9.13,4.64-9.61,10.06c-0.88,10.11,0.34,20.41-3.63,30.23c-0.07,7.51-0.14,15.02-0.21,22.53
	c-1.24,1.32-2.48,2.65-4.95,5.29c0-23.89,0.1-46.5-0.07-69.1c-0.04-5.74,2.75-7.85,9.14-7.61c6.3,0.24,12.63-0.08,18.94-0.15
	c2.6-1.4,5.17-1.89,7.62,0.24c-0.9,5.03,2.54,8.83,4.44,13.16C69.71,79.89,70.47,84.31,66.51,87.62z"/>
<path class="st8" d="M33.36,151.98c3.15,2.4,4.21,5.69,5.05,9.06c6.69,14.23,14.43,28.28,10.17,44.42c0,0-0.29,0.28-0.29,0.28
	c-7.12,0.52-8.38-4.39-9.15-8.53C36.33,182.24,30.7,167.5,33.36,151.98z"/>
<path class="st40" d="M63.77,63.3c-2.54-0.08-5.08-0.16-7.62-0.24c11.19-12.49,28.51-9.73,43.3-13.26
	C88.37,55.94,78.21,63.93,63.77,63.3z"/>
<path class="st41" d="M157.78,18.13c-11.51,5.72-13.05-0.26-12.82-8.32c2.04-2.52,5.36-1.65,8.09-2.32
	C158.64,9.68,159.63,13.42,157.78,18.13z"/>
<path class="st42" d="M48.54,227.73c1.02,0.62,2.33,1.05,3,1.89c2.91,3.59,3.02,7.41,0.41,11.15c-1.02,1.46-2.74,1.3-4.41,0.73
	c-5.27-1.81-3.82-5.85-4.08-9.32C46.77,232.11,48.44,230.61,48.54,227.73z"/>
<path class="st43" d="M175.98,365.54c-4.29-7.49-15.88-6.16-20.66-13.06c3.08-2.13,5.13-4.35,5.54-8.28
	c0.44-4.14,2.84-8.21,7.14-10.88c9.27-0.61,11.15-8.95,17.4-12.71c3.8,3.56,7.93,5.43,13.82,3.58c6.7-2.11,13.98-0.24,20.86-1.64
	c6.71,4.75,9.53,11.75,13.65,17.99c-1.89,5.84,0.39,11.34,1.86,16.93c-1.29,7.07-9.97,4.5-13.9,8.13l0.03,0.04
	C206.46,377.17,191.22,371.57,175.98,365.54z"/>
<path class="st44" d="M168.21,334.75c-0.28,5-9.56,8.89-2.18,15.36c0.84,0.74-6.92,1.59-10.71,2.36c-1.73-1.43-3.46-2.86-5.19-4.28
	c-3.8-2.8-7.62-5.57-12.29-7.25c-2.98-1.27-4.66-3.14-3.8-6.2c8.17-6.49,7.54-14.92,6.72-23.4c2.87-1.56,5.82-1.54,8.84-0.41
	c4.81,3.8,5.28,10.41,11.37,13.4C163.82,327.57,167.51,330.37,168.21,334.75z"/>
<path class="st45" d="M278.34,350.67c-0.84,8.58-9.25,11.08-15.85,15.02c-1.32-10.42-8.29-13.47-20.29-8.86
	c-0.37-0.43-0.74-0.86-1.11-1.29c-0.6-5.57,4.01-7.26,8.68-8.92c6.13,0.25,12.1,3.15,18.42,0.88c1.25-0.12,2.49-0.1,3.74-0.02
	C274.53,347.84,277.08,348.28,278.34,350.67z"/>
<path class="st46" d="M175.98,365.54c6.1,0.2,11.77,0.21,17.67,3.39c4.83,2.6,12.2,2.8,17.57-1.02c3.32-2.36,6.84-2.17,10.52-2.28
	c-6.42,8.36-23.18,12.91-33.6,7.53C184.13,371.09,176.5,372.11,175.98,365.54z"/>
<path class="st47" d="M135.3,334.42c-0.07,2.88,1.69,4.3,4.84,4.61c2.83,2.85,2.84,5.72,0.12,8.63c-0.36,1.23-1.02,4.04-1.99,2.9
	c-8.19-9.57-15.8-19.51-23.59-29.35c1.32-1.43,3.1-1.98,5.12-2.1C129.53,320.68,133.34,326.84,135.3,334.42z"/>
<path class="st48" d="M119.87,321.13c-1.73,0.03-3.46,0.05-5.19,0.08c-7.5-2.38-5.69-12.69-15.07-13.47
	c0.04-2.26,0.08-4.53,0.12-6.79C113.24,301.6,120.03,308.42,119.87,321.13z"/>
<path class="st49" d="M221.71,365.59c0.68-6.97,11.34-2.63,12.86-8.65c2.23-2.06,4.65-2.1,7.21-0.49c0,0,0.42,0.38,0.42,0.38
	C238.9,366.04,230.42,366.02,221.71,365.59z"/>
<path class="st50" d="M140.26,347.66c-0.04-2.88-0.08-5.75-0.12-8.63c6.12,0.73,7.47,5.43,9.99,9.16
	C146.84,348.01,143.55,347.84,140.26,347.66z"/>
<path class="st51" d="M48.58,205.47c-1.04-15.22-9.47-29.14-10.17-44.42c10.59-1.73,16.48-6.61,15.29-16.71
	c-0.57-4.8-0.81-9.53,7.09-10.66c4.1-0.59,2.66-4.94,3.94-7.5c2.77-5.53,5.28-11.13,14.23-9.62c8.24,9.76,16.7,19.45,11.68,32.81
	c-15.31,13.32-19.13,30.5-20.68,48.23c-0.89,10.25-1.96,20.46-3.48,30.65c-2.69,1.43-5.24,1.25-7.63-0.53
	C53.55,220.96,55.41,211.69,48.58,205.47z"/>
<path class="st52" d="M119.87,321.13c-4.63-8.32-8.05-17.55-20.14-20.18c-5.21-8.17-10.41-16.35-15.62-24.52
	c-3.13-13.51-3.09-13.49,11.52-18.06c4.79-1.5,9.6-2.64,14.71-2.55c10.56-2.04,17.68,0.56,20.32,10.58c0.91,3.46,4.7,6.05,5.91,9.64
	c1.42,5.73-3.72,10.47-3.16,16.07c-1.16,7.58,0.89,14.33,6.73,20.13c8.55,9.08,7.28,14.91-4.85,22.18
	C128.51,331.45,128.62,322.37,119.87,321.13z"/>
<path class="st53" d="M112.16,258.84c-9-2.07-15.94,3.7-24.09,5.12c-7.23,1.26-2.6,8.21-3.96,12.47c-4.99-8.8-9.98-17.6-14.97-26.4
	c1.1-1.33,2.65-1.46,4.34-1.25c1.08,0.22,2.12,0.52,3.16,0.84c8.68-1.44,17.73-1.92,24.61-7.69c2.44-3.03,5.85-5.38,7.98-8.64
	c2.87-2.65,5.96-5,10.22-5.76c3.06-0.48,6.06-1.11,8.9-2.29c4.78-1.75,9.55-2.37,14.45-0.28c9.59,4.1,10.58,14.06,1.67,19.13
	c-4.51,2.57-9.8,3.95-14.39,6.43C124.08,253.24,117.19,254.5,112.16,258.84z"/>
<path class="st54" d="M74.03,249.95c-1.63,0.03-3.26,0.05-4.89,0.08c-3.52-7.4-9.72-13.87-10.29-22.31c2.5,0.01,5.01,0.01,7.51,0.02
	C77.59,232.86,75.69,241.43,74.03,249.95z"/>
<path class="st55" d="M278.34,350.67c-3.17-0.37-6.33-0.74-9.5-1.11c6.99-5.46,14.81-10,22.07-15.15c2.09,0.9,2.29,2.6,2.44,4.33
	C289.05,343.38,285.39,348.65,278.34,350.67z"/>
<path class="st13" d="M178.06,7.86c14.52-3.85,29.06-4.22,43.62-0.18c-0.75,0.77-1.67,1.32-2.73,1.71c-3.21,0.8-6.53,1.05-9.81,1.53
	c-3.73-0.18-7.32,0.32-10.7,1.84c-5.68-1.42-11.36-1.22-17.05-0.07C178.94,11.79,177.61,10.29,178.06,7.86z"/>
<path class="st56" d="M219.2,8.34c0.83-0.22,1.65-0.44,2.48-0.66c1.74-0.01,3.61,1.88,5.21-0.27c4.23-0.48,0.05,6.15,5.32,4.8
	c0.92,0.92,1.85,1.84,2.77,2.76c-0.77,2.43-3.87,6.04-5,3.98c-4-7.28-7.45,1.13-10.79-0.43C216.21,15.13,215.52,11.74,219.2,8.34z"
	/>
<path class="st57" d="M178.06,7.86c1.12,1.19,2.24,2.38,3.36,3.57c0.87,1.13,0.84,2.24-0.09,3.34c-1.06,1.96-3.07,1.88-5.07,1.81
	c-1.39,0.98-2.62,0.85-3.69-0.4c-1.82-3.67-3.71-7.37,3.19-8.57C176.49,7.95,177.26,8.03,178.06,7.86z"/>
<path class="st58" d="M172.58,16.19c1.23,0.13,2.46,0.27,3.69,0.4c-0.25,0.63-0.42,1.27-0.51,1.93c-4.84-2.22-13.3,5.23-15.29-4.22
	c-0.49-2.33-0.61-5.82,3.68-5.64c1.09,0.05,2.87,3.43,2.81,5.25C166.79,19.15,170.82,15.32,172.58,16.19z"/>
<path class="st59" d="M130.41,92.16c1.53-0.74,2.06-3.14,4.64-2.12c3.53,0.44,4.97,3.62,8.07,4.59c5.66,0.89,6.25-2.69,6.86-6.03
	c1.65-9.03,8.9-13.92,17.29-17.91c2.95-1.4,6.39-3.12,9.57-1.4c4.17,2.26,0.61,5.22-0.05,7.85c-0.36,1.43-1,2.81-0.19,4.28
	c1.82,1.48,3.32,0.34,4.26-0.76c11.56-13.59,28.81-15.82,46.2-17.68c4.17-0.45,9.68-1.11,11.66,2.43c2.54,4.55-4.03,5.43-6.61,7.93
	c-1.07,1.04-2.77,1.63-3,4.11c11.06-3.39,21.37-9.47,33.57-5.77c9.54,0.58,19.12,0.85,28.17,4.04c9.71,3.43-1.31,3.18-1.13,4.92
	c-6.74,5.2-17.92,2.8-22.56,10.7c4.87,1.26,12.25-1.31,15.77,5.09c5.31,4.06,10.63,8.11,17.82,13.61c-8.04,0-14.36,0.03-20.68-0.01
	c-6.76-0.04-9.78,4.1-11.38,8.69c-1.52,4.36,3.95,4.45,6.67,6.14c5.19-0.71,8.85,1.58,11.81,4.85c3.09,3.43,6.97,7.23,4.3,11.75
	c-2.74,4.63-8.16,2.3-12.42,1.65c-5.39-0.82-10.73-1.23-16.14-0.67c-13.41-0.04-25.42-4.63-36.11-9.35
	c-2.24,0.64-2.99,1.19-2.88,1.97c1.91,14.4,1.66,14.63-15.25,13.08c-9.88-0.91-15.18-3.34-28.2-13.14
	c-7.56,11.41-16.6,22-14.15,36.33c0.49,2.88,0.03,5.92-1.55,8.67c-8.05,3.92-8.82-3.35-11.47-6.33c-5.39-6.07-11.14-9.76-20.21-7.04
	c-5.56-1.01-3.7-5.89-5.95-8.64c-3.46-6.98-9.72-11.8-16.18-16.57c-9.47-6.99-9.01-10.57,1.64-16.49c0.71-0.39,1.39-0.99,2.16-1.11
	c13.33-1.96,15.92-8.76,12.42-19.31C125.81,100.46,126.52,95.72,130.41,92.16z"/>
<path class="st60" d="M262.41,140.82c9.4-4.92,18.29,0.64,28.22,1.09c-0.25-9.21-8.85-12.43-15.28-17.06
	c3.17-12.38,17.56-17.41,29.73-9.69c4.82,3.06,8.54,4.11,13.49,1.41c1.96,8.72-2.32,16.46-5.07,24.43
	c-1.14,8.87-12.59,14.49-10.1,24.5c2.68,3.09,2.04,6.7,0.34,9.49c-8.05,13.16-5.86,29.84-18.68,41.3
	c-3.95,4.81-4.16,10.34-4.05,15.94c-0.13,2.27-0.61,4.46-2.12,6.38c-5.61,3.62-8.9-0.92-12.79-2.92c-3.84-1.98-7.31-4.47-11.11-6.54
	c-2.86-2.16-4.96-4.81-6.47-7.83c-0.3-1.04-0.35-2.1-0.16-3.17c12.04-8.15,15.37-20.43,19.89-32.13c2.28-5.91-0.88-11.72-0.74-17.59
	c-0.34-2.42-0.91-4.77-2.91-6.65C253.81,152.43,253.71,151.44,262.41,140.82z"/>
<path class="st61" d="M262.66,71.68c-14.25,1.66-27.83,5.07-40.9,13.06c-0.75-11.19,9.36-13.17,15.34-17.94
	c-28.65-2.73-43.02,2.79-59.61,22.89c-7.23-7.73-7.23-7.93,0.11-19.85c-14.27,3.64-24.95,9.18-25.75,23.64
	c-0.53,9.63-6.3,6.18-11.52,2.73c-5.38-11.56-1.92-24.34-6.47-36.01c6.42-5.77,16.3-2.45,23.28-6.74c1.16-0.23,2.33-0.24,3.5-0.03
	c4.54,2.26,9.28,3.18,14.38,1.55c1.06-0.3,2.15-0.51,3.24-0.7c2.72-0.42,5.43-0.88,8.02-1.77c4.79-2.2,9.09-6.66,15.25-2.59
	c3.09,1.83,6.37,3.19,10.24,3.07c2.1,0.1,4.13,0.54,6.14,1.02c2.92,0.72,5.84,1.46,8.91,0.61c2.56-0.67,5.06-1.61,7.83-1.2
	c1.61,0.39,3.13,0.99,4.66,1.56c6.73,2.21,13.47,0.25,20.21,0.05c2.64,0.27,4.51,1.45,5.55,3.59
	C264.46,62.99,261.43,67.03,262.66,71.68z"/>
<path class="st62" d="M282.92,96.43c-6.79-3.3-14.32-2.15-22.92-2.21c7.43-10.46,17.15-14.36,29.71-13.58
	c1.93,0.65,6.75,1.3,2.61,3.39C286.34,87.06,285.54,92.05,282.92,96.43z"/>
<path class="st63" d="M265.08,58.61c-1.69-0.73-3.38-1.46-5.06-2.19c-1.94-2.78-2.1-6.19-4.21-8.92c-0.42-0.94-0.67-1.89-0.82-2.89
	c-0.11-2.09,0.08-4.1,1.96-5.65c3.56-0.75,7.12-1.51,10.68-2.26c0.75,4.15,0.34,8.41,3.2,12.29
	C275.05,54.71,271.51,57.45,265.08,58.61z"/>
<path class="st64" d="M282.82,216.62c0.18-2.19-0.64-5.27,0.7-6.44c14.31-12.37,10.69-30.7,19.88-44.68
	c4.24,0.44,6.75,1.67,6.51,6.25c-0.9,17.12,4.85,34.45-3.62,51.4c-1.84,3.68,1.39,9.2,1.99,13.91c0.62,4.87-0.19,9.04-7.65,8.51
	c-6.72,4.23-11.77-0.61-17.39-2.41c-2.18-1.09-4.28-2.27-5.44-4.33c0.01-2.2,0.03-4.41,0.04-6.61
	C282.65,227.79,278.28,221.12,282.82,216.62z"/>
<path class="st34" d="M313.45,267.78c-10.33-0.62-20.15-2.49-28.11-8.84c6.56-3.38,13.13-5.86,20.39-1.14
	c0.6,0.39,0.85-1.73,1.55-2.56c0.39-0.31,0.78-0.61,1.17-0.9C315.74,257.22,316.28,262.02,313.45,267.78z"/>
<path class="st34" d="M282.86,241.13c6.34,0.23,11.07,5.34,17.78,4.45c1.22,3.86,7.91,4,7.82,8.76c0,0-0.15,0.13-0.15,0.13
	c-8.83,1.41-15.92-2.66-23.12-5.93C282.12,247.13,280.4,244.37,282.86,241.13z"/>
<path class="st65" d="M257.39,285.56c0.87,7.35-2.63,12.55-10.21,15.72c-7.71,2.68-15.44,4.08-23.23,0.24
	c-3.41-2.36-4.86-6.99-10.44-6.94c-10.01-3.31-5.53-9.29-3.28-14.56c2-4.67,6.33-7.68,11.34-9.93c7.35-3.16,15.02-3.71,22.95-2.11
	C259.33,273.34,260.17,274.5,257.39,285.56z"/>
<path class="st66" d="M282.86,241.13c4.14,10.77,17.76,7.73,25.44,13.33c-0.31,3.12,1.02,6.53-2.71,9.63
	c-3.17-13.01-13.63-2.53-20.25-5.16c-5.9-0.02-11.8-0.05-17.7-0.07c-1.02-0.8-1.77-2.19-1.02-2.89c5.91-5.5-1.54-3.15-3.16-4.17
	c-15.41-6.82-15.41-6.82-10.05-21.7c0.29-1,0.93-1.78,1.93-2.33c9.68,0.3,13.75,9.26,22.46,11.07
	C279.92,238.88,281.81,239.3,282.86,241.13z"/>
<path class="st67" d="M262.55,249.95c4.35,0,8.69,0,13.19,0c-0.24,5.62-9.02,3.56-8.1,8.91c-7.61,1.35-4.73,6.72-5.04,10.6
	c-0.46,5.74,0.82,11.78-5.22,16.1c1.87-8.97-4.7-12.45-12.78-14.94c-2.92-4.88-12.53-4.17-12.58-11.49
	c3.24-11.83,9.38-15.09,22.28-11.58C257.07,248.3,260.06,248.49,262.55,249.95z"/>
<path class="st68" d="M241.41,312.45c2.08-0.72,4.16-1.45,6.23-2.17c5.67-0.09,6.92,3.99,9.02,7.28c1.09,5.25-0.85,10.05-2.93,14.84
	c-2.37,3.12-5.72,4.97-9.88,5.76c-12.52-3.58-14.15-7.01-9.92-20.82C235.5,314.62,237.15,312,241.41,312.45z"/>
<path class="st69" d="M241.41,312.45c-1.46,1.41-2.92,2.81-4.38,4.22c-11.57,3.26-13.87,2.23-17.79-7.91
	c0.5-3.25,0.66-6.59,2.81-9.48c8.19,2.47,16.72,1.63,25.12,1.99C242.97,304.1,241.28,307.92,241.41,312.45z"/>
<path class="st70" d="M290.12,312.4c-3.53,6.8,8.26,13.07,0.9,20c-3.2,2.07-5.94,0.93-8.58-0.92c-4.61-4.96-8.43-10.33-10.82-16.41
	c-0.43-3.29,0.35-6.24,3.26-8.56C279.96,308.47,285.04,310.44,290.12,312.4z"/>
<path class="st71" d="M274.88,306.5c0.69,2.81-0.59,5.19-2.19,7.49c-4.73,5.85-10.53,6.75-17.36,2.86
	c-4.13-0.79-4.87-4.61-7.68-6.57C255.34,301.42,265.6,306.67,274.88,306.5z"/>
<path class="st72" d="M181.34,14.77c0.03-1.11,0.06-2.23,0.09-3.34c5.78-4.78,11.48-4.12,17.13,0.2c1.73,1.78,1.92,3.55-0.06,5.31
	C192.13,20.14,186.04,21.66,181.34,14.77z"/>
<path class="st73" d="M129.76,43.15c-5.47-2.31-4.81-6.68-4.79-10.84c4.4-0.03,6.68-3.38,10.12-4.92c0,0,0.09,0.4,0.09,0.4
	c2.69,3.32,10.2,0.44,10.82,6.42C142.34,39.61,135.28,40.31,129.76,43.15z"/>
<path class="st74" d="M198.49,16.94c0.02-1.77,0.04-3.54,0.06-5.31c2.22-7.63,6.69-2.62,10.48-1.43c2.85,2.21,3.84,4.86,2.5,8.06
	C207.09,18.54,202.57,19.43,198.49,16.94z"/>
<path class="st75" d="M211.53,18.27c-1.84-2.45-3.18-5.02-2.5-8.06c2.57-4.01,6.57-2.12,10.17-1.86c0,3.4-0.01,6.79-0.01,10.19
	C216.62,18.75,213.97,20.89,211.53,18.27z"/>
<path class="st76" d="M145.4,34.12c-2.2-3.6-10.1-0.18-10.22-6.33c33.94-0.05,67.88-0.1,101.82-0.15c0.84,2.06,1.68,4.12,2.51,6.18
	c-0.65,2.47-2.57,4.06-4.86,5.39c-3.13,0.77-5.69-2.12-8.88-1c-0.96,0.39-1.91,0.77-2.85,1.19c-6.05,4.62-12.14-4.66-18.19,0.1
	c-1.73-0.11-3.31-0.65-4.87-1.25c-5.86-2.37-11.88-0.73-17.83-0.52c-3.19-0.24-6.61-0.81-6.01,3.69c0.12,3.81,0.22,7.61-4.47,9.71
	c-1.82,0.48-3.62,0.42-5.36-0.25c-3.05-1.88-3.37-4.84-3.54-7.66c-0.41-6.62-4.75-5.24-9.3-3.7
	C149.02,39.59,146.37,37.8,145.4,34.12z"/>
<path class="st77" d="M282.73,330c2.76,0.8,5.52,1.6,8.28,2.4c-0.2,0.66-0.24,1.33-0.1,2.01c-3.59,9.23-12.22,12.86-22.07,15.15
	c-0.4-0.28-0.84-0.5-1.3-0.68c-3.31-2.84-2.86-6.11-1.41-9.49C271.06,335.46,274.68,329.73,282.73,330z"/>
<path class="st78" d="M234.17,37.9c0.51-2.63,2.49-3.79,5.35-4.09c5.89,1.5,13.82-2.27,17.42,5.14c-0.07,1.83-0.15,3.65-0.22,5.48
	c-1.43,3.58-4.13,1.8-5.27,0.37c-6.6-8.19-9.92-5.68-11.97,2.47c-0.71,2.83-1.74,5.58-4.91,7.17c-2.76,1.07-5.51,2.14-8.27,3.21
	c-1.92-4.3,1.95-7.28,3.22-10.85C230.96,43.79,231.62,40.46,234.17,37.9z"/>
<path class="st79" d="M130.41,92.16c-0.42,9.92-1.66,19.93,6.22,29.99c-10.46,0.66-19.2,1.63-26.37,7.38
	c-4.81,3.85-5.07,5.56,0.58,8.73c8.87,4.98,17.16,10.74,20.25,20.27c-10.39-1.56-13.26,7.56-20.16,10.99
	c-3.94,1.96-5.55,7.78-12.09,5.08c-2.63-8.4-8.86-15.76-9.55-24.73c2.98-12.62-8.57-21.81-10.32-33.31
	c0.05-1.49,0.09-2.99,0.14-4.48c8.32,4.29,13.98,3.32,15.2-5.99c1.5-11.37,13.08-7.12,19.95-8.99
	C119.71,95.62,125.44,94.94,130.41,92.16z"/>
<path class="st80" d="M135.12,58.86c8.52,11.73,4.29,24.81,5.21,37.35c-2.77-1.4-4.8-3.28-5.29-6.17
	c-5.44-8.27-4.51-18.06-8.07-26.85c-0.6-1.49,0.24-3.65-1.65-5.94c-3.54-4.27-0.18-6.54,4.74-7.44c3.71,0.97,5.08,3.63,6.2,6.48
	C136.42,57.33,136.01,58.18,135.12,58.86z"/>
<path class="st81" d="M134.88,56.45c-1.61-2.21-3.22-4.42-4.82-6.64c-0.1-2.22-0.19-4.44-0.29-6.66c1.64-7.72,10.78-5.54,15.63-9.02
	c2.4,1.48,4.8,2.97,7.2,4.45c1.92,3.52-1.13,4.75-3.73,6.2c-2.21,1.23-5.75-0.24-7.44,3.01c3.94,2.58,7.18-3.23,10.85-0.71
	c4.81,6.16,4.15,10.15-5.48,10.5C142.77,57.72,138.57,59.09,134.88,56.45z"/>
<path class="st79" d="M79.07,109.94c-8-1.56-4.04-7.23-5.03-11.19C82.19,100.25,78.02,105.99,79.07,109.94z"/>
<path class="st82" d="M33.29,112.11c-0.02-10.71,0.32-21.43-0.17-32.12c-0.43-9.4,7.62-10.52,14.76-12.14
	c6.95-1.58,11.05,0.67,11.42,7.76c0.18,3.33,5.64,5.53,4.52,9.79c-2.12,0.3-4.59,0.83-4.65,2.91c-0.19,7.47-3.63,9.67-11.83,6.82
	c-6.46-2.24-9.28,0.53-9.03,6.32C38.5,105.61,37.05,109.3,33.29,112.11z"/>
<path class="st83" d="M222.06,299.29c1.19,2.3,3.65,4.72-0.8,6.48c-5.04,5.32,1.58,11.55-1.74,17.01
	c-8.35,7.58-20.16,1.41-29.63,5.48c-1.49,0.64-3.44-4.25-3.84-7.13c-3.23-4.32-0.38-7.03,3.28-9.53
	c14.06-0.75,12.85-9.64,12.56-18.03c4.42-2.94,9.5,1.51,13.96-0.95C222.18,291.81,223.88,294.3,222.06,299.29z"/>
<path class="st84" d="M190.67,311.63c-1.54,3.17-3.09,6.33-4.63,9.5c-3.63,6.85-5.55,15.41-17.84,13.62
	c-4.27-1.96-6.99-4.91-7.71-9.15c-1.79-4.93,1.38-8.37,4.65-11.77c8.97-0.21,15.69-3.26,18.52-11.24c3.67-1.14,6.36,0.1,8.53,2.63
	C193.25,307.64,193.5,309.92,190.67,311.63z"/>
<path class="st85" d="M219.52,322.78c-0.83-5.78-8.29-12.08,1.74-17.01c-0.72,10.23,6.75,11.43,15.78,10.91
	c-1.83,7.93-8.05,17.15,7.69,19.9c2.85,2.58,2.77,5.43,1.02,8.43c-6.48,2.81-10.15-0.6-13.51-4.67
	C224.25,336.55,223.77,328.62,219.52,322.78z"/>
<path class="st86" d="M232.23,340.33c4.78,0.03,8.89,1.21,11.41,5.1c3.35-1.75,4.82,0.18,6.15,2.39c-2.47,3.02-7.98,3.89-8.01,8.63
	c-2.41,0.16-4.81,0.32-7.21,0.49C228.79,351.94,228.04,346.4,232.23,340.33z"/>
<path class="st87" d="M140.15,312.24c-13.82-2.4-9.28-12.03-10.1-19.55c6.72-5.8,15.17-2.86,22.91-3.48
	c7.15,0.23,13.79,1.5,18.17,7.13c0.71,0.96,1.22,2.02,1.55,3.13c-0.39,7.77-3.61,13.7-13.32,15.34c-3.37,0.2-6.42-0.47-8.97-2.5
	C146.98,312.29,143.57,312.26,140.15,312.24z"/>
<path class="st88" d="M150.4,312.31c3.55,0.02,7.1,0.04,10.65,0.06c1.18,1.64,4.25,0.27,5.09,2.45c-1.88,3.59-3.76,7.19-5.63,10.78
	C151.56,324.4,149.93,318.96,150.4,312.31z"/>
<path class="st89" d="M249.79,347.82c-2.05-0.8-4.1-1.59-6.15-2.39c0.36-2.95,0.72-5.9,1.09-8.86c2.44-1.42,4.88-2.84,7.32-4.26
	c7.51-1.4,12.68,1.02,15.52,7.25c-0.01,3.11-0.02,6.22-0.03,9.33C261.15,354.62,255.57,349.93,249.79,347.82z"/>
<path class="st90" d="M89.28,149.87c6.75,7.08,11.19,14.91,10.43,24.44c1.24,1.46,2.3,2.99,2.72,4.8
	c-2.77,18.99,6.47,36.77,7.41,55.4c1.47,5.85-4.92,6.15-8.09,8.72c-8.69,3.96-17.53,7.47-27.73,6.74c0,0-0.01-0.01-0.01-0.01
	c-4.65-6.85-0.26-16.08-7.67-22.21c-6.35-12.32,1.66-24.46,0.63-36.86c-1.02-12.41,7.75-23.26,11.53-34.98
	C79.78,152,82.15,147.01,89.28,149.87z"/>
<path class="st91" d="M155.58,291.78c-8.5,0.58-17.1-1.06-25.53,0.91c-2.53-6.46,4.38-10.49,5.41-16.03
	c0.85-7.51,8.46-9.66,13.99-13.49c25.29-3.27,50.25-10.56,76.28-4.82c1.32,0.44,2.5,1.09,3.52,1.91c0.83,0.99,0.99,2.08,0.49,3.22
	c-2.56,2.28-5.98,2.83-9.29,2.58c-18.18-1.38-35.6,4.68-53.55,4.17c-8.35-0.24-8.97,3.15-8.67,8.45c-3.43,2.42-8.08,0.17-11.86,2.17
	c2.34,4.41,8.12-0.37,10.45,3.29C158.28,286.92,158.04,289.49,155.58,291.78z"/>
<path class="st92" d="M148.03,265.04c-4.19,3.87-8.38,7.75-12.57,11.62c-3.33-3.61-9.37-7.15-9.48-10.83
	c-0.3-10.42-7.29-7.69-13.82-6.98c1.52-7.76,8.72-8.08,15.46-9.02c6.31,0.26,5.73,5.29,7.49,8.54c1.67,3.09,2.67,6.36,7.8,4.01
	C145.43,262.09,147.68,262.2,148.03,265.04z"/>
<path class="st93" d="M99.52,178.72c0.06-1.47,0.13-2.95,0.19-4.42c8.45-3.72,13.31-11.1,21.26-15.8c5.53-3.27,7,0.86,10.12,0.03
	c4.54,1.9-3.15,5.69,1.54,7.56c3.79,3.03,2.96,7.17,3.52,10.98c-0.08,3.66,1.51,7.16,1.43,10.83c-0.23,10.81,1.88,12.44,14.69,11.42
	c1.21,0.07,2.36,0.35,3.46,0.79c3.56,2.76,8.12,4.89,8.21,9.85c-4.33,6.69-13.15,6.65-19.68,10.04c-1.06,0.45-2.16,0.82-3.27,1.16
	c-4.85,1.64-9.97,2.86-13.47,6.6c-1.9,2.6-4.92,2.13-7.75,2.17c-4.65-4.14-6.39-9.51-7.41-14.91
	C109.98,202.38,101.85,191.34,99.52,178.72z"/>
<path class="st94" d="M127.52,227.76c1.42-6.18,7.14-7.57,12.96-8.84c14.1,1.82,12.5,13.45,17.33,21.06
	c4.88,1.71,5.38,5.15,1.88,7.49c-6.66,4.44-10.1,11.33-16.81,15.58c-0.29,2.61-0.9,5.51-4.24,5.91c-4.24,0.51-3.39-3.35-4.57-5.34
	c-2.62-4.42-2.41-9.86-6.44-13.79c1.83-3.8,5.95-5.15,9.84-6.11c6.64-1.64,12.68-3.95,9.86-10.96c-2.54-6.33-8.59-8.41-16.14-5.6
	C130.06,227.56,128.74,227.57,127.52,227.76z"/>
<path class="st95" d="M99.52,178.72c8.6,7.66,10.34,18.4,14.13,27.73c2.92,7.19,5.98,15.29,6.11,23.48
	c-3.31,1.52-6.61,3.04-9.92,4.56c-5.46-14.19-12.19-28.12-10.44-43.66C99.86,186.83,99.5,182.76,99.52,178.72z"/>
<path class="st54" d="M74.04,249.96c9.25-2.22,17.93-6.23,27.73-6.74C94.6,250.65,79.36,254.35,74.04,249.96z"/>
<path class="st96" d="M163.04,210.34c-0.27-4.52-7.89-4.53-7.57-9.41c-5.34-11.16-3.92-15.03,7.32-20.03
	c0.25-2.21,0.83-4.43,0.71-6.62c-0.63-11.66-2.8-23.33,9.03-32.71c3.33-2.64,4.59-7.78,3.32-16.25
	c13.53,15.24,27.33,23.08,46.99,20.07c-0.37-1.31-0.58-2.64-1.11-3.87c-1.79-4.14-5-9.18-0.84-12.39c4.74-3.65,8.99,1.71,12.85,3.74
	c8.93,4.68,19.1,5.37,28.67,7.96c-3.95,7.9-4.63,15.17,5.2,20.4c1.15,0.83,1.19,1.97,1.17,3.11c0.7,0.99-2.39,0.85-0.83,2.1
	c0.91,0.07,1.52,0.48,1.82,1.22c3.69,19.99,0.93,38.02-20.07,50.53c-2.07,5.21-7.47,6.86-12.48,8.95
	c-6.69,3.25-14.22,1.18-21.22,2.55c-6.72,1.39-13.25-1.98-19.98-0.59C182.26,226.57,168.52,223.99,163.04,210.34z"/>
<path class="st97" d="M162.79,180.9c-9.3,4.77-6.97,12.77-7.32,20.03c-0.99-0.01-1.98-0.02-2.97-0.03
	c-3.5-9.69-14.17-14.55-20.03-22.64c0.05-4.05,0.1-8.11,0.15-12.16c6.78-6.23,12.83-4.77,18.36,1.39
	C154.97,171.92,158.86,176.42,162.79,180.9z"/>
<path class="st98" d="M236.66,225.17c4.35-2.32,8.7-4.64,13.06-6.97c0.08,1.11,0.17,2.23,0.25,3.35c4.44,6.91,1.86,12.75-3.57,18.18
	c-2.57,1.92-5.35,3.27-8.88,2.18C234.06,236.46,239.18,230.66,236.66,225.17z"/>
<path class="st99" d="M243.19,239.4c4.07-5.43,8.11-10.86,6.77-17.85c4.25,0.45,4.94,3.26,5.39,6.22c-0.09,0.75-0.18,1.51-0.27,2.26
	c-1.4,2.53-1.94,5.47-3.8,7.72C249.35,240.07,247.22,243.97,243.19,239.4z"/>
<path class="st34" d="M282.82,216.62c-1.65,5.2,4.23,12.23-4.97,15.6C278.56,226.79,275,220.33,282.82,216.62z"/>
<path class="st100" d="M267.43,165.76c0.06-1.52,0.12-3.03,0.18-4.54c2.87,1.6,2.33,4.07,2.17,6.44c-0.83,0-1.66-0.02-2.49-0.06
	l-0.55-0.96L267.43,165.76z"/>
<path class="st101" d="M234.57,54.43c0.71-3.25,1.44-6.49,2.12-9.75c0.68-3.27-1.58-7.75,5.29-8.24c5.77-0.42,10.74-0.64,10.62,6.37
	c-0.01,0.52,2.69,1.08,4.13,1.62c0.22,1.08,0.44,2.16,0.65,3.24c-5.57,5.19-9.8,12.79-20.53,8.8
	C236.08,55.79,235.33,55.11,234.57,54.43z"/>
<path class="st102" d="M201.47,36.45c0.84,0.75,1.69,1.5,2.53,2.25c1.38,1.09,1.92,2.48,1.94,4.06c-1.35,3.42,0.72,8.43-5.75,9.49
	c-6.06-6.79-8.78,5.03-14.18,1.93c-3.57-2.92-3.18-6.76-3.22-10.5C183.97,31.36,193.71,35.86,201.47,36.45z"/>
<path class="st103" d="M134.88,56.45c4.54-0.01,9.09,0.05,13.63-0.06c3.06-0.07,4.18-1.72,4.3-4.28c0.16-3.11-0.91-4.94-4.89-4.46
	c-1.13,0.23-2.45,0.24-2.69-0.87c-0.43-1.97,1.4-2.76,3.06-3.53c2.07-1.11,4.15-2.21,4.31-4.66c2.27-3.5,5.66-5.35,10.11-3.87
	c4.64,1.54,2.74,5.37,2.97,8.39c0.16,2.13,0.32,4.25,0.49,6.38c0.6,2.02-0.6,2.82-2.67,3.05c-2.78-1.54-2.79-4.02-2.82-7.11
	c-0.38,3.49-0.74,6.35-1.96,9.06c-6.7,6.26-15.18,5.18-23.6,4.39C135.04,58.06,134.96,57.25,134.88,56.45z"/>
<path class="st104" d="M236.84,56.47c9.88,2.46,12.46-8.05,20.53-8.8c5.11,1.94,6.46,4.75,2.64,8.74
	C252.3,59.99,244.58,60.27,236.84,56.47z"/>
<path class="st105" d="M231.11,47.91c3,4.98-5.2,5.73-4.81,9.73c-3.78,2.52-6.42-1.94-9.9-1.22c-0.64-0.91-0.77-1.85-0.31-2.85
	c5.21-4.83,0.76-13.2,8.23-17.21l-0.12,0.04C232.27,37.6,230.09,43.49,231.11,47.91z"/>
<path class="st106" d="M200.19,52.25c3.49-2.45,1.86-6.62,4.16-9.47c2.14-1.51,4.18-3.31,7.32-1.87c4.04,4.46,3.98,8.97,0.19,13.52
	C206.76,58.66,203.89,53.75,200.19,52.25z"/>
<path class="st107" d="M170.26,50.09c4.96-3.24,2.43-7.87,2.9-11.95c3.63-5.77,5.99-1.49,7.31,1.12c2.21,4.38,1.71,9.16,0.5,13.81
	c-0.62,1.22-1.43,2.33-2.42,3.35c-0.68,0.16-1.37,0.26-2.07,0.3C172.29,56.02,168.32,55.17,170.26,50.09z"/>
<path class="st108" d="M170.26,50.09c2.07,2.21,4.14,4.41,6.21,6.62c-5.97,2.15-12.1,5.08-16.25-2.36c0.45-1.45,1.52-2.3,3.22-2.54
	c0.91-0.78,1.81-1.56,2.72-2.33C167.54,49.68,168.9,49.88,170.26,50.09z"/>
<path class="st109" d="M163.45,51.81c-1.07,0.85-2.14,1.69-3.22,2.54c-0.5,0.09-1,0.13-1.51,0.12c-4-6.05,1.3-11.62,0.76-17.62
	C164.81,41.26,162.31,46.87,163.45,51.81z"/>
<path class="st110" d="M178.54,56.41c0-0.77-0.01-1.54-0.01-2.31c2.72-4.68,0.37-9.72,1.39-14.53c5.07-3.63,4.15,1.5,5.73,2.99
	c0.12,3.87,0.24,7.75,0.36,11.62C184.3,56.9,181.28,56.29,178.54,56.41z"/>
<path class="st111" d="M211.86,54.43c-1.28-4.51,1.36-9.55-2.45-13.71c0.12-4.52,3.02-6.3,5.52-1.99c2.8,4.82,5.2,10.62,1.59,16.36
	c-0.02,0.45-0.06,0.9-0.12,1.34C214.88,55.76,213.37,55.09,211.86,54.43z"/>
<path class="st112" d="M155.58,291.78c-0.1-3.01-0.19-6.03-0.29-9.04c-1.12-1.46-1.03-2.77,0.64-3.88c4.26-6.35-6.6-4.27-5.88-10.03
	c26.2-1.06,52.29-7.31,79.31-5.5c3.07-0.96,4.65,0.61,5.26,2.81c0.45,1.64-1.13,2.59-2.88,2.57c-3.92-0.06-6.99,1.54-9.92,3.51
	c-6.09,3.86-9.22,9.3-11.42,15.44c-1.82,5.07,2.27,4.45,5.43,4.96c-3.99,4.53-9.62,1.38-14.37,2.33c-3.99,0.95-6.3-1.75-9.2-3.17
	c-4.63-2.49-7.68,0.13-10.87,2.5c-3.11,2.32-6.08,4.99-10.8,4.25C167.32,293.36,161.51,292.47,155.58,291.78z"/>
<path class="st113" d="M221.83,272.22c1.42-3.12,4.33-3.84,7.84-4.62c5.72-1.26,2.28-2.94-0.3-4.26c0.01-0.67,0.01-1.34,0-2.01
	c1.73-1.27,3.38-1.67,4.85,0.3c4.24,1.97,8.97,3.42,12.61,6.03c4.59,3.3-1.11,2.13-2.22,2.97
	C236.8,268.78,229.3,270.38,221.83,272.22z"/>
<path class="st60" d="M234.22,261.63c-1.62-0.1-3.23-0.2-4.85-0.3c-0.84-0.32-1.69-0.64-2.53-0.95c2.56-6.71-0.37-15.67,10.26-19.06
	c2.03-0.64,4.06-1.28,6.09-1.92c8.52,1.29,7.53-6.62,11.88-9.37c0.33,0.62,1.15,1.5,0.92,1.81c-6.15,8.37-2.52,13.98,6.55,18.11
	c-3.38-0.09-6.92,0.35-10.11-0.37C240.31,246.85,234.85,251.34,234.22,261.63z"/>
<path class="st114" d="M267.57,339.56c-5.17-2.42-10.35-4.83-15.52-7.25c1.09-5.16,2.19-10.31,3.28-15.47
	c5.79-0.95,11.57-1.9,17.36-2.86c5.2,4.45,7.62,10.23,10.05,16.01C276.56,331.83,274.8,339.01,267.57,339.56z"/>
<path class="st115" d="M216.52,55.08c-2.35-4.83-1.56-10.1-2.7-14.99c-1.25-5.37-3.29-1.95-4.42,0.62c-1.08,1.82-2.87,2.3-5.05,2.07
	c-0.12-1.36-0.24-2.72-0.35-4.08c4.24-2.36,8.1-9.34,13.36-0.72c0.25,0.42,4.54-1.04,6.95-1.62
	C218.67,41.64,227.88,51.62,216.52,55.08z"/>
<path class="st115" d="M231.11,47.91c-5.6-2.32-3.34-8.25-6.92-11.5c4.57-5.83,6.83,0.1,9.98,1.5
	C234.28,41.5,235.8,45.43,231.11,47.91z"/>
<path class="st116" d="M181.5,39.16c-2.15,4.81,2.28,10.61-2.97,14.94c-0.04-4.64,0-9.28-0.15-13.91c-0.12-3.57-1.8-4.61-5.22-2.06
	c-1.94-1.08-1.73-2.55,0.03-3.16c2.76-0.96,5.66-0.81,7.97,1.28c0.67,0.59,0.95,1.22,0.82,1.89
	C181.85,38.82,181.69,39.16,181.5,39.16z"/>
<path class="st117" d="M181.5,39.16c-0.11-0.97-0.23-1.94-0.34-2.91c6.81-3.19,13.59-3.82,20.31,0.2
	c-4.73,3.1-15.12-4.94-15.81,6.12C184.27,41.43,182.88,40.3,181.5,39.16z"/>
<path class="st118" d="M148.29,43.24c0.38,1.5-4.32,2.68-0.37,4.4c-0.45,3.15-1.77,6.48-5.93,5.63c-5.12-1.04-4.45-5.56-5.1-10.03
	C140.86,43.24,144.57,43.24,148.29,43.24z"/>
<path class="st119" d="M193.87,289.86c2.53,1.69,5.07,3.39,7.6,5.08c6.9,3.63,5.51,8.32,2.2,13.24c-3.11,4.62-6.9,7.36-13,3.45
	c0.03-1.81,0.06-3.62,0.09-5.43C189.94,300.48,183.57,293.96,193.87,289.86z"/>
<path class="st120" d="M193.87,289.86c-6.75,4.62,1.33,11.39-3.11,16.34c-2.27-1.18-3.87-3.7-7.2-2.78
	c-5.93,3.08-9.23-0.37-12.52-3.85c-0.24-0.32-0.38-0.68-0.42-1.06c4.25-2.23,8.66-4.14,11.46-8.11
	C185.48,285.57,189.65,285.26,193.87,289.86z"/>
<path class="st121" d="M171.04,299.58c4.17,1.28,8.35,2.56,12.52,3.84c-1,13.49-1.02,13.5-17.42,11.4c-1.7-0.82-3.4-1.63-5.1-2.45
	C168.6,310.62,169.44,304.87,171.04,299.58z"/>
<path class="st122" d="M237.1,241.32c-8.21,4.39-1.24,15-10.26,19.06c-26.76-4.68-52.5,3.78-78.82,4.67c-1.71-0.67-3.43-1.33-5.15-2
	c2.16-7.38,7.65-12.24,14.58-16.72c5.7-3.69,1.3-3.91-2.58-3.32c1.61-10.28-0.52-19.22-11.79-24.85c6.65-2.61,13.31-5.22,19.96-7.83
	c8.59,9.64,20.92,13.8,33.56,17.51c6.79-2.14,13.18,2.86,19.96,0.85c0.27-0.08,0.63-0.33,0.65-0.53c0.04-0.33-0.17-0.68-0.27-1.03
	c6.43-1.77,13.45,1,19.73-1.97C246.03,230.35,239.55,235.88,237.1,241.32z"/>
<path class="st123" d="M155.93,278.86c-0.21,1.29-0.43,2.59-0.64,3.88c-3.18,1.46-4.9,6.93-9.98,3.09
	c-2.04-1.54-5.38-4.46-3.13-6.16C145.9,276.9,151.05,274.96,155.93,278.86z"/>
<path class="st124" d="M132.47,178.25c4.56,1.96,7.55,5.32,13.53,6.5c7.55,1.49,3.1,10.91,6.5,16.14c-5.84-1.35-2.94,5.46-8.05,5.87
	c0.13-9.77-5.88-8.25-14.28-2.92C133.31,193.99,137.42,186.23,132.47,178.25z"/>
<path class="st125" d="M143.08,218.16c13.96,3.48,17.63,11.21,11.79,24.85c-1.52-0.13-4.29,0.22-3.58-1.71
	c3.82-10.33-3.05-16.47-10.82-22.38C141.34,218.66,142.21,218.41,143.08,218.16z"/>
<path class="st126" d="M196.66,199.49c7.8,3.34,13.63,5.84,19.85,8.5C204.32,215.29,200.63,213.99,196.66,199.49z"/>
<path class="st127" d="M250.97,178.49c-0.2,3.37-2.21,5.57-6.09,5.88c-3.94,0.31-6.79-1.82-7.28-4.93c-0.61-3.9,2.51-6.33,6.72-6.54
	C248.18,172.71,250.25,175.2,250.97,178.49z"/>
<path class="st128" d="M207.93,173.66c-0.65,3.3-2.21,5.6-6.48,5.72c-4.22,0.12-6.67-1.98-6.89-5.15c-0.26-3.77,2.57-6.32,6.97-6.38
	C205.63,167.81,206.98,170.79,207.93,173.66z"/>
<path class="st129" d="M216.93,227.14c1.01,0.77,5.45,1.65,0.85,2.62c-7.05,1.49-14.19-0.6-21.19-1.92
	C203.14,222.37,210.29,230.26,216.93,227.14z"/>
<path class="st130" d="M267.43,165.76c0.09,0.62,0.04,1.23-0.14,1.84c-0.66-0.37-1.33-0.74-1.99-1.11
	C266.01,166.24,266.72,166,267.43,165.76z"/>
</svg>
