<?xml version="1.0" encoding="utf-8"?>
<!-- Generator: Adobe Illustrator 23.1.0, SVG Export Plug-In . SVG Version: 6.00 Build 0)  -->
<svg version="1.1" id="Capa_1" xmlns="http://www.w3.org/2000/svg" xmlns:xlink="http://www.w3.org/1999/xlink" x="0px" y="0px"
	 viewBox="0 0 400 400" style="enable-background:new 0 0 400 400;" xml:space="preserve">
<style type="text/css">
	.st0{fill:#FD2B0D;}
	.st1{fill:#FDFCFC;}
	.st2{fill:#040404;}
</style>
<path class="st0" d="M0.33,50.36c-0.01-0.47-0.03-0.93-0.04-1.4c-0.06-3.83,0.06-7.68-0.25-11.49c-0.21-2.52,0.64-3.39,2.86-3.25
	c7.13-1.19,14.25-2.34,21.17-4.65c14.69-4.9,27.3-13.01,36.74-25.95c1.72-2.35,2.47-1.73,4.11-0.1
	c12.1,12.04,25.72,21.45,42.01,26.14c18.66,5.38,36.84,3.54,54.7-3.75c13.96-5.7,26.25-14.2,37.42-24.53
	c1.92-1.77,3.07-1.94,5.15-0.02c12.91,11.9,27.29,21.26,43.83,26.65c28.76,9.37,54.97,3.72,78.98-14.78
	c4.21-3.25,8.17-6.81,11.92-10.63c1.02-1.04,1.67-1.72,2.82-0.11c13.08,18.32,31.4,26.81,52.31,30.36c1.86,0.32,3.75,0.45,5.63,0.67
	c0.77,4.43-0.32,8.9,0.2,13.34c-0.02,0.71-0.05,1.42-0.07,2.13c-0.14,0.21-0.13,0.42,0,0.63c-0.05,1.48-0.1,2.96-0.15,4.44
	c-0.76,8.09-1.18,16.2-1.35,24.33c-1.5,12.98-2.31,26.03-3.96,38.99c-1.9,14.93-4.24,29.78-7.14,44.52
	c-3.95,19.99-8.98,39.7-15.62,58.92c-8.54,24.72-19.31,48.2-33.18,70.26c-24.85,39.53-58.02,68.85-97.83,90.52
	c-11.97,6.52-24.34,12.04-36.75,17.5c-2.1,0.92-4.09,1.27-6.39,0.32c-26.99-11.19-52.89-24.5-76.42-42.53
	c-34.58-26.5-60.42-60.5-78.95-100.78c-13.07-28.41-21.94-58.26-28.4-88.99c-4.94-23.52-7.88-47.34-10.57-71.22
	C2.23,82.43,1.36,68.95,0.49,55.47c-0.02-0.3-0.04-0.59-0.06-0.89C0.39,53.17,0.36,51.77,0.33,50.36z M11.12,60.95
	c0.12,0,0.25,0,0.37,0c0.25,4.9,0.55,9.79,0.71,14.69c0.06,2.02,0.77,3.45,2.23,4.79c6.12,5.58,12.14,11.28,18.2,16.95
	C91,152,149.37,206.62,207.74,261.24c24.55,22.97,49.09,45.95,73.64,68.92c6.16,5.76,6.26,5.83,12.2-0.14
	c15.64-15.73,28.53-33.8,40.52-52.61c6.49-10.19,12.39-20.75,16.82-32.13c0.89-2.28,1.58-4.22-0.75-6.47
	c-36.32-35.17-72.55-70.43-108.79-105.69c-30.47-29.65-60.92-59.31-91.34-89c-1.68-1.64-3.27-2.31-5.64-1.93
	c-29.44,4.72-55.65-2.8-78.38-23.07c-1.88-1.68-2.96-2.02-4.87,0c-4.22,4.49-8.95,8.38-14.05,11.77
	c-10.06,6.67-21.31,9.91-32.77,12.44c-2.65,0.58-3.43,1.58-3.28,4.34C11.3,52.07,11.12,56.52,11.12,60.95z"/>
<path class="st1" d="M399.82,49.63c-0.14-0.21-0.14-0.42,0-0.63c0.06,0.15,0.15,0.29,0.18,0.45
	C400.01,49.49,399.88,49.57,399.82,49.63z"/>
<path class="st1" d="M11.12,60.95c0-4.44,0.18-8.88-0.07-13.31c-0.15-2.76,0.63-3.76,3.28-4.34c11.46-2.53,22.71-5.77,32.77-12.44
	c5.1-3.39,9.83-7.28,14.05-11.77c1.91-2.02,2.98-1.68,4.87,0c22.73,20.27,48.94,27.79,78.38,23.07c2.37-0.38,3.96,0.29,5.64,1.93
	c30.42,29.7,60.87,59.36,91.34,89c36.24,35.26,72.47,70.53,108.79,105.69c2.33,2.25,1.64,4.18,0.75,6.47
	c-4.43,11.38-10.33,21.94-16.82,32.13c-11.99,18.81-24.88,36.88-40.52,52.61c-5.94,5.97-6.04,5.9-12.2,0.14
	c-24.55-22.96-49.09-45.95-73.64-68.92C149.37,206.62,91,152,32.63,97.38c-6.05-5.66-12.08-11.36-18.2-16.95
	c-1.47-1.34-2.17-2.77-2.23-4.79c-0.16-4.9-0.46-9.8-0.71-14.69C11.37,60.95,11.24,60.95,11.12,60.95z M149.02,164.81
	c2.57,1.81,4.64,3.14,6.58,4.65c6.7,5.26,12.83,11.24,19.15,16.97c1.7,1.54,2.61,3.27,3.09,5.53c2.04,9.53,6.33,17.89,12.47,25.22
	c4.63,5.52,10.57,8.91,17.14,11.08c5.37,1.77,7.62-0.45,6.9-6.33c-0.47-3.87-1.85-7.45-3.16-11.05c-1.55-4.24-3.65-8.33-4.68-12.69
	c-3.93-16.69-6.87-33.57-6.69-50.86c0.02-2.08-0.53-3.45-2.15-4.67c-9.27-7.02-17.48-15.19-24.54-24.65
	c-2.4-3.21-5.09-6.21-8.19-8.73c-2.66-2.16-4.64-1.66-6.22,1.41c-1.69,3.29-0.99,6.98,1.58,9.84c1.21,1.34,3.45,2.27,1.68,5.1
	c-8.56,13.66-16.44,27.82-27.4,39.65c-0.94,1.02-1.62,2.06-0.63,3.35c2.55,3.3,5.41,6.26,9.42,7.52c2.58,0.81,4.32-0.28,5.17-2.96
	C149.36,170.69,149.09,168.11,149.02,164.81z M104.17,59.8c-2.97,5.96-3.04,11.73-0.36,17.4c1.65,3.49,4.43,5.53,8.33,5.32
	c3.53-0.2,6.43-2.8,7.63-6.82c1.24-4.16,0.95-8.34-0.36-12.39c-3.64-11.33-10.89-18.83-22.32-20.53
	c-13.26-1.97-24.48,2.5-31.47,14.87c-8.83,15.63-9.04,32.22-2.36,48.74c9.38,23.22,37.08,26.94,52.01,7.18
	c3.65-4.83,5.86-10.21,4.45-16.57c-0.49-2.2-1.19-4.39-3.78-4.75c-2.82-0.39-5.39,0.32-7.18,2.76c-1.56,2.12-1.36,4.62,0.2,6.49
	c2.02,2.42,1.22,4.49-0.02,6.67c-4.72,8.3-13.28,8.51-19.56,0.51c-8.69-11.09-10.24-29.3-3.57-41.92
	C89.8,59.27,96.09,56.82,104.17,59.8z M278.32,296.51c3.78-0.07,5.94-2.59,5.27-5.66c-0.47-2.16-1.76-3.8-3.49-4.95
	c-1.48-0.99-1.9-2.11-1.83-4.01c0.78-19.45,1.51-38.9,2.03-58.36c0.11-3.92,0.2-6.97,4.56-8.57c3.18-1.17,3-3.56,0.03-5.62
	c-2.63-1.81-5.62-2.8-8.62-3.69c-4.43-1.31-8.09-3.8-11.04-7.48c-2.37-2.95-4.74-5.89-7.21-8.74c-1.24-1.42-2.56-3.5-4.66-2.65
	c-1.88,0.76-1.71,3.09-1.76,4.93c-0.18,6.06-0.31,12.12-0.44,18.18c-0.41,18.19-0.85,36.37-1.17,54.56
	c-0.04,2.04-0.65,2.51-2.46,2.54c-2.36,0.03-3.79,1.63-3.74,4.04c0.07,3.06,0.79,5.9,3.38,7.97c8.83,7.04,18.39,12.67,28.73,16.85
	C276.82,296.22,277.82,296.37,278.32,296.51z M132.95,120.18c-1.16,0.46-1.89,1.67-2.79,2.65c-3.57,3.92-3.56,3.93,0.25,7.64
	c3.57,3.47,3.59,3.5,7.05-0.41c0.87-0.98,2.23-1.61,2.38-3.17C139.89,126.43,133.58,120.25,132.95,120.18z M235.04,221.19
	c0.27-0.22,0.52-0.43,0.79-0.63c5.48-4.1,5.62-5.93,0.8-10.68c-0.48-0.48-1.04-0.88-1.48-1.4c-0.8-0.97-1.32-1.01-2.35-0.05
	c-5.59,5.27-5.64,5.23-0.33,10.63C233.25,219.86,233.85,220.9,235.04,221.19z M305.55,293.11c1.08-1.79,1.4-2.56,1.92-3.14
	c4.62-5.09,4.45-4.9-0.12-9.9c-2.32-2.53-3.51-1.85-5.32,0.34c-3.48,4.23-3.52,4.11,0.46,8.18
	C303.51,289.62,304.17,291.03,305.55,293.11z"/>
<path class="st2" d="M149.02,164.81c0.07,3.3,0.34,5.88-0.46,8.37c-0.85,2.68-2.6,3.78-5.17,2.96c-4.01-1.26-6.87-4.22-9.42-7.52
	c-0.99-1.28-0.32-2.33,0.63-3.35c10.96-11.84,18.84-25.99,27.4-39.65c1.77-2.83-0.47-3.76-1.68-5.1c-2.58-2.85-3.27-6.55-1.58-9.84
	c1.58-3.07,3.55-3.57,6.22-1.41c3.1,2.52,5.8,5.52,8.19,8.73c7.06,9.46,15.27,17.63,24.54,24.65c1.62,1.23,2.17,2.6,2.15,4.67
	c-0.18,17.29,2.76,34.17,6.69,50.86c1.03,4.37,3.13,8.45,4.68,12.69c1.31,3.6,2.69,7.18,3.16,11.05c0.71,5.88-1.54,8.09-6.9,6.33
	c-6.57-2.16-12.51-5.55-17.14-11.08c-6.14-7.33-10.43-15.68-12.47-25.22c-0.48-2.26-1.39-3.99-3.09-5.53
	c-6.32-5.73-12.45-11.71-19.15-16.97C153.66,167.95,151.59,166.62,149.02,164.81z M170.48,128.51c-0.99,0.04-1.08,0.7-1.35,1.17
	c-4.88,8.61-9.71,17.24-14.67,25.8c-0.92,1.59-1.01,2.31,0.64,3.46c4.98,3.5,9.81,7.25,14.68,10.93c2.17,1.65,4.28,3.4,6.8,5.4
	C174.49,159.3,172.5,143.97,170.48,128.51z"/>
<path class="st2" d="M104.17,59.8c-8.08-2.98-14.37-0.53-18.34,6.97c-6.67,12.62-5.12,30.83,3.57,41.92
	c6.28,8,14.84,7.79,19.56-0.51c1.24-2.18,2.04-4.25,0.02-6.67c-1.56-1.87-1.76-4.37-0.2-6.49c1.79-2.44,4.36-3.15,7.18-2.76
	c2.58,0.36,3.29,2.55,3.78,4.75c1.41,6.35-0.8,11.73-4.45,16.57c-14.93,19.77-42.62,16.04-52.01-7.18
	c-6.68-16.52-6.47-33.11,2.36-48.74c6.99-12.37,18.21-16.85,31.47-14.87c11.44,1.7,18.68,9.2,22.32,20.53
	c1.3,4.05,1.59,8.23,0.36,12.39c-1.2,4.02-4.1,6.62-7.63,6.82c-3.9,0.22-6.68-1.83-8.33-5.32C101.13,71.53,101.2,65.76,104.17,59.8z
	"/>
<path class="st2" d="M278.32,296.51c-0.5-0.13-1.5-0.29-2.42-0.66c-10.34-4.18-19.91-9.81-28.73-16.85
	c-2.59-2.07-3.31-4.91-3.38-7.97c-0.06-2.41,1.37-4.01,3.74-4.04c1.81-0.03,2.42-0.5,2.46-2.54c0.32-18.19,0.76-36.37,1.17-54.56
	c0.14-6.06,0.26-12.12,0.44-18.18c0.06-1.84-0.12-4.17,1.76-4.93c2.09-0.85,3.42,1.23,4.66,2.65c2.47,2.84,4.85,5.79,7.21,8.74
	c2.96,3.68,6.61,6.17,11.04,7.48c3,0.88,5.98,1.87,8.62,3.69c2.97,2.05,3.16,4.45-0.03,5.62c-4.36,1.6-4.46,4.65-4.56,8.57
	c-0.52,19.46-1.25,38.91-2.03,58.36c-0.08,1.9,0.35,3.02,1.83,4.01c1.73,1.16,3.02,2.8,3.49,4.95
	C284.26,293.92,282.1,296.44,278.32,296.51z"/>
<path class="st2" d="M132.95,120.18c0.63,0.07,6.94,6.25,6.9,6.71c-0.15,1.55-1.51,2.19-2.38,3.17c-3.46,3.91-3.49,3.89-7.05,0.41
	c-3.81-3.71-3.82-3.72-0.25-7.64C131.05,121.85,131.79,120.65,132.95,120.18z"/>
<path class="st2" d="M235.04,221.19c-1.18-0.29-1.79-1.34-2.57-2.12c-5.32-5.4-5.27-5.37,0.33-10.63c1.02-0.96,1.55-0.92,2.35,0.05
	c0.43,0.52,0.99,0.92,1.48,1.4c4.82,4.75,4.68,6.58-0.8,10.68C235.56,220.76,235.31,220.98,235.04,221.19z"/>
<path class="st2" d="M305.55,293.11c-1.38-2.08-2.04-3.49-3.05-4.52c-3.98-4.06-3.94-3.95-0.46-8.18c1.81-2.2,3-2.87,5.32-0.34
	c4.57,5,4.74,4.81,0.12,9.9C306.95,290.54,306.64,291.31,305.55,293.11z"/>
<path class="st1" d="M170.48,128.51c2.01,15.46,4.01,30.79,6.09,46.76c-2.51-2-4.62-3.75-6.8-5.4c-4.86-3.69-9.69-7.43-14.68-10.93
	c-1.64-1.15-1.56-1.87-0.64-3.46c4.96-8.55,9.79-17.19,14.67-25.8C169.4,129.21,169.5,128.55,170.48,128.51z"/>
</svg>
