<?xml version="1.0" encoding="utf-8"?>
<!-- Generator: Adobe Illustrator 23.1.0, SVG Export Plug-In . SVG Version: 6.00 Build 0)  -->
<svg version="1.1" id="Capa_1" xmlns="http://www.w3.org/2000/svg" xmlns:xlink="http://www.w3.org/1999/xlink" x="0px" y="0px"
	 viewBox="0 0 400 400" style="enable-background:new 0 0 400 400;" xml:space="preserve">
<style type="text/css">
	.st0{fill:#FBFBFB;}
	.st1{fill:#212121;}
	.st2{fill:#4E4E4E;}
	.st3{fill:#525252;}
	.st4{fill:#505050;}
	.st5{fill:#535353;}
	.st6{fill:#4A4A4A;}
	.st7{fill:#161616;}
	.st8{fill:#4F4F4F;}
	.st9{fill:#262626;}
	.st10{fill:#565656;}
	.st11{fill:#4C4C4C;}
	.st12{fill:#343434;}
	.st13{fill:#454545;}
	.st14{fill:#494949;}
	.st15{fill:#292929;}
	.st16{fill:#888888;}
	.st17{fill:#232323;}
	.st18{fill:#131313;}
	.st19{fill:#1A1A1A;}
	.st20{fill:#0D0D0D;}
	.st21{fill:#141414;}
	.st22{fill:#3E3E3E;}
	.st23{fill:#404040;}
	.st24{fill:#424242;}
	.st25{fill:#474747;}
	.st26{fill:#464646;}
	.st27{fill:#434343;}
	.st28{fill:#2B2B2B;}
	.st29{fill:#272727;}
	.st30{fill:#1D1D1D;}
	.st31{fill:#111111;}
	.st32{fill:#1B1B1B;}
	.st33{fill:#191919;}
	.st34{fill:#3D3D3D;}
	.st35{fill:#363636;}
	.st36{fill:#383838;}
	.st37{fill:#080808;}
	.st38{fill:#353535;}
	.st39{fill:#2C2C2C;}
	.st40{fill:#2A2A2A;}
	.st41{fill:#1F1F1F;}
	.st42{fill:#2D2D2D;}
	.st43{fill:#323232;}
	.st44{fill:#2F2F2F;}
	.st45{fill:#242424;}
	.st46{fill:#151515;}
	.st47{fill:#1C1C1C;}
	.st48{fill:#3F3F3F;}
	.st49{fill:#010101;}
	.st50{fill:#030303;}
	.st51{fill:#202020;}
	.st52{fill:#040404;}
	.st53{fill:#EAEAEA;}
	.st54{fill:#EEEEEE;}
	.st55{fill:#F4F4F4;}
	.st56{fill:#E3E3E3;}
	.st57{fill:#121212;}
	.st58{fill:#171717;}
	.st59{fill:#0F0F0F;}
	.st60{fill:#0C0C0C;}
	.st61{fill:#DBDBDB;}
	.st62{fill:#070707;}
	.st63{fill:#393939;}
	.st64{fill:#0E0E0E;}
	.st65{fill:#DFDFDF;}
	.st66{fill:#333333;}
	.st67{fill:#101010;}
	.st68{fill:#2E2E2E;}
	.st69{fill:#1E1E1E;}
	.st70{fill:#D1D1D1;}
	.st71{fill:#828282;}
	.st72{fill:#222222;}
	.st73{fill:#D0D0D0;}
	.st74{fill:#727272;}
	.st75{fill:#6C6C6C;}
	.st76{fill:#949494;}
	.st77{fill:#636363;}
	.st78{fill:#757575;}
	.st79{fill:#606060;}
	.st80{fill:#8A8A8A;}
	.st81{fill:#7A7A7A;}
	.st82{fill:#686868;}
	.st83{fill:#797979;}
	.st84{fill:#717171;}
	.st85{fill:#5B5B5B;}
	.st86{fill:#9C9C9C;}
	.st87{fill:#909090;}
	.st88{fill:#8F8F8F;}
	.st89{fill:#A3A3A3;}
	.st90{fill:#656565;}
	.st91{fill:#5F5F5F;}
	.st92{fill:#848484;}
	.st93{fill:#4B4B4B;}
	.st94{fill:#9B9B9B;}
	.st95{fill:#808080;}
	.st96{fill:#7E7E7E;}
	.st97{fill:#414141;}
	.st98{fill:#696969;}
	.st99{fill:#787878;}
	.st100{fill:#5D5D5D;}
	.st101{fill:#545454;}
	.st102{fill:#616161;}
	.st103{fill:#373737;}
	.st104{fill:#737373;}
	.st105{fill:#4D4D4D;}
	.st106{fill:#060606;}
	.st107{fill:#676767;}
	.st108{fill:#5E5E5E;}
	.st109{fill:#6D6D6D;}
	.st110{fill:#767676;}
	.st111{fill:#6F6F6F;}
	.st112{fill:#7C7C7C;}
	.st113{fill:#E0D2D0;}
	.st114{fill:#E5D4D1;}
	.st115{fill:#D4D4D4;}
	.st116{fill:#D6D6D6;}
	.st117{fill:#E5D5D2;}
	.st118{fill:#CECECE;}
	.st119{fill:#E6E6E6;}
	.st120{fill:#484848;}
	.st121{fill:#F8F8F8;}
	.st122{fill:#F6F6F6;}
	.st123{fill:#FC0002;}
	.st124{fill:#ECDDDA;}
	.st125{fill:#FAFAFA;}
	.st126{fill:#E5E5E5;}
	.st127{fill:#D3D3D3;}
	.st128{fill:#C8C8C8;}
	.st129{fill:#F7D8D6;}
	.st130{fill:#F3CEC9;}
	.st131{fill:#CF2121;}
	.st132{fill:#ECAEA0;}
</style>
<path class="st0" d="M140.21,11.55c1.74-0.35,4.4,1.15,4.6-2.31c1.53,0,3.06,0,4.6,0c5.09,1.29,4.78,5.3,4.6,9.24
	c-2.04-0.15-2.3,1.19-2.3,2.76c0.01,2.93,0,5.86,0,8.79c-3.44,0.2-1.95,2.87-2.3,4.62c-0.2,3.81,1.01,7.78-2.54,11.27
	c2.97,0,4.76,0,6.69,0c-0.7-3.15-3.74-5.86-0.7-8.96c1.15,0,2.29,0,3.44,0c1.59,0.06,2.36-0.71,2.3-2.31c2,0.2,4.77-1.02,4.65,2.86
	c-0.03,1.13,0.83,2.03,2.24,1.76c1.42,4.31,4.24,1.88,7.56,1.58c-3.03-1.56-5.29-2.72-7.56-3.89c0.37-3.58-0.97-6.03-4.6-6.93
	c1.12-2.94-1.97-4.47-2.3-6.93c0.24-0.63,0.46-1.79,0.72-1.8c4.96-0.2,8.82-3.17,13.07-5.13c3.09,0.02,1.96,2.41,2.33,4.05
	c0.41,1.86-1.52,4.82,2.27,5.2c0.29,4.63-0.66,9.38,0.64,13.86c1.75,0,2.85,0,3.96,0c3.69,0,7.39,0,10.67,0
	c1.19-2.18,1.01-3.49-0.3-4.6c-2.77,3.91-6.87,1.71-10.37,2.29c0-3.72,0-7.44,0-10.73c2.57-1.67,5.27,0.35,6.87-1.95
	c0.42-1.77-0.72-3.77,0.89-5.54c2.63,3.5,6.69,1.19,9.83,2.43c3.29,2.18,2.92,6.95,6.51,8.79c2-3.18,5.2-2.11,8.07-2.24
	c4.3,0.95,1.92,3.93,4.05,8.49c-2.21,0.55-4.43,1.1-6.64,1.65c2.01,1.22,3.09,1.33,4.17,1.4c1.14,0.08,2.24-0.02,2.97-1.12
	c0.31-4.31-0.95-8.95,2.35-12.73c3.63-0.91,4.97-3.35,4.6-6.93c2.19-0.46,3.48-1.85,4.53-4.62c-2.55,0-4.69,0-6.83,0
	c-1.18-2.77-3.94-5.22-1.35-9.24c1.7,0,3.82,0,5.94,0c1.53,0,3.06,0,4.6,0c0.28,2.26,2.06,3.26,4.03,4.67
	c0.66-3.2,3.12-2.23,5.16-2.36c0.77,0,1.53,0,2.3,0c0.28,1.41-0.68,3.04,1.39,4.78c1.16-2,4.75,2.33,5.5-2.47c2.3,0,4.6,0,6.9,0
	c-0.26,1.45,0.62,2.2,1.81,2.28c6.99,0.45,12.75,4.19,18.88,6.96c1.53,0,3.06,0,4.6,0c0.2,3.46,2.85,1.96,4.6,2.31
	c0.2,3.46,2.85,1.96,4.6,2.31c0.2,3.46,2.85,1.96,4.6,2.31c2.08,5.24,6.77,6.11,11.49,6.93c0.9,3.65,3.33,4.99,6.9,4.62
	c2.02,3.71,4.15,7.28,9.19,6.93c-0.06,1.6,0.71,2.37,2.3,2.31c8.25,10.19,17.44,19.43,27.58,27.72c-0.06,1.6,0.71,2.37,2.3,2.31
	c-0.35,5.07,3.2,7.21,6.9,9.24c-0.37,3.58,0.97,6.03,4.6,6.93c2.09,5.95,2.94,12.61,9.19,16.17c0.35,1.75-1.14,4.42,2.3,4.62
	c-0.39,6.55,2.74,11.58,6.9,16.17c0.88,2.27-2.13,5.85,2.3,6.93c0,2.31,0,4.62,0,6.93c0.35,1.75-1.14,4.42,2.3,4.62
	c0,1.54,0,3.08,0,4.62c0.35,1.75-1.14,4.42,2.3,4.62c0,0.77,0,1.54,0,2.31c0,1.54,0,3.08,0,4.62c0.51,3.99-1.52,6.05-5.17,6.94
	c-1.13,0.28-1.99,0.9-1.73,2.3c-1.53-0.77-3.06-1.54-4.6-2.31c-6.46-4.22-12.5-2.61-18.39,1.3c0,1.11,0,2.22,0,3.32
	c-3.3,3.77-3.3,7.78,0,11.55c-0.06,1.6,0.71,2.37,2.3,2.31c2.33,3.02,5.27,4.8,9.19,4.62c6.59-0.71,6.69,4.23,7.43,8.67
	c2.61,0.49,4.82,1.73,6.29,4c1.73,2.67,5.31-0.32,6.97,2.4c0,1.91,0,3.82,0,5.73c0,3.08,0,6.16,0,9.24c0,0.77,0,1.54,0,2.31
	c-4.14-0.21-6.72,1.39-6.95,5.4c0.99,2.57,5.04,0.2,4.66,3.84c0,3.85,0,7.7,0,11.55c-3.44,0.2-1.95,2.87-2.3,4.62
	c-3.44,0.2-1.95,2.87-2.3,4.62c0,2.31,0,4.62,0,6.93c-1.41-0.26-1.92,0.63-2.3,1.77c-2.93,8.65-7.05,16.71-11.11,24.87
	c-1.94,3.9-5.58,7.58-4.97,12.64c-3.8,3.29-8.24,10-9.19,13.86c-3.69,2.03-7.24,4.17-6.9,9.24c-10.14,8.29-19.33,17.53-27.58,27.72
	c-1.59-0.06-2.36,0.71-2.3,2.31c-6.67,2.02-12.56,5.11-16.09,11.55c-4.72,0.82-9.41,1.69-11.49,6.93c-1.74,0.35-4.4-1.15-4.6,2.31
	c-1.74,0.35-4.4-1.15-4.6,2.31c-1.74,0.35-4.4-1.15-4.6,2.31c-4.53-0.22-8.8,0.21-11.49,4.62c-5.16-0.17-9.91,0.93-13.79,4.62
	c-2.3,0-4.6,0-6.9,0c-1.74,0.35-4.4-1.15-4.6,2.31c-0.77,0-1.53,0-2.3,0c-4.06-0.38-7.27,3.5-11.49,2.31c-2.3,0-4.6,0-6.9,0
	c-2.17-0.29-4.48,0.68-6.69-0.86c0-0.94,0-1.98,0-2.94c6.71-2.47,14.15-3.17,18.18-10.06c2.17-0.29,4.49,0.69,6.59-0.8
	c-3.09-2.76-1.12-7.3-3.39-9.75c2.31-5.88,3.55,3.89,5.96,0.11c0-0.8,0-1.56,0-2.29c-1.63-2.36-4.39-0.17-6.09-1.52
	c-0.94-1.99-1.82-3.85-2.73-5.77c0.38-0.89,2.87-1.37,0.78-3.08c-1.92,0-3.82,0-5.72,0c-1.74,0.35-4.4-1.15-4.6,2.31
	c-4.4,0-8.79,0-13.79,0c0,3.43,0,6.33,0,9.24c0,2.17-0.01,4.35,0,6.52c0.01,1.58-0.31,2.86-2.3,2.72c-2.81,0.46-3.76,3.31-5.91,4.62
	c-1.86,0-3.72,0-5.58,0c0.88-2.27-2.13-5.85,2.3-6.93c0,0.37-0.15,0.88,0.03,1.07c0.39,0.4,0.95,0.63,2.56,1.61
	c-0.81-4.45,0.55-8.21-1.01-12.01c-2.63,0.94-0.23,5.09-3.87,4.71c-0.77,0-1.53,0-2.3,0c0-2.31,0-4.62,0-6.93c2.93,0,5.86,0,8.5,0
	c0.96,1.96,0.58,3.47,1.79,4.68c1.02,1.02,1.96-1.97,0.99-0.99c0-1.69,0-3.48,0-5.99c-3.87,0-7.57,0-11.27,0
	c-2.17,0.29-4.48-0.67-6.52,0.74c4.3,7.01,0.12,15.19,2.71,22.36c2.32,0,4.22,0,6.11,0c3.06,0,6.13,0,9.19,0
	c3.02,3.4,2.24,7.56,2.3,11.55c-12.26,0-24.52,0-36.77,0c0.26-1.37-0.63-2.32-1.68-2.25c-5.75,0.39-11.3-0.4-16.71-2.38
	c-0.77,0-1.53,0-2.3,0c-3.38-3.04-7.52-2.25-11.49-2.31c-3.89-3.69-8.63-4.79-13.79-4.62c-4.57-4.18-9.57-7.33-16.09-6.93
	c-0.2-3.46-2.85-1.96-4.6-2.31c-0.37-2.47-2.16-3.73-4.18-4.59c-6.25-2.67-11.81-6.39-16.88-10.86c-1.38-1.22-2.83-0.43-4.22-0.71
	c-2.02-3.71-4.15-7.28-9.19-6.93c0.06-1.6-0.71-2.37-2.3-2.31c-6.7-8.66-14.36-16.36-22.98-23.1c0.06-1.6-0.71-2.37-2.3-2.31
	c0.35-5.07-3.2-7.21-6.9-9.24c0.37-3.58-0.97-6.03-4.6-6.93c0.37-3.58-0.97-6.03-4.6-6.93c-3.07-10.01-7.65-19.26-13.79-27.72
	c0-1.54,0-3.08,0-4.62c-0.35-1.75,1.14-4.42-2.3-4.62c0-0.77,0-1.54,0-2.31c-0.35-1.75,1.14-4.42-2.3-4.62c0-0.77,0-1.54,0-2.31
	s0-1.54,0-2.31c-0.18-2.27,1.4-2.26,2.94-2.33c2.18,1.47,3.62,3.13,4.41,5.96c0.66,2.35,3.31,4.11,6.44,3.3
	c3.69-0.48,1.13,3.99,3.25,4.45c6.11-4.22,13.2-5.43,19.73-7.69c0-2.18,0-4.09,0-6c3.33-0.64,4.35-4.06,6.59-5.53
	c-2.21-5.25-5.8-9.36-10.19-12.81c-1.35,1.36-2.71,2.72-4.46,4.48c-6.76,0-13.93,0-19.8,0c-4.41,1.45-3.34,5.85-6.04,6.92
	c-0.78,0-1.41,0.15-1.51-0.02c-0.89-1.5-1.69-3.06-2.51-4.6c-1.17,0-2.32,0-3.46,0c0-1.54,0-3.08,0-4.62
	c1.13-2.76,3.97-5.16,1.37-9.24c-0.96,0-2.31,0-3.67,0c0-2.31,0-4.62,0-6.93c0-13.09,0-26.18,0-39.28c0-1.54,0-3.08,0-4.62
	c1.7-0.07,3.33,0.25,4.86-1.28c1.75-1.75,3.72-1.98,4.33,1.28c0,2.93,0,5.86,0,8.79c0,1.57,0.26,2.91,2.3,2.76
	c7.59,8.44,9.54,8.75,20.69,3.37c0-1.12,0-2.25,0-3.37c1.59,0.06,2.36-0.71,2.3-2.31c3.75-4.19,3.57-4.92-2.3-9.24
	c0-0.77,0-1.54,0-2.31c-0.26-1.41,0.59-2.13,1.74-2.27c1.54-0.18,3.02-0.19,2.85-2.35c0-1.54,0-3.08,0-4.62
	c2.13,0.16,2.27-1.28,2.3-2.85c0.05-2.77-0.58-5.73,2.42-8.03c-2.14-0.52-2.37-3.22-4.72-2.99c0.19-1.11-0.32-1.81-1.37-2.05
	c-0.18-0.04-0.72,0.5-0.68,0.68c0.24,1.06,0.93,1.57,2.04,1.37c0.01,3.65,0.01,7.29,0.01,11.56c-2.64,0-4.77,0-6.9,0
	c-5.59,0.41-10.29-2.3-15.16-4.39c-2,1.79-4.12,3.51-3.23,6.7c-2.95,0.09-6.09-0.74-8.39,2.14c-0.34-0.9-0.57-1.52-0.8-2.14
	c0-2.31,0-4.62,0-6.93c3.44-0.2,1.95-2.87,2.3-4.62c0-1.54,0-3.08,0-4.62c3.44-0.2,1.95-2.87,2.3-4.62c0-1.54,0-3.08,0-4.62
	c0.65-0.27,1.82-0.46,1.87-0.81c1.14-7.87,4.45-14.99,8.23-21.76c1.47-2.64,1.05-4.97,1.39-7.46c2.46-0.38,3.71-2.17,4.57-4.2
	c2.65-6.28,6.36-11.87,10.81-16.97c1.21-1.39,0.43-2.84,0.71-4.24c3.63-0.91,4.97-3.35,4.6-6.93c1.59,0.06,2.36-0.71,2.3-2.31
	c10.14-8.29,19.33-17.53,27.58-27.72c1.59,0.06,2.36-0.71,2.3-2.31c5.05,0.35,7.17-3.22,9.19-6.93c3.57,0.37,5.99-0.97,6.9-4.62
	c4.72-0.82,9.41-1.69,11.49-6.93c1.74-0.35,4.4,1.15,4.6-2.31c1.74-0.35,4.4,1.15,4.6-2.31c1.74-0.35,4.4,1.15,4.6-2.31
	c1.53,0,3.06,0,4.6,0c1.59,0.06,2.36-0.71,2.3-2.31c1.74-0.35,4.4,1.15,4.6-2.31c1.53,0,3.06,0,4.6,0c1.74-0.35,4.4,1.15,4.6-2.31
	C138.68,11.55,139.45,11.55,140.21,11.55z M280.42,57.76c-0.77,0-1.53,0-2.3,0c-0.2-3.46-2.85-1.96-4.6-2.31
	c0.06-1.6-0.71-2.37-2.3-2.31c2.4-3,2.08-8.06,6.85-8.85c-0.19,2.71,2.6,1.55,3.98,2.32c1.52,0.85-0.59,3.93,2.39,3.77
	c1.24-1.82,4.01-2.79,2.3-6.1c-2.72,0-5.67,0-8.63-0.39c0.1-7.73,0.52-8.29,6.9-9.24c0.2,3.46,2.85,1.96,4.22,1.05
	c0.78,2.74-0.68,4.8,1.74,5.7c1.54-1.6,1.34-3.07-1.37-4.44c-0.2-3.46-2.85-1.96-4.6-2.31c-0.37-3.97-5.09-1.34-5.91-4.28
	c-3.99,7.56-6.66,15.53-12.28,21.8c1.4,1.63,3,0.69,4.39,0.96c-0.06,1.6,0.71,2.37,2.3,2.31c0.2,3.46,2.85,1.96,4.6,2.31
	c-0.06,1.6,0.71,2.37,2.3,2.31c1.59,0.06,2.36-0.71,2.31-2.32c1.1,0.2,1.8-0.31,2.04-1.37c0.04-0.18-0.5-0.72-0.68-0.68
	c-1.05,0.24-1.56,0.94-1.37,2.06C281.95,57.76,281.18,57.76,280.42,57.76z M310.3,83.17c-0.06,1.6,0.71,2.37,2.3,2.31
	c0.77,0,1.53,0,2.3,0c2.91,3.13,6.29,3.13,9.19,0c4.04-1.59,5.98-5.59,9.19-7.95c0-2.86,0-5.54,0-8.22
	c-0.56-2.52-2.09-4.06-4.6-4.62c-0.76-2.68-2.3-4.86-5.26-4.51c-2.12,0.25-5.5-2.23-6.24,2.2c-6.12-1.03-6.35,4.74-9.19,8.58
	c1.37,2.7-2.34,7.1,2.3,9.9C310.3,81.63,310.3,82.4,310.3,83.17z M365.45,117.84c-1.1-0.2-1.8,0.31-2.04,1.37
	c-0.04,0.18,0.5,0.72,0.68,0.68c1.05-0.24,1.56-0.94,1.37-2.06c1.59,0.06,2.36-0.71,2.3-2.31c-0.56-2.52-2.09-4.06-4.6-4.62
	c-0.35-1.75,1.14-4.42-2.3-4.62c0.54-4.02-1.63-5.99-5.81-7.29c-0.94,1.28-1.99,2.73-3.09,4.24c1.47,2.21,5.02-0.81,6.6,2
	c0,1.12,0,2.24,0,3.37c-5.68,4.19-11.91,7.39-18.74,10.27c1.39,1.16,2.52,2.1,3.86,3.22c5.24-5.48,12.96-7.25,19.48-11.18
	c0.35,1.75-1.14,4.42,2.3,4.62C365.46,116.29,365.46,117.06,365.45,117.84z M87.35,328.06c1.59,0.06,2.36-0.71,2.3-2.31
	c1.59,0.06,2.36-0.71,2.3-2.31c0.64-0.25,1.74-0.4,1.82-0.78c0.31-1.38-0.71-1.61-1.83-1.54c0.2-1.11-0.31-1.81-1.36-2.05
	c-0.18-0.04-0.72,0.5-0.68,0.68c0.24,1.06,0.93,1.57,2.05,1.38c0,0.77,0,1.54,0,2.31c-1.59-0.06-2.36,0.71-2.3,2.31
	C88.06,325.69,87.29,326.46,87.35,328.06c-1.59-0.06-2.36,0.71-2.3,2.31c-3.69-0.32-2.81-3.95-2.13-4.9
	c3.12-4.3,1.82-9.02,2.09-14.68c0.52,2.64,3.55-0.27,4.25,1.81c0.64,1.33-0.03,3.15,1.99,4c1.43-0.71,3.53,0.84,5.83-1.93
	c-4.74,0.88-4.79-3.09-6.89-5.2c-1.66,0.49-3.75-0.7-5.16,2.41c-0.77,0-1.53,0-2.3,0c-2.19-3.96-5.26-7.04-9.19-9.24
	c-0.35-1.75,1.14-4.42-2.3-4.62c0.11-2.34-2.31-2.81-3.19-4.46c-3.87,7.36-11.2,10.49-16.11,13.94c0.62,1.51,1.37,3.34,1.85,4.53
	c4.82-0.41,5.89-6.32,10.25-4.87c0.88,1.53-0.77,3.65,1.65,4.52c0.86-1.31,2.74-1.88,2.78-4.2c-1.41-0.1-2.77-0.2-4.13-0.23
	c1.36-3.25,3.66-5.56,6.9-6.93c-0.06,1.6,0.71,2.37,2.3,2.31c0,2.62-0.06,5.25,0.06,7.86c0.02,0.4,0.87,0.76,1.27,1.09
	c0.81-0.66,1.55-1.26,2.27-1.85c3.73,3.3-1.85,4.32-1.3,6.76c-1.59-0.06-2.36,0.71-2.3,2.31c-1.59-0.06-2.36,0.71-2.3,2.31
	c-1.59-0.06-2.36,0.71-2.3,2.31c-1.64,0.33-3.94-1.07-4.78,2.58c0.47,1.56,2.01,2.96,3.86,4.13c1.08-2.25,2.15-4.48,3.22-6.71
	c0-0.77,0-1.54,0-2.31c1.59,0.06,2.36-0.71,2.3-2.31c1.59,0.06,2.36-0.71,2.3-2.31c1.59-0.06,2.36,0.71,2.3,2.31
	c0.19,6.12-0.39,12.29,0.61,20.51c2.21-4.79,5.7-5.67,6.29-8.96C86.64,330.43,87.41,329.66,87.35,328.06z M57.46,316.5
	c0.2-1.11-0.31-1.81-1.36-2.05c-0.18-0.04-0.72,0.5-0.68,0.68c0.24,1.06,0.93,1.57,2.05,1.38c-0.06,1.6,0.71,2.37,6.73,3.69
	c-0.42-0.48-1.09-1.37-1.18-1.31c-1.01,0.63-3.53-1.39-3.05,0.97c0.38,1.86,2.64,1.78-0.2-1.03
	C59.83,317.22,59.06,316.45,57.46,316.5z M333.28,304.96c0.06-1.6-0.71-2.37-2.3-2.31c2.18-2.73,2.58-5.9,2.3-9.24
	c5.61,0.11,8.66,4.86,12.93,7.38c4.49,2.65,4.53,2.88,9.76-1.76c-6.4-3.61-13.67-5.98-18.09-12.4c2.29-1.24,4.52-2.45,6.94-3.77
	c-2.63-1.46-4.88-1.94-6.94,0.28c0,1.15,0,2.24,0,3.34c-3.9,0.72-2.23,5.18-4.6,6.93c-4.12,1.62-6.04,5.48-10.69,9.24
	c4.14,0,6.26,0,8.39,0C330.92,304.25,331.69,305.02,333.28,304.96c-0.06,1.6,0.71,2.37,2.3,2.31c0.18,2.27-1.4,2.3-2.96,2.31
	c-4.91,0.01-9.81,0-14.36,0c-1.35,1.45-2.32,2.5-3.3,3.55c3.68-1.48,4,3.54,6.83,3.39c-0.06,1.6,0.71,2.37,1.97,2.42
	c2.37,4.22,7.26,6.26,8.32,11.8c1.7-2.41,3.89-3.09,3.17-7.58c-0.17-0.66-3.42,0.88-4.67-1.15c-1.37-2.23-3.39-4.05-6.48-3.18
	c0.06-1.6-0.71-2.37-2.3-2.31c0.03-3.17,2.44-2.19,4.1-2.29c5.51-0.32,11.1,0.52,17.49-0.64c-3.46-2.27-4.48-5.68-7.8-6.31
	C335.64,305.67,334.87,304.9,333.28,304.96z M45.98,124.76c0.2,3.46,2.85,1.96,4.6,2.31c0,3.08,0,6.16-0.09,9.47
	c-9.36,5.84-16.47-2.18-24.64-4.25c-0.94,0.83-0.52,1.95-0.39,3.04c6.61,3.52,13.43,6.45,20.48,8.12c2.75-1.39,4.93-2.75,4.63-7.13
	c3.11-2.92,3.11-6.32,0-9.24C50.38,123.61,47.72,125.1,45.98,124.76c-0.2-3.46-2.85-1.96-4.6-2.31c-0.2-3.46-2.85-1.96-4.58-2.23
	c-0.36-2.31-1.99-3.42-3.89-4.5c-0.88,1.25-1.12,2.49,0.09,4.22c1.07,0.08,2.42,0.18,3.79,0.2c0.2,3.46,2.85,1.96,4.6,2.31
	C41.58,125.9,44.24,124.41,45.98,124.76z M130.09,48.68c-0.48,0.43-1.36,1.1-1.31,1.18c0.62,1.02-1.38,3.55,0.96,3.07
	c1.85-0.38,1.77-2.65-1.03,0.2c-1.59-0.06-2.36,0.71-2.3,2.31c-3.06,0-6.13,0-9.19,0c-2.22,0.1-3.11-1.84-4.15-3.13
	c-3.63-4.55-2.65-10.08-2.75-15.35c1.59,0.06,2.36-0.71,1.31-2.29c4.97-0.02,9.08-0.69,12.54,2.23c0.25,0.21,1.24-0.47,2.22-0.87
	c-2.03-2.02-3.95-3.93-6-5.97c-1.59,3.87-5.79,0.93-7.78,4.6c-1.59-0.06-2.36,0.71-2.3,2.31c-3.69,1.14-2.75,5.16-4.71,7.25
	c3.34,4.54,2.54,11.67,9.31,13.54c-0.17,2.17,1.3,2.28,2.86,2.31c3.75,0.08,6.65-1.4,8.63-4.63
	C128.01,55.51,128.78,54.74,130.09,48.68z M45.98,300.34c-0.35-1.75,1.14-4.42-2.71-4.21c3.99-8.1,12.54-8.95,18.84-13.47
	c-3.43-0.64-1.06-4.49-3.36-5.16c-6.72,4.11-13.26,8.11-20.34,12.43c3.7,1.13,1.99,4.58,5.26,5.78c0.35,1.75-1.14,4.42,2.65,4.91
	c2.65,2.15,2.65,2.15,6.47,0C50.19,300.62,48.08,300.62,45.98,300.34z M121.83,341.92c-0.06,1.6,0.71,2.37,2.26,2.22
	c0.57,2.32-1.22,5.01,1.35,6.93c1-2.1,1.97-4.11,3.15-6.58c-1.7-0.13-3.08-0.24-4.46-0.26
	C124.18,342.64,123.42,341.87,121.83,341.92c-2.31-3.17-4.58-3.17-6.9,0c-4.63,2.83-0.94,7.22-2.97,11.31
	c2.16,1.36,4.07,2.55,5.97,3.75c3.14,3.05-5.96,3.29-1.52,5.74c6.42-4.01,6.32-3.98,3.95-9.61c-1.5-3.57-4-6.92-3.14-11.18
	C118.76,341.92,120.29,341.92,121.83,341.92z M333.28,103.96c0,0.75-0.1,1.52,0.03,2.25c0.11,0.67,0.34,1.77,0.73,1.87
	c1.42,0.38,1.61-0.69,1.54-1.81c1.99,0.14,2.31-1.14,2.3-2.72c-0.01-2.17,0-4.35,0-6.52c3.26-1.47,4.82,2.88,7.3,2.41
	c5.72-2.67,3.93-7.49,4.19-11.65c0.06-1.6-0.71-2.37-2.3-2.31c0.12-2.33-2.29-2.79-3.27-4.64c-6.85,5.56-15.55,8.76-20.48,16.72
	c2.09,1.58,2.75,3.46,4.71,3.64c0.55-1.36,0.75-2.99,1.67-3.89c1.82-1.77,3.02-4.38,5.88-4.89c0,1.54,0,3.08,0,4.62
	C336.7,99.98,333.61,101.51,333.28,103.96z M268.92,355.79c0,1.54,0,3.08,0,4.62c-2.48-1.34-5.45-2.18-7.33-4.11
	c-3.44-3.54-6.98-3.28-10.84-2.16c0.22,1.82,2.52,2.04,2.07,3.96c-0.22,4.55,0.21,8.85,4.41,10.19c0.49,3.55-0.52,5.89,1.55,8.72
	c1.11-1.41,2.13-2.7,3.14-3.97c-1.21-1.22-2.28-2.31-4.5-3.38c-0.09-2.96,0.73-6.12-2.13-8.43c0.9-0.34,1.52-0.57,2.13-0.81
	c5.75,3.14,11.51,6.29,18.77,10.26c-2.15-4.42-3.56-7.34-4.98-10.26c-0.35-1.75,1.14-4.42-2.69-4.17c0-3.42,0-6.39,0-11.35
	c-2.08,2.63-3.1,3.92-4.18,5.28C267.29,351.11,265.7,354.53,268.92,355.79z M103.44,71.62c0-0.77,0-1.54,0-2.31
	c1.4,0.26,2.21-0.61,2.25-1.75c0.13-3.72,0.05-7.45,0.05-11.34c-2.73-1.34-3.64-4.79-6.9-5.39c0.26-1.41-0.61-2.21-1.75-2.26
	c-2.95-0.14-5.92-0.05-9.08-0.05c-0.48,2.01-3.19,2.23-2.96,4.62c-3.67,1.16-2.78,5.16-4.7,7.26c0.87,2.13,2.22,3.57,2.65,5.92
	c0.81,4.39,3.6,7.89,8.95,7.61c-0.17,2.17,1.3,2.28,2.86,2.31C98.55,76.33,101.45,74.84,103.44,71.62z M370.06,263.37
	c-1.49,0.36-3.51-0.98-4.48,1.65c2.54,0.23,5.36,2.66,6.78-1.65c3.6-1.22,3.15-4.97,4.48-7.57c0.38-0.73-0.79-1.94-2.19-1.67
	c-1.06-4.01-3.98-4.91-7.62-4.62c-3.31,1.72-4.62,5.9-8.47,6.93c-1.64-0.34-3.97,1.09-4.6-1.8c0.07-4.55,4.49-4.23,6.94-6.31
	c-2.11-1.05-4.17-2.08-6.24-3.11c-0.63,1.53-1.06,2.9-1.73,4.14c-1.85,3.41-2.52,6.61,1.04,9.39c1.9,4.88,5.65,1.27,8.18,2.01
	c3.54-2.41,4.92-7.53,10.21-6.63C372.63,257.48,372.23,260.65,370.06,263.37z M73.57,69.32c-0.2,1.11,0.31,1.81,1.36,2.05
	c0.18,0.04,0.72-0.5,0.68-0.68c-0.24-1.06-0.93-1.57-2.05-1.38c0.12-2.31-2.27-2.78-2.89-3.94c-2.79,2.67-5.64,5.41-8.56,8.2
	c0.51,1.63-1.47,4.59,2.25,4.98c-0.26,1.42,0.62,2.25,1.75,2.26c5.34,0.03,10.8,0.87,15.16-2.48c2.68,2.26,4.61,4.05,3.78,6.98
	c-1.63,0.85-3.1,1.93-4.76,2.42c-2.07,0.61-4.47-0.7-6.99,1.34c1.36,1.22,2.64,2.37,4.15,3.72c2.62-1.3,5.12-2.54,7.59-3.77
	c0-1.25,0-2.39,0-3.53c2.69-4.31,2.69-4.31-0.94-8.79c-6.4-2.26-11.56,2.49-17.45,1.86c0.37-1.87-1.7-2.23-2.16-3.6
	C69.22,70.21,69.22,70.21,73.57,69.32z M45.98,97.03c-1.59-0.06-2.36,0.71-2.3,2.31c-2.51,0.56-4.04,2.1-4.6,4.62
	c0.36,1.87-1.69,2.24-2.36,4.11c9.2,0.51,14.25,8.72,22.19,11.84c0.85-1.6,3.26-2.07,3.15-4.4c3.9-0.72,2.23-5.18,4.6-6.93
	c0.35-5.69-3.83-7.44-7.5-9.65c-1.27,1.16-2.09,1.9-2.92,2.65c-1.53-2.01-1.51-5.31-4.09-6.28C50.05,94.53,47.01,92.85,45.98,97.03z
	 M376.96,143.25c-0.2,1.11,0.31,1.81,1.36,2.05c0.18,0.04,0.72-0.5,0.68-0.68c-0.24-1.06-0.93-1.57-16.78,12.28
	c3.14-7.34,13.67-8.6,14.01-18c-5.15,6.95-13.84,9.51-19.16,16.15c-0.67,0.83-1.02,1.11,0.32,1.85
	C358.8,156.9,360.58,156.9,376.96,143.25z M301.09,43.89c0.2-1.11-0.31-1.81-1.36-2.05c-0.18-0.04-0.72,0.5-0.68,0.68
	c0.24,1.06,0.93,1.57,2.05,1.38c-2.71,7.85-10,12.73-12.42,18.34c0.81,2.35,1.28,3.72,2.09,6.05c1.54-5.94,4.21-8.75,8.03-10.53
	c1.28,3.61,5.11,2.99,7.76,5.04c2.19-2.2,4.26-4.28,5.98-6.01c0.34-4.29-0.57-7.21-4.55-8.27
	C307.28,44.59,302.84,46.28,301.09,43.89z M34.41,280.49c0.24-4.74-0.86-8.7,2.28-11.98c-4.04-1.35-5.09,1.27-6.69,3.24
	c3.74,1.55,0.86,5.78,4.48,7.8c5.88,3.52,7.8,3.3,11.5-1.32c0-3.03,0-6.06,0.01-9.09c1.49-1.68,3.48-3.04,4.65-5.43
	c-4.24-0.73-7.06-0.39-9.2,3.4c0,2.63,0,5.95,0,7.9C39.58,278.87,37.4,279.98,34.41,280.49z M365.46,279.55
	c-3.33,0.28-6.48-0.12-9.19-2.31c0.38-4.8,5.6-0.32,7.29-4.98c-4.11,2.65-4.83-2.83-8.61-1.87c-2.16,0.43,0.45,4.99-3.28,4.53
	c-2.89-0.22-3.54-3.55-6.01-4.36c-1.27,1.73-0.95,4.36-3.14,5.57c6.6,3.32,13.2,6.63,19.86,9.98c1.84-1.65,3.98-3.37,3.47-5.48
	c1.78-3.29,3.22-5.94,4.46-8.24c-1.37-1.9-2.39-3.31-4.46-6.18C365.85,272.06,365.85,275.8,365.46,279.55z M103.44,330.37
	c-2.75-4.67-7.14-0.93-10.17-2.5c-5.36,5.55-11.74,10.25-5.92,18.67c0.56,2.52,2.09,4.06,4.6,4.62c2.2-0.5,2.52,2.95,4.61,2.16
	c9.29-2.1,15.15-6.86,13.55-17.46c-1.57-0.84-2.03-3.29-4.37-3.18C105.8,331.08,105.03,330.31,103.44,330.37z M321.5,337.89
	c-5.05-0.19-4.75-5.42-7.67-7.62c-3.02-2.28-5.87-5.01-6.49-8.25c-2.27,1.7-4.32,3.23-6.54,4.88c7.87,4.16,8.59,4.99,15.26,17.53
	c1.74-2.1,3.41-4.11-1.27-13.76c1.52-0.88,3.63,0.78,4.5-1.65c-1.3-0.86-1.87-2.75-4.18-2.79C315.01,327.64,314.91,329,321.5,337.89
	z M280.42,341.92c-3.17-0.9-4.89,1.23-6.67,3.24c3.01,7.01,8.58,12.58,9.94,19.36c3.47,1.24,3.7-2.36,5.93-1.81
	c2.51-0.56,4.04-2.1,4.6-4.62c3.58-1.31,3.02-5.14,4.73-7.45c-2.64-4.13-4.33-8.71-9-11.13
	C287.02,340.94,282.62,336.79,280.42,341.92z M376.95,224.1c0.39-1.87-1.73-2.23-2.47-4.7c1.37-0.82,3.24-1.93,5.35-3.19
	c-2.71-2.47-5.54-0.1-7.02-1.99c-1.33-2.02,0.92-4.75-1.8-6.15c-0.98,5.72-5.19,7.29-10.13,7.25c0.82,2.71,2.98,1.16,4.18,2.69
	c1.63,2.34-1.04,5.79,1.42,8.32c2.09-3.15,5.28-2.11,8.16-2.23c0.25,0.64,0.4,1.75,0.78,1.83
	C376.8,226.25,377.03,225.22,376.95,224.1z M181.58,362.72c-3.34-4.75-7.55-1.38-11.36-2.13c-0.49,8.05,1.19,15.38-3.32,22.93
	c5.05,0,8.72,0,12.39,0c5.16,0.79,6.6-3.68,9.03-5.91c0-4.34,0-8.05,0-10.67C186.66,363.31,184.45,362.31,181.58,362.72z
	 M264.33,25.41c-0.72-3.92-5.15-2.24-6.9-4.62c-3.01-0.1-6.17,0.67-8.73-2.7c-0.71,9.35-3.85,16.78-6.89,24.25
	c-0.54,1.33,0.71,1.62,1.83,1.55c7.76,4.7,9.44,5.2,15.29,4.18c0.36-0.06,0.53-1.22,0.79-1.86c3.32-0.63,4.33-4.04,6.82-5.67
	C266.42,35.39,267.88,30.03,264.33,25.41z M55.17,200.84c0.28,9.5-1.49,20.62,2.4,31.1c3.1,8.35,4.18,17.23,8.48,25.36
	c6.77,12.81,11.7,26.66,22.94,36.61c5,11.75,16.36,17.28,25.45,24.53c8.45,6.74,18.34,12.15,28.75,16.29
	c16.24,6.45,33.03,10.2,50.27,11.68c13.32,1.14,26.46-1.29,39.45-4.42c11.11-2.68,21.92-5.91,32.2-11.11
	c10.82-5.48,20.29-12.58,29.72-20.16c4.98-4,10.81-7.7,13.8-12.83c3.21-5.49,7.9-9.55,11.36-14.72c5.67-8.47,9.19-17.86,14.25-26.5
	c6.12-10.45,7.1-22.48,10.28-33.8c1.97-7.02-1.61-15.02,2.46-22.11c0.48-0.83,0.44-2.76-0.14-3.28c-3.52-3.12-2.19-7.19-1.97-10.73
	c0.71-11.3-3.34-21.61-6.16-32.14c-2.77-10.37-7.18-20.13-12.9-29.25c-5.64-9-11.17-18.13-18.72-25.66
	c-15.62-15.59-33.28-27.81-53.93-36.32c-12.89-5.31-26.15-8.37-39.48-9.76c-11.29-1.17-22.95-1.17-34.72,1.32
	c-11.32,2.4-22.17,4.99-33.08,9.13c-8.81,3.35-17.07,7.46-24.7,12.43c-8.26,5.38-16.52,11.06-23.59,18.22
	c-12.19,12.36-21.19,26.64-28.9,42.24c-8.75,17.71-14.04,35.81-13.55,55.58C55.22,194.84,55.17,197.15,55.17,200.84z M20.66,215.97
	c1.72,1.73,3.06,3.07,4.4,4.42c-0.61,1.8-3.77,2.93-0.92,6.06c2.9-4.83,6.27-1.97,9.61-0.44c1.92-2.62-0.47-5.97,1.56-8.52
	c1.19-0.61,2.96,0.14,3.99-2.45c-4.73,0.24-9.18-0.24-9.71-6.19c-0.09-1.04-1.01-1.08-1.54-0.23c-1.37,1.84,0.75,4.57-1.46,6.13
	C24.75,215.33,22.75,214.02,20.66,215.97z M151.19,360.57c1.27,7.29,3.94,13.2,9.54,18.16c-3.74-4.66,5.05-6.91,1.55-11.47
	c-0.97,0.87-1.78,1.59-2.6,2.32c-4.21-3.76-1.19-12.09-9.01-14.12c-1.23,1.2-2.48,2.41-3.46,3.36
	C148.08,360.97,149.41,360.21,151.19,360.57z M309.97,348.03c-2.48-7.58-10.75-11.57-11.64-19.36c-1.81,2.13-3.59,4.22-5.39,6.34
	c0.57,0.71,2.64-0.54,3.77,1.95c2.22,4.89,5.16,9.56,9.2,13.35c0.79,0.74,1.11,1.04,1.64,0.15
	C308.36,349.64,309.17,348.84,309.97,348.03z M138.73,351.26c-3.44,6.96-3.53,14.92-10.41,19.77c3.07,1.09,5.16,1.61,8.55-1.25
	c2.05-5.05,4.73-11.64,7.52-18.52C142.36,351.26,140.88,351.26,138.73,351.26z M349.46,139.96c2.15-3.27,5.66-5.32,9.14-5.77
	c5.56-0.72,9.25-4.43,13.26-5.7c0.85-2.51,0.01-3.17-1.46-3.99c-6.87,3.51-14,7.15-20.94,10.7
	C349.46,136.98,349.46,138.47,349.46,139.96z M138.2,51.01c2.12-1.69,3.27-2.62,3.76-3.01c-1.77-8.2-7.57-14.31-6.63-22.74
	c-1.94,0.31-3.21-0.35-4.35,1.67C131.41,34.99,138.25,41.69,138.2,51.01z M368.19,157.49c4.31,1.34,8.75,2.76,12.99,0
	C376.85,157.49,372.52,157.49,368.19,157.49z M245.84,377.74c2.4,1.82,4.7,1.82,7.01,0.06c-0.38-1.83,0.69-3.79-1.28-6.04
	C250.48,374.67,249.31,377.49,245.84,377.74z M163.99,358.35c-1.22,2.43-1.17,4.48,0.46,7.05c1.15-2.84,1.98-4.88,2.93-7.21
	C165.9,358.26,164.89,358.3,163.99,358.35z M248.45,360.56c-0.36-2.35,0.26-3.58-1.02-4.4c-2.01-0.32-4.16-1.21-6.05,0.72
	C243.42,357.95,245.43,359,248.45,360.56z M346.95,263.81c0.27,1.76-0.35,2.99,0.88,3.77c2.03-1,4.08-2.01,6.17-3.03
	C352.13,262.47,349.95,263.49,346.95,263.81z M103.18,356.69c4.07,1.26,6.14,0.8,4.76-1.71
	C106.55,355.48,104.86,356.09,103.18,356.69z M54.03,267.68c-1.67,2.95-1.47,5.01,0.01,7.54C55.58,272.48,55.58,270.44,54.03,267.68
	z M144.47,372.61c-1.6,0.87-3.09,1.68-5.31,2.88C143.77,377.2,145.53,376.78,144.47,372.61z M315.04,317.61
	c-2.12-1.42-3.59-2.13-4.47,0.42C312,319.18,313.28,319.26,315.04,317.61z M327.53,330.39c-1.07,0.76-1.07,1.53,0,2.29
	C328.61,331.91,328.61,331.14,327.53,330.39z"/>
<path class="st1" d="M225.25,395.06c2.3,0,4.6,0,6.9,0c0,0.77,0,1.54,0,2.31c-3.87-1.11-6.25,3.53-10.42,2.47
	c-3.2-0.81-6.76-0.16-10.15-0.16c-10.95,0-21.9,0.03-32.85-0.03c-1.66-0.01-4.02,0.83-4.04-2.28c12.26,0,24.52,0,36.77,0
	c3.67,0,7.34,0,11.01,0C224.04,397.37,225.41,397.14,225.25,395.06z"/>
<path class="st2" d="M370.06,302.65c-0.61-5.06,3.03-8.75,4.97-12.64c4.06-8.16,8.19-16.22,11.11-24.87
	c0.38-1.13,0.89-2.03,2.3-1.77c0.28,3.34-1.17,6.2-2.11,9.3c-3.08,10.22-8.92,18.99-13.61,28.36
	C372.3,301.9,371.48,303.01,370.06,302.65z"/>
<path class="st3" d="M326.39,353.48c8.25-10.19,17.44-19.43,27.58-27.72c-0.3,1.41,0.59,2.93-0.76,4.28
	c-7.57,7.51-15.09,15.07-22.56,22.68C329.3,354.07,327.79,353.17,326.39,353.48z"/>
<path class="st4" d="M73.56,46.21C65.31,56.4,56.12,65.64,45.98,73.93c0.3-1.41-0.59-2.93,0.76-4.28
	c7.57-7.51,15.09-15.07,22.56-22.68C70.64,45.61,72.16,46.51,73.56,46.21z"/>
<path class="st5" d="M353.97,73.93c-10.14-8.29-19.33-17.53-27.58-27.72c1.4,0.3,2.92-0.6,4.26,0.77
	c7.47,7.61,14.99,15.17,22.56,22.68C354.56,71,353.67,72.52,353.97,73.93z"/>
<path class="st5" d="M48.28,328.06c8.62,6.74,16.28,14.44,22.98,23.1c0,0.77,0,1.54,0,2.31c-8.41-5.98-14.64-14.25-22.2-21.13
	C47.63,331.05,48.58,329.48,48.28,328.06z"/>
<path class="st6" d="M22.99,108.58c-0.34,2.49,0.08,4.82-1.39,7.46c-3.78,6.77-7.09,13.89-8.23,21.76
	c-0.05,0.36-1.22,0.55-1.87,0.81c-0.77,0-1.53,0-2.3,0c3.83-9.42,6.69-19.23,11.46-28.27C21.22,109.31,21.57,108.32,22.99,108.58z"
	/>
<path class="st7" d="M397.64,177.89c3.09,0.02,2.26,2.38,2.27,4.05c0.06,11.74,0.03,23.48,0.03,35.23c-1.59,0.06-2.36-0.71-2.3-2.31
	C397.64,202.54,397.64,190.21,397.64,177.89z"/>
<path class="st4" d="M39.08,83.17c-0.28,1.4,0.5,2.85-0.71,4.24c-4.45,5.1-8.15,10.69-10.81,16.97c-0.86,2.03-2.12,3.83-4.57,4.2
	C25.7,98.41,30.57,89.63,39.08,83.17z"/>
<path class="st8" d="M82.75,360.41c1.39,0.29,2.84-0.5,4.22,0.71c5.07,4.47,10.63,8.2,16.88,10.86c2.02,0.86,3.81,2.13,4.18,4.59
	C97.92,373.86,89.18,368.96,82.75,360.41z"/>
<path class="st2" d="M16.1,274.93c6.14,8.46,10.73,17.71,13.79,27.72c-2.29,0.09-3.47-1.88-4.23-3.27c-3.17-5.85-5.79-12-8.89-17.9
	C15.6,279.25,16.49,277.08,16.1,274.93z"/>
<path class="st9" d="M2.31,219.48c-1.44,0.26-2.25-0.63-2.26-1.82c-0.07-11.88-0.07-23.76,0-35.64c0.01-1.18,0.81-2.08,2.26-1.82
	C2.31,193.3,2.31,206.39,2.31,219.48z"/>
<path class="st10" d="M278.12,18.48c-6.12-2.77-11.89-6.52-18.88-6.96c-1.19-0.08-2.07-0.82-1.81-2.28c0-0.77,0-1.54,0-2.31
	c6.29,2.31,12.58,4.64,18.88,6.92c1.14,0.41,2.06,0.87,1.8,2.32C278.12,16.94,278.12,17.71,278.12,18.48z"/>
<path class="st4" d="M308,367.34c3.52-6.44,9.42-9.54,16.09-11.55C320.56,362.22,314.66,365.32,308,367.34z"/>
<path class="st11" d="M376.95,108.58c-6.25-3.56-7.1-10.22-9.19-16.17C374.01,95.97,374.86,102.63,376.95,108.58z"/>
<ellipse class="st8" cx="199.97" cy="1.16" rx="16.25" ry="1.63"/>
<path class="st12" d="M393.04,164.03c0-1.54,0-3.08,0-4.62c0.77,0,1.53,0,2.3,0c1.21,2.6,2.9,4.9,2.41,8.21
	c-0.5,3.36-0.11,6.84-0.11,10.27c-0.77,0-1.53,0-2.3,0c0-1.54,0-3.08,0-4.62c0-2.17-0.01-4.35,0-6.52
	C395.35,165.17,395.03,163.89,393.04,164.03z"/>
<path class="st13" d="M386.14,129.38c-4.15-4.59-7.29-9.62-6.9-16.17C383.4,117.8,386.54,122.83,386.14,129.38z"/>
<path class="st8" d="M360.86,316.51c0.95-3.86,5.4-10.57,9.19-13.86C369.55,308.99,366.35,313.52,360.86,316.51z"/>
<path class="st14" d="M112.63,378.89c6.52-0.4,11.52,2.75,16.09,6.93C122.2,386.22,117.2,383.07,112.63,378.89z"/>
<path class="st15" d="M156.3,392.75c5.4,1.98,10.95,2.76,16.71,2.38c1.05-0.07,1.94,0.87,1.68,2.25c-3.41,0-6.88-0.39-10.22,0.11
	c-3.29,0.49-5.57-1.2-8.17-2.42C156.3,394.29,156.3,393.52,156.3,392.75z"/>
<path class="st16" d="M397.64,214.86c-0.06,1.6,0.71,2.37,2.3,2.31c0,2.17-0.01,4.35,0,6.52c0.01,1.58-0.31,2.86-2.3,2.72
	c0.06-1.6-0.71-2.37-2.3-2.31c0-3.08,0-6.16,0-9.24C396.1,214.86,396.87,214.86,397.64,214.86z"/>
<path class="st17" d="M156.3,4.62c4.93-3.81,10.68-1.85,16.09-2.31c0,0.77,0,1.54,0,2.31c-1.53,0-3.06,0-4.6,0
	c-2.26,0.88-5.82-2.14-6.9,2.31c-1.53,0-3.06,0-4.6,0C156.3,6.16,156.3,5.39,156.3,4.62z"/>
<path class="st18" d="M4.61,175.58c0,1.54,0,3.08,0,4.62c-0.77,0-1.53,0-2.3,0c0-4.45,0-8.9,0-13.35c0-1.57,0.2-2.98,2.3-2.82
	C4.61,167.88,4.61,171.73,4.61,175.58z"/>
<path class="st19" d="M188.48,0c0,0.77,0,1.54,0,2.31c-1.53,0-3.06,0-4.6,0c-3.83,0-7.66,0-11.49,0C172.23,0.2,173.63,0,175.19,0
	C179.62,0,184.05,0,188.48,0z"/>
<path class="st13" d="M308,32.34c-4.72-0.82-9.41-1.69-11.49-6.93C301.23,26.23,305.91,27.11,308,32.34z"/>
<path class="st20" d="M211.46,2.31c0-0.77,0-1.54,0-2.31c4.43,0,8.86,0,13.29,0c1.56,0,2.96,0.2,2.8,2.31c-4.6,0-9.19,0-13.79,0
	C213,2.31,212.23,2.31,211.46,2.31z"/>
<path class="st21" d="M4.61,219.48c0,2.31,0,4.62,0,6.93c0,3.08,0,6.16,0,9.24c-2.1,0.16-2.3-1.25-2.3-2.82c0-4.45,0-8.9,0-13.35
	C3.07,219.48,3.84,219.48,4.61,219.48z"/>
<path class="st22" d="M257.43,390.44c3.88-3.69,8.63-4.79,13.79-4.62C267.95,391.35,262.52,390.37,257.43,390.44z"/>
<path class="st23" d="M128.72,385.82c5.16-0.17,9.91,0.93,13.79,4.62C137.43,390.37,132,391.35,128.72,385.82z"/>
<path class="st24" d="M103.44,25.41c-2.08,5.24-6.77,6.11-11.49,6.93C94.03,27.11,98.72,26.23,103.44,25.41z"/>
<path class="st4" d="M296.51,374.27c2.08-5.24,6.77-6.11,11.49-6.93C305.91,372.58,301.23,373.45,296.51,374.27z"/>
<path class="st14" d="M363.16,85.48c-3.69-2.03-7.24-4.17-6.9-9.24C359.96,78.27,363.51,80.41,363.16,85.48z"/>
<path class="st13" d="M85.05,36.97c-2.02,3.71-4.15,7.28-9.19,6.93C77.88,40.19,80,36.62,85.05,36.97z"/>
<path class="st25" d="M39.08,316.51c3.69,2.03,7.24,4.17,6.9,9.24C42.29,323.72,38.74,321.58,39.08,316.51z"/>
<path class="st26" d="M353.97,325.75c-0.35-5.07,3.2-7.21,6.9-9.24C361.21,321.58,357.66,323.72,353.97,325.75z"/>
<path class="st25" d="M73.56,353.48c5.05-0.35,7.17,3.22,9.19,6.93C77.71,360.75,75.58,357.19,73.56,353.48z"/>
<path class="st19" d="M232.15,4.62c-1.53,0-3.06,0-4.6,0c0-0.77,0-1.54,0-2.31c3.67,0,7.34,0,11.01,0c1.57,0,2.93,0.23,2.78,2.31
	C238.28,4.62,235.21,4.62,232.15,4.62z"/>
<path class="st27" d="M271.22,385.82c2.69-4.41,6.96-4.84,11.49-4.62C280.03,385.61,275.75,386.04,271.22,385.82z"/>
<path class="st28" d="M142.51,390.44c3.97,0.06,8.11-0.73,11.49,2.31c0,0.77,0,1.54,0,2.31C150.8,394.58,144,391.85,142.51,390.44z"
	/>
<path class="st1" d="M232.15,397.37c0-0.77,0-1.54,0-2.31c4.22,1.19,7.43-2.69,11.49-2.31c0,0.77,0,1.54,0,2.31
	C240.26,398.1,236.12,397.31,232.15,397.37z"/>
<path class="st26" d="M324.09,43.9c-5.05,0.35-7.17-3.22-9.19-6.93C319.94,36.62,322.07,40.19,324.09,43.9z"/>
<path class="st29" d="M11.5,254.13c0,0.77,0,1.54,0,2.31c-0.77,0-1.53,0-2.3,0c-1.99,0.14-2.31-1.14-2.3-2.72
	c0.01-2.17,0-4.35,0-6.52c2.18-0.17,2.21,1.33,2.32,2.9C9.34,251.77,8.43,254.12,11.5,254.13z"/>
<path class="st30" d="M6.9,157.1c0,2.31,0,4.62,0,6.93c-0.77,0-1.53,0-2.3,0c0-2.93,0-5.86,0-8.79c0-1.57,0.26-2.91,2.3-2.76
	C6.9,154.02,6.9,155.56,6.9,157.1z"/>
<path class="st31" d="M395.34,224.1c1.59-0.06,2.36,0.71,2.3,2.31c0,2.17-0.01,4.35,0,6.52c0.01,1.58-0.31,2.86-2.3,2.72
	c0-3.08,0-6.16,0-9.24C395.34,225.64,395.34,224.87,395.34,224.1z"/>
<path class="st32" d="M6.9,235.65c0,1.54,0,3.08,0,4.62c0,2.31,0,4.62,0,6.93c-2.04,0.15-2.3-1.19-2.3-2.76c0.01-2.93,0-5.86,0-8.79
	C5.37,235.65,6.14,235.65,6.9,235.65z"/>
<path class="st33" d="M393.04,247.2c0-3.85,0-7.7,0-11.55c0.77,0,1.53,0,2.3,0c0,2.93,0,5.86,0,8.79
	C395.34,246.02,395.08,247.35,393.04,247.2z"/>
<path class="st25" d="M43.68,76.24c0.37,3.58-0.97,6.03-4.6,6.93C38.71,79.59,40.05,77.15,43.68,76.24z"/>
<path d="M390.74,251.82c0.35-1.75-1.14-4.42,2.3-4.62c0,2.17-0.01,4.35,0,6.52c0.01,1.58-0.31,2.86-2.3,2.72
	C390.74,254.9,390.74,253.36,390.74,251.82z"/>
<path class="st34" d="M367.76,92.41c-3.63-0.91-4.97-3.35-4.6-6.93C366.79,86.39,368.13,88.83,367.76,92.41z"/>
<path class="st35" d="M91.95,32.34c-0.9,3.65-3.33,4.99-6.9,4.62C85.95,33.32,88.38,31.97,91.95,32.34z"/>
<path class="st20" d="M9.2,147.86c0,1.54,0,3.08,0,4.62c-0.77,0-1.53,0-2.3,0c0-2.17,0.01-4.35,0-6.52
	c-0.01-1.58,0.31-2.86,2.3-2.72C9.2,144.78,9.2,146.32,9.2,147.86z"/>
<path class="st6" d="M34.49,309.58c3.63,0.91,4.97,3.35,4.6,6.93C35.45,315.61,34.12,313.17,34.49,309.58z"/>
<path class="st6" d="M29.89,302.65c3.63,0.91,4.97,3.35,4.6,6.93C30.86,308.68,29.52,306.23,29.89,302.65z"/>
<path class="st17" d="M243.64,6.93c-0.77,0-1.53,0-2.3,0c0-0.77,0-1.54,0-2.31c2.16,0,4.33,0.01,6.49,0
	c1.57-0.01,2.84,0.31,2.7,2.31C248.24,6.93,245.94,6.93,243.64,6.93z"/>
<path class="st36" d="M314.89,36.97c-3.57,0.37-5.99-0.97-6.9-4.62C311.56,31.97,313.99,33.32,314.89,36.97z"/>
<path class="st37" d="M390.74,152.48c0-1.54,0-3.08,0-4.62s0-3.08,0-4.62c1.99-0.14,2.31,1.14,2.3,2.72c-0.01,2.17,0,4.35,0,6.52
	C392.27,152.48,391.51,152.48,390.74,152.48z"/>
<path class="st38" d="M388.44,136.31c-4.43-1.08-1.42-4.66-2.3-6.93C390.57,130.46,387.57,134.03,388.44,136.31z"/>
<path class="st12" d="M388.44,143.24c0-2.31,0-4.62,0-6.93c4.43,1.08,1.42,4.66,2.3,6.93C389.97,143.24,389.21,143.24,388.44,143.24
	z"/>
<path class="st19" d="M395.34,159.41c-0.77,0-1.53,0-2.3,0c0-0.77,0-1.54,0-2.31c0-1.54,0-3.08,0-4.62
	C397.47,153.56,394.46,157.14,395.34,159.41z"/>
<ellipse cx="253.99" cy="8.09" rx="4.88" ry="1.63"/>
<path class="st37" d="M156.3,4.62c0,0.77,0,1.54,0,2.31c-2.3,0-4.6,0-6.9,0C150.48,2.48,154.04,5.5,156.3,4.62z"/>
<path class="st18" d="M140.21,11.55c-0.77,0-1.53,0-2.3,0c-1.53,0-3.06,0-4.6,0C135.63,8.39,137.9,8.39,140.21,11.55z"/>
<path d="M128.72,13.86c-0.2,3.46-2.85,1.96-4.6,2.31c-0.77,0-1.53,0-2.3,0C122.9,11.72,126.46,14.74,128.72,13.86z"/>
<path class="st18" d="M13.8,263.37c0,0.77,0,1.54,0,2.31c0,1.54,0,3.08,0,4.62c-4.43-1.08-1.42-4.66-2.3-6.93
	C12.27,263.37,13.03,263.37,13.8,263.37z"/>
<path class="st39" d="M388.44,263.37c0-2.31,0-4.62,0-6.93c0.77,0,1.53,0,2.3,0C389.87,258.72,392.87,262.29,388.44,263.37z"/>
<path class="st20" d="M9.2,256.44c0.77,0,1.53,0,2.3,0c0,0.77,0,1.54,0,2.31c0,1.54,0,3.08,0,4.62
	C7.07,262.29,10.08,258.72,9.2,256.44z"/>
<path class="st40" d="M250.54,390.44c2.3,0,4.6,0,6.9,0c-1.08,4.45-4.63,1.43-6.9,2.31C250.54,391.98,250.54,391.21,250.54,390.44z"
	/>
<path d="M149.41,9.24c-1.53,0-3.06,0-4.6,0c-0.64-0.26-1.29-0.52-2.42-0.98c2.25-2.12,4.79-1.03,7.01-1.33
	C149.41,7.7,149.41,8.47,149.41,9.24z"/>
<path class="st41" d="M243.64,395.06c0-0.77,0-1.54,0-2.31c0.77,0,1.53,0,2.3,0c1.53,0,3.06,0,4.6,0
	C249.46,397.2,245.9,394.18,243.64,395.06z"/>
<path class="st40" d="M296.51,25.41c-1.74-0.35-4.4,1.15-4.6-2.31C293.65,23.45,296.31,21.96,296.51,25.41z"/>
<path class="st9" d="M379.25,113.2c-3.44-0.2-1.95-2.87-2.3-4.62C380.39,108.78,378.9,111.45,379.25,113.2z"/>
<ellipse class="st32" cx="10.35" cy="140.93" rx="1.63" ry="3.27"/>
<path class="st42" d="M108.04,23.1c-0.2,3.46-2.85,1.96-4.6,2.31C103.63,21.96,106.29,23.45,108.04,23.1z"/>
<path class="st20" d="M16.1,270.31c0,1.54,0,3.08,0,4.62c-3.44-0.2-1.95-2.87-2.3-4.62C14.57,270.31,15.33,270.31,16.1,270.31z"/>
<path class="st43" d="M291.91,376.58c0.2-3.46,2.85-1.96,4.6-2.31C296.31,377.72,293.65,376.23,291.91,376.58z"/>
<path class="st44" d="M108.04,376.58c1.74,0.35,4.4-1.15,4.6,2.31C110.89,378.54,108.23,380.04,108.04,376.58z"/>
<path class="st15" d="M287.31,378.89c0.2-3.46,2.85-1.96,4.6-2.31C291.71,380.04,289.05,378.54,287.31,378.89z"/>
<path class="st20" d="M133.32,13.86c-1.53,0-3.06,0-4.6,0c0.2-3.46,2.85-1.96,4.6-2.31C133.32,12.32,133.32,13.09,133.32,13.86z"/>
<path class="st45" d="M282.72,381.2c0.2-3.46,2.85-1.96,4.6-2.31C287.12,382.35,284.46,380.85,282.72,381.2z"/>
<path class="st46" d="M121.83,18.48c-1.53,0-3.06,0-4.6,0c0.2-3.46,2.85-1.96,4.6-2.31C121.83,16.94,121.83,17.71,121.83,18.48z"/>
<path class="st19" d="M278.12,18.48c0-0.77,0-1.54,0-2.31c1.74,0.35,4.4-1.15,4.6,2.31C281.18,18.48,279.65,18.48,278.12,18.48z"/>
<path class="st47" d="M117.23,18.48c-0.2,3.46-2.85,1.96-4.6,2.31C112.83,17.34,115.49,18.83,117.23,18.48z"/>
<path class="st48" d="M287.31,20.79c-1.74-0.35-4.4,1.15-4.6-2.31C284.46,18.83,287.12,17.34,287.31,20.79z"/>
<path class="st29" d="M112.63,20.79c-0.2,3.46-2.85,1.96-4.6,2.31C108.23,19.65,110.89,21.14,112.63,20.79z"/>
<path class="st48" d="M291.91,23.1c-1.74-0.35-4.4,1.15-4.6-2.31C289.05,21.14,291.71,19.65,291.91,23.1z"/>
<path d="M71.26,353.48c0-0.77,0-1.54,0-2.31c1.59-0.06,2.36,0.71,2.3,2.31C72.79,353.48,72.03,353.48,71.26,353.48z"/>
<path class="st49" d="M326.39,46.21c-1.59,0.06-2.36-0.71-2.3-2.31C325.68,43.84,326.44,44.61,326.39,46.21z"/>
<path d="M75.86,43.9c0.06,1.6-0.71,2.37-2.3,2.31C73.5,44.61,74.27,43.84,75.86,43.9z"/>
<path d="M45.98,325.75c1.59-0.06,2.36,0.71,2.3,2.31C46.69,328.12,45.92,327.35,45.98,325.75z"/>
<path class="st50" d="M356.26,76.24c-1.59,0.06-2.36-0.71-2.3-2.31C355.56,73.87,356.32,74.64,356.26,76.24z"/>
<path class="st25" d="M45.98,73.93c0.06,1.6-0.71,2.37-2.3,2.31C43.62,74.64,44.39,73.87,45.98,73.93z"/>
<ellipse class="st51" cx="155.15" cy="393.91" rx="1.63" ry="1.63"/>
<path class="st52" d="M324.09,355.79c-0.06-1.6,0.71-2.37,2.3-2.31C326.44,355.07,325.68,355.85,324.09,355.79z"/>
<path d="M55.17,200.84c0-3.69,0.05-6-0.01-8.31c-0.49-19.77,4.8-37.87,13.55-55.58c7.71-15.6,16.71-29.88,28.9-42.24
	c7.07-7.17,15.33-12.85,23.59-18.22c7.64-4.97,15.89-9.08,24.7-12.43c10.91-4.14,21.76-6.73,33.08-9.13
	c11.77-2.5,23.43-2.5,34.72-1.32c13.33,1.38,26.59,4.45,39.48,9.76c20.65,8.51,38.31,20.73,53.93,36.32
	c7.55,7.53,13.08,16.67,18.72,25.66c5.72,9.12,10.13,18.89,12.9,29.25c2.81,10.53,6.87,20.84,6.16,32.14
	c-0.22,3.54-1.55,7.61,1.97,10.73c0.59,0.52,0.62,2.45,0.14,3.28c-4.08,7.09-0.49,15.09-2.46,22.11
	c-3.18,11.32-4.16,23.35-10.28,33.8c-5.06,8.64-8.58,18.03-14.25,26.5c-3.46,5.17-8.15,9.23-11.36,14.72
	c-2.99,5.12-8.83,8.83-13.8,12.83c-9.43,7.58-18.91,14.68-29.72,20.16c-10.28,5.2-21.09,8.43-32.2,11.11
	c-12.99,3.13-26.13,5.57-39.45,4.42c-17.24-1.48-34.04-5.23-50.27-11.68c-10.41-4.14-20.3-9.55-28.75-16.29
	C105.36,311.19,94,305.66,89,293.91c-11.24-9.95-16.17-23.79-22.94-36.61c-4.29-8.12-5.38-17-8.48-25.36
	C53.69,221.46,55.45,210.34,55.17,200.84z M275.82,122.45c-1.74,0.35-4.4-1.15-4.6,2.31c-2.65,0-6.26-1.11-7.76,0.21
	c-4.48,3.95-9.4,1.23-13.98,2.1c-3.27-5.11-8.83-1.79-13.3-3.48c-10.62-4.02-20.23-9.05-28.03-17.29c-1.75-1.85-3.48-2.68-5.88-2.33
	c-0.42-3.84-3.45-1.69-5.61-2.44c-12.1,13.81-28.24,21.21-45.69,24.82c-18.15,3.76-34.84-3.49-52.49-11.86
	c2.2,8.41-3.1,14.6-1.93,21.82c0,15.4,0,30.8,0,46.21c-0.26,6.72,3.77,12.91,2.42,19.76c4.96,12.57,7.56,25.96,13.59,38.19
	c6.88,13.98,14.34,27.77,24.75,39.19c11.71,12.85,23.36,26.03,37.8,36.08c8.3,5.77,15.63,13.01,25.58,17.18
	c9.37-6.31,18.99-12.66,28.48-19.21c12.56-8.68,22.46-20.28,33.06-31.07c4.32-4.4,7.64-9.81,11.29-14.86
	c8.21-11.37,14.02-24.1,19.46-36.9c3.37-7.92,6.13-16.32,5.84-25.26c1.43,0.26,2.19-0.62,2.25-1.8c0.14-2.66-0.65-5.58,0.16-7.96
	c3.61-10.56,2.3-21.73,4.45-32.45c1.88-9.4-3.24-18.26-2.3-27.63c0.71-7.04-0.63-13.79-3.42-20.26c-1.18,0-2.31,0-3.45,0
	c-1.4-0.3-3.11,0.77-4.22-0.8c-2.48-3.49-6.52-4.34-9.92-6.14c-2.23,1.21-4.39,2.38-6.54,3.56
	C275.82,115.58,275.82,119.01,275.82,122.45z"/>
<path class="st0" d="M227.55,2.31c0,0.77,0,1.54,0,2.31c-2.12,0-4.24,0-5.94,0c-2.6,4.02,0.17,6.47,1.35,9.24
	c0.77,1.54,1.53,3.08,2.3,4.62c-3.63,0.91-4.97,3.35-4.6,6.93c-1.13,0-2.27,0-3.95,0c-1.21-3.78-3.6-7.31-3.4-12.26
	c-2.58,1.34-4.65-0.24-6.06,1.43c0.5,5.32,6.98,7.44,6.51,13.14c-2.87,0.13-6.07-0.94-8.07,2.24c-3.6-1.84-3.22-6.61-6.51-8.79
	c-3.14-1.24-7.2,1.07-9.83-2.43c-1.61,1.77-0.46,3.77-0.89,5.54c-1.6,2.31-4.3,0.28-6.87,1.95c0,3.29,0,7.01,0,10.73
	c-2.13,0.16-2.3-1.28-2.3-2.85c0-5.98,0-11.96,0-17.94c0.64-0.25,1.74-0.4,1.82-0.78c0.31-1.38-0.71-1.61-1.82-1.53
	c0-2.88,0-5.76,0-9.24c-2.66,0-4.78,0-6.9,0c0-0.77,0-1.54,0-2.31c3.83,0,7.66,0,11.49,0c-0.85,3.7,2.6,5.84,3.07,8.59
	c3.82,2.09,7.44,3.99,11.53,2.77c1.87,1.73,3.56,3.29,5.74,5.31c0.31-3.25,0.48-5.07,0.65-6.79c8.34-1.78,8.34-1.78,8.89-9.87
	C218.36,2.31,222.96,2.31,227.55,2.31z"/>
<path class="st0" d="M6.9,247.2c0-2.31,0-4.62,0-6.93c1.15,0,2.3,0,3.46,0c0.82,1.53,1.62,3.09,2.51,4.6
	c0.1,0.17,0.73,0.02,1.51,0.02c2.7-1.07,1.63-5.47,6.04-6.92c5.87,0,13.04,0,19.8,0c1.75-1.76,3.11-3.12,4.46-4.48
	c4.39,3.44,7.97,7.56,10.19,12.81c-2.24,1.47-3.27,4.89-6.59,5.53c-2.44,0.33-3.97,3.44-6.9,2.31c-0.15-4.63-2.34-8.24-6.11-11.9
	c-0.44,5.71-6.23,0.14-7.69,4.24c1.04,5.03,1.04,5.03,4.6,9.98c0.17,2.2-1.33,2.22-2.88,2.33c-1.66,0.12-4-0.8-4.01,2.29
	c-3.13,0.81-5.78-0.95-6.44-3.3c-0.79-2.82-2.23-4.49-4.41-5.96c-1.54,0.06-3.12,0.06-2.94,2.33c-3.07-0.02-2.16-2.36-2.28-4.03
	C9.11,248.54,9.09,247.03,6.9,247.2z"/>
<path class="st0" d="M225.25,395.06c0.15,2.08-1.21,2.31-2.78,2.31c-3.67,0-7.34,0-11.01,0c-0.06-3.99,0.72-8.15-2.3-11.55
	c0.33-2.46,3.42-3.99,2.3-6.93c1.99,0.14,2.31-1.14,2.3-2.72c-0.01-2.17,0-4.35,0-6.52c4.72,3.14,1.14,7.92,2.31,11.76
	c0.2,0.65,0.59,1.24,1.16,2.41c1.63-1.32,4.05,1.08,5.78-1.76c-3.73-1.65-1.98-5.02-2.36-7.79c1.74-0.35,4.4,1.15,4.6-2.31
	c5.87-4.32,6.05-5.05,2.3-9.24c0-0.77,0-1.54,0-2.31c0.2-3.46,2.85-1.96,4.6-2.31c0.38,2.16-0.18,4.27,0.61,6.56
	c1.84,5.35,4.25,10.65,3.99,16.54c-4.03,6.89-11.47,7.59-18.18,10.06c0,0.96,0,1.99,0,2.94
	C220.77,395.74,223.09,394.77,225.25,395.06z"/>
<path class="st0" d="M4.61,164.03c0.77,0,1.53,0,2.3,0c0.23,0.62,0.46,1.24,0.8,2.14c2.3-2.88,5.44-2.06,8.39-2.14
	c1.48-0.81,2.95-1.62,4.55-2.5c2.61,2.07,5.53,2.9,8.81,2.53c1.55-0.17,2.88,0.25,2.73,2.28c-1.36,0-2.72,0-4.07,0
	c1.57,2.37,2.03,5.96,6.37,3.78c0-1.05,0-2.41,0-3.78c0.77,0,1.53,0,2.3,0c1.53,0.77,3.06,1.54,4.6,2.31
	c0.17,2.17-1.31,2.17-2.85,2.35c-1.15,0.14-2,0.86-1.74,2.27c-1.59-0.06-2.36,0.71-2.3,2.31c-2.69,2.13-6.56,2.29-9.19,5.96
	c0,2.19,0,5.04,0,7.9c-2.93,1.13-4.45-1.98-6.9-2.31c-3.02-3.4-2.24-7.56-2.3-11.55c1.59,0.06,2.36-0.71,2.3-2.31
	c1.11,0.15,1.83-0.26,2.04-1.48c-2.02-1.2-3.79-1.73-4.33,1.48c0,0.77,0,1.54,0,2.31c-0.77,0-1.53,0-2.3,0
	c-0.61-3.26-2.58-3.04-4.33-1.28c-1.53,1.53-3.16,1.21-4.86,1.28C4.61,171.73,4.61,167.88,4.61,164.03z"/>
<path class="st0" d="M397.64,214.86c-0.77,0-1.53,0-2.3,0c0-1.91,0-3.82,0-5.73c-1.66-2.72-5.24,0.27-6.97-2.4
	c-1.47-2.27-3.68-3.51-6.29-4c-0.74-4.43-0.84-9.37-7.43-8.67c-0.16-2.15,1.28-2.39,2.84-2.29c3.42,0.21,5.46-1.39,6.35-4.64
	c2.07,0.15,2.3-1.22,2.3-2.79c0-3.69,0-7.38,0-11.07c-0.26-1.4,0.59-2.02,1.73-2.3c3.64-0.89,5.68-2.95,5.17-6.94
	c1.99-0.14,2.31,1.14,2.3,2.72c-0.01,2.17,0,4.35,0,6.52c-3.26,1.26-5.1,3.99-6.36,5.51c-1.27,3.58,1.99,3.78,1.85,6.04
	c-0.14,2.15-0.77,4.51,0.54,6.39c1.18,0.76,2.21,0.68,3.97-0.28c0-4.05,0-8.54,0-13.04c0.77,0,1.53,0,2.3,0
	C397.64,190.21,397.64,202.54,397.64,214.86z"/>
<path class="st53" d="M259.73,46.21c-0.26,0.65-0.43,1.8-0.79,1.86c-5.86,1.02-7.53,0.53-15.29-4.18c3.26-2.04,3.87-5.25,4.76-8.8
	c2.39-9.52,2.71-9.44,9.03-14.3c1.74,2.38,6.18,0.7,6.9,4.62c-5.04,2.13-0.74,4.25,0.04,6.5c-2.89,4.49-1.11,12.09-8.82,14.29
	C256.94,46.21,258.34,46.21,259.73,46.21z"/>
<path class="st54" d="M328.68,64.69c2.51,0.56,4.04,2.1,4.6,4.62c-4.42,3.94-5.02,10.83-10.76,13.86c-3.21,0-6.57,0-9.92,0
	c0.06-1.6-0.71-2.37-2.3-2.31c0-2.68,0-5.36,0-8.22c3.21-2.36,5.15-6.35,9.19-7.95C322.55,64.69,325.62,64.69,328.68,64.69z"/>
<path class="st55" d="M91.95,351.17c-2.51-0.56-4.04-2.1-4.6-4.62c2.14,0.16,1.93-1.39,2.36-2.84c2.08-6.97,5.53-12.66,13.73-13.34
	c-0.06,1.6,0.71,2.37,2.3,2.31c0,2.91,0,5.82,0,8.09c-2.73,2.75-5.21,4.61-6.84,7.05C97.09,350.52,92.41,346.34,91.95,351.17z"/>
<path class="st0" d="M149.41,9.24c0-0.77,0-1.54,0-2.31c2.3,0,4.6,0,6.9,0c-0.18,4.17,1.39,6.78,6.15,7.02
	c0.34-2.73,2.73-5.55-1.56-7.02c1.08-4.45,4.63-1.43,6.9-2.31c-0.18,3.94-0.49,7.95,4.6,9.24c0,0.77,0,1.54,0,2.31
	c-4.25,1.96-8.11,4.93-13.07,5.13c-0.26,0.01-0.48,1.17-0.72,1.8c-1.59,0.06-2.36-0.71-2.3-2.31s-0.71-2.37-2.3-2.31
	C154.19,14.54,154.49,10.54,149.41,9.24z"/>
<path class="st56" d="M294.21,358.1c-0.56,2.52-2.09,4.06-4.6,4.62c-2.83-4.79-4.12-10.45-8.47-14.42
	c-1.77-1.62-0.38-4.24-0.72-6.37c1.91,0,3.81,0,5.72,0C290.87,346.29,294.92,350.99,294.21,358.1z"/>
<path class="st45" d="M236.75,381.2c0.26-5.89-2.15-11.19-3.99-16.54c-0.79-2.29-0.22-4.41-0.61-6.56c1.9,0,3.8,0,5.72,0
	c2.09,1.71-0.4,2.19-0.78,3.08c0.91,1.93,1.79,3.78,2.73,5.77c1.7,1.35,4.46-0.84,6.09,1.52c0,0.73,0,1.48,0,2.29
	c-2.41,3.79-3.65-5.99-5.96-0.11c2.27,2.46,0.3,6.99,3.39,9.75C241.24,381.89,238.92,380.91,236.75,381.2z"/>
<path class="st57" d="M20.66,215.97c2.09-1.96,4.1-0.65,5.92-1.22c2.21-1.56,0.09-4.29,1.47-6.13c0.54-0.85,1.45-0.81,1.54,0.23
	c0.54,5.95,4.99,6.43,9.71,6.19c-1.03,2.59-2.8,1.84-4,2.45c-2.03,2.55,0.36,5.9-1.56,8.52c-3.34-1.53-6.7-4.39-9.61,0.44
	c-2.86-3.13,0.31-4.26,0.91-6.06C23.71,219.05,22.38,217.7,20.66,215.97z"/>
<path class="st47" d="M179.29,383.51c-3.67,0-7.34,0-12.39,0c4.51-7.55,2.83-14.88,3.32-22.93c3.81,0.76,8.02-2.61,11.36,2.13
	c-3.12-0.86-4.87,1.15-6.3,2.82c0,5.5,0,10.6,0,15.66c1.73,0,2.86,0,4,0C179.29,381.97,179.29,382.74,179.29,383.51z"/>
<path class="st18" d="M374.65,224.1c-2.88,0.12-6.08-0.92-8.16,2.23c-2.47-2.53,0.2-5.99-1.42-8.32c-1.2-1.53-3.36,0.02-4.18-2.69
	c4.94,0.04,9.16-1.54,10.13-7.25c2.72,1.4,0.47,4.13,1.8,6.15c1.49,1.89,4.31-0.48,7.02,1.99c-2.11,1.26-3.98,2.37-5.35,3.19
	c0.74,2.47,2.85,2.82,2.47,4.7C376.18,224.1,375.42,224.1,374.65,224.1z"/>
<path class="st51" d="M280.42,341.92c0.34,2.13-1.05,4.75,0.72,6.37c4.35,3.97,5.64,9.63,8.47,14.42c-2.22-0.56-2.45,3.04-5.93,1.81
	c-1.35-6.78-6.92-12.35-9.93-19.36C275.53,343.15,277.25,341.03,280.42,341.92z"/>
<path class="st58" d="M43.27,296.13c-2.86-1.61-1.15-5.06-4.85-6.19c7.08-4.33,13.62-8.33,20.34-12.43c2.3,0.66-0.07,4.52,3.36,5.16
	C55.81,287.18,47.26,288.02,43.27,296.13z"/>
<path class="st19" d="M321.5,337.89c-2.02,2.44-3.69,4.44-5.43,6.54c-6.67-12.54-7.39-13.37-15.26-17.53
	c2.21-1.65,4.26-3.18,6.54-4.88c0.61,3.24,3.46,5.98,6.49,8.25C316.75,332.47,316.45,337.69,321.5,337.89z"/>
<path class="st59" d="M252.84,358.1c0.44-1.92-1.85-2.14-2.07-3.96c3.86-1.12,7.4-1.38,10.84,2.16c1.87,1.93,4.85,2.78,7.33,4.11
	c0.77,0,1.53,0,2.3,0c1.42,2.92,2.83,5.83,4.98,10.26c-7.26-3.97-13.02-7.11-18.77-10.26C257.24,356.95,254.58,358.44,252.84,358.1z
	"/>
<path class="st32" d="M91.95,351.17c0.46-4.82,5.14-0.65,6.95-3.35c1.63-2.44,4.11-4.3,6.84-7.05c0-2.27,0-5.18,0-8.09
	c2.35-0.11,2.81,2.34,4.37,3.18c1.6,10.59-4.26,15.36-13.55,17.46C94.46,354.12,94.15,350.66,91.95,351.17z"/>
<path class="st46" d="M220.66,374.27c0.38,2.77-1.37,6.14,2.36,7.79c-1.72,2.84-4.15,0.44-5.78,1.76c-0.57-1.17-0.97-1.76-1.16-2.41
	c-1.17-3.84,2.4-8.62-2.31-11.76c0-2.91,0-5.81,0-9.24c5,0,9.39,0,13.79,0c0,0.77,0,1.54,0,2.31c-0.77,0-1.53,0-2.3,0
	c-2.11,0-4.23,0-6.82,0c0,2.35-0.71,4.75,0.15,5.71C220.24,370.25,220.93,371.97,220.66,374.27z"/>
<path class="st32" d="M337.88,286.48c4.42,6.56,11.69,8.93,18.09,12.54c-5.23,4.64-5.27,4.42-9.76,1.76
	c-4.26-2.52-7.31-7.26-12.93-7.38C335.65,291.66,333.97,287.2,337.88,286.48z"/>
<path class="st7" d="M151.19,360.57c-1.78-0.37-3.1,0.4-3.97-1.75c0.98-0.95,2.23-2.17,3.46-3.36c7.82,2.03,4.8,10.37,9.01,14.12
	c0.81-0.72,1.62-1.45,2.6-2.32c3.5,4.56-5.29,6.81-1.55,11.47C155.12,373.77,152.45,367.86,151.19,360.57z"/>
<path class="st33" d="M309.97,348.03c-0.8,0.81-1.61,1.62-2.41,2.43c-0.54,0.89-0.85,0.59-1.64-0.15c-4.05-3.78-6.98-8.46-9.2-13.35
	c-1.13-2.49-3.2-1.24-3.77-1.95c1.81-2.12,3.58-4.21,5.39-6.34C299.22,336.46,307.5,340.44,309.97,348.03z"/>
<path class="st30" d="M71.26,300.34c-3.24,1.37-5.53,3.68-6.9,6.93c-4.66-1.55-5.72,4.36-10.55,4.77c-0.49-1.19-1.23-3.02-1.85-4.53
	c4.9-3.45,12.23-6.58,16.11-13.94c0.88,1.65,3.3,2.11,3.19,4.46C71.26,298.8,71.26,299.57,71.26,300.34z"/>
<path class="st42" d="M85.05,311.89c-0.31,4.57,0.99,9.29-2.13,13.59c-0.69,0.94-1.56,4.57,2.13,4.9c-0.59,3.29-4.08,4.18-6.29,8.96
	c-0.99-8.23-0.42-14.4-0.61-20.51c3.07-0.02,2.16-2.36,2.28-4.03c0.11-1.56,0.14-3.07,2.32-2.9
	C83.52,311.89,84.29,311.89,85.05,311.89z"/>
<path class="st60" d="M335.58,307.27c3.32,0.63,4.34,4.04,7.8,6.31c-6.38,1.17-11.98,0.33-17.49,0.64c-1.66,0.1-4.07-0.88-4.1,2.29
	c-2.82,0.16-3.15-4.87-6.83-3.39c0.97-1.05,1.95-2.09,3.3-3.55c4.55,0,9.46,0.01,14.36,0C334.18,309.57,335.76,309.54,335.58,307.27
	z"/>
<path class="st61" d="M66.66,108.58c-2.37,1.75-0.69,6.21-4.6,6.93c-1.79,0-3.58,0-5.52,0c-2.1-2.12-4.92-3.73-5.97-6.93
	c1.59,0.06,2.36-0.71,2.3-2.31c6.32-3.42,6.31-3.41,11.9,1.53C65.26,108.23,66.03,108.33,66.66,108.58z"/>
<path class="st31" d="M25.29,261.06c0.02-3.09,2.35-2.17,4.01-2.29c1.55-0.11,3.05-0.14,2.88-2.33c3.33,0.28,6.48-0.12,9.19-2.31
	c2.93,1.13,4.45-1.98,6.9-2.31c0,1.91,0,3.82,0,6c-6.54,2.27-13.62,3.47-19.73,7.69C26.42,265.06,28.98,260.59,25.29,261.06z"/>
<path class="st45" d="M103.44,330.37c-8.19,0.68-11.65,6.36-13.73,13.34c-0.43,1.44-0.22,3-2.36,2.84
	c-5.82-8.42,0.56-13.12,5.92-18.67C96.3,329.45,100.69,325.7,103.44,330.37z"/>
<path class="st32" d="M138.73,351.26c2.15,0,3.63,0,5.66,0c-2.79,6.88-5.47,13.47-7.52,18.52c-3.39,2.86-5.48,2.34-8.55,1.25
	C135.2,366.18,135.29,358.22,138.73,351.26z"/>
<path class="st31" d="M365.46,279.55c0.9,3.2-1.24,4.92-3.08,6.57c-6.66-3.35-13.26-6.67-19.86-9.98c2.19-1.2,1.87-3.84,3.14-5.56
	c2.47,0.81,3.12,4.14,6.01,4.36c0.2,3.46,2.85,1.96,4.6,2.31C358.98,279.43,362.13,279.83,365.46,279.55z"/>
<path class="st62" d="M199.97,385.82c-1.89,0-3.79,0-6.11,0c-2.59-7.17,1.6-15.35-2.71-22.36c2.04-1.42,4.36-0.46,6.52-0.74
	c0,0.77,0,1.54,0,2.31c0,2.31,0,4.62,0,6.93c0,2.93,0,5.86,0,8.79c0,1.57,0.26,2.91,2.3,2.76
	C199.97,384.28,199.97,385.05,199.97,385.82z"/>
<path class="st63" d="M335.58,92.41c-2.86,0.51-4.06,3.13-5.88,4.89c-0.92,0.89-1.12,2.53-1.67,3.89c-1.96-0.17-2.62-2.06-4.71-3.64
	c4.93-7.96,13.63-11.16,20.48-16.72c0.99,1.85,3.39,2.32,3.27,4.64C342.35,86.3,337.66,87.17,335.58,92.41z"/>
<path class="st64" d="M34.49,279.55c2.91,0.43,5.1-0.68,6.96-4.55c0-1.94,0-5.26,0-7.9c2.14-3.79,4.96-4.13,9.2-3.4
	c-1.17,2.39-3.16,3.75-4.66,5.43c-0.01,3.03-0.01,6.06-0.01,9.09C42.29,282.85,40.37,283.07,34.49,279.55z"/>
<path class="st58" d="M117.23,341.92c-0.87,4.26,1.64,7.61,3.14,11.18c2.37,5.63,2.47,5.6-3.95,9.61c-4.44-2.45,4.66-2.69,1.52-5.74
	c-1.9-1.2-3.81-2.39-5.97-3.75c2.03-4.09-1.66-8.47,2.97-11.31C115.7,341.92,116.46,341.92,117.23,341.92z"/>
<path class="st9" d="M213.76,27.72c0.46-5.7-6.02-7.83-6.51-13.14c1.4-1.66,3.48-0.08,6.06-1.43c-0.19,4.95,2.19,8.47,3.4,12.26
	c1.68,0,2.81,0,3.95,0c-3.3,3.79-2.03,8.42-2.35,12.73c-0.73,1.11-1.82,1.2-2.97,1.12c-1.08-0.07-2.16-0.18-4.17-1.4
	c2.21-0.55,4.43-1.1,6.64-1.65C215.69,31.65,218.06,28.67,213.76,27.72z"/>
<path class="st42" d="M298.8,57.76c-3.83,1.79-6.5,4.59-8.03,10.53c-0.8-2.33-1.28-3.7-2.09-6.05c2.42-5.61,9.71-10.49,12.42-18.34
	c1.74,2.38,6.18,0.7,6.9,4.62c-2.1,0-4.21,0-6.27,0C301.4,52.2,297.96,54.26,298.8,57.76z"/>
<path class="st65" d="M39.08,103.96c0.56-2.52,2.09-4.06,4.6-4.62c1.59,0.06,2.36-0.71,2.3-2.31c6.37,0.96,6.79,1.52,6.9,9.24
	c-1.59-0.06-2.36,0.71-2.3,2.31C45.98,108.98,43.07,105.12,39.08,103.96z"/>
<path class="st66" d="M257.43,20.79c-6.32,4.86-6.64,4.78-9.03,14.3c-0.89,3.56-1.5,6.76-4.76,8.8c-1.12,0.07-2.37-0.22-1.83-1.55
	c3.04-7.47,6.18-14.9,6.89-24.25C251.26,21.46,254.42,20.7,257.43,20.79z"/>
<path class="st60" d="M294.21,358.1c0.72-7.11-3.34-11.81-8.07-16.17c-1.91,0-3.81,0-5.72,0c2.21-5.13,6.6-0.98,9.52-2.41
	c4.67,2.41,6.37,6.99,9,11.13C297.22,352.96,297.79,356.78,294.21,358.1z"/>
<path class="st67" d="M179.29,383.51c0-0.77,0-1.54,0-2.31c5.93-5.51,6.22-11.73,2.3-18.48c2.87-0.41,5.07,0.6,6.73,4.21
	c0,2.62,0,6.33,0,10.67C185.89,379.83,184.44,384.3,179.29,383.51z"/>
<path class="st51" d="M50.49,136.54c0.38,4.15-1.8,5.51-4.54,6.9c-7.05-1.66-13.88-4.6-20.48-8.12c-0.13-1.08-0.55-2.21,0.39-3.04
	C34.02,134.36,41.13,142.38,50.49,136.54z"/>
<path class="st40" d="M349.46,139.96c0-1.49,0-2.99,0-4.76c6.94-3.55,14.07-7.19,20.94-10.7c1.47,0.82,2.31,1.48,1.46,3.99
	c-4.01,1.27-7.69,4.98-13.26,5.7C355.12,134.65,351.61,136.69,349.46,139.96z"/>
<path class="st28" d="M91.95,73.93c-5.35,0.28-8.14-3.22-8.95-7.61c-0.43-2.36-1.78-3.79-2.65-5.92c1.92-2.1,1.03-6.1,4.7-7.26
	c0,3.45,0,6.9,0,10.53c3.21,2.36,5.15,6.35,9.19,7.95C94.3,73.22,93.54,73.99,91.95,73.93z"/>
<path class="st37" d="M358.56,256.44c3.86-1.04,5.17-5.22,8.47-6.93c3.64-0.29,6.56,0.61,7.62,4.62c-0.77,0-1.53,0-2.3,0
	c-5.29-0.9-6.67,4.22-10.21,6.63c-2.52-0.74-6.28,2.87-8.18-2.01C355.71,258.41,358.37,259.9,358.56,256.44z"/>
<path class="st66" d="M271.22,53.14c-1.39-0.27-3,0.67-4.39-0.96c5.62-6.26,8.28-14.24,12.28-21.8c0.82,2.94,5.54,0.31,5.91,4.28
	c-6.37,0.96-6.79,1.52-6.9,9.24C273.3,45.08,273.63,50.14,271.22,53.14z"/>
<path class="st68" d="M362.21,156.9c-1.63,0-3.42,0-4.84,0c-1.33-0.74-0.98-1.02-0.32-1.85c5.33-6.63,14.01-9.2,19.16-16.15
	C375.88,148.3,365.36,149.56,362.21,156.9z"/>
<path class="st29" d="M39.08,103.96c3.98,1.16,6.89,5.01,11.49,4.62c1.05,3.2,3.88,4.81,5.97,6.93c1.94,0,3.73,0,5.52,0
	c0.11,2.33-2.3,2.8-3.15,4.4c-7.95-3.12-13-11.33-22.19-11.84C37.4,106.2,39.45,105.83,39.08,103.96z"/>
<path class="st17" d="M138.2,51.01c0.05-9.32-6.79-16.02-7.22-24.08c1.14-2.02,2.41-1.35,4.35-1.67
	c-0.95,8.43,4.85,14.55,6.63,22.74C141.47,48.39,140.32,49.31,138.2,51.01z"/>
<path class="st69" d="M52.87,106.27c-0.1-7.73-0.52-8.29-6.9-9.24c1.03-4.18,4.07-2.51,6.17-1.72c2.58,0.97,2.56,4.26,4.1,6.28
	c0.82-0.75,1.65-1.5,2.91-2.65c3.67,2.21,7.85,3.96,7.5,9.65c-0.64-0.25-1.4-0.36-1.89-0.78C59.18,102.87,59.19,102.85,52.87,106.27
	z"/>
<ellipse class="st0" cx="3.46" cy="199.84" rx="1.63" ry="27.77"/>
<path class="st17" d="M363.16,110.89c-6.52,3.93-14.24,5.7-19.48,11.18c-1.34-1.12-2.47-2.06-3.86-3.22
	c6.83-2.87,13.06-6.08,18.74-10.27c1.59,0.06,2.36-0.71,2.3-2.31C364.3,106.47,362.81,109.14,363.16,110.89z"/>
<path class="st70" d="M335.58,92.41c2.08-5.24,6.77-6.11,11.49-6.93c1.59-0.06,2.36,0.71,2.3,2.31c-4.82,0.46-0.36,5.61-3.22,6.81
	C342.22,95.02,338.64,94.91,335.58,92.41z"/>
<path class="st15" d="M259.73,46.21c-1.39,0-2.79,0-4.18,0c7.71-2.2,5.93-9.8,8.82-14.29c-0.78-2.25-5.08-4.38-0.04-6.5
	c3.55,4.62,2.09,9.98,2.23,15.12C264.06,42.17,263.05,45.58,259.73,46.21z"/>
<path class="st32" d="M312.59,83.17c3.36,0,6.71,0,9.92,0c5.74-3.03,6.34-9.93,10.76-13.86c0,2.68,0,5.36,0,8.22
	c-3.21,2.36-5.15,6.35-9.19,7.95c-3.06,0-6.13,0-9.19,0c-0.77,0-1.53,0-2.3,0C312.59,84.71,312.59,83.94,312.59,83.17z"/>
<path class="st5" d="M308,48.52c3.97,1.06,4.89,3.98,4.55,8.27c-1.72,1.73-3.79,3.81-5.98,6.01c-2.64-2.05-6.48-1.43-7.76-5.04
	C307.65,57.46,307.7,57.41,308,48.52z"/>
<path class="st57" d="M66.66,78.55c5.88,0.63,11.04-4.13,17.45-1.86c3.64,4.49,3.64,4.49,0.94,8.79c0.83-3.1-1.09-4.89-3.78-7.15
	c-4.35,3.35-9.82,2.51-15.16,2.48c-1.14-0.01-2.01-0.84-1.75-2.26C65.13,78.55,65.9,78.55,66.66,78.55z"/>
<path class="st47" d="M18.4,187.13c2.44,0.33,3.97,3.44,6.9,2.31c3.97-0.06,8.11,0.73,11.49-2.31c0,1.12,0,2.25,0,3.37
	c-11.15,5.38-13.1,5.06-20.69-3.37C16.86,187.13,17.63,187.13,18.4,187.13z"/>
<path class="st29" d="M363.16,175.58c0-1.11,0-2.21,0-3.32c5.89-3.91,11.93-5.52,18.39-1.3c0,0.77,0,1.54,0,2.31
	c-3.03,0-6.14,0.42-9.08-0.11C368.83,172.52,366.71,176.67,363.16,175.58z"/>
<path class="st57" d="M110.33,36.97c0.1,5.28-0.88,10.8,2.75,15.35c1.03,1.29,1.93,3.23,4.15,3.13c0.06,1.6-0.71,2.37-2.3,2.31
	c-6.77-1.87-5.97-9.01-9.31-13.54C107.59,42.13,106.65,38.11,110.33,36.97z"/>
<path class="st47" d="M319.49,64.69c-4.04,1.59-5.98,5.59-9.19,7.95c0,2.86,0,5.54,0,8.22c-4.64-2.8-0.93-7.2-2.3-9.9
	c2.85-3.84,3.07-9.61,9.19-8.58C318.78,62.32,319.55,63.09,319.49,64.69z"/>
<path class="st43" d="M36.78,166.34c-0.77,0-1.53,0-2.3,0s-1.53,0-2.3,0c0.15-2.04-1.18-2.46-2.73-2.28
	c-3.28,0.37-6.19-0.46-8.81-2.53c-1.6,0.88-3.07,1.69-4.55,2.5c-0.9-3.19,1.23-4.92,3.23-6.7c4.87,2.09,9.57,4.8,15.16,4.39
	c-0.06,1.6,0.71,2.37,2.3,2.31C36.78,164.8,36.78,165.57,36.78,166.34z"/>
<path class="st71" d="M82.75,311.89c-2.18-0.17-2.21,1.33-2.32,2.9c-0.12,1.67,0.8,4.02-2.28,4.03c0.06-1.6-0.71-2.37-2.3-2.31
	c-0.56-2.44,5.03-3.46,1.3-6.76c-0.71,0.58-1.46,1.19-2.27,1.85c-0.4-0.33-1.25-0.69-1.27-1.09c-0.12-2.62-0.06-5.24-0.06-7.86
	C77.5,304.85,80.56,307.93,82.75,311.89z"/>
<path class="st41" d="M98.84,50.83c3.26,0.6,4.17,4.05,6.9,5.39c0,3.89,0.08,7.62-0.05,11.34c-0.04,1.14-0.85,2.01-2.25,1.75
	c0.23-6.48-0.19-12.68-6.9-16.17C96.48,51.54,97.25,50.77,98.84,50.83z"/>
<path class="st72" d="M335.58,92.41c3.06,2.5,6.64,2.6,10.57,2.19c2.86-1.2-1.6-6.36,3.22-6.81c-0.26,4.16,1.53,8.98-4.19,11.65
	c-2.49,0.47-4.04-3.88-7.3-2.41c-0.77,0-1.53,0-2.3,0C335.58,95.49,335.58,93.95,335.58,92.41z"/>
<path class="st73" d="M158.6,34.65c0.06,1.6-0.71,2.37-2.3,2.31c-1.08-4.45-4.63-1.43-6.9-2.31c0.35-1.75-1.14-4.42,2.3-4.62
	c-0.07,1.14,0.1,2.06,1.6,1.89c1.33-2.05,0.43-4.35,0.7-6.51c2.51,0.56,4.04,2.1,4.6,4.62C158.6,31.57,158.6,33.11,158.6,34.65z"/>
<path class="st62" d="M383.85,187.13c-0.89,3.25-2.93,4.85-6.35,4.64c-1.56-0.1-3,0.15-2.84,2.29c-3.92,0.18-6.87-1.6-9.19-4.62
	c5.41-0.46,11.16,1.5,16.09-2.31C382.31,187.13,383.08,187.13,383.85,187.13z"/>
<path d="M179.29,16.17c0,5.98,0,11.96,0,17.94c0,1.57,0.16,3.01,2.3,2.85c0,0.77,0,1.54,0,2.31c-1.11,0-2.21,0-3.96,0
	c-1.3-4.48-0.35-9.23-0.64-13.86c0-2.17,0.01-4.35,0-6.52C176.98,17.31,177.29,16.03,179.29,16.17z"/>
<path class="st74" d="M66.66,78.55c-0.77,0-1.53,0-2.3,0c-3.72-0.39-1.74-3.35-2.25-4.98c2.92-2.8,5.77-5.53,8.56-8.2
	c0.62,1.16,3,1.62,2.89,3.94c-4.34,0.9-4.34,0.9-9.06,5.64C64.96,76.32,67.04,76.68,66.66,78.55z"/>
<path class="st75" d="M358.56,256.44c-0.2,3.46-2.85,1.96-4.6,2.31c-3.56-2.77-2.89-5.98-1.04-9.39c0.67-1.24,1.1-2.62,1.73-4.14
	c2.07,1.03,4.13,2.06,6.24,3.11c-2.45,2.08-6.86,1.76-6.94,6.31C354.59,257.53,356.92,256.1,358.56,256.44z"/>
<path class="st76" d="M323.75,318.93c3.42-0.98,5.44,0.84,6.81,3.07c1.25,2.03,4.51,0.49,4.67,1.15c0.73,4.49-1.47,5.17-3.17,7.58
	C331.01,325.19,326.12,323.15,323.75,318.93z"/>
<path class="st77" d="M36.78,164.03c-1.59,0.06-2.36-0.71-2.3-2.31c2.13,0,4.25,0,6.9,0c0-4.26,0-7.91,0-11.55
	c2.35-0.23,2.58,2.46,4.72,2.99c-3,2.3-2.37,5.25-2.42,8.03c-0.03,1.57-0.17,3.01-2.3,2.85C39.85,164.03,38.32,164.03,36.78,164.03z
	"/>
<path class="st0" d="M395.34,235.65c-0.77,0-1.53,0-2.3,0c0.39-3.64-3.66-1.27-4.66-3.84c0.24-4.01,2.81-5.61,6.95-5.4
	C395.34,229.49,395.34,232.57,395.34,235.65z"/>
<path class="st78" d="M330.98,302.65c-2.13,0-4.25,0-8.39,0c4.65-3.76,6.57-7.62,10.69-9.24
	C333.56,296.75,333.16,299.92,330.98,302.65z"/>
<path class="st78" d="M383.85,187.13c-0.77,0-1.53,0-2.3,0c3.22-4.62,3.22-9.24,0-13.86c0-0.77,0-1.54,0-2.31
	c1.53,0.77,3.06,1.54,4.6,2.31c0,3.69,0,7.38,0,11.07C386.15,185.91,385.92,187.29,383.85,187.13z"/>
<path class="st79" d="M149.41,34.65c2.26,0.88,5.82-2.14,6.9,2.31c-1.15,0-2.29,0-3.44,0c-3.04,3.1,0,5.8,0.7,8.96
	c-1.93,0-3.73,0-6.69,0C150.42,42.44,149.21,38.46,149.41,34.65z"/>
<path class="st80" d="M319.49,64.69c0.06-1.6-0.71-2.37-2.3-2.31c0.73-4.42,4.12-1.94,6.24-2.2c2.95-0.35,4.49,1.82,5.26,4.51
	C325.62,64.69,322.55,64.69,319.49,64.69z"/>
<path class="st81" d="M85.05,85.31c0,1.32,0,2.46,0,3.71c-2.47,1.22-4.98,2.47-7.59,3.77c-1.5-1.35-2.79-2.5-4.15-3.72
	c2.51-2.04,4.92-0.73,6.99-1.34C81.95,87.24,83.43,86.16,85.05,85.31z"/>
<path class="st82" d="M356.26,277.24c-1.74-0.35-4.4,1.15-4.6-2.31c3.73,0.45,1.11-4.1,3.28-4.53c3.78-0.96,4.5,4.52,8.61,1.87
	C361.87,276.92,356.65,272.44,356.26,277.24z"/>
<path class="st80" d="M360.86,106.27c0.06,1.6-0.71,2.37-2.3,2.31c0-1.12,0-2.24,0-3.37c-1.58-2.81-5.13,0.21-6.6-2
	c1.1-1.51,2.15-2.95,3.09-4.24C359.23,100.28,361.4,102.26,360.86,106.27z"/>
<path class="st82" d="M179.29,16.17c-1.99-0.14-2.31,1.14-2.3,2.72c0.01,2.17,0,4.35,0,6.52c-3.79-0.38-1.85-3.34-2.27-5.2
	c-0.36-1.63,0.76-4.03-2.33-4.05c0-0.77,0-1.54,0-2.31c2.3,0,4.6,0,6.9,0c1.12-0.08,2.13,0.15,1.82,1.53
	C181.02,15.77,179.92,15.92,179.29,16.17z"/>
<path class="st83" d="M111.64,34.68c2.97-3.69,7.17-0.75,8.76-4.62c2.05,2.04,3.97,3.95,6,5.97c-0.99,0.41-1.98,1.08-2.22,0.87
	C120.72,33.98,116.62,34.66,111.64,34.68z"/>
<path class="st84" d="M98.84,50.83c-1.59-0.06-2.36,0.71-2.3,2.31c-1.52-0.82-3.03-1.64-5.38-2.9c-1.11,2.65-3.47,3.19-6.11,2.9
	c-0.23-2.39,2.49-2.61,2.96-4.62c3.16,0,6.12-0.1,9.08,0.05C98.24,48.62,99.1,49.41,98.84,50.83z"/>
<path class="st85" d="M197.67,365.03c0-0.77,0-1.54,0-2.31c3.7,0,7.4,0,11.27,0c0,2.51,0,4.31,0,5.99c0.97-0.98,0.03,2.01-0.99,0.99
	c-1.2-1.21-0.83-2.72-1.79-4.68C203.54,365.03,200.6,365.03,197.67,365.03z"/>
<path class="st12" d="M85.02,310.8c1.44-2.03,3.53-0.83,5.19-1.32c2.1,2.1,2.15,6.08,6.89,5.2c-2.31,2.78-4.41,1.22-5.83,1.93
	c-2.02-0.85-1.35-2.67-1.99-4C88.57,310.53,85.54,313.44,85.02,310.8z"/>
<path class="st86" d="M372.35,254.13c0.77,0,1.53,0,2.3,0c1.39-0.26,2.56,0.94,2.19,1.67c-1.33,2.6-0.88,6.35-4.48,7.57
	c-0.77,0-1.53,0-2.3,0C372.23,260.65,372.63,257.48,372.35,254.13z"/>
<path class="st0" d="M6.9,235.65c-0.77,0-1.53,0-2.3,0c0-3.08,0-6.16,0-9.24c1.36,0,2.72,0,3.67,0
	C10.88,230.49,8.03,232.89,6.9,235.65z"/>
<path class="st83" d="M114.93,57.76c1.59,0.06,2.36-0.71,2.3-2.31c3.06,0,6.13,0,9.19,0c-1.99,3.22-4.89,4.71-8.63,4.63
	C116.23,60.04,114.77,59.93,114.93,57.76z"/>
<path class="st87" d="M91.95,73.93c1.59,0.06,2.36-0.71,2.3-2.31c2.3,0,4.6,0,6.9,0c0.77,0,1.53,0,2.3,0
	c-1.99,3.22-4.89,4.71-8.63,4.63C93.24,76.21,91.78,76.1,91.95,73.93z"/>
<path class="st88" d="M252.84,358.1c1.74,0.35,4.4-1.15,4.6,2.31c-0.62,0.23-1.23,0.47-2.13,0.81c2.87,2.31,2.04,5.47,2.13,8.43
	C253.05,366.94,252.62,362.65,252.84,358.1z"/>
<path class="st89" d="M36.78,175.58c5.87,4.32,6.05,5.05,2.3,9.24c-0.77,0-1.53,0-2.3,0C36.78,181.74,36.78,178.66,36.78,175.58z"/>
<path class="st90" d="M34.41,280.49c-3.55-2.97-0.67-7.2-4.41-8.75c1.6-1.97,2.65-4.59,6.69-3.24
	C33.55,271.79,34.65,275.75,34.41,280.49z"/>
<path class="st74" d="M365.85,280.63c0-4.83,0-8.57,0-14.42c2.08,2.88,3.09,4.28,4.46,6.18
	C369.07,274.69,367.63,277.34,365.85,280.63z"/>
<path class="st83" d="M154,25.41c-0.27,2.16,0.64,4.46-0.7,6.51c-1.5,0.17-1.67-0.75-1.6-1.89c0-2.93,0-5.86,0-8.79
	c0-1.57,0.26-2.91,2.3-2.76c1.59-0.06,2.36,0.71,2.3,2.31C152.86,20.99,154.35,23.66,154,25.41z"/>
<path class="st31" d="M158.6,34.65c0-1.54,0-3.08,0-4.62c0.77,0,1.53,0,2.3,0c3.63,0.91,4.97,3.35,4.6,6.93c0,0.77,0,1.54,0,2.31
	c-1.41,0.26-2.27-0.63-2.24-1.76C163.37,33.64,160.6,34.85,158.6,34.65z"/>
<path class="st91" d="M199.97,385.82c0-0.77,0-1.54,0-2.31c1.86,0,3.72,0,5.58,0c2.15-1.3,3.11-4.16,5.91-4.62
	c1.12,2.94-1.97,4.47-2.3,6.93C206.1,385.82,203.04,385.82,199.97,385.82z"/>
<path class="st92" d="M278.08,44.29c3,0,5.95,0,8.67,0c1.71,3.31-1.06,4.28-2.3,6.1c-2.98,0.15-0.87-2.92-2.39-3.77
	C280.68,45.85,277.89,47.01,278.08,44.29z"/>
<path class="st48" d="M368.19,157.49c4.33,0,8.66,0,12.99,0C376.95,160.25,372.5,158.84,368.19,157.49z"/>
<path class="st93" d="M181.58,39.28c0-0.77,0-1.54,0-2.31c3.49-0.58,7.6,1.62,10.37-2.29c1.31,1.11,1.49,2.42,0.3,4.6
	C188.97,39.28,185.28,39.28,181.58,39.28z"/>
<path class="st31" d="M160.9,30.03c-0.77,0-1.53,0-2.3,0c-0.56-2.52-2.09-4.06-4.6-4.62c0.35-1.75-1.14-4.42,2.3-4.62
	c-0.06,1.6,0.71,2.37,2.3,2.31C158.93,25.56,162.02,27.09,160.9,30.03z"/>
<path class="st94" d="M71.26,323.44c-1.07,2.23-2.15,4.47-3.22,6.71c-1.85-1.17-3.38-2.57-3.86-4.13c0.84-3.65,3.15-2.25,4.78-2.58
	C69.73,323.44,70.49,323.44,71.26,323.44z"/>
<path class="st0" d="M250.54,6.93c0,0.77,0,1.54,0,2.31c-0.76,4.8-4.34,0.47-5.5,2.47c-2.08-1.74-1.11-3.37-1.39-4.78
	C245.94,6.93,248.24,6.93,250.54,6.93z"/>
<path class="st85" d="M199.97,371.96c3.65,0.38,1.24-3.77,3.87-4.71c1.57,3.8,0.2,7.56,1.01,12.01c-1.6-0.98-2.17-1.21-2.56-1.61
	c-0.18-0.19-0.03-0.7-0.03-1.07C201.5,375.04,200.74,373.5,199.97,371.96z"/>
<path class="st91" d="M199.97,371.96c0.77,1.54,1.53,3.08,2.3,4.62c-4.43,1.08-1.42,4.66-2.3,6.93c-2.04,0.15-2.3-1.19-2.3-2.76
	c0.01-2.93,0-5.86,0-8.79C198.44,371.96,199.21,371.96,199.97,371.96z"/>
<path class="st95" d="M18.4,187.13c-0.77,0-1.53,0-2.3,0c-2.04,0.15-2.3-1.19-2.3-2.76c0.01-2.93,0-5.86,0-8.79c0.77,0,1.53,0,2.3,0
	C16.16,179.58,15.38,183.74,18.4,187.13z"/>
<path class="st2" d="M245.84,377.74c3.47-0.25,4.64-3.07,5.74-5.98c1.97,2.26,0.89,4.21,1.28,6.04
	C250.54,379.56,248.24,379.56,245.84,377.74z"/>
<path class="st85" d="M363.16,187.13c-3.3-3.77-3.3-7.78,0-11.55C363.16,179.43,363.16,183.28,363.16,187.13z"/>
<path class="st0" d="M241.34,4.62c0,0.77,0,1.54,0,2.31c-2.05,0.13-4.5-0.84-5.16,2.36c-1.97-1.41-3.75-2.41-4.03-4.67
	C235.21,4.62,238.28,4.62,241.34,4.62z"/>
<path class="st96" d="M268.53,356.24c-2.84-1.71-1.24-5.13-4.18-6.07c1.08-1.36,2.1-2.65,4.18-5.28
	C268.53,349.85,268.53,352.82,268.53,356.24z"/>
<path class="st59" d="M335.58,97.03c0.77,0,1.53,0,2.3,0c0,2.17-0.01,4.35,0,6.52c0.01,1.58-0.31,2.86-2.3,2.72
	c0.06-1.6-0.71-2.37-2.3-2.31C333.61,101.51,336.7,99.98,335.58,97.03z"/>
<path class="st97" d="M50.57,136.31c0-3.08,0-6.16,0-9.24C53.68,129.99,53.68,133.39,50.57,136.31z"/>
<path class="st98" d="M257.24,368.29c2.41,2.44,3.48,3.53,4.69,4.75c-1.01,1.28-2.03,2.57-3.14,3.97
	C256.72,374.17,257.74,371.83,257.24,368.29z"/>
<path class="st99" d="M220.66,25.41c-0.37-3.58,0.97-6.03,4.6-6.93C225.62,22.07,224.29,24.51,220.66,25.41z"/>
<path class="st100" d="M163.99,358.35c0.9-0.04,1.91-0.09,3.39-0.16c-0.95,2.33-1.78,4.37-2.93,7.21
	C162.82,362.83,162.77,360.78,163.99,358.35z"/>
<path class="st54" d="M314.89,85.48c3.06,0,6.13,0,9.19,0C321.18,88.61,317.8,88.61,314.89,85.48z"/>
<path class="st101" d="M225.25,18.48c-0.77-1.54-1.53-3.08-2.3-4.62c2.14,0,4.28,0,6.83,0C228.74,16.63,227.44,18.03,225.25,18.48z"
	/>
<path class="st77" d="M124.08,344.15c1.42,0.11,2.8,0.22,4.5,0.35c-1.18,2.47-2.15,4.48-3.15,6.58
	C122.87,349.16,124.65,346.47,124.08,344.15z"/>
<path class="st24" d="M248.45,360.56c-3.01-1.57-5.03-2.61-7.07-3.67c1.89-1.94,4.04-1.05,6.05-0.72
	C248.7,356.98,248.09,358.21,248.45,360.56z"/>
<path class="st25" d="M346.95,263.81c2.99-0.32,5.18-1.34,7.04,0.74c-2.08,1.02-4.13,2.03-6.17,3.03
	C346.61,266.8,347.22,265.57,346.95,263.81z"/>
<path class="st102" d="M337.88,286.62c0-1.24,0-2.33,0-3.48c2.06-2.22,4.31-1.75,6.94-0.28
	C342.4,284.17,340.17,285.38,337.88,286.62z"/>
<path class="st37" d="M165.5,39.28c0-0.77,0-1.54,0-2.31c2.27,1.16,4.53,2.33,7.56,3.89C169.74,41.16,166.92,43.59,165.5,39.28z"/>
<path class="st83" d="M117.23,341.92c-0.77,0-1.53,0-2.3,0c2.31-3.17,4.58-3.17,6.9,0C120.29,341.92,118.76,341.92,117.23,341.92z"
	/>
<path class="st103" d="M103.18,356.69c1.68-0.61,3.37-1.21,4.76-1.71C109.31,357.49,107.24,357.95,103.18,356.69z"/>
<path d="M54.03,267.68c1.55,2.75,1.55,4.8,0.01,7.54C52.56,272.69,52.36,270.64,54.03,267.68z"/>
<path class="st19" d="M370.06,263.37c0.77,0,1.53,0,2.3,0c-1.42,4.31-4.24,1.88-6.78,1.65
	C366.54,262.39,368.57,263.73,370.06,263.37z"/>
<path class="st19" d="M314.79,330.67c0.12-1.66,0.22-3.03,0.32-4.45c2.3,0.04,2.87,1.93,4.18,2.79
	C318.43,331.44,316.32,329.79,314.79,330.67z"/>
<path class="st24" d="M144.47,372.61c1.06,4.18-0.69,4.59-5.31,2.88C141.37,374.28,142.87,373.47,144.47,372.61z"/>
<path class="st22" d="M36.8,120.22c-1.38-0.1-2.74-0.2-3.8-0.28c-1.21-1.73-0.97-2.96-0.09-4.22
	C34.81,116.79,36.44,117.9,36.8,120.22z"/>
<path class="st1" d="M64.07,307.17c1.66,0.12,3.01,0.22,4.42,0.33c-0.04,2.32-1.92,2.89-2.78,4.2
	C63.3,310.82,64.95,308.7,64.07,307.17z"/>
<path class="st80" d="M363.16,110.89c2.51,0.56,4.04,2.1,4.6,4.62c-0.77,0-1.53,0-2.3,0C362.02,115.32,363.51,112.65,363.16,110.89z
	"/>
<path class="st19" d="M36.78,164.03c1.53,0,3.06,0,4.6,0c0,1.54,0,3.08,0,4.62c-1.53-0.77-3.06-1.54-4.6-2.31
	C36.78,165.57,36.78,164.8,36.78,164.03z"/>
<path class="st45" d="M46.33,300.62c1.75,0,3.86,0,6.47,0C48.98,302.77,48.98,302.77,46.33,300.62z"/>
<path class="st104" d="M289.61,36.97c-1.74-0.35-4.4,1.15-4.6-2.31C286.76,35,289.41,33.51,289.61,36.97z"/>
<path class="st13" d="M289.24,35.71c3.09,2.63,3.28,4.1,1.74,5.7C288.56,40.51,290.02,38.45,289.24,35.71z"/>
<path class="st96" d="M271.22,360.41c-0.77,0-1.53,0-2.3,0c0-1.54,0-3.08,0-4.62C272.36,355.98,270.88,358.66,271.22,360.41z"/>
<path class="st95" d="M130.09,48.68c1.43,1.6,1.51,3.87-0.34,4.25c-2.35,0.48-0.34-2.05-0.96-3.07
	C128.73,49.78,129.62,49.11,130.09,48.68z"/>
<path class="st88" d="M278.12,57.76c-1.74-0.35-4.4,1.15-4.6-2.31C275.26,55.8,277.92,54.3,278.12,57.76z"/>
<path d="M333.28,103.96c1.59-0.06,2.36,0.71,2.3,2.31c0.07,1.12-0.12,2.19-1.54,1.81c-0.39-0.1-0.61-1.2-0.73-1.87
	C333.19,105.48,333.28,104.71,333.28,103.96z"/>
<path class="st0" d="M390.74,256.44c-0.77,0-1.53,0-2.3,0c0.35-1.75-1.14-4.42,2.3-4.62C390.74,253.36,390.74,254.9,390.74,256.44z"
	/>
<path class="st100" d="M36.78,120.14c1.74,0.35,4.4-1.15,4.6,2.31C39.64,122.1,36.98,123.59,36.78,120.14z"/>
<path class="st81" d="M41.38,122.45c1.74,0.35,4.4-1.15,4.6,2.31C44.24,124.41,41.58,125.9,41.38,122.45z"/>
<path class="st0" d="M11.5,263.37c0-1.54,0-3.08,0-4.62c3.44,0.2,1.95,2.87,2.3,4.62C13.03,263.37,12.27,263.37,11.5,263.37z"/>
<path d="M315.04,317.61c-1.77,1.65-3.04,1.57-4.47,0.42C311.45,315.48,312.92,316.19,315.04,317.61z"/>
<path class="st81" d="M45.98,124.76c1.74,0.35,4.4-1.15,4.6,2.31C48.83,126.72,46.17,128.21,45.98,124.76z"/>
<path d="M64.2,320.2c-1.59,1.44-3.85,1.52-4.23-0.34c-0.48-2.36,2.04-0.34,3.05-0.97C63.11,318.83,63.77,319.72,64.2,320.2z"/>
<path class="st0" d="M9.2,143.24c0.77,0,1.53,0,2.3,0c-0.35,1.75,1.14,4.42-2.3,4.62C9.2,146.32,9.2,144.78,9.2,143.24z"/>
<path class="st0" d="M388.44,143.24c0.77,0,1.53,0,2.3,0c0,1.54,0,3.08,0,4.62C387.3,147.66,388.79,144.99,388.44,143.24z"/>
<path class="st0" d="M6.9,152.48c0.77,0,1.53,0,2.3,0c-0.35,1.75,1.14,4.42-2.3,4.62C6.9,155.56,6.9,154.02,6.9,152.48z"/>
<path class="st0" d="M16.1,270.31c-0.77,0-1.53,0-2.3,0c0-1.54,0-3.08,0-4.62C17.24,265.88,15.75,268.55,16.1,270.31z"/>
<path class="st0" d="M393.04,152.48c0,1.54,0,3.08,0,4.62c-3.44-0.2-1.95-2.87-2.3-4.62C391.51,152.48,392.27,152.48,393.04,152.48z
	"/>
<path class="st0" d="M133.32,13.86c0-0.77,0-1.54,0-2.31c1.53,0,3.06,0,4.6,0C137.72,15.01,135.06,13.51,133.32,13.86z"/>
<path class="st0" d="M250.54,392.75c-1.53,0-3.06,0-4.6,0c0.2-3.46,2.85-1.96,4.6-2.31C250.54,391.21,250.54,391.98,250.54,392.75z"
	/>
<path class="st96" d="M43.68,295.72c3.44,0.2,1.95,2.87,2.3,4.62C42.54,300.14,44.03,297.47,43.68,295.72z"/>
<path class="st71" d="M71.26,300.34c0-0.77,0-1.54,0-2.31c3.44,0.2,1.95,2.87,2.3,4.62C71.97,302.71,71.2,301.94,71.26,300.34z"/>
<path class="st88" d="M282.73,57.75c-0.2-1.11,0.31-1.81,1.36-2.05c0.18-0.04,0.72,0.5,0.68,0.68
	C284.52,57.44,283.83,57.95,282.73,57.75z"/>
<path class="st79" d="M333.28,304.96c1.59-0.06,2.36,0.71,2.3,2.31C333.99,307.33,333.22,306.56,333.28,304.96z"/>
<path class="st66" d="M273.52,55.45c-1.59,0.06-2.36-0.71-2.3-2.31C272.81,53.08,273.58,53.85,273.52,55.45z"/>
<path class="st105" d="M126.42,55.45c-0.06-1.6,0.71-2.37,2.3-2.31C128.78,54.74,128.01,55.51,126.42,55.45z"/>
<path d="M36.78,184.82c0.77,0,1.53,0,2.3,0c0.06,1.6-0.71,2.37-2.3,2.31C36.78,186.36,36.78,185.59,36.78,184.82z"/>
<path class="st35" d="M57.47,316.51c1.59-0.06,2.36,0.71,2.3,2.31C58.18,318.88,57.41,318.11,57.47,316.51z"/>
<path class="st106" d="M365.46,189.44c-1.59,0.06-2.36-0.71-2.3-2.31C364.75,187.08,365.52,187.85,365.46,189.44z"/>
<path class="st30" d="M57.46,316.5c-1.1,0.2-1.8-0.31-2.04-1.37c-0.04-0.18,0.5-0.72,0.68-0.68
	C57.15,314.69,57.66,315.39,57.46,316.5z"/>
<path class="st87" d="M301.09,43.89c-1.1,0.2-1.8-0.31-2.04-1.37c-0.04-0.18,0.5-0.72,0.68-0.68
	C300.78,42.08,301.29,42.78,301.09,43.89z"/>
<path class="st107" d="M75.86,316.51c0.06,1.6-0.71,2.37-2.3,2.31C73.5,317.22,74.27,316.45,75.86,316.51z"/>
<path class="st83" d="M112.63,34.65c0.06,1.6-0.71,2.37-2.3,2.31C110.28,35.37,111.04,34.6,112.63,34.65z"/>
<path class="st0" d="M121.83,18.48c0-0.77,0-1.54,0-2.31c0.77,0,1.53,0,2.3,0C124.18,17.77,123.42,18.54,121.83,18.48z"/>
<path class="st108" d="M321.79,316.51c1.59-0.06,2.36,0.71,2.3,2.31C322.5,318.88,321.73,318.11,321.79,316.51z"/>
<path class="st87" d="M41.37,150.16c-1.1,0.2-1.8-0.31-2.04-1.37c-0.04-0.18,0.5-0.72,0.68-0.68
	C41.06,148.35,41.57,149.05,41.37,150.16z"/>
<path class="st68" d="M376.96,143.25c1.1-0.2,1.8,0.31,2.04,1.37c0.04,0.18-0.5,0.72-0.68,0.68
	C377.27,145.06,376.76,144.36,376.96,143.25z"/>
<path class="st109" d="M73.56,318.82c0.06,1.6-0.71,2.37-2.3,2.31C71.2,319.53,71.97,318.76,73.56,318.82z"/>
<path class="st110" d="M91.94,321.12c-1.1,0.2-1.8-0.31-2.04-1.37c-0.04-0.18,0.5-0.72,0.68-0.68
	C91.63,319.31,92.13,320.01,91.94,321.12z"/>
<path class="st109" d="M71.26,323.44c-0.77,0-1.53,0-2.3,0c-0.06-1.6,0.71-2.37,2.3-2.31C71.26,321.9,71.26,322.67,71.26,323.44z"/>
<path class="st110" d="M91.95,321.13c1.12-0.08,2.13,0.15,1.82,1.53c-0.09,0.38-1.19,0.53-1.82,0.78
	C91.95,322.67,91.95,321.9,91.95,321.13z"/>
<path d="M374.65,224.1c0.77,0,1.53,0,2.3,0c0.08,1.12-0.15,2.15-1.52,1.83C375.05,225.85,374.9,224.74,374.65,224.1z"/>
<path class="st87" d="M34.49,175.58c-0.06-1.6,0.71-2.37,2.3-2.31c0,0.77,0,1.54,0,2.31C36.02,175.58,35.25,175.58,34.49,175.58z"/>
<path class="st110" d="M91.95,323.44c0.06,1.6-0.71,2.37-2.3,2.31C89.59,324.15,90.36,323.38,91.95,323.44z"/>
<path class="st4" d="M89.65,325.75c0.06,1.6-0.71,2.37-2.3,2.31C87.29,326.46,88.06,325.69,89.65,325.75z"/>
<path class="st80" d="M365.45,117.84c0.2,1.11-0.31,1.81-1.36,2.05c-0.18,0.04-0.72-0.5-0.68-0.68
	C363.65,118.15,364.35,117.64,365.45,117.84z"/>
<path d="M365.46,115.52c0.77,0,1.53,0,2.3,0c0.06,1.6-0.71,2.37-2.3,2.31C365.46,117.06,365.46,116.29,365.46,115.52z"/>
<path class="st42" d="M87.35,328.06c0.06,1.6-0.71,2.37-2.3,2.31C84.99,328.77,85.76,328,87.35,328.06z"/>
<path class="st15" d="M45.98,97.03c0.06,1.6-0.71,2.37-2.3,2.31C43.62,97.74,44.39,96.97,45.98,97.03z"/>
<path class="st54" d="M312.59,83.17c0,0.77,0,1.54,0,2.31c-1.59,0.06-2.36-0.71-2.3-2.31C311.06,83.17,311.83,83.17,312.59,83.17z"
	/>
<path class="st5" d="M312.59,83.17c-0.77,0-1.53,0-2.3,0c0-0.77,0-1.54,0-2.31C311.89,80.8,312.65,81.57,312.59,83.17z"/>
<path class="st107" d="M105.74,332.68c-1.59,0.06-2.36-0.71-2.3-2.31C105.03,330.31,105.8,331.08,105.74,332.68z"/>
<path d="M327.53,330.39c1.07,0.76,1.07,1.53,0,2.29C326.46,331.91,326.46,331.14,327.53,330.39z"/>
<path class="st111" d="M103.44,71.62c-0.77,0-1.53,0-2.3,0c-0.06-1.6,0.71-2.37,2.3-2.31C103.44,70.08,103.44,70.85,103.44,71.62z"
	/>
<path class="st112" d="M73.57,69.32c1.1-0.2,1.8,0.31,2.04,1.37c0.04,0.18-0.5,0.72-0.68,0.68C73.88,71.13,73.37,70.43,73.57,69.32z
	"/>
<path class="st108" d="M124.12,344.23c-1.59,0.06-2.36-0.71-2.3-2.31C123.42,341.87,124.18,342.64,124.12,344.23z"/>
<path d="M282.72,57.76c0.06,1.6-0.71,2.37-2.3,2.31c0-0.77,0-1.54,0-2.31C281.18,57.76,281.95,57.76,282.72,57.76z"/>
<path class="st88" d="M280.42,57.76c0,0.77,0,1.54,0,2.31c-1.59,0.06-2.36-0.71-2.3-2.31C278.88,57.76,279.65,57.76,280.42,57.76z"
	/>
<path class="st75" d="M330.98,302.65c1.59-0.06,2.36,0.71,2.3,2.31C331.69,305.02,330.92,304.25,330.98,302.65z"/>
<path class="st0" d="M213.76,2.31c-0.56,8.09-0.56,8.09-8.89,9.87c-0.16,1.73-0.34,3.54-0.65,6.79c-2.18-2.02-3.87-3.58-5.74-5.31
	c-4.09,1.22-7.71-0.67-11.53-2.77c-0.47-2.74-3.92-4.89-3.07-8.59c1.53,0,3.06,0,4.6,0c7.66,0,15.32,0,22.98,0
	C212.23,2.31,213,2.31,213.76,2.31z"/>
<path class="st0" d="M395.34,177.89c0,4.5,0,8.99,0,13.04c-1.76,0.96-2.79,1.05-3.97,0.28c-1.31-1.89-0.67-4.24-0.54-6.39
	c0.14-2.26-3.12-2.46-1.85-6.04c1.26-1.52,3.1-4.25,6.36-5.51C395.34,174.81,395.34,176.35,395.34,177.89z"/>
<path class="st0" d="M179.29,13.86c-2.3,0-4.6,0-6.9,0c-5.09-1.29-4.78-5.3-4.6-9.24c1.53,0,3.06,0,4.6,0c2.12,0,4.24,0,6.9,0
	C179.29,8.1,179.29,10.98,179.29,13.86z"/>
<path class="st0" d="M160.9,6.93c4.28,1.47,1.9,4.29,1.56,7.02c-4.76-0.24-6.34-2.84-6.15-7.02C157.83,6.93,159.37,6.93,160.9,6.93z
	"/>
<path class="st113" d="M298.8,205.62c0.29,8.94-2.48,17.34-5.84,25.26c-5.44,12.8-11.25,25.53-19.46,36.9
	c-3.65,5.05-6.97,10.46-11.29,14.86c-10.6,10.79-20.5,22.4-33.06,31.07c-9.48,6.55-19.11,12.9-28.48,19.21
	c-9.95-4.17-17.28-11.41-25.58-17.18c-14.44-10.05-26.1-23.23-37.8-36.08c-10.41-11.42-17.86-25.21-24.75-39.19
	c-6.02-12.24-8.63-25.62-13.59-38.19c1.35-6.85-2.68-13.04-2.42-19.76c1.59,0.06,2.36-0.71,2.3-2.31c3.15,0.03,2.33,2.47,2.25,4.12
	c-0.46,9.68,2.02,18.94,4.8,27.95c3.76,12.17,7.45,24.65,13.86,35.59c8.7,14.84,18.4,29.19,31.03,41.21
	c7.33,6.98,14.16,14.45,22.49,20.39c8.83,6.31,16.66,14.04,26.7,18.6c4.12-2.82,8.9-4.27,13.1-7.15
	c16.64-11.39,32.29-23.95,45.44-39.25c7.5-8.72,14.02-18.32,19.71-28.49c8.4-15.02,14.65-30.75,18.28-47.56
	C297.27,205.62,298.04,205.62,298.8,205.62z"/>
<path class="st114" d="M96.54,136.31c-1.17-7.22,4.13-13.41,1.93-21.82c17.65,8.37,34.34,15.62,52.49,11.86
	c17.46-3.61,33.59-11.01,45.69-24.82c2.17,0.75,5.19-1.4,5.61,2.44c-1.74,0.35-4.4-1.15-4.6,2.31c-1.45-0.37-1.99,0.88-2.75,1.63
	c-14.68,14.51-32.08,22.26-52.9,21.48c-1.52-0.06-3.06-0.11-4.57,0.01c-10.82,0.84-20.68-2.55-30.3-6.95
	c-1.79-0.82-2.86-4.22-6.01-1.17c0,4.53,0.01,9.45,0,14.38c0,1.57-0.04,3.14-2.29,2.96C98.9,137.02,98.13,136.25,96.54,136.31z"/>
<path class="st115" d="M298.8,205.62c-0.77,0-1.53,0-2.3,0c0-1.53-0.62-3.54,0.11-4.51c2.75-3.65,2.64-7.8,2.05-11.74
	c-0.7-4.73,2.8-8.2,2.57-12.85c-0.47-9.54-0.47-19.14-0.05-28.69c0.41-9.37-4.17-18.04-2.13-27.95c-8.52,2.63-15.88,4.91-23.24,7.18
	c0-0.77,0-1.54,0-2.31c0-0.77,0-1.54,0-2.31c5.59-0.43,15.75-3.84,20.69-6.93c1.14,0,2.28,0,3.45,0c2.79,6.47,4.12,13.22,3.42,20.26
	c-0.94,9.37,4.18,18.23,2.3,27.63c-2.15,10.72-0.84,21.89-4.45,32.45c-0.82,2.39-0.02,5.3-0.16,7.96
	C301,205,300.24,205.88,298.8,205.62z"/>
<path class="st116" d="M275.82,124.76c0,0.77,0,1.54,0,2.31c-3.55-1.09-5.66,3.01-9.29,2.42c-3.32-0.54-6.8-0.11-10.2-0.11
	c-2.27,0-4.57-0.23-6.81,0.04c-7.93,0.94-14.68-2.62-21.62-5.48c-10.33-4.26-18.73-11.61-27.93-17.67c-0.77,0-1.53,0-2.3,0
	c0.2-3.46,2.85-1.96,4.6-2.31c2.4-0.34,4.13,0.48,5.88,2.33c7.8,8.24,17.4,13.28,28.03,17.29c4.47,1.69,10.03-1.63,13.3,3.48
	c4.58-0.87,9.5,1.85,13.98-2.1c1.5-1.32,5.11-0.21,7.76-0.21C272.76,124.76,274.29,124.76,275.82,124.76z"/>
<path d="M296.51,115.52c-4.94,3.1-15.1,6.5-20.69,6.93c0-3.44,0-6.87,0-10.31c2.16-1.18,4.32-2.35,6.55-3.56
	c3.4,1.8,7.45,2.65,9.92,6.14C293.4,116.29,295.1,115.21,296.51,115.52z"/>
<path class="st117" d="M96.54,136.31c1.59-0.06,2.36,0.71,2.3,2.31c0,13.86,0,27.72,0,41.59c0.06,1.6-0.71,2.37-2.3,2.31
	C96.54,167.11,96.54,151.71,96.54,136.31z"/>
<path d="M275.82,124.76c-1.53,0-3.06,0-4.6,0c0.2-3.46,2.85-1.96,4.6-2.31C275.82,123.22,275.82,123.99,275.82,124.76z"/>
<path class="st0" d="M41.38,254.13c-2.71,2.19-5.87,2.59-9.19,2.31c-3.57-4.95-3.57-4.95-4.6-9.98c1.46-4.09,7.26,1.47,7.69-4.24
	C39.04,245.89,41.23,249.51,41.38,254.13z"/>
<path class="st118" d="M220.66,374.27c0.27-2.3-0.42-4.02-2.07-5.84c-0.87-0.96-0.15-3.37-0.15-5.71c2.59,0,4.7,0,6.82,0
	c0,3.08,0,6.16,0,9.24C225.06,375.41,222.4,373.92,220.66,374.27z"/>
<path class="st49" d="M225.25,371.96c0-3.08,0-6.16,0-9.24c0.77,0,1.53,0,2.3,0C231.3,366.91,231.12,367.64,225.25,371.96z"/>
<path class="st0" d="M34.49,175.58c0.77,0,1.53,0,2.3,0c0,3.08,0,6.16,0,9.24c0,0.77,0,1.54,0,2.31c-3.38,3.04-7.52,2.25-11.49,2.31
	c0-2.86,0-5.71,0-7.9C27.93,177.87,31.8,177.71,34.49,175.58z"/>
<path class="st0" d="M32.19,166.34c0.77,0,1.53,0,2.3,0c0,1.36,0,2.73,0,3.78c-4.34,2.18-4.81-1.41-6.37-3.78
	C29.47,166.34,30.83,166.34,32.19,166.34z"/>
<path class="st18" d="M16.1,173.27c0.55-3.21,2.32-2.68,4.33-1.48c-0.2,1.23-0.93,1.63-2.04,1.48
	C17.63,173.27,16.86,173.27,16.1,173.27z"/>
<path class="st95" d="M16.1,173.27c0.77,0,1.53,0,2.3,0c0.06,1.6-0.71,2.37-2.3,2.31C16.1,174.81,16.1,174.04,16.1,173.27z"/>
<path class="st119" d="M181.58,362.72c3.92,6.75,3.63,12.97-2.3,18.48c-1.13,0-2.27,0-4,0c0-5.06,0-10.17,0-15.66
	C176.71,363.87,178.46,361.85,181.58,362.72z"/>
<path class="st120" d="M50.57,108.58c-0.06-1.6,0.71-2.37,2.3-2.31C52.93,107.87,52.17,108.64,50.57,108.58z"/>
<path class="st54" d="M308,48.52c-0.3,8.89-0.35,8.94-9.19,9.24c-0.85-3.5,2.59-5.56,2.93-9.24C303.79,48.52,305.89,48.52,308,48.52
	z"/>
<path class="st121" d="M103.44,69.31c-1.59-0.06-2.36,0.71-2.3,2.31c-2.3,0-4.6,0-6.9,0c-4.04-1.6-5.98-5.59-9.19-7.95
	c0-3.64,0-7.08,0-10.53c2.64,0.29,5-0.26,6.11-2.9c2.35,1.27,3.86,2.08,5.38,2.9C103.25,56.63,103.67,62.83,103.44,69.31z"/>
<path class="st122" d="M365.46,189.44c0.06-1.6-0.71-2.37-2.3-2.31c0-3.85,0-7.7,0-11.55c3.55,1.09,5.67-3.06,9.31-2.42
	c2.94,0.52,6.05,0.11,9.08,0.11c3.22,4.62,3.22,9.24,0,13.86C376.62,190.95,370.87,188.98,365.46,189.44z"/>
<path d="M199.97,106.27c9.2,6.06,17.6,13.41,27.93,17.67c6.94,2.86,13.69,6.42,21.62,5.48c2.24-0.27,4.54-0.04,6.81-0.04
	c3.41,0,6.88-0.42,10.2,0.11c3.63,0.59,5.74-3.52,9.29-2.42c7.36-2.27,14.72-4.55,23.24-7.18c-2.04,9.92,2.54,18.59,2.13,27.95
	c-0.42,9.55-0.42,19.15,0.05,28.69c0.23,4.64-3.28,8.12-2.57,12.85c0.59,3.93,0.7,8.08-2.05,11.74c-0.73,0.97-0.11,2.98-0.11,4.51
	c-3.63,16.81-9.88,32.55-18.28,47.56c-5.69,10.17-12.21,19.77-19.71,28.49c-13.15,15.29-28.8,27.86-45.44,39.25
	c-4.2,2.88-8.98,4.33-13.1,7.15c0-46.21,0-92.41,0-138.62c1.85-6.93,7.14-12.89,6.57-20.77c-1.82,0.08-3.02-0.48-3.79,0.64
	c-1.63,1.83,1.6,5.73-2.78,6.26C199.97,152.48,199.97,129.38,199.97,106.27z M235.8,165.12c-5.36-5.48-11.35-2.77-17.2-3.5
	c0,8.12,0,15.32,0,22.73c5.38,0,10.52,0,15.36,0C239.34,178.12,241.07,171.94,235.8,165.12z M267.01,161.92c0,7.64,0,15.07,0,22.7
	c1.41,0,2.44,0,3.84,0c0-7.64,0-15.07,0-22.7C269.43,161.92,268.4,161.92,267.01,161.92z M250.93,161.94c0,7.65,0,15.09,0,22.67
	c1.42,0,2.45,0,3.81,0c0-7.65,0-15.09,0-22.67C253.32,161.94,252.29,161.94,250.93,161.94z M242.46,180.21
	c-1.63,1.56-1.68,3.1,0.07,4.63c1.05-0.17,2.3,0.48,3.09-0.91C246.63,181.06,245.43,179.92,242.46,180.21z M263.21,184.82
	c1.63-1.56,1.68-3.1-0.07-4.63c-1.05,0.17-2.3-0.48-3.09,0.91C259.04,183.97,260.25,185.1,263.21,184.82z"/>
<path class="st123" d="M199.97,106.27c0,23.1,0,46.21,0,69.31c0,0.38,0.16,0.92-0.03,1.1c-0.41,0.38-0.99,0.58-2.4,1.33
	c0.66-5.13-0.3-9.06-6.26-9.43c1.37,6.55,4.41,11.88,6.53,17.01c-1.37,2.38-4.37,0.5-4.7,3.26c-0.19,1.11,0.07,2.13,1.04,2.84
	c2.84,1.54,3.45-2.59,5.81-2.24c0,46.21,0,92.41,0,138.62c-10.04-4.56-17.87-12.29-26.7-18.6c-8.32-5.95-15.15-13.41-22.49-20.39
	c-12.62-12.02-22.32-26.37-31.03-41.21c-6.41-10.94-10.11-23.42-13.86-35.59c-2.78-9.01-5.27-18.27-4.8-27.95
	c0.08-1.65,0.9-4.09-2.25-4.12c0-13.86,0-27.72,0-41.59c2.25,0.18,2.29-1.4,2.29-2.96c0.01-4.93,0-9.86,0-14.38
	c3.15-3.06,4.22,0.35,6.01,1.17c9.62,4.4,19.48,7.79,30.3,6.95c1.52-0.12,3.05-0.07,4.57-0.01c20.83,0.78,38.22-6.96,52.9-21.48
	c0.76-0.75,1.3-2,2.75-1.63C198.44,106.27,199.21,106.27,199.97,106.27z M165.5,173.27c-0.77,1.54-1.53,3.08-2.3,4.62
	c-0.89,3.19,1.23,4.92,3.18,6.66c3.37,0,6.69,0,9.88,0c1.76-2.7,5.21-3.76,5.37-6.73c-2.02-7.46-10.54-5.22-13.72-10.43
	c3.46-2.83,6.06,0.15,8.97,1.21c0.51,0.19,1.31-0.41,2.16-0.71c1.28-3.33-1.77-4.37-2.97-5.7c-3.73,0-7.05,0-9.36,0
	C160.81,166.08,163.56,169.68,165.5,173.27z M135.47,173.14c1.26-2.36,2.55-4.76,3.47-6.48c5.02-1.58,8.03,4.71,11.81,1.69
	c-1.68-2.2-3.42-4.47-4.81-6.29c-5.26-1.6-8.82,1.28-12.44,3.2c-4.37,7.18-2.61,13.33,2.85,19.26c3.13,0,6.47,0,9.04,0
	c2.38-1.98,4.4-3.67,6.43-5.35c-1.33-1.34-2.41-2.43-3.67-3.69c-2.38,2.94-4.84,5.92-9.33,4.45
	C137.76,177.77,136.65,175.54,135.47,173.14z M154,183.7c1.55,1.65,3.09,1.69,4.61-0.07c-0.17-1.06,0.48-2.32-0.91-3.11
	c-1.38-0.62-2.68-0.49-3.7,0.9C154,182.17,154,182.92,154,183.7z"/>
<path class="st70" d="M235.8,165.12c5.27,6.82,3.54,13-1.85,19.23c-4.84,0-9.97,0-15.36,0c0-7.41,0-14.61,0-22.73
	C224.45,162.34,230.43,159.64,235.8,165.12z M223.33,166.54c0,5.08,0,9.19,0,13.66c1.83,0,3.3,0.02,4.76-0.01
	c1.45-0.03,3.04,0.39,3.69-0.62c0-4.66,0-8.77,0-13.04C228.85,166.54,226.3,166.54,223.33,166.54z"/>
<path class="st124" d="M199.97,189.44c-2.36-0.35-2.97,3.79-5.81,2.24c-0.97-0.71-1.24-1.73-1.04-2.84c0.32-2.76,3.33-0.88,4.7-3.26
	c-2.12-5.13-5.16-10.46-6.53-17.01c5.96,0.38,6.92,4.31,6.26,9.43c1.4-0.75,1.99-0.95,2.4-1.33c0.19-0.18,0.03-0.72,0.03-1.1
	c4.38-0.53,1.15-4.43,2.78-6.26c0.77-1.12,1.97-0.56,3.79-0.64C207.11,176.55,201.82,182.51,199.97,189.44z"/>
<path class="st125" d="M267.01,161.92c1.4,0,2.43,0,3.84,0c0,7.62,0,15.06,0,22.7c-1.4,0-2.43,0-3.84,0
	C267.01,177,267.01,169.56,267.01,161.92z"/>
<path class="st126" d="M250.93,161.94c1.36,0,2.39,0,3.81,0c0,7.59,0,15.02,0,22.67c-1.36,0-2.39,0-3.81,0
	C250.93,177.02,250.93,169.59,250.93,161.94z"/>
<path class="st127" d="M242.46,180.21c2.96-0.28,4.17,0.85,3.16,3.72c-0.79,1.39-2.04,0.74-3.09,0.91
	C240.79,183.31,240.83,181.76,242.46,180.21z"/>
<path class="st128" d="M263.21,184.82c-2.96,0.28-4.17-0.85-3.16-3.72c0.79-1.39,2.04-0.74,3.09-0.91
	C264.89,181.72,264.84,183.26,263.21,184.82z"/>
<path class="st129" d="M165.5,173.27c-1.94-3.59-4.68-7.19,1.2-11.09c2.3,0,5.62,0,9.36,0c1.2,1.33,4.25,2.37,2.97,5.7
	c-0.85,0.3-1.64,0.9-2.16,0.71c-2.91-1.06-5.5-4.04-8.97-1.21c3.19,5.22,11.7,2.97,13.72,10.43c-0.16,2.97-3.61,4.03-5.37,6.73
	c-3.18,0-6.51,0-9.88,0c-1.95-1.74-4.07-3.47-3.18-6.66c4.54-0.46,8.71,5.07,13.58,1.04C174.21,174.3,168.57,176.44,165.5,173.27z"
	/>
<path class="st130" d="M135.47,173.14c1.19,2.4,2.29,4.63,3.36,6.79c4.49,1.48,6.94-1.51,9.33-4.45c1.25,1.26,2.34,2.35,3.67,3.69
	c-2.02,1.68-4.05,3.37-6.43,5.35c-2.58,0-5.92,0-9.04,0c-5.46-5.93-7.22-12.08-2.85-19.26c3.63-1.92,7.19-4.8,12.44-3.2
	c1.39,1.82,3.13,4.09,4.81,6.29c-3.78,3.02-6.79-3.28-11.81-1.69C138.01,168.38,136.73,170.78,135.47,173.14z"/>
<path class="st131" d="M165.5,173.27c3.08,3.16,8.71,1.03,11.29,5.66c-4.88,4.03-9.05-1.5-13.58-1.04
	C163.96,176.35,164.73,174.81,165.5,173.27z"/>
<path class="st132" d="M154,183.7c0-0.78,0-1.53,0-2.28c1.02-1.39,2.32-1.53,3.7-0.9c1.39,0.8,0.74,2.05,0.91,3.11
	C157.09,185.39,155.56,185.34,154,183.7z"/>
<path class="st50" d="M223.33,166.54c2.97,0,5.52,0,8.45,0c0,4.27,0,8.37,0,13.04c-0.65,1-2.23,0.59-3.69,0.62
	c-1.46,0.03-2.93,0.01-4.76,0.01C223.33,175.74,223.33,171.63,223.33,166.54z"/>
</svg>
