<?xml version="1.0" encoding="utf-8"?>
<!-- Generator: Adobe Illustrator 23.1.0, SVG Export Plug-In . SVG Version: 6.00 Build 0)  -->
<svg version="1.1" id="Capa_1" xmlns="http://www.w3.org/2000/svg" xmlns:xlink="http://www.w3.org/1999/xlink" x="0px" y="0px"
	 viewBox="0 0 400 400" style="enable-background:new 0 0 400 400;" xml:space="preserve">
<style type="text/css">
	.st0{fill:#F2E810;}
	.st1{fill:#353B66;}
	.st2{fill:#ACA212;}
	.st3{fill:#F2EB2A;}
	.st4{fill:#D9D766;}
	.st5{fill:#2F3772;}
	.st6{fill:#807B23;}
	.st7{fill:#353C35;}
	.st8{fill:#201F1F;}
	.st9{fill:#E4D807;}
	.st10{fill:#CDCB45;}
	.st11{fill:#202452;}
	.st12{fill:#FAEE0E;}
	.st13{fill:#24306E;}
	.st14{fill:#2B3676;}
</style>
<path class="st0" d="M0.49,66.39c-1.21-5.01,0.86-6.39,5.75-6.18c9.7,0.41,19.42,0.22,29.13,0.29c0.37,2.56,2.34,2.17,4.04,2.17
	c14.97,0.03,29.94,0.04,44.92,0.05c2.16,0,4.35,0.1,5.49-2.33c4.67-0.03,9.34-0.07,14.02-0.07c1.77,0,3.35-0.23,4.91-1.38
	c9.4-6.96,16.89-15.77,22.33-25.94c2.74-5.12,4.89-4.94,8.84-2.5c10.68,6.58,22.13,11.41,34.24,14.52
	c16.01,4.11,32.05,4.7,48.31,0.78c13.04-3.14,24.86-8.75,36.17-15.67c2.08-1.27,2.71-1.58,4.25,0.97c2.48,4.09,5.92,7.61,9.12,11.23
	c4.33,4.88,8.82,9.63,13.24,14.43c-2.31,0.03-4.41,1.09-6.85,0.86c-8.85-0.82-17.68-1.89-26.63-1.83c-4.43,0.03-8.85,1.69-9.36,5.15
	c-0.71,4.86,1.15,10.13,2.17,15.17c0.08,0.42,2.12,0.62,3.24,0.62c11.86,0.01,23.71-0.04,35.56-0.08c4.41,0.29,8.82,0.58,11.61,4.82
	c-7.76-0.05-15.51-0.09-23.27-0.14c-3.17-3.27-6.34-3.24-9.51,0.01c-4.12-0.06-8.83-2.87-11.79,2.54c-0.68-0.03-1.36-0.05-2.04-0.08
	c-0.24-1.91-1.67-2.29-3.21-2.86c-4.86-1.8-10.03-0.33-14.95-1.61c-3.13-0.81-6.18,0.42-7.23,3.46c-1.05,3.04-1.53,6.61,1.66,9.15
	c2.2,1.76,2.52,4.08,2.6,6.77c0.17,6.2-0.45,12.24-2.43,18.13c-3.38-1.13-3.06-4.78-4.77-7.06c-0.34-2.86,3.62-1.58,4.05-3.88
	c-7.66-2.16-14.61-0.11-21.48,3.25c1.66,2.55,1.26,6.43,1.21,10.27c-2.8-0.73-4.07-3.03-4.52-5.45c-1.3-7.03-4.01-13.57-7.05-19.88
	c-2.07-4.29-2.62-9.63-7.16-12.54c-3.3-3.33-8.67-3.29-11.7,0.1c-3.71,4.89-5.45,10.64-7.05,16.44c-3.12,1-4.99,3.06-4.61,6.42
	c0.56,4.96-2.82,7.05-5.95,9.64c-2.45-2.19,0.29-7.38-2.63-6.92c-3.25,0.52-8.04-2.44-10.12,2.73c-2.13,2.64-4.07,5.79-7.37,6.81
	c-4.37,1.36-9.46-1.87-10.92-6.24c-2.13-6.36-0.24-15.29,3.65-17.23c0.17-0.08,0.38-0.07,0.57-0.11c5.9-0.79,9.3,2.49,11.92,7.25
	c2.09,3.8,5.61,2.57,8.81,2.24c2.15-0.22,4.57-2.39,3.96-3.37c-2.86-4.6,0.47-10.52-3.84-14.84c-2.69-2.7-2.95-5.76,2.54-5.29
	c3.57,0.31,5.88-1.36,7.06-4.7c2.94-0.61,5.33-2.85,8.7-2.41c2.61,0.35,4.33-1.74,4.96-4.02c0.7-2.5-1.51-3.87-3.26-4.91
	c-6.11-3.65-10.57-3.02-16.22,1.99c-12.63-0.01-25.25-0.06-37.88,0.02c-2.08,0.01-4.96-1.15-5.54,2.49
	c-3.7,1.71-8.03,1.27-11.6,3.42c-2.62-0.91-3.65,2.16-5.83,2.36c0.49-2.95-1.59-2.41-3.25-2.41c-18.07,0.01-36.14,0.04-54.21,0.06
	C24.05,66.79,12.23,66.9,0.49,66.39z"/>
<path class="st1" d="M45.01,60.02c4.25-3.55,9.57-2.55,14.34-2.84c16.15-0.98,30.44-6.86,41.93-17.74
	c7.92-7.5,14.68-16.7,19.12-26.93c6.13-14.15,5.78-14.3,18.69-6.05c12.74,8.15,25.55,16.19,40.48,19.72
	c7.92,1.87,16.38,3.57,24.05,2.99c8.08-0.62,16.61-2.82,24.61-5.98c13.18-5.21,24.37-13.49,35.52-21.88
	c2.12-1.6,2.86-2.08,4.67,0.59c5.98,8.83,11.26,18.14,18.1,26.39c8.79,10.61,20.13,17.33,32.62,22.35c3.96,1.59,8.13,2.63,12.2,3.92
	c-1.58,1.64-3.63,1.07-5.5,1.1c-6.39,0.09-12.77,0.07-19.16,0.09l0.03,0.01c-0.13-2.85-2.12-2.43-3.96-2.29
	c-0.75-0.18-1.63-0.17-2.25-0.57c-13.43-8.74-24.31-19.99-32.27-33.96c-2.4-4.22-3.91-6.86-9.3-2.53
	c-13.37,10.74-28.55,18.04-45.7,20.61c-8.66,0.06-17.32,0.12-25.98,0.18c-4.63-0.95-9.27-1.9-13.9-2.85
	c-13.87-5.37-27.57-11.04-39.61-20.11c-3.16-2.38-4.4,0.62-5.51,2.93c-8.94,18.65-22.07,33.28-40.51,42.84
	C73.48,60.61,59.24,60.56,45.01,60.02z"/>
<path class="st2" d="M45.76,328.96c-5.49-8.56-4.99-18.66-7.17-28.08c-3.52-15.24-2.52-30.74-2.64-46.15
	c-0.37-47.58-0.4-95.17-0.62-142.75c-0.04-8.22-0.35-16.44-0.54-24.66c1.04-2.27-0.23-5.99,4.16-6.21c1.14-0.06,0.89-1.89,1.04-2.99
	c1.56,1.11,2.02,2.79,2.36,4.54c2.18,11.52,3.26,23.25,3.33,34.88c0.35,59.38,0.2,118.77,0.23,178.15c-3.3,0.3-4.4,1.72-2.56,4.83
	c2.02,3.41,3.94,6.87,5.9,10.31c-1.05,1.02-0.44,2.04-0.15,3.17c1.46,5.81,4.49,10.97,6.58,16.52c-4.05,2.48-7.62,3.67-8.95-2.87
	C46.62,327.17,46.04,328.45,45.76,328.96z"/>
<path class="st3" d="M320.76,368.65c-4.91,2.02-9.75,4.3-15.13,4.85c-2.52,0.03-5.04,0.22-7.55,0.07
	c-7.26-0.41-13.77-2.58-18.53-8.54c1.23-1.73,2.39-3.55,4.83-3.66c1.98,0.53,3.43,0.17,3.8-2.18c0.12-0.74,0.56-1.71-0.36-1.97
	c-1.9-0.54-3.84-0.64-5.18,1.32c-0.19-0.61-0.39-1.23-0.58-1.84c1.14-6.11,4.01-11.33,7.04-16.75c3.45-6.17,8.55-10.38,13.21-15.19
	c0.89-0.92,2.17-0.94,3.28-0.46c2.18,0.94,0.26,2.19,0.15,3.33c-1.08,12.07-6.18,22.03-15.42,29.83c1.6,3.58,4.79,1.87,7.12,1.78
	c9.65-0.38,18.97,0.26,27.58,6.05C323.81,366.85,320.79,366.01,320.76,368.65z"/>
<path class="st4" d="M399.8,73.39c-0.86,3.31-3.68,2.74-6.07,3.21c-5.78,1.15-11.68,1.8-15.82,7.05c-3.6,4.56-3.15,9.94-3.58,15.06
	c-0.49,5.84,0.06,11.76-0.16,17.64c-2.05,54.46-0.6,108.94-1.24,163.41c-0.18,14.98-0.92,30.2-6.27,44.24
	c-2.75,7.24-3.52,16.92-13.13,20.06c-0.15-0.15-0.3-0.3-0.45-0.45c3.32-5.78,7.7-10.93,10.11-17.24c0.33-1.03,0.66-2.07,0.99-3.1
	c0.46-1.31,0.91-2.61,1.37-3.92c1.07-1.35,0.87-2.95,0.85-4.51c0.38-1.34,0.77-2.68,1.15-4.02c1.46-2.32,1.07-4.97,1.34-7.5
	c1.26-5.61,0.97-11.34,1.3-17.03c1.68-18.77,1.01-37.54-0.03-56.31c-0.01-28.28-0.02-56.55-0.03-84.83
	c1.18-6.58,0.48-13.23,0.75-19.85c0.61-15,0.32-30.08,4.92-44.63C382.7,74.56,391.32,74.19,399.8,73.39z"/>
<path class="st4" d="M283.38,76.66c-11.86,0.04-23.71,0.09-35.57,0.08c-1.13,0-3.16-0.2-3.24-0.62c-1.02-5.04-2.88-10.31-2.17-15.17
	c0.51-3.47,4.92-5.12,9.36-5.15c8.94-0.06,17.77,1.01,26.63,1.83c2.44,0.23,4.54-0.83,6.84-0.86c7.14,2.07,14.29,0.05,21.44,0.02
	c14.31,1.71,28.64,1.2,42.97,0.55c15.31-0.02,30.61-0.09,45.91,0.02c1.52,0.01,5.28-1.41,3.29,2.98
	c-25.7,0.05-51.41,0.33-77.11,0.09c-19.26-0.18-38.52,0.31-57.77-0.7c-5.88-0.31-11.92-1.37-17.77,0.67
	c-0.11,2.51,0.04,5.07-0.38,7.53c-0.86,4.97,1.52,5.67,5.78,5.61c10.62-0.14,21.24,0.22,31.86,0.37
	C283.43,74.81,283.41,75.73,283.38,76.66z"/>
<path class="st1" d="M115.18,373.64c-11.23-1.61-21.78-5.88-32.76-8.44c-1.25-0.29-2.75-0.54-2.74-2.4
	c6.5-4.29,14.45-3.15,21.38-5.8c2.26,0.04,4.53,0.09,6.8,0.13c3.59,2.17,7.76,2.36,11.66,3.45c0.37,0.3,0.74,0.6,1.11,0.9
	c1.23,0.67,2.45,1.33,3.68,2C125.73,370.93,120.33,372.18,115.18,373.64z"/>
<path class="st5" d="M196.84,388.32c-11.13,6.96-23.47,9.15-37,10.12c3.14-5.55,7.09-9.2,10.6-13.22c4.71-2.67,9.02-6.17,14.55-7.14
	c3.48,0.05,6.97,0.25,10.45,0.09c2.84-0.13,3.81,1.24,3.85,3.78C198.47,384.09,197.65,386.21,196.84,388.32z"/>
<path class="st6" d="M101.06,357.01c-6.94,2.64-14.89,1.51-21.39,5.8c-12.88-7.24-24.13-16.27-31.99-29.12
	c-0.93-1.52-2.09-2.81-1.93-4.73c0.29-0.51,0.86-1.79,0.96-1.28c1.33,6.54,4.9,5.34,8.95,2.87c4.83,1.53,10.11-0.85,14.83,1.7
	c-2.91,0-5.82-0.06-8.73,0.01c-1.27,0.03-2.97-0.55-3.56,1.13c-0.44,1.24,0.74,2.08,1.53,2.91c7.75,8.22,15.86,15.68,28.45,13.71
	c-2.48,2.4-5.89,0.23-8.71,1.69C85.84,357.45,93.42,357.37,101.06,357.01z"/>
<path class="st3" d="M285.61,382.87c2.08,0.18,2.53,2.08,3.76,3.62c-9.29,3.74-18.83,3.45-28.39,3.01c-1.47-0.07-2.54-0.78-3.42-1.9
	c-1.76-4.14-6.8-1.92-9.2-4.81c-0.32-2.05,2.07-4.96-2.29-5.47c4.53-4.04,9.55-4.78,14.41-3.59c5.35,1.31,10.8,2.57,15.77,5.29
	C279.19,380.64,281.84,383.2,285.61,382.87z"/>
<path class="st5" d="M156.97,383.4c-2.52-0.04-4.24,1.75-6.16,2.93c-6.81,4.18-13.95,1.63-20.97,1.18
	c-4.43-0.28-8.83-1.02-13.69-1.6c2.38-3.76,6-5.71,9.6-7.66c0.61-0.06,1.21-0.13,1.82-0.19c2.29,0.07,4.32-0.53,6.56-1.24
	c4.62-1.47,9.28-4.69,14.27-3.12c3.87,1.22,9.32,0,11.05,5.64C158.64,380.7,156.61,381.32,156.97,383.4z"/>
<path class="st7" d="M246.2,60.38c5.85-2.04,11.89-0.98,17.77-0.67c19.26,1.01,38.52,0.53,57.77,0.7
	c25.7,0.24,51.41-0.04,77.11-0.09c0.1,0.51,0.21,1.01,0.32,1.52c0,0.92,0,1.84,0,2.77c-1.83-1.63-3.97-1.92-6.38-1.92
	c-47.42,0.06-94.84,0.05-142.25,0.05c-0.73,0-1.45,0-2.18-0.01C248.32,61.31,247.62,60.51,246.2,60.38z"/>
<path class="st6" d="M40,78.12c-0.16,1.1,0.09,2.93-1.04,2.99c-4.39,0.22-3.12,3.94-4.16,6.21c-1.51-0.89-1.41-2.69-2.21-3.97
	c-3.27-5.26-7.1-9.61-14.07-9.51c-4.24,0.06-8.49-0.38-12.73-0.61c-4.37-0.23-6.9-1.92-5.29-6.84c11.74,0.51,23.57,0.4,34.81,4.68
	C36.71,73.52,40,74.71,40,78.12z"/>
<path class="st4" d="M248.35,382.79c2.4,2.89,7.44,0.67,9.2,4.81c-2.51-0.13-5.02-0.38-7.52-0.35c-1.83,0.02-4.21-0.36-4.48,2.43
	c-0.2,2.06-0.59,4.46,2.29,5.23c1.52,0.41,2.37,1.24,2.1,2.91c-0.21,1.35-1.17,2.26-2.35,2.18c-14.16-1.05-29.1,0.71-40.44-10.9
	c-0.38-0.39-0.53-1.01-0.79-1.52c0.22-0.33,0.44-0.66,0.66-0.98c3.96,0.19,5.07,4.39,8.4,5.85c9.6,4.21,19.85,4.14,30.02,6.02
	c-2.65-5.52-5.48-10.2-11.89-11.21c-2.03-0.32-1.59-2.34-1.37-3.9c5.34,3.75,12.64,3.61,15.89-0.3L248.35,382.79z"/>
<path class="st4" d="M285.61,382.87c-3.76,0.32-6.42-2.24-9.37-3.85c-4.97-2.72-10.42-3.98-15.77-5.29
	c-4.87-1.19-9.89-0.45-14.41,3.59c4.36,0.51,1.97,3.42,2.29,5.47c0,0-0.28,0.26-0.28,0.26c-2.9-1.6-3.9-4.68-5.54-7.25
	c1.46-1.17,2.91-2.35,4.37-3.52c5.11-0.08,10.21-0.16,15.32-0.24c5.33,0.42,10.44,2.28,14.71,5.05c5.51,3.56,9,0.22,13.51-1.62
	c-4.24-2.54-7.99-4.79-11.75-7.04c-0.16-1.24-2.26-2.97,0.85-3.37c4.76,5.96,11.27,8.13,18.52,8.54c2.51,0.14,5.03-0.04,7.55-0.07
	c-5.08,3.96-11.81,3.45-17.3,6.43C286.89,380.71,285.53,380.93,285.61,382.87z"/>
<path class="st6" d="M156.97,383.4c-0.35-2.08,1.68-2.69,2.47-4.07c1.35-1.05,1.79-2.55,2.02-4.15c7.03,0.49,13.95,2.4,21.07,1.61
	c0.8,0.13,1.61,0.27,2.41,0.4c0.04,0.3,0.06,0.6,0.05,0.91c-5.53,0.97-9.84,4.47-14.55,7.14C166.03,384,161.29,385.25,156.97,383.4z
	"/>
<path class="st6" d="M207.03,386.59c-0.22,0.33-0.44,0.66-0.66,0.98c-3.06,1.68-6.35,0.55-9.53,0.75c0.82-2.12,1.63-4.24,2.44-6.36
	c0.87-1.59,3.34-2.87,0.98-5.09c2.03-0.97,2.42-2.65,2.53-4.79c0.16-3.07-0.52-6.26,0.91-9.21c0.08,1.92,0.24,3.84,0.23,5.76
	c-0.05,8.28,1.23,9.11,9.35,5.97c1.19,0.12,2.37,0.23,3.56,0.35c0.01,1.55,1.72,1.55,2.32,2.57c-2.29-0.03-4.59-0.17-6.87-0.06
	C205.96,377.78,204.66,380.07,207.03,386.59z"/>
<path class="st4" d="M320.76,368.65c0.04-2.64,3.05-1.8,4.28-3.36c-8.61-5.79-17.93-6.44-27.58-6.05c-2.33,0.09-5.52,1.8-7.13-1.78
	c7.45,0.22,14.93-1.25,22.35,0.38c8.8,4.57,17.47,6.93,25.52-1.51c0.11-0.12,0.36-0.11,0.54-0.16c0.15,0.16,0.3,0.32,0.45,0.48
	C334.69,363.21,328.97,367.86,320.76,368.65z"/>
<path class="st4" d="M45.01,60.02c14.23,0.54,28.47,0.59,42.7,0c0.7,0.12,1.4,0.24,2.1,0.36c-1.14,2.42-3.34,2.33-5.5,2.33
	c-14.97-0.02-29.94-0.03-44.92-0.05c-1.7,0-3.67,0.39-4.04-2.17C38.58,60.34,41.79,60.18,45.01,60.02z"/>
<path class="st6" d="M127.56,378.06c-0.61,0.06-1.21,0.13-1.82,0.19c-2.64-3.6-7.49-2.05-10.57-4.61
	c5.16-1.46,10.55-2.71,9.14-10.15c0.74,0.4,1.48,0.79,2.21,1.19c0.69,4.02,2.93,5.9,7.1,5.62c1.49-0.1,3.03,0.55,4.55,0.86
	c0.08,0.33,0.14,0.66,0.2,1C135.13,374.78,129.99,373.9,127.56,378.06z"/>
<path class="st7" d="M349.65,57.32c-14.34,0.65-28.67,1.16-42.97-0.55c-0.02-0.34-0.01-0.68,0.01-1.02c6.39-0.02,12.77,0,19.16-0.09
	c1.87-0.03,3.92,0.54,5.5-1.1C337.45,55.48,343.55,56.4,349.65,57.32z"/>
<path class="st8" d="M399.17,64.61c0-0.92,0-1.85,0-2.77c1.32,3.79,0.69,7.68,0.64,11.54c-8.49,0.81-17.1,1.18-24.01,7.27
	c-0.37,0.07-0.74,0.17-1.1,0.29c-0.68-2.82,1.05-5.26,3.04-5.6c3.97-0.7,7.31-3.82,11.47-3.12c4.93,0.83,7.91-1.31,9.86-5.56
	C399.1,65.97,399.13,65.29,399.17,64.61z"/>
<path class="st4" d="M353.53,344.05c-2.16,5.54-5.67,9.5-11.84,10.42c-0.13-0.37-0.07-0.7,0.18-1c0,0-0.07-0.03-0.07-0.03
	c1.25-0.19,1.84-1.18,2.53-2.07c2.92-2.59,5.84-5.18,8.76-7.77C353.23,343.74,353.38,343.89,353.53,344.05z"/>
<path class="st7" d="M341.87,353.46c-0.25,0.3-0.31,0.64-0.18,1c-0.43,0.42-0.87,0.83-1.3,1.25c-0.33-0.14-0.68-0.22-1.04-0.25
	c-0.32-0.37-0.64-0.74-0.97-1.12C339.35,353.31,340.61,353.35,341.87,353.46z"/>
<path class="st4" d="M339.35,355.47c0.36,0.03,0.71,0.11,1.04,0.25c0.1,0.24,0.21,0.48,0.31,0.72c-0.5,0.07-1,0.15-1.5,0.22
	c-0.15-0.16-0.3-0.32-0.45-0.48C338.93,355.93,339.13,355.69,339.35,355.47z"/>
<path class="st9" d="M40,78.12c0-3.41-3.28-4.6-4.7-7.05c18.07-0.02,36.14-0.04,54.21-0.06c1.66,0,3.74-0.54,3.25,2.41
	c1.28,2.65-3.54,6.04,0.77,8.2c4.94,2.47,6.6,5.45,3.19,10.55c-0.93,1.39-0.34,3.78-0.52,5.71c-0.6,6.32,1.14,12.78-1.11,19
	c-1.52,1.12-1.18,2.79-1.18,4.31c0,53.52,0.01,107.03,0.04,160.55c0,1.88-0.52,4.09,2.16,4.78c0.03,3.09,0.05,6.17,0.08,9.26
	c-1.07,5.81,2.12,10.82,3.13,16.25c0.31,1.68,2.9,4.28,0.08,4.44c-2.27,0.13-6.94,2.15-7.84-3.04c-1.31-7.56-3.09-14.93-8.8-20.57
	c-0.98-0.97,0.13-3.91-2.37-3.05c-1.45,0.5-2.91,1.94-2.89,4.03c0.02,1.36-0.11,2.73-0.18,4.1c-1.83,2.26-0.89,4.85-0.84,7.33
	c-2.41,0.11-4.72,0.29-2.28,3.54c1.29,1.72,1.48,3.43-0.14,5.59c-2.53-2.23-4.74-4.23-6.21-7.4c-3.35-7.2-9.22-9.83-15.08-7.42
	c-1.75-2.25-4.81-2.16-6.85-3.89c-0.02-59.38,0.13-118.77-0.23-178.15c-0.07-11.64-1.14-23.36-3.33-34.88
	C42.02,80.91,41.55,79.23,40,78.12z"/>
<path class="st2" d="M306.69,55.75c-0.03,0.34-0.03,0.68-0.01,1.02c-7.15,0.02-14.3,2.04-21.44-0.02c-4.41-4.8-8.9-9.55-13.23-14.43
	c-3.2-3.61-6.64-7.14-9.12-11.23c-1.55-2.55-2.17-2.24-4.25-0.97c-11.32,6.92-23.14,12.54-36.17,15.67
	c-16.26,3.91-32.3,3.32-48.31-0.78c-12.11-3.11-23.56-7.94-34.24-14.52c-3.95-2.44-6.1-2.61-8.84,2.5
	c-5.44,10.17-12.93,18.98-22.33,25.94c-1.56,1.15-3.14,1.38-4.91,1.38c-4.67,0-9.35,0.04-14.02,0.07c-0.69-0.12-1.39-0.24-2.09-0.36
	c18.44-9.56,31.57-24.19,40.51-42.84c1.11-2.31,2.35-5.31,5.51-2.93c12.04,9.07,25.74,14.74,39.62,20.11
	c1.46,4.85,5.63,1.66,8.38,2.81c10.56,4.42,21.6,1.27,32.42,1.82c-0.09-0.26-0.14-0.56-0.3-0.78c-0.09-0.13-0.35-0.13-0.54-0.18
	c-0.07-0.33-0.1-0.66-0.08-1c17.15-2.57,32.33-9.87,45.7-20.62c5.4-4.34,6.9-1.69,9.3,2.53c7.97,13.97,18.84,25.22,32.27,33.96
	c0.61,0.4,1.49,0.39,2.25,0.57c1.11,1.13,2.07,2.53,3.96,2.29L306.69,55.75z"/>
<path class="st3" d="M143.05,109.96c2.08-5.17,6.87-2.21,10.12-2.73c2.92-0.47,0.18,4.73,2.63,6.92c3.13-2.59,6.51-4.68,5.95-9.64
	c-0.38-3.37,1.49-5.43,4.61-6.43c0.35,2.99-3.77,5.16-1.52,8.49c0.05,0.34,0.18,0.64,0.41,0.91c-0.99,5.73-3.55,10.47-8.43,13.79
	c-0.27,0.19-0.56,0.37-0.85,0.53c-1.85,1.62-2.03,3.11,0.36,4.39c0.26,0.35,0.52,0.7,0.77,1.04c-0.06,0.5-0.11,0.99-0.17,1.49
	c-4.27,1.76-9.25-2.94-14.91,1.91c6.56-0.1,5.61,3.56,5.61,6.61c0.01,64.92,0.01,129.84,0.01,194.76c0,1.77,0.05,3.53,0.01,5.3
	c-0.05,2.19,0.94,3.12,3.14,3.25c3.6,0.22,6.72-0.7,8.25-4.09c0.7-1.55,1.21-4.35-1.28-5.05c-5.12-1.45-3.15-5.41-2.78-8.2
	c0.42-3.16,3.61-3.66,6.43-3.87c6.38-0.47,9.14,2.25,9.67,8.98c0.24,3.03-1.17,6.4,1.28,9.53c2.95-7.63,0.96-14.98,0.97-22.23
	c0.07-57.86,0.01-115.72,0.1-173.57c0-2.2-1.57-5.36,2.26-6.34c-0.02,61.32-0.04,122.63-0.06,183.95c0,1.55-0.23,3.15,0.77,4.54
	c0.56,2.27,0.42,4.54,0.02,6.81c-1.02,1.52-0.92,3.29-0.74,4.92c0.37,3.35-1.18,4.87-4.26,5.25c-1.82-0.22-3.65-0.44-5.47-0.65
	c2.89-4.06,1.36-8.68,1.51-13.04c0.25-7.32,0.01-7.46-6.4-4.33c-1.79,0.88-6.61,1.99-1.05,5.03c0.7,0.38,0.59,2.48,0.66,3.8
	c0.15,3.11,0.17,6.22,0.25,9.33c-3.85-1.22-4.27,0.79-3.59,3.84c-1.34,4.38-4.67,2.3-6.72,1.49c-2.69-1.07-5.46-1.9-5.44-6.7
	c0.3-65.08,0.2-130.17,0.17-195.25c0-2.28,0.71-4.73-0.96-6.8c-0.45-0.76-0.91-1.51-1.36-2.27c-0.73-3.12-3.26-2.14-5.18-2.16
	c-11.15-0.1-22.3-0.09-33.45-0.11c1.56-4.68,1.21-9.48,0.95-14.29c-0.28-0.27-0.56-0.53-0.84-0.8c-0.01-1.31-0.02-2.62-0.03-3.92
	c3.12,0.21,4.48,2.35,5.82,4.87c2.2,4.13,5.17,8.85,9.75,9.07c9,0.43,18.43,2.89,26.82-3.89c3.68-2.97,6.22-5.86,5.18-10.34
	C150.96,109.44,146.86,109.56,143.05,109.96z"/>
<path class="st10" d="M105.34,119.07c0.27,4.8,0.62,9.61-0.95,14.29c-0.83,0.23-2.07-0.46-2.36,0.69c-0.08,0.3,1.39,1.01,2.15,1.53
	c-1.01,0.15-2.02,0.29-3.04,0.44c-1.14-0.06-2.27-0.12-3.41-0.18c-0.47-0.04-0.94-0.07-1.41-0.11c0.82-10.04,3.24-19.94,2.24-30.14
	c-0.51-5.25,0.51-10.42,2.06-15.45c0.86-2.78,1.81-5.54,1.37-8.53c10.21-3.61,20.61-5.41,31.54-5.15c8.23,0.2,16.93,2.19,24.55-3.14
	c0.44,0.38,0.88,0.77,1.32,1.15c-1.19,3.34-3.49,5.01-7.06,4.7c-5.49-0.47-5.23,2.6-2.54,5.29c4.31,4.32,0.98,10.24,3.84,14.84
	c0.61,0.99-1.81,3.15-3.96,3.37c-3.2,0.33-6.72,1.56-8.81-2.24c-2.61-4.75-6.01-8.04-11.92-7.24c1.48-3.9,4.9-1.31,7.28-2.2
	c3.33,1.26,4.74,4.41,6.58,7.04c2.06,2.96,4.71,2.36,6.27,0.5c1.59-1.9-0.24-4.35-1.39-6.36c-0.68-7.85-0.68-7.83-8.8-8.05
	c-0.75-0.02-1.49-0.38-2.24-0.57c-7.25-1.81-14.17-1.26-20.62,2.83c-0.69-0.06-1.37-0.12-2.06-0.19c0.12-1.8,3.09-1.8,2.61-4.02
	c-7.95-1.3-8.59-0.63-8.69,8.86c-2.08,3.54-4.98,7.17-4.31,11.3c0.65,4.03,0.69,8.01,0.89,12.02c0.01,1.31,0.02,2.62,0.03,3.92
	C104.78,118.54,105.06,118.81,105.34,119.07z M137.1,79.54c-0.13,0.09-0.33,0.16-0.36,0.27c-0.03,0.1,0.12,0.26,0.2,0.39
	c0.2-0.16,0.39-0.31,0.59-0.47C137.39,79.67,137.24,79.61,137.1,79.54z"/>
<path class="st6" d="M158.1,73.33c-7.63,5.33-16.32,3.33-24.55,3.14c-10.93-0.26-21.33,1.53-31.54,5.15
	c-1.14-3.52-2.28-7.03-3.42-10.55c3.57-2.16,7.9-1.72,11.6-3.43c14.43-0.8,28.85-1.54,43.31-1.26
	C154.53,69.04,158.36,69.81,158.1,73.33z"/>
<path class="st4" d="M271.73,81.34c7.76,0.05,15.51,0.09,23.27,0.14c0.93,0.15,1.89,0.26,2.14,1.43c-4.66,0.03-9.32,0.06-13.98,0.07
	c-1.82,0.01-3.58,0.02-3.61,2.6c-0.03,2.05-0.1,4.02,2.76,4.11c1,0.03,1.87,0.45,2.37,1.42c-0.61,8.54,0.77,17.15-0.95,25.65
	c-3.18,2.09-6.22,5.01-10.42,2.59c-4.17-2.4-4.2-6.59-4.19-10.73c0.02-5.04-0.05-10.08,0.08-15.11c0.05-1.96-0.56-4.49,2.52-5
	c1.92,0.47,3.01-0.02,2.82-2.28c-0.14-1.66-0.3-3.2-2.47-3.21C266.44,83,260.8,83,255.17,82.96c-1.56-0.01-2.74,0.45-2.65,2.26
	c0.07,1.49-0.47,3.85,1.36,4.04c5.22,0.55,3.95,4.26,3.99,7.35c0.07,4.88-0.04,9.77,0.07,14.65c0.23,10.33,6.78,16.23,17.9,16.25
	c10.31,0.02,16.52-5.76,16.88-16c0.2-5.66,0.21-11.33,0.03-16.99c-0.11-3.42,0.91-5.27,4.57-4.82c0.07,0.46,0.13,0.91,0.2,1.37
	c-2,2.55-2.55,5.41-2.46,8.66c0.18,6.05-0.16,12.12-0.04,18.17c0.11,5.07-3.13,8.6-6.65,10.35c-9.95,4.93-19.58,2.28-28.47-3.54
	c-3.24-2.13-4.98-5.11-4.6-9.37c0.38-4.26,0.11-8.59,0.03-12.89c-0.09-5.1,1.4-10.78-4.72-13.81c-0.06-1.59-0.12-3.18-0.18-4.78
	c2.96-5.41,7.67-2.59,11.79-2.54C265.39,81.34,268.56,81.34,271.73,81.34z M271.76,104.29c0,2.54-0.01,5.08,0,7.63
	c0.01,2.21,0.01,4.58,2.94,4.84c2.45,0.22,4.62,0.4,6.44-2.5c3.57-5.71,1.55-11.76,2.03-17.63c0.27-3.27-0.87-5.72-4.87-5.7
	c-3.95,0.02-6.31,1.65-6.52,5.74C271.65,99.2,271.76,101.75,271.76,104.29z"/>
<path class="st4" d="M136.26,91.01c-2.38,0.89-5.8-1.7-7.28,2.2c-0.19,0.03-0.4,0.02-0.57,0.1c-3.89,1.94-5.78,10.86-3.65,17.23
	c1.47,4.37,6.56,7.6,10.92,6.24c3.3-1.02,5.24-4.17,7.37-6.81c3.81-0.4,7.91-0.52,8.98,4.1c1.04,4.48-1.49,7.37-5.18,10.34
	c-8.39,6.77-17.81,4.32-26.82,3.89c-4.58-0.22-7.55-4.94-9.75-9.07c-1.34-2.52-2.7-4.66-5.82-4.87c-0.2-4.01-0.24-7.98-0.89-12.02
	c-0.67-4.13,2.23-7.75,4.31-11.3c2.72-0.73,2.85-4.77,6.09-4.84c0.69,0.06,1.37,0.12,2.06,0.19c-0.35,0.73-0.71,1.46-1.06,2.19
	c-2.47,0.55-3.88,2.01-3.94,4.64l0.13-0.11c-5.86,7.98-4.42,20.91,3.12,28.18c8.21,7.91,21.2,8.28,30.19,0.86
	c2.7-0.73,3.79-3.15,5.33-5.11c1.35-1.72,1.16-2.86-0.74-4.27c-1.73-1.28-2.73-1.39-4.28,0.14c-1.91,1.89-3.96,3.71-6.19,5.18
	c-5.71,3.77-10.5,2.85-14.8-2.29c-3.8-4.55-3.9-9.97-4.07-15.43c0.26-0.22,0.3-0.47,0.1-0.75c0.29-0.96,0.59-1.92,0.88-2.88
	C125.74,89.32,128.48,88.31,136.26,91.01z"/>
<path class="st2" d="M98.58,71.07c1.14,3.52,2.28,7.03,3.42,10.55c0.44,2.99-0.51,5.75-1.37,8.53c-1.55,5.03-2.57,10.19-2.06,15.45
	c0.99,10.2-1.42,20.1-2.25,30.14c-0.07,45.9-0.13,91.79-0.2,137.69c-1.85-2.45-0.97-5.31-0.98-7.95
	c-0.08-49.53-0.07-99.06-0.08-148.59c2.26-6.22,0.51-12.68,1.11-19c0.18-1.93-0.41-4.32,0.52-5.71c3.41-5.11,1.76-8.08-3.19-10.55
	c-4.31-2.16,0.51-5.55-0.77-8.2C94.93,73.23,95.96,70.16,98.58,71.07z"/>
<path class="st10" d="M203.85,119.41c0.05-3.84,0.45-7.72-1.21-10.27c6.87-3.35,13.82-5.41,21.48-3.25
	c-0.43,2.31-4.39,1.02-4.05,3.88c-0.8,0.08-1.6,0.15-2.4,0.23c-2.32-1.73-4.48-3.48-7.73-1.69c-2.81,1.54-2.83,3.8-2.51,6.39
	c-0.51,1.54-0.53,3.14,0.35,4.48c3.69,5.61,9.09,8.18,15.63,8.23c6.55,0.04,12.57-1.27,15.81-7.99c0.29-0.42,0.58-0.84,0.87-1.26
	c1.98-2.53,0.56-5.66,1.48-8.38c0.65,0.84,1.31,1.68,1.96,2.51c1.31,7.61-1.56,13.04-8.52,16.21c-1.18,0.54-1.94,1.15-2.09,2.44
	c-6.47-0.16-12.86,0.39-19.3-1.95c-2.95-1.07-5.95-3.95-9.7-2.46C203.89,124.15,203.87,121.78,203.85,119.41z"/>
<path class="st4" d="M203.85,119.41c0.02,2.37,0.04,4.74,0.06,7.11c-0.06,0.69-0.11,1.37-0.17,2.06c-5.56,0.04-11.13,0.14-16.69,0.1
	c-1.57-0.01-3.64,0.74-4.19-1.82c5.4-0.06,10.8-0.11,16.19-0.18c1.74-0.02,3.53,0.18,3.64-2.49c0.11-2.58-0.57-4.17-3.47-3.91
	c-5.16-11.95-8.91-24.48-14.65-36.19c-7.17-2.64-9.53-1.71-12.15,4.4c-2.58,6.01-4.11,12.46-7.58,18.09
	c-2.25-3.33,1.87-5.51,1.52-8.49c1.61-5.8,3.35-11.55,7.05-16.44c3.9-0.03,7.8-0.07,11.7-0.1c4.54,2.91,5.09,8.24,7.16,12.54
	c3.04,6.31,5.75,12.85,7.05,19.88C199.78,116.38,201.05,118.68,203.85,119.41z"/>
<path class="st10" d="M297.14,82.91c-0.26-1.17-1.22-1.28-2.14-1.43c-2.79-4.24-7.2-4.53-11.62-4.82c0.03-0.92,0.05-1.84,0.07-2.77
	c1.29-0.11,2.58-0.22,3.88-0.34c1.88,1.72,4.4,1.43,6.61,1.96c7.03,1.68,11.93,5.43,13.54,12.8c0.46,2.11-0.46,4.55,1.52,6.29
	l-0.06-0.02c-0.85,9.02,2.09,17.9,1.06,26.93c-0.32,0.02-0.64,0.01-0.96-0.05c-0.05-1.43-0.76-2.24-2.19-2.39
	c1.28-10.83-2.09-21.29-2.49-31.98c-0.05-1.39-0.14-2.76-1.95-3.03c-1.72-0.25-2.49,0.61-2.69,2.21c-0.6,0.05-1.21,0.09-1.81,0.14
	C297.65,85.24,297.4,84.08,297.14,82.91z"/>
<path class="st9" d="M158.1,73.33c0.26-3.52-3.57-4.29-4.6-6.95c0.04-0.42,0.07-0.84,0.11-1.25c5.65-5.01,10.11-5.64,16.22-1.99
	c1.75,1.04,3.95,2.41,3.26,4.91c-0.63,2.27-2.35,4.36-4.96,4.02c-3.37-0.45-5.76,1.8-8.7,2.41C158.98,74.1,158.54,73.72,158.1,73.33
	z"/>
<path class="st3" d="M224.83,116.83c1.98-5.88,2.59-11.93,2.43-18.13c-0.07-2.69-0.39-5.01-2.6-6.77c-3.19-2.54-2.71-6.11-1.66-9.15
	c1.05-3.04,4.11-4.27,7.23-3.46c4.93,1.28,10.09-0.18,14.95,1.61c1.54,0.57,2.98,0.94,3.21,2.86c0,0-0.12,0.13-0.12,0.13
	c-0.66,0.01-1.32,0.01-1.97,0.02c0,0-0.34-0.04-0.34-0.04c-5.48-2.9-11.33-0.64-16.99-1.24c-2.13-0.22-4.34-0.27-4.49,3.04
	c-0.16,3.43,1.23,4.71,4.5,4.17c0.29,0.41,0.58,0.82,0.87,1.24c-0.15,7.73-0.3,15.46-0.45,23.19
	C227.41,114.31,227.04,117.25,224.83,116.83z"/>
<path class="st3" d="M153.61,65.13c-0.04,0.42-0.07,0.84-0.11,1.25c-14.46-0.28-28.88,0.45-43.31,1.26
	c0.59-3.63,3.46-2.47,5.54-2.49C128.36,65.07,140.98,65.12,153.61,65.13z"/>
<path class="st4" d="M224.83,116.83c2.21,0.42,2.58-2.53,4.57-2.51c0.13,0.46,0.26,0.93,0.39,1.39c-0.18,0.74-0.36,1.47-0.54,2.21
	l0.14-0.02c-2.55,2.66-5.71,2.77-9.03,2.16c-2.25-2.99-1.51-6.79-2.69-10.06c0.8-0.08,1.6-0.15,2.4-0.23
	C221.77,112.05,221.45,115.7,224.83,116.83z"/>
<path class="st3" d="M185.12,81.54c-3.9,0.03-7.8,0.07-11.7,0.1C176.44,78.25,181.82,78.21,185.12,81.54z"/>
<path class="st3" d="M271.73,81.34c-3.17,0-6.34,0.01-9.51,0.01C265.39,78.1,268.56,78.07,271.73,81.34z"/>
<path class="st3" d="M250.44,83.88c0.06,1.59,0.12,3.18,0.18,4.78c-0.74,0.01-1.48,0.02-2.21,0.04c-0.04-1.59-0.09-3.17-0.13-4.76
	c0,0,0.12-0.13,0.12-0.13C249.08,83.83,249.76,83.85,250.44,83.88z"/>
<path class="st10" d="M213.32,38.03c0.19,0.06,0.45,0.06,0.54,0.18c0.16,0.22,0.2,0.51,0.3,0.78c-10.82-0.54-21.86,2.61-32.42-1.82
	c-2.75-1.15-6.92,2.04-8.38-2.81c4.63,0.95,9.27,1.9,13.9,2.85C195.88,39.46,204.63,37.86,213.32,38.03z"/>
<path class="st6" d="M213.32,38.03c-8.69-0.17-17.43,1.43-26.06-0.82c8.66-0.06,17.32-0.12,25.98-0.18
	C213.22,37.37,213.25,37.7,213.32,38.03z"/>
<path class="st7" d="M306.72,55.76c-1.89,0.24-2.84-1.16-3.96-2.29C304.6,53.33,306.59,52.92,306.72,55.76z"/>
<path class="st10" d="M52.76,299.59c5.86-2.4,11.73,0.22,15.08,7.42c1.47,3.17,3.68,5.17,6.21,7.4c1.62-2.17,1.44-3.87,0.14-5.59
	c-2.44-3.25-0.13-3.43,2.27-3.54c2.27,4.93,0.37,10.16,1.1,15.19c0.09,0.63-1.16,3.35,1.56,1.58c0.24,0.2,0.52,0.34,0.82,0.42
	c-0.61,2.9,1.16,5.02,2.35,7.33c0.14,2.89-1.41,3.96-4.08,3.83c-0.66-0.07-1.33-0.15-1.99-0.22c-1.71-1.48-3.77-1.15-5.77-1.15
	l0.03,0.01c-4.72-2.56-10-0.17-14.83-1.7c-2.08-5.55-5.11-10.72-6.58-16.53c-0.29-1.14-0.89-2.16,0.16-3.17
	c4.9,6.15,9.04,13.08,18.71,12.46c4.55-0.29,4.92-1.85,3.29-5.19C67.21,309.82,60.85,303.82,52.76,299.59z"/>
<path class="st7" d="M52.76,299.59c8.09,4.23,14.45,10.24,18.49,18.53c1.63,3.34,1.25,4.9-3.29,5.19
	c-9.67,0.61-13.81-6.31-18.71-12.46c-1.97-3.44-3.89-6.91-5.9-10.31c-1.84-3.11-0.73-4.54,2.56-4.83
	C47.95,297.43,51.01,297.34,52.76,299.59z M48.27,300.72c2.04,8.07,6.59,14.05,12.47,19.25c2.33,2.06,4.93,2.51,6.63,0.71
	c1.75-1.86,1.19-4.68-1.12-6.66c-1.55-1.34-2.82-3-4.32-4.4C57.9,305.88,53.32,302.99,48.27,300.72z"/>
<path class="st7" d="M312.68,357.84c-7.43-1.63-14.9-0.16-22.35-0.38c9.24-7.8,14.34-17.76,15.42-29.83
	c0.1-1.14,2.02-2.38-0.15-3.33c-1.1-0.48-2.39-0.46-3.28,0.46c-4.66,4.81-9.76,9.02-13.21,15.19c-3.03,5.42-5.9,10.64-7.04,16.75
	c-1.97-0.72-0.24-4.38-3.32-4.22c2.31-4.24,4.62-8.47,6.9-12.72c0.43-0.8,1.18-1.79,1-2.49c-0.73-2.86-0.86-2.85,1.13-4.32
	c11.75-8.72,18.04-20.45,19.13-35.05c1.12-6.72,2.68-13.4,2.26-20.3c0.32-0.29,0.65-0.58,0.97-0.87c0.8,2.8-0.98,5.98,1.25,8.56
	c-3.45,8.75-0.5,18.58-4.54,27.28c-0.51,1.09-0.93,3.44,1.2,3.91c1.35,0.29,3.06,0.24,3.96-1.61c1.49-3.07,3.89-5.59,4.23-9.34
	c0.27-2.95,1.19-6.07,4.54-7.37c-0.15,5.13-4.03,9.01-4.62,13.99c-1.79,2.11-2.23,4.65-2.28,7.31c-0.19,0.22-0.23,0.46-0.13,0.73
	c-2.74,5.45-3.8,11.23-3.43,17.31c0.14,2.27,1.01,3.54,3.49,2.96c-0.22,3.03-3.3,3.74-4.67,5.85c-0.45-3.29,0.56-6.77-1.15-11.32
	c-2.43,5.3-4.28,9.41-6.18,13.49c-2.8,5.99-2.8,5.76,3.92,6.2c2.76,0.18,6.33-1.87,8.22,2.09
	C313.53,357.13,313.11,357.49,312.68,357.84z"/>
<path class="st1" d="M278.74,352.5c3.08-0.17,1.35,3.5,3.32,4.21c0.19,0.61,0.39,1.23,0.58,1.85c-0.27,1.48,1.18,1.87,1.74,2.83
	c-2.45,0.1-3.61,1.92-4.83,3.66c-3.12,0.4-1.01,2.13-0.85,3.37c-4.05,4.6-8.8,2.22-13.76,2.31c1.14-2.92,3.65-3.66,3.9-6l0.23,0.43
	c1.87-0.41,2.61-1.69,2.67-3.5C274.08,358.6,276.41,355.55,278.74,352.5z"/>
<path class="st4" d="M284.39,361.39c-0.56-0.96-2.01-1.35-1.74-2.83c1.34-1.96,3.28-1.87,5.18-1.32c0.92,0.26,0.48,1.23,0.36,1.97
	C287.81,361.56,286.37,361.92,284.39,361.39z"/>
<path class="st7" d="M370.19,286.27c-0.33,5.68-0.04,11.42-1.3,17.02c-0.28-0.18-0.56-0.17-0.82,0.02c-0.18-0.17-0.36-0.33-0.55-0.5
	c0.02-4.71,0.03-9.42,0.05-14.13c0.16-6.64,0.56-13.29,0.44-19.92c-0.95-52.09-0.21-104.18-0.37-156.27
	c-0.01-2.03-0.69-4.53,2.43-5.13c0.02,12.59,0.04,25.18,0.06,37.76c0.01,28.28,0.02,56.55,0.03,84.82
	C370.17,248.72,370.18,267.5,370.19,286.27z"/>
<path class="st6" d="M370.13,145.13c-0.02-12.59-0.04-25.18-0.06-37.76c-0.04-8.43,0.57-16.81,2.33-25.08
	c0.77-0.45,1.54-0.9,2.3-1.34c0.36-0.13,0.72-0.23,1.1-0.3c-4.6,14.55-4.31,29.64-4.92,44.64
	C370.61,131.9,371.31,138.55,370.13,145.13z"/>
<path class="st7" d="M353.08,343.59c-2.92,2.59-5.84,5.18-8.76,7.77c-0.05-0.54-0.1-1.08-0.15-1.61
	c7.48-7.69,12.72-17.04,18.85-25.73c0.06,0.78,0.11,1.55,0.17,2.33C360.78,332.66,356.4,337.81,353.08,343.59z"/>
<path class="st6" d="M370.19,286.27c-0.01-18.77-0.02-37.54-0.04-56.31C371.19,248.73,371.87,267.5,370.19,286.27z"/>
<path class="st7" d="M367.55,310.8c-0.38,1.34-0.77,2.68-1.15,4.02c-0.28-0.08-0.54-0.02-0.76,0.16c0,0-0.42-0.37-0.42-0.37
	c0.89-3.91-1.99-8.56,2.31-11.79c0.18,0.17,0.37,0.33,0.54,0.5C367.89,305.81,367.72,308.3,367.55,310.8z"/>
<path class="st7" d="M365.54,319.33c-0.46,1.31-0.91,2.61-1.37,3.92c-0.32-0.07-0.65-0.08-0.98-0.02c-0.58-3.17-0.53-6.19,2.01-8.62
	c0,0,0.42,0.37,0.42,0.37C365.6,316.43,365.57,317.88,365.54,319.33z"/>
<path class="st6" d="M367.55,310.8c0.17-2.5,0.34-4.99,0.51-7.49c0.27-0.19,0.55-0.2,0.83-0.02
	C368.61,305.83,369,308.48,367.55,310.8z"/>
<path class="st6" d="M365.54,319.33c0.03-1.45,0.06-2.9,0.09-4.35c0.23-0.18,0.48-0.24,0.77-0.16
	C366.41,316.38,366.61,317.98,365.54,319.33z"/>
<path class="st6" d="M363.2,323.23c0.33-0.06,0.65-0.05,0.98,0.02c-0.33,1.04-0.66,2.07-0.99,3.1c-0.06-0.78-0.11-1.55-0.17-2.33
	C363.08,323.76,363.14,323.49,363.2,323.23z"/>
<path class="st8" d="M287.33,73.56c-1.29,0.11-2.59,0.22-3.88,0.34c-10.62-0.16-21.24-0.51-31.86-0.37
	c-4.26,0.05-6.64-0.64-5.78-5.61c0.42-2.46,0.27-5.02,0.38-7.53c1.42,0.13,2.12,0.94,2.16,2.35c-0.13,8.22-0.11,8.51,8.03,8.16
	c10.49-0.45,20.87,1.21,31.32,1.26c0.41,0,2.57-0.45,0.75,1.2C288.22,73.57,287.71,73.5,287.33,73.56z"/>
<path class="st10" d="M77.31,297.95c0.06-1.37,0.19-2.73,0.18-4.1c-0.03-2.09,1.44-3.54,2.89-4.03c2.5-0.86,1.39,2.09,2.37,3.05
	c5.71,5.63,7.48,13.01,8.8,20.57c0.9,5.19,5.57,3.17,7.84,3.04c2.81-0.16,0.23-2.76-0.08-4.44c-1-5.42-4.2-10.43-3.13-16.25
	c0.63-0.02,1.26-0.04,1.9-0.05c0.71,5.56,2.26,10.91,3.89,16.25c0.55,1.79,0.64,4,3.39,3.8c-0.11,3.78,1.9,6.27,4.92,8.14
	c0.3,4.5,4.9,5.46,6.93,8.54c-0.12,1.33-0.04,2.62,0.88,3.7c-0.13,0.66-0.27,1.32-0.4,1.98c-1.39,1.83-2.54-3.72-3.99-0.14
	c-2.25-3.42-4.24-7.07-7.95-9.22c-2.68-3.17-5.65-5.95-9.85-8.09c2.14,7.79,4.12,14.98,6.09,22.17c-3.7,1.23-2.16-4.13-5.74-4.11
	c0.46,6.64,2.28,14.59-8.88,14.65c6.02,1.43,11.68,1.49,17.27,0.77c0.7-3.45-5.96-3.99-2.35-7.97c1.86,1.25,3.72,2.51,5.58,3.76l0,0
	c0.3,3.18,2.98,4.32,5.08,5.95c-1.3,2.02-3.38,0.81-5.07,1.22c-2.27-0.04-4.53-0.09-6.8-0.13c-7.64,0.36-15.21,0.44-21.58-5.3
	c2.81-1.46,6.23,0.71,8.71-1.69c2.55-1.21,7.59,0.02,5.54-5.71c0.04-5.45,0.11-10.9,0.1-16.35c0-1.44,0.64-3.29-1.69-3.69
	c-2.86-9.14-5.37-18.41-9.93-26.92c-0.03-1.69-0.47-3.18-2.2-4.42c-0.5,1.99-0.92,3.65-1.34,5.31
	C78.22,298.14,77.77,298.04,77.31,297.95z"/>
<path class="st6" d="M107.85,357.14c1.69-0.42,3.76,0.8,5.06-1.22c0.56-0.01,1.13-0.01,1.7-0.02c0.55,0.95,1.44,1.26,2.46,1.33
	c0.93,0.96,1.86,1.93,2.78,2.9l-0.34,0.47C115.61,359.51,111.44,359.32,107.85,357.14z"/>
<path class="st4" d="M126.53,364.68c-0.74-0.39-1.47-0.79-2.21-1.19c-1.23-0.67-2.46-1.34-3.68-2c-0.13-0.39-0.26-0.79-0.38-1.18
	c2.01-0.28,1.56-1.98,1.86-3.24C124.89,358.84,125.44,361.91,126.53,364.68z"/>
<path class="st6" d="M120.25,360.3c0.13,0.4,0.26,0.79,0.38,1.19c-0.37-0.3-0.74-0.6-1.12-0.9c0,0,0.34-0.47,0.34-0.46
	C119.86,360.13,120.25,360.3,120.25,360.3z"/>
<path class="st7" d="M200.27,376.88c2.36,2.22-0.11,3.5-0.98,5.09c-0.04-2.54-1-3.91-3.85-3.78c-3.47,0.16-6.96-0.04-10.45-0.09
	c0.01-0.31,0-0.61-0.04-0.91c3.21-0.15,6.42-0.3,9.63-0.45C196.47,376.79,198.37,376.83,200.27,376.88z"/>
<path class="st1" d="M93.73,344.3c2.05,5.73-2.99,4.5-5.54,5.71c-12.6,1.97-20.7-5.49-28.45-13.71c-0.79-0.84-1.97-1.67-1.53-2.91
	c0.6-1.68,2.29-1.1,3.56-1.13c2.91-0.07,5.82-0.02,8.73-0.01c0,0-0.03-0.01-0.03-0.01c0.4,1.08,1.4,1.09,2.28,1.31
	c1.27,3.78,4.28,1.88,6.65,2.07c1.36-0.55,2.4-0.09,3.21,1.05c-0.51,0.22-1.02,0.44-1.53,0.66c3.84,1.03,5.41,6.37,10.26,5.47
	C92.14,343.3,92.94,343.8,93.73,344.3z"/>
<path class="st7" d="M127.56,378.06c2.42-4.15,7.56-3.28,10.81-5.9c4.6,0,9.19,0,13.79,0c0.03-0.37,0.06-0.74,0.09-1.1
	c-3.14-0.74-6.28-1.49-9.42-2.23c-2.92-2.54-6.69-4.02-9.05-7.27c0,0,0.1-0.11,0.1-0.11c5.77,0.72,9.94,5.24,15.44,6.62
	c1.8-2.27-0.87-4.47-0.05-6.7c0.98,0.73,1.96,1.47,2.94,2.2c2.03,4.73,1.86,11.22,9.25,11.62c-0.23,1.6-0.68,3.1-2.02,4.15
	c-1.73-5.65-7.18-4.42-11.05-5.64c-4.99-1.57-9.65,1.65-14.27,3.12C131.88,377.52,129.85,378.13,127.56,378.06z"/>
<path class="st11" d="M287.33,73.56c0.38-0.06,0.89,0.02,1.13-0.2c1.81-1.65-0.35-1.19-0.75-1.2c-10.45-0.05-20.83-1.71-31.32-1.26
	c-8.14,0.35-8.15,0.05-8.03-8.16c0.73,0,1.45,0,2.18,0.01c-0.21,3.47,2.04,3.57,4.6,3.56c8.56-0.05,17.13-0.24,25.68,0.08
	c10.46,0.39,20.89,1.27,30.6,5.82c1.47,2.72,4,4.83,4.64,8.02c2.82,14.14,4.83,28.34,4.78,42.84c-0.14,47-0.05,94.01-0.06,141.02
	c0,4.5-0.27,9.03,0.08,13.51c0.29,3.67-2.52,8.78,3.89,10.29c0.22,0.05-2.48,2.24,0.11,3c2.45,0.71,2.74-1.38,3.26-3.09
	c0.33-1.1,1.34-1.28,2.37-1.19c0.95,0.08,1.64,0.92,1.12,1.51c-4.46,4.99,0.14,11.72-3.34,16.92c-1,1.49,0.48,2.49,1.81,3.03
	c2.03,0.83,2.26-0.54,2.42-2.06c0.09-0.89-0.21-2.02,1.05-2.43c2.54,4.03,2.53,4.02,5.98,0.37c1.36-1.44,1.84-4.12,4.73-3.4
	c0.02,1.12,0.27,2.12,1.47,2.57c-5.25,3.23-8.53,8.27-11.85,13.24c-1.17,1.75-2.51,4.17-1.53,5.92c1.29,2.28,4.19,1.4,6.43,1.14
	c9.63-1.11,21.13-14.91,22.81-27.22c-1.12-0.88-2.24-1.76-3.36-2.64c0.62-5.45,4.1-7.25,9.35-4.86c-0.02,4.71-0.03,9.42-0.05,14.13
	c-4.29,3.23-1.42,7.88-2.31,11.79c-2.54,2.43-2.59,5.45-2.01,8.62c-0.06,0.27-0.12,0.53-0.18,0.8
	c-6.13,8.69-11.37,18.04-18.85,25.73c-2.25,0.28-2.56,1.81-2.37,3.68c0,0,0.07,0.03,0.07,0.03c-1.27-0.11-2.52-0.15-3.49,0.89
	c-3.39,0.03-5.01,3.41-7.97,4.28c-3.62,1.06-7.37,2.99-9.78-1.96c0.6-2.09-1-3.06-2.16-4.25c2.52-0.03,5.03-0.01,7.55-0.1
	c5.98-0.22,16.69-8.91,18.16-14.68c1.06-2.13,3.94-2.96,4.4-6.02c-7.71-1.39-14.86,0.35-22.03,1.75c-2.8,0.07-4.58-1.34-2.72-3.8
	c2.45-3.25,1.37-6.68,1.74-10.05c-0.12-7.64-0.21-15.27-0.37-22.91c-0.02-1.14,0.13-2.8-1.12-3.09c-2.11-0.48-1.56,1.58-2,2.72
	c-0.28,0.7-0.86,1.28-1.3,1.92c-3.35,1.3-4.27,4.42-4.54,7.37c-0.35,3.75-2.74,6.27-4.23,9.34c-0.9,1.85-2.61,1.9-3.96,1.61
	c-2.13-0.46-1.7-2.82-1.2-3.91c4.03-8.7,1.09-18.53,4.54-27.28c0.78-7.34,2.21-14.69,2.24-22.03c0.18-53.94,1.03-107.9-2.2-161.79
	c-0.15-2.52-0.43-5.05-2.48-6.9c0,0,0.06,0.02,0.06,0.02c0.03-2.07,0.24-4.15,0.03-6.2c-0.19-1.9-0.98-0.86-1.55-0.09
	c-1.61-7.38-6.5-11.12-13.54-12.8C291.73,74.99,289.21,75.28,287.33,73.56z M362.47,291.95c-0.33-0.14-0.74-0.47-0.97-0.37
	c-0.24,0.1-0.31,0.61-0.45,0.94c0.33,0.14,0.73,0.47,0.97,0.37C362.26,292.8,362.33,292.28,362.47,291.95z M330.54,327.49
	c0.17,0.29,0.29,0.72,0.51,0.78c0.25,0.07,0.59-0.19,0.9-0.31c-0.23-0.36-0.45-0.72-0.68-1.08
	C331.02,327.09,330.79,327.28,330.54,327.49z"/>
<path class="st5" d="M311.41,72.19c-9.71-4.55-20.14-5.44-30.6-5.82c-8.55-0.32-17.12-0.13-25.68-0.08c-2.55,0.01-4.8-0.09-4.6-3.56
	c47.42,0,94.84,0.01,142.25-0.05c2.41,0,4.55,0.29,6.38,1.92c-0.03,0.68-0.06,1.37-0.09,2.05c-2.86-0.54-5.69,0.15-8.5,0.2
	c-7.19,0.12-13.69,3.22-20.64,4.16c-4.86,0.27-9.99-2.98-14.32-0.81c-5.14,2.58-10.17,1.82-15.27,1.93
	C330.69,72.32,321.05,72.19,311.41,72.19z"/>
<path class="st3" d="M207.03,386.59c-2.37-6.51-1.07-8.81,5.25-9.12c2.29-0.11,4.58,0.03,6.88,0.06c4.52,1.54,9.13,2.86,13.03,5.82
	c-0.22,1.56-0.66,3.58,1.37,3.9c6.41,1.01,9.24,5.69,11.89,11.21c-10.17-1.88-20.42-1.8-30.02-6.02
	C212.1,390.98,210.99,386.78,207.03,386.59z"/>
<path class="st8" d="M232.18,383.35c-3.89-2.95-8.51-4.28-13.03-5.82c-0.59-1.02-2.31-1.02-2.32-2.57
	c3.42-0.34,6.84-0.67,10.25-1.01c0.1,0.61,0.21,1.22,0.31,1.83c0.39,4.53,4.86,4.36,7.45,6.25c1.91,1.4,4.87,2.14,7.09,0.77
	c3.07-1.89-1.93-3.25-0.8-5.33c0.24-0.44,0-1.15-0.02-1.73c0.47,0.02,0.93,0.03,1.4,0.05c1.64,2.57,2.64,5.65,5.54,7.25
	C244.82,386.96,237.53,387.09,232.18,383.35z"/>
<path class="st1" d="M242.53,375.8c-0.47-0.02-0.93-0.04-1.4-0.05c-4.58-1.13-9.15,2.13-13.73,0.03c-0.1-0.61-0.21-1.22-0.31-1.83
	c7.19-2.62,12.82-7.68,18.82-12.18c2.62-0.02,5.49-0.54,2.66,3.75c-1.2,1.82-1.15,4.48-1.67,6.75
	C245.44,373.45,243.99,374.62,242.53,375.8z"/>
<path class="st7" d="M246.9,372.27c0.52-2.28,0.47-4.93,1.67-6.75c2.83-4.29-0.03-3.77-2.65-3.75c5.95-6.39,11.22-13.74,21.68-15.96
	c-6.69,8.81-15.13,14.87-18.18,24.9c3.11,1.58,5.48-1.33,8.17-0.58c1.54,0.64,3.09,1.27,4.63,1.91
	C257.12,372.11,252.01,372.19,246.9,372.27z"/>
<path class="st8" d="M262.22,372.03c-1.54-0.64-3.09-1.27-4.63-1.91c4.17-0.92,6.96-4.73,11.25-5.4c-0.25,2.34-2.76,3.08-3.9,6
	c4.96-0.09,9.71,2.29,13.76-2.31c3.75,2.25,7.51,4.5,11.75,7.04c-4.51,1.84-8,5.18-13.51,1.62
	C272.66,374.31,267.56,372.45,262.22,372.03z"/>
<path class="st10" d="M161.46,375.18c-7.39-0.4-7.22-6.9-9.25-11.62c0.08-2.31-0.08-4.73,3.28-2.07c2.61,2.07,4.37,5.84,8.69,4.85
	c4.9,3.83,10.53,6.19,16.34,8.19c0.67,0.75,1.34,1.51,2.01,2.26C175.41,377.58,168.49,375.68,161.46,375.18z"/>
<path class="st4" d="M182.53,376.79c-0.67-0.75-1.34-1.51-2.01-2.26c3.88-0.07,7.81,0.85,11.64-0.49c0.81,0.11,1.62,0.22,2.42,0.34
	c0,0.79-0.01,1.58-0.01,2.37c-3.21,0.15-6.42,0.3-9.64,0.45C184.14,377.05,183.33,376.92,182.53,376.79z"/>
<path class="st4" d="M268.84,364.73c-4.28,0.67-7.08,4.48-11.25,5.4c-2.69-0.74-5.06,2.16-8.17,0.58
	c3.04-10.02,11.49-16.09,18.18-24.9c-10.46,2.22-15.73,9.57-21.68,15.96c-6,4.49-11.63,9.56-18.82,12.18
	c-3.42,0.34-6.84,0.67-10.25,1.01c-1.19-0.12-2.37-0.23-3.56-0.35c-1.53-0.89-4.18,0.59-4.79-2.28c0.53-0.7,1.06-1.4,1.59-2.1
	c0.65-0.15,1.29-0.29,1.94-0.44c1.49,6.63,6.59,3.57,9.72,2.9c6.85-1.47,13.11-4.94,18.45-9.5c5.49-4.69,11.28-9.22,15.05-15.63
	c-0.06-0.78-0.13-1.56-0.19-2.34c-0.03-0.8-0.06-1.59-0.08-2.39c0.03-65.11,0.07-130.22,0.1-195.33c0-0.79-0.01-1.58-0.01-2.37
	c0.04-2.35,0.08-4.69,0.12-7.04c0.08-0.72,0.16-1.44,0.24-2.16c10.63-0.11,21.25-0.39,31.88-0.27c4.96,0.06,10.01-1.02,14.9,0.75
	c-0.19,0.14-0.25,0.32-0.2,0.54c-14.74,0.02-29.49,0.04-44.23,0.06c-1.8,0.65-1.26,2.23-1.26,3.49
	c-0.02,67.37-0.01,134.73,0.05,202.1c0,1-1.16,2.89,1.3,2.92c7.81-3.94,16.72-5.66,23.43-11.82c2.56-1.15,4.96-2.53,6.8-4.73
	c0.71-0.6,1.76-0.95,1.58-2.19l-0.15-0.02c0.91,0.16,1.29-0.26,1.26-1.14l0.35,0.15c0.61-0.49,1.21-0.98,1.82-1.47
	c4.83-4.06,7.25-9.52,8.87-15.45c0.1-0.45,0.2-0.89,0.3-1.34c0.27-0.33,0.34-0.7,0.2-1.1c0.34-0.17,0.45-0.43,0.31-0.79
	c0.97-1.63,0.6-3.43,0.6-5.16c0.03-34.62,0-69.23,0.05-103.85c0.03-19.55,0.17-39.1,0.26-58.65c1.36,1.73,0.83,3.76,0.84,5.67
	c0.04,8.43,0.03,16.85,0.03,25.28c0.01,40.96-0.01,81.92,0.12,122.88c0.01,2.07-1.79,5.43,2.36,6.11
	c-1.09,14.61-7.38,26.33-19.13,35.06c-1.98,1.47-1.85,1.46-1.13,4.32c0.18,0.7-0.57,1.69-1,2.49c-2.28,4.25-4.6,8.48-6.9,12.72
	c-2.33,3.06-4.67,6.11-7,9.16c-0.73,1.29-3.6,0.93-2.67,3.5L268.84,364.73z M278.62,339.27c-3.13,1.27-6.81,1.79-8.46,6.89
	c3.63-2.47,6.96-3.39,8.7-6.58c0.91-0.03,1.92,0.16,2.39-0.95c0.04-0.09-0.17-0.41-0.32-0.45
	C279.88,337.9,279.08,338.23,278.62,339.27z M278.6,347.41c-0.06-1.72-1.1-2.71-2.66-1.88c-9.13,4.86-16.76,11.4-21.78,20.69
	c-0.38,0.7-0.99,1.42-0.17,1.97c0.55,0.37,1.61,0.55,2.17,0.27c9.2-4.6,16.49-11.41,22.26-19.91
	C278.61,348.27,278.55,347.8,278.6,347.41z"/>
<path class="st8" d="M208.5,372.34c0.61,2.86,3.25,1.39,4.79,2.28c-8.12,3.14-9.39,2.31-9.35-5.97c0.01-1.92-0.15-3.84-0.23-5.76
	c0.22-1.19,0.45-2.38,0.67-3.57c3.05,1.33,1.68,4.07,1.78,6.19C206.27,368.09,206.15,370.59,208.5,372.34z"/>
<path class="st10" d="M204.38,359.31c-0.22,1.19-0.45,2.38-0.67,3.58c-1.43,2.95-0.75,6.14-0.91,9.21c-0.11,2.14-0.5,3.82-2.53,4.79
	c-1.9-0.05-3.79-0.09-5.69-0.14c0-0.79,0.01-1.58,0.01-2.37c0.66-0.36,1.32-0.72,1.98-1.08c3.4,0.52,5.12-0.61,4.83-4.4
	c-0.25-3.11-0.05-6.26-0.05-9.39c0.79-0.05,1.58-0.1,2.37-0.15C203.94,359.31,204.15,359.3,204.38,359.31z"/>
<path class="st8" d="M320.62,356.67c2.41,4.95,6.17,3.02,9.79,1.96c2.96-0.87,4.58-4.24,7.97-4.28c0.32,0.37,0.65,0.74,0.97,1.11
	c-0.21,0.23-0.41,0.46-0.6,0.71c-0.18,0.05-0.43,0.04-0.54,0.16c-8.05,8.43-16.72,6.08-25.52,1.51c0.43-0.36,0.85-0.71,1.27-1.07
	C316.18,356.74,318.4,356.71,320.62,356.67z"/>
<path class="st10" d="M133.78,361.55c2.36,3.25,6.12,4.73,9.05,7.27c-0.34,3.23-2.91,1.94-4.65,2.34c-1.52-0.31-3.06-0.96-4.55-0.86
	c-4.17,0.28-6.41-1.59-7.1-5.62c-1.08-2.77-1.64-5.84-4.41-7.62c-0.05-0.42-0.09-0.85-0.14-1.27c2.73-1.57,4.85,0.28,7.13,1.26
	C130.66,358.55,132.22,360.05,133.78,361.55z"/>
<path class="st4" d="M138.18,371.15c1.74-0.4,4.32,0.89,4.65-2.34c3.14,0.74,6.28,1.49,9.42,2.23c-0.03,0.37-0.06,0.74-0.09,1.1
	c-4.6,0-9.19,0-13.79,0C138.32,371.82,138.25,371.49,138.18,371.15z"/>
<path class="st11" d="M369.92,71.01c6.96-0.94,13.45-4.03,20.64-4.16c2.81-0.05,5.64-0.74,8.5-0.2c-1.95,4.26-4.93,6.4-9.86,5.56
	c-4.15-0.7-7.5,2.42-11.47,3.12c-1.99,0.35-3.72,2.78-3.04,5.6c-0.77,0.45-1.54,0.9-2.3,1.34c-0.36-1.65-0.72-3.3-1.08-4.95
	c-2.21,0.47-1.36,5.35-4.26,3.19c-1.59-1.19-1.22-4.41,0.59-6.35C368.55,73.2,369.92,72.63,369.92,71.01z"/>
<path class="st8" d="M341.8,353.43c-0.19-1.86,0.13-3.4,2.37-3.68c0.05,0.54,0.1,1.07,0.15,1.61
	C343.64,352.25,343.04,353.24,341.8,353.43z"/>
<path class="st10" d="M95.07,116.89c0.01,49.53,0,99.06,0.08,148.59c0,2.65-0.87,5.5,0.98,7.95c-0.01,4.37-0.02,8.74-0.04,13.11
	c-2.69-0.69-2.16-2.9-2.16-4.78c-0.03-53.52-0.04-107.03-0.04-160.55C93.89,119.68,93.55,118.01,95.07,116.89z"/>
<path class="st4" d="M96.09,286.53c0.01-4.37,0.02-8.74,0.04-13.11c0.07-45.9,0.13-91.79,0.2-137.69c0.47,0.04,0.94,0.07,1.41,0.1
	c-0.06,35.67-0.2,71.34-0.14,107.01c0.03,17.63-0.69,35.27,0.47,52.89c-0.63,0.02-1.26,0.04-1.9,0.05
	C96.14,292.71,96.11,289.62,96.09,286.53z"/>
<path class="st4" d="M77.31,297.95c0.46,0.09,0.91,0.19,1.37,0.28c0.01,7.94-0.5,15.89,0.46,23.81c-2.73,1.77-1.47-0.95-1.56-1.57
	c-0.74-5.03,1.17-10.26-1.1-15.19C76.42,302.8,75.48,300.21,77.31,297.95z"/>
<path class="st12" d="M175.71,135.72c-3.83,0.98-2.25,4.15-2.26,6.34c-0.09,57.86-0.03,115.72-0.1,173.57
	c-0.01,7.25,1.97,14.59-0.97,22.23c-2.45-3.14-1.04-6.5-1.28-9.53c-0.53-6.73-3.29-9.45-9.67-8.98c-2.82,0.21-6.01,0.71-6.43,3.87
	c-0.37,2.79-2.34,6.75,2.78,8.2c2.48,0.7,1.98,3.5,1.28,5.05c-1.53,3.38-4.65,4.3-8.25,4.09c-2.2-0.13-3.19-1.07-3.14-3.25
	c0.04-1.76-0.01-3.53-0.01-5.3c0-64.92,0-129.84-0.01-194.76c0-3.05,0.94-6.71-5.61-6.61c5.66-4.85,10.64-0.15,14.91-1.91
	c5.12,0.39,10.23,0.78,15.35,1.17c1.92,0.38,3.85,0.75,5.77,1.13l0.03,0.03c-0.79,1.55-1.58,3.11-2.37,4.66L175.71,135.72z"/>
<path class="st11" d="M184.58,84.09c5.74,11.71,9.49,24.24,14.65,36.19c0.89,1.59,3.48,3.68-1.07,3.67
	c-3.45-0.01-6.9-0.03-10.36,0.01c-2.42,0.03-3.63-0.9-3-3.48c0.47-0.54,0.93-1.09,1.4-1.63c4.78-1.97-1.31-4.86,0.6-7.42
	c0.81-1.09-1.23-1.49-2.36-1.5c-3.51-0.03-7.03-0.23-10.52,0.03c-4.8,0.37-1.54,1.98-0.36,3.21c-3.25,0.09-3.51,2.64-3.69,4.91
	c-0.19,2.3,1.12,3.54,3.54,3.3c0.36,1.63,0.57,3.27-0.04,4.89c-3.62,0-7.25-0.23-10.85,0.05c-3.86,0.3-5.74-1.16-5.7-5.06
	c4.88-3.31,7.45-8.06,8.43-13.79c4.93-0.78,5.25-4.87,5.74-8.54C172.39,88.62,176.48,84.02,184.58,84.09z M179.68,98.3
	c-0.74-0.4-1.93-1.89-2.19-0.85c-0.76,3-4.48,5.59-1.6,9.21c3.25,1.45,7,1.79,8.21-1.84C184.73,102.9,183.41,98.95,179.68,98.3z"/>
<path class="st4" d="M164.19,366.34c-4.32,1-6.08-2.78-8.69-4.85c-3.36-2.66-3.21-0.25-3.28,2.07c-0.98-0.73-1.96-1.47-2.94-2.2
	c0,0-0.12,0.04-0.12,0.04c0.09-0.89-0.43-1.17-1.18-1.24l-0.04,0.17c-0.03-0.89-0.7-1.05-1.37-1.22c-0.78-2.96-3.56-3.99-5.52-5.81
	c-0.27-4.01-4.32-4.47-6.32-6.83c-2.38-2.8-7.3-2.64-8.12-7.16c5.82,1.45,10.33,5.93,16.28,7.07c2.45-1.22,1.22-3.47,1.22-5.19
	c0.09-34.08,0.04-68.16,0.08-102.24c0.04-33.68,0.14-67.37,0.21-101.05c1.66,2.07,0.96,4.52,0.96,6.8
	c0.04,65.08,0.13,130.17-0.17,195.25c-0.02,4.8,2.75,5.63,5.44,6.7c2.04,0.81,5.38,2.89,6.71-1.49c0.66,0.01,1.33,0.01,2,0.02
	c-0.16,2.43,0.11,4.07,3.06,5.21c2.48,0.97,5.04,1.45,7.45,2.38c2.06,0.8,4.26,3.42,5.36-0.2c0.89-2.94,2.18-7.22-3.41-7.81
	c-0.12-1.19-0.24-2.38-0.36-3.57c3.08-0.38,4.64-1.9,4.26-5.25c-0.18-1.63-0.28-3.4,0.74-4.92c0.16,0.19,0.37,0.28,0.62,0.27
	c-0.07,5.63-0.18,11.26-0.19,16.9c-0.02,7.77,0.02,7.77,8.12,7.9c0.75,3.12,3.33,1.5,5.09,1.95c1.88,0.48,4.14-1.09,5.73,1.05
	c-3.29,0.95-7.04-0.89-10.64,1.6c3.28,1.42,6.17,2.55,7.21,5.83c-0.14,0.44-0.27,0.88-0.41,1.31c-4.69-2.66-8.53-6.81-14.01-8.1
	c-9.21-6.02-19.42-9.31-30.17-11.14c-0.37-0.78-1.27-1.22-1.64-0.56c-0.45,0.82,0.68,0.86,1.25,1.09
	C151.85,355.99,158.68,360.51,164.19,366.34z"/>
<path class="st6" d="M144.39,137.9c-0.07,33.68-0.17,67.37-0.21,101.05c-0.04,34.08,0,68.16-0.08,102.24c0,1.72,1.22,3.96-1.22,5.19
	c0.05-1.98,0.09-3.96,0.13-5.93c0.02-23.5,0.06-47,0.04-70.49c-0.04-43.86-0.11-87.73-0.16-131.59c-1.6-2.7-4.21-1.34-6.34-1.45
	c-11.79-0.6-23.63,1-35.4-0.89c1.01-0.15,2.02-0.29,3.04-0.44c12.95,0.02,25.9,0.03,38.84,0.05
	C143.48,136.39,143.94,137.14,144.39,137.9z"/>
<path class="st4" d="M176.42,324.21c-1-1.38-0.77-2.99-0.77-4.54c0.02-61.32,0.04-122.63,0.06-183.95c0,0,0.01-0.01,0.01-0.01
	c0.46,0.1,0.91,0.21,1.37,0.31c0,0.33,0.04,0.66,0.1,0.98c-0.11,0.97-0.32,1.93-0.32,2.9c0.01,60.98,0.03,121.96,0.05,182.94
	C176.75,323.29,176.59,323.75,176.42,324.21z"/>
<path class="st2" d="M160.92,341.32c-0.08-3.11-0.1-6.22-0.25-9.33c-0.06-1.32,0.05-3.42-0.66-3.8c-5.56-3.04-0.74-4.15,1.05-5.03
	c6.42-3.13,6.66-2.99,6.4,4.33c-0.15,4.36,1.38,8.99-1.5,13.04C164.29,340.8,162.61,341.06,160.92,341.32z"/>
<path class="st4" d="M143.03,135.63c-12.95-0.02-25.89-0.03-38.84-0.05c-0.76-0.52-2.23-1.23-2.15-1.54
	c0.3-1.14,1.53-0.46,2.36-0.69c11.15,0.03,22.3,0.01,33.46,0.11C139.77,133.49,142.3,132.51,143.03,135.63z"/>
<path class="st7" d="M184.58,84.09c-8.1-0.06-12.19,4.53-13.58,14.86c-0.49,3.67-0.81,7.75-5.74,8.54
	c-0.23-0.26-0.36-0.56-0.41-0.91c3.46-5.63,5-12.08,7.58-18.09C175.05,82.38,177.41,81.45,184.58,84.09z"/>
<path class="st6" d="M160.92,341.32c1.68-0.26,3.37-0.52,5.05-0.78c1.82,0.22,3.65,0.43,5.47,0.65c0.12,1.19,0.24,2.38,0.36,3.57
	c-4.15,0.14-8.31,0.28-12.46,0.42c-0.67-0.01-1.33-0.01-2-0.02C156.65,342.11,157.08,340.1,160.92,341.32z"/>
<path class="st6" d="M156.83,121.27c-0.04,3.91,1.85,5.36,5.7,5.06c3.6-0.28,7.23-0.05,10.85-0.05c-0.3,0.46-0.59,0.92-0.89,1.38
	c-5.13-0.14-10.26-0.28-15.38-0.43c-0.26-0.35-0.52-0.7-0.77-1.04c-0.12-1.46-0.24-2.92-0.36-4.39
	C156.27,121.64,156.55,121.46,156.83,121.27z"/>
<path class="st4" d="M157.11,127.23c5.13,0.14,10.26,0.28,15.38,0.43c-0.07,0.74-0.13,1.49-0.2,2.23
	c-5.12-0.39-10.23-0.78-15.35-1.17C157,128.22,157.06,127.73,157.11,127.23z"/>
<path class="st6" d="M176.42,324.21c0.17-0.46,0.33-0.92,0.5-1.38c0.48,0.08,0.96,0.17,1.44,0.25c0.16,0.19,0.22,0.4,0.18,0.65
	c-0.28,2.29-1.98,4.98,1.71,6.15c-0.08,1.85,1.88,2.21,2.53,3.53c-1.48-0.06-2.97-0.11-4.45-0.17c-0.43-0.65-0.86-1.3-1.29-1.95
	c-0.25,0.01-0.46-0.08-0.62-0.27C176.84,328.75,176.98,326.48,176.42,324.21z"/>
<path class="st4" d="M155.98,121.8c0.12,1.46,0.24,2.92,0.36,4.39C153.95,124.91,154.13,123.42,155.98,121.8z"/>
<path class="st4" d="M105.34,119.07c-0.28-0.27-0.56-0.54-0.84-0.8C104.78,118.54,105.06,118.81,105.34,119.07z"/>
<path class="st7" d="M101.15,136.02c11.76,1.89,23.61,0.29,35.4,0.89c2.13,0.11,4.74-1.25,6.34,1.44
	c-12.71-0.09-25.42-0.17-38.13-0.25c-1.74-0.01-3.61-0.2-3.9,2.3l-0.02,0.02c-3.66,3.16-3.79,6.31,0.01,9.46c0,0,0,0,0,0
	c0.01,1.16,0.01,2.33,0.02,3.49c0,45.69,0,91.38,0.02,137.07c0,1.36-0.22,2.93,0.34,4.05c3.36,6.74,4.82,13.79,4.13,21.29
	c-2.76,0.2-2.85-2.01-3.39-3.8c-1.63-5.34-3.18-10.69-3.89-16.25c-1.16-17.62-0.44-35.26-0.47-52.89
	c-0.06-35.67,0.08-71.34,0.14-107.01C98.87,135.9,100.01,135.96,101.15,136.02z"/>
<path class="st11" d="M119.74,100.37c0.17,5.46,0.27,10.89,4.07,15.43c4.3,5.14,9.09,6.06,14.8,2.29c2.23-1.47,4.29-3.29,6.19-5.18
	c1.54-1.53,2.54-1.42,4.28-0.14c1.91,1.41,2.09,2.55,0.74,4.27c-1.54,1.96-2.63,4.38-5.33,5.11c-1.55-2.68-2.8-0.5-4.21,0.21
	c-8.83,4.44-24.47,1.15-28.55-10.28c-2.31-6.47-1.25-12.63-0.55-18.97c0,0-0.13,0.11-0.13,0.11c1.97-0.98,3.44-2.39,3.94-4.64
	c0.36-0.73,0.71-1.46,1.06-2.19c6.45-4.08,13.37-4.63,20.62-2.83c0.75,0.19,1.49,0.55,2.24,0.57c8.13,0.22,8.13,0.21,8.8,8.05
	c-0.35,1.79,0.98,4.16-1.23,5.24c-1.21,0.59-1.84-1.01-2.45-1.99c-5.74-9.27-8.31-9.91-19.61-7.07c-5.57,1.4-5.73,4.12-3.71,8.36
	c-0.29,0.96-0.59,1.92-0.88,2.88c-0.61-0.81-1.36-1.64-2.18-0.42c-0.36,0.54-0.44,1.9-0.1,2.17
	C118.57,102.14,118.83,100.37,119.74,100.37z"/>
<path class="st8" d="M120.72,96.73c-2.02-4.25-1.86-6.96,3.71-8.36c11.3-2.84,13.87-2.2,19.61,7.07c0.6,0.98,1.23,2.58,2.45,1.99
	c2.21-1.08,0.88-3.45,1.23-5.24c1.15,2.01,2.99,4.46,1.39,6.36c-1.56,1.87-4.21,2.46-6.27-0.5c-1.83-2.63-3.25-5.78-6.58-7.04
	C128.48,88.31,125.74,89.32,120.72,96.73z"/>
<path class="st3" d="M113.98,86.2c-3.24,0.07-3.37,4.1-6.09,4.84c0.1-9.49,0.74-10.15,8.69-8.86
	C117.08,84.4,114.1,84.41,113.98,86.2z"/>
<path class="st0" d="M137.1,79.54c0.14,0.06,0.28,0.13,0.42,0.19c-0.2,0.16-0.39,0.31-0.59,0.47c-0.07-0.13-0.23-0.29-0.2-0.39
	C136.78,79.7,136.98,79.63,137.1,79.54z"/>
<path class="st0" d="M248.41,88.69c0.74-0.01,1.48-0.02,2.21-0.04c6.12,3.02,4.64,8.7,4.72,13.81c0.07,4.3,0.35,8.63-0.03,12.89
	c-0.38,4.26,1.35,7.25,4.6,9.37c8.89,5.82,18.52,8.48,28.47,3.54c3.52-1.75,6.76-5.28,6.65-10.35c-0.13-6.06,0.22-12.12,0.04-18.17
	c-0.1-3.25,0.45-6.11,2.46-8.66c1.62-0.08,2.75-0.85,3.32-2.4c-0.38-0.8-0.75-1.6-1.13-2.41c0.2-1.6,0.97-2.46,2.69-2.21
	c1.81,0.27,1.9,1.64,1.95,3.03c0.4,10.69,3.77,21.15,2.49,31.98c-0.04,2.94,0,5.88-0.13,8.82c-0.16,3.54,1.38,9.77-5.41,3.72
	c-0.95-0.85-2.21-0.47-3.37-0.24c-8.01,1.63-16.11,2.22-24.28,2.02c-5.46-0.13-10.47-3.17-16.04-2.37
	c-1.32-0.25-2.64-0.53-3.97-0.75c-3.91-0.64-8.02-0.16-11.68-2.15c-1.94,4.49-5.86,2.48-9.07,2.8c0.15-1.29,0.91-1.9,2.09-2.44
	c6.97-3.17,9.83-8.6,8.52-16.21C244.47,104.28,241.14,95.37,248.41,88.69z"/>
<path class="st7" d="M297.14,82.91c0.26,1.17,0.51,2.34,0.77,3.5c0,0.71,0.01,1.41,0.01,2.12c-0.2,0.39-0.39,0.79-0.59,1.18
	c-3.67-0.45-4.68,1.4-4.57,4.82c0.18,5.66,0.17,11.34-0.03,16.99c-0.36,10.24-6.56,16.02-16.88,16
	c-11.13-0.02-17.67-5.93-17.9-16.25c-0.11-4.88,0.01-9.77-0.07-14.65c-0.05-3.09,1.23-6.8-3.99-7.35c-1.84-0.19-1.29-2.56-1.36-4.04
	c-0.09-1.81,1.09-2.27,2.65-2.26c5.63,0.04,11.26,0.04,16.89,0.07c2.17,0.01,2.33,1.55,2.47,3.21c0.19,2.26-0.9,2.74-2.82,2.28
	c-0.28-1.8,0.47-4.41-2.51-4.38c-3.65,0.03-7.39-0.85-10.94,0.65c-0.3,0.13-0.54,1.21-0.34,1.6c4.05,8,1.17,16.56,1.98,24.81
	c0.3,3.08,1.55,5.56,3.32,7.96c3.79,5.13,9.14,5.07,14.71,4.91c8.57-0.25,11.97-3.38,12.4-11.94c0-6.02,0-12.03,0-18.05
	c-0.77,0-1.54,0-2.31,0c0,6.02,0,12.04,0,18.06c0.02,1.71-0.68,2.11-2.12,1.18c-0.9-7.37,1.15-14.91-1.23-22.2
	c-0.49-0.97-1.37-1.39-2.37-1.42c-2.86-0.09-2.79-2.06-2.76-4.11c0.03-2.58,1.79-2.59,3.61-2.6
	C287.82,82.97,292.48,82.93,297.14,82.91z"/>
<path class="st11" d="M285.91,113.32c1.43,0.93,2.14,0.53,2.12-1.18c0.77,0,1.54,0,2.31-0.01c-0.42,8.56-3.83,11.68-12.4,11.94
	c-5.57,0.16-10.92,0.23-14.71-4.91c-1.77-2.4-3.03-4.88-3.32-7.96c-0.8-8.25,2.07-16.81-1.98-24.81c-0.2-0.4,0.04-1.48,0.34-1.6
	c3.55-1.49,7.28-0.61,10.94-0.65c2.99-0.03,2.24,2.58,2.51,4.38c-3.08,0.52-2.46,3.04-2.52,5c-0.13,5.03-0.06,10.07-0.08,15.11
	c-0.02,4.14,0.02,8.33,4.19,10.73c4.2,2.42,7.24-0.5,10.42-2.59C285.92,116.56,285.62,114.75,285.91,113.32z"/>
<path class="st0" d="M271.76,104.29c0-2.54-0.11-5.09,0.02-7.62c0.21-4.09,2.56-5.72,6.52-5.74c4.01-0.02,5.14,2.44,4.87,5.7
	c-0.48,5.87,1.54,11.92-2.03,17.63c-1.82,2.9-3.99,2.72-6.44,2.5c-2.94-0.26-2.93-2.63-2.94-4.84
	C271.75,109.37,271.76,106.83,271.76,104.29z"/>
<path class="st8" d="M285.91,113.32c-0.29,1.43,0.02,3.24-2.18,3.45c1.72-8.5,0.34-17.11,0.95-25.65
	C287.06,98.41,285.01,105.95,285.91,113.32z"/>
<path class="st10" d="M297.33,89.71c0.2-0.39,0.39-0.79,0.59-1.18c0.98,0.05,1.95,0.1,2.93,0.15c-0.57,1.55-1.7,2.32-3.32,2.4
	C297.46,90.63,297.4,90.17,297.33,89.71z"/>
<path class="st8" d="M111.17,93.11c-0.7,6.34-1.76,12.5,0.55,18.97c4.08,11.43,19.72,14.72,28.55,10.28
	c1.41-0.71,2.67-2.88,4.21-0.21c-8.99,7.42-21.98,7.05-30.19-0.86C106.75,114.02,105.31,101.08,111.17,93.11z"/>
<path class="st8" d="M119.74,100.37c-0.92,0-1.17,1.77-2.18,1c-0.34-0.26-0.27-1.63,0.1-2.17c0.82-1.22,1.57-0.4,2.18,0.42
	C120.04,99.89,120.01,100.15,119.74,100.37z"/>
<path class="st8" d="M114.98,88.58c-0.5,2.25-1.97,3.66-3.94,4.64C111.1,90.59,112.51,89.13,114.98,88.58z"/>
<path class="st12" d="M232.91,130.93c3.21-0.32,7.13,1.69,9.07-2.8c3.66,1.99,7.77,1.51,11.68,2.15c1.33,0.22,2.64,0.5,3.97,0.75
	c0.2,2.06-2.71,2.71-2.19,4.91c-0.08,0.72-0.16,1.44-0.24,2.15c-3.52,2.29-3.36,4.64-0.12,7.04c0,0.79,0.01,1.58,0.01,2.37
	c-2.85,0.59-2.12,2.9-2.12,4.72c-0.03,61.94-0.03,123.87,0.01,185.81c0,1.8-0.81,4.12,2.01,4.8c0.03,0.8,0.06,1.59,0.09,2.39
	c-0.76,0.13-1.68,0.24-1.59,1.25c0.09,0.96,1.02,0.99,1.78,1.09c-3.78,6.41-9.56,10.94-15.05,15.63c-5.34,4.57-11.61,8.04-18.45,9.5
	c-3.13,0.67-8.23,3.73-9.72-2.9c-0.03-0.48-0.07-0.97-0.1-1.45c6.02-3.65,12.04-7.31,18.06-10.96c2.38,0.84,2.99-1.02,4.4-2.5
	c-9.72-0.75-9.72-0.75-9.4-9.8c1.15,0.12,2.69-0.2,3.39,0.43c3.55,3.17,7.8,2.04,11.68,1.85c7.68-0.37,9.95-4.55,6.71-11.65
	c-0.61-1.33-0.91-2.44-0.43-3.85c2.03-5.97,1.21-7.18-5.09-7.7c-0.09-0.35-0.2-0.7-0.34-1.04c-3.3-4.71-7.92-5.32-11.44-1.38
	c-1.24,1.39-2.69,2.13-4.41,2.5c-0.03-43.99-0.06-87.99-0.09-131.98c2.03-0.33,2.23-1.8,2.23-3.49c-0.01-17.2-0.04-34.4,0.02-51.59
	c0.01-2.74-1.05-3.88-3.78-3.84c-5.05,0.08-10.11-0.22-15.15,0.06c-3.76,0.21-4.85-1.48-4.55-4.83c0.06-0.69,0.11-1.37,0.17-2.06
	c3.75-1.49,6.75,1.39,9.7,2.46C220.06,131.33,226.45,130.78,232.91,130.93z"/>
<path class="st11" d="M217.67,110c1.18,3.28,0.44,7.08,2.69,10.06c5.18,2.87,7.93,2.21,9.03-2.16c0,0-0.14,0.02-0.14,0.02
	c1.02,0.04,2.3-0.18,2.31-1.2c0.08-8.57,1.59-17.2-0.79-25.69c-0.31-0.04-0.62-0.01-0.92,0.1c-0.29-0.41-0.58-0.82-0.86-1.23
	c-2.49-2.91-3.12-5.25,1.81-5.85c3.33,4.67,7.45,4.68,11.54,0.03c1.21-0.05,2.42-0.11,3.63-0.16c0,0,0.34,0.04,0.34,0.04
	c1.77,5.02-3.93,5.25-5.25,8.29c-2.11,8.57-0.48,17.27-0.97,25.9c-0.29,0.42-0.58,0.84-0.87,1.26c-0.74,0.15-1.63,0.08-2.19,0.48
	c-8.27,5.97-16.78,5.68-24.48-0.15c-2.01-1.52-0.8-6.19-5.12-5.04c-0.32-2.58-0.3-4.84,2.51-6.39
	C213.19,106.52,215.35,108.27,217.67,110z"/>
<path class="st8" d="M207.43,114.7c4.32-1.15,3.11,3.52,5.12,5.04c7.69,5.83,16.2,6.11,24.48,0.15c0.56-0.4,1.46-0.33,2.19-0.48
	c-3.24,6.73-9.26,8.04-15.81,7.99c-6.54-0.04-11.94-2.62-15.63-8.23C206.9,117.84,206.92,116.24,207.43,114.7z"/>
<path class="st4" d="M241.05,92.24c1.33-3.03,7.03-3.26,5.25-8.29c0.66-0.01,1.32-0.01,1.97-0.02c0.04,1.59,0.09,3.17,0.13,4.76
	c-7.27,6.68-3.94,15.58-4.88,23.59c-0.65-0.84-1.31-1.67-1.96-2.51C241.39,103.93,241.22,98.09,241.05,92.24z"/>
<path class="st1" d="M241.05,92.24c0.17,5.84,0.34,11.69,0.51,17.53c-0.92,2.71,0.49,5.85-1.48,8.37
	C240.57,109.52,238.95,100.81,241.05,92.24z"/>
<path class="st3" d="M203.74,128.58c-0.31,3.35,0.79,5.03,4.55,4.83c5.03-0.27,10.1,0.03,15.15-0.06c2.73-0.04,3.78,1.1,3.78,3.84
	c-0.06,17.2-0.04,34.4-0.02,51.59c0,1.68-0.2,3.15-2.23,3.49c-0.04-17.04-0.04-34.09-0.18-51.13c-0.02-2,1.34-5.11-2.66-5.22
	c-15.01,0.03-30.02,0.06-45.03,0.09c-0.46-0.1-0.91-0.21-1.37-0.31c0.79-1.56,1.58-3.11,2.37-4.66c0.85-0.16,1.86-0.13,1.76-1.43
	c-0.01-0.14-0.23-0.36-0.37-0.36c-1.3-0.09-1.28,0.91-1.42,1.77c-1.92-0.38-3.85-0.75-5.77-1.13c0.07-0.74,0.13-1.49,0.2-2.23
	c0.3-0.46,0.59-0.92,0.89-1.37c0.6-1.63,0.4-3.26,0.04-4.89c-0.91-5.37,1.32-7.56,6.66-6.76c1.53,0.23,3.1,0.15,4.65,0.22
	c0.49,1.33,0.99,2.67,1.48,4c-0.47,0.54-0.93,1.09-1.4,1.63c-5.48,0.63-2.85,3.77-1.94,6.38c0.55,2.56,2.62,1.81,4.19,1.82
	C192.61,128.72,198.18,128.62,203.74,128.58z"/>
<path class="st8" d="M182.86,126.86c-0.91-2.61-3.54-5.75,1.94-6.38c-0.63,2.58,0.57,3.51,2.99,3.48c3.45-0.04,6.9-0.02,10.36-0.01
	c4.55,0.01,1.96-2.08,1.07-3.67c2.9-0.26,3.58,1.33,3.47,3.91c-0.12,2.67-1.91,2.47-3.64,2.49
	C193.66,126.75,188.26,126.8,182.86,126.86z"/>
<path class="st3" d="M255.44,135.95c-0.53-2.2,2.38-2.86,2.19-4.91c5.58-0.8,10.59,2.24,16.04,2.37c8.17,0.2,16.27-0.39,24.28-2.02
	c1.16-0.23,2.41-0.61,3.37,0.24c6.79,6.05,5.25-0.18,5.41-3.72c0.13-2.93,0.1-5.88,0.13-8.82c1.43,0.15,2.14,0.96,2.19,2.39
	c0,8.81,0,17.61,0,26.42c0.04,43.24,0.07,86.48,0.11,129.73c0.42,6.9-1.14,13.57-2.26,20.3c-4.15-0.68-2.35-4.04-2.36-6.11
	c-0.14-40.96-0.11-81.92-0.12-122.88c0-8.43,0.02-16.85-0.03-25.28c-0.01-1.92,0.52-3.94-0.84-5.67c-0.45-0.51-0.89-1.03-1.34-1.54
	c-4.88-1.77-9.94-0.7-14.9-0.75C276.69,135.56,266.06,135.83,255.44,135.95z"/>
<path class="st8" d="M308.94,94.58c2.05,1.85,2.33,4.39,2.48,6.9c3.23,53.89,2.38,107.85,2.2,161.79
	c-0.02,7.35-1.46,14.69-2.24,22.03c-2.23-2.59-0.45-5.76-1.25-8.56c0.07-5.01,0.15-10.03,0.22-15.04c1.02-1.61,0.72-3.41,0.72-5.15
	c0.02-38.39,0.03-76.78,0.03-115.17c0-1.54,0.29-3.15-0.71-4.55c-0.13-5.11-0.27-10.21-0.4-15.32
	C311.04,112.48,308.1,103.6,308.94,94.58z"/>
<path class="st4" d="M310.36,261.7c-0.07,5.01-0.15,10.03-0.22,15.04c-0.32,0.29-0.65,0.58-0.97,0.87
	c-0.04-43.24-0.08-86.48-0.11-129.73c-0.01-8.81,0-17.61,0-26.42c0.32,0.05,0.64,0.07,0.96,0.04c0.13,5.1,0.27,10.21,0.4,15.32
	C310.39,178.45,310.37,220.08,310.36,261.7z"/>
<path class="st8" d="M307.48,88.32c0.58-0.77,1.36-1.81,1.55,0.09c0.21,2.04,0,4.13-0.03,6.2
	C307.02,92.87,307.94,90.43,307.48,88.32z"/>
<path class="st4" d="M300.85,88.68c-0.98-0.05-1.95-0.1-2.93-0.15c0-0.71-0.01-1.42-0.01-2.12c0.6-0.04,1.21-0.09,1.81-0.14
	C300.1,87.08,300.47,87.88,300.85,88.68z"/>
<path class="st6" d="M230.79,84.04c-4.92,0.6-4.3,2.94-1.81,5.85c-3.27,0.53-4.66-0.74-4.5-4.18c0.16-3.31,2.37-3.26,4.49-3.04
	c5.65,0.6,11.51-1.66,16.99,1.24c-1.21,0.05-2.42,0.11-3.63,0.16C238.49,84.07,234.64,84.05,230.79,84.04z"/>
<path class="st7" d="M229.85,91.13c0.3-0.11,0.61-0.14,0.92-0.1c-0.61,8.22,1.11,16.53-0.98,24.68c-0.13-0.46-0.26-0.92-0.39-1.39
	C229.55,106.59,229.7,98.86,229.85,91.13z"/>
<path class="st8" d="M229.79,115.71c2.09-8.16,0.37-16.47,0.98-24.68c2.39,8.49,0.87,17.12,0.79,25.69c-0.01,1.02-1.3,1.25-2.31,1.2
	C229.43,117.18,229.61,116.45,229.79,115.71z"/>
<path class="st8" d="M229.39,117.9c-1.1,4.38-3.86,5.04-9.03,2.16C223.68,120.67,226.84,120.56,229.39,117.9z"/>
<path class="st1" d="M82.21,297.34c4.55,8.51,7.06,17.78,9.93,26.92c0.38,4.07,0.91,8.14,1.1,12.22c0.15,3.22-1.22,3.82-3.84,1.83
	c-3.04-2.3-4.42-5.95-7.1-8.52c-1.19-2.31-2.96-4.43-2.35-7.33c-0.01-6.55,0.05-13.11-0.05-19.66
	C79.86,300.55,80.14,298.6,82.21,297.34z"/>
<path class="st4" d="M82.3,329.79c2.68,2.57,4.05,6.22,7.1,8.52c2.62,1.98,4,1.39,3.84-1.83c-0.19-4.08-0.72-8.15-1.1-12.22
	c2.34,0.4,1.69,2.25,1.69,3.69c0.01,5.45-0.06,10.9-0.1,16.35c-0.8-0.5-1.59-1-2.38-1.5c-2.33-2.87-4.93-5.37-8.73-6.13
	c-0.82-1.14-1.85-1.6-3.22-1.05c-0.39-0.67-0.78-1.33-1.17-2C80.89,333.75,82.45,332.68,82.3,329.79z"/>
<path class="st7" d="M82.21,297.34c-2.08,1.26-2.35,3.21-2.31,5.46c0.1,6.55,0.05,13.11,0.05,19.66c-0.3-0.08-0.57-0.22-0.82-0.42
	c-0.96-7.92-0.44-15.87-0.46-23.81c0.42-1.66,0.84-3.32,1.34-5.31C81.75,294.16,82.18,295.65,82.21,297.34z"/>
<path class="st7" d="M78.23,333.62c0.39,0.67,0.78,1.34,1.17,2c-2.37-0.19-5.38,1.71-6.65-2.07c1.16-0.05,2.32-0.1,3.48-0.15
	C76.9,333.47,77.56,333.54,78.23,333.62z"/>
<path class="st6" d="M76.24,333.39c-1.16,0.05-2.32,0.1-3.48,0.15c-0.89-0.21-1.89-0.23-2.28-1.31
	C72.47,332.24,74.53,331.92,76.24,333.39z"/>
<path class="st5" d="M48.27,300.72c5.05,2.26,9.63,5.15,13.65,8.9c1.5,1.4,2.77,3.06,4.32,4.4c2.31,1.99,2.87,4.8,1.12,6.66
	c-1.69,1.8-4.29,1.35-6.63-0.71C54.87,314.78,50.31,308.8,48.27,300.72z"/>
<path class="st3" d="M320.78,298.17c0.44-0.64,1.03-1.22,1.3-1.92c0.45-1.13-0.11-3.2,2-2.72c1.25,0.28,1.1,1.95,1.12,3.09
	c0.15,7.63,0.25,15.27,0.37,22.91c-2.09,5.54-3.45,11.43-7.76,15.9c-0.62,0.64-1.94,1.55-0.55,2.78c0,0,0.08-0.07,0.08-0.07
	c-1.21-1.44-2.27,0.37-3.43,0.16c-0.05-6.03-0.11-12.06-0.16-18.09c-0.1-0.27-0.05-0.51,0.13-0.73c3.94-1.44,1.67-4.83,2.28-7.31
	C316.75,307.18,320.62,303.3,320.78,298.17z"/>
<path class="st4" d="M326.55,333.38c7.17-1.41,14.32-3.15,22.03-1.75c-0.46,3.06-3.34,3.89-4.4,6.02c-2.01,1.8-3.96,3.68-6.05,5.38
	c-8.68,7.06-17.89,11.21-28.87,5.07c-0.03-0.59-0.07-1.18-0.1-1.76c1.37-2.1,4.45-2.81,4.67-5.85c0,0-0.08,0.08-0.08,0.08
	c1.2-0.81,2.4-1.61,3.61-2.42c0,0-0.08,0.07-0.08,0.07C320.35,336.6,323.45,334.99,326.55,333.38z M313.77,347.18
	c4.99,0.57,9.09,1.51,12.89-0.66c4.78-2.73,8.41-7.26,13.86-9c0.97-0.31,1.34-1.47,1.2-2.47c-0.22-1.55-1.56-1.31-2.68-1.59
	c-3.17-0.77-5.26,1.92-8.15,2.4C324.05,337.02,318.03,340.06,313.77,347.18z"/>
<path class="st1" d="M309.14,346.32c0.03,0.59,0.07,1.18,0.1,1.76c1.2,5.47,5.93,3.34,9.22,4.33c1.16,1.19,2.76,2.16,2.16,4.25
	c-2.22,0.03-4.45,0.07-6.67,0.11c-1.89-3.96-5.47-1.91-8.22-2.09c-6.72-0.43-6.72-0.2-3.92-6.2c1.9-4.08,3.75-8.18,6.18-13.49
	C309.7,339.55,308.7,343.03,309.14,346.32z"/>
<path class="st4" d="M313.75,320.21c0.05,6.03,0.11,12.06,0.16,18.09c-0.06,0.75-0.12,1.51-0.18,2.26c0,0,0.08-0.08,0.08-0.08
	c-2.48,0.59-3.35-0.68-3.49-2.96C309.94,331.44,311,325.66,313.75,320.21z"/>
<path class="st4" d="M316.15,312.16c-0.6,2.49,1.66,5.87-2.28,7.31C313.93,316.82,314.37,314.28,316.15,312.16z"/>
<path class="st8" d="M269.07,365.16c-0.93-2.57,1.95-2.2,2.67-3.5C271.68,363.46,270.94,364.75,269.07,365.16z"/>
<path class="st13" d="M369.92,71.01c-0.01,1.62-1.38,2.18-2.29,3.16c-1.8,1.94-2.18,5.16-0.59,6.35c2.9,2.17,2.05-2.72,4.26-3.19
	c0.36,1.65,0.72,3.3,1.08,4.95c-1.77,8.27-2.37,16.65-2.33,25.09c-3.12,0.6-2.43,3.1-2.43,5.13c0.16,52.09-0.58,104.18,0.37,156.27
	c0.12,6.64-0.28,13.28-0.44,19.92c-5.25-2.39-8.73-0.59-9.35,4.86c-1.51-0.11-2.22,0.73-2.47,2.11c-4.88-0.88-7.6,3.4-11.5,4.87
	c-2.89-0.72-3.37,1.96-4.73,3.4c-3.45,3.65-3.44,3.66-5.98-0.37c-1.26,0.41-0.96,1.53-1.05,2.43c-0.15,1.51-0.38,2.89-2.42,2.06
	c-1.33-0.54-2.8-1.54-1.81-3.03c3.48-5.2-1.12-11.94,3.34-16.92c0.52-0.58-0.17-1.42-1.12-1.51c-1.03-0.09-2.04,0.09-2.37,1.19
	c-0.52,1.71-0.82,3.8-3.26,3.09c-2.59-0.76,0.11-2.94-0.11-3c-6.41-1.5-3.6-6.62-3.89-10.29c-0.35-4.48-0.08-9-0.08-13.51
	c0-47.01-0.08-94.01,0.06-141.02c0.04-14.5-1.97-28.7-4.78-42.84c-0.64-3.19-3.17-5.3-4.64-8.02c9.64,0,19.28,0.13,28.92-0.06
	c5.1-0.1,10.13,0.65,15.27-1.93C359.93,68.03,365.07,71.28,369.92,71.01z"/>
<path class="st14" d="M105.35,315.79c0.69-7.5-0.77-14.56-4.13-21.29c-0.56-1.13-0.34-2.69-0.34-4.05
	c-0.02-45.69-0.01-91.38-0.01-137.07c1.51-0.19,3.02-0.37,4.53-0.56c0.27,0.14,0.43,0.36,0.49,0.66c-1.62,2.21-0.94,4.56,1.05,5.45
	c3.6,1.59,3.55,3.02,1.53,6.11c-1.88,2.88,2,4.59,2.72,7.1c0.31,1.09,2.11,1.54,2.97,0.58c4.18-4.64,9.19-2.43,13.46-1.1
	c5.97,1.86,5.05-4.29,4.68-4.85c-3.22-5,0.24-6.73,3.57-8.7c3.34,0.12,1.62-3.41,3.41-4.83c0.09,0.99,0.2,1.7,0.2,2.42
	c0.01,60.05,0.01,120.1,0,180.15c0,1.73,0.35,3.57-1.23,4.91l-0.08-0.15c-0.09-0.52-0.18-1.04-0.28-1.56
	c-0.28,0.18-0.55,0.37-0.83,0.55c-3.85-0.9-8.51-0.65-8.42-6.73c0.02-1.29-1.19-1.1-2.13-0.39c-1.68,1.27-2.86-0.25-3.26-1.25
	c-2.42-6.02-8.27-5.55-12.98-7.24C107.25,322.07,105.24,319.58,105.35,315.79z"/>
<path class="st5" d="M117.08,357.23c-1.02-0.07-1.91-0.38-2.45-1.33c-1.44-2.92-3.7-4.9-6.78-5.93c0,0,0,0,0,0
	c-0.12-5.53-4.53-9.21-6.05-14.26c-1.48-4.9-1.19-6.42,3.94-6.93c3.7,2.15,5.7,5.8,7.95,9.22c1.22,1.8,2.45,3.6,3.67,5.41
	c0.08,1.48-0.76,3.34,1.55,3.93l-0.22-0.08c0.33,0.49,0.67,0.99,1,1.48l-0.03-0.07C118.52,351.44,121.52,355.46,117.08,357.23z"/>
<path class="st7" d="M110.27,323.93c4.71,1.69,10.56,1.22,12.98,7.24c0.4,1,1.59,2.52,3.26,1.25c0.94-0.71,2.15-0.91,2.13,0.39
	c-0.09,6.07,4.57,5.83,8.42,6.72c0.37,0.33,0.74,0.67,1.11,1.01c0,0,0.08,0.15,0.08,0.15c1.83,4.57,3.1-1.47,4.75-0.25
	c-0.04,1.98-0.09,3.96-0.13,5.93c-5.95-1.14-10.47-5.62-16.28-7.07l0.05,0.05c-3.15-2.29-6.29-4.59-9.44-6.88
	C115.17,329.4,110.57,328.43,110.27,323.93z"/>
<path class="st7" d="M126.59,339.3c0.83,4.53,5.75,4.36,8.12,7.16c2,2.36,6.05,2.82,6.32,6.83c-2.57,2.28-3.47-0.72-4.49-1.78
	c-3.34-3.45-6.65-6.78-11.68-7.87c-1.15,2.32,0.66,3.45,1.62,5.06c2.51,4.21,6.84,7.38,7.4,12.73c0,0-0.1,0.11-0.1,0.11
	c-1.56-1.5-3.12-3-4.68-4.49c-3.81-6.3-7.62-12.6-11.43-18.91c0.13-0.66,0.27-1.32,0.4-1.98c2.94,0.83,4.98,4.11,8.56,3.18
	L126.59,339.3z"/>
<path class="st9" d="M102.27,346.21c-3.6,3.98,3.06,4.52,2.35,7.97c-5.59,0.72-11.25,0.66-17.27-0.77
	c11.17-0.06,9.35-8.01,8.88-14.65c3.58-0.02,2.04,5.33,5.74,4.11C102.08,343.98,102.17,345.09,102.27,346.21z"/>
<path class="st7" d="M102.27,346.21c-0.1-1.12-0.19-2.23-0.29-3.35c-1.97-7.19-3.95-14.38-6.09-22.17c4.19,2.14,7.17,4.92,9.85,8.09
	c-5.13,0.5-5.42,2.03-3.94,6.93c1.52,5.04,5.93,8.72,6.05,14.26C105.99,348.72,104.13,347.46,102.27,346.21z"/>
<path class="st4" d="M117.68,338.15c3.81,6.3,7.62,12.6,11.43,18.91c-2.28-0.98-4.4-2.84-7.13-1.26c-1.01-2.3-0.29-5.16-2.33-7.12
	c0,0,0.03,0.07,0.04,0.07c0.06-0.76-0.14-1.35-1-1.48c0,0,0.22,0.08,0.22,0.09c0.25-1.61-0.51-2.83-1.55-3.93
	c-1.22-1.8-2.44-3.6-3.67-5.41C115.14,334.42,116.28,339.97,117.68,338.15z"/>
<path class="st4" d="M126.64,339.35c-3.58,0.93-5.62-2.35-8.56-3.18c-0.92-1.08-0.99-2.37-0.88-3.7
	C120.35,334.77,123.5,337.06,126.64,339.35z"/>
<path class="st7" d="M107.84,349.97c3.08,1.03,5.34,3.01,6.78,5.93c-0.57,0-1.14,0.01-1.7,0.02
	C110.83,354.28,108.15,353.15,107.84,349.97z"/>
<path class="st7" d="M119.64,348.67c2.04,1.95,1.32,4.82,2.33,7.12c0.05,0.42,0.09,0.85,0.14,1.27c-0.3,1.27,0.15,2.97-1.86,3.25
	c0,0-0.4-0.17-0.39-0.18c-0.93-0.97-1.85-1.94-2.78-2.9C121.52,355.46,118.52,351.44,119.64,348.67z"/>
<path class="st7" d="M82.62,336.67c3.8,0.76,6.4,3.26,8.73,6.13c-4.85,0.9-6.43-4.44-10.26-5.47
	C81.6,337.11,82.11,336.89,82.62,336.67z"/>
<path class="st5" d="M133.88,361.44c-0.56-5.35-4.88-8.52-7.4-12.73c-0.96-1.61-2.77-2.75-1.62-5.06c5.03,1.09,8.34,4.42,11.68,7.87
	c1.02,1.05,1.92,4.06,4.49,1.78c1.96,1.82,4.74,2.86,5.52,5.81c0.46,0.41,0.91,0.81,1.37,1.22c0,0,0.04-0.17,0.04-0.16
	c-0.08,0.87,0.28,1.32,1.19,1.23c0,0,0.12-0.04,0.12-0.04c-0.82,2.23,1.85,4.43,0.05,6.7C143.82,366.68,139.65,362.16,133.88,361.44
	z"/>
<path class="st3" d="M361.58,296.19c-1.68,12.31-13.18,26.11-22.81,27.22c-2.24,0.26-5.14,1.14-6.43-1.14
	c-0.99-1.75,0.36-4.17,1.53-5.92c3.32-4.97,6.6-10.01,11.85-13.24c3.37-1.98,6.74-3.96,10.1-5.93c1.11-0.21,2.22-0.42,3.33-0.63
	C359.95,296.42,360.76,296.3,361.58,296.19z"/>
<path class="st8" d="M318.46,352.42c-3.28-0.99-8.02,1.14-9.22-4.33c10.98,6.15,20.2,2,28.87-5.06c2.09-1.7,4.04-3.58,6.05-5.38
	c-1.47,5.77-12.18,14.45-18.16,14.68C323.49,352.41,320.98,352.39,318.46,352.42z"/>
<path class="st7" d="M326.55,333.38c-3.1,1.61-6.2,3.22-9.29,4.84c-1.38-1.23-0.06-2.15,0.55-2.78c4.31-4.47,5.67-10.36,7.76-15.9
	c-0.37,3.37,0.71,6.8-1.74,10.05C321.97,332.04,323.74,333.45,326.55,333.38z"/>
<path class="st7" d="M355.82,297.16c-3.37,1.98-6.73,3.95-10.1,5.93c-1.19-0.45-1.44-1.44-1.47-2.57c3.9-1.47,6.62-5.75,11.5-4.87
	c0,0,0.18,0.19,0.18,0.19C355.89,296.29,355.85,296.73,355.82,297.16z"/>
<path class="st7" d="M361.58,296.19c-0.81,0.12-1.62,0.23-2.43,0.35c-1.07-0.23-2.14-0.46-3.22-0.69c0,0-0.18-0.18-0.18-0.19
	c0.25-1.38,0.96-2.22,2.47-2.11C359.34,294.43,360.46,295.31,361.58,296.19z"/>
<path class="st13" d="M362.47,291.95c-0.14,0.33-0.21,0.85-0.45,0.94c-0.24,0.09-0.64-0.23-0.97-0.37c0.14-0.33,0.21-0.85,0.45-0.94
	C361.74,291.48,362.14,291.81,362.47,291.95z"/>
<path class="st13" d="M330.54,327.49c0.25-0.21,0.49-0.4,0.72-0.6c0.23,0.36,0.45,0.72,0.68,1.08c-0.3,0.12-0.65,0.38-0.9,0.31
	C330.83,328.21,330.71,327.78,330.54,327.49z"/>
<path class="st11" d="M227.4,375.77c4.58,2.1,9.15-1.16,13.73-0.03c0.02,0.58,0.26,1.29,0.02,1.73c-1.13,2.08,3.86,3.44,0.8,5.33
	c-2.23,1.37-5.18,0.62-7.09-0.77C232.26,380.14,227.8,380.31,227.4,375.77z"/>
<path class="st1" d="M164.19,366.34c-5.51-5.82-12.33-10.34-16.77-17.22c0.11-0.19,0.24-0.36,0.39-0.53
	c10.74,1.84,20.95,5.12,30.17,11.14c4.24,4.17,8.58,8.2,14.46,9.98l0.11-0.08c-0.12,1.47-0.25,2.94-0.37,4.41
	c-3.83,1.34-7.76,0.41-11.64,0.49C174.71,372.53,169.09,370.17,164.19,366.34z"/>
<path class="st7" d="M192.16,374.04c0.12-1.47,0.25-2.94,0.37-4.41c1.91,0.59,3.24,1.82,4.03,3.66c-0.66,0.36-1.32,0.72-1.98,1.09
	C193.78,374.26,192.97,374.15,192.16,374.04z"/>
<path class="st1" d="M281.3,333.71c-6.71,6.15-15.62,7.88-23.43,11.81c-0.07-2.35-0.2-4.69-0.2-7.04
	c-0.01-61.24-0.01-122.47,0.01-183.71c0-5.47,0.17-10.95,0.25-16.42c14.29,0.01,28.59,0.03,42.89,0.05
	c-0.06,1.55,0.55,3.26-1.08,4.42c-0.39-2.92-2.65-2.34-4.51-2.36c-3.9-0.05-7.81,0.23-11.68-0.07c-4.87-0.39-4.5,1.63-2.53,4.73
	c-0.69,0.09-1.37,0.18-2.06,0.27c-0.78,0.03-1.55,0.05-2.33,0.08c-3.42-0.12-3.6,1.78-2.69,4.36c0,0,0.01-0.01,0.01-0.01
	c-2.85,1.77-5.82,3.03-9.28,2.39c-0.02-2.35,0.05-4.71-0.07-7.05c-0.11-2.09-0.95-2.08-2.63-1.06c-0.68,0.42-2.88-0.26-1.78,1.28
	c1.6,2.23,0.98,5.94,4.44,6.86c0.07,0.66,0.14,1.32,0.21,1.98c-2.02,4.49,3.02,4.98,4.26,7.61c1.08,3.76-1.28,7.37-0.51,11.11
	c-1.31-0.25-2.63-0.5-3.94-0.74c-0.18-0.08-0.35-0.17-0.53-0.25c0.16,0.1,0.33,0.19,0.49,0.29c-6.67,5.95-4.6,13.9-4.61,21.26
	c-0.09,44.86-0.04,89.72-0.04,134.58c0,1.76-0.2,3.57,0.1,5.28c0.76,4.28,8.92,7.42,10.49,3.97c2.52-5.54,6.67-3.23,10.23-4.01
	C280.96,333.44,281.13,333.57,281.3,333.71z M259.97,160.14c0.09,1.9-0.23,3.61,0.33,4.93c0.75,1.75,2.22,3.08,4.45,3.16
	c1.1,0.04,1.72-0.02,2.14-1.25c0.84-2.46-2.05-2.33-2.53-4.01C263.86,161.25,261.71,161.23,259.97,160.14z"/>
<path class="st0" d="M254.98,342.85c-2.83-0.68-2.01-3.01-2.01-4.8c-0.03-61.94-0.03-123.87-0.01-185.81c0-1.82-0.73-4.13,2.12-4.72
	C255.05,212.63,255.02,277.74,254.98,342.85z"/>
<path class="st1" d="M302.63,305.62c0.14,0.36,0.04,0.62-0.31,0.79c-0.77,0.24-1.16,0.55-0.2,1.1c-0.1,0.45-0.2,0.89-0.3,1.34
	c-2.62-0.32-1.79,3.78-4.39,3.47c0.75-4.85,4-9.67,0.11-14.58c-0.21-0.26,0.22-1.1,0.43-1.63c2.71-6.72,2.96-13.41-0.16-20.09
	c-0.51-1.1-0.64-2.43,0.16-3.36c2.31-2.7,1.73-5.89,1.73-8.96c0.02-39.91,0.02-79.81,0.02-119.72c1.99,1.94,1.11,4.44,1.11,6.68
	c0.06,44.58,0.03,89.16,0.08,133.75c0,2.26-0.8,4.73,1.02,6.74C302.57,295.95,301.4,300.84,302.63,305.62z"/>
<path class="st6" d="M257.93,138.36c-0.09,5.47-0.25,10.95-0.26,16.42c-0.02,61.24-0.02,122.47-0.01,183.71
	c0,2.35,0.13,4.69,0.2,7.04c-2.46-0.03-1.3-1.92-1.3-2.92c-0.06-67.37-0.06-134.73-0.05-202.1c0-1.26-0.54-2.83,1.26-3.49
	C257.83,137.47,257.88,137.91,257.93,138.36z"/>
<path class="st7" d="M229.99,357.39c-6.02,3.65-12.04,7.31-18.06,10.96c0.09-0.52,0.18-1.04,0.27-1.56
	c-1.56,0.56-2.81,1.51-3.66,2.96c0.52,0.16,1.04,0.33,1.55,0.49c-0.53,0.7-1.06,1.4-1.59,2.1c-2.35-1.75-2.23-4.25-2.34-6.84
	c-0.09-2.13,1.27-4.87-1.78-6.19c-0.22-0.01-0.44,0.01-0.66,0.04c8.2-1.14,16.39-2.29,24.6-3.4
	C229.3,355.82,230.31,355.87,229.99,357.39z"/>
<path class="st6" d="M302.63,305.62c-1.23-4.78-0.06-9.67-0.69-14.48c0.04-21.75,0.13-43.5,0.12-65.24
	c-0.02-29.19-0.12-58.38-0.18-87.57c0.04-0.45,0.09-0.9,0.13-1.35c-0.06-0.23,0.01-0.41,0.2-0.54c0.45,0.51,0.89,1.03,1.34,1.54
	c-0.09,19.55-0.23,39.1-0.26,58.65c-0.05,34.62-0.03,69.23-0.05,103.85C303.23,302.19,303.61,303.99,302.63,305.62z"/>
<path class="st0" d="M278.6,347.41c-0.06,0.39,0,0.85-0.19,1.14c-5.77,8.5-13.05,15.31-22.26,19.91c-0.56,0.28-1.61,0.1-2.17-0.27
	c-0.81-0.55-0.2-1.27,0.17-1.97c5.01-9.3,12.65-15.83,21.78-20.69C277.5,344.7,278.54,345.69,278.6,347.41z"/>
<path class="st1" d="M288.1,328.98c-1.84,2.2-4.24,3.58-6.8,4.73c-0.16-0.14-0.33-0.28-0.51-0.4c-2.58-2.15-2.8-5.13-1.7-7.8
	c1.12-2.69,4.04-1.19,6.16-1.42c1.69-0.19,3.43-0.02,5.14-0.02c0.25,0.56,0.49,1.13,0.74,1.69c0,0-0.35-0.15-0.35-0.15
	c-0.83-0.07-1.25,0.32-1.26,1.15c0,0,0.15,0.02,0.15,0.02C288.03,326.71,288.19,327.93,288.1,328.98z M282.22,329.98
	c0.15-0.18,0.29-0.36,0.44-0.54c-0.18,0.15-0.36,0.3-0.54,0.45c-0.08,0.19-0.15,0.38-0.23,0.56
	C282.01,330.29,282.12,330.13,282.22,329.98z"/>
<path class="st8" d="M302.01,136.97c-0.04,0.45-0.09,0.9-0.13,1.35c-0.36-0.07-0.72-0.05-1.06,0.08
	c-14.3-0.02-28.59-0.03-42.89-0.05c-0.05-0.44-0.1-0.89-0.15-1.33C272.53,137,287.27,136.99,302.01,136.97z"/>
<path class="st7" d="M297.43,312.32c2.61,0.3,1.78-3.79,4.39-3.47c-1.62,5.93-4.04,11.39-8.87,15.45c0,0-0.28-0.29-0.27-0.29
	c-1.18-4.51,4.09-5.78,4.67-9.4C297.37,313.84,297.4,313.08,297.43,312.32z"/>
<path class="st6" d="M278.87,339.6c-1.74,3.18-5.08,4.09-8.71,6.57c1.64-5.1,5.33-5.63,8.46-6.89L278.87,339.6z"/>
<path class="st0" d="M255.07,145.14c-3.24-2.41-3.39-4.76,0.12-7.04C255.15,140.45,255.11,142.8,255.07,145.14z"/>
<path class="st8" d="M210.09,370.24c-0.52-0.16-1.04-0.33-1.55-0.49c0.85-1.45,2.1-2.4,3.66-2.96c-0.09,0.52-0.18,1.04-0.27,1.56
	c0.03,0.48,0.07,0.97,0.1,1.45C211.38,369.95,210.74,370.09,210.09,370.24z"/>
<path class="st0" d="M255.26,347.57c-0.76-0.1-1.69-0.13-1.78-1.09c-0.09-1.01,0.83-1.13,1.59-1.25
	C255.13,346.01,255.19,346.79,255.26,347.57z"/>
<path class="st6" d="M278.62,339.27c0.45-1.05,1.25-1.38,2.31-1.08c0.14,0.04,0.36,0.36,0.32,0.45c-0.47,1.11-1.48,0.92-2.38,0.95
	C278.87,339.6,278.62,339.27,278.62,339.27z"/>
<path class="st7" d="M288.1,328.98c0.09-1.05-0.07-2.27,1.57-2.2C289.85,328.03,288.81,328.38,288.1,328.98z"/>
<path class="st7" d="M291.13,325.77c-0.25-0.56-0.49-1.13-0.74-1.69c0,0,0.01-0.01,0.01-0.01c0.76-0.02,1.51-0.04,2.27-0.06
	c0,0,0.27,0.29,0.28,0.29C292.34,324.79,291.74,325.28,291.13,325.77z"/>
<path class="st7" d="M289.52,326.76c0.01-0.83,0.42-1.22,1.26-1.15C290.81,326.5,290.43,326.93,289.52,326.76z"/>
<path class="st14" d="M302.13,307.51c-0.97-0.56-0.57-0.86,0.2-1.1C302.46,306.81,302.39,307.18,302.13,307.51z"/>
<path class="st4" d="M229.99,357.39c0.32-1.52-0.69-1.57-1.68-1.44c-8.2,1.11-16.4,2.26-24.6,3.4c-0.79,0.05-1.58,0.1-2.37,0.14
	c-0.06-0.54-0.12-1.07-0.17-1.61c3.2-4.09,7.77-1.78,11.66-2.35c9.76-1.43,9.78-1.21,9.8-10.92c0-2.91,0.04-5.82,0.07-8.74
	c1.42-1.59,1.36-3.2,0.1-4.84c-0.06-1.96-0.17-3.91-0.17-5.87c0-60.75,0.02-121.51,0-182.26c0-2.33-0.33-4.66-0.5-6.98
	c4.01,0.1,2.65,3.22,2.66,5.22c0.14,17.04,0.14,34.09,0.18,51.13c0.03,43.99,0.06,87.99,0.09,131.98c-0.03,2.21-0.06,4.42-0.1,6.63
	c0.01,1.69,0.01,3.39,0.02,5.08c0.01,3.05,0.01,6.09,0.02,9.14c-0.32,9.05-0.32,9.05,9.4,9.8
	C232.99,356.37,232.37,358.23,229.99,357.39z"/>
<path class="st9" d="M201.17,357.89c0.06,0.53,0.12,1.07,0.17,1.61c0,3.13-0.2,6.28,0.05,9.4c0.3,3.79-1.43,4.92-4.83,4.4
	c-0.79-1.84-2.13-3.07-4.03-3.66c0,0-0.11,0.08-0.11,0.08c-0.15-0.63-0.3-1.25-0.45-1.88c0.14-0.44,0.27-0.88,0.41-1.31
	c3.38-1.64,6.45-3.62,7.91-7.36C200.58,358.73,200.88,358.31,201.17,357.89z"/>
<path class="st8" d="M186.2,118.84c-0.49-1.33-0.99-2.67-1.48-4.01c-3.33-3.18-7.53-0.44-11.15-1.66c-1.18-1.23-4.44-2.85,0.36-3.21
	c3.49-0.27,7.01-0.07,10.52-0.03c1.13,0.01,3.17,0.41,2.36,1.5C184.89,113.99,190.98,116.88,186.2,118.84z"/>
<path class="st4" d="M175.89,106.65c-2.89-3.62,0.84-6.21,1.6-9.21c0.26-1.04,1.45,0.45,2.19,0.85
	C179.87,101.75,184.68,107.32,175.89,106.65z"/>
<path class="st4" d="M173.57,113.17c3.62,1.22,7.82-1.52,11.15,1.66c-1.55-0.06-3.12,0.01-4.65-0.22c-5.34-0.8-7.57,1.39-6.66,6.76
	c-2.42,0.24-3.73-1-3.54-3.3C170.06,115.82,170.32,113.26,173.57,113.17z"/>
<path class="st8" d="M175.89,106.65c8.79,0.67,3.98-4.9,3.79-8.36c3.74,0.65,5.06,4.61,4.42,6.52
	C182.88,108.44,179.13,108.1,175.89,106.65z"/>
<path class="st7" d="M201.17,357.89c-0.29,0.42-0.59,0.84-0.88,1.27c-1.49-0.02-2.98-0.04-4.47-0.07c-1.59-2.14-3.85-0.58-5.73-1.05
	c-1.76-0.45-4.34,1.18-5.09-1.95c0.03-0.49,0.06-0.97,0.09-1.46c9.66,1.33,19.11-1.56,28.76-1.4c6.42,0.11,7.57-2.59,5.17-10.08
	c-2.59,2.97-5.9,1.94-9.09,2.22c-4.32,0.37-5.9-2.06-7.79-5.12c-1.27-2.05-2.98-4.12-5.66-4.73c0.03-3.74,0.05-7.47,0.08-11.21
	c0.85-0.06,1.7-0.12,2.54-0.18c0.01,1.64,1.19,2.24,2.45,2.76c0.27,2.29,0.69,4.58,0.79,6.88c0.23,5,3.96,6.8,7.68,8.29
	c3.92,1.57,6.9-0.88,9.83-3.16c1.14-0.88,0.71-3.19,2.86-3.02c-0.02,2.91-0.06,5.82-0.07,8.74c-0.01,9.71-0.04,9.5-9.8,10.92
	C208.94,356.11,204.37,353.8,201.17,357.89z"/>
<path class="st3" d="M159.33,345.18c4.15-0.14,8.31-0.28,12.46-0.42c5.59,0.59,4.3,4.87,3.41,7.81c-1.1,3.63-3.29,1-5.36,0.2
	c-2.41-0.93-4.97-1.42-7.45-2.38C159.45,349.25,159.17,347.62,159.33,345.18z"/>
<path class="st3" d="M195.82,359.09c1.49,0.02,2.98,0.04,4.47,0.07c-1.45,3.74-4.52,5.72-7.91,7.36c-1.04-3.28-3.93-4.4-7.21-5.83
	C188.78,358.2,192.53,360.04,195.82,359.09z"/>
<path class="st8" d="M185.09,354.63c-0.03,0.49-0.06,0.97-0.09,1.46c-8.11-0.13-8.14-0.13-8.13-7.9c0.01-5.63,0.12-11.27,0.19-16.9
	c0.43,0.65,0.86,1.3,1.28,1.95c-0.03,4.04-0.07,8.08-0.1,12.12C178.03,354.48,178.03,354.48,185.09,354.63z"/>
<path class="st7" d="M191.97,367.83c0.15,0.63,0.3,1.25,0.45,1.88c-5.87-1.78-10.21-5.81-14.45-9.98
	C183.44,361.02,187.28,365.17,191.97,367.83z"/>
<path class="st1" d="M147.41,349.12c-0.57-0.23-1.7-0.27-1.25-1.09c0.37-0.66,1.27-0.22,1.64,0.56
	C147.66,348.75,147.53,348.93,147.41,349.12z"/>
<path class="st7" d="M147.92,360.33c-0.46-0.41-0.91-0.81-1.37-1.22C147.22,359.28,147.9,359.43,147.92,360.33z"/>
<path class="st7" d="M149.15,361.4c-0.91,0.09-1.26-0.36-1.19-1.23C148.72,360.22,149.24,360.51,149.15,361.4z"/>
<path class="st1" d="M143.01,340.44c-1.65-1.22-2.93,4.82-4.75,0.25c1.59-1.33,1.23-3.18,1.23-4.9c0.01-60.05,0.01-120.1,0-180.15
	c0-0.71-0.12-1.43-0.2-2.42c-1.78,1.42-0.06,4.95-3.4,4.83c-0.27-2.61,1.05-7.38-1.08-7.43c-6.2-0.14-8.09-6.31-12.98-7.77
	c-1.95-1.4-3-0.77-3.54,1.46c-1.04,4.27-3.96,6.25-8.17,6.73c-1.66,0.19-3.46,0.31-4.7,1.78c-1.51,0.19-3.02,0.37-4.53,0.56
	c-0.01-1.16-0.01-2.33-0.02-3.49c2.08-0.42,4.63,0.96,6.08-1.85c-1.66,2.03-5.44-4.1-6.08,1.85c-3.79-3.15-3.66-6.31,0-9.46
	c0.57,1.32-1.12,3.77,1.65,3.87c0.75,0.03,2.25-1.48,2.22-2.24c-0.11-2.78-2.53-1.09-3.85-1.65c0.29-2.5,2.16-2.31,3.9-2.3
	c12.71,0.08,25.42,0.17,38.13,0.25c0.06,43.87,0.13,87.73,0.16,131.59C143.07,293.45,143.02,316.94,143.01,340.44z M116.54,141.42
	c-3.23-0.51-6.72-2.72-8.96,0.86c-0.65,1.04,0.05,3.65,2.13,4.29C113.94,147.86,114.26,143.33,116.54,141.42z"/>
<path class="st7" d="M222.12,135.92c0.18,2.33,0.5,4.66,0.5,6.98c0.02,60.75,0,121.51,0,182.26c0,1.96,0.11,3.91,0.17,5.87
	c-0.11,0.38-0.19,0.76-0.32,1.12c-0.4,1.13-0.86,1.07-1.26,0.01c-1.35-3.55-3.72-5.25-7.63-4.61c-1.33,0.22-3.13-0.14-3.47-1.46
	c-0.49-1.93,1.67-2.18,2.84-3.06c1.71-1.29,5.97,0.28,5.29-2.7c-0.55-2.43-4.35-0.54-6.69-0.73c-0.19-0.02-0.39-0.03-0.58-0.05
	c0.01-3.12,2.37-2.76,4.17-2.55c4.32,0.5,5.13-1.51,5.11-5.45c-0.14-34.68-0.08-69.36-0.08-104.05c0.95-4.33,0.55-8.49-1.55-12.44
	c2.21-5.73-3.93-3.85-5.77-5.63c-2.16-2.08-5.59,1.76-8.56,2.69c-1.62,0.51,1.07,2.25,1.71,3.47c1.01,1.93,0.11,3.81,0.08,5.71
	c-3.27-2.07-4.17-5.47-4.96-8.94c-0.21-0.93,0.21-1.83,0.88-1.93c3.13-0.47,4.84-3.04,7.25-4.51c2-1.23,4.98-1.93,6.21,1.59
	c0.53,1.53,1.36,2.39,2.96,2.14c1.84-0.29,1.78-1.83,1.78-3.19c0.01-14.9-0.01-29.8-0.02-44.71c0-1.93-0.32-3.69-2.75-3.58
	c-13.07,0.59-26.22-1.48-39.22,1.3c-0.34-0.83-0.68-1.65-1.02-2.48c-0.06-0.32-0.1-0.65-0.1-0.98
	C192.1,135.99,207.11,135.95,222.12,135.92z"/>
<path class="st8" d="M177.19,137c0.34,0.83,0.68,1.65,1.02,2.48c-0.01,5.63-0.13,11.26-0.01,16.89c0.26,12.01-0.78,24.04,0.59,36.03
	c0.66,2.37,4.48,3.51,2.64,6.86c-0.74-0.58-1.73-1.79-2.19-1.62c-1.96,0.73-1.06,2.66-1.06,4.05c-0.03,38.39,0.01,76.78,0.04,115.16
	c-0.52,2.66,2.14,2.18,3.2,3.28c-1.63,0.35-2.28,1.73-3.05,2.97c-0.48-0.08-0.96-0.17-1.44-0.25
	c-0.02-60.98-0.05-121.96-0.05-182.94C176.86,138.93,177.08,137.97,177.19,137z"/>
<path class="st7" d="M178.24,345.37c0.03-4.04,0.06-8.08,0.1-12.12c1.49,0.05,2.97,0.11,4.46,0.17c0,0-0.02-0.01-0.02-0.01
	c-0.25,2.12,2.06,2.39,2.74,3.83c-0.41,2.9-3.94,2.55-5.3,4.46c1.73,1.84,3.62-0.83,4.99,0.91
	C184.22,346.95,180.58,344.51,178.24,345.37z"/>
<path class="st4" d="M178.36,323.09c0.77-1.24,1.42-2.62,3.05-2.97c5.55-1.37,10.87-1.97,14.27,4.15c-0.28,1.51,0.51,3.32-1.19,4.44
	c-0.47-1.65-0.79-3.37-2.3-4.48c-2.7-3.69-5.91-3.41-9.37-1.24c-1.42,0.25-2.85,0.49-4.27,0.74
	C178.58,323.49,178.52,323.28,178.36,323.09z"/>
<path class="st4" d="M182.8,333.41c-0.65-1.32-2.61-1.68-2.53-3.53c0.28-1.51,0.01-3.38,2.33-3.54c0.3,0.88,0.6,1.76,0.91,2.63
	c1.84,2.38,3.97,2.58,6.36,0.86c0.75-0.41,1.5-0.82,2.25-1.23c0.23,1.97-1.4,2.92-2.3,4.26c-2.34,0.18-4.68,0.36-7.02,0.55
	L182.8,333.41z"/>
<path class="st2" d="M182.59,326.34c-2.31,0.16-2.04,2.03-2.33,3.54c-3.69-1.17-1.99-3.86-1.71-6.15c1.43-0.25,2.85-0.49,4.28-0.74
	C182.74,324.11,182.67,325.23,182.59,326.34z"/>
<path class="st13" d="M290.33,112.13c-0.77,0-1.54,0.01-2.31,0.01c0-6.02,0-12.04,0-18.06c0.77,0,1.54,0,2.31,0
	C290.33,100.1,290.33,106.11,290.33,112.13z"/>
<path class="st10" d="M224.99,345.1c-0.01-3.05-0.01-6.09-0.02-9.14c2.26-2.06,4.58,0.42,6.86-0.1c0.05,0.8,0.09,1.6,0.14,2.4
	c0,0-0.05-0.01-0.05-0.01c-1.16,0.74-4.4-1.96-3.53,2.15c0.77,4.72,4.51,4.68,7.92,4.72c3.8,0.04,7.44-0.94,9.28-4.71
	c0.71-1.46,1.2-4.12-2.13-2.08c-1.16-2.58-2.61-4.92-4.53-7.05c-1.45-1.61-3.25-1.63-4.61-0.97c-2.3,1.11-0.64,2.88-0.03,4.37
	c-0.78,0.35-1.56,0.7-2.35,1.05c-1.22-3.24-4.91-2.87-6.98-4.85c0.03-2.21,0.06-4.42,0.1-6.63c1.73-0.37,3.17-1.11,4.41-2.5
	c3.52-3.95,8.14-3.34,11.44,1.38c-0.56-0.11-1.19-0.1-1.68-0.36c-4.28-2.24-7.25-0.81-9.97,2.92c-0.85,1.16-1.12,1.91-0.51,2.83
	c0.82,1.26,2.09,1.07,2.79-0.11c1.71-2.9,4.12-3.01,6.95-2.2c1.67,0.48,2.5-0.46,2.76-2.04c6.3,0.53,7.12,1.74,5.09,7.7
	c-0.48,1.41-0.18,2.52,0.43,3.85c3.24,7.1,0.98,11.29-6.71,11.65c-3.87,0.18-8.12,1.32-11.68-1.85
	C227.68,344.9,226.14,345.21,224.99,345.1z"/>
<path class="st6" d="M241.25,324.17c-0.27,1.58-1.09,2.52-2.76,2.04c-2.83-0.81-5.24-0.7-6.95,2.2c-0.69,1.18-1.96,1.37-2.79,0.11
	c-0.61-0.92-0.34-1.67,0.51-2.83c2.72-3.73,5.69-5.16,9.97-2.92c0.49,0.26,1.12,0.25,1.68,0.36
	C241.04,323.47,241.15,323.81,241.25,324.17z"/>
<path class="st1" d="M230.79,84.04c3.85,0.01,7.69,0.02,11.54,0.03C238.24,88.73,234.12,88.71,230.79,84.04z"/>
<path class="st12" d="M178.06,131.02c0.14-0.86,0.13-1.87,1.42-1.77c0.14,0.01,0.36,0.23,0.37,0.36c0.09,1.3-0.91,1.28-1.76,1.43
	C178.09,131.04,178.06,131.02,178.06,131.02z"/>
<path class="st6" d="M310.36,261.7c0.02-41.62,0.03-83.25,0.05-124.87c0.99,1.4,0.71,3.01,0.71,4.55c0,38.39-0.01,76.78-0.03,115.17
	C311.08,258.29,311.37,260.09,310.36,261.7z"/>
<path class="st7" d="M313.73,340.56c0.06-0.75,0.12-1.51,0.18-2.26c1.16,0.2,2.22-1.6,3.43-0.16
	C316.13,338.95,314.93,339.76,313.73,340.56z"/>
<path class="st12" d="M313.77,347.18c4.26-7.12,10.28-10.16,17.12-11.31c2.89-0.49,4.98-3.17,8.15-2.4
	c1.11,0.27,2.46,0.04,2.68,1.59c0.14,1-0.23,2.16-1.2,2.47c-5.45,1.74-9.08,6.27-13.86,9C322.86,348.68,318.75,347.75,313.77,347.18
	z"/>
<path class="st7" d="M121.81,142.86c4.9,1.47,6.79,7.63,12.98,7.77c2.14,0.05,0.82,4.82,1.08,7.43c-3.33,1.97-6.79,3.7-3.57,8.7
	c0.36,0.57,1.29,6.72-4.68,4.85c-4.28-1.33-9.28-3.54-13.46,1.1c-0.87,0.96-2.66,0.51-2.97-0.58c-0.72-2.51-4.6-4.21-2.72-7.1
	c2.02-3.09,2.07-4.51-1.53-6.11c-1.99-0.88-2.67-3.24-1.05-5.45c2.08,1.89,4.17,3.79,6.25,5.69c-1.52,8.5-1.08,9.13,5.03,7.23
	c3.59-1.31,6.37,0.68,9.21,2.33c2.92,1.7,4.14,0.92,3.12-2.33c-1.47-4.68-0.18-8.29,3.48-11.34c2.92-2.44,1.37-3.79-1.43-3.79
	C125.75,151.26,123.45,147.53,121.81,142.86z"/>
<path class="st4" d="M112.14,159.17c-2.09-1.9-4.17-3.79-6.25-5.69c-0.06-0.3-0.22-0.52-0.49-0.66c1.24-1.46,3.04-1.58,4.7-1.78
	c4.22-0.49,7.13-2.46,8.17-6.73c0.54-2.23,1.6-2.85,3.54-1.46c1.64,4.67,3.94,8.41,9.73,8.41c2.8,0,4.35,1.35,1.43,3.79
	c-3.66,3.06-4.95,6.66-3.48,11.34c1.02,3.25-0.2,4.02-3.12,2.33c-2.84-1.65-5.62-3.64-9.21-2.33c2.39-5.84,5.72-2.74,8.94-0.29
	c1.26-3.77,0.61-7.14,2.16-10.53c1.5-3.28-4.91-3.24-6.2-6.39c-0.4-0.97-1.37-1.59-2.27-0.59
	C116.9,151.85,110.85,152.84,112.14,159.17z"/>
<path class="st1" d="M138.17,340.55c-0.37-0.34-0.74-0.67-1.11-1.01c0.28-0.18,0.55-0.37,0.83-0.55
	C137.99,339.51,138.08,340.03,138.17,340.55z"/>
<path class="st7" d="M117.35,343.42c1.04,1.1,1.79,2.32,1.55,3.93C116.59,346.75,117.43,344.9,117.35,343.42z"/>
<path class="st7" d="M118.68,347.26c0.86,0.13,1.06,0.72,1,1.48C119.35,348.25,119.01,347.75,118.68,347.26z"/>
<path class="st11" d="M355.93,295.85c1.07,0.23,2.14,0.46,3.22,0.69c-1.11,0.21-2.22,0.42-3.33,0.63
	C355.85,296.73,355.89,296.29,355.93,295.85z"/>
<path class="st14" d="M297.43,312.32c-0.03,0.76-0.06,1.52-0.09,2.28c-6.88,0.29-6.97,0.42-6.94,9.46c0,0-0.01,0.01-0.01,0.01
	c-1.71-0.01-3.45-0.17-5.14,0.02c-2.13,0.23-5.05-1.27-6.16,1.42c-1.11,2.67-0.89,5.65,1.7,7.8c-3.56,0.78-7.72-1.53-10.23,4.01
	c-1.57,3.45-9.73,0.31-10.49-3.97c-0.3-1.71-0.1-3.52-0.1-5.28c0-44.86-0.05-89.72,0.04-134.58c0.01-7.36-2.06-15.31,4.61-21.26
	l0.04-0.04c1.31,0.25,2.63,0.5,3.94,0.75c0,0,0.53-0.12,0.53-0.12c0.8,1.82,2.51,2.21,3.86,1.42c2.75-1.62,4.63-2.21,7.9-0.04
	c2.91,1.93,7.37,0.04,10.54-1.36c3.22-1.42-1.22-3.2-1.02-5.21c0.2-2.07,1.34-2.79,2.93-3.81c5.42-3.5,5.08-6.21-0.85-9.06
	c0,0,0.03,0.02,0.03,0.02c0.26-1.66-0.5-2.46-2.11-2.56c-3.34-2.08-8.01-2.38-9.39-7.1c-1.97-3.1-2.34-5.11,2.53-4.73
	c3.87,0.31,7.79,0.02,11.68,0.07c1.86,0.02,4.11-0.55,4.51,2.36c-0.01,0.39-0.01,0.77-0.01,1.16c0,39.91,0,79.81-0.02,119.72
	c0,3.08,0.58,6.27-1.73,8.96c-0.8,0.93-0.67,2.26-0.16,3.36c3.12,6.68,2.87,13.37,0.16,20.09c-0.22,0.53-0.64,1.37-0.43,1.63
	C301.43,302.66,298.18,307.48,297.43,312.32z M297.37,173.12c-0.32-0.62-0.46-1.36-0.8-1.47c-0.87-0.28-1.35,0.39-1.29,1.19
	c0.03,0.41,0.5,1,0.87,1.09C296.45,174,296.9,173.45,297.37,173.12z"/>
<path class="st11" d="M299.72,143.98c0-0.39,0.01-0.77,0.01-1.16c1.63-1.16,1.02-2.87,1.08-4.42c0.35-0.13,0.7-0.16,1.06-0.08
	c0.06,29.19,0.16,58.38,0.18,87.58c0.01,21.75-0.07,43.5-0.12,65.24c-1.82-2.01-1.02-4.48-1.02-6.74
	c-0.05-44.58-0.03-89.16-0.08-133.75C300.83,148.42,301.71,145.92,299.72,143.98z"/>
<path class="st4" d="M269.12,172.82c0,0-0.53,0.12-0.53,0.12c-0.77-3.75,1.59-7.35,0.51-11.12c0,0,0.35-0.33,0.35-0.32
	c2.39,0.5,2.07,2.42,2.15,4.14c0.06,1.16,0.29,3.05,1.47,2.68c4.22-1.32,9.57,1.87,12.81-3.19c1.18,2.05,1.74,4.36,1.07,6.55
	c-0.35,1.15-2.34,0.87-3.08,0.24C278.6,167.33,273.9,170.4,269.12,172.82z"/>
<path class="st4" d="M276.62,145.46c0.78-0.03,1.55-0.05,2.33-0.08c1.68,5.64,4.99,9.18,11.28,8.9c0.76,0.17,1.52,0.33,2.28,0.5
	c0,0-0.03-0.02-0.03-0.02c-1.27,3.45-4.35,5.42-6.57,8.1c2.1-4.58,1.4-7.81-4.13-8.78c-0.3-0.05-0.54-0.53-0.77-0.84
	c-2.02-2.72-4.38-3.08-7.09-1.07c0.01-0.79,0.01-1.57,0.02-2.36c0,0-0.01,0.01-0.01,0.01C275.37,148.71,276,147.09,276.62,145.46z"
	/>
<path class="st14" d="M259.97,160.14c1.74,1.09,3.89,1.11,4.39,2.82c0.48,1.68,3.37,1.55,2.53,4.01c-0.42,1.23-1.04,1.29-2.14,1.25
	c-2.23-0.08-3.7-1.4-4.45-3.16C259.74,163.75,260.06,162.04,259.97,160.14z"/>
<path class="st7" d="M290.23,154.28c-6.29,0.28-9.6-3.26-11.28-8.9c0.69-0.09,1.37-0.18,2.06-0.27c1.38,4.71,6.05,5.02,9.39,7.1
	C290.35,152.9,290.29,153.59,290.23,154.28z"/>
<path class="st4" d="M269.1,161.83c-1.25-2.64-6.29-3.12-4.27-7.61c2.94-0.46,5.87-0.92,8.81-1.38c-2.81,2.2-7.04,3.7-4.19,8.67
	L269.1,161.83z"/>
<path class="st14" d="M264.62,152.24c-3.47-0.92-2.84-4.64-4.44-6.86c-1.11-1.54,1.09-0.86,1.78-1.28c1.68-1.03,2.52-1.03,2.63,1.06
	c0.12,2.35,0.06,4.7,0.07,7.05C264.66,152.2,264.62,152.24,264.62,152.24z"/>
<path class="st7" d="M273.64,152.84c-2.94,0.46-5.88,0.92-8.81,1.38c-0.07-0.66-0.14-1.32-0.21-1.98c0,0,0.03-0.03,0.04-0.03
	c3.46,0.64,6.44-0.62,9.28-2.39c-0.01,0.79-0.01,1.57-0.02,2.36C273.67,152.33,273.57,152.55,273.64,152.84z"/>
<path class="st7" d="M276.62,145.46c-0.62,1.63-1.25,3.25-2.69,4.36C273.02,147.25,273.2,145.34,276.62,145.46z"/>
<path class="st14" d="M264.61,172.24c-0.16-0.1-0.33-0.19-0.49-0.29c0.18,0.08,0.35,0.17,0.53,0.25
	C264.65,172.2,264.61,172.24,264.61,172.24z"/>
<path class="st14" d="M282.13,329.88c0.18-0.15,0.36-0.3,0.54-0.45c-0.15,0.18-0.29,0.36-0.44,0.54
	C282.22,329.98,282.13,329.88,282.13,329.88z"/>
<path class="st14" d="M282.22,329.98c-0.11,0.16-0.22,0.31-0.32,0.47c0.08-0.19,0.15-0.38,0.23-0.56
	C282.13,329.88,282.22,329.98,282.22,329.98z"/>
<path class="st1" d="M290.4,324.06c-0.03-9.05,0.06-9.17,6.94-9.46c-0.57,3.63-5.85,4.89-4.67,9.4
	C291.92,324.02,291.16,324.04,290.4,324.06z"/>
<path class="st10" d="M210.97,319.57c0.19,0.02,0.39,0.03,0.58,0.05c2.34,0.19,6.14-1.7,6.69,0.73c0.68,2.98-3.58,1.41-5.29,2.7
	c-1.16,0.88-3.33,1.13-2.84,3.06c0.34,1.32,2.14,1.67,3.47,1.46c3.91-0.63,6.28,1.07,7.63,4.61c0.4,1.05,0.86,1.12,1.26-0.01
	c0.13-0.37,0.21-0.75,0.32-1.12c1.26,1.64,1.32,3.25-0.1,4.84c-2.15-0.17-1.72,2.14-2.86,3.02c-2.94,2.27-5.91,4.73-9.83,3.16
	c-3.72-1.49-7.45-3.29-7.68-8.29c-0.1-2.3-0.52-4.59-0.79-6.89c1.18-0.49,1.35-1.51,1.38-2.61c1.82-0.31,3.34-0.97,3.63-3.1
	l-0.2-0.3c1.75,0.25,3.33-0.07,4.56-1.46L210.97,319.57z M215.7,334.48c0.01-2.23,0.16-4.47-3.08-4.48c-3-0.01-4.2,1.78-4.38,4.38
	c-0.16,2.31,0.59,4.58,3.28,4.63C214.24,339.07,215.66,337.23,215.7,334.48z"/>
<path class="st12" d="M224.95,330.88c2.08,1.98,5.77,1.61,6.98,4.85c0,0-0.11,0.13-0.11,0.13c-2.28,0.52-4.6-1.96-6.86,0.1
	C224.96,334.27,224.96,332.57,224.95,330.88z"/>
<path class="st5" d="M178.79,192.39c-1.38-11.99-0.34-24.02-0.59-36.03c-0.12-5.63,0-11.26,0.01-16.89c13-2.78,26.15-0.71,39.22-1.3
	c2.43-0.11,2.75,1.65,2.75,3.58c0,14.9,0.02,29.8,0.02,44.71c0,1.36,0.07,2.91-1.78,3.19c-1.59,0.25-2.42-0.61-2.96-2.14
	c-1.22-3.52-4.21-2.81-6.21-1.59c-2.41,1.48-4.12,4.04-7.25,4.51c-0.66,0.1-1.09,0.99-0.88,1.93c0.79,3.47,1.69,6.87,4.96,8.94
	l0.16,0.25c0.34,3.44,3.03,2.38,4.89,2.36c2.06-0.02,3.72,0.12,4.36,2.42c-2.13,5.13-7.38,3.54-11,4.36
	c-4.51,1.02-9.15,0.64-12.74,4.45c-0.95,1.01-3.05,1.95-4.19,1.58c-5.86-1.88-4.82,2.15-4.82,5.32c-0.01,25.25,0.22,50.5-0.16,75.74
	c-0.1,6.66,4.22,9.05,8.19,12.39c2.35,1.98,3.71,1.54,5.68-0.64c3.04-3.36,6.15-5.83,11.42-2.67c4.89,2.93,7.61,0.57,7.62-5.5
	c0.01-28.38,0.07-56.76-0.07-85.14c-0.02-3.62,0.55-6.84,2.41-9.88c0.78,0.39,1.55,0.78,2.33,1.16c0,34.68-0.05,69.36,0.08,104.05
	c0.02,3.94-0.79,5.95-5.11,5.45c-1.81-0.21-4.16-0.57-4.17,2.55c0,0-0.06-0.15-0.06-0.15c-1.65,0.07-3.68-1.05-4.56,1.46
	c0,0,0.2,0.3,0.2,0.29c-0.87-0.6-1.74-1.2-2.62-1.8c-1.6-0.02-2.44,0.73-2.4,2.38l0.04,0.04c-1.65-0.1-2.38,0.78-2.48,2.34
	c-0.85,0.06-1.7,0.12-2.54,0.18c0,0,0.09-0.04,0.09-0.04c0.55-5.24-2.15-7.29-7.01-7.3c-3.8-0.01-7.6-0.09-11.41-0.13
	c-0.03-38.39-0.07-76.78-0.04-115.16c0-1.39-0.89-3.32,1.06-4.05c0.47-0.17,1.45,1.04,2.19,1.62c3.07,3.89,7.41,0.88,10.98,2.07
	c2.72-2.64,5.98-6.28,3.83-9.43c-1.84-2.68-4.75-6.43-9.35-6.08c-0.65,0.26-1.31,0.53-1.96,0.79c-0.32,0.34-0.65,0.68-0.97,1.03
	l0.11-0.09c-1.19,1.18-2.37,2.36-3.56,3.54C179.93,191.52,179.36,191.96,178.79,192.39z M189.95,153.19
	c-1.26,1.44-5.15-1.96-4.71,2.6c1.64,4.92,4.88,9.4,2.48,15.22c-0.93,2.24,2.07,2.71,3.6,2.25c5.16-1.55,10.18-3.1,15.37-0.06
	c0.65,0.38,1.34-0.53,1.62-1.31c1.17-0.36,2.42-1.01,2.32-2.28c-0.35-4.52,1.15-7.97,4.16-11.47c1.83-2.13,1.5-5.76-2.97-6.17
	c-4.31-0.4-6.9-2.94-8.03-6.98c-0.47-1.67-1.58-2.87-2.83-3.52c-1.9-1-1.45,0.89-1.61,1.87l-0.48,0.16
	C194.63,145.54,191.03,148.19,189.95,153.19z M194.45,208.7c-4.48-0.19-9.06-1.41-13.17,1.79
	C185.64,209.58,190.54,213.75,194.45,208.7c1.92-0.18,2.56-1.31,2.1-3.07c-0.1-0.38-0.88-0.95-1.06-0.86
	C193.75,205.66,194.74,207.36,194.45,208.7z M203.82,309.91c-0.16-0.85-0.13-1.85-1.41-1.77c-0.13,0.01-0.35,0.23-0.36,0.36
	c-0.08,1.29,0.92,1.26,1.76,1.42c0.24,1.61-0.68,3.8,1.66,4.46c3.94,1.12,6.43-1.68,9.18-4.48
	C211.03,309.91,207.42,309.91,203.82,309.91z M185.07,310.82c-0.02-1.66-0.25-3.19-2.42-3.11c-2.2,0.09-2.21,1.75-2.2,3.33
	c0.01,1.56-0.06,3.3,2.13,3.39C185.18,314.55,185.02,312.57,185.07,310.82z"/>
<path class="st5" d="M178.24,345.37c2.35-0.86,5.98,1.58,6.97-2.76c0,0,0.34-0.08,0.34-0.08l0.3,0.17
	c9.2,0.51,10.41-0.28,10.77-7.07l-0.16-0.11c2.68,0.61,4.4,2.68,5.67,4.73c1.89,3.06,3.47,5.49,7.79,5.12
	c3.2-0.28,6.5,0.75,9.09-2.22c2.4,7.49,1.25,10.2-5.17,10.08c-9.64-0.17-19.1,2.72-28.76,1.4
	C178.03,354.48,178.03,354.48,178.24,345.37z"/>
<path class="st10" d="M185.85,342.7l-0.3-0.17c0,0-0.34,0.09-0.34,0.08c-1.37-1.74-3.26,0.93-4.99-0.91
	c1.36-1.91,4.89-1.56,5.3-4.46c1.93-0.06,3.26-1.36,4.77-2.3c5.67,0.85,3.85-3.43,4.21-6.23c1.71-1.12,0.92-2.93,1.19-4.44
	c0,0,0.47-0.02,0.47-0.02l0.47,0.02c0,0-0.09,0.04-0.09,0.04c-0.03,3.74-0.05,7.47-0.08,11.21c0,0,0.16,0.11,0.16,0.11
	C193.54,338.76,189.38,340.24,185.85,342.7z"/>
<path class="st14" d="M199.09,324.13c0.1-1.56,0.83-2.44,2.48-2.34c0.02,1.07,0.39,1.94,1.35,2.49c-0.03,1.1-0.2,2.12-1.38,2.61
	C200.27,326.36,199.1,325.77,199.09,324.13z"/>
<path class="st14" d="M116.54,141.42c-2.29,1.91-2.61,6.44-6.84,5.15c-2.07-0.63-2.78-3.25-2.13-4.29
	C109.82,138.7,113.31,140.91,116.54,141.42z"/>
<path class="st14" d="M100.86,140.41c1.32,0.56,3.74-1.13,3.85,1.65c0.03,0.76-1.47,2.26-2.22,2.24c-2.76-0.1-1.07-2.55-1.65-3.87
	C100.84,140.43,100.86,140.41,100.86,140.41z"/>
<path class="st14" d="M100.84,149.89c0.64-5.95,4.42,0.18,6.08-1.85C105.47,150.85,102.92,149.47,100.84,149.89
	C100.84,149.89,100.84,149.89,100.84,149.89z"/>
<path class="st4" d="M206.08,201.32c0.03-1.9,0.93-3.78-0.08-5.71c-0.64-1.22-3.32-2.96-1.71-3.47c2.97-0.93,6.4-4.78,8.56-2.69
	c1.85,1.79,7.98-0.1,5.77,5.63c0,0-0.05,0.14-0.05,0.14c-1.23-0.02-2.01,0.49-2.07,1.82c-0.78,1.34,1.36,5.11-1.96,3.93
	c-3.23-1.15-5.55,0.73-8.3,0.6L206.08,201.32z"/>
<path class="st1" d="M206.25,201.57c2.75,0.13,5.08-1.75,8.3-0.6c3.32,1.18,1.19-2.59,1.96-3.93c1.04-0.21,2.24-0.23,2.07-1.82
	c0,0,0.05-0.13,0.05-0.14c2.1,3.95,2.5,8.11,1.54,12.44c-0.78-0.39-1.55-0.78-2.33-1.16c-0.78,0-1.56-0.01-2.34-0.01
	c-0.65-2.3-2.3-2.45-4.36-2.42C209.28,203.95,206.59,205.01,206.25,201.57z"/>
<path class="st4" d="M192.42,201.32c-3.57-1.18-7.92,1.82-10.98-2.07c1.84-3.35-1.98-4.49-2.64-6.86c0.57-0.44,1.14-0.87,1.71-1.31
	c2.57,0.23,4.48-0.22,3.56-3.54c0,0-0.11,0.09-0.11,0.09c1.09,0.39,0.9-0.44,0.97-1.02c0.65-0.26,1.31-0.53,1.95-0.79
	c1.47,3.01,3.84,4.65,6.75,6.4C195.27,193.2,190.17,197.72,192.42,201.32z"/>
<path class="st7" d="M196.63,324.27l-0.47-0.02c0,0-0.47,0.02-0.47,0.02c-3.4-6.11-8.73-5.52-14.27-4.15
	c-1.06-1.1-3.72-0.62-3.2-3.28c3.8,0.05,7.6,0.13,11.41,0.13C194.48,316.98,197.18,319.03,196.63,324.27z"/>
<path class="st6" d="M190.29,334.94c-1.51,0.94-2.84,2.24-4.77,2.3c-0.68-1.45-2.99-1.72-2.74-3.83c2.34-0.18,4.68-0.36,7.02-0.54
	C189.96,333.56,190.13,334.25,190.29,334.94z"/>
<path class="st6" d="M182.59,326.34c0.08-1.12,0.16-2.23,0.24-3.35c3.46-2.17,6.68-2.46,9.37,1.23c-0.03,1.45-0.06,2.91-0.09,4.37
	c-0.75,0.41-1.5,0.82-2.25,1.23c-0.3-2.41,1.16-5.97-2.83-6.25c-3.52-0.25-2.98,3.15-3.53,5.39
	C183.19,328.1,182.89,327.22,182.59,326.34z"/>
<path class="st2" d="M192.11,328.6c0.03-1.46,0.06-2.91,0.09-4.37c1.51,1.11,1.83,2.83,2.3,4.48c-0.35,2.79,1.46,7.07-4.21,6.23
	c-0.16-0.69-0.32-1.38-0.49-2.07C190.71,331.52,192.34,330.57,192.11,328.6z"/>
<path class="st7" d="M183.49,328.98c0.55-2.24,0.01-5.64,3.53-5.39c3.99,0.28,2.54,3.84,2.83,6.25
	C187.47,331.56,185.34,331.36,183.49,328.98z"/>
<path class="st2" d="M234.29,334.67c-0.6-1.49-2.26-3.26,0.03-4.37c1.36-0.66,3.16-0.64,4.61,0.97c1.92,2.13,3.37,4.47,4.53,7.05
	c-3.16,4.14-6.78,6.08-11.56,2.43c0-0.83,0.01-1.67,0.01-2.5c0,0,0.05,0.01,0.05,0.01c0.52,0.25,1.18,0.37,1.54,0.76
	c1.91,2.08,4.11,2.17,5.05-0.4C239.98,334.75,235.45,336.34,234.29,334.67z"/>
<path class="st6" d="M231.9,340.75c4.78,3.65,8.4,1.71,11.56-2.43c3.33-2.03,2.84,0.63,2.13,2.09c-1.85,3.77-5.48,4.75-9.28,4.71
	c-3.41-0.04-7.14,0.01-7.92-4.71C229.56,340.51,230.73,340.63,231.9,340.75z"/>
<path class="st12" d="M234.29,334.67c1.16,1.67,5.69,0.08,4.28,3.94c-0.94,2.57-3.14,2.48-5.05,0.4c-0.36-0.4-1.02-0.52-1.54-0.76
	c-0.05-0.8-0.09-1.6-0.14-2.39c0,0,0.11-0.13,0.11-0.13C232.72,335.38,233.5,335.02,234.29,334.67z"/>
<path class="st4" d="M231.9,340.75c-1.17-0.12-2.35-0.23-3.52-0.35c-0.87-4.11,2.37-1.41,3.53-2.15
	C231.91,339.08,231.91,339.91,231.9,340.75z"/>
<path class="st0" d="M112.14,159.17c-1.29-6.34,4.76-7.32,7.67-10.58c0.89-1,1.87-0.38,2.27,0.59c1.29,3.15,7.7,3.11,6.2,6.39
	c-1.55,3.39-0.91,6.76-2.16,10.53c-3.22-2.45-6.55-5.55-8.94,0.29C111.06,168.3,110.62,167.67,112.14,159.17z"/>
<path class="st1" d="M285.91,162.86c2.21-2.68,5.29-4.65,6.57-8.1c5.93,2.85,6.27,5.56,0.85,9.06c-1.59,1.03-2.73,1.75-2.93,3.81
	c-0.2,2.01,4.24,3.79,1.02,5.21c-3.17,1.4-7.64,3.29-10.54,1.36c-3.27-2.17-5.15-1.58-7.9,0.04c-1.35,0.79-3.06,0.4-3.86-1.42
	c4.78-2.43,9.48-5.49,14.76-0.91c0.73,0.64,2.72,0.91,3.08-0.24c0.68-2.19,0.11-4.5-1.07-6.55
	C285.9,164.38,285.91,163.62,285.91,162.86z"/>
<path class="st1" d="M297.37,173.12c-0.47,0.33-0.93,0.88-1.23,0.81c-0.37-0.09-0.83-0.69-0.87-1.09c-0.06-0.8,0.42-1.47,1.29-1.19
	C296.91,171.75,297.06,172.5,297.37,173.12z"/>
<path class="st1" d="M290.23,154.28c0.06-0.69,0.11-1.38,0.17-2.07c1.61,0.1,2.37,0.9,2.11,2.56
	C291.75,154.61,290.99,154.44,290.23,154.28z"/>
<path class="st3" d="M285.91,162.86c-0.01,0.76-0.02,1.52-0.02,2.28c-3.24,5.07-8.59,1.88-12.81,3.19
	c-1.18,0.37-1.42-1.52-1.47-2.68c-0.09-1.72,0.24-3.64-2.15-4.14c-2.85-4.97,1.38-6.47,4.19-8.67c-0.07-0.29,0.02-0.51,0.28-0.66
	c2.72-2.02,5.08-1.66,7.09,1.07c0.23,0.31,0.47,0.79,0.77,0.84C287.32,155.04,288.01,158.28,285.91,162.86z"/>
<path class="st7" d="M215.7,334.48c-0.05,2.75-1.46,4.59-4.18,4.53c-2.7-0.05-3.44-2.32-3.28-4.63c0.18-2.6,1.38-4.39,4.38-4.38
	C215.87,330.01,215.71,332.25,215.7,334.48z"/>
<path class="st7" d="M202.92,324.27c-0.96-0.55-1.33-1.42-1.35-2.49c0,0-0.04-0.03-0.04-0.03c1.56-0.01,2.27-0.9,2.4-2.38
	c0.87,0.6,1.74,1.19,2.62,1.8C206.26,323.3,204.74,323.96,202.92,324.27z"/>
<path class="st7" d="M206.35,320.88c0.88-2.52,2.91-1.39,4.56-1.46C209.68,320.81,208.11,321.13,206.35,320.88z"/>
<path class="st14" d="M215.5,206.35c0.78,0,1.56,0.01,2.34,0.01c-1.86,3.03-2.43,6.25-2.41,9.88c0.14,28.38,0.08,56.76,0.07,85.14
	c0,6.07-2.73,8.43-7.62,5.5c-5.27-3.16-8.39-0.68-11.42,2.67c-1.97,2.18-3.33,2.62-5.68,0.64c-3.97-3.34-8.29-5.73-8.19-12.39
	c0.39-25.24,0.15-50.5,0.16-75.74c0-3.16-1.04-7.2,4.82-5.32c1.14,0.37,3.24-0.57,4.19-1.58c3.59-3.81,8.22-3.44,12.74-4.45
	C208.12,209.89,213.38,211.48,215.5,206.35z"/>
<path class="st7" d="M199.35,143.33c0.16-0.99-0.3-2.88,1.6-1.88c1.25,0.66,2.36,1.85,2.83,3.52c1.13,4.04,3.71,6.58,8.03,6.98
	c4.47,0.41,4.8,4.05,2.97,6.17c-3.01,3.51-4.5,6.96-4.16,11.47c0.1,1.27-1.15,1.92-2.32,2.28c0,0-0.11-0.22-0.11-0.22
	c-0.23-6.39-1.16-13,6.92-17.35c-4.85-0.93-7.99-1.54-11.14-2.14c-0.55-1.71-0.98-3.49-2.47-4.7l0.03-0.01
	C201.36,145.79,200.38,144.55,199.35,143.33z"/>
<path class="st7" d="M208.3,171.88c-0.29,0.78-0.97,1.69-1.62,1.31c-5.18-3.03-10.21-1.49-15.37,0.06c-1.53,0.46-4.52-0.01-3.6-2.25
	c2.41-5.82-0.84-10.31-2.48-15.22c1.52,1.22,3.03,2.45,4.55,3.67c2.78,3.83-0.22,8.09,0.62,12.98c6.13-5.25,11.97-4.37,17.79-0.78
	L208.3,171.88z"/>
<path class="st7" d="M192.42,201.32c-2.24-3.6,2.85-8.12,1.22-9.1c-2.91-1.75-5.28-3.39-6.75-6.4c4.61-0.35,7.52,3.39,9.36,6.08
	C198.4,195.04,195.14,198.68,192.42,201.32z"/>
<path class="st14" d="M203.82,309.91c3.61,0,7.22,0,10.82,0c-2.74,2.8-5.24,5.59-9.18,4.48c-2.35-0.66-1.42-2.85-1.66-4.46
	L203.82,309.91z"/>
<path class="st14" d="M194.45,208.71c-3.92,5.04-8.82,0.87-13.18,1.79C185.39,207.29,189.97,208.51,194.45,208.71L194.45,208.71z"/>
<path class="st14" d="M185.08,310.82c-0.06,1.75,0.1,3.73-2.5,3.62c-2.19-0.1-2.12-1.84-2.13-3.39c-0.01-1.58,0.01-3.24,2.2-3.33
	C184.83,307.63,185.06,309.16,185.08,310.82z"/>
<path class="st7" d="M189.95,153.19c1.08-5,4.68-7.65,8.92-9.71c-0.62,1.41-1.24,2.82-1.85,4.24c-0.23,0.23-0.31,0.5-0.25,0.82
	c-1.2,0.97-2.02,2.18-2.3,3.72c0,0,0.01-0.01,0.01-0.01C192.97,152.56,191.46,152.87,189.95,153.19z"/>
<path class="st4" d="M189.95,153.19c1.51-0.32,3.03-0.63,4.54-0.95c-0.69,2.98-6.44,2.64-4.7,7.22c-1.52-1.22-3.03-2.45-4.55-3.67
	C184.79,151.23,188.69,154.63,189.95,153.19z"/>
<path class="st4" d="M197.02,147.72c0.62-1.41,1.24-2.83,1.85-4.24c0,0,0.48-0.15,0.48-0.15c1.02,1.22,2,2.45,2.19,4.12
	C200.04,147.7,198.58,148.63,197.02,147.72z"/>
<path class="st14" d="M194.45,208.7c0.3-1.34-0.69-3.04,1.04-3.94c0.18-0.09,0.96,0.49,1.06,0.86
	C197.01,207.39,196.37,208.52,194.45,208.7C194.45,208.71,194.45,208.7,194.45,208.7z"/>
<path class="st8" d="M184.06,187.54c0.92,3.32-0.99,3.77-3.56,3.54C181.69,189.9,182.88,188.72,184.06,187.54z"/>
<path class="st14" d="M203.8,309.92c-0.84-0.16-1.84-0.13-1.76-1.42c0.01-0.13,0.23-0.36,0.36-0.36c1.28-0.08,1.25,0.92,1.41,1.77
	C203.82,309.91,203.8,309.92,203.8,309.92z"/>
<path class="st14" d="M203.93,319.37c-0.13,1.48-0.84,2.37-2.4,2.38C201.49,320.1,202.33,319.35,203.93,319.37z"/>
<path class="st8" d="M184.93,186.61c-0.08,0.58,0.11,1.42-0.97,1.02C184.28,187.29,184.61,186.95,184.93,186.61z"/>
<path class="st7" d="M185.85,342.7c3.53-2.46,7.69-3.93,10.78-7.07C196.25,342.42,195.05,343.21,185.85,342.7z"/>
<path class="st7" d="M218.58,195.22c0.17,1.59-1.03,1.61-2.07,1.82C216.57,195.71,217.35,195.2,218.58,195.22z"/>
<path class="st3" d="M197.02,147.72c1.56,0.91,3.02-0.02,4.52-0.27c0,0-0.03,0.01-0.03,0.01c-0.01,2.01-0.81,4.44,2.47,4.7
	c3.14,0.6,6.28,1.21,11.14,2.14c-8.09,4.36-7.15,10.96-6.92,17.35c-5.82-3.58-11.66-4.47-17.79,0.78
	c-0.84-4.89,2.16-9.15-0.62-12.98c-1.74-4.58,4.01-4.24,4.7-7.22c0,0-0.01,0.01-0.01,0.01c4.37,1.02,1.66-2.4,2.3-3.71
	C196.71,148.22,196.79,147.95,197.02,147.72z"/>
<path class="st4" d="M203.98,152.16c-3.28-0.26-2.48-2.69-2.47-4.7C203,148.68,203.43,150.45,203.98,152.16z"/>
<path class="st4" d="M196.77,148.54c-0.65,1.31,2.06,4.74-2.3,3.71C194.76,150.71,195.58,149.51,196.77,148.54z"/>
</svg>
