<?xml version="1.0" encoding="utf-8"?>
<!-- Generator: Adobe Illustrator 23.1.0, SVG Export Plug-In . SVG Version: 6.00 Build 0)  -->
<svg version="1.1" id="Capa_1" xmlns="http://www.w3.org/2000/svg" xmlns:xlink="http://www.w3.org/1999/xlink" x="0px" y="0px"
	 viewBox="0 0 400 400" style="enable-background:new 0 0 400 400;" xml:space="preserve">
<style type="text/css">
	.st0{fill:#5DB0EA;}
	.st1{fill:#FDFEFE;}
</style>
<path class="st0" d="M1.06,0.18C4.68,4.3,7.97,8.45,11.43,12.45c4.29,4.96,8.9,9.65,13.82,13.98c5.89,5.19,12.13,9.99,18.93,13.96
	c9.02,5.27,18.48,9.43,29.2,9.26c8.64-0.14,16.84-2.41,24.77-5.81c7.57-3.25,14.57-7.44,21.34-12.1c5-3.44,9.51-7.43,13.94-11.53
	c0.78-0.72,1.15-0.51,1.76,0.11c4.68,4.84,10.21,8.6,15.88,12.1c12.15,7.49,25.2,12.76,39.45,14.54c7.89,0.98,15.8,0.75,23.65-0.73
	c11.4-2.15,22.01-6.3,32-12.17c6.5-3.81,12.8-7.88,18.16-13.24c1.07-1.07,1.76-1.15,2.97,0.02c6.28,6.07,13.27,11.26,20.7,15.81
	c6.32,3.87,12.96,7.16,20.01,9.53c6.03,2.03,12.22,3.37,18.59,3.47c7.37,0.12,14.3-1.85,20.94-4.92c5.04-2.33,9.79-5.13,14.4-8.25
	c3.72-2.51,7.06-5.46,10.56-8.21c3.84-3.02,7.09-6.62,10.63-9.93c3.83-3.57,6.87-7.79,10.29-11.68c1.85-2.1,3.62-4.27,5.69-6.67
	c0.16,2.37,0.32,4.37,0.43,6.37c0.64,11.6,0.56,23.19-0.16,34.79c-0.46,7.45-1.04,14.9-1.85,22.32c-0.79,7.19-1.44,14.42-2.79,21.52
	c-2.56,13.46-4.57,27.03-7.69,40.38c-0.89,3.8-1.54,7.66-2.62,11.4c-3.64,12.52-6.26,25.33-10.45,37.67
	c-3.57,10.53-6.48,21.29-10.63,31.6c-3.43,8.53-6.09,17.39-10.12,25.66c-3.61,7.41-6.69,15.09-10.85,22.22
	c-3.25,5.56-6.11,11.34-9.58,16.76c-3.72,5.8-7.32,11.69-11.36,17.26c-3.39,4.66-6.46,9.56-10.18,13.96
	c-3.73,4.4-6.96,9.2-10.85,13.45c-3.59,3.92-6.75,8.23-10.52,11.97c-3.61,3.59-6.76,7.61-10.51,11.04c-3.3,3.02-6.29,6.34-9.56,9.38
	c-7.21,6.69-14.47,13.32-22.09,19.54c-6.78,5.54-13.72,10.89-20.78,16.05c-6.84,5-13.93,9.64-21.14,14.11
	c-0.52,0.32-1.19,0.47-1.63,0.87c-2.87,2.56-5.4,1.95-8.51-0.02c-7.31-4.62-14.55-9.32-21.58-14.36
	c-7.26-5.21-14.27-10.7-21.19-16.35c-7.18-5.86-14.06-12.05-20.89-18.31c-3.72-3.4-7.1-7.12-10.78-10.55
	c-3.65-3.4-6.76-7.29-10.3-10.78c-3.63-3.59-6.64-7.69-10.09-11.42c-4.05-4.37-7.39-9.28-11.22-13.81
	c-3.55-4.2-6.43-8.87-9.76-13.21c-4.21-5.48-7.55-11.53-11.39-17.23c-3.65-5.41-6.45-11.26-9.78-16.83
	c-4.33-7.25-7.46-15.07-11.16-22.61c-4.02-8.19-6.69-16.89-10.07-25.31c-4.34-10.81-7.39-22.04-11.14-33.04
	c-4.21-12.37-6.98-25.11-10.44-37.67c-3.95-14.34-6.4-28.96-9.03-43.56c-0.7-3.89-0.98-7.87-1.83-11.72
	C3.51,74.4,3.01,67.14,2.18,59.93c-0.66-5.73-1.11-11.49-1.43-17.24c-0.43-7.51-0.88-15.04-0.71-22.57
	C0.18,14.07,0.5,8.02,0.76,1.97C0.78,1.43,0.94,0.89,1.06,0.18z M11.61,29.28c0.25,5.32,0.35,10.24,0.72,15.15
	c0.84,10.91,1.91,21.78,3.63,32.61c2.37,14.96,4.81,29.9,8,44.71c0.34,1.56,0.94,1.82,2.33,1.82
	c115.88-0.03,231.75-0.03,347.63,0.02c1.55,0,2.01-0.56,2.26-1.9c1.54-8.05,3.14-16.08,4.71-24.12c1.29-6.58,2.07-13.23,3.34-19.82
	c1.18-6.15,1.64-12.43,2.27-18.68c0.96-9.46,1.56-18.94,1.91-28.44c0.01-0.34,0.23-0.79-0.19-1.02
	c-5.28,4.47-10.22,9.25-15.79,13.34c-7.06,5.17-14.4,9.74-22.48,13.15c-10.23,4.32-20.83,5.57-31.75,4.12
	c-15.23-2.03-28.78-8.34-41.37-16.87c-3.64-2.47-7.03-5.31-10.49-8.04c-0.63-0.5-0.99-0.47-1.58,0.01
	c-2.68,2.17-5.51,4.12-8.42,5.98c-6.6,4.22-13.52,7.73-20.82,10.57c-15.09,5.88-30.64,8.05-46.76,6.13
	c-13.44-1.6-25.93-6.02-37.78-12.38c-5.48-2.94-10.75-6.27-15.59-10.21c-0.64-0.52-1-0.54-1.7-0.01c-4.63,3.51-9.09,7.21-14.06,10.3
	c-7.15,4.44-14.56,8.19-22.52,10.91c-6.14,2.09-12.41,3.42-18.85,4c-11.53,1.03-22.39-1.48-32.69-6.52
	c-8.93-4.37-17.06-9.99-24.6-16.45C17.9,34.99,14.93,32.24,11.61,29.28z M225.61,251.39c0,15.24,0,30.47,0,45.71
	c0,23.73,0,47.47,0.01,71.2c0,0.53-0.3,1.27,0.27,1.55c0.56,0.28,0.98-0.39,1.42-0.71c3.55-2.61,6.87-5.52,10.4-8.16
	c3.71-2.77,7.1-5.95,10.62-8.96c7.38-6.33,14.4-13.05,21.33-19.87c2.82-2.78,5.39-5.81,8.15-8.66c0.81-0.83,1.13-1.63,1.13-2.79
	c-0.03-61.86-0.03-123.71-0.03-185.57c0-2.34,0-2.34-2.36-2.34c-16.25,0-32.51,0-48.76,0c-2.18,0-2.18,0-2.18,2.19
	C225.61,173.78,225.61,212.58,225.61,251.39z M174.59,370.05c0-0.76,0-1.21,0-1.66c0-77.89-0.01-155.79,0.04-233.68
	c0-1.63-0.53-1.96-2.04-1.95c-16.2,0.05-32.4,0.03-48.59,0.03c-2.68,0-2.37-0.29-2.37,2.34c-0.01,60.61,0,121.23,0,181.84
	c0,5.98-0.04,6.01,4.16,10.31c5.41,5.54,10.78,11.1,16.64,16.18c3.54,3.07,6.89,6.35,10.46,9.4c4.86,4.15,9.78,8.22,14.77,12.21
	C169.79,366.78,171.79,368.71,174.59,370.05z M69.92,251.7c0.53-0.61,0.33-1.2,0.33-1.73c0.01-38.4,0-76.81,0.04-115.21
	c0-1.56-0.41-2.01-1.99-2c-13.19,0.06-26.39,0.03-39.58,0.04c-1.94,0-1.97,0.01-1.46,1.94c3,11.57,5.67,23.23,9.55,34.57
	c3.7,10.83,6.63,21.92,10.92,32.57c3.5,8.68,6.15,17.68,10.29,26.13c3.13,6.4,5.88,12.99,9.17,19.31
	C67.97,248.82,68.98,250.2,69.92,251.7z M329.94,251.71c0.13,0.04,0.27,0.08,0.4,0.12c0.2-1.22,1.25-1.82,1.78-2.82
	c3.95-7.43,7.33-15.14,10.95-22.73c3.87-8.1,6.59-16.69,9.75-25.07c4.04-10.71,7.5-21.65,10.91-32.58c3.49-11.16,6.4-22.5,9.1-33.89
	c0.47-1.97,0.47-1.97-1.51-1.97c-13.08,0-26.16,0-39.24,0c-2.14,0-2.14,0-2.14,2.23c0,38.34,0,76.69,0,115.03
	C329.94,250.6,329.94,251.16,329.94,251.71z"/>
<path class="st1" d="M11.61,29.28c3.32,2.96,6.29,5.71,9.37,8.34c7.54,6.46,15.67,12.08,24.6,16.45
	c10.31,5.04,21.16,7.55,32.69,6.52c6.44-0.58,12.72-1.9,18.85-4c7.96-2.72,15.38-6.47,22.52-10.91c4.97-3.08,9.43-6.79,14.06-10.3
	c0.7-0.53,1.05-0.51,1.7,0.01c4.84,3.94,10.11,7.26,15.59,10.21c11.84,6.36,24.34,10.79,37.78,12.38
	c16.12,1.92,31.67-0.26,46.76-6.13c7.29-2.84,14.22-6.35,20.82-10.57c2.91-1.86,5.74-3.81,8.42-5.98c0.59-0.48,0.95-0.5,1.58-0.01
	c3.46,2.73,6.85,5.57,10.49,8.04c12.59,8.53,26.14,14.84,41.37,16.87c10.92,1.46,21.52,0.2,31.75-4.12
	c8.08-3.41,15.42-7.98,22.48-13.15c5.58-4.09,10.52-8.87,15.79-13.34c0.42,0.22,0.2,0.67,0.19,1.02c-0.34,9.5-0.95,18.98-1.91,28.44
	c-0.63,6.24-1.09,12.53-2.27,18.68c-1.27,6.59-2.05,13.24-3.34,19.82c-1.57,8.04-3.17,16.08-4.71,24.12
	c-0.26,1.34-0.72,1.9-2.26,1.9c-115.88-0.05-231.75-0.04-347.63-0.02c-1.39,0-1.99-0.25-2.33-1.82c-3.19-14.81-5.62-29.75-8-44.71
	c-1.72-10.82-2.79-21.7-3.63-32.61C11.96,39.52,11.86,34.6,11.61,29.28z M132.29,91.91c0,7.08,0,14.15,0,21.23
	c0,0.75-0.24,1.64,1.08,1.61c8.25-0.22,16.52,0.47,24.76-0.4c7.7-0.82,14.22-6.5,16.19-13.96c0.89-3.37,1.15-6.8,0.94-10.26
	c-0.24-3.91-1.17-7.59-3.16-11.08c-3.68-6.45-9.35-9.34-16.49-9.52c-7.24-0.19-14.49-0.05-21.73-0.13
	c-1.27-0.01-1.64,0.34-1.63,1.62C132.32,77.99,132.29,84.95,132.29,91.91z M328.96,86.02c0-5.73-0.01-10.48,0.01-15.24
	c0-0.84-0.07-1.38-1.16-1.37c-3.23,0.06-6.46,0.04-9.68,0.01c-0.9-0.01-1.23,0.34-1.16,1.2c0.04,0.45,0.01,0.91,0,1.36
	c-0.05,9.17,0.15,18.35-0.24,27.52c-0.1,2.29-0.72,4.25-2.87,5.39c-6.61,3.53-13.36-0.32-13.45-7.66c-0.01-0.4-0.01-0.79-0.01-1.19
	c0-8.33-0.03-16.65,0.01-24.98c0.01-1.21-0.23-1.71-1.57-1.66c-3.11,0.1-6.23,0.09-9.34,0c-1.27-0.04-1.64,0.34-1.63,1.62
	c0.06,7.99-0.09,15.98,0.1,23.96c0.09,3.83-0.05,7.74,1.81,11.39c2.12,4.16,5.33,6.92,9.74,8.09c5.37,1.42,10.9,1.57,16.32,0.47
	c7.58-1.53,12.23-5.39,12.85-14.1C329.08,95.57,328.79,90.31,328.96,86.02z M47.53,92.94c-0.06,2.18,0.17,5.01,1.06,7.8
	c2.35,7.37,7.52,11.75,14.72,13.95c4.39,1.34,8.85,1.27,13.3,0.3c7.83-1.72,12.8-6.53,15.24-14.11c0.27-0.85,0.2-1.23-0.69-1.47
	c-3.19-0.86-6.37-1.78-9.56-2.66c-0.7-0.19-1.23-0.22-1.45,0.79c-0.4,1.8-1.23,3.37-2.4,4.89c-4.13,5.37-13.9,4.08-16.29-1.61
	c-1.76-4.2-1.92-8.49-1.35-12.92c0.71-5.56,3.79-8.75,9.29-9.52c4.18-0.59,9.45,1.9,10.45,6.38c0.21,0.94,0.65,0.95,1.45,0.77
	c3.19-0.73,6.39-1.46,9.61-2.02c1.23-0.21,1.12-0.67,0.84-1.57c-1.72-5.47-5.36-9.19-10.52-11.46c-4.6-2.03-9.5-2.07-14.35-1.54
	c-4.81,0.53-9.2,2.37-12.75,5.77C49.16,79.46,47.42,85.52,47.53,92.94z M233.18,85.93c-0.02,0-0.03,0-0.05,0
	c0,4.92,0.05,9.85-0.03,14.77c-0.03,1.61-0.06,3.4-1.62,4.43c-2.2,1.45-7.33,0.9-7.65-3.2c-0.07-0.89-0.25-1.79-0.26-2.69
	c-0.01-0.76-0.22-1.09-1.12-0.99c-3.09,0.35-6.18,0.61-9.28,0.88c-0.83,0.07-1.13,0.42-1.17,1.28c-0.35,7.45,4.14,13.2,11.49,14.69
	c2.74,0.56,5.52,0.59,8.26,0.23c4.91-0.65,9.12-2.55,11.66-7.15c1.44-2.61,1.79-5.5,1.82-8.37c0.12-9.68,0.05-19.36,0.09-29.04
	c0-1.04-0.32-1.38-1.35-1.36c-3.05,0.05-6.11,0.1-9.17-0.02c-1.43-0.05-1.68,0.5-1.66,1.76C233.22,76.08,233.18,81.01,233.18,85.93z
	 M265.75,113.6c1.64,0,3.28-0.03,4.91,0.01c0.87,0.03,1.19-0.28,1.18-1.17c-0.04-3.27-0.04-6.55,0-9.83
	c0.01-0.86-0.25-1.2-1.15-1.19c-3.27,0.04-6.55,0.04-9.82,0c-0.86-0.01-1.2,0.26-1.19,1.16c0.04,3.27,0.05,6.55,0,9.83
	c-0.02,1.03,0.45,1.22,1.33,1.2C262.58,113.57,264.17,113.6,265.75,113.6z M348.86,113.61c1.58,0,3.16-0.05,4.74,0.02
	c1.06,0.05,1.51-0.22,1.49-1.39c-0.07-3.16-0.07-6.32,0-9.49c0.02-1.08-0.4-1.33-1.39-1.31c-3.16,0.05-6.32,0.06-9.48,0
	c-1.09-0.02-1.32,0.4-1.31,1.39c0.05,3.16,0.06,6.33,0,9.49c-0.02,1.08,0.38,1.36,1.38,1.32
	C345.81,113.56,347.34,113.6,348.86,113.61z M105.34,107.52c0,1.64,0.04,3.28-0.01,4.92c-0.03,0.88,0.28,1.19,1.17,1.18
	c3.22-0.04,6.45-0.04,9.67,0c0.95,0.01,1.31-0.34,1.3-1.29c-0.03-3.22-0.04-6.45,0.01-9.67c0.02-1-0.38-1.24-1.3-1.22
	c-3.22,0.04-6.45,0.04-9.67,0c-0.88-0.01-1.21,0.26-1.18,1.16C105.38,104.23,105.34,105.88,105.34,107.52z M186.31,107.56
	c0,1.58,0.03,3.17-0.01,4.75c-0.02,0.93,0.31,1.32,1.28,1.31c3.22-0.04,6.45-0.03,9.67,0c0.86,0.01,1.21-0.24,1.2-1.15
	c-0.04-3.28-0.04-6.56,0-9.85c0.01-0.87-0.26-1.19-1.16-1.18c-3.28,0.04-6.56,0.04-9.84,0c-0.91-0.01-1.18,0.34-1.15,1.2
	C186.34,104.27,186.31,105.92,186.31,107.56z"/>
<path class="st1" d="M225.61,251.39c0-38.8,0-77.6,0-116.41c0-2.19,0-2.19,2.18-2.19c16.25,0,32.51,0,48.76,0
	c2.36,0,2.36,0,2.36,2.34c0,61.86,0,123.71,0.03,185.57c0,1.17-0.32,1.96-1.13,2.79c-2.76,2.84-5.32,5.88-8.15,8.66
	c-6.93,6.82-13.95,13.54-21.33,19.87c-3.51,3.02-6.91,6.19-10.62,8.96c-3.53,2.64-6.85,5.55-10.4,8.16
	c-0.44,0.32-0.86,0.99-1.42,0.71c-0.57-0.28-0.27-1.02-0.27-1.55c-0.01-23.73-0.01-47.47-0.01-71.2
	C225.61,281.86,225.61,266.62,225.61,251.39z"/>
<path class="st1" d="M174.59,370.05c-2.8-1.34-4.8-3.27-6.94-4.98c-4.99-3.98-9.91-8.05-14.77-12.21c-3.57-3.05-6.92-6.33-10.46-9.4
	c-5.86-5.08-11.23-10.64-16.64-16.18c-4.2-4.3-4.16-4.34-4.16-10.31c0-60.61,0-121.23,0-181.84c0-2.63-0.31-2.34,2.37-2.34
	c16.2-0.01,32.4,0.01,48.59-0.03c1.5,0,2.04,0.32,2.04,1.95c-0.04,77.89-0.04,155.79-0.04,233.68
	C174.59,368.84,174.59,369.29,174.59,370.05z"/>
<path class="st1" d="M69.92,251.7c-0.94-1.5-1.95-2.88-2.74-4.39c-3.3-6.32-6.04-12.91-9.17-19.31
	c-4.14-8.46-6.79-17.45-10.29-26.13c-4.29-10.65-7.22-21.74-10.92-32.57c-3.87-11.35-6.54-23-9.55-34.57
	c-0.5-1.93-0.48-1.94,1.46-1.94c13.19,0,26.39,0.03,39.58-0.04c1.58-0.01,1.99,0.45,1.99,2c-0.04,38.4-0.03,76.81-0.04,115.21
	C70.25,250.5,70.45,251.09,69.92,251.7z"/>
<path class="st1" d="M329.94,251.71c0-0.56,0-1.11,0-1.67c0-38.34,0-76.69,0-115.03c0-2.23,0-2.23,2.14-2.23
	c13.08,0,26.16,0,39.24,0c1.98,0,1.98,0,1.51,1.97c-2.7,11.39-5.61,22.72-9.1,33.89c-3.42,10.93-6.87,21.87-10.91,32.58
	c-3.17,8.38-5.88,16.97-9.75,25.07c-3.63,7.59-7,15.3-10.95,22.73c-0.53,1-1.58,1.6-1.78,2.82
	C330.21,251.79,330.07,251.75,329.94,251.71z"/>
<path class="st0" d="M132.29,91.91c0-6.96,0.03-13.93-0.03-20.89c-0.01-1.28,0.36-1.63,1.63-1.62c7.24,0.08,14.49-0.06,21.73,0.13
	c7.14,0.18,12.8,3.06,16.49,9.52c1.99,3.48,2.92,7.16,3.16,11.08c0.21,3.46-0.05,6.89-0.94,10.26c-1.97,7.46-8.5,13.15-16.19,13.96
	c-8.24,0.87-16.51,0.18-24.76,0.4c-1.32,0.04-1.08-0.85-1.08-1.61C132.28,106.07,132.29,98.99,132.29,91.91z M144.42,92.13
	c0,3.91,0.03,7.81-0.02,11.72c-0.01,0.98,0.19,1.43,1.3,1.4c2.83-0.09,5.66,0.02,8.49-0.09c4.13-0.16,6.46-1.85,7.48-5.66
	c1.24-4.66,1.25-9.41,0.11-14.09c-0.88-3.6-3.23-5.67-7.01-6.16c-2.94-0.38-5.88-0.13-8.81-0.31c-1.34-0.09-1.59,0.44-1.57,1.65
	C144.47,84.44,144.42,88.29,144.42,92.13z"/>
<path class="st0" d="M328.96,86.02c-0.17,4.29,0.11,9.55-0.27,14.82c-0.63,8.71-5.28,12.57-12.85,14.1
	c-5.42,1.1-10.95,0.95-16.32-0.47c-4.41-1.17-7.63-3.93-9.74-8.09c-1.86-3.65-1.72-7.56-1.81-11.39c-0.19-7.98-0.04-15.97-0.1-23.96
	c-0.01-1.28,0.36-1.66,1.63-1.62c3.11,0.09,6.23,0.1,9.34,0c1.34-0.04,1.58,0.46,1.57,1.66c-0.04,8.33-0.02,16.65-0.01,24.98
	c0,0.4,0,0.79,0.01,1.19c0.09,7.34,6.84,11.19,13.45,7.66c2.15-1.15,2.78-3.1,2.87-5.39c0.39-9.17,0.18-18.35,0.24-27.52
	c0-0.45,0.03-0.91,0-1.36c-0.07-0.86,0.27-1.21,1.16-1.2c3.23,0.04,6.46,0.05,9.68-0.01c1.08-0.02,1.16,0.52,1.16,1.37
	C328.95,75.54,328.96,80.29,328.96,86.02z"/>
<path class="st0" d="M47.53,92.94c-0.11-7.42,1.63-13.47,6.6-18.23c3.55-3.4,7.94-5.24,12.75-5.77c4.85-0.53,9.74-0.49,14.35,1.54
	c5.16,2.28,8.8,5.99,10.52,11.46c0.28,0.9,0.39,1.36-0.84,1.57c-3.22,0.56-6.42,1.29-9.61,2.02c-0.8,0.18-1.24,0.17-1.45-0.77
	c-1-4.48-6.27-6.97-10.45-6.38c-5.5,0.77-8.58,3.96-9.29,9.52c-0.57,4.43-0.41,8.72,1.35,12.92c2.39,5.69,12.16,6.98,16.29,1.61
	c1.17-1.52,2-3.09,2.4-4.89c0.22-1.01,0.75-0.98,1.45-0.79c3.19,0.88,6.37,1.8,9.56,2.66c0.89,0.24,0.97,0.62,0.69,1.47
	c-2.44,7.57-7.41,12.39-15.24,14.11c-4.45,0.98-8.91,1.05-13.3-0.3c-7.21-2.2-12.37-6.58-14.72-13.95
	C47.7,97.95,47.47,95.12,47.53,92.94z"/>
<path class="st0" d="M233.18,85.93c0-4.92,0.04-9.85-0.03-14.77c-0.02-1.27,0.23-1.81,1.66-1.76c3.05,0.11,6.11,0.07,9.17,0.02
	c1.04-0.02,1.36,0.32,1.35,1.36c-0.04,9.68,0.03,19.36-0.09,29.04c-0.03,2.86-0.38,5.76-1.82,8.37c-2.54,4.59-6.75,6.5-11.66,7.15
	c-2.74,0.36-5.51,0.33-8.26-0.23c-7.36-1.49-11.84-7.23-11.49-14.69c0.04-0.86,0.33-1.21,1.17-1.28c3.1-0.26,6.19-0.53,9.28-0.88
	c0.89-0.1,1.1,0.23,1.12,0.99c0.01,0.9,0.19,1.8,0.26,2.69c0.32,4.1,5.45,4.65,7.65,3.2c1.56-1.03,1.59-2.82,1.62-4.43
	c0.08-4.92,0.03-9.85,0.03-14.77C233.15,85.93,233.17,85.93,233.18,85.93z"/>
<path class="st0" d="M265.75,113.6c-1.58,0-3.16-0.03-4.74,0.01c-0.89,0.03-1.35-0.16-1.33-1.2c0.05-3.27,0.04-6.55,0-9.83
	c-0.01-0.9,0.32-1.17,1.19-1.16c3.27,0.04,6.55,0.04,9.82,0c0.9-0.01,1.16,0.32,1.15,1.19c-0.04,3.27-0.04,6.55,0,9.83
	c0.01,0.89-0.31,1.2-1.18,1.17C269.02,113.57,267.38,113.6,265.75,113.6z"/>
<path class="st0" d="M348.86,113.6c-1.52,0-3.05-0.05-4.57,0.02c-1,0.04-1.4-0.24-1.38-1.32c0.06-3.16,0.05-6.32,0-9.49
	c-0.02-0.99,0.22-1.41,1.31-1.39c3.16,0.07,6.32,0.05,9.48,0c0.99-0.02,1.41,0.23,1.39,1.31c-0.06,3.16-0.07,6.33,0,9.49
	c0.03,1.17-0.43,1.44-1.49,1.39C352.02,113.55,350.44,113.61,348.86,113.6z"/>
<path class="st0" d="M105.34,107.52c0-1.64,0.04-3.28-0.02-4.92c-0.03-0.9,0.3-1.17,1.18-1.16c3.22,0.04,6.45,0.04,9.67,0
	c0.92-0.01,1.32,0.22,1.3,1.22c-0.05,3.22-0.04,6.45-0.01,9.67c0.01,0.95-0.35,1.3-1.3,1.29c-3.22-0.04-6.45-0.04-9.67,0
	c-0.89,0.01-1.2-0.3-1.17-1.18C105.38,110.8,105.34,109.16,105.34,107.52z"/>
<path class="st0" d="M186.31,107.56c0-1.64,0.03-3.28-0.01-4.92c-0.02-0.86,0.24-1.21,1.15-1.2c3.28,0.04,6.56,0.04,9.84,0
	c0.9-0.01,1.17,0.31,1.16,1.18c-0.04,3.28-0.04,6.56,0,9.85c0.01,0.91-0.35,1.16-1.2,1.15c-3.22-0.03-6.45-0.04-9.67,0
	c-0.97,0.01-1.3-0.37-1.28-1.31C186.34,110.73,186.31,109.14,186.31,107.56z"/>
<path class="st1" d="M144.42,92.13c0-3.85,0.04-7.7-0.03-11.55c-0.02-1.21,0.22-1.74,1.57-1.65c2.93,0.19,5.87-0.07,8.81,0.31
	c3.78,0.48,6.12,2.55,7.01,6.16c1.15,4.68,1.14,9.43-0.11,14.09c-1.02,3.8-3.35,5.49-7.48,5.66c-2.83,0.11-5.66,0.01-8.49,0.09
	c-1.11,0.03-1.31-0.42-1.3-1.4C144.45,99.94,144.42,96.04,144.42,92.13z"/>
</svg>
