<?xml version="1.0" encoding="utf-8"?>
<!-- Generator: Adobe Illustrator 23.1.0, SVG Export Plug-In . SVG Version: 6.00 Build 0)  -->
<svg version="1.1" id="Capa_1" xmlns="http://www.w3.org/2000/svg" xmlns:xlink="http://www.w3.org/1999/xlink" x="0px" y="0px"
	 viewBox="0 0 400 400" style="enable-background:new 0 0 400 400;" xml:space="preserve">
<style type="text/css">
	.st0{fill:#0D4603;}
	.st1{fill:#3F3F3F;}
	.st2{fill:#919191;}
	.st3{fill:#2A2A2A;}
	.st4{fill:#818181;}
	.st5{fill:#3A3A3A;}
	.st6{fill:#797979;}
	.st7{fill:#817F7F;}
	.st8{fill:#707070;}
	.st9{fill:#1F1F1F;}
	.st10{fill:#7E7E7E;}
	.st11{fill:#4B4544;}
	.st12{fill:#1E1D1D;}
	.st13{fill:#575C5F;}
	.st14{fill:#B03315;}
	.st15{fill:#353535;}
	.st16{fill:#2E2E2E;}
	.st17{fill:#787A7A;}
	.st18{fill:#7B453D;}
	.st19{fill:#686868;}
	.st20{fill:#898989;}
	.st21{fill:#3E494A;}
	.st22{fill:#747474;}
	.st23{fill:#B73322;}
	.st24{fill:#A5240A;}
	.st25{fill:#FC3E32;}
	.st26{fill:#848484;}
	.st27{fill:#303030;}
	.st28{fill:#7A341D;}
	.st29{fill:#FCFAFA;}
	.st30{fill:#434444;}
	.st31{fill:#FBFAF9;}
	.st32{fill:#FBF9F9;}
	.st33{fill:#051702;}
	.st34{fill:#B62204;}
	.st35{fill:#061803;}
	.st36{fill:#071805;}
	.st37{fill:#B52204;}
	.st38{fill:#4B0803;}
	.st39{fill:#081A05;}
	.st40{fill:#EBEEE9;}
	.st41{fill:#282F30;}
	.st42{fill:#11210B;}
	.st43{fill:#051C02;}
	.st44{fill:#034803;}
	.st45{fill:#302B2C;}
	.st46{fill:#001F00;}
	.st47{fill:#054803;}
	.st48{fill:#003C00;}
	.st49{fill:#322E2F;}
	.st50{fill:#064703;}
	.st51{fill:#5A5757;}
	.st52{fill:#014803;}
	.st53{fill:#044803;}
	.st54{fill:#013D00;}
	.st55{fill:#024803;}
	.st56{fill:#2B2526;}
	.st57{fill:#091E06;}
	.st58{fill:#043E00;}
	.st59{fill:#962805;}
	.st60{fill:#054703;}
	.st61{fill:#013B00;}
	.st62{fill:#003900;}
	.st63{fill:#912906;}
	.st64{fill:#792F13;}
	.st65{fill:#7B2F16;}
	.st66{fill:#7B2F12;}
	.st67{fill:#5F382F;}
	.st68{fill:#023D00;}
	.st69{fill:#75250D;}
	.st70{fill:#792E0D;}
	.st71{fill:#852D13;}
	.st72{fill:#872F29;}
	.st73{fill:#99200B;}
	.st74{fill:#000700;}
	.st75{fill:#013A00;}
	.st76{fill:#A82613;}
	.st77{fill:#7C2E12;}
	.st78{fill:#533600;}
	.st79{fill:#852F28;}
	.st80{fill:#9B270C;}
	.st81{fill:#942809;}
	.st82{fill:#952807;}
	.st83{fill:#732909;}
	.st84{fill:#014902;}
	.st85{fill:#054000;}
	.st86{fill:#A4260F;}
	.st87{fill:#A62613;}
	.st88{fill:#962707;}
	.st89{fill:#9D2711;}
	.st90{fill:#1C1C1C;}
	.st91{fill:#1D1B1B;}
	.st92{fill:#212121;}
	.st93{fill:#737373;}
	.st94{fill:#434242;}
	.st95{fill:#4D4C4C;}
	.st96{fill:#717171;}
	.st97{fill:#2B3839;}
	.st98{fill:#575555;}
	.st99{fill:#626464;}
	.st100{fill:#514E4E;}
	.st101{fill:#F31504;}
	.st102{fill:#152C11;}
	.st103{fill:#F01B0C;}
	.st104{fill:#0C4503;}
	.st105{fill:#61100B;}
	.st106{fill:#FE1508;}
	.st107{fill:#B62305;}
	.st108{fill:#76201D;}
	.st109{fill:#010A01;}
	.st110{fill:#FE1204;}
	.st111{fill:#0A1314;}
	.st112{fill:#1B1717;}
	.st113{fill:#081415;}
	.st114{fill:#071415;}
	.st115{fill:#95140A;}
	.st116{fill:#354243;}
	.st117{fill:#BC2216;}
	.st118{fill:#344344;}
	.st119{fill:#422D2C;}
	.st120{fill:#2A3030;}
	.st121{fill:#FCF8F8;}
	.st122{fill:#4A0803;}
	.st123{fill:#580801;}
	.st124{fill:#FCEFEE;}
	.st125{fill:#FCF0EF;}
	.st126{fill:#631B16;}
	.st127{fill:#580904;}
	.st128{fill:#AD160B;}
	.st129{fill:#700902;}
	.st130{fill:#F30B00;}
	.st131{fill:#AD0E03;}
	.st132{fill:#F10F02;}
	.st133{fill:#57211E;}
	.st134{fill:#F20A00;}
	.st135{fill:#1F1210;}
	.st136{fill:#FB1504;}
	.st137{fill:#F20400;}
	.st138{fill:#FD1503;}
	.st139{fill:#58130F;}
	.st140{fill:#211F1E;}
	.st141{fill:#FD1301;}
	.st142{fill:#F30A00;}
	.st143{fill:#511E1B;}
	.st144{fill:#FE1503;}
	.st145{fill:#004903;}
	.st146{fill:#5D1A14;}
	.st147{fill:#3D0401;}
	.st148{fill:#3B0300;}
</style>
<path class="st0" d="M43.5,269.06c-12.87-30.66-20.14-62.27-20.51-95.04c-1.08-2.92-0.39-5.93-0.51-8.89
	c0.89-7.17,0.87-14.34,0.01-21.51c0.17-3.3-0.66-6.65,0.54-9.9c-0.22-11.69,0.62-23.47-3.67-34.82c-0.97-2.16-1.63-4.44-3.01-6.45
	c-2.95-3.45-4.93-7.43-7.8-10.92c-1.06-1.68-1.28-3.76-3.11-5.07c-0.67-0.51-1.33-1.02-2-1.53c-2.41-1.89-2.36-4.19-1.38-6.63
	c4.16-13.21,8.33-26.43,12.49-39.64c1.06-1.96,2.71-1.53,4.42-0.86c4.87,2.84,9.56,5.96,15.13,7.74c2.31,1.27,4.6,2.55,7.28,3.15
	c2.02,0.67,4.05,1.31,6.25,1.31c1.62,0.16,2.94,1.02,4.42,1.51c1.47,0.5,2.97,0.9,4.52,1.15c0.54,0.07,1.07,0.18,1.59,0.3
	c1.86,0.54,3.8,0.7,5.7,1c1.69,0.39,3.38,0.73,5.14,0.69c1.86,0.03,3.72-0.01,5.57,0.2c0.64,0.05,1.27,0.17,1.89,0.31
	c3.79,0.95,7.67,0.38,11.5,0.52c1.9,0.01,3.8,0.01,5.69,0.05c1.19,0.02,2.36,0.14,3.51,0.39c1.99,0.45,4,1.28,5.98-0.08
	c0.44-0.29,0.91-0.52,1.4-0.72c1.87-0.58,3.78-0.55,5.71-0.31c0.55,0.08,1.08,0.21,1.61,0.35c1.6,0.43,3.19,0.69,4.67-0.29
	c0.41-0.29,0.85-0.56,1.29-0.8c1.42-0.61,2.61-1.57,4-2.24c3.25-0.71,6.46-1.53,9.76-2.02c2.47,0.29,4.82-0.09,7.08-0.96
	c0.49-0.18,0.99-0.33,1.5-0.47c2.61-0.46,4.75-1.78,6.98-2.97c0.97-0.37,1.99-0.54,3.01-0.74c1.77-0.34,3.33-1.12,4.93-1.82
	c1.88-0.73,3.58-1.73,5.22-2.81c1.56-0.82,3.04-1.76,4.68-2.47c0.46-0.21,0.94-0.39,1.42-0.58c2.11-0.89,4-2.07,5.75-3.43
	c1.32-1.08,2.77-2.02,4.22-2.96c0.37-0.32,0.74-0.62,1.1-0.95c0.32-0.37,0.67-0.72,1.02-1.07c0.38-0.36,0.81-0.65,1.28-0.91
	c4.16-2.53,7.09-6.32,11.43-8.69c1.53-0.84,2.71-2.21,4.81-1.52c1.79,1.24,1.64,2.92,1.39,4.63c-1,3.11-0.91,6.2,0.18,9.27
	c0.55,3.61,0.57,7.22,0.02,10.82c-1.18,3.16-1.1,6.34-0.24,9.55c0.14,0.94,0.1,1.87-0.13,2.8c-0.62,12.6-0.96,25.2,0.19,37.79
	c0.51,1.87,0.51,3.76,0.14,5.64c-1.19,3.78-1.2,7.58-0.05,11.38c0.47,2.12,0.47,4.23,0,6.35c-1.19,4.47-1.16,8.93,0.08,13.39
	c0.35,2.5,0.81,5.02-0.78,7.35c-2.79,2.12-6.19,1.25-9.36,1.46c-2.37,0.15-5.03-0.42-6.28,2.21c-0.81,10.54-0.21,21.07-0.3,31.6
	c-0.01,0.94,0.52,1.7,1.18,2.38c3.01,2.02,6.93,0.37,10.04,1.95c0.57,0.29,0.86,0.74,0.89,1.32c-1.73,2.96-5.79,0.65-8.3,2.9
	c3.33,2.74,7.69,0.77,11.06,2.27c0.61,0.3,1.03,0.72,1.28,1.29c0.32,0.92,0.3,1.83,0.04,2.76c-0.25,15.04-0.87,30.08,0.37,45.1
	c0.51,1.9,0.51,3.8,0.14,5.72c-1.34,4.75-1.08,9.52-0.25,14.31c0.18,0.93,0.16,1.85-0.02,2.77c-0.93,8.07-0.74,16.13-0.09,24.2
	c0.1,0.64,0.1,1.27,0.01,1.9c-0.56,8.22-1.1,16.45,0.37,24.65c0.59,3.87,0.58,7.74,0.05,11.61c-1.36,5.27-1.31,10.54-0.01,15.82
	c0.53,4.21,0.57,8.41,0,12.62c-1.38,6.93-1.25,13.86-0.08,20.79c0.62,3.44,0.59,6.89,0.1,10.34c-1.51,4.5-0.9,9.09-0.68,13.66
	c0.13,0.52,0.18,1.05,0.17,1.58c-0.39,1.96-0.67,3.93-0.2,5.92c0.02,0.5-0.09,0.99-0.29,1.46c-1,1.19-1.57,2.69-3.12,3.5
	c-2.67,0.44-3.49-1.4-4.58-2.91c-1.92-5.4-8.31-5.12-12.47-7.66c-1.36-1.4-2.88-2.59-5.07-2.82c-0.79-0.15-1.54-0.38-2.24-0.75
	c-1.23-0.85-2.31-1.95-4.04-2.04c-1.08-0.12-2.12-0.34-3.16-0.61c-4.09-1.48-8.02-3.24-11.59-5.56c-1.5-1.09-3.28-1.69-5.1-2.2
	c-4.82-1.62-8.86-4.53-13.53-6.39c-5.17-3.2-10.8-5.79-15.92-9.06c-10.23-6.66-20.32-13.47-29.23-21.53
	c-2.16-1.95-4.24-3.94-5.57-6.44c-0.85-1.56-2.23-2.66-3.83-3.6c-5.4-5.03-9.8-10.73-14.03-16.54c-0.69-0.77-1.15-1.66-1.59-2.55
	c-0.65-1.83-1.77-3.43-3.18-4.88c-0.34-0.39-0.59-0.82-0.8-1.27c-2.31-4.61-5.59-8.77-7.86-13.39c-0.43-0.66-0.87-1.32-1.3-1.98
	C47.47,276.45,45.68,272.69,43.5,269.06z"/>
<path class="st1" d="M63.66,303.97c4.81,5.45,9.61,10.91,14.42,16.36c1.13,1.11,2,2.45,3.61,3.13c7.51,10.2,18.73,16.92,29.13,24.43
	c1.86,1.35,4.5,1.88,5.57,4.07c4.1,4.3,9.96,6.38,15.09,9.39c10.45,5.5,20.95,10.91,31.99,15.44c1.31,0.57,2.63,1.12,3.93,1.69
	c7.17,4.15,16.09,5.32,22.65,10.49c1.08,1.22,1.3,3.22,3.73,3.21c3.48-1.56,5.64,0.76,8.12,2.16c1.22,1.11,2.93,1.85,3.4,3.53
	c-1.84,1.58-3.89,2.9-6.5,1.61c-21.05-10.4-43.83-17.72-64.43-28.94C105.1,354.6,81,334.18,63.42,307.91
	c-0.51-0.76-0.85-1.62-1.26-2.44C61.74,304.24,62.39,303.86,63.66,303.97z"/>
<path class="st2" d="M380.49,105.85c-0.95,9.15-3.1,18.29-2.2,27.49c1.44,14.65,1.3,29.31,0.68,43.92
	c-1.19,27.9-5.66,55.4-15.36,82.09c-0.29,0.8-0.99,1.48-1.49,2.22c-1.43-1.12-1.49-2.63-1.56-4.15c0.5-4.03,1.44-7.96,3.63-11.57
	c2.42-4.87,3.45-10.03,3.96-15.29c0.08-0.5,0.22-0.99,0.38-1.46c0.72-1.57,0.85-3.25,1.14-4.9c0.1-0.47,0.24-0.92,0.39-1.37
	c0.78-2.05,0.34-4.22,0.81-6.31c0.1-0.49,0.23-0.97,0.39-1.45c0.74-2.28,0.32-4.66,0.84-6.96c0.12-0.58,0.28-1.14,0.45-1.7
	c0.68-11.6,1.58-23.17,1.76-34.78c1.39-5.18,1.24-10.37,0.12-15.57c-0.36-1.25-0.43-2.53-0.47-3.81c0.05-9.72-0.21-19.43,0.12-29.14
	c0.05-0.61,0.17-1.22,0.34-1.81c1-2.23,0.83-4.58,0.82-6.92c0.06-3,0.2-5.98,2.42-8.5C378.61,105.32,379.55,105.25,380.49,105.85z"
	/>
<path class="st3" d="M201.19,395.47c-2.07-1.8-4.6-2.79-7.41-3.28c0.09-1.42-0.16-3.02,2.2-3.24c0.91-0.02,1.75,0.19,2.56,0.55
	c3.08,1.47,6.26,1.69,9.41,0.33c20.16-8.71,40.97-16.28,60.2-26.63c14.86-8,28.79-17.22,41.13-28.04
	c11.46-10.05,21.41-21.32,29.99-33.48c0.92-0.75,1.84-1.49,3.23-0.9c-3.79,8.88-10.45,16.2-16.8,23.63
	c-3.4,3.98-7.52,7.48-11.31,11.19c-4.23,4.76-9.52,8.53-14.75,12.36c0.01,0.66-0.44,0.84-1.08,0.83c-2.43,0.71-3.84,2.44-5.23,4.18
	c-0.7,0.42-1.39,0.84-2.09,1.26c-4.36,3.82-9.81,6.21-14.94,9.02c-0.72,0.64-1.44,1.28-2.16,1.92c-3.48,0.76-5.76,3.4-9.03,4.49
	c-0.47,0.25-0.96,0.46-1.45,0.66c-1.79,0.67-3.47,1.51-5.02,2.56c-16.57,8.66-34.52,14.85-51.64,22.52
	C205.09,396.26,203.14,396.52,201.19,395.47z"/>
<path class="st4" d="M17.96,28.47c-1.19-0.64-2.33-0.54-3.43,0.17c-0.48-1.52,1.34-2.16,1.65-3.29c1.28-4.69,3.92-3.97,7.48-1.89
	c13.86,8.13,29.27,12.83,45.6,14.87c24.78,3.1,49.27,2,73.1-5.47c1.53-0.48,3.13-0.76,4.71-1.13c0.46,0.53,0.63,1.13,0.49,1.79
	c-3,3.49-7.77,3.95-11.96,4.88c-14.28,3.18-28.72,5.72-43.61,4.42c-4.99-1.32-10.12-0.5-15.18-0.73
	c-18.26-0.94-35.16-5.9-50.98-13.83C22.93,26.81,20.51,25.5,17.96,28.47z"/>
<path class="st5" d="M201.19,395.47c2.15,0.23,3.94-0.65,5.77-1.44c17.32-7.5,34.64-15,51.97-22.49c1.62-0.75,3.56-0.95,4.92-2.18
	l0,0c2.19-0.34,4.03-2.55,6.57-0.95c-14.65,9.34-31.44,15.09-47.42,22.21c-5.8,2.59-11.79,4.84-17.7,7.25
	C203.94,397.07,202.56,396.27,201.19,395.47z"/>
<path class="st6" d="M246.71,29.52c14.07,4.33,28.18,8.64,43.15,9.76c18.41,1.38,36.71,0.73,54.74-3.19
	c0.79-0.28,1.6-0.41,2.45-0.28c0.52,0.27,0.76,0.67,0.75,1.21c-0.24,0.47-0.61,0.83-1.12,1.08c-2.95,0.92-6.05,1.36-9.02,2.26
	c-0.58,0.18-1.17,0.31-1.77,0.43c-4.73,0.83-9.47,1.55-14.32,1.29c-2.65-0.03-5.3-0.06-7.85,0.74c-3.48,0.47-6.96,0.57-10.44-0.01
	c-4.73-1.27-9.59-0.51-14.39-0.7c-13.71-0.41-26.47-4.33-39.15-8.49c-1.35-0.44-2.5-1.24-3.26-2.38
	C246.2,30.63,246.28,30.05,246.71,29.52z"/>
<path class="st7" d="M389.36,43.6c4.87,10.39,7.47,21.38,10.51,32.22c0.81,2.87-2.47,5.4-3.37,8.26c-1.72-1.43-1.51-3.34-1.64-5.16
	c-1.08-5.1-0.65-10.36-2.11-15.41c-1.11-1.78-1.95-3.66-2.48-5.64c-0.25-4.1-3.16-7.78-2.48-12.03
	C388.01,44.93,388.41,44.11,389.36,43.6z"/>
<path class="st8" d="M194.86,4.39c4.35-5.47,5.31-5.74,9.93-1.27c9.29,9.01,20.63,15.61,32.07,22.14c0.3,0.28,0.41,0.58,0.35,0.89
	c-0.07,0.31-0.15,0.47-0.23,0.47c-2.49,1.2-4.23-0.44-6.08-1.36c-9.44-4.66-17.87-10.46-25.24-17.48c-1.88-1.79-3.72-4.04-7.18-2.76
	c-0.79,0.28-1.6,0.42-2.45,0.31C195.47,5.17,195.08,4.87,194.86,4.39z"/>
<path class="st9" d="M342.5,300.78c-0.82,0.37-1.65,0.73-2.47,1.1c-1.91-1.98-0.68-3.88,0.54-5.47
	c8.64-11.21,13.82-23.78,18.62-36.51c0.46-1.23,0.64-3.05,3.05-2.69c-0.04,1.46-0.08,2.91-0.13,4.37
	C357.09,275.23,351.27,288.58,342.5,300.78z"/>
<path class="st10" d="M147.16,33.1c-0.03-0.45-0.06-0.91-0.09-1.36c11.16-4.22,21.53-9.74,31.89-15.26
	c0.82,0.77,0.88,1.58,0.19,2.45c-0.14,0.33-0.26,0.66-0.36,0.99c-0.27,0.42-0.6,0.79-1,1.12l-0.07-0.01
	c-5.64,1.7-10.31,4.96-15.42,7.52C157.43,30.5,153.3,34.43,147.16,33.1z"/>
<path class="st11" d="M9.49,81.07c3.3,3.13,5.71,6.73,7.17,10.82c-0.08,0.7-0.43,1.2-1.21,1.43c-3.25-2.68-5.62-6.1-9.32-8.41
	c-3.14-1.96-0.5-4.17-0.03-6.27C8.22,78.36,8.61,79.99,9.49,81.07z"/>
<path class="st12" d="M386.71,92.75c-0.35,0.39-0.7,0.79-1.05,1.18c-1.08,1.46-1.64,3.14-2.45,4.72c-0.35,0.64-0.69,1.29-1.04,1.93
	c-1.95,0.49,0.08,3.6-2.88,3.43c-1.94-0.99-2.35-2.48-1.36-4.12c3.6-5.99,6.08-12.55,11.3-17.73c1.6-1.59,2.96-3.57,5.96-2.76
	c1.61,2.23,0.03,3.8-1.62,5.12C390.64,86.88,388.76,89.86,386.71,92.75z"/>
<path class="st13" d="M179.15,18.92c-0.06-0.82-0.13-1.63-0.19-2.45c5.3-4.03,10.6-8.06,15.9-12.09c0.06,0.25,0.18,0.48,0.36,0.68
	c0.79,0.92,0.82,1.8-0.14,2.65c-3.62,3.48-8.94,5.36-11.65,9.72C182.52,18.88,180.73,18.77,179.15,18.92z"/>
<path class="st14" d="M23.2,164.63c-0.07,3.13-0.14,6.26-0.21,9.39c-2-3.02-1.26-6.37-1.14-9.54c0.41-10.25-1.45-20.58,1.16-30.76
	c0.06,3.46,0.13,6.92,0.19,10.38C23.86,150.94,23.88,157.78,23.2,164.63z"/>
<path class="st15" d="M276.31,363.25c3.92-4.38,9.62-6.46,14.94-9.02C287.79,359.22,282.96,362.41,276.31,363.25z"/>
<path class="st16" d="M386.71,92.75c0.43-5.57,6.93-8,8.52-12.97c-0.27-0.26-0.37-0.54-0.3-0.82c0.07-0.28,0.15-0.43,0.23-0.43
	c0.52-0.26,0.95-0.18,1.26,0.29c0.03,1.75,0.06,3.5,0.08,5.25C393.24,86.97,389.98,89.86,386.71,92.75z"/>
<path class="st17" d="M371.98,26.49c0.66-0.41,1.3-0.84,1.98-1.23c8.16-4.62,9.1-4.23,10.48,4.38c-0.42,0.37-0.92,0.56-1.51,0.59
	c-2.63-4.33-6.95-2.67-10.88-2.42c-0.3-0.28-0.41-0.57-0.33-0.87C371.8,26.64,371.89,26.49,371.98,26.49z"/>
<path class="st15" d="M299.64,347.96c3.69-5.27,9.87-8.21,14.75-12.36C310.4,340.59,306.21,345.39,299.64,347.96z"/>
<path class="st18" d="M49.69,282.49c3.75,4.26,7.63,8.46,8.98,13.93c-2.76,0.3-2.18-2.68-4.05-3.25
	C52.37,289.83,50.15,286.48,49.69,282.49z"/>
<path class="st19" d="M382.96,29.78c0.5-0.04,0.99-0.09,1.49-0.13c2.48,4.42,4.11,9.07,4.92,13.96c-0.09,0.82-0.19,1.64-0.28,2.46
	c-4.14-1.26-2.77-5.17-4.63-7.53C383.94,35.62,381.15,33,382.96,29.78z"/>
<path class="st20" d="M347.56,36.35c-0.99-0.09-1.97-0.17-2.96-0.26c5.83-1.83,11.65-3.65,17.48-5.48c0.39,0.36,0.54,0.78,0.49,1.27
	c-0.19,0.45-0.48,0.84-0.84,1.19c-0.4,0.31-0.85,0.56-1.33,0.75c-1.72,0.51-3.43,1.08-5.04,1.84c-0.49,0.21-0.99,0.36-1.51,0.49
	C351.75,36.3,349.71,37.6,347.56,36.35z"/>
<path class="st21" d="M54.62,293.17c2.2,0.25,2.35,2.51,4.05,3.25c0,0,0-0.03,0-0.03c1.53,1.68,2.34,3.76,3.79,5.48
	c0.96,0.45,1.12,1.26,1.2,2.1c-0.5,0.5-1,1-1.51,1.5C58.93,301.72,56.72,297.47,54.62,293.17z"/>
<path class="st22" d="M236.74,26.62c0.04-0.46,0.08-0.91,0.13-1.37c3.55,0.94,6.79,2.44,9.85,4.27c-0.02,0.43-0.04,0.85-0.07,1.28
	C242.08,31.76,238.85,30.23,236.74,26.62z"/>
<path class="st23" d="M43.5,269.06c2.99,3.36,5.24,6.98,4.89,11.45C46.1,276.91,44.53,273.08,43.5,269.06z"/>
<path class="st15" d="M270.42,368.41c-2.19,0.32-4.38,0.63-6.57,0.95c3.22-1.81,5.87-4.7,10.29-4.19
	C272.9,366.25,271.66,367.33,270.42,368.41z"/>
<path class="st24" d="M15.45,93.32c0.41-0.48,0.81-0.95,1.22-1.43c2.61,1.81,2.84,4.34,2.68,6.99
	C17.46,97.35,16.51,95.31,15.45,93.32z"/>
<path class="st25" d="M2.04,68.28c-0.55,2.38-0.03,4.58,1.38,6.63C-1.62,73.45-0.2,70.94,2.04,68.28z"/>
<path class="st26" d="M362.13,31.79c-0.02-0.39-0.04-0.79-0.05-1.18c1.97-0.78,3.94-1.57,5.9-2.35c0.2,0.2,0.41,0.4,0.61,0.59
	C367.42,31.52,365.28,32.52,362.13,31.79z"/>
<path class="st26" d="M371.98,26.49c0.01,0.36,0.02,0.73,0.02,1.09c0.71,0.66,0.63,1.36,0.13,2.07c-1.51,1-2.69,0.65-3.62-0.7
	c-0.17-0.24-0.35-0.47-0.53-0.7C369.1,27.28,370.35,26.55,371.98,26.49z"/>
<path class="st27" d="M379.35,103.73c1.52-0.64,0.83-2.84,2.82-3.15c0.12,1.92-0.89,3.57-1.68,5.27c-0.77,0.06-1.55,0.11-2.32,0.17
	C377.5,104.83,378.21,104.19,379.35,103.73z"/>
<path class="st15" d="M293.33,352.97c0.48-2.64,2.09-4.16,5.23-4.18C297.14,350.5,295.66,352.15,293.33,352.97z"/>
<path class="st28" d="M9.49,81.07c-1.14-0.81-2.27-1.62-3.41-2.44c-0.22-0.73-0.44-1.46-0.67-2.19C7.75,77.32,9.44,78.63,9.49,81.07
	z"/>
<path class="st16" d="M383.21,98.65c-0.18-1.98,0.59-3.57,2.45-4.72C385.88,95.93,384.67,97.34,383.21,98.65z"/>
<path class="st29" d="M192.65,167.5c-4.03-0.23-8.06-0.46-12.09-0.69c-1.79-3.07-0.76-6.35-0.81-9.52
	c-0.14-9.23-0.09-18.47-0.03-27.7c0.73-2.16,2.65-2.44,4.81-2.43c3.45,0.02,6.9,0.01,10.34,0c0.69,0,1.39-0.04,2.08-0.12
	c9.76,1.3,14.42,5.27,16.87,14.32c0.14,3.65,0.17,7.31,0.01,10.96c-1.4,7.49-5.42,13.15-14.04,15.46
	C197.43,168.41,194.98,168.6,192.65,167.5z"/>
<path class="st29" d="M108.69,146.22c-6.42-9.52-3.27-16.22,9.18-19.52c1.46-0.93,2.91-0.99,4.35,0.03c1.16,0.27,2.3,0.76,3.47,0.79
	c4.97,0.14,7.21,2.3,6.68,6.69c-0.35,2.99-2.74,1.86-4.49,1.63c-1.98-0.26-3.85-1.02-5.88-1.16c-5.46-0.37-6.97,1.01-6.68,6.08
	c2.44,2.04,5.7,2.53,8.66,3.56c9.61,3.36,11.38,5.67,11.09,14.85c0.57,4.12-2.49,6.61-5.88,8.05c-7.45,3.18-15.15,3.85-22.48-0.66
	c-1.78-1.14-1.2-2.83-1.35-4.37c-0.31-3.17,1.01-3.76,4.16-2.42c1.76,0.75,3.78,1.02,5.68,1.5c2.44-0.24,4.89-0.35,7.33,0.06
	c1.67-0.06,3.08-0.44,3.51-2.12c-0.57-3.73-3.62-5.11-7.12-6.47C115.06,151.25,110.08,150.86,108.69,146.22z"/>
<path class="st30" d="M147.16,33.1c5.2-1.23,9.92-3.43,14.64-5.63c1.49-0.41,3.17-1.38,3.76,0.97c-1.64,0.87-2.77,2.56-5.01,2.46
	c-1.54,0.95-3.33,1.51-4.88,2.45c-1.75,0.68-3.64,1.16-4.79,2.67c-1.22,0.09-2.44,0.18-3.66,0.27c-2.24,1.56-5.19,1.82-7.5,3.23
	l0.07-0.03c-2.48,0.58-4.91,1.4-7.55,1.15c-3.42,1.57-7.05,2.34-10.91,2.26c-1.26,1.96-3.95,1.25-5.66,2.39
	c-1.54,0.53-3.1,0.59-4.69,0.21c-2.29,0.04-4.59-0.16-6.88,0.15c-3.03,2.69-6.64,0.41-9.92,0.92c-2.15,0-4.3,0-6.44,0
	c-4.01-0.27-8.07,0.58-12.03-0.48l-0.49,0l-0.49-0.06c-1.84-1.11-3.93-0.26-5.87-0.61c-1.6-0.48-3.3-0.58-4.92-1
	c-2.19,0.41-4.18-0.77-6.34-0.61c-0.48-0.06-0.96-0.12-1.44-0.18c-1.48-0.87-2.9-1.99-4.85-0.96c-1.2-0.69-2.39-1.37-3.59-2.06
	c-2.38,0.18-4.42-0.69-6.44-1.62c-2.51-0.61-4.98-1.32-7.15-2.66c-6.63-0.61-11.04-4.79-16.15-7.86c-0.09-4.93,1.59-5.44,6.35-2.76
	c15.66,8.82,32.93,13.61,51.42,14.96c5.28,1.42,10.82-0.48,16.09,1.02C110.81,41.57,129.53,40.08,147.16,33.1z"/>
<path class="st31" d="M148.22,133.52c3.36,7.1,6.71,14.2,10.27,21.71c4.47-7.42,5.93-15.42,11.16-21.9
	c1.36-1.13,2.71-1.16,4.05,0.01c2.71,1.61,0.01,3.47,0.3,5.19c0.28,1.27,0.22,2.52-0.33,3.72c-4.67,10.2-8.84,20.59-14.1,30.56
	c-2.14,4.05-5.28,7.32-11.27,6.16c-5.78,0.15-7.15-2.11-4.55-6.53c1.46-1.13,3.02-0.75,4.59-0.25c5.04-2.25,6.84-5.68,4.74-10.44
	c-3.48-7.88-7.06-15.73-10.51-23.63c-0.67-1.54-2.28-3.23,0.09-4.78C144.55,132.28,146.42,132.05,148.22,133.52z"/>
<path class="st32" d="M50.91,126.75c4.39,1.18,10.36,0.87,9.08,7.47c-0.51,2.91-2.91,1.91-4.72,1.65
	c-13.6-1.91-17.42,0.81-18.53,13.15c-0.11,1.26,0.29,2.51-0.12,3.75c3.12,7.3,9.1,10.1,17.6,8.37c1.82-0.37,4.1-2.4,5.41-0.65
	c1.37,1.83,1.34,4.48-1.09,6.3c-4.27,3.96-9.78,2.31-14.86,2.59c-1.67-0.1-3.22-0.54-4.64-1.31c-2.46-1.52-5.23-2.78-6.32-5.53
	c-4.97-5.82-6.06-12.46-4.89-19.45c1.52-9.08,7.78-14.28,17.67-16.33C47.3,125.67,49.1,125.66,50.91,126.75z"/>
<path class="st33" d="M148.29,178.99c5.92-0.82,9.05-4.23,11.15-8.94c4.72-10.55,9.69-21.01,14.55-31.51
	c3.23,1.08,3.58,3.07,2.4,5.65c-5.11,11.23-10.08,22.52-15.33,33.7c-1.96,4.16-5.66,6.57-11.05,6.41c-2.05-0.06-4.31,0.16-5.04-2.13
	C144.17,179.67,147.45,180.29,148.29,178.99z"/>
<path class="st34" d="M197.46,389.99c-0.49-0.35-0.98-0.7-1.47-1.04c0.02-0.38,0.04-0.77,0.06-1.15c-0.56-1.77-0.59-3.54,0.02-5.3
	c0.01-0.41,0.01-0.81,0.02-1.22c-0.68-4.67-0.64-9.34-0.02-14.01c0-3.68,0-7.35,0-11.03c-0.65-6.85-0.63-13.69-0.01-20.54
	c0-4.4,0-8.81,0-13.21c-0.63-5.03-0.63-10.06,0-15.09c0-4.04,0-8.08,0.01-12.12c-0.65-8.3-0.64-16.6,0-24.89
	c0.01-0.41,0.02-0.82,0.02-1.23c-0.68-8.3-0.68-16.61,0-24.91c-0.01-0.77-0.01-1.54-0.02-2.31c-0.63-4.67-0.65-9.34,0.01-14.01
	c0-1.86,0-3.72,0.01-5.58c-0.67-15.56-0.68-31.12,0.01-46.68c0.11-0.74,0.22-1.48,0.33-2.22c0.87-0.27,1.52-0.04,1.95,0.69
	c0.36,0.64,0.59,1.32,0.69,2.04c0.38,20.3,0.14,40.6,0.16,60.9c0.04,47.67,0.02,95.34,0,143.02c0,2.71,0.26,5.44-0.42,8.13
	C198.54,388.91,198.09,389.5,197.46,389.99z"/>
<path class="st35" d="M106.72,166.56c4.23,0.4,8.29,1.66,12.63,1.58c7.39-0.14,12.98-2.55,15.73-8.97c0.58-1.03,1.16-2.05,2.09-3.7
	c0.05,6.65,1.89,12.96-6.19,16.58c-6.85,3.07-13.64,2.29-20.48,0.32C107.44,171.49,107.73,168.63,106.72,166.56z"/>
<path class="st36" d="M36.62,152.77c-2.36-4.84-1.52-9.54,1.19-13.98c3.18-5.2,8.43-6.57,15.72-4.89c2,0.46,4.17,3.06,6.46,0.33
	c3.6,0.87,2.42,3.33,1.94,5.25c-0.39,1.56-2.19,1.34-3.57,1.02c-12.51-2.89-17.69,0.24-20.7,11.01
	C37.53,151.97,36.98,152.35,36.62,152.77z"/>
<path class="st37" d="M197.31,127.82c-0.39-0.04-0.77-0.09-1.16-0.13c-0.34-0.22-0.47-0.46-0.38-0.71c0.09-0.25,0.19-0.38,0.3-0.38
	c0-2.57-0.01-5.13-0.01-7.7c-0.64-4.31-0.65-8.61,0-12.92c0-2.22,0-4.44,0.01-6.67c-0.65-3.59-0.65-7.17,0-10.76
	c0-1.86,0-3.72-0.01-5.58c-0.67-13.02-0.67-26.04,0-39.05c0-0.77,0-1.54,0-2.31c-0.66-2.85-0.62-5.71-0.02-8.57
	c0-4.04,0-8.08,0-12.12c-0.58-2.86-0.62-5.71,0.03-8.57c0.07-1.62,0.88-3.36-1-4.64c0.05-0.88,0.1-1.77,0.14-2.65
	c0.67-0.08,1.35-0.16,2.02-0.25c1.86,0.48,2.27,1.71,2.09,3.23c-0.25,36.67-0.03,73.34-0.12,110.01c-0.01,2.7,0.29,5.42-0.48,8.09
	C198.46,126.84,197.98,127.39,197.31,127.82z"/>
<path class="st38" d="M197.5,173.43l-0.54-0.04c0,0-0.54,0.04-0.54,0.04c0,0-0.39-0.01-0.39-0.01c-1.22-1.87-2.19-3.87-3.43-5.73
	c0,0,0.05-0.2,0.05-0.2c10.95-0.37,17.34-5.48,19.68-14.82c1.83-1.48-1.58-4.85,2.53-5.5c0.48,0.43,0.82,0.92,1.04,1.49
	c0.66,2.33,0.34,4.71,0.46,7.07c-0.49,7.29-3.55,13.25-11.19,16.78C202.78,173.62,200.2,174.01,197.5,173.43z"/>
<path class="st35" d="M32.7,162.52c2.14,1.44,4.28,2.87,6.42,4.31c0.17,2.33,3.13,1.15,4.05,2.54c2.56,0.57,5.2,0.03,7.78,0.31
	c-2.64-0.4-5.39,0.33-8.01-0.43c-0.38-0.25-0.55-0.52-0.5-0.83c0.05-0.32,0.13-0.49,0.23-0.49c5.36,0.43,10.64,0.05,15.85-1.16
	c1.13,0.15,2.05-0.13,2.72-0.97c0.35-0.51,0.71-0.51,1.09-0.02c1.86,7.12-4.27,7.44-9.32,8.35c-7.81,1.41-17.99-3.65-21.01-10.26
	C31.87,163.56,32.46,162.98,32.7,162.52z"/>
<path class="st39" d="M115.33,140.76c-3.6-3.71-2.81-6.52,2.16-7.44c3.25-0.6,6.36,0.17,9.49,0.89c1.75,0.4,3.61,2.15,5.39,0
	c2.72,1.22,3.14,3.39,1.95,5.42c-1.15,1.96-3.52,1.11-5.41,0.64C124.32,139.11,119.81,139.48,115.33,140.76z"/>
<path class="st40" d="M76.33,157.19c1.19-0.12,2.38-0.2,3.55-0.35c4.98-0.65,8.14,0.49,7.19,5.7c0.74,1.46,1.39,2.92-0.32,4.24
	c-3.5,0.67-6.99,0.76-10.48,0C74.64,163.57,74.53,160.38,76.33,157.19z"/>
<path class="st41" d="M163.1,378.05c-11.01-4.89-22.28-9.39-31.98-16.29c0.09-0.67,0.79-0.77,1.27-1.08
	c4.55,2.21,9.09,4.42,13.64,6.64c1.57,0.78,2.79,2.21,4.86,2.05c3.95,2.02,7.7,4.37,12.18,5.47
	C163.97,375.9,164.21,376.97,163.1,378.05z"/>
<path class="st42" d="M192.6,167.69c4.55,0.31,3.83,3.09,3.44,5.73c-2.86-0.01-5.72-0.08-8.57,0c-2.99,0.09-4.85-1.1-4.86-3.71
	c-0.01-3.17,2.93-1.39,4.53-1.7C188.89,167.67,190.77,167.78,192.6,167.69z"/>
<path class="st43" d="M86.76,166.78c0.11-1.41,0.21-2.82,0.32-4.24c3.88,2.63,2.76,6.27,1.53,9.27c-1.07,2.63-4.71,1.88-7.07,1.39
	c-2.92-0.6-5.26-2.2-1.73-4.97c2.38,0.29,4.77,0.77,7.07-0.31C86.84,167.55,86.8,167.16,86.76,166.78z"/>
<path class="st44" d="M196.09,175.65c0,15.56,0,31.12-0.01,46.68c-1.4-1.15-1.03-2.67-1.03-4.08c-0.02-12.84-0.02-25.68,0-38.52
	C195.05,178.31,194.68,176.79,196.09,175.65z"/>
<path class="st45" d="M190.06,388.98c-7.89-3.03-16.15-5.37-23.28-9.82c1.31-1.25,2.94-0.33,4.41-0.53c2.24,0.17,3.6,1.77,5.4,2.65
	C181.48,383.3,188.08,382.96,190.06,388.98z"/>
<path class="st46" d="M108.69,146.22c3.42,2.57,7.33,4.18,11.64,5.37c3.88,1.07,8.82,2.18,5.7,7.64c-0.35-0.36-0.69-0.71-1.04-1.07
	c-2.67-2.55-6.65-2.76-9.86-4.33c-1.01-0.01-1.92-0.21-2.43-1.09c-0.88-1.38-2.09-2.48-3.65-3.28
	C108.7,148.4,107.19,147.44,108.69,146.22z"/>
<path class="st47" d="M196.07,43.93c0,13.02,0,26.04,0,39.05c-2.11-2.83-1.05-6-0.94-8.95C195.5,64,193.77,53.91,196.07,43.93z"/>
<path class="st48" d="M180.32,128.78c0.08,12.67,0.16,25.35,0.25,38.02c-2.44-1.4-1.44-3.6-1.46-5.46
	c-0.09-10.86-0.04-21.71-0.04-32.57C179.49,128.34,179.91,128.34,180.32,128.78z"/>
<path class="st49" d="M132.39,360.67c-0.42,0.36-0.85,0.72-1.27,1.08c-5.78-2.24-11.87-4.11-14.73-9.79
	C121.73,354.87,127.06,357.77,132.39,360.67z"/>
<path class="st50" d="M25.48,141.84c-2.46-3.3-1-6.97-1.14-10.46c-0.26-6.25-0.07-12.52,1.14-18.78
	C25.48,122.35,25.48,132.1,25.48,141.84L25.48,141.84z"/>
<path class="st51" d="M165.56,28.44c-0.99-1.13-2.45-0.83-3.76-0.97c5.14-2.47,9.3-6.85,15.92-6.44c-1.51,1.09-3.03,2.18-4.54,3.26
	c-2.34,1.13-4.89,2-6.48,4.07l-0.56,0.09L165.56,28.44z"/>
<path class="st44" d="M196.08,244.23c0,8.3,0,16.61,0,24.91C194.37,260.84,194.36,252.54,196.08,244.23z"/>
<path class="st44" d="M196.06,270.37c0,8.3,0,16.6,0,24.89C194.37,286.97,194.38,278.67,196.06,270.37z"/>
<path class="st52" d="M23.2,164.63c0-6.85,0-13.69,0.01-20.54C24.92,150.94,24.93,157.78,23.2,164.63z"/>
<path class="st53" d="M196.06,335.69c0,6.85,0.01,13.69,0.01,20.54C194.36,349.38,194.39,342.54,196.06,335.69z"/>
<path class="st54" d="M180.32,128.78c-0.42,0-0.83,0-1.25-0.01c2.22-3.54,6.04-1.86,9.21-2.13c2.58-0.22,5.2-0.04,7.8-0.04
	c0.02,0.36,0.05,0.73,0.07,1.09C190.92,128.49,185.45,126.68,180.32,128.78z"/>
<path class="st55" d="M196.06,307.38c0,5.03,0,10.06,0,15.09C194.44,317.44,194.43,312.41,196.06,307.38z"/>
<path class="st44" d="M196.08,227.91c0,4.67,0,9.34-0.01,14.01C194.4,237.25,194.4,232.58,196.08,227.91z"/>
<path class="st53" d="M196.07,367.26c0.01,4.67,0.01,9.34,0.02,14.01C194.38,376.6,194.41,371.93,196.07,367.26z"/>
<path class="st55" d="M196.08,105.98c0,4.31,0,8.61,0,12.92C194.42,114.6,194.41,110.29,196.08,105.98z"/>
<path class="st56" d="M171.76,379.14c-1.66,0.01-3.32,0.01-4.98,0.02c-1.23-0.37-2.45-0.74-3.68-1.11
	c-0.01-1.07-0.01-2.14-0.02-3.21c0.78,0.34,1.56,0.69,2.34,1.03c1.43,0.5,2.69,1.25,3.83,2.15c0.82,0.05,1.65,0.09,2.47,0.14
	c0.4,0.21,0.53,0.42,0.41,0.65C172.01,379.03,171.88,379.14,171.76,379.14z"/>
<path class="st57" d="M115.14,153.83c3.75,0.62,7.75,0.79,9.86,4.33C121.71,156.72,117.83,156.34,115.14,153.83z"/>
<path class="st58" d="M122.23,126.73c-1.45-0.01-2.9-0.02-4.35-0.03c-0.79-0.09-1.58-0.19-2.37-0.28c-0.01-0.16-0.02-0.32-0.03-0.48
	c3.55,0,7.09,0,10.74,0C125.04,127.07,123.49,126.32,122.23,126.73z"/>
<path class="st58" d="M50.91,126.75c-1.81,0-3.62,0-5.43,0c-0.8-0.11-1.6-0.21-2.39-0.32c-0.01-0.16-0.03-0.31-0.04-0.47
	c3.51,0,7.01,0,10.52,0c0.03,0.14,0.06,0.27,0.1,0.41C52.74,126.5,51.83,126.63,50.91,126.75z"/>
<path class="st59" d="M75.69,46.08c4.15,0,8.3,0.01,12.45,0.01c0.4,0.21,0.53,0.41,0.4,0.62c-0.13,0.21-0.26,0.32-0.39,0.32
	C84,46.7,79.68,48.13,75.69,46.08z"/>
<path class="st60" d="M196.08,88.56c0,3.59,0,7.17,0,10.76C194.4,95.73,194.4,92.15,196.08,88.56z"/>
<path class="st61" d="M25.48,141.84c2.23,3.1,0.75,6.41,0,9.66C25.48,148.28,25.48,145.06,25.48,141.84
	C25.48,141.84,25.48,141.84,25.48,141.84z"/>
<path class="st62" d="M76.33,157.19c-0.02,3.19-0.04,6.39-0.06,9.58C73.65,163.57,73.55,160.37,76.33,157.19z"/>
<path class="st63" d="M94.28,46.08c3.28-0.32,6.67,0.32,9.84-0.89c0.41,0.19,0.55,0.37,0.41,0.55c-0.14,0.17-0.28,0.26-0.43,0.26
	c-0.03,0.29-0.03,0.59-0.02,0.88c-1.91,1.39-3.98,0.75-6.03,0.39c-1.26-0.08-2.52-0.15-3.79-0.23c-0.39-0.22-0.52-0.44-0.39-0.65
	C94.01,46.19,94.14,46.08,94.28,46.08z"/>
<path class="st64" d="M34.12,36.33c2.45,0.73,4.9,1.46,7.35,2.19c0.35,0.24,0.46,0.47,0.33,0.7c-0.13,0.22-0.25,0.33-0.37,0.33
	C38.52,39.31,35.74,38.85,34.12,36.33z"/>
<path class="st65" d="M139.71,39.52c1.63-2.66,4.77-2.58,7.5-3.23C145.5,38.8,142.72,39.37,139.71,39.52z"/>
<path class="st47" d="M196.05,33.05c0.01,2.86,0.02,5.71,0.03,8.57C194.42,38.77,194.45,35.91,196.05,33.05z"/>
<path class="st66" d="M132.23,40.63c2.37-1.15,4.92-1.37,7.55-1.15C137.4,40.55,135.24,42.79,132.23,40.63z"/>
<path class="st67" d="M62.46,301.87c-2.65-1.07-3.41-3.17-3.79-5.48C61.29,297.48,62.58,299.29,62.46,301.87z"/>
<path class="st54" d="M78.62,155.1c2.29,0,4.59,0,6.88,0c0.01,0.18,0.01,0.35,0.02,0.53c-2.33,0-4.67,0-7,0
	C78.55,155.45,78.59,155.27,78.62,155.1z"/>
<path class="st68" d="M122.53,161.34c-2.45,1.03-4.89,0.8-7.33-0.06C117.66,159.87,120.1,159.81,122.53,161.34z"/>
<path class="st55" d="M196.08,12.36c-0.01,2.86-0.02,5.71-0.03,8.57C194.45,18.06,194.42,15.21,196.08,12.36z"/>
<path class="st69" d="M171.76,379.14c-0.05-0.33-0.06-0.66-0.03-0.99c2.26,0.26,4.66,0.35,4.87,3.13
	C174.33,381.72,173.1,380.33,171.76,379.14z"/>
<path class="st70" d="M166.7,28.36c0.8-3.06,3.55-3.68,6.48-4.07C171.54,26.3,169.13,27.35,166.7,28.36z"/>
<path class="st71" d="M41.43,39.55c0.01-0.35,0.02-0.69,0.04-1.04c2.08,0.7,4.16,1.4,6.24,2.09C45.15,42.39,43.42,40.38,41.43,39.55
	z"/>
<path class="st72" d="M63.53,43.93c1.72,0.07,3.63-0.54,4.96,1.02c0.42,0.19,0.56,0.38,0.41,0.56c-0.14,0.18-0.28,0.27-0.43,0.27
	c-1.73,0.26-3.34-0.03-4.86-0.78c-0.41-0.22-0.56-0.45-0.45-0.69C63.28,44.06,63.4,43.93,63.53,43.93z"/>
<path class="st73" d="M150.9,369.36c-3.14,2.14-3.44-1-4.86-2.05C148.01,367.34,149.61,368.06,150.9,369.36z"/>
<path class="st74" d="M86.88,167.93c-2.27,1.79-4.64,1.55-7.07,0.3C82.17,168.13,84.53,168.03,86.88,167.93z"/>
<path class="st75" d="M148.22,133.52c-1.86-0.05-3.71-0.11-5.57-0.16C144.6,131.08,146.44,131.53,148.22,133.52z"/>
<path class="st76" d="M104.1,46.01c0.01-0.27,0.02-0.54,0.02-0.82c2.41-0.06,4.82-0.11,7.23-0.17c0.42,0.13,0.58,0.29,0.46,0.47
	c-0.12,0.19-0.25,0.29-0.38,0.29C108.99,45.86,106.55,45.94,104.1,46.01z"/>
<path class="st77" d="M150.88,36.02c0.4-2.58,2.72-2.67,4.89-2.98c0.02,0.23,0.03,0.46,0.05,0.7
	C154.17,34.5,152.52,35.26,150.88,36.02z"/>
<path class="st78" d="M111.43,45.78c-0.03-0.25-0.05-0.5-0.08-0.76c1.3-0.35,2.59-0.71,3.89-1.06c0.65,0.69,1.97,0.16,2.48,1.09
	c-0.08,0.29-0.11,0.58-0.1,0.87c-1.96,1.16-4.02,0.66-6.08,0.31L111.43,45.78z"/>
<path class="st61" d="M173.7,133.35c-1.35,0-2.7-0.01-4.05-0.01c-0.75-2.64,1.63-0.82,2.43-1.22
	C172.33,131.99,174.9,131.14,173.7,133.35z"/>
<path class="st79" d="M51.3,42.67c2.06-1.43,3.85-1.78,4.85,0.96C54.53,43.31,52.91,42.99,51.3,42.67z"/>
<path class="st80" d="M155.81,33.74c-0.01-0.23-0.03-0.47-0.05-0.7c1.16-1.48,2.87-2,4.79-2.14
	C159.58,32.64,157.63,33.09,155.81,33.74z"/>
<path class="st81" d="M117.72,45.05c-0.94-0.15-1.98-0.13-2.48-1.09c2.02-0.36,4.05-0.72,6.07-1.08
	C121.35,45.21,119.3,44.83,117.72,45.05z"/>
<path class="st82" d="M63.53,43.93c0.03,0.36,0.05,0.72,0.08,1.07c-2.11-0.01-4.24,0.09-6.03-1.19
	C59.61,42.19,61.54,44.42,63.53,43.93z"/>
<path class="st83" d="M169.25,378.02c-1.9,0.15-3.06-0.73-3.83-2.15C167.81,375.02,168.89,376.01,169.25,378.02z"/>
<path class="st62" d="M62.34,165.78c-0.36,0.01-0.73,0.01-1.09,0.02c0-1.41,0-2.82,0-4.22c0.28-0.02,0.57-0.04,0.85-0.06
	C62.18,162.94,62.26,164.36,62.34,165.78z"/>
<path class="st84" d="M98.05,47.28c2.01-0.13,4.02-0.26,6.03-0.38C102.23,48.91,100.18,48.57,98.05,47.28z"/>
<path class="st85" d="M148.33,172.21c-1.53,0.08-3.06,0.17-4.59,0.25C145.12,170.27,146.72,171.12,148.33,172.21z"/>
<path class="st86" d="M94.28,46.08c0.01,0.32,0,0.65-0.01,0.97c-2.04-0.01-4.08-0.01-6.11-0.02c-0.01-0.31-0.01-0.63-0.01-0.94
	C90.19,46.09,92.23,46.09,94.28,46.08z"/>
<path class="st87" d="M68.48,45.78c0.02-0.28,0.02-0.55,0.02-0.83c2.09,0.28,4.47-0.72,6.22,1.08
	C72.64,45.95,70.56,45.86,68.48,45.78z"/>
<path class="st52" d="M111.54,46.23c2.03-0.1,4.05-0.21,6.08-0.31C115.71,47.78,113.66,47.5,111.54,46.23z"/>
<path class="st88" d="M81.69,323.46c-2.36,0-3.12-1.44-3.6-3.13C79.91,320.81,80.84,322.1,81.69,323.46z"/>
<path class="st57" d="M109.06,149.46c2.34,0.11,3.56,1.2,3.65,3.28C111.08,152.01,109.82,150.95,109.06,149.46z"/>
<path class="st53" d="M196.07,382.49c-0.01,1.77-0.01,3.53-0.02,5.3C194.55,386.02,194.53,384.26,196.07,382.49z"/>
<path class="st89" d="M177.79,21.04c0.33-0.37,0.67-0.75,1-1.12C178.46,20.29,178.13,20.66,177.79,21.04z"/>
<path class="st90" d="M197.46,389.99c0.1-0.27,0.13-0.54,0.07-0.81c0.85-1.09,1.88-2,3.18-2.66c9.53-5,19.76-8.75,29.8-12.77
	c28.25-11.32,54.13-25.67,75.71-45.54c16.01-14.75,28.55-31.69,38.29-50.26c0.85-1.63,1.42-3.43,3.04-4.67
	c4.31-4.55,6.46-9.84,6.85-15.73c-0.1-3.14,0.96-6.06,2.12-8.96c2.8-6.96,4.91-14.09,6.94-21.25c1.69-1.88,2.41-3.93,1.38-6.29
	c-0.37-1.91,0.26-3.64,1.26-5.29c1.7-1.86,1.92-4.18,2.43-6.4c0.9-2.25,0.67-4.51,0.07-6.78c-0.1-0.85,0.02-1.67,0.34-2.48
	c1.03-1.51,1.26-3.3,2.15-4.84c0.62-1.08,1.58-2.28,2.72-0.24c-0.29,4.44,0.65,8.91-0.51,13.32l0.05-0.07
	c-1.83,2.38,0.18,5.26-1.27,7.69l0.05-0.07c-1.85,2.38,0.17,5.26-1.27,7.7l0.06-0.07c-1.77,1.6-0.01,3.84-1.26,5.54l0.07-0.09
	c-1.24,5.71-2.58,11.4-3.88,17.09c-1.95,3.53-2.82,7.32-3.57,11.15c-3.04,7.16-6.34,14.25-9.05,21.51
	c-2.63,7.06-7.99,12.71-11.84,19.12c-0.8,1.33-1.41,2.55-1.33,4.03c-4.4,8.43-10.96,15.58-17.63,22.59
	c-10.54,11.07-22.45,20.97-35.72,29.41c-13.57,8.63-27.85,16.27-43.13,22.41c-11.54,4.64-22.88,9.66-34.28,14.56
	C205.11,392.63,201.13,393.24,197.46,389.99z"/>
<path class="st91" d="M379.35,103.73c-0.39,0.76-0.78,1.52-1.18,2.29c-0.45,2.87-0.89,5.74-1.34,8.61c-1.42,2.06,0.23,4.52-1.08,6.6
	l0.03,0c-0.73,0.33-1.36,0.21-1.89-0.33c-2.56-5.68-0.15-11.71-1.58-17.46c1.18-10.95,6.8-20.02,15.24-27.86
	c1.41-1.31,3.11-2.31,5.37-1.97c2.88,0.96,2.26,3.19,2.38,5.15c-0.01,0.34-0.03,0.69-0.06,1.03c-6.82,2.76-9.66,8.56-11.98,14.03
	C381.89,97.02,377,99.39,379.35,103.73z"/>
<path class="st92" d="M373.28,208.33c-0.03-4.75-0.05-9.49-0.08-14.24c-1.73-2.37-0.51-4.95-0.53-7.4
	c-0.08-9.22,0.05-18.43,0.06-27.65c0-1.97-0.2-4,0.99-5.82c0.51-0.67,1.18-0.83,2.01-0.5c0.01,1.04,0.02,2.07,0.03,3.11
	c0.84,5.21,0.79,10.41,0.02,15.62C375.99,183.79,375.73,196.12,373.28,208.33z"/>
<path class="st27" d="M375.73,152.71c-0.42-0.01-0.83-0.01-1.25-0.02c-1-0.73-1.51-1.74-1.56-2.83c-0.36-8.62-0.35-17.23,0-25.85
	c0.04-1.09,0.55-2.1,1.54-2.84c0.44,0.01,0.88,0.03,1.32,0.05C375.76,131.72,375.75,142.22,375.73,152.71z"/>
<path class="st9" d="M365.83,246.05c-0.02-5.93,1.67-11.56,3.88-17.09C369.6,234.87,368.08,240.53,365.83,246.05z"/>
<path class="st27" d="M375.79,171.44c-0.01-5.21-0.02-10.41-0.02-15.62C377.2,161.03,377.16,166.23,375.79,171.44z"/>
<path class="st92" d="M372.06,215.96c0.37-2.57-1.32-5.41,1.27-7.69C372.97,210.84,373.97,213.58,372.06,215.96z"/>
<path class="st92" d="M370.84,223.58c0.34-2.58-1.32-5.41,1.27-7.7C372.14,218.51,372.32,221.15,370.84,223.58z"/>
<path class="st27" d="M375.75,121.23c0.13-2.23-1.04-4.63,1.08-6.6C376.6,116.85,377.4,119.2,375.75,121.23z"/>
<path class="st92" d="M369.65,229.05c0.14-1.89-1.05-4.03,1.26-5.54C370.72,225.4,371.28,227.42,369.65,229.05z"/>
<path class="st15" d="M263.85,369.36c-0.93,1.98-2.81,2.28-4.92,2.18C260.19,370.13,261.9,369.54,263.85,369.36z"/>
<path class="st93" d="M91.83,41.69c-5.36-0.36-10.87,1.07-16.09-1.02C81.09,41.09,86.61,39.47,91.83,41.69z"/>
<path class="st94" d="M198.79,6.77c-0.51-0.65-1.02-1.3-1.54-1.95c2.45-3.75,4.81-2.14,7.15,0.1c9.32,8.94,19.96,16.34,32.34,21.7
	c3.05,1.87,6.26,3.42,9.91,4.18c13.33,5.1,27.05,8.92,41.64,9.87c4.87,1.36,10.01-0.41,14.88,1.01c3.69,0,7.38,0,11.07,0
	c2.32-1.04,4.81-0.28,7.21-0.51c5.49,0.27,10.88-0.16,16.13-1.67l-0.01,0c3.25-0.82,6.72-0.9,9.84-2.19l-0.02,0
	c2.3-1.16,5.01-1.24,7.37-2.23l-0.04,0.02c2.03-0.8,4.28-1.11,6.19-2.17l-0.03,0.01c2.13-0.32,3.89-2.23,6.34-1.15
	c0.41,1.79-0.92,2.73-2.41,3.34c-10.91,4.47-21.85,8.86-34.09,9.68c-2.73-0.8-5.43-0.45-8.12,0.24c-3.62,0.74-6.96-1.3-9.45-0.8
	c-1.92-0.06-0.78,1.17-1.1,0.5c-0.06-0.12,0.09-0.17,0.45-0.19c1.56-0.1,3.18-0.58,4.48,0.69c-0.13,0.63-0.49,1.11-1.08,1.46
	c-8.5,1.64-17,1.32-25.51,0.17c-2.14-1.04-4.29-2.08-6.81-0.85c-1.73,0.58-3.49,1.21-5.36,0.72c-22.53-5.94-45.13-11.71-63.83-25.31
	c-5.24-3.81-9.87-8.13-14.6-12.39C199.19,8.37,198.83,7.62,198.79,6.77z"/>
<path class="st95" d="M337.57,39.49c-4.98,2.77-10.54,2.15-16,2.18c-0.39-0.3-0.49-0.54-0.29-0.72c0.17-0.15,0.34-0.23,0.52-0.23
	C327.16,41.24,332.27,39.43,337.57,39.49z"/>
<path class="st96" d="M303.17,41.67c-4.97-0.26-10.06,0.96-14.88-1.01C293.24,41.06,298.36,39.53,303.17,41.67z"/>
<path class="st95" d="M347.39,37.31c-2.86,2.21-6.32,2.28-9.84,2.19C340.63,38.04,343.92,37.33,347.39,37.31z"/>
<path class="st95" d="M354.75,35.08c-2.07,1.74-4.63,2.22-7.37,2.23c0.03-0.33,0.09-0.65,0.19-0.96
	C349.96,35.93,352.35,35.5,354.75,35.08z"/>
<path class="st96" d="M321.81,40.72c-0.13,0.31-0.21,0.63-0.24,0.95c-2.45,0-4.89,0-7.34,0C316.51,39.79,319.26,40.89,321.81,40.72z
	"/>
<path class="st97" d="M391.51,58.06c0.79,1.48,1.57,2.95,2.36,4.43c1.18,2.61,1.64,5.2-0.31,7.72c-5.37-2.62-4.49-7.67-5.88-11.84
	c-0.01-1.22,0.2-2.38,1.02-3.4C392.45,53.98,390.15,57.33,391.51,58.06z"/>
<path class="st98" d="M391.51,58.06c-0.77-1.13-1.53-2.27-2.3-3.4c-2.67-1.95-2.39-4.99-3.57-7.49c-0.61-2.17-1.7-4.26-1.44-6.59
	c0.15-0.88,0.52-1.66,1.34-2.21c2.39,2.13,1.52,5.43,3.54,7.69C388.7,50.25,392.28,53.81,391.51,58.06z"/>
<path class="st99" d="M393.08,70.11c1.86-2.41,0.69-5.07,0.78-7.62c2.8,5.21,1.09,10.97,2.56,16.34c0,0-0.56-0.09-0.56-0.09
	s-0.57,0.02-0.57,0.02c-1.97-1.15-0.19-3.82-2.51-4.82C392.08,72.61,391.46,71.29,393.08,70.11z"/>
<path class="st100" d="M385.53,38.37c-0.02,0.75-0.03,1.49-0.05,2.24c-0.71,0.6-1.53,0.67-2.42,0.39c-2.65-2.02-3.17-4.95-3.85-7.7
	c-0.8-3.22-2.72-4.13-6.09-3.2c-0.6-0.01-1.08-0.24-1.4-0.7c0.1-0.61,0.19-1.22,0.29-1.82c0.57-0.12,1.32-0.08,1.69-0.4
	c4.89-4.12,7.54-2.11,9.25,2.59C383.81,32.64,384.67,35.51,385.53,38.37z"/>
<path class="st95" d="M367.24,31.94c-2.12,0.33-4.25,0.67-6.37,1c0.42-0.38,0.84-0.76,1.26-1.15c2.13-0.95,4.25-1.89,6.38-2.83
	c1.07,0.15,2.14,0.3,3.21,0.45c0,0,0.35,0.39,0.35,0.39C371.49,32.33,369.79,32.89,367.24,31.94z"/>
<path class="st95" d="M360.9,32.93c-1.57,1.82-3.73,2.33-6.19,2.17C356.38,33.5,358.53,32.96,360.9,32.93z"/>
<path class="st101" d="M367.24,31.94c1.98-0.07,3.53-0.89,4.83-2.15c4.73-3.01,7.69-2.6,8.57,3.12c0.4,2.61,1.65,5.11,2.51,7.67
	c1.96,2.19,2.35,4.93,3.34,7.46c0.89,3.36,2.19,6.63,2.62,10.09c0.68,4.16,2.05,8.14,3.96,11.98c-0.24,1.27,0.79,2.61-0.3,3.83
	c-9.61,4.96-13.69,13.36-17.32,22c-0.92,2.18-1.36,4.52-2.02,6.78c0.42,0.76,0.37,1.54,0.12,2.33c-0.58,1.85-0.28,3.75-0.36,5.63
	c-0.13,1.66,0.35,3.39-0.79,4.91c-0.5,0.4-1.08,0.51-1.72,0.34c-0.68-1.15-0.75-2.33-0.26-3.53c-1.31,2.81,1.2,4.98,1.66,7.5
	c0.79,4.63-0.22,9.35,1.03,13.95c-0.02,17.38,0.54,34.76-0.56,52.12c-0.08,1.27-0.14,2.53-0.65,3.72c-0.25,0.56-0.67,1.02-1.22,1.36
	c-3.5-0.91-0.64-3.68-1.91-4.93c-0.34,3.15,1.05,6.44,1.31,9.84c0.12,0.5,0.17,1,0.16,1.51c-0.05,0.24-0.11,0.49-0.16,0.74
	c-0.22,0.45-0.53,0.86-0.92,1.22c-1.45,1.57-0.9,3.14,0.03,4.71c0.15,0.5,0.23,1,0.26,1.52c0.08,1.35-0.05,2.66-0.73,3.89
	c-0.88,2.04,0.06,4.46-1.67,6.33c-0.63,1.79-1.67,3.51-1.08,5.48c-0.05,1.87,0.15,3.79-1.31,5.4c-1.13,8.69-4.68,16.81-7.59,25.08
	c-0.73,2.07-1.54,4.11-1.16,6.33c-2.56,5.11-3.65,10.76-7.26,15.49c-7.19,12.14-13.89,24.5-22.98,35.71
	c-20.07,24.75-45.83,43.57-76.19,57.49c-15.92,7.3-32.27,13.85-48.42,20.74c-1.86-0.2-3.02-0.93-2.95-2.79c0.06-1.45,0-2.9,0-4.35
	c0-66.65,0-133.3-0.02-199.96c0-1.97,0.44-3.99-0.45-5.91c-0.05-0.39-0.1-0.78-0.15-1.17c10.61-2.07,16.87-7.51,17.25-17.5
	c0.95-2.49,0.9-4.98,0.02-7.48c-0.05-0.4-0.11-0.8-0.16-1.2c-2.42-1.67-1.1-4.39-2.28-6.4c-1.86-7.19-7.1-11.32-15.02-13.02
	c0,0,0.32-0.36,0.32-0.36c0.94-1.92,0.47-3.94,0.47-5.91c0.03-35.7,0-71.41,0.08-107.11c0-2.18-1.26-4.81,1.73-6.44
	c13.3,11.73,28.06,21.6,45.59,27.85c8.71,3.11,17.54,5.94,26.89,7.25c3.73,0.52,6.96,3.58,11.17,1.71c2.06-0.33,4.16-1.15,6.02,0.46
	c8.98,1.46,18.02,0.67,27.05,0.64c0.25-0.02,0.51-0.03,0.76-0.05c1.97-0.12,4.05,0.33,5.8-0.92c0.44-0.27,0.9-0.5,1.38-0.7
	c1.84-0.38,3.69-0.68,5.6-0.44C343.37,41.91,355.96,38.53,367.24,31.94z"/>
<path class="st102" d="M191.34,160.94c-4.04,1-3.21-1.67-3.23-3.5c-0.07-6.34,0.23-12.7-0.12-19.02c-0.23-4.2,1.6-5.19,5.75-4.07
	c3.33,0.54,4.22,2.52,3.92,5.21c-0.13,0.86-0.45,1.66-1.08,2.33c-3.76,0.23-3.36,2.7-3.62,5.01
	C192.44,151.58,194.49,156.51,191.34,160.94z"/>
<path class="st103" d="M203.89,142.89c1.48,5.31,1.55,10.41-2.72,14.89c-3.27-0.49-4.02-2.52-4.02-5.06c0-3.55-0.1-7.11-0.08-10.66
	c-0.05-0.95,0.41-1.62,1.42-1.98C201.4,139.34,202.36,141.55,203.89,142.89z"/>
<path class="st104" d="M191.34,160.94c0.01-5.74-0.09-11.48,0.06-17.21c0.08-2.99,1.12-4.96,4.59-1.9c0.57,0.33,0.87,0.81,0.89,1.41
	c-0.3,3.39-0.47,6.78,0.51,10.13c-0.23,2.32,1.18,4.89-1.33,6.87C194.53,160.67,193.04,161.33,191.34,160.94z"/>
<path class="st105" d="M203.89,142.89c-1.72-0.73-3.44-1.46-5.16-2.2c-0.72-0.38-1.61-0.42-2.29-0.87c0.05-2.19-0.32-4.22-2.7-5.47
	C200.07,134.45,203.55,137.21,203.89,142.89z"/>
<path class="st106" d="M197.59,141.85c2.28,3.26,1.04,6.86,1,10.26c-0.03,2.42,0.72,4.13,2.58,5.67c-1.22,0.72-1.87,2.18-3.65,2.17
	C197.05,153.92,194.8,147.88,197.59,141.85z"/>
<path class="st107" d="M197.59,141.85c-0.02,6.04-0.05,12.07-0.07,18.11c-0.48,0.09-0.97,0.19-1.45,0.28c0-2.53,0.01-5.06,0.01-7.58
	c-0.66-3.22-0.65-6.44-0.01-9.66c-0.03-0.39-0.05-0.78-0.08-1.17c0.15-0.67,0.3-1.34,0.45-2.01c0.94-0.06,1.79,0.04,2.29,0.88
	C198.35,141.08,197.97,141.47,197.59,141.85z"/>
<path class="st108" d="M212.33,140.84c1.42,1.95,1.79,4.19,2.28,6.4c-1.98,1.41-0.07,4.1-2.28,5.43
	C212.34,148.73,212.34,144.78,212.33,140.84z"/>
<path class="st109" d="M42.68,167.94c0,0.37,0,0.74,0,1.12c-1.6,0.1-3.26-0.02-4.45-0.97c-1.64-1.31,0.35-0.96,0.9-1.26
	C40.31,167.2,41.5,167.57,42.68,167.94z"/>
<path class="st110" d="M197.65,174.6c1.93,1.87,1.03,4.16,1.03,6.24c0.05,66.65,0.04,133.3,0.05,199.96c0,2.46-0.77,5.16,2.34,6.8
	c-1.18,0.53-2.36,1.06-3.55,1.58c-0.01-70.44-0.02-140.88-0.02-211.33C197.51,176.77,197.6,175.68,197.65,174.6z"/>
<path class="st110" d="M199.92,8.01c-1.52,2.13-1.19,4.52-1.19,6.86c0,35.65,0.01,71.3-0.05,106.95c0,1.89,0.91,4.01-1.05,5.65
	c-0.04-38.91-0.09-77.82-0.12-116.73c0-1.41-0.35-2.95,1.27-3.97C199.16,7.18,199.54,7.59,199.92,8.01z"/>
<path class="st108" d="M214.78,148.45c1.57,2.5,1.63,4.99-0.03,7.48C214.76,153.43,214.77,150.94,214.78,148.45z"/>
<path class="st109" d="M42.67,169.22c3.18-0.01,6.35-0.01,9.52-0.01C48.99,169.88,45.77,170.9,42.67,169.22z"/>
<path class="st111" d="M373.05,104.79c0.13-0.69,0.26-1.38,0.39-2.08c2.18,6.08,0.39,12.33,1.02,18.47
	c0.01,10.5,0.01,21.01,0.02,31.51c-0.02,10.97-0.11,21.94-0.03,32.91c0.02,2.91-0.34,5.71-1.24,8.49c-2.41,1.65,0.05,5.35-3.5,6.52
	c-0.83-0.67-0.92-1.41-0.31-2.24l0.26,0.08c0.56-2.57-1.12-5.36,0.99-7.77c1.29-19.06,1.17-38.15,1.18-57.23
	c-0.57-6.02-0.93-12.04-0.01-18.07c-0.3-1.78-0.48-3.55,0.35-5.27C373.23,108.44,372.01,106.47,373.05,104.79z"/>
<path class="st112" d="M348.68,273.65c2.18-5.25,2.94-11.02,7.26-15.49C355.1,263.9,353.71,269.45,348.68,273.65z"/>
<path class="st113" d="M367.07,215.87c0.11-2.24-0.64-4.56,0.82-6.67c0.59-0.42,1.13-0.38,1.63,0.14
	C369.31,211.69,370.45,214.44,367.07,215.87z"/>
<path class="st111" d="M369.52,209.33c-0.54-0.05-1.08-0.09-1.62-0.14c0.16-1.38,0.32-2.77,0.48-4.15c0.72-0.61,0.17-1.81,1.31-2.23
	C371.28,205.02,371.41,207.2,369.52,209.33z"/>
<path class="st114" d="M364.68,226.75c-0.13-1.91-0.4-3.84,1.31-5.39C367.42,223.5,368.42,225.58,364.68,226.75z"/>
<path class="st115" d="M369.69,202.82c-0.44,0.74-0.87,1.49-1.31,2.23c-0.09-0.41-0.18-0.83-0.26-1.24
	c-0.5-1.81-0.95-3.61,0.28-5.35c0.34-0.01,0.67-0.04,1-0.08c0.1,0.75,0.21,1.49,0.31,2.24C369.7,201.34,369.69,202.08,369.69,202.82
	z"/>
<path class="st116" d="M316.87,45.03c-2,0-4.01,0-6.01,0c-0.01-0.39-0.02-0.78-0.03-1.17c4,0,8,0,12,0c0.47,0.57,0.4,1.09-0.21,1.55
	C320.62,46.24,318.69,46.26,316.87,45.03z"/>
<path class="st116" d="M322.83,44.77c0-0.3,0-0.6,0-0.9c2.44-0.96,4.87-2.04,7.35-0.06c-1.8,1.28-4.1,0.64-6.08,1.22
	C323.57,45.33,323.15,45.25,322.83,44.77z"/>
<path class="st117" d="M322.83,44.77c0.42,0.08,0.84,0.17,1.26,0.25c-0.03,0.32-0.04,0.64-0.04,0.96c-2.36,1.03-4.8,0.6-7.23,0.32
	c0,0-0.18-0.4-0.18-0.4c0.07-0.29,0.15-0.59,0.23-0.88C318.85,44.94,320.84,44.86,322.83,44.77z"/>
<path class="st118" d="M289.59,45.28c-2.01-0.15-4.02-0.31-6.02-0.46C285.72,43.53,287.78,43.08,289.59,45.28z"/>
<path class="st119" d="M389.12,58.13c-1.77-3.16-2.73-6.53-3.41-9.98c0.19-0.49,0.54-0.84,1.07-1.06c1.54,2.34,2.15,4.91,2.42,7.57
	C389.18,55.82,389.15,56.97,389.12,58.13z"/>
<path class="st120" d="M386.78,47.1c-0.36,0.35-0.71,0.7-1.07,1.06c-0.98-2.49-2.45-4.85-2.55-7.57c0.77,0.01,1.55,0.02,2.32,0.03
	C385.92,42.77,386.35,44.93,386.78,47.1z"/>
<path class="st121" d="M354.86,166.93c-1.81-4.23-4.5-8.01-7.37-11.72c-1.33-1.45-2.78-2.82-3.72-4.52
	c-0.6-0.91-1.24-1.82-1.91-3.07c-1.09,6.59,1.17,13.11-1.42,19.33c-0.46,0.41-0.99,0.7-1.61,0.89c-1.35,0.36-2.62,0.12-3.86-0.37
	c-1.9-1.07-1.58-2.79-1.58-4.39c-0.01-10.3-0.05-20.59,0.04-30.89c0.01-1.6-1.03-3.93,2-4.39c2.67-0.4,5.02-0.23,6.64,2.46
	c3.55,5.86,7.51,11.53,11.3,17.27c3.05-0.78,1.82-3.06,1.99-4.75c0.46-4.61-0.71-9.3,0.73-13.88c6.08-2.24,6.57-1.95,7.3,4.41
	c1.53,1.9,1.26,4.1,1.18,6.22c-0.34,9.08,0.89,18.18-0.71,27.24C360.9,168.86,357.9,168.75,354.86,166.93z"/>
<path class="st121" d="M262.7,134.26c-2.2-1.72-1.07-3.96-1.19-6c6.43-2.08,12.97-1.13,19.5-0.55c2.08,1.57,0.82,3.81,1.48,5.67
	c2.14,7.28,0.52,14.7,1.01,22.04c-1.3,10.1-7.91,15.31-17.69,13.94c-1.41-0.2-2.79-0.45-3.6-1.66c-3.69-0.67-4.21-3.08-3.47-5.67
	c1.04-3.61,3.63-0.91,5.31-0.57c7.32,1.45,9.98,0,10.41-6.62c0.3-4.66-0.03-9.35-0.09-14.03c-1.32-1.4-0.28-3.75-2.48-4.78
	c-1.91-0.61-3.9-0.28-5.84-0.46C264.75,135.48,263.66,135,262.7,134.26z"/>
<path class="st122" d="M262.19,167.69c13.67,1.19,15.84-0.07,20.07-11.69c3.78,1.64,1.52,4.57,1.55,6.82
	c0.02,1.58-0.7,3.43-1.54,5.04c-4.51,5.81-11.14,7.77-18.2,5.33C260.88,172.09,260.43,170.16,262.19,167.69z"/>
<path class="st123" d="M363.22,166.35c0.06-11.01,0.12-22.01,0.18-33.02c3.03,1.09,2.38,3.47,2.39,5.55
	c0.04,8.98,0.14,17.96-0.06,26.94c-0.06,2.6,1.73,6.23-2.8,7.33c-4.69,1.15-6.18-2.24-7.82-5.11
	C357.46,166.19,361.05,168.94,363.22,166.35z"/>
<path class="st124" d="M228.72,157.18c1.18-0.11,2.36-0.18,3.53-0.33c4.94-0.63,8.1,0.48,7.17,5.67c0.85,1.6,1.4,3.2-0.14,4.75
	c-2.54,1.41-5.14,1.2-7.76,0.2c-0.97-0.23-1.94-0.46-2.91-0.69C227.04,163.57,226.86,160.37,228.72,157.18z"/>
<path class="st125" d="M306.89,167.53c-4.4-2.37-2.47-6.22-1.9-9.12c0.58-2.93,4.4-1.25,6.78-1.5c5.44-0.56,2.92,3.45,3.84,5.5
	c1.1,1.57,1.33,3.15,0.07,4.75C312.82,168.81,309.88,168.62,306.89,167.53z"/>
<path class="st126" d="M282.27,167.85c-0.57-3.95,3.38-7.91-0.01-11.86c0.07-7.54,0.15-15.08,0.22-22.62
	c1.44,0.54,2.3,1.49,2.29,2.88c-0.07,9.11-0.09,18.23-0.38,27.34C284.35,165.04,283.98,166.83,282.27,167.85z"/>
<path class="st127" d="M239.18,166.61c0.08-1.36,0.16-2.72,0.25-4.09c4.01,2.37,2.53,5.91,1.84,8.85c-0.65,2.73-3.96,2.02-6.28,1.92
	c-4.28-0.19-5.18-2.17-3.17-5.39C234.04,166.5,237.07,168.59,239.18,166.61z"/>
<path class="st128" d="M345.13,150.52c1.33,1.35,2.74,2.66,2.37,4.69c-2.02-0.63-3.99-1.46-3.83,1.81
	c0.18,3.42-0.08,6.86,0.07,10.29c0.15,3.33-0.22,6.69-4.85,6.7c-4.96,0.02-3.66-3.83-3.92-6.54c1.16-0.05,2.31-0.1,3.47-0.15
	c0.38,0.84-0.25,1.6-0.22,2.4c0.57,1.14,1.27,0.66,1.97,0.09c0.29-0.45,0.5-0.9,0.61-1.41c0.98-4.78,0.16-9.58,0.5-14.35
	C341.45,152,341.17,149.41,345.13,150.52z"/>
<path class="st129" d="M315.37,166.56c0.08-1.38,0.15-2.76,0.23-4.14c4.57,2.31,2.4,6.03,1.88,9c-0.47,2.68-3.8,1.99-6.12,1.99
	c-4.15,0-5.23-1.99-4.11-5.28C309.82,167.02,313.73,171.37,315.37,166.56z"/>
<ellipse class="st130" cx="331.98" cy="147.39" rx="0.33" ry="25.9"/>
<path class="st131" d="M273.82,134.52c1.73,1.99,0.76,4.16,0.54,6.28c-1.61,0-3.23-0.16-4.82,0.01c-5.77,0.62-7.74-1.77-6.85-6.55
	c1.17,0.02,2.35,0.05,3.52,0.07C269.07,139.39,269.73,139.41,273.82,134.52z"/>
<path class="st132" d="M356.09,128.93c0,7.25,0,14.51,0,23.47c-1.43-2.56-2.07-3.7-2.71-4.84c2.82-5.94,0.74-12.18,1.42-18.25
	c0.02-0.15,0.15-0.41,0.25-0.42C355.39,128.85,355.74,128.91,356.09,128.93z"/>
<path class="st133" d="M315.37,166.56c-0.18,1.66,0.9,3.63-1.85,4.58c-3.54,1.22-3.78-2.67-6.26-3.01c-0.16-0.18-0.28-0.39-0.37-0.6
	C309.71,167.2,312.54,166.88,315.37,166.56z"/>
<path class="st134" d="M281,127.71c-6.5,0.18-13,0.37-19.5,0.55c2.97-3.26,7.02-1.24,10.55-1.59c2.92-0.29,5.93,0.06,8.89,0.15
	c0.09,0,0.25,0.25,0.25,0.39C281.2,127.37,281.08,127.54,281,127.71z"/>
<path class="st135" d="M371.82,115.39c0,6.02,0.01,12.04,0.01,18.06c-1.99-4.73-0.6-9.66-1.08-14.48c-0.76-1.02-1-2.03,0.18-2.96
	C371.25,115.83,371.54,115.62,371.82,115.39z"/>
<path class="st136" d="M369.33,197.35c-2.08-4.29-0.71-8.67-0.06-13.05c0.14,2.27,0.28,4.54,0.41,6.81
	C370.22,193.22,370.72,195.33,369.33,197.35z"/>
<path class="st137" d="M228.72,157.18c-0.03,3.2-0.06,6.4-0.09,9.6C226.04,163.56,225.88,160.36,228.72,157.18z"/>
<path class="st138" d="M370.93,116.02c-0.06,0.99-0.12,1.97-0.18,2.96c-2.19-2.41-0.99-5.05-0.33-7.67
	C370.58,112.88,370.75,114.45,370.93,116.02z"/>
<path class="st134" d="M237.81,155.58c-2.57,0.27-4.9,0.82-7.54-0.23C233.15,154.73,235.6,154.6,237.81,155.58z"/>
<path class="st134" d="M315.48,155.34c-3.72,0.86-6.12,0.72-9.85,0.19C309.34,154.66,311.74,154.8,315.48,155.34z"/>
<path class="st139" d="M363.22,166.35c-2.03,3.12-5.44,1.02-8.12,1.69c-0.08-0.37-0.16-0.74-0.24-1.11
	C357.69,167.19,360.53,167.68,363.22,166.35z"/>
<path class="st140" d="M369.33,197.35c0.12-2.08,0.23-4.16,0.35-6.25c0.33-0.14,0.65-0.28,0.98-0.42c-0.22,2.6,1.1,5.36-0.99,7.77
	C369.55,198.09,369.44,197.72,369.33,197.35z"/>
<path class="st141" d="M316.82,46.31c2.41-0.11,4.82-0.21,7.23-0.32C321.74,47.83,319.31,47.5,316.82,46.31z"/>
<path class="st142" d="M256.45,165.39c0.09-1.35,0.18-2.69,0.31-4.65C258.14,162.89,257.55,164.36,256.45,165.39z"/>
<path class="st143" d="M239.18,166.61c-1.98,2.57-4.88,1.03-7.37,1.3c0,0-0.27-0.44-0.28-0.43
	C234.08,167.19,236.63,166.9,239.18,166.61z"/>
<path class="st27" d="M373.05,104.79c-0.08,1.81,0.85,3.74-0.88,5.33C372.24,108.31,371.45,106.4,373.05,104.79z"/>
<path class="st144" d="M368.39,198.45c-0.09,1.78-0.18,3.57-0.28,5.35C366.57,201.95,366.39,200.16,368.39,198.45z"/>
<path class="st145" d="M196.07,143c0,3.22,0.01,6.44,0.01,9.66C194.45,149.44,194.46,146.22,196.07,143z"/>
<path class="st146" d="M345.13,150.52c-3.77,0.41-2.5,3.03-2.74,4.95c-0.64,5.21,1.26,10.56-1.14,15.66
	c-1.66-1.16-1.35-2.83-1.48-4.39c0-7.58,0-15.17,0-23.56C342.95,145.45,343.91,148.07,345.13,150.52z"/>
<path class="st147" d="M339.78,166.74c2,1.07,1.28,2.85,1.48,4.39c0,0-0.09,0.09-0.09,0.09c-2.81,1.49-3.91-0.04-4.71-2.1
	c0.67-0.6,1.33-1.2,1.99-1.8C338.89,167.13,339.33,166.94,339.78,166.74z"/>
<path class="st148" d="M273.82,134.52c-0.43,1.71,1.15,4.23-2.08,4.83c-1.91,0.36-4.09,0.59-5.74-0.72
	c-1.77-1.41-0.69-2.89,0.21-4.3C268.76,134.13,271.31,133.83,273.82,134.52z"/>
<path class="st146" d="M336.45,169.12c1.3,1.18,2.49,2.55,4.71,2.1C337.93,173.46,336.45,172.59,336.45,169.12z"/>
</svg>
