<?xml version="1.0" encoding="utf-8"?>
<!-- Generator: Adobe Illustrator 23.1.0, SVG Export Plug-In . SVG Version: 6.00 Build 0)  -->
<svg version="1.1" id="Capa_1" xmlns="http://www.w3.org/2000/svg" xmlns:xlink="http://www.w3.org/1999/xlink" x="0px" y="0px"
	 viewBox="0 0 400 400" style="enable-background:new 0 0 400 400;" xml:space="preserve">
<style type="text/css">
	.st0{fill:#040404;}
	.st1{fill:#040304;}
	.st2{fill:#745212;}
	.st3{fill:#21130D;}
	.st4{fill:#2F170E;}
	.st5{fill:#866A1B;}
	.st6{fill:#886A22;}
	.st7{fill:#8C6E27;}
	.st8{fill:#8B6920;}
	.st9{fill:#86682C;}
	.st10{fill:#846C1B;}
	.st11{fill:#6A5C28;}
	.st12{fill:#8B6325;}
	.st13{fill:#886826;}
	.st14{fill:#8F7226;}
	.st15{fill:#8A6822;}
	.st16{fill:#402713;}
	.st17{fill:#633900;}
	.st18{fill:#9D7625;}
	.st19{fill:#846D1B;}
	.st20{fill:#9E8A31;}
	.st21{fill:#D2D2D2;}
	.st22{fill:#906922;}
	.st23{fill:#906900;}
	.st24{fill:#514D4A;}
	.st25{fill:#211B09;}
	.st26{fill:#7F662F;}
	.st27{fill:#725216;}
	.st28{fill:#F5F1D6;}
	.st29{fill:#774E00;}
	.st30{fill:#916814;}
	.st31{fill:#734B01;}
	.st32{fill:#F1B311;}
	.st33{fill:#D6A42C;}
	.st34{fill:#FBFBFB;}
	.st35{fill:#F1F1F1;}
	.st36{fill:#DBDBDB;}
	.st37{fill:#B7B7B7;}
	.st38{fill:#585858;}
	.st39{fill:#CDCAC7;}
	.st40{fill:#2A2A2A;}
	.st41{fill:#7D7D7D;}
	.st42{fill:#2D2D2D;}
	.st43{fill:#353535;}
	.st44{fill:#BABABA;}
	.st45{fill:#130B0A;}
	.st46{fill:#4A4A4A;}
	.st47{fill:#484A49;}
	.st48{fill:#B58143;}
	.st49{fill:#4B2415;}
	.st50{fill:#A3834F;}
	.st51{fill:#AA8C66;}
	.st52{fill:#564831;}
	.st53{fill:#898989;}
	.st54{fill:#AAA996;}
	.st55{fill:#030303;}
	.st56{fill:#DAB153;}
	.st57{fill:#4A4845;}
	.st58{fill:#EEB210;}
	.st59{fill:#EEB11C;}
	.st60{fill:#D4B743;}
	.st61{fill:#F1B114;}
	.st62{fill:#BC9733;}
	.st63{fill:#CEAD43;}
	.st64{fill:#5D300F;}
	.st65{fill:#E3B429;}
	.st66{fill:#C3A75B;}
	.st67{fill:#E8B516;}
	.st68{fill:#E3B12E;}
	.st69{fill:#EBB21D;}
	.st70{fill:#85631E;}
	.st71{fill:#E2E2E2;}
	.st72{fill:#696969;}
	.st73{fill:#BBBBBB;}
	.st74{fill:#707072;}
	.st75{fill:#333333;}
	.st76{fill:#3D3D3D;}
	.st77{fill:#CDCDCD;}
	.st78{fill:#3F3F3F;}
	.st79{fill:#5D5D5E;}
	.st80{fill:#D3D3D3;}
	.st81{fill:#5E5E5E;}
	.st82{fill:#C3C3C4;}
	.st83{fill:#A5A5A5;}
	.st84{fill:#474747;}
	.st85{fill:#515151;}
	.st86{fill:#1F1F1F;}
	.st87{fill:#6B696A;}
	.st88{fill:#706F79;}
	.st89{fill:#9CA79D;}
	.st90{fill:#CEAC48;}
	.st91{fill:#B39D75;}
	.st92{fill:#A2772C;}
	.st93{fill:#967733;}
	.st94{fill:#BFBBB5;}
	.st95{fill:#2D0E05;}
	.st96{fill:#653703;}
	.st97{fill:#EEEEEE;}
	.st98{fill:#484848;}
	.st99{fill:#919191;}
	.st100{fill:#858585;}
	.st101{fill:#454545;}
	.st102{fill:#5A5A5A;}
	.st103{fill:#9C9C9C;}
	.st104{fill:#4D4D4D;}
	.st105{fill:#666666;}
	.st106{fill:#ACACAC;}
	.st107{fill:#555555;}
	.st108{fill:#595959;}
	.st109{fill:#828282;}
	.st110{fill:#818181;}
	.st111{fill:#F4B21A;}
	.st112{fill:#7F5006;}
	.st113{fill:#603009;}
	.st114{fill:#703F0D;}
	.st115{fill:#AE750B;}
	.st116{fill:#2D510B;}
	.st117{fill:#4C5609;}
	.st118{fill:#1D2412;}
	.st119{fill:#425909;}
	.st120{fill:#39500D;}
	.st121{fill:#365706;}
	.st122{fill:#478C5A;}
	.st123{fill:#346007;}
	.st124{fill:#405806;}
	.st125{fill:#315909;}
	.st126{fill:#3C4A02;}
	.st127{fill:#31580E;}
	.st128{fill:#6A4400;}
	.st129{fill:#BAB132;}
	.st130{fill:#28340C;}
	.st131{fill:#7F7F7F;}
	.st132{fill:#E8B61E;}
	.st133{fill:#EBB218;}
	.st134{fill:#DBB035;}
	.st135{fill:#A0721A;}
	.st136{fill:#E9B116;}
	.st137{fill:#ECAC1B;}
	.st138{fill:#C99922;}
	.st139{fill:#EFB039;}
	.st140{fill:#048D37;}
	.st141{fill:#04463A;}
	.st142{fill:#207B39;}
	.st143{fill:#38560D;}
	.st144{fill:#BDAD53;}
	.st145{fill:#B6EDC3;}
	.st146{fill:#2A8047;}
	.st147{fill:#023F34;}
	.st148{fill:#32814D;}
	.st149{fill:#1995C5;}
	.st150{fill:#07473F;}
	.st151{fill:#038C36;}
	.st152{fill:#CAEAC5;}
	.st153{fill:#237F3D;}
	.st154{fill:#078C36;}
	.st155{fill:#098A37;}
	.st156{fill:#15823A;}
	.st157{fill:#D5B12F;}
	.st158{fill:#B89A49;}
	.st159{fill:#B8903B;}
	.st160{fill:#217851;}
	.st161{fill:#1497CD;}
	.st162{fill:#044E43;}
	.st163{fill:#231207;}
	.st164{fill:#211005;}
	.st165{fill:#260F09;}
	.st166{fill:#CBB037;}
	.st167{fill:#D5A838;}
	.st168{fill:#A28564;}
	.st169{fill:#B39B4B;}
	.st170{fill:#150B07;}
	.st171{fill:#220F05;}
	.st172{fill:#D6B03E;}
	.st173{fill:#EEBC01;}
	.st174{fill:#C1963B;}
	.st175{fill:#4D250C;}
	.st176{fill:#DCAC31;}
	.st177{fill:#AA9162;}
	.st178{fill:#109AD4;}
	.st179{fill:#278CB3;}
	.st180{fill:#238EA2;}
	.st181{fill:#2381B2;}
	.st182{fill:#C2AE5B;}
	.st183{fill:#B3B268;}
	.st184{fill:#4C2713;}
	.st185{fill:#1E8C3E;}
	.st186{fill:#0A883A;}
	.st187{fill:#6DA980;}
	.st188{fill:#3E975F;}
	.st189{fill:#2F884C;}
	.st190{fill:#94D8AE;}
	.st191{fill:#3F8B55;}
	.st192{fill:#228046;}
	.st193{fill:#4D713E;}
	.st194{fill:#1E8047;}
	.st195{fill:#27804E;}
	.st196{fill:#2D8550;}
	.st197{fill:#6D9878;}
	.st198{fill:#6EAC80;}
	.st199{fill:#8AC098;}
	.st200{fill:#247B50;}
	.st201{fill:#964140;}
	.st202{fill:#9D483B;}
	.st203{fill:#A0DCB1;}
	.st204{fill:#FCBFB2;}
	.st205{fill:#ECF5E0;}
	.st206{fill:#EE969C;}
	.st207{fill:#48774B;}
	.st208{fill:#417A53;}
	.st209{fill:#129BD5;}
	.st210{fill:#044756;}
	.st211{fill:#D5FBE0;}
	.st212{fill:#04493B;}
	.st213{fill:#178143;}
	.st214{fill:#044736;}
	.st215{fill:#03A0F0;}
	.st216{fill:#16788B;}
	.st217{fill:#ECAE14;}
	.st218{fill:#D9A737;}
	.st219{fill:#4E2400;}
	.st220{fill:#7C6941;}
	.st221{fill:#CEB883;}
	.st222{fill:#1A0F04;}
	.st223{fill:#371F04;}
	.st224{fill:#F3B009;}
	.st225{fill:#048D38;}
	.st226{fill:#21774A;}
	.st227{fill:#A9DBB4;}
	.st228{fill:#198049;}
	.st229{fill:#160904;}
	.st230{fill:#C7A550;}
</style>
<path class="st0" d="M25.98,161.4c-8.63-13.66-6.97-28.17-6.53-42.83c-6.74,1.1-3.12,6.66-7.63,8.44
	C-2.54,88.47,47.27,35.4,118.3,13.53c6.87-1.53,13.68-3.23,18.29-3.37c-1.56,0.09-5.83,1.25-9.81-0.85
	c-6.64-2.77-0.6-3.17,1.57-3.67c29.57-6.76,59.25-7.86,89.17-0.98c13.75,3.16,28.43,8.75,40.96,8.98
	c17.96,0.33,24.74,8.16,36.22,13.75c3.78,1.84,13.17,1.49,18.82,5.11c5.26,3.37,9.98,6.85,12.62,11.8c2.2,4.13,10.99,0.31,14.1,5.8
	c1.69,2.99,6.46,5.33,6.33,9.33c-1.93,3.48,4.88,10.18-7.1,9.95c-3.93-0.48-3.11-4.29-6.76-5c-2.72-1.39-5.35-2.87-8.54-3.72
	c-1.58-0.79-2.62-1.88-3.39-3.12c-1.53-2.8-2.22-5.8-3.9-8.55c-1-1.63-1.49-4.4-5.55-2.29c-6.94,3.61-12.35,0.44-15.07-3.18
	c-11.73-15.58-30.52-21.28-53.86-21.61c-4.65-0.06-9.09-1.24-13.21-2.87c-2.89-1.43-6.42-1.48-9.59-2.26
	c-0.65-0.26-1.39-0.04-1.93-0.13c-1.83-0.28-0.29,1.56-0.37,0.21c0-0.01,0.34-0.08,1.03-0.22c2.54,0.72,5.34,0.77,7.82,1.69
	c2.76,1.22,3.67,2.86,2.31,5.04c-4.95,3.93-11.74,2.54-17.81,3.23c-15.43-1.07-30.54,2.62-45.98,1.63c-3.24-0.5-6.29-1.22-7.67-3.7
	c0.67-3.29,3.84-4.5,7.93-4.9c5.74,0.41,11.35-1.61,15.25-1.19c-7.02,1.1-16.15,0.15-24.73,2.79c-15.26,2.49-29.71,6.48-43.39,11.94
	c-23.54,9.55-43.98,21.23-53.63,40.33c-17.46,5.64-21.87,16.96-23.34,29.03c-2.46,20.12,8.12,37.43,24.11,53.37
	c2.48,2.72,5.58,5.31,3.44,8.95c-10.07,5.3-21.1,2.91-31.95,2.08C27.06,166,27.19,163.41,25.98,161.4z"/>
<path class="st1" d="M303.17,118.86c-18.03,4.88-40.17,4.2-50.63,19.33c-13.62-6.55-10.38,6.74-18.58,8.65
	c-8.25,1.92,2.36,10.45,0.02,16.14c0.45,3.58-3.17,1.91-5.32,2.17c-1.63,0.2-3.11,0.67-4.61,1.18c-3.64,1.01-7.18,1.02-10.63-0.42
	c-4.48-4.93-14.75-7.71-10.72-15.83c1.29-2.6-3.08-2.81-5.34-3.53c-7.64-2.45-13.81-5.9-16.44-10.03
	c3.03,6.58,11.67,12.25,19.07,18.58c3.64,3.12,9.27,6.07,4.37,11.05c-6.76,1.78-11.08-1.31-15.62-3.99
	c-17.74-11.12-24.39-25.81-26.17-42.07c-0.18-1.68-0.3-3.37,0.11-5.03c0.9-3.65,1.58-8.07,7.84-8.42c5.71-0.32,6.53,3.81,7.3,5.74
	c-2.11-11.34,3.42-22.61,12.41-32.99c5.12-5.92,21.1-7.97,29.22-4.73c3.93,1.57,3.71,3.5,1.33,5.74c-3.11,2.15-7.45,2.33-10.97,3.52
	c4.92-0.91,9.81-2.31,14.73-3.71c7.16-1.01,13.96-0.42,20.3,2.28c5.56,3.3,10.74,6.67,3.64,11.94c-1.23,1.01-3.03,1.9-1.48,3.55
	c0.72,0.47,1.42,0.94,2.19,1.36c0.88,0.36,1.73,0.74,2.6,1.1c0.95,0.32,1.85,0.67,2.77,1.02c1.47,0.49,2.93,0.98,4.42,1.45
	c1.07,0.28,2.1,0.61,3.13,0.95c2.57,1.33,7.4,1.56,5.04,5.29c-2.46,1.39-5.29,1.48-8.17,1.26c-0.86-0.06-1.77-0.15-2.54-0.21
	c0.14,0.04-0.34,0.75-0.19,0.76c1,0.14,1.83,0.29,2.76,0.46c1.2,0.13,2.3,0.23,3.47,0.28c16.93-0.51,33.72,1.6,50.62,0.6
	c4.07,0.67,7.59,1.81,8.32,5.22C315.84,121.47,309.39,119.35,303.17,118.86z"/>
<path class="st2" d="M191.91,161.23c4.2,2.18,8.05,5.04,14.04,3.71c2.55-1.68,5.17-1.41,7.83-0.15c3.94,0.03,8.25,1.49,11.41-1.52
	c0.87-0.78,1.91-1.43,2.95-2.09c2.62-0.52,2.49,3.55,5.84,1.81c21.96,0.31,43.98,1.41,65.86,0.64c15.43-0.54,25.2,2.41,28.53,13.67
	c-0.93,0.67-2.05,1.03-3.38,1.04c-0.63-0.12-1.25-0.24-1.88-0.35c-0.54-0.26-1.08-0.52-1.63-0.78c-2.88-1.93-4.72-4.6-8.45-5.93
	c-1.45-0.37-2.83-0.74-4.3-1.04c-86.25-0.48-172.43-0.03-258.62-0.23c-6.93-0.02-14.11,0.89-20.67-1.72c-1.74-0.91-2-2.01-0.77-3.28
	c11.23-0.49,22.71,1.92,33.68-1.53c1.33-1.8,3.22-3.02,6.18-3.17c2.23-0.57,6.98,3.09,6.58-1.85c-0.69-8.44,4.77-6.17,10.26-3.03
	c5.35,3.05,9.55,7.46,17.67,6.7c8.94-0.06,17.86,0.22,26.79,0.1c14.58-0.36,29.15-0.06,43.71-0.2
	C179.62,161.24,185.85,162.3,191.91,161.23z"/>
<path class="st3" d="M336.92,67.63c11.18,2.1,5.24-6.19,9.64-8.21c1.25,2.5,2.5,5,3.75,7.5l0.21,0.09
	c22.82,14.75,50.71,27.05,49.43,53.36c-0.36,7.36-3.27,13.81-11.72,18.48c-3.15,1.69-5.21,0.73-6.8-1.43
	c-0.62-2.12,0.49-3.96,1.76-5.78c5.87-6.34,7.29-14.45,3.14-20.14c-11.44-15.71-24.41-31.13-48.24-39.28
	c-1.28-0.41-2.41-0.96-3.41-1.66c-0.22-0.47-0.44-0.95-0.66-1.42c0.27-0.46,0.54-0.92,0.81-1.38
	C335.53,67.72,336.22,67.68,336.92,67.63z"/>
<path class="st4" d="M303.17,118.86c5.67-1.44,12.35,1.28,17.54-2.17c5.8-3.14,9.87,0.43,14.59,1.84c3.28,0.98,5.48,4.97,10.31,2.07
	c1.55-1.01,3.35-1.46,5.4-1.49c11.95,5,12.65,8.78,3.73,19.78c-2.03,1.66-4.47,2.87-7.4,3.56c-2.18,0.43-4.38,0.47-6.58,0.09
	c-1.44-0.33-2.6-0.94-3.48-1.83c9.34-4.3,7.46-7.93-0.07-12.77C327.27,121.55,314.95,121.01,303.17,118.86z"/>
<path class="st5" d="M211.15,385.57c-3.71,2.16-7.42,4.32-11.13,6.48c-4.36,4.24-11.25,5.45-17.41,7.53
	c-21.52,2.63-36.28-7.72-53.02-14.28c-0.91-0.89-0.74-1.7,0.37-2.44c15.06-0.78,25.23,7.55,38.23,10.6
	c3.93,1.5,7.85,1.86,11.74-0.11c9.48-2.83,16.56-9.39,27.91-9.3C209.16,384.32,210.26,384.83,211.15,385.57z"/>
<path class="st6" d="M328.64,274.25c-8.61,19.36-21.01,37.31-38.21,53.49c-1.18-0.56-1.95-1.32-2.32-2.3
	c2.92-12.19,15.65-21.05,21.28-32.31c1.78-2.34,3.67-4.64,4.81-7.2c0.52-1.24,1.14-2.45,1.84-3.64c1.82-2.66,3.47-5.38,5.12-8.1
	c0.91-1.18,2.14-2.09,4.01-2.47C327.33,271.84,328.24,272.86,328.64,274.25z"/>
<path class="st7" d="M86.74,361.49c-11.94-6.21-20.14-15.03-30.36-22.44c-7.93-5-17.25-9.32-17.53-18.14
	c0.98-0.69,2.15-1.1,3.52-1.22c10.48,2.63,14.37,10,21.14,15.29c5.98,4.67,10.81,10.04,16.9,14.65c3.68,3.32,9.25,5.63,10.59,10.2
	C90.25,361.27,89.34,362.5,86.74,361.49z"/>
<path class="st8" d="M289.6,324.4c0.27,1.11,0.55,2.23,0.82,3.34c-5.9,6.35-11.8,12.7-17.7,19.05c-2.55,6.09-10.04,8.89-16.2,12.58
	c-3.86,1.98-7.73,3.97-11.59,5.95c-0.93-0.69-1.43-1.52-1.57-2.47c7.49-11.41,22.04-18.81,31.81-28.93c0.66-0.77,1.4-1.49,2.15-2.21
	c1.92-1.77,3.57-3.67,5.56-5.41C284.74,324.98,286.78,323.96,289.6,324.4z"/>
<path class="st9" d="M28.68,165c0.02,1.01,0.04,2.01,0.06,3.02c1.98,2.56-0.01,4.64-1.52,6.8c-8.15,8.65-11.08,19.28-20.16,27.58
	c-1.4,0.2-2.75,0.09-4.07-0.28c-0.77-0.53-1.09-1.09-0.95-1.69c0.14-0.62,0.32-0.93,0.54-0.93c4.06-10.39,10.3-20.04,18.83-28.92
	c2.66-2.77,5.19-5.57,4.56-9.18C28.52,161.97,28.45,163.54,28.68,165z"/>
<path class="st10" d="M0,250c1.1-2.71-0.44-5.89,2.88-8.2c9.45,7.32,8.87,16.64,9.91,25.64c-0.72,1.69-2.25,2.8-4.65,3.26
	c-1.93-4.19-3.85-8.39-5.78-12.58c-1.4-2.02-0.11-4.43-1.82-6.4C0.8,251.08,0.62,250.51,0,250z"/>
<path class="st11" d="M338.3,140.82c2.56-0.01,5.13-0.03,7.69-0.04c4.72,1.52,9.68-1.26,14.41,0.4c3.38,0.86,6.97,1.51,8.81,4.09
	c-11.5,2.86-23,2.77-34.48-0.07C335.07,143.38,337.58,142.47,338.3,140.82z"/>
<path class="st12" d="M39.9,320.82c-1.04-0.67-2.08-1.35-3.12-2.02c0,0-0.03-0.03-0.03-0.03c-5.98-3.18-7.44-8.37-10.94-12.65
	c-1.18-2.95-2.35-5.91-3.53-8.86c-0.65-0.94-0.7-1.9-0.13-2.87c7.48-0.28,8.04,4.64,11.19,7.63c2.54,6.42,12.59,10.76,10,18.6
	C42.18,320.68,41.04,320.75,39.9,320.82z"/>
<path class="st13" d="M23,294.08c-0.24,1.06-0.48,2.11-0.73,3.17c-6.15-5.89-8.91-12.8-11.5-19.77l-0.38-0.6
	c-0.47-0.89-0.94-1.78-1.41-2.67c0.93-1.44,1.96-2.75,4.7-2.24C20.44,278.55,27.12,285.14,23,294.08z"/>
<path class="st14" d="M242.11,367.38c-6.91,6.59-15.86,11.46-25.59,15.68c-2.17-0.32-3.49-1.16-3.46-2.86
	c6.43-6.66,14.2-12.08,25.62-14.06C240.01,366.28,241.15,366.69,242.11,367.38z"/>
<path class="st15" d="M336.85,251.95c-0.49,2.77-0.98,5.54-1.47,8.32c-2.25,4.66-4.5,9.32-6.74,13.98c-0.85-0.82-1.7-1.64-2.55-2.46
	c-4.07-8.16,0.42-15.08,6.11-21.83C334.9,249.22,336.2,250.19,336.85,251.95z"/>
<path class="st16" d="M369.21,145.26c-2.95-0.64-5.9-1.29-8.85-1.93c4.48-4.68,12.57-4.57,18.56-7.24c1.36-0.2,2.59,0.02,3.71,0.6
	c1.87,0.72,3.73,1.44,5.6,2.17C383.08,142.82,376.71,144.91,369.21,145.26z"/>
<path class="st17" d="M342.92,227.61c-0.88,1.39-1.77,2.77-2.65,4.16c-1.67,0.64-3.04,0.4-4.12-0.72
	c-3.38-5.67-3.54-11.31,0.26-16.93c1.22-1.01,2.65-1.19,4.27-0.53C344.52,218.02,341.09,223.03,342.92,227.61z"/>
<path class="st18" d="M129.67,382.85c-0.03,0.82-0.05,1.63-0.08,2.45c-7.41-2.45-14.12-5.64-19.93-9.78
	c0.48-1.52,1.78-2.46,3.85-2.89C121.86,373.62,128.5,376.01,129.67,382.85z"/>
<path class="st19" d="M340.67,213.6c-0.95,0.08-1.91,0.17-2.86,0.25c-5.69-3.77-6.38-8.6-5.7-13.74c0.38-0.97,0.99-1.86,1.86-2.66
	c1.23-0.61,2.47-0.65,3.72-0.03C341.69,202.53,341.04,208.08,340.67,213.6z"/>
<path class="st20" d="M86.74,361.49c1.11-0.65,2.21-1.3,3.32-1.95c7.77-1.18,9.55,3.21,12.21,6.78c-0.15,1.62-1.46,2.49-3.58,2.82
	C94.71,366.59,90.72,364.04,86.74,361.49z"/>
<path class="st21" d="M126.78,9.3c4.06-1.14,7.93-0.6,16.2,1.06c-11.02,1.41-17.85,2.29-24.69,3.17
	C121.13,12.12,123.96,10.71,126.78,9.3z"/>
<path class="st22" d="M98.69,369.14c0.9-0.6,1.8-1.2,2.7-1.8c6.81-0.79,9.59,2.18,11.23,6.22c-0.98,0.66-1.97,1.31-2.95,1.97
	C105.36,373.97,101.35,372.15,98.69,369.14z"/>
<path class="st23" d="M3.29,201.67c1.01,0.12,2.02,0.25,3.03,0.37c4.11,4.78,3.54,8.9-3.26,12.17c-3.19-1.66-1.92-4.38-2.98-6.54
	c0.66-0.47,0.84-1.03,0.56-1.66C1.79,204.64,0.81,202.6,3.29,201.67z"/>
<path class="st19" d="M333.72,185.35c0.51,1.79,1.02,3.58,1.52,5.36c1.14,2.24,1.62,4.46-0.2,6.66l-0.62,0.34
	c-5.48-0.3-4.77-3.62-5.81-6.1c-0.33-1.33-0.66-2.66-0.79-4.02c0.01-0.91,0.33-1.77,0.98-2.56
	C330.55,184.18,332.2,184.23,333.72,185.35z"/>
<path class="st24" d="M332.13,144.83c-3.18-0.01-8.16,0.12-7.05-2.77c1.04-2.69,6.34-1.07,9.81-1.11
	C336.47,143.17,333.65,143.76,332.13,144.83z"/>
<path class="st25" d="M332.13,144.83c0.92-1.29,1.84-2.58,2.76-3.87c0.72-0.48,1.52-0.56,2.4-0.24c0,0,1.07,0.11,1.04,0.1
	c4.22,3.76-1.58,3.27-3.6,4.38c0,0-1.35,0.02-1.35,0.02L332.13,144.83z"/>
<path class="st26" d="M333.72,185.35c-1.53,0-3.06,0.01-4.59,0.01c-2.59-0.66-3.83-1.96-3.6-3.95c0.74-1.28,2.03-2.09,3.94-2.38
	C330.88,181.13,332.3,183.24,333.72,185.35z"/>
<path class="st27" d="M213.85,381.47c0.89,0.53,1.78,1.06,2.67,1.58c-1.79,0.84-3.58,1.68-5.37,2.52c-1.26-0.09-2.51-0.18-3.77-0.26
	C207.76,382.48,209.36,380.72,213.85,381.47z"/>
<path class="st28" d="M0.53,251.73c2.5,1.86,1.97,4.16,1.82,6.4C-0.51,256.33-0.18,254.06,0.53,251.73z"/>
<path class="st29" d="M11.72,271.78c-0.92,0.82-1.83,1.63-2.75,2.45c-0.28-1.17-0.56-2.34-0.84-3.51c0.81-0.77,1.62-1.54,2.44-2.32
	C12.84,269.19,12.79,270.39,11.72,271.78z"/>
<path class="st30" d="M242.11,367.38c-1-0.05-2-0.09-3-0.14c-0.4-3.06,1.14-4.62,5.73-3.85c-0.01,0.65,0.02,1.3,0.1,1.94
	C243.99,366.01,243.05,366.69,242.11,367.38z"/>
<path class="st26" d="M335.04,197.37c0.07-2.22,0.13-4.44,0.2-6.65c0.81,2.24,1.62,4.48,2.44,6.72c0,0-1.32,0.02-1.32,0.02
	L335.04,197.37z"/>
<path class="st28" d="M3.29,201.67c-0.89,1.45-1.78,2.89-2.66,4.34c-0.84-2.4-0.96-4.69,1.96-6.5
	C2.83,200.22,3.06,200.94,3.29,201.67z"/>
<path class="st31" d="M329.46,179.03c-0.82,0.71-1.65,1.43-2.47,2.14c-1.91-1.12-2.26-2.32-0.41-3.66c0.61-0.02,1.21-0.09,1.8-0.21
	C329.3,177.69,329.66,178.27,329.46,179.03z"/>
<path class="st32" d="M10.39,276.89c0,0,0.39,0.61,0.39,0.6c0-0.01-0.69-0.15-0.69-0.15L10.39,276.89z"/>
<polygon class="st33" points="350.53,67.02 350.14,67.28 350.31,66.93 350.79,66.63 "/>
<path class="st34" d="M228.13,17.35c13.77,1.35,27.12,4.28,41.37,3.95c10.68-0.25,14.43,7.52,20.56,12.21
	c5.86,4.48,8.83,10.96,17.46,13.63c4.06-2.78,1.78-6.35,3.25-9.91c9.6,5.66,11.13,12.86,12.32,20.18c-0.67,2.27-0.35,3.84,3.75,2.73
	c8.28-6.02,3.34,6.23,9.26,3.46c0.13,1.1,0.2,2.19-0.35,3.25c-0.6,0.75-1.2,1.5-1.81,2.25c-0.52,1.34-0.9,2.73-2.34,3.78
	c-15.3,5.59-26.61-0.49-37.89-6.7c-1.29-1.32-2.35-2.73-3.1-4.26c-0.6-1.22-0.78-2.51-1.17-3.77c0.05,1.49,0.34,2.99-0.51,4.43
	c-0.97,1.37-2.47,2.22-4.6,2.47c-7.86-0.78-10.08-5.74-13.78-9.6c-0.77-1.44-1.88-2.68-3.61-3.57c1.74,1.67,2.29,3.42,1.32,5.42
	c-9.82,6.02-16.64,0.45-23.98-3.16c-2.89-2-5.98-3.8-9.93-4.65c-6.24-1.95-13.46-0.03-19.54-2.55c-1.1-0.59-1.71-1.39-1.85-2.37
	c0.2-2.19,4.35-3.79,2.28-6.11c-0.64-0.72-3.17,0.71-4.9,1.03c-26.78,4.15-49.45,14.31-71.59,25.22c-3.27,1.08-6.89,0.26-10.22,0.98
	c-1.47,0.45-2.89,0.96-4.27,1.53c-1.34,0.59-2.71,1.15-4.03,1.76c-1.26,0.7-2.49,1.42-3.72,2.15c-1.29,0.78-2.68,1.39-4.36,1.62
	c-2.74-0.24-3.78-1.54-4.02-3.35c0.06-0.85,0.34-1.66,0.76-2.45c0.7-1.21,1.56-2.36,2.52-3.48c1.96-2.06,4.52-3.74,6.81-5.41
	c-0.13,0.08,0.25-0.28,0.25-0.28s-0.53,0.29-0.63,0.36c-3.53,2.54-6.99,4.99-9.87,7.82c-6.69,5.9-9.34,13.11-12.74,20.08
	c-3.23,5.87,1.52,12.79-4.64,18.26c-9.93,1.1-6.31-7.17-12.03-8.97c-2.21-0.26-4.64,0.04-6.37-1.36c-0.88-1.24-1.03-2.54-0.82-3.89
	c0.44-1.84,0.84-3.68,1.04-5.55C77.32,61.46,94.66,45.26,124.49,36c2.23-0.12,4.37-1.08,5.62-0.75c-3.79-0.21-8.52,1.43-13.41,0.8
	c-3.2-0.72-7.46-0.6-6.84-4.39c13.54-6.49,28.37-10.61,44.42-12.48c4.18-0.14,9.31-3.01,11.64,2.11c-2.72,0.83-5.43,1.66-8.15,2.49
	c-1.24,5.91,4.42,1.25,6.43,2.17c15.54-0.73,31.07-1.46,46.61-2.19c5.41,1.58,10.98,0.72,16.51,0.58c6.2-0.16,1.83-1.74,0.75-2.88
	c-1.73-0.77-3.45-1.53-5.18-2.3C222.69,15.67,225.28,16.33,228.13,17.35z"/>
<path class="st35" d="M56.24,157.1c-19.92-19.49-31.07-40.66-22.61-65.12c3.11-8.99,8.15-17.54,23.01-19.82
	c4.29-0.15,4.82,2.21,5.65,4.37c-0.12,7.37-2.26,14.64-2.19,22.06c0.03,2.85,0.11,7.04-4.85,7.41c-5.06,0.38-5.49-3.81-6.83-6.56
	c-0.33-0.67-0.59-1.27,0.13-0.9c-0.92,18.15,1.9,36.77,12.98,54.28C61.05,155.05,60.85,157.48,56.24,157.1z"/>
<path class="st36" d="M59.51,76.55c-0.95-1.47-1.91-2.93-2.86-4.4c8.47-19.79,29.22-31.24,53.21-40.48c2.03,2.5,5.65,1.63,8.64,2.09
	c0.68,0.93,0.58,1.81-0.27,2.65C95.9,43.65,79.51,55.34,68.1,70.83C66.23,73.36,64.74,76.49,59.51,76.55z"/>
<path class="st37" d="M165.93,21.3c-3.03-3.14-8.04-0.63-11.64-2.11c10.01-3.46,20.56-1.69,31.42-0.32
	C179.11,19.68,172.52,20.49,165.93,21.3z"/>
<path class="st38" d="M228.06,21.47c3.3,0.83,6.61,1.66,9.91,2.49c-9.34,1.98-18.29,1.76-27.16-0.2
	C216.15,21.38,223.23,25.79,228.06,21.47z"/>
<path class="st39" d="M56.24,157.1c0.98-1.34,1.95-2.68,2.93-4.03c7.64,0.21,9.59,3.59,9.07,8.37c-0.83,2.38-3.4,2.14-5.88,2.02
	C60.32,161.34,58.28,159.22,56.24,157.1z"/>
<path class="st40" d="M164.21,25.96c-5.45,1.28-10.91,2.55-17.29,4.05c1.38-5.43,6.7-5.23,10.86-6.21
	C159.92,24.51,162.06,25.23,164.21,25.96z"/>
<path class="st41" d="M228.13,17.35c-1.75,0.61-3.49,1.21-5.24,1.82c-2.87-0.62-5.73-1.24-8.6-1.85c-1.05-1.87-0.22-2.59,2.53-2.13
	C220.74,15.5,224.94,15.05,228.13,17.35z"/>
<path class="st42" d="M216.81,15.18c-0.84,0.71-1.69,1.42-2.53,2.13c-2.11-0.05-5.46-0.02-4.5-2
	C211.3,12.24,214.37,13.67,216.81,15.18z"/>
<path class="st43" d="M326.85,60.15c-0.49,2.02-3.28,3.02-4.75,2.2c-2.55-1.43-1.1-3.44,1-4.93
	C324.35,58.33,325.6,59.24,326.85,60.15z"/>
<path class="st33" d="M335.76,66.86c0.11-1.08,0.21-2.16,0.33-3.25c3.23,1.03,0.22,2.72,0.82,4.02
	C336.27,67.58,335.88,67.33,335.76,66.86z"/>
<path class="st44" d="M191.91,161.23c-2.99,7.22-9.47,2.32-14.58,2.17c-15.32-2.07-21.37-11.17-27.87-19.58
	c-5.04-6.53-6.75-13.97-7.87-21.36c-0.58-3.83-3.13-9.22,4.26-10.22c7.07-0.96,5.99,5.18,8.46,8.35
	c-3.09-21.09,6.28-38.57,27.83-52.73c5.61-4.12,12.11-7.46,18.44-10.95c2.47-1.4,5.26-2.46,7.79-3.79
	c5.19-7.79,15.01-4.67,23.33-5.12c4.8,0.77,8.7,2.61,11.98,5.18c2.97,2.38,7.74,4.74,4.28,8.28c-4.12,4.21-8.94,0.2-13.34-0.35
	c-0.98-0.02-1.95-0.27-1.86-0.4c0.84-1.2-1.16,0.23,0.84,0.25c9.37,1.95,16.62,5.62,20.58,12.15c1.28,2.44,2.27,4.98,4.76,7.01
	c0.69,0.74,1.22,1.53,1.62,2.37c0.38,1.34,0.19,2.62-0.82,3.81c-0.97,0.55-2.07,0.87-3.3,0.92c-2.41-0.05-4.63-0.68-6.88-1.22
	c-1.6-0.47-3.29-0.82-4.68-1.61c-7.14-2.13-14.69-1.82-22.17-1.96c-3.21,0.86-6.28,1.54-6.06-2.29c1.33-0.92,2.66-1.84,3.99-2.75
	c-4.68-3.05-24.28-1.31-27.18,2.79c-8.03,11.37-15.65,22.9-10.98,36.57c-8.76-0.42-6.76-6.77-11.28-9.1
	C160.94,121.56,169.23,143,191.91,161.23z"/>
<path class="st45" d="M256.4,85.79c0.73,0.23,1.48,0.3,2.27,0.2c2.53-1.19,2.18-2.31-0.15-3.39l-0.15-0.2
	c-0.63-1.79,0.78-2.67,2.83-3.26c3.5-0.45,6.41,1.21,9.73,1.41c5.4,0.58,9.55,3.71,15.16,3.83c0.98,0.02,1.7-0.38,2.29-1.13
	c-3.88-2.38-8.54-3-13.46-3.05c-2.69,0.06-5.34-0.08-7.93-0.65c-4.41-2.12-11.38-0.62-14.12-5.12
	c-6.69-5.33-12.79-11.12-21.71-14.76l-0.2,0.18c5.15-0.95,10.93,3.94,15.24-0.19c2.12-2.03-2.83-3.75-4.14-5.78
	c-0.44-1.96,0.41-2.93,3.38-2.3c6.99,2.5,12.19,9.64,22.15,4.39c1.05-1.4,2-2.93,4.85-1.79c3.81,3.33,7.63,6.65,11.44,9.98
	c2.17,0.78,4.33,0.83,6.49-0.03c1.6-0.47,3.22-0.77,4.82,0c11.89,5.19,22.89,13.69,38.42,5.34c0.43,0.15,0.86,0.29,1.29,0.44
	c1.2,0.12,2.4,0.25,3.59,0.37c4.12,4.88,0.69,8.18-4.46,11.18c-4.04,2.35-9.23,3.25-13.27,5.57c-7.86,0.89-12.95,5.57-19.99,7.64
	c-6.55,0.63-13.13,0.59-19.72,0.48c-9.5-0.99-18.47,2.25-27.9,1.78c-3.34-0.24-6.48-0.77-8.38-3.05c8.57-3.12,2.9-6.34,0.13-9.54
	c1.81-0.01,3.62-0.03,5.42-0.04C252.07,85.43,254.43,85.18,256.4,85.79z"/>
<path class="st46" d="M188.52,117.4c0.11-1.73,0.03-2.42,0.21-3.08c1.31-4.62-0.31-11.76,6.54-12.7c6.56-0.9,15.78,1.15,17.36,8.63
	c0.29,1.38,3.02,2.47,4.56,3.74c3.6,2.93,10.97,5.83,8.26,9.53c-3.03,4.14-11.61,3.14-17.97,3.78c-1.27,0.13-3.06-0.95-3.97-0.6
	C183.35,134.47,192.28,120.71,188.52,117.4z"/>
<path class="st47" d="M213.79,164.79c-2.61,0.05-5.23,0.1-7.83,0.15c-8.35-7.6-16.99-15.04-24.92-22.86
	c-4.05-3.99-6.09-8.79-4.55-14.64c6.25,12.43,21.14,17.14,41.92,22.61c-19.5,0.85-14.91,4.61-8.88,8.74
	C211.83,160.38,214.37,162.05,213.79,164.79z"/>
<path class="st48" d="M253.29,102.46c-0.7-0.18-1.43-0.33-2.16-0.44c-1.54-0.12-2.4-0.93-3.33-1.67l0.21-0.16
	c-0.51-2.07,1.35-2.89,3.58-3.5c15.2-2.88,29.1,3.39,43.92,3.22c4.34,0.46,8.22,1.7,11.64,3.67c2.13,1.29,4.14,2.67,5.85,4.27
	c0.72,0.9,1.05,1.87,1.01,2.91c-0.45,1.74-1.88,2.67-4.36,2.74c-12.24,1.72-22.47-3.37-33.59-5.32c-5.67-0.99-11.38-2.39-16.93-3.91
	l-0.04-0.02C257.39,103.27,254.87,103.64,253.29,102.46z"/>
<path class="st49" d="M259.12,104.28c18.96-1.22,34.75,7.52,52.94,8.74c0.84,0.23,1.18,0.53,1.03,0.91
	c-0.16,0.41-0.36,0.62-0.6,0.62c-18.95,1.54-37.77,0.66-56.52-1.62c4.7-4.35,11.44-1.44,16.79-2.49c-2.11,0-4.19-0.49-5.65-1.95
	C264.45,107.08,261.78,105.68,259.12,104.28z"/>
<path class="st50" d="M312.49,114.55c-0.07-0.52-0.22-1.03-0.43-1.53c0.1-1.51,0.21-3.02,0.31-4.53c8.4-2.7,13.73,2.18,20.22,4.2
	c4.71,3.19,11.5,4.98,13.39,10.11c0.61,1.2,2.2,2.77,1.64,3.54c-1.88,2.61-3.46,0.19-4.84-0.61c-6.67-3.89-13.25-7.87-22.07-9.05
	C317.97,115.97,315.23,115.26,312.49,114.55z"/>
<path class="st51" d="M267.11,108.49c4.62,1.09,10.13-0.46,16.84,4.44c-11.05,0-19.52,0-27.98,0c-0.8-0.3-1.64-0.46-2.54-0.5
	c-1.11-0.57-1.99-1.29-2.6-2.18c0.11-0.39,0.18-0.78,0.21-1.18c1.27-2.02,3.17-1.59,5.18-0.69
	C259.86,108.41,263.48,108.45,267.11,108.49z"/>
<path class="st52" d="M250.82,98.45c-0.94,0.58-1.87,1.16-2.81,1.74c-3.79,0.46-5.83-1.12-6.92-3.37c-1.14-2.35,1.85-2.32,3.69-2.9
	c2.84,0.15,5.68,0.3,8.52,0.45c0.94,0.46,1.31,1.08,1.03,1.88C253.41,97.2,251.71,97.49,250.82,98.45z"/>
<path class="st53" d="M216.68,80.13c2.02,0.76,4.04,1.53,6.06,2.29c-5.11,1.21-10.21,2.41-16.92,4
	C209.52,82.82,212.28,80.68,216.68,80.13z"/>
<path class="st49" d="M253.29,102.46c2.45-0.26,4.52,0.11,5.79,1.81C256.56,104.63,254.64,104.01,253.29,102.46z"/>
<path class="st49" d="M256.23,108.37c-1.73,0.23-3.46,0.46-5.19,0.69C252.09,106.17,253.99,106.62,256.23,108.37z"/>
<path class="st49" d="M250.84,110.25c0.87,0.73,1.73,1.45,2.6,2.18C252.57,111.7,251.7,110.97,250.84,110.25z"/>
<path class="st49" d="M247.8,100.36c1.11,0.56,2.22,1.11,3.33,1.67C250.02,101.47,248.91,100.91,247.8,100.36z"/>
<path class="st54" d="M228.14,161.17c-0.98,0.7-1.97,1.39-2.95,2.09C224.78,161.55,225.89,160.94,228.14,161.17z"/>
<path class="st55" d="M185.82,68.07c-22.9,15.98-32.51,35.43-28.11,59.39c-8.54-3.69-7.63-9.35-10.36-13.88
	c-6.99,15.48,4.34,34.08,29.99,49.82c-15.71,3.76-31.79,1.14-47.7,1.4c-2.58-1.56-4.28-3.57-5.61-5.76
	c-5.96-9.21-7.28-18.82-2.99-30.82c-11.31,10.58-4.01,19.79-3.94,28.71c-3.84,5.09-7.92,1.44-11.35-0.11
	c-13.04-5.86-19.36-15.01-23.7-27.14c3.5,10.84,7.25,19.61,14.23,27.54c1.96,2.22,3.95,4.65,1.9,7.5
	c-10.1-0.31-12.16-8.61-20.8-10.73c-1.62,4.17,4.19,6.21,5.26,9.83c-5.9,2.79-10.51,1.47-14.4-2.38c-3.02-2.78-6.04-5.57-9.07-8.36
	c-14.5-18.93-19.9-38.68-10.13-61.65c2.16,5.22,3.61,8.73,5.07,12.25c1.32-9.2,1.8-18.31,5.4-27.12
	c13.94-17.76,27.8-35.56,58.25-41.28c3.25,0.01,7.78-2.61,8.7,2.18c-27.78,10.17-46.83,25.1-50.84,48.22
	c-0.82,1.51-0.86,3.17-1.8,4.65c-0.12,1.32-0.23,2.64-0.35,3.97c0.88,0.74,1.23,1.6,1.13,2.56c-1.98,3.02-0.99,6.29-1.51,9.32
	c0.01-0.12,0.5,0.17,0.51,0.05c-0.66-1.62-0.16-3.14-0.22-4.68c0.33-3.51,3.57-6.15,5.2-9.25c2.43-2.54,4.66-3.56,5.81,0.54
	c1.08,3.85,2,7.73,2.99,11.6c3.49,2.32,2.94,5.92,5.25,8.61c0.5,2.18,1.33,4.3,2.29,6.37c0.59,0.99,1.01,2.06,1.56,3.04
	c-0.01-0.05,1.05,0.4,1.05,0.4s-0.96-0.58-0.96-0.61c-0.98-1.83-1.87-3.65-2.57-5.54c-0.93-2.96-2.23-5.82-3.45-8.71
	c2.46-7.85-0.65-15.96,2.27-23.78c3.23-7.28,5.66-14.83,13.77-20.4c2.46-0.84,3.59,0.2,4.43,1.64c0.09,0.97-0.17,1.89-0.82,2.75
	l-0.09,0.11c-2.14,0.86-1.48,2.43-1.8,3.72c-0.18,0.78-0.86,1.92,1.45,0.95c0.97-0.23,1.71-0.61,2.29-1.16
	c1.04-0.75,2.07-1.5,3.11-2.25c1.25-0.26,2.16-0.82,2.77-1.64c1.95-0.83,3.9-1.66,5.85-2.49c1,0.67,1.6,1.48,1.8,2.46
	c-0.13,2.04-2.19,3.39-3.5,5.01c-1.5,1.78-2.72,3.68-4.01,4.35c0.46-0.8,2.71-1.98,3.73-3.74c3.95-3.63,6.25-8.55,14-9.19
	c22.1-13.1,46.23-23.26,74.92-26.84c5.72,1.44,5.77,1.64,1.62,6.34c-14.23,6.06-31.4,7.06-45.33,13.61
	c-3.34,1.21-6.94,2.03-10.26,3.23c-1.21,0.66-2.54,1.24-3.85,1.73c0.08-0.01-0.59,0.68-0.59,0.68s0.93-0.51,0.97-0.53
	c1.81-0.65,3.43-1.53,5.47-1.79c1.22-0.04,2.37,0.11,3.49,0.43c1.7,0.82,2.42,1.98,2.35,3.43c-12.19,9.82-27.39,17.72-36.31,29.61
	c-2.12,2.78-4.12,5.59-5.87,8.48c-0.68,1.15-1.94,2.18-1.72,3.57c0.16-0.94,0.69-1.79,1.28-2.65c2.03-2.85,3.62-5.82,6.06-8.48
	c0.96-1.16,1.9-2.44,3.81-2.8c4.02-0.77,4.71,1.06,4.65,3.33c0.88-0.88,0.91-1.99,1.57-2.93c1.28-1.82,3.02-3.42,5.01-4.81
	c12.25-8.55,22.85-18.6,39.84-22.92C185.05,65.45,186.68,66.15,185.82,68.07z"/>
<path class="st56" d="M25.5,173.23c1.08-1.74,2.16-3.47,3.24-5.21c37.79-0.27,75.58-0.68,113.37-0.78
	c53.71-0.13,107.42-0.07,161.13,0.06c4.77,0.01,10.35-1.65,14.22,2.06c-6.08,4.08-13.61,2.49-20.68,2.75
	c-64.87,0.91-129.73,0.39-194.59,0.32c-2.52-0.3-5.09-0.34-7.63-0.38c-2.44-0.01-4.89-0.02-7.33-0.04c-5.5-0.1-11,0.02-16.5,0.12
	c-3.08-0.13-6.17-0.13-9.26,0.04C49.39,170.92,37.56,174.07,25.5,173.23z"/>
<path class="st57" d="M98.18,164.71c-10.14-11.66-18.39-23.79-18.99-39.58c11.7,12.2,14.32,28.08,36.55,31.9
	c4.83-2.9,7.17,1.91,11.08,1.85c2.65,1.55,2.91,3.69,2.82,5.91C119.15,164.77,108.66,164.74,98.18,164.71z"/>
<path class="st58" d="M298.3,169.33c6.39,0.01,12.78,0.02,19.17,0.03c0.45,0.35,0.67,0.76,0.65,1.23c1.44,2.39,1.39,5.41,5.42,6.72
	l0.01,0.16c2.61,4.09,1.44,9.21,6.62,12.61c0.9,2.93,0.45,5.94,1.32,8.9c0.86,2.93,1.08,6.49-4.51,7.12
	c-4.82,0.55-5.51-2.72-6.82-5.19c-3.92-7.34-5.93-15.41-15.15-20.75c-1.3-0.39-2.52-0.89-3.68-1.46
	C298.79,175.83,290.46,173.92,298.3,169.33z"/>
<path class="st59" d="M329.08,189.51c-9.49-2.2-3.9-7.98-5.54-12.05c1.01,0.01,2.02,0.03,3.03,0.04c0.13,1.22,0.27,2.44,0.41,3.66
	c0.72,1.4,1.43,2.79,2.14,4.19c0.26,0.71,0.52,1.43,0.78,2.14c0.22,0.41,0.43,0.82,0.65,1.23
	C330.07,188.99,329.58,189.25,329.08,189.51z"/>
<path class="st60" d="M323.54,177.3c-6-0.49-5.71-3.6-5.42-6.71C319.92,172.83,321.73,175.07,323.54,177.3z"/>
<path class="st61" d="M382.64,136.69l-1.28-0.01l-1.27,0.1c-4.53,2.24-9.04,2.54-13.52-0.07c-0.94-0.71-1.63-1.54-2.05-2.48
	c1.1-8.05-0.77-15.21-11.49-19.65c-0.85-0.31-1.69-0.68-2.45-1.04c0.05,0.05-1.04-0.5-0.99-0.45c0.06,0.06-0.88-0.17-0.88-0.17
	s-0.58,0.58-0.54,0.63c0.02,0.64-0.09,1.21-0.3,1.82c-0.34,0.69-0.87,1.25-1.61,1.74c-1.04,0.29-2.06,0.37-3.15,0.23
	c-1.08-0.29-2.05-0.69-2.96-1.19c-0.45-0.27-0.87-0.56-1.31-0.83c-0.86-0.59-1.63-1.23-2.35-1.91c-0.73-0.68-1.37-1.4-1.97-2.14
	c-1.72-2.32-4.13-4.12-7.51-5.2c-6.46-3.64-15.29-4.46-20.93-9.06c-0.49-0.87-0.61-1.78-0.37-2.7c1.8-4.66,8.43-4.73,12.79-6.96
	c4.76-3.55,9.53-6.72,14.41-0.09c3.65,2.95,9.43,2.05,13.69,3.89c1.13,0.43,2.17,0.95,3.13,1.55c0.44,0.32,0.87,0.65,1.31,0.96
	c2.67,3.98,5.13,2.46,7.58-0.21c5.41-3.33,9.55-2.14,14.38,1.16c15.88,10.85,19.14,23.6,12.48,38.14
	C384.51,134.06,383.57,135.38,382.64,136.69z"/>
<path class="st33" d="M329.58,90.62c-0.09-9.87-7.07-2.46-11.17-2.3c-1.75-0.54-2.03-1.35-0.85-2.42
	c5.64-6.13,22.61-4.39,20.93-15.6c9.38-1.19,16.79,3.23,19.64,7.67c5.71,8.87,17,13.74,24.38,21.19
	c10.8,10.92,11.96,23.56,2.94,33.58c0.48-12.62,1.81-25.19-12.19-35.49c-5.89-4.33-10.41-4.49-16.22-0.85
	c-4.84,0.46-4.35-2.47-5.47-4.39C344.96,85.55,337.23,88.42,329.58,90.62z"/>
<path class="st33" d="M334.9,69.94l-0.79,0.01c0,0-0.51-0.44-0.5-0.44c0.01-0.01-0.33-0.42-0.33-0.42s0.69,0.01,0.68,0.02
	C334.48,69.26,334.79,69.54,334.9,69.94z"/>
<path class="st62" d="M345.25,117.07c0.48-1.06,0.95-2.11,1.43-3.17c16.28,1.8,20.63,6.61,18.68,20.66l0.77,0.3
	c-4.15,7.07-8.95,8.28-14.55,3.68c4.26-6.37,14.74-13.13-2.26-18.13C346.99,119.91,345.23,119.06,345.25,117.07z"/>
<path class="st63" d="M351.59,138.53c7.38,3.94,10.52-0.78,14.55-3.68c4.27,2.05,9.11,1.97,13.94,1.93
	c-4.88,4.81-12.58,5.24-19.71,6.55c-4.63-1.32-10.73,1.65-14.37-2.56C347.86,140.03,349.72,139.28,351.59,138.53z"/>
<path class="st64" d="M345.25,117.07c1.36,1.11,2.72,2.22,4.07,3.33c-1.12,0.8-2.23,1.6-3.35,2.4c-4.71-2.67-9.42-5.35-14.12-8.02
	c0.22-1.34,1.23-2.28,2.84-2.93c1.22-0.22,2.18,0.05,2.89,0.8l-0.03-0.05c1.09,0.6,2.05,1.29,2.88,2.07l-0.07-0.06
	c1.05,0.64,2.08,1.29,3.23,1.84C344.09,116.74,344.64,116.95,345.25,117.07z"/>
<path class="st32" d="M92.92,169.28c1.88-0.01,3.76-0.02,5.65-0.03c2.14,8.72-7.26,7.96-12.57,6.11c-7.78-2.73-2.92,3.17-5.68,3.23
	c-6.18,2.19-12.93,1.85-19.25,1.32c-12.31-1.03-18.79,3.21-23.77,10.67c-10.95,16.4-16.67,33.27-11.71,51.47
	c2.24,15.68,9.23,30.56,14.91,45.67c0.17,3.37,0.65,6.78-0.4,10.06c-1.04,3.25-2.13,7.02-9.05,4.86c-2.68-2.85-5.36-5.7-8.04-8.56
	c-1.39-8.06-7.32-14.92-11.28-22.3c-0.38-1.13-0.76-2.26-1.14-3.39c-2.57-8.86-5.13-17.72-7.7-26.59c0.06-9.2,0.11-18.4,0.17-27.6
	c1.09-4.06,2.17-8.12,3.26-12.17c4.96-10.09,9.85-20.22,19.19-28.81c11.28-5.83,24.16-3.81,36.62-3.85c2.75,1.2,5.5,1.2,8.25-0.01
	c5.68-0.01,11.35-0.03,17.03-0.04C89.26,170.41,91.1,170.4,92.92,169.28z"/>
<path class="st65" d="M244.83,363.38c-3.05,0.41-4.75,1.85-5.73,3.85c-9.71,3.56-17.19,9.16-25.25,14.23
	c-2.15,1.28-4.3,2.56-6.46,3.84c-9.2,3.47-18.4,6.95-27.6,10.42c-3.61,1.35-7.22,1.38-10.83,0c-13.09-4.29-26.19-8.58-39.28-12.88
	c-4.67-4.07-10.27-7.25-17.06-9.31c-3.74-2.07-7.48-4.15-11.23-6.22c-3.78-2.6-7.56-5.2-11.34-7.8c-3.68-2.79-7.36-5.58-11.03-8.37
	c2.13-5.74-10.07-9.68-3.87-15.93c11.6,0.07,13.82,8.78,21.8,12.19c4.8,3.68,9.77,7.24,14.81,10.75
	c8.23,6.09,17.86,10.91,27.58,15.63c6.36,2.88,12.89,5.57,19.42,8.26c8.46,3.94,16.95,6.27,25.72,0.44
	c8.08-3.36,15.4-7.46,22.33-11.94c2-1.03,4.1-1.97,6.03-3.09c6.6-4.11,12.45-8.77,18.68-13.15c2.24-1.61,4.48-3.2,6.64-4.86
	c6.72-5.58,13.13-11.32,19.14-17.3c5.35-3,6.48-9.73,15.77-9.25c3.82,2.87,4.73,6.58,5.75,10.26
	C270.54,345,254.98,352.62,244.83,363.38z"/>
<path class="st66" d="M168.95,395.74c3.61,0,7.23,0,10.84,0C176.18,398.54,172.57,398.09,168.95,395.74z"/>
<path class="st59" d="M303.12,177.54c16.14,2.57,14.32,14.01,20.39,21.53c1.21,1.49-0.67,4,3.88,5.52
	c3.42-4.94,1.26-10.15,1.69-15.08c0,0,0.64-0.43,0.64-0.43c1.1-0.37,1.85-0.14,2.24,0.68c-0.11,2.79-0.25,5.59,2.46,7.93
	c1.13,5.38,2.26,10.77,3.38,16.15c0.12,5.93,0.23,11.85,0.35,17.78c-0.65,6.04,0.33,12.26-3.72,17.93
	c-2.78,7.41-5.56,14.82-8.34,22.23c-0.89,0.86-1.78,1.72-2.66,2.58c-3.69,2.2-3.53,5.62-5.2,8.47c-0.29,1.2-0.57,2.39-0.86,3.59
	c-2.12,1.09-3.75,2.81-6.78,2.76c-2.85-0.57-4.87-1.74-5.58-3.9c1.73-6.14,4.73-12.15,3.9-18.57c0.62-3.86,2.39-7.54,3.47-11.33
	c0.49-1.4,1.07-2.78,1.63-4.17c0.18-0.97,0.44-1.92,0.69-2.88c0.33-1.48,0.8-2.93,1.41-4.36c0.97-11.69,6.57-23.29,1.01-35.06
	c-0.16-7.13-4.72-13.23-8.75-19.47C305.92,185.66,301.83,182.19,303.12,177.54z"/>
<path class="st67" d="M306.79,286.46c1.83,0.68,3.66,1.36,5.49,2.04c1.76,1.33,1.65,2.71,0.23,4.13
	c-4.66,11.7-15.23,21.2-22.91,31.77c-1.59,0.88-3.17,1.76-4.76,2.64c-3.52,1.24-4.13,4-6.1,6.05c0,0,0.07,0.06,0.08,0.06
	c-6.66-2.07-5.66-6.41-5.96-10.37c0.48-0.22,0.96-0.44,1.42-0.67c4.74-3.25,6.14-7.49,6.86-11.94c0.74-3.38,3.32-6,6.67-8.29
	c3.26-1.79,4.15-4.34,4.34-7.12c1.05-4.07,2.33-8.02,8.65-9.63C303.08,284.9,305.08,285.35,306.79,286.46z"/>
<path class="st68" d="M318.22,282.84c0.37-3.26-2.38-7.5,5.2-8.47C323.26,277.69,320.96,280.33,318.22,282.84z"/>
<path class="st68" d="M312.51,292.64c-0.08-1.38-0.15-2.76-0.23-4.14c1.69-0.69,3.39-1.38,5.08-2.08
	C315.74,288.5,314.13,290.57,312.51,292.64z"/>
<path class="st69" d="M76,335.17c-1.13,4.77,2.59,7.91,6.89,10.94c6.92,4.88,0.98,4.77-3.87,5.05
	c-14.26-8.76-23.28-20.68-35.7-30.55c-2.55-6.54-10.82-11.05-12.28-17.97c11.31-3.63,3.22-10.78,5.62-16.03
	c8.81,0.15,7.47,6.31,10.71,9.67c3.31,3.43,5.46,7.47,8.02,11.27c4.7,8.33,14.03,14.53,19.93,22.3
	C76.44,331.57,78.03,333.25,76,335.17z"/>
<path class="st65" d="M278.75,333.09c-0.28-3.22-0.03-6.16,6.1-6.05C283.99,329.67,282.45,331.94,278.75,333.09z"/>
<path class="st70" d="M334.43,249.56c0.77-6.03-0.8-12.31,3.72-17.93c0.7,0.05,1.41,0.1,2.11,0.14c1.91,6.99-1.38,13.53-3.42,20.18
	C336.04,251.16,335.24,250.36,334.43,249.56z"/>
<path class="st26" d="M331.96,189.77c-0.69-0.32-1.44-0.55-2.24-0.68c-0.03-0.54,0.03-1.07,0.18-1.59
	C330.59,188.25,331.28,189.01,331.96,189.77z"/>
<path class="st71" d="M163.4,56.1c14.18-7.51,30.95-9.93,47.65-12.49c1.44-0.84,2.42-0.62,2.96,0.65c0.11,0.66,0.1,1.31-0.03,1.96
	c-0.15,3.68-5.5,3.12-7.85,5.01c-4.81,1.48-10.65,1.74-13.29,5.81c-1.45,1.64-3.59,2.27-6.19,2.24c-3.61-0.49-7.17-0.34-10.68,0.48
	c-2.59,0.41-5.18,0.55-7.8,0.21C165.57,59.32,162.72,58.83,163.4,56.1z"/>
<path class="st72" d="M205.39,49.27c2.86-1.02,5.72-2.04,8.59-3.05c7.72-0.07,15.64-2.01,22.97,1.35c-1.13,1.92-4.33,0.76-5.89,2.03
	c-7.47,0.79-16.77-1.51-20.14,6.18C207.36,54.37,201.32,54.03,205.39,49.27z"/>
<path class="st73" d="M90.62,114.47c-1.43-3.29-4.11-6.37-3.22-10.04c6.72-6.06-1.53-14.2,5.44-20.22
	c0.22,8.38,0.44,16.76,0.66,25.14C93.34,111.29,96.42,114.17,90.62,114.47z"/>
<path class="st74" d="M272.44,54.21c-1.62,0.6-3.24,1.19-4.85,1.79c-1.54-3.83-7.39-4.8-12.38-9.91
	C264.64,47.41,269.82,49.19,272.44,54.21z"/>
<path class="st75" d="M110.21,66.36c-1.2-0.85-2.4-1.7-3.6-2.55c1.84-4.1,7.08-5.85,11.19-8.38c2.85-0.34,3.88,0.56,3.33,2.53
	c-2.83,2.68-5.67,5.36-8.5,8.04l-1.09,0.61L110.21,66.36z"/>
<path class="st76" d="M214.01,44.26c-0.99-0.22-1.98-0.43-2.96-0.65c1.96-2.09,3.95-4.19-0.32-6.12c3.04-1.32,6.59-3.31,8.83,0.21
	C221.85,41.28,222.08,44.81,214.01,44.26z"/>
<path class="st77" d="M120.98,72c1.04-1.27,2.07-2.53,3.11-3.8c1.19-1.53,2.88-2.93,2.43-4.88c3.86-3.32,6.32,0.05,9.29,1
	c-3.99,3.25-7.99,6.49-11.98,9.74C121.27,74.52,119.87,74.16,120.98,72z"/>
<path class="st78" d="M231.05,49.61c1.96-0.68,3.93-1.36,5.89-2.03c3.68,0.42,6.84,1.4,8.49,4.03c-1.13,0.77-2.26,1.53-3.38,2.3
	C238.39,52.47,234.72,51.04,231.05,49.61z"/>
<path class="st79" d="M295.19,64.16c-0.98,0.7-1.96,1.4-2.94,2.1c-5.14,0.32-3.48-2.87-4.62-4.62c-0.23-1.56-0.89-4.34,1.22-4.17
	C293.57,57.87,293.78,61.53,295.19,64.16z"/>
<path class="st80" d="M78.59,92.29c-0.91,3.34-1.82,6.68-2.73,10.03c-6.8-0.66-3.1-3.99-3.13-6.36c-0.22-0.66,0.03-1.21,0.74-1.65
	C75.18,93.63,76.89,92.96,78.59,92.29z"/>
<path class="st53" d="M121.13,57.96c-1.11-0.84-2.22-1.69-3.33-2.53c2.03-2.42,5.35-3.1,10.19-4.1
	C127.47,55.26,124.3,56.61,121.13,57.96z"/>
<path class="st81" d="M126.46,37.46c-1.95-2.68-5.92-1.21-8.7-2.18c0.12-0.54,0.36-1.04,0.74-1.51c2.67-0.08,5.35-0.29,8.01-0.19
	c1.99,0.08,5.35-0.91,5.6,1.05C132.38,36.73,129.28,37.43,126.46,37.46z"/>
<path class="st82" d="M287.63,61.64c1.54,1.54,3.08,3.08,4.62,4.62c-5.02,3.95-6.04-0.43-8.37-2.08
	C285.13,63.34,286.38,62.49,287.63,61.64z"/>
<path class="st83" d="M112.06,71.82c-0.7,0.79-1.41,1.59-2.11,2.38c-2.85,0.43-4.18-0.29-3.6-2.46c1.26-1.15,2.51-2.29,3.77-3.44
	C110.77,69.48,111.42,70.65,112.06,71.82z"/>
<path class="st84" d="M126.52,63.32c5.55,3.26-0.91,3.44-2.43,4.88c-0.1-0.92-0.19-1.85-0.29-2.77
	C124.7,64.73,125.61,64.03,126.52,63.32z"/>
<path class="st80" d="M73.82,90.33c0.6-1.55,1.2-3.1,1.8-4.65C76.65,87.56,76.28,89.15,73.82,90.33z"/>
<path class="st83" d="M117.95,67.92c-0.92,0.55-1.85,1.1-2.77,1.64C116.1,69.02,117.02,68.47,117.95,67.92z"/>
<path class="st83" d="M110.21,66.36c0.79-0.17,1.6-0.29,2.42-0.36c-0.81,0.73-1.61,1.46-2.42,2.19
	C109.83,67.59,109.83,66.97,110.21,66.36z"/>
<path class="st85" d="M185.82,68.07c-1.03-0.73-2.07-1.46-3.1-2.19c2.61-6.98,11.52-9.06,18.74-12.45c3.51,1.32,2.69,3.22,1.33,5.19
	C197.13,61.77,191.47,64.92,185.82,68.07z"/>
<path class="st86" d="M202.79,58.62c-0.3-1.86,0.12-4.05-3.79-4.24c-2.53,1.53-5.2,1.44-7.95,0.33c2.17-5.38,9.25-4.05,14.34-5.45
	c-0.6,3.24,3.93,4.23,5.52,6.51C208.21,56.73,205.5,57.67,202.79,58.62z"/>
<path class="st87" d="M252.88,74.44c4.95,1.12,9.9,2.24,14.85,3.37c-0.94,2.11-4.15,1.23-5.88,2.3c-1.16,0.77-2.32,1.53-3.48,2.3
	C253.97,80.67,250.4,78.64,252.88,74.44z"/>
<path class="st88" d="M258.52,82.6c2.19,0.43,4.25,1.06,3.6,3.05c-0.1,0.29-2.24,0.23-3.44,0.34
	C258.62,84.86,258.57,83.73,258.52,82.6z"/>
<path class="st88" d="M256.4,85.79c-2.45,0.44-4.52,0.06-6.08-1.45C252.7,84.07,254.86,84.25,256.4,85.79z"/>
<path class="st45" d="M231.17,59.69c-0.9-0.02-1.79-0.03-2.69-0.05c0.15-0.33,0.3-0.66,0.45-1c0.68,0.41,1.35,0.82,2.03,1.23
	C230.96,59.87,231.17,59.69,231.17,59.69z"/>
<path class="st89" d="M275.6,77.2c7.27-1.39,12.41,5.43,20.14,2.76c0.37-0.13,2.21,1.1,2.5,1.87c0.75,2-1.3,2.89-3.43,3.77
	c-9.62,3.97-17.06-0.3-24.85-3.31C270.87,80.05,274.86,79.56,275.6,77.2z"/>
<path class="st90" d="M306.63,94.29c0.14,0.68,0.29,1.37,0.43,2.05c-4.62,3.6-10.95,3.48-16.97,4.02
	c-7.17,0.75-13.26-1.7-19.61-3.41c-0.67-6.99,8.55-1.46,11-4.49c7.45-0.95,14.92-1.28,22.42-0.31
	C304.9,92.81,306.44,93.1,306.63,94.29z"/>
<path class="st91" d="M276.24,72.31c-8.26,1.32-15.02-0.46-16.61-4.97c-1.95-5.55,4.87-6.36,8.04-2.54
	C269.87,67.42,273.48,69.12,276.24,72.31z"/>
<path class="st92" d="M306.63,94.29c-0.91-0.71-1.82-1.43-2.72-2.14c1.61-5.73,2.15-5.98,13.66-6.25c0.28,0.81,0.56,1.61,0.85,2.42
	C316.75,92.62,308.63,90.34,306.63,94.29z"/>
<path class="st93" d="M281.48,92.46c-3.64,1.19-7.29,2.37-10.93,3.56c-5.57,2.24-11.23,1.82-16.93,0.28
	c-0.21-0.63-0.32-1.27-0.33-1.92C262.79,94.52,271.83,91.16,281.48,92.46z"/>
<path class="st94" d="M275.6,77.2c0.32,2.96-1.51,4.69-5.65,5.1c-2.7-0.73-5.4-1.46-8.1-2.18c0.9-2.17,3.92-1.53,5.88-2.3
	C270.35,77.61,272.97,77.4,275.6,77.2z"/>
<path class="st95" d="M289.98,98.57c5.69-0.74,11.38-1.48,17.08-2.22c7.55,2.7,15.09,5.39,22.64,8.09c3.07,2.21,6.1,4.42,5.28,7.96
	c-1.04,0.79-2.08,1.59-3.12,2.38c-6.49-2.1-12.99-4.19-19.48-6.29c0,0,0.02,0.01,0.02,0.01c-1.46-1.27-4.1-0.84-5.62-2.02
	c-2.82-1.42-5.64-2.83-8.46-4.25C296.48,99.89,289.4,103.73,289.98,98.57z"/>
<path class="st96" d="M289.98,98.57c2.78,1.22,5.56,2.44,8.33,3.66c-16.28,1.6-31.17-5.74-47.5-3.78c0.94-0.72,1.87-1.44,2.81-2.16
	c5.64-0.09,11.29-0.19,16.93-0.28C277.03,96.86,283.5,97.72,289.98,98.57z"/>
<path class="st50" d="M306.77,106.48c1.87,0.67,3.75,1.35,5.62,2.02C310.52,107.83,308.64,107.15,306.77,106.48z"/>
<path class="st97" d="M191.05,54.72c2.65-0.11,5.3-0.22,7.95-0.33c-1.8,6.49-12.19,6.68-16.28,11.49
	c-15.81,8.93-32.23,17.41-43.8,29.56c-5.69,5.98-2.63-0.42-3.92-1.19c-3.38-2.03-3.5,1.67-5.68,2c-2.65,0.42-4.07-0.04-3.07-2.23
	c7.91-12.84,21.16-22.24,37.19-29.85c2.94-3.83,8.47-4.18,13.49-5.22c3.04-0.37,5.72-2.55,9.15-0.94
	C188.84,57.77,190.86,56.96,191.05,54.72z"/>
<path class="st98" d="M126.81,158.89c-0.38,0.45-9.05-1-11.08-1.85c-4.46-7.49-7-14.8-3.88-23.32c2.07-5.65,5.3-7.84,14.53-7.55
	C119.65,137.07,121.4,148.04,126.81,158.89z"/>
<path class="st99" d="M72.74,95.95c1.44,2.02-0.19,4.82,3.13,6.36c-0.12,3.3-0.25,6.6-0.37,9.9c-2.53,0.68-3.79-0.28-4.59-1.84
	C70.45,105.5,69.44,100.59,72.74,95.95z"/>
<path class="st100" d="M120.98,72c0.95,0.69,1.9,1.38,2.85,2.07c-3.96,3.93-7.92,7.87-13.69,13.6
	C111.28,79.84,115.68,75.76,120.98,72z"/>
<path class="st101" d="M177.44,60.06c-4.67,1.37-9.34,2.73-14.01,4.1c-1.12-0.83-2.25-1.66-3.37-2.49c0.39-4.84,6.81-1.47,9.25-3.51
	c2.68-0.22,5.36-0.43,8.04-0.65c0.71,0.56,0.96,1.12,0.75,1.69C177.89,59.77,177.67,60.06,177.44,60.06z"/>
<path class="st102" d="M123.68,104.31c-2.14,3.03-1.3,7.3-7.41,9.15c-1.13-4.51,1.03-8.01,4.35-11.29
	C122.53,102.23,122.9,103.42,123.68,104.31z"/>
<path class="st103" d="M123.68,104.31c-1.02-0.71-2.04-1.43-3.07-2.14c1.31-2.92,1.77-6.15,5.63-8.16c1.02,0.74,2.05,1.49,3.07,2.23
	C127.44,98.93,125.56,101.62,123.68,104.31z"/>
<path class="st44" d="M169.32,58.15c-3.08,1.17-6.17,2.34-9.25,3.51c-0.75,0.18-1.52,0.31-2.31,0.37c-2.99,0.66-3.73-0.28-3.07-2.23
	c2.9-1.24,5.81-2.47,8.71-3.71C165.37,56.79,167.34,57.47,169.32,58.15z"/>
<path class="st104" d="M152.59,64.65c-2.21,1.51-5.1,4.35-7.62,2.16c-2.89-2.52,1.93-3.54,4.42-4.69
	C150.81,62.72,152.71,63.03,152.59,64.65z"/>
<path class="st105" d="M106.35,71.74c1.2,0.82,2.4,1.64,3.6,2.46c-1.13,2.29-3.02,4.09-7.03,5.15
	C101.6,76.11,104.07,73.95,106.35,71.74z"/>
<path class="st106" d="M90.62,114.47c0.96-1.71,1.92-3.41,2.88-5.12c0.96,2.93,1.92,5.86,2.87,8.79c1.07,2.13-0.32,2.63-2.95,2.31
	C92.49,118.46,91.55,116.47,90.62,114.47z"/>
<path class="st107" d="M99.59,124.58c2.06,1.64,3.26,4.08-0.07,4.67c-2.47,0.43-3.75-2.41-3.83-4.53
	C96.9,123.45,98.21,123.41,99.59,124.58z"/>
<path class="st108" d="M70.9,110.38c1.53,0.61,3.06,1.22,4.59,1.84c0.1,1.48,0.65,3.81-2.19,3.47
	C69.15,115.2,70.88,112.38,70.9,110.38z"/>
<path class="st109" d="M152.59,64.65c-1.07-0.85-2.14-1.69-3.2-2.54c1.77-0.77,3.54-1.53,5.3-2.3c1.02,0.74,2.04,1.48,3.07,2.23
	C156.03,62.91,154.31,63.78,152.59,64.65z"/>
<path class="st110" d="M99.59,124.58c-1.3,0.05-2.6,0.09-3.9,0.14c-0.76-1.42-1.51-2.84-2.27-4.26c0.98-0.77,1.97-1.54,2.95-2.31
	C97.45,120.29,98.52,122.43,99.59,124.58z"/>
<path class="st111" d="M81.72,176.9c-3.47-2.27-5.12-3.96,1.82-3.72c5.69,0.2,13.06,3.34,15.03-3.94
	c66.58,0.03,133.15,0.05,199.73,0.08c-3.72,3.49,3.83,4.87,2.83,7.85c-4.8,3.73-11.2,2.92-17.14,2.93
	c-61.78,0.09-123.56,0.09-185.34-0.01C92.73,180.09,86.26,180.95,81.72,176.9z"/>
<path class="st111" d="M70.37,169.37c-2.75,2.32-5.5,2.3-8.25,0.01C64.87,169.37,67.62,169.37,70.37,169.37z"/>
<path class="st111" d="M92.92,169.28c-1.81,1.89-3.66,1.92-5.53,0.04C89.24,169.31,91.08,169.29,92.92,169.28z"/>
<path class="st112" d="M81.72,176.9c73.14,0.09,146.27,0.18,219.41,0.27c0.61,0.29,1.28,0.41,2,0.36
	c8.11,9.36,16.61,18.6,17.51,30.13c-1.11,1.11-1.7,2.69-4.29,2.45c-2.73-0.88-3.65-2.65-4.33-4.53c-1.16-5.47-3.69-10.61-7.45-15.44
	c-2.37-3.43-5.8-6.03-10.89-7.4c-14.7-1.02-29.35-1.44-43.94,0.65c-3.29,0.35-6.54,0.28-9.77-0.31c-7.36-1.52-14.91-0.9-22.37-0.89
	c-54.33,0.09-108.67-0.34-162.96,0.21c-3.67,0.58-6.73,1.86-8.75,4.23c-0.72,0.85-1.53,1.66-2.34,2.46
	c-8.13,7.67-11.46,16.52-12.45,25.97c-2.13,6.13-1.09,12.51-2.92,18.66c-1.65,2.94-1.59,6.58-6.45,8.22
	c-5.13-21.74,1.43-41.66,17.84-60.13c3.88-4.37,9.29-4.79,15.65-4.67C64.04,177.3,72.88,177,81.72,176.9z"/>
<path class="st113" d="M329.58,90.62c8.5-6.99,21.03-6.87,24.83,0.24c-2.28,0.73-0.33,4.83-5.28,3.42l-0.2-0.1
	c-0.9-0.6-1.88-1.11-2.96-1.53C340.51,91.97,335.05,91.3,329.58,90.62z"/>
<path class="st114" d="M365.37,134.56c-0.52-9.55-3.88-17.78-18.68-20.65c-0.3-0.51-0.65-1-1.03-1.48
	c-0.22-1.69,0.39-2.62,3.02-1.72l0.13,0.03c0.87,0.52,1.84,0.91,2.89,1.21C366.42,115.61,371.89,124.66,365.37,134.56z"/>
<path class="st115" d="M349.13,94.28c1.76-1.14,3.53-2.29,5.29-3.43c-0.1,2.09-0.17,4.17,2.62,5.55c0,2.15,0,4.29,0,6.92
	C350.51,101.34,351.84,96.97,349.13,94.28z"/>
<path class="st62" d="M334.97,112.4c-1.76-2.65-3.52-5.31-5.28-7.96c6.55,0.8,7.01,4.61,7.89,8.22
	C336.72,112.55,335.85,112.47,334.97,112.4z"/>
<path class="st62" d="M348.68,110.72c-1,0.57-2.01,1.15-3.02,1.72c-1.72-0.81-4.82-1.59-2.27-3.31
	C345.07,107.99,347.61,108.92,348.68,110.72z"/>
<path class="st62" d="M351.7,111.95c-0.96-0.4-1.93-0.81-2.89-1.21C349.77,111.14,350.74,111.55,351.7,111.95z"/>
<path class="st115" d="M345.98,92.65c0.99,0.51,1.97,1.02,2.96,1.53C347.95,93.67,346.96,93.16,345.98,92.65z"/>
<path class="st62" d="M343.59,116.46c-1.08-0.61-2.15-1.23-3.23-1.84C341.44,115.23,342.51,115.84,343.59,116.46z"/>
<path class="st62" d="M340.43,114.67c-0.96-0.69-1.92-1.38-2.88-2.07C338.51,113.29,339.47,113.98,340.43,114.67z"/>
<path class="st116" d="M21.73,241.94c1.76-2.56-0.11-5.97,3.62-8.07c5.32-2.13,11.1-3.55,16.59-5.43c1.17-0.34,2.38-0.59,3.6-0.8
	c3.15-0.44,6.23-1.05,9.24-1.87c5.87-1.34,11.66-2.85,17.51-4.24c15.31-2.06,29.91-6.68,45.83-6.54c3.13,0.14,6.11,0.58,8.51,2.19
	c0.63,5.81-6.77,4.6-10.75,6.39c-24.11,5.72-50.17,6.56-73.1,15.44c-7.94,3.07-9.87,6.82-8.77,13
	c2.89,16.22,11.44,30.97,21.21,45.48c1.64,3.07,2.2,6.18,0.66,9.36c-0.62,1.03-1.66,1.75-3.11,2.17
	c-5.37-7.47-10.74-14.94-16.1-22.4C30.03,272.01,23.19,257.44,21.73,241.94z"/>
<path class="st117" d="M137.89,375.55c-10.66-4.24-20.72-9.04-28.11-16.21c0.45-0.37,0.91-0.74,1.35-1.12
	c1.17-0.52,2.42-0.9,3.74-1.14c11.46-0.99,21.74-0.68,23.85,10.04c0.45,2.28,5.05,2.95,5.57,5.53
	C143.42,375.06,140.65,375.29,137.89,375.55z"/>
<path class="st118" d="M260.24,333.16c-6.91,6.04-13.83,12.09-20.74,18.13c-1.72,0.96-3.59,1.15-5.6,0.54
	c-0.97-0.7-1.51-1.55-1.64-2.53c0.31-2.97,1.88-5.53,4.78-7.66c6.02-2.88,8.26-8.05,13.39-11.49c1.92-0.63,3.87-0.67,5.87-0.19
	C258.2,330.64,259.45,331.75,260.24,333.16z"/>
<path class="st119" d="M233.54,355.17c-5.38,5.89-11.79,11.02-20.56,14.39c-1.69,0.19-2.94-0.25-3.77-1.33
	c-2.48-11.56,0.05-13.67,18.32-15.27c1.55,0.13,3.01,0.48,4.38,1.03C232.46,354.38,233,354.77,233.54,355.17z"/>
<path class="st120" d="M137.89,375.55c1.98-0.76,3.95-1.53,5.93-2.29c10.34-5.85,12.98-5.2,17.26,4.27c0.03,1.16-0.2,2.29-0.65,3.4
	c-0.55,1.1-1.48,2.02-2.77,2.74C150.14,382.15,143.71,379.23,137.89,375.55z"/>
<path class="st121" d="M76,335.17c-0.8-1.43-1.6-2.87-2.4-4.3c0.97-0.68,2.13-1.12,3.46-1.31c9.57,1.17,14.02,6.62,18.95,11.69
	c1.37,2.63,4.41,4.96,2.99,8.12c-1.19,0.71-2.3,0.62-3.34-0.18C89.1,344.52,82.55,339.84,76,335.17z"/>
<path class="st122" d="M210.39,369.38c0.88-0.02,1.75,0.03,2.6,0.18c-1.25,0.58-2.49,1.16-3.73,1.74c-6.61,2.72-13,5.68-18.98,9.06
	c-2.89,1.64-4.71,1.23-6.49-0.78C182.84,367.25,192.87,363.41,210.39,369.38z"/>
<path class="st123" d="M157.67,383.67c0.09-0.72,0.18-1.44,0.28-2.16c0.85-0.65,1.89-0.95,3.14-0.92c1.78,0.12,3.54,0.37,5.3,0.61
	c5.81,1.35,12.03-0.14,17.83,1.3c0.45,0.3,0.89,0.6,1.34,0.9C176.43,393.12,167.06,388.8,157.67,383.67z"/>
<path class="st124" d="M186.58,381.32c5.25-6.03,12.91-9.25,22.67-10.01c-6.23,5.72-13.67,10.22-23.7,12.11c0,0-0.08-0.07-0.08-0.07
	c-0.16-0.44-0.32-0.87-0.47-1.31C185.52,381.8,186.05,381.56,186.58,381.32z"/>
<path class="st125" d="M260.24,333.16c-1.4-0.7-2.8-1.41-4.2-2.11c-0.94-0.71-1.22-1.55-0.94-2.5c5.78-3.67,6.2-11.3,16.56-11.6
	c1.12,0.52,1.99,1.2,2.63,2.04c0.56,1.45,0.38,2.77-1.39,3.78c0,0-0.04,0.02-0.04,0.02C268.65,326.24,264.44,329.7,260.24,333.16z"
	/>
<path class="st126" d="M95.66,349.19c0.98-0.06,1.97-0.13,2.95-0.19c1.2-0.56,2.47-0.68,3.84-0.38c4.73,2.62,11.04,4.65,7.54,10.36
	c0,0-0.2,0.36-0.2,0.36C103.37,357.19,99.18,353.43,95.66,349.19z"/>
<path class="st119" d="M234.09,350.82c1.8,0.16,3.61,0.31,5.41,0.47c-1.02,2.06-2.85,3.47-5.95,3.88c0,0-0.31-0.23-0.31-0.23
	C231.97,353.4,232.17,352.02,234.09,350.82z"/>
<path class="st125" d="M301.16,286.49c-3.78,2.58-4.95,6.06-6.28,9.48c-0.88,2.56-2.42,4.86-4.98,6.78
	c-1.95,2.52-3.9,5.04-5.84,7.55c-2.86,3.33-2.75,8.44-10.34,8.95c-0.49-0.34-0.96-0.69-1.42-1.05c-3.22-3.78-1.19-6.99,1.91-10.2
	c5.9-6.11,9.97-12.86,12.99-19.95c1.17-2.21,3.61-3.79,5.36-5.71c0.62-0.77,1.28-1.52,1.92-2.28c3.73-6.07,8.71-11.82,9.18-18.73
	c1.35-4.36,3.4-8.46,7.97-11.67c2.03-0.72,3.98-0.8,5.74,0.41c-0.22,0.78-0.44,1.56-0.66,2.34c-0.34,0.74-0.77,1.44-1.29,2.12
	c-1.02,3.9-2.03,7.8-3.05,11.69C309.5,273.23,309.35,281.01,301.16,286.49z"/>
<path class="st127" d="M317.37,250.06c-1.63,0-3.26-0.01-4.89-0.01c-2.04-1.05-3.19-2.64-2.93-4.28c1.5-9.42-5.92-13.21-17.38-14.59
	c-4.68-2.29-10.14-2.65-15.51-3.25c-6.03-1.47-11.93-3.14-18.38-3.67c-4.51-0.38-9.35-1.08-8.99-5.7c0.84-1.64,2.71-2.37,4.86-2.86
	c2.06-0.39,4.17-0.49,6.29-0.41c5.34,0.28,10.37,1.7,15.63,2.34c1.3,0.19,2.57,0.46,3.83,0.75c2.57,0.62,5.26,0.93,7.89,1.4
	c10.33,4.19,24.68,2.8,31.58,11.75c-0.44,4.95,1.01,9.96-0.93,14.86C318.08,247.61,317.73,248.83,317.37,250.06z"/>
<path class="st128" d="M318.44,246.38c-0.2-5.6-0.4-11.19-0.59-16.79c-2.96-2.3-3.75-5.12-3.75-8.13
	c-0.08-4.09-0.84-8.29,3.69-11.62c0.95-0.73,1.9-1.45,2.84-2.18C324.86,220.71,322.99,233.58,318.44,246.38z"/>
<path class="st68" d="M301.16,286.49c3.74-6.76,7.47-13.51,11.21-20.27c1.64,7.24-1.45,13.82-5.58,20.24
	C304.92,286.47,303.04,286.48,301.16,286.49z"/>
<path class="st127" d="M315.42,254.53c0.43-0.71,0.86-1.42,1.29-2.12C316.28,253.11,315.85,253.82,315.42,254.53z"/>
<path class="st65" d="M273.72,319.25c3.45-2.98,6.89-5.96,10.34-8.94c0.7,6.2-1.1,11.24-11.16,12.46
	C273.17,321.59,273.44,320.42,273.72,319.25z"/>
<path class="st129" d="M289.9,302.75c0.43-2.73,2.03-5.01,4.99-6.78C295.67,299.16,295.88,302.13,289.9,302.75z"/>
<path class="st130" d="M76.73,330.75c-1.04,0.04-2.09,0.07-3.13,0.11c-6.97-7.27-16.97-13.04-20.84-21.84
	c0.47-0.17,0.88-0.39,1.24-0.67c0.55-0.15,1.1-0.31,1.64-0.47c0.57,0.09,1.15,0.19,1.72,0.28c1.05,0.37,2.02,0.85,2.89,1.42
	c1.64,1.17,2.92,2.53,4.21,3.89c0.72,0.62,1.41,1.26,2.14,1.87c0.42,0.28,0.8,0.58,1.21,0.86c2.19,1.41,4.27,2.9,5.63,4.82
	C75.1,324.17,79.54,326.84,76.73,330.75z"/>
<path class="st131" d="M177.44,60.06c-0.03-0.85-0.06-1.7-0.09-2.55c3.1-1.58,6.15-2.75,8.73,0.49
	C183.2,58.68,180.32,59.37,177.44,60.06z"/>
<path class="st132" d="M41.94,186.88c0.14-0.57,0.45-1.08,0.95-1.53c7.34-3.84,16.88-2.14,24.61-5.03c22.54-0.02,45.08-0.03,67.6,0
	c2.94,0.02,4.16,1.29,4.49,3.21c-0.61,4.45-5.83,5.83-10.11,7.83c-5.79,1.49-5.95,7.8-13.19,8.07c-1.93,0.16-3.84,0.02-5.7-0.38
	c-5.3-1.33-7.58-3.82-5.88-7.84c-10.03-3.51-16.19,3.74-24.64,4.49c-2.89,0.46-5.82,0.48-8.76,0.52
	c-6.42-0.14-12.82,0.37-19.23,0.02C44.33,195.57,38.1,194.03,41.94,186.88z"/>
<path class="st133" d="M298.34,181.04c4.46,1.88,7.36,4.62,8.78,8.19c-3.94,3.45-9.46,2.73-14.63,2.87
	c-2.02-0.03-4.04-0.21-6.01-0.56c-4.37-0.73-8.68-2.45-13.26-0.51c-2.26,1.3-2.64,3.27-3.48,5.08c-0.37,0.79-0.87,1.52-1.45,2.23
	c-2.97,2.36-2.94,5.42-3.67,8.31c-0.48,1.41-1.33,2.64-2.96,3.55c-4.1,0.89-8.09,0.08-12.1-0.39c-7.37-1.51-7.89-5.52-7.09-10.04
	c0.67-3.83,2.68-7.57,1.52-11.49c-2.14-3.16-5.79-2.03-9.18-1.65c-0.66,0.08-1.3,0.13-1.96,0.19c-1.38,0.03-2.7-0.14-4-0.47
	c-1.24-0.55-2.02-1.33-2.42-2.33c-0.1-1.64,0.4-3.03,2.88-3.6c4.31,0.04,8.67-0.59,12.89,0.52c2.72-0.01,5.45-0.02,8.17-0.03
	C266.36,180,282.36,179.79,298.34,181.04z"/>
<path class="st134" d="M41.94,186.88c-0.56,6.91,6.39,6.63,12.77,6.9c-0.3,2.65-3.08,4.09-5.56,5.56
	c-8.25,4.89-8.3,10.06-1.31,15.55c1.64,1.2,3.45,2.23,5.57,2.98c1.1,0.29,2.18,0.6,3.27,0.88c3.52,0.73,7.25,0.53,10.77,1.3
	c2.41,0.83,4.79,1.69,3.65,4.13c-5.79,1.24-11.58,2.47-17.36,3.71c-8.56,2.43-8.04-4.85-13.18-6.52c-4.77-1.55-8.88-4.67-12.45-7.77
	C28.4,203.54,32.62,194.53,41.94,186.88z"/>
<path class="st135" d="M242.2,180.92c-4.78,0.22-9.57,0.44-14.35,0.66c-3.28,2.06-7.25,2.46-11.39,2.49
	c-4.84,0.07-9.67,0.04-14.51,0.07c-8.14-0.02-16.28-0.01-24.42,0.02c-4.99-0.04-9.98,0.3-14.98,0.03
	c-8.3-0.61-17.25,1.57-24.62-2.97c-24.4,0.12-48.8,0.24-73.2,0.36c-5.77,2.1-11.45,2.86-16.9-0.51c3-2.17,6.86-1.72,10.53-1.73
	c57.73-0.02,115.46-0.03,173.2-0.02C235.23,179.33,239.06,178.96,242.2,180.92z"/>
<path class="st136" d="M28.1,213.6c12.09,1.47,18.32,8.38,25.63,14.29c-2.86,0.64-5.72,1.27-8.58,1.91c-1.57-1.44-2-0.13-2.67,0.58
	c-5.4,1.94-10.5,4.65-17.13,3.49C26.49,227.13,23.51,220.1,28.1,213.6z"/>
<path class="st137" d="M317.79,209.84c-0.08,3.98-0.15,7.95-0.23,11.93c-16.05,4.75-20.47,1.82-19.84-13.09
	c0.26-1.12,0.75-2.2,1.43-3.22c0.39-0.47,0.81-0.94,1.19-1.41c0.86-0.87,1.91-1.64,3.07-2.31c1.13-0.64,2.43-1.09,3.82-1.37
	c6.02-0.9,5.86,3.06,7.97,5.25C316.06,207.03,316.93,208.43,317.79,209.84z"/>
<path class="st138" d="M315.2,205.62c-2.86-1.18-3.83-4.33-8.13-4c-0.87-0.42-1.28-1.02-1.32-1.75c0.18-0.67,0.07-1.33-0.36-1.95
	c-0.47-0.57-0.9-1.16-1.37-1.72c-0.56-0.53-1.15-1.03-1.84-1.47c-0.04,0.03-1.18-0.53-1.21-0.5c-1.92-0.53-3.94-0.61-5.94-0.84
	c-2.84-0.51-5.74-0.98-5.85-3.7c5.98-0.16,11.96-0.31,17.94-0.47C312.65,193.97,314.44,199.66,315.2,205.62z"/>
<path class="st135" d="M298.34,181.04c-15.99-0.05-31.98-0.09-47.98-0.14C266.37,178.43,282.37,178.17,298.34,181.04z"/>
<path class="st139" d="M47.82,181.08c5.63,0.17,11.27,0.34,16.9,0.51c-5.26,7.29-14.67,2.15-21.83,3.77
	C44.54,183.93,46.18,182.5,47.82,181.08z"/>
<path class="st140" d="M53.63,298.81C37.59,282.64,30.91,264,29.06,244.74c-0.88-9.19,14.87-10.35,22.59-11.99
	c20.83-4.43,41.66-9.83,63.69-11.02c5.12-1.7,10.82-1.37,16.2-2.2c7.49-1.16,14.04,0.33,14.87,7.13c-0.02,2.4-0.55,5.23-3.04,6.46
	c-15.39,7.6-19.38,20.6-29.03,30.89c-7.38,7.88-16.54,14.22-28.62,18.53c-9.03,3.22-18.38,6.46-22.97,13.86
	C61.26,298.81,58.05,300.71,53.63,298.81z"/>
<path class="st141" d="M53.63,298.81c14.89-17.27,48.48-19.99,60.27-39.06c7.23-11.7,16.1-21.88,29.69-30
	c9.22-10.14,37.4-16.83,57.37-13.63c10.83,1.73,21.03,5.32,32.35,5.6c5.78,2.04,9.32,4.55,3.56,8.96
	c-7.87,3.08-15.7,1.24-22.75-1.08c-14.73-4.85-29.38-5.53-44.51-1.59c-4.52,0.46-8.86,1.31-12.6,3.32
	c-6.54,3.42-11.53,8.06-17.75,11.73c-4.41,2.45-7.72,5.47-9.38,9.35c-8.5,16.12-22.61,28.57-45.06,35.54
	c-5.4,2-10.99,3.82-14.14,7.91c-3.91,4.47-7.07,9.39-13.73,12.27c-0.99,0.07-1.97,0.15-2.96,0.22
	C53.88,305.17,53.76,301.99,53.63,298.81z"/>
<path class="st142" d="M233.51,223.8c-7.54,0.35-14.52-0.71-21.76-2.62c-24.78-6.55-47.3-1.97-68.16,8.57
	c0.95-5.71-1.91-8.62-10.56-8.09c-5.86,0.36-11.79,0.07-17.69,0.06c3.95-1.28,7.9-2.56,11.85-3.85c9.55-5.65,21.57-3.16,32.26-4.39
	c16.95-1.95,34.5-1.13,51.74-0.29c8.25,0.4,16.83,1.57,22.28,7.12C234.47,221.47,234.48,222.63,233.51,223.8z"/>
<path class="st143" d="M233.31,221.54c-24.13-10.1-50.46-5.46-75.83-5.01c-9.93,0.18-20.21,0.73-30.3,1.35
	c-3.2-0.16-6.4-0.33-9.6-0.49c4.03-6.93,13.94-3.07,20.29-5.75c7.56-1.27,15.44-0.19,22.98-1.65c15.53-1.56,31.09-1.62,46.68-0.52
	c6.61,1.88,13.6,1.03,20.42,1.4c9.31,0.53,18.52,1.47,27.35,3.8c1.4,0.81,1.73,1.8,0.99,2.98c-2.17,0.13-4.34,0.27-6.5,0.4
	C244.99,220.88,238.89,220.59,233.31,221.54z"/>
<path class="st144" d="M138.79,213.87c-7.07,1.17-14.13,2.35-21.2,3.52c-15.5,2.26-31,4.53-46.5,6.79
	c-2.17-0.83-4.34-1.66-6.51-2.49c-0.75-0.77-0.79-1.57-0.12-2.38c1.82-1.21,4.11-1.55,6.45-1.76c2.09-0.19,4.21-0.33,6.23-0.81
	c0.92-0.3,1.85-0.59,2.74-0.92c1.31-0.64,2.51-1.36,3.73-2.08c0.93-0.5,1.96-0.81,3.08-1c1.19-0.07,2.36-0.04,3.54,0.07
	c5.47,0.5,10.92,0.66,16.35-0.19c1.17-0.34,2.34-0.63,3.53-0.92c1.8-0.53,3.61-1.01,5.49-1.38c0.66-0.09,1.31-0.16,1.97-0.26
	c1.35-0.09,2.7-0.06,4.05,0.04C127.39,211.27,134.19,210,138.79,213.87z"/>
<path class="st134" d="M42.48,230.38c0.41-1.33,1.07-2.1,2.67-0.58C44.26,230,43.37,230.19,42.48,230.38z"/>
<path class="st145" d="M162.81,383.08c-1.17-0.61-2.33-1.22-3.5-1.84l-0.72-0.82c0.08-7.72-4.26-10.72-14.77-7.16
	c-3.3-0.97-9.59-2.3-9.46-2.84c3.6-14.85-13.14-9.28-21.94-11.52c2.36-6.19,11.18-2.94,15.89-5.67c4.24-1.82,3.13-5.44,5.17-7.99
	c1.46-1.69,3.45-2.74,6.32-2.75c1.24,0.36,2.16,0.96,2.74,1.83c0.4,0.87,0.59,1.76,0.6,2.68c-0.6,2.99-1.36,5.98-0.22,9.01
	c0.25,1.33,0.2,2.65,0.01,3.97c-0.18,2.88,0.17,5.71,5.25,5.95c5.31,0.25,5.46-2.88,5.99-5.56c0.12-1.38,0.39-2.74,0.78-4.09
	c0.23-0.92,0.56-1.82,0.92-2.71c3.76-6.27-1.42-12.03-2.03-18.07c0.43-14.42-1.65-28.86,1.19-43.23c0.65-1.11,1.65-2.03,2.95-2.79
	c9.27-2.54,18.45-3.28,27.37,0.74c-3.16,7.32-13,3.55-19.08,5.95c-2.3,1.48-2.04,3.34-1.46,5.25c0.35,0.75,0.6,1.52,0.82,2.29
	c0.51,2.02,0.51,4.03-0.02,6.05c-0.2,0.8-0.48,1.59-0.79,2.37c-1.29,2.92,0.05,5.63,1.41,8.33c1.36,2.48,2.82,5.09,7.42,4.55
	c4.38-0.51,5.15-3.2,5.52-5.88c-0.01-0.95,0.04-1.89,0.07-2.84c-0.04-1.93,0.02-3.86,0.03-5.8c-0.06-2.49-0.04-4.98,0.03-7.48
	c0.01-2.09,0.13-4.17,0.9-6.21c0.45-1.05,1.22-1.97,2.3-2.76c2.02-0.6,3.62-2.22,6.24-1.3c5.09,3.78,3.33,8.6,3.88,13.08
	c0.32,10.56,1.15,21.12-0.51,31.66c-0.36,1.11-1.01,2.15-1.91,3.09c-2.51,1.84-5.16,1.8-7.89,0.26c-3.88-3.02-5.25-11.94-14.15-3.12
	c1.86,3.27,3.55,6.54,0.97,10c-0.74,2.16-0.43,4.09,3.31,4.23c5.18,0.2,6.58-2.89,8.33-5.55c0.71-0.79,1.64-1.39,2.82-1.79
	c7.17,2.28,6.55,8.48,11.53,11.86c0.25,2.5-4.41,6.04,1.85,7.23c4.22,0.81,4.75-2.03,4.49-4.46c-0.36-2.09-2.93-3.74-2.28-6
	c0.9-1.12,2.19-1.99,3.47-2.86c3.1-2.14,2.13-5.83,5.7-7.8c1.27-0.22,2.47-0.09,3.6,0.38c0.86,0.67,1.54,1.43,2.09,2.24
	c1.13,3.36,4.41,4.79,8.9,5.5c3.39,0.53,7.82,0.33,8.29,4.08c-13.65-0.09-21.79,3.89-20.81,14.59c-10.77,1.06-27.2-3.7-23.81,11.94
	c-0.57,0.22-0.95,0.56-1.12,1.01c-0.45-0.07-1.07-0.04-1.34-0.24C172.12,372.95,172.12,372.94,162.81,383.08z"/>
<path class="st146" d="M132.61,355.38c-6.08,3.09-14.46-0.64-20.18,3.53c-0.01,0-1.22,0.16-1.22,0.16s-1.23-0.08-1.23-0.08
	c0.2-4.4-6.19-5.99-7.9-9.58c2.28-2.26,5.63-2.81,9.21-2.99c4.54-0.29,9.08-0.54,13.62,0.07
	C132.01,347.42,135.66,349.9,132.61,355.38z"/>
<path class="st147" d="M255.99,329.35c0.05,0.57,0.07,1.13,0.04,1.7c-2.02,0-4.04,0-6.06,0c-14.74-0.27-15.14-9.21-18.92-16.13
	c-0.44-1.03-0.72-2.08-0.91-3.14c-0.42-3.23-0.38-6.46-0.43-9.7c-0.02-1-0.08-2,0.06-3c0.47-3.23-0.29-8.05,5.08-8.26
	c5.42-0.22,4.63,4.94,6.4,7.8C242.89,309.66,247.87,319.9,255.99,329.35z"/>
<path class="st148" d="M231.21,354.79c-2.22-3.24-6.31-2-9.54-1.72c-8.6,0.75-11.66-1.7-9.73-7.66c4.93-4.09,12-2.89,18.22-3.82
	c1.5,0.12,2.84,0.52,4.02,1.18c1.13,2.05,1.14,4.09-0.09,6.13c-0.12,0.64-0.12,1.28,0,1.91c-0.28,1.37-0.56,2.74-0.84,4.11
	c0,0-1.03,0.02-1.03,0.02L231.21,354.79z"/>
<path class="st149" d="M233.84,314.41c3.95,6.26,5.61,13.67,16.14,16.64c0.28,5.61-4.25,9.01-10.41,11.65
	c-4.98-2.88-7.87-6.5-7.75-11.2C233.57,325.87,226.18,319.67,233.84,314.41z"/>
<path class="st150" d="M233.3,331.22c0.49,4.28,7.79,6.64,6.27,11.48c-1.83,2.07-3.67,4.15-5.49,6.22c-0.17-1.93-0.33-3.87-0.5-5.8
	c-1.16-0.83-2.25-1.7-3.2-2.66c-1.01-0.93-2.03-1.85-2.92-2.84c-0.47-0.72-0.66-1.48-0.54-2.27c2.59-1.35-0.34-3.12,0.65-4.61
	c1.43-0.84,3-0.95,4.68-0.48C232.61,330.58,232.95,330.9,233.3,331.22z"/>
<path class="st65" d="M158.59,380.42l0.81,0.19c0,0-0.08,0.64-0.08,0.63c-0.44,0.16-0.89,0.25-1.38,0.26
	C157.92,381.08,158.14,380.71,158.59,380.42z"/>
<path class="st151" d="M76.73,330.75c-0.21-3.82-6.77-5.7-5.81-9.87c0.72-2.08,2.74-3.28,5.34-4.08c0.82-0.27,2.26-0.33,2.47-0.71
	c5.49-9.87,18.09-14.97,28.08-21.8c8.31-8.55,15.6-17.91,31.22-20.77c2.2,0.67,4.42,0.81,6.63-0.07c1.29,0.01,2.52,0.2,3.69,0.58
	c15.73,4.72,16.6,6.23,9.73,16.95l0.21-0.28c-5.17,8.45-1.12,17.42-2.84,26.04c-1.64,8.2,2.09,16.42-0.56,24.6
	c-5.83,4.49-13.12-0.18-19.38,1.62c-7.61,1.62-15.67,0.9-23.32,2.38c-6.65,0.89-13.07,0.78-18.82-2.24
	C89.57,337.76,83.79,333.81,76.73,330.75z"/>
<path class="st152" d="M93.39,343.08c6.4-0.03,12.8-0.06,19.2-0.09c2.9,3.04,0.98,4.72-3.15,5.78c-2.45,0.21-4.91,0.42-7.35,0.63
	c-1.15-0.13-2.31-0.27-3.47-0.4C96.87,347.03,95.13,345.06,93.39,343.08z"/>
<path class="st153" d="M162.81,383.08c0.6-6.4-0.89-13.54,13.93-12.06c11.12,1.11,1.99,9.14,8.72,11.31c0.19,0.34,0.19,0.68,0,1.02
	C177.88,385.01,170.33,384.62,162.81,383.08z"/>
<path class="st154" d="M255.99,329.35c-15.06-6.76-15.96-17.86-17.11-28.88c-2.2-13.6-2.2-13.6,15.34-19.37
	c1.41-0.43,2.88-0.73,4.38-0.96c1.49-0.23,3.01-0.35,4.53-0.4c8.08,0.43,15.27-1.67,22.72-3.6c7.05-1.84,13.84-1.84,9.61,6.18
	l-0.12,0.09c-1.75,1.43-3.7,2.73-5.27,4.27c0.61,8.94-6.98,15.64-12.76,22.64c-2.42,2.93-4.66,5.54-5,8.91
	C266.86,321.92,261.43,325.63,255.99,329.35z"/>
<path class="st155" d="M233.31,221.54c3.35-6.37,10.87-2.65,16.49-3.51c7.31,7.1,21.25,1.46,28.96,7.79
	c3.73,3.07,10.11,1.3,14.06,3.97c18.78,0.57,20.15,1.98,19.65,20.26c-1.95,4.05-3.9,8.09-5.86,12.14
	c-9.2,2.64-11.67-4.65-17.99-6.28c-5.97-3.34-7.75-8.78-12.96-12.74c-10.43-7.94-22.95-10.47-37.24-10.6
	c-1.81-0.65-3.78-1.26-1.84-3.07c2.19-2.8,0.97-4.64-3.08-5.69C233.45,223.05,233.38,222.29,233.31,221.54z"/>
<path class="st156" d="M289.74,254.14c7.73,0.41,9.33,7.46,16.88,8.05c0.32,7.86-5.4,13.99-11.16,20.11
	c0.47-5.48-2.92-6.43-8.88-3.71c-7.66,3.49-15.99,4.36-24.79,3.81c-0.87-0.88-0.91-1.76,0-2.64c1.42-0.85,3.04-1.4,4.78-1.86
	c21.02-5.54,21-5.55,21.42-21.16C288.02,255.75,288.8,254.88,289.74,254.14z"/>
<path class="st156" d="M290.06,286.66c-0.18-2.66,1.59-4.08,5.27-4.27C295.43,285,293.63,286.4,290.06,286.66z"/>
<path class="st157" d="M301.27,206.28c-0.12,8.18-3.5,18.14,16.3,15.48c0.09,2.61,0.19,5.22,0.28,7.82
	c-11.21-2.68-22.42-5.37-33.63-8.05c-1.71-1.02-4.06-0.78-5.89-1.56l-0.21,0.04c-1-2.49,1.41-3.19,3.87-3.86
	c1.18-0.15,2.39-0.17,3.58-0.08c2.58,0.13,5.24,1.41,7.68-0.29c2.79-3.36-1.39-8.43,5.18-10.79
	C299.83,204.9,300.8,205.31,301.27,206.28z"/>
<path class="st158" d="M284.82,217.5c-2.23,0.84-4.46,1.67-6.7,2.51c-5.4-0.84-10.8-1.68-16.21-2.52c-0.67-2.71,2.3-3.24,4.71-4.12
	c1.71-0.52,3.39-1.13,5.13-1.59c3.63-0.96,5.28-6,10.12-3.5C285.76,210.29,286.41,213.99,284.82,217.5z"/>
<path class="st159" d="M268.63,215.13c-2.24,0.79-4.48,1.57-6.72,2.36c-1.87,0.05-3.74,0.1-5.62,0.14c-0.53-0.48-0.99-1-1.37-1.55
	c1.44-1.27,1.31-2.25-1.06-2.79c-2.02-1.54-4.3-2.98-3.96-5.4c4.11-0.79,7.79,0.05,11.29,1.54
	C265.17,210.33,267.74,212.16,268.63,215.13z"/>
<path class="st160" d="M292.82,229.79c-4.98-0.8-12.22,2.55-14.07-3.97C284.2,225.77,289.83,225.37,292.82,229.79z"/>
<path class="st158" d="M278.33,219.97c2.37-0.28,4.44,0.04,5.89,1.56C282.25,221.01,280.29,220.49,278.33,219.97z"/>
<path class="st161" d="M56.95,308.14c0.84-5.73,8.42-8.56,11.23-13.44c4.36-2.84,9.8-4.74,13.61-8.05
	c21.74-7.92,38.14-19.28,45.45-36.49c1.63-1.16,3.46-1.36,5.48-0.57c4.8,4.12,2.34,8.63,0.83,14.43c8.22-6.15,6-15.03,14.87-19.36
	c3.86-2.08,7.25-5.36,12.98-2.64c-1.49,10.75-4.19,21.18-15.53,29.22c-12.36,3.11-23.9,6.47-30.99,15.69
	c-3.32,4.32-10.2,7.73-17.52,9.68c-7.56,2.01-14.21,5.08-18.89,9.98c-2.7,1.94-4.56,4.24-5.71,6.86c-1.69,2.03-3.36,4.11-7.48,3.11
	l-0.27-0.13c-1.13-0.41-2.07-0.98-2.84-1.7c-1.12-1.35-2.25-2.7-3.37-4.04c-0.73-0.67-1.31-1.41-1.71-2.21L56.95,308.14z"/>
<path class="st162" d="M75.48,306.42c3.31-6.11,10.41-9.39,18.27-11.53c9.91-2.7,17.62-6.84,22.8-13.56
	c5.8-7.53,16.94-8.73,26.97-11.17c1.81,0.2,3.01,0.96,3.78,2.11c0.16,0.83-0.12,1.57-0.9,2.2c-0.99-0.05-1.98-0.11-2.98-0.16
	c-0.85,0.71-1.72,0.72-2.59,0.02c-14.21,3.66-21.88,12.49-30.97,20.21c-0.59,0.52-0.95,1.36-1.66,1.58
	c-14.84,4.56-24.68,12.77-32.29,22.64c-1.66,0.71-3.33,1.42-4.99,2.13c-1.88-1.44-3.76-2.88-5.64-4.33
	c2.63-0.59,4.63-1.67,5.48-3.64C71.97,310.61,72.74,308.15,75.48,306.42z"/>
<path class="st141" d="M57.08,308.47c0.57,0.74,1.14,1.48,1.71,2.21C58.23,309.95,57.66,309.21,57.08,308.47z"/>
<path class="st162" d="M62.17,314.73c0.95,0.57,1.9,1.13,2.85,1.7C64.07,315.86,63.12,315.29,62.17,314.73z"/>
<path class="st163" d="M108.69,196.66c2.28,0.28,4.56,0.56,6.84,0.84c7.09,2.91,11.48,6.44,5.58,12.37
	c-1.68,0.8-4.21,0.49-5.29,2.08l-0.05-0.01c-1.88,0.72-4.36,0.44-5.84,1.82l0.03-0.02c-5.71,1.75-11.69,0.95-17.48,0.6
	c-3.1-0.18-2.74-2.05-0.91-3.52c1.66-0.82,3.55-1.23,5.53-1.39c2.22-0.18,4.49-0.19,6.7-0.35c0.89-0.29,1.48-0.78,1.59-1.51
	c-1.2,1.19-2.86,1-4.52,0.94c-18.78-2.39-22.84-5.66-18.7-15.01c14.6-7.51,22.63-7.95,29.74-1.63c-2.64,1.44-8.15-1.07-8.64,2.79
	C103.03,196.51,106.56,196.36,108.69,196.66z"/>
<path class="st164" d="M73.18,219.4c-2.51,0.22-5.03,0.45-7.54,0.67c-4.08,0.9-8.14,1.16-12.12-0.29l0,0
	c-1.47-1.35-4.12-0.91-5.78-1.98c-14.54-10.5-12.9-16.18,6.96-24.02c6.33-0.12,12.66-0.23,18.98-0.35c1.27,1.35,1.36,2.75,0.39,4.2
	c-1.93,1.52-4.53,1.99-7.15,2.41c-6.61,0.54-7.38,3.53-5.99,7.41c0.56,0.75,1.1,1.5,1.7,2.22c2.61,2.72,6.42,3.42,10.71,3.3
	c1.16-0.12,2.32-0.24,3.48-0.41c1.16-0.22,2.33-0.33,3.52-0.4c1.21,0.01,2.37,0.19,3.49,0.52c0.44,0.29,0.87,0.59,1.3,0.89
	c-0.28,0.68-0.56,1.35-0.84,2.03c-0.72,0.72-1.61,1.31-2.67,1.76c-0.73,0.31-1.52,0.45-2.37,0.42
	C77.47,218.82,75.02,218.51,73.18,219.4z"/>
<path class="st165" d="M126.95,189.5c3.72-1.63,7.43-3.27,11.15-4.9c1.35-0.52,2.78-0.89,4.29-1.09c4.42-0.22,8.89-0.45,13.25,0.13
	c3.06,0.41,6.42,1.19,3.86,4.38c-2.03,1.44-4.75,1.97-7.28,2.79c-4.71,1.53-4.9,4.53-4.44,7.65c0.51,3.45,3.95,4.03,7.93,4.34
	c4.92,0.39,10.43-0.35,13.93,3.26c-0.56,4.4-5.36,4.55-9.78,5.09c-7.03,0.87-14.11,0.36-21.18,0.43
	C122.18,208.41,118.11,200.75,126.95,189.5z"/>
<path class="st166" d="M126.95,189.5c-3.96,8.99-2.87,16.53,11.31,20.29c6.64,1.92,13.62,0.25,20.37,0.97
	c0.58,0.27,1.16,0.54,1.74,0.81c-6.64,3.44-14.41,1.42-21.58,2.29c-6.64-0.74-13.8,0.98-19.95-2.15c-1.05-0.46-1.38-0.89-0.98-1.28
	c0.38-0.38,0.76-0.56,1.15-0.56c5.96-5.16,0.94-8.72-3.48-12.37C123.34,197.79,118.72,188.91,126.95,189.5z"/>
<path class="st167" d="M73.66,197.54c0.01-1.37,0.02-2.74,0.03-4.11c2.83,0.02,5.66,0.05,8.48,0.07c-1.5,7.19,3.73,10.49,12.83,11.8
	c4.04,0.58,7.96,1.6,11.93,2.41c0.64,0.42,0.82,0.81,0.55,1.17c-0.26,0.35-0.51,0.52-0.75,0.52l0.05,0
	c-1.33,1.49-3.96,1.06-5.67,1.98c-1.56-0.03-3.12-0.05-4.68-0.08c-2.78-1.13-5.86-0.25-8.74-0.68c-1.12-0.36-2.13-0.85-3.04-1.44
	C80.78,205.41,73.63,203.22,73.66,197.54z"/>
<path class="st168" d="M108.69,196.66c-4.15,0.2-8.36,0.55-11.57-2.3c3.65-5.18,9.86-1.97,14.8-2.5
	C112.48,194.04,102.61,192.58,108.69,196.66z"/>
<path class="st169" d="M140.21,185.16c-0.78-0.05-1.48-0.23-2.12-0.56c-0.05-1.12-0.11-2.25-0.17-3.37
	c8.46,0.02,16.91,0.04,25.37,0.07c0.94,1.09,0.69,2.01-0.74,2.77C155.17,185.11,147.51,183.17,140.21,185.16z"/>
<path class="st170" d="M268.63,215.13c-2.66-1.77-8.07-1.69-7.44-5.69c0.35-1.03,0.7-2.05,1.05-3.08c1.1-3.2,1.53-6.58,5.08-9.08
	c0.51-0.28,0.67-0.64,0.47-1.08c1.18-1.82,0.5-4.08,2.62-5.68c4.15-2.85,8.91-2.58,13.84-1.4c1.64,0.19,3.29,0.38,4.93,0.56
	c2.98,0.73,5.95,1.47,8.93,2.2c1.7,0.68,4.18,0.17,5.26,1.79l0.37,0.19c1.18,0.32,1.97,0.92,2.35,1.78
	c0.34,0.58,0.64,1.17,0.88,1.78c0.53,0.45,0.74,0.91,0.62,1.39c-0.12,0.49-0.26,0.73-0.42,0.73c-0.04,0.69-0.07,1.38-0.11,2.07
	c0,0-0.5-0.1-0.5-0.1c-0.87,0.67-1.66,1.39-2.35,2.17l-0.11,0.06c-1.56,0.92-4.21,0.37-5.22,2.02c-5.3,4.02,3.5,9.62-2.93,13.51
	c-2.78-1.07-6.24,0.04-8.9-1.42l-1.05-0.38c0,0-1.18,0.02-1.18,0.02c-1.49-2.64-2.98-5.28-4.72-8.35
	C277.49,212.33,275.26,216.15,268.63,215.13z"/>
<path class="st171" d="M249.91,207.9c2.01,1.61,6.81,1.83,5.11,5.29c-8.95,1.48-17.68-0.89-26.56-0.8
	c-11.09-7.25-2.23-14.74-0.54-22.16c1.09-2.07,3.55-3.36,5.52-4.92l0.17-0.11c4.72-1.04,9.42-1.74,13.99,0.34
	c2.96,5.26-1.07,10.02-1.97,15.01C245.11,203.42,241.99,207.42,249.91,207.9z"/>
<path class="st172" d="M231.07,189.49c0.15,7.36-7.18,14.28-2.5,21.91c0.76,0.53,0.93,0.96,0.51,1.28
	c-0.35,0.27-0.71,0.41-1.08,0.41c-6.95-0.35-13.9-0.7-20.84-1.05c0.78-3.18,5.52-4.57,6.57-7.63c2.47-4.76,3.26-9.49-0.3-14.15
	c-1-0.98-2.14-1.87-3.52-2.59c-0.98-0.4-1.93-0.84-2.89-1.26c-1.99-0.85-4-1.69-5.27-3.16c-0.35-0.91,0.08-1.55,1.29-1.93
	c4.72,0.1,9.43,0.2,14.15,0.3c3.23,1.79,6.7,3.21,10.79,3.71c0.95,0.01,1.9,0.02,2.86,0.03
	C232.53,186.69,232.3,188.07,231.07,189.49z"/>
<path class="st173" d="M227.97,185.33c-4.3,3.97-5.46,3.57-10.79-3.71c3.56-0.01,7.11-0.02,10.67-0.03
	C227.89,182.84,227.93,184.08,227.97,185.33z"/>
<path class="st138" d="M284.25,189.13c-4.82,0.38-10.58-1.58-13.74,2.88c-1.58-0.78-1.71-1.67-0.4-2.67
	C274.74,186.09,279.46,186.46,284.25,189.13z"/>
<path class="st174" d="M267.32,197.29c-0.39,3.4-1.64,6.55-5.07,9.07C262.28,202.86,259.56,198.56,267.32,197.29z"/>
<path class="st135" d="M247.6,185.54c-4.67-0.11-9.33-0.22-13.99-0.34C238.42,182.17,243.06,182.73,247.6,185.54z"/>
<path class="st174" d="M270.11,189.34c0.13,0.89,0.27,1.78,0.4,2.67c-0.91,1.4-1.81,2.8-2.72,4.2
	C267.14,193.67,267.01,191.22,270.11,189.34z"/>
<path class="st135" d="M231.07,189.49c-0.08-1.38-0.16-2.75-0.24-4.13c0.86-0.14,1.73-0.16,2.61-0.05
	C232.65,186.7,231.86,188.09,231.07,189.49z"/>
<path class="st175" d="M53.53,219.78c4.04,0.1,8.07,0.19,12.11,0.29c-0.36,0.54-0.71,1.08-1.06,1.63
	C60.81,221.31,56.65,222.1,53.53,219.78z"/>
<path class="st175" d="M47.75,217.8c2.41-0.07,4.54,0.28,5.78,1.98C51.03,219.98,48.94,219.58,47.75,217.8z"/>
<path class="st176" d="M162.72,183.76c0.19-0.82,0.38-1.65,0.58-2.47c4.58,0.13,9.17,0.26,13.75,0.38c1.09,0.51,1.47,1.21,1.15,2.12
	c-0.66,1.23-1.63,2.34-2.68,3.42c-1.46,1.53-2.99,3-5.62,3.6c-2.8,0.41-5.38,0.2-7.52-1.33
	C161.16,187.55,161.57,185.64,162.72,183.76z"/>
<path class="st177" d="M177.22,182.83c-0.06-0.39-0.11-0.77-0.18-1.15c8.66-0.12,17.32-0.24,25.98-0.36
	c-0.19,0.64-0.33,1.28-0.39,1.93C194.04,187.32,185.54,187.81,177.22,182.83z"/>
<path class="st112" d="M298.88,205.77c0.94-1.75,2.76-2.31,5.22-2.02c-0.95,0.84-1.89,1.69-2.84,2.53
	C300.47,206.11,299.68,205.94,298.88,205.77z"/>
<path class="st112" d="M304.21,203.69c0.78-0.72,1.57-1.45,2.35-2.17C305.78,202.24,305,202.96,304.21,203.69z"/>
<path class="st112" d="M303.38,193.68c-1.76-0.6-3.51-1.19-5.27-1.79C300.44,191.62,302.38,191.93,303.38,193.68z"/>
<path class="st112" d="M307.18,199.56c-0.07-0.71-0.13-1.42-0.2-2.12c0.35,0.49,0.79,0.96,1,1.47
	C308.04,199.05,307.46,199.33,307.18,199.56z"/>
<path class="st112" d="M306.1,195.66c-0.78-0.6-1.57-1.19-2.35-1.79C304.53,194.47,305.32,195.06,306.1,195.66z"/>
<path class="st178" d="M160.26,241.97c-3.68,1.35-7.36,2.7-11.04,4.05c-3.56,2.04-7.28,2.52-11.26,0.62c-1.65-1.6-1.78-3.2,0.01-4.8
	c4.88-4.51,9.52-9.2,16.75-12.02c3.65-1.52,8.36-1.31,11.52-3.64c15.29-4.43,30.52-5.69,45.89-0.02c7.62,2.81,15.91,3.73,24.46,3.33
	c0.77,0.62,1.53,1.24,2.3,1.86c21.67,1.95,39.05,8.04,47.02,24.06c6.87,13.81,4.23,17.73-15.84,21.37
	c-5.79-0.14-10.74-1.18-12.16-5.94c0.46-2.47,3.04-4.03,4.86-5.96c5.64-5.98,3.11-8.77-5.3-12.23
	c-17.17-7.05-36.76-8.22-54.89-12.85C188.9,236.32,174.1,238.32,160.26,241.97z"/>
<path class="st179" d="M137.97,241.84c0.04,1.41,0.08,2.82,0.12,4.23c2.03,4.1,0.1,5.43-5.59,4.12c-1.75-0.01-3.51-0.02-5.26-0.03
	C129.55,246.54,131.73,242.84,137.97,241.84z"/>
<path class="st180" d="M81.79,286.64c-2.34,4.61-6.39,7.71-13.61,8.05C70.38,289.97,76.1,288.32,81.79,286.64z"/>
<path class="st181" d="M166.24,226.18c-1.55,4.96-7.12,3.35-11.52,3.64C157.85,227.46,161.44,225.82,166.24,226.18z"/>
<path class="st182" d="M171.38,189.58c0.85-1.44,1.69-2.87,2.54-4.31c5.25,2.46,4.15,6.43,4.41,10
	c0.85,11.54,0.79,11.54,16.98,11.59c2.33,0.01,4.66-0.05,6.97-0.14c1.24-0.1,2.48-0.27,3.67-0.55c2.36-0.47,4.69-1.01,7.07-1.44
	c1.24-0.15,2.4,0.02,3.48,0.46c0.16,4.59-5.41,5.15-9.34,6.86c-15.6-0.15-31.19-0.31-46.79-0.46c0,0,0.18,0.15,0.18,0.15
	c-0.98-0.42-1.31-0.85-1.01-1.3c0.31-0.45,0.62-0.67,0.94-0.67c3.86-0.08,7.14-0.78,8.14-3.92c-0.82-3-0.78-6.03-0.6-9.07
	C168.09,194.12,168.83,191.63,171.38,189.58z"/>
<path class="st183" d="M228,213.09c0.07-0.59,0.25-1.15,0.57-1.69c8.82,0.6,17.64,1.2,26.45,1.8c2.58,1,2.59,1.97-0.08,2.9
	C245.95,215.09,236.98,214.09,228,213.09z"/>
<path class="st184" d="M87.93,209.99c2.83,0.44,5.66,0.88,8.49,1.32c-0.53,0.75-6.16,0.84-1.24,2.09c4.43,1.12,9.81,0.31,14.77,0.35
	c-7.75,2.84-15.48,3.06-23.19-0.07C85.63,212.21,85.91,210.96,87.93,209.99z"/>
<path class="st167" d="M87.93,209.99c-0.39,1.23-0.77,2.46-1.16,3.69c-0.55-0.05-1.1-0.09-1.65-0.09c0,0-0.97,0.22-0.97,0.22
	c-0.96-1.09-3.24-1.51-3.14-3.15c1.38-1.98,3.3-2.62,6.03-1.25L87.93,209.99z"/>
<path class="st175" d="M73.18,219.4c1.47-1.6,3.65-1.82,6.06-1.59C77.22,218.34,75.2,218.87,73.18,219.4z"/>
<path class="st184" d="M109.93,213.77c1.28-1.71,3.35-2.11,5.84-1.82C114.52,213.72,112.29,213.86,109.93,213.77z"/>
<path class="st184" d="M119.01,209.87c-0.02,0.62-0.08,1.23-0.17,1.85c-1.01,0.08-2.01,0.16-3.02,0.24
	C116.88,211.26,117.94,210.56,119.01,209.87z"/>
<path class="st175" d="M81.61,217.39c0.89-0.59,1.78-1.18,2.67-1.76C83.4,216.21,82.5,216.8,81.61,217.39z"/>
<path class="st185" d="M146.4,274.47c0.13-0.65,0.26-1.31,0.39-1.96c4.91-3.57,8.61-7.48,8.15-12.86c-0.46-5.36,3.83-8.43,10.3-10.3
	c1.36-0.18,2.68-0.04,3.95,0.36c4.26,4.66-1.27,9.82,1.99,15.43c9.5-6.78,19.43-2.88,27.87,0.69c7.92,3.35,0.27,8.9-0.1,13.68
	c7.03-0.5,9.41-8.17,17.87-5.54c2.71,6.48-4.82,10.97-6.23,16.65c-3.79,5.39-10.54,9.24-14.59,14.55c-2.31,3.03-5.25,1.75-7.53-0.47
	c-1.49-4.02,2.19-8.52-2.2-12.28l-0.31-0.22c-9.08-2.91-18.57-0.94-27.87-1.23C161.9,282.65,154.99,278.25,146.4,274.47z"/>
<path class="st186" d="M188.47,304.7c9.28-2.72,11.56-10.31,19.12-14.22c6.41,5.07,1.32,11.55,4.02,17.24
	c1.66,3.48,2.41,7.11,5.85,10.03c3.8,5.67,8.56,11.05,10.18,17.37c0.01,0.41,0.03,0.82,0.06,1.23c-6.8,5.52-16.8,3.32-25.05,5.37
	c-5.04,0.07-10.1,0.17-13.65-3.12C188.83,327.31,188.65,316,188.47,304.7z"/>
<path class="st185" d="M154.81,339.02c-7.07-12.41,1.2-25.54-3.27-38.24c-0.8-2.27,1.74-7.64,6.75-10.09
	c-0.32,16-0.64,32-0.97,47.99C156.81,340.08,155.98,340.19,154.81,339.02z"/>
<path class="st187" d="M109.43,348.78c2.22-1.6,4.3-3.24,3.15-5.78c7.09-3.61,15.06-1.39,22.64-1.76c1.58,1.3,1.6,2.6-0.02,3.89
	c-1.56,3.33,2.07,7.34-2.59,10.26C130.36,343.24,116.67,351.87,109.43,348.78z"/>
<path class="st188" d="M172.53,367.87c-4.7,0.06-9.61,0.65-9.47-4.71c0.14-5.43,5.22-5.6,10.54-5.76c4.85-0.15,9.34-0.37,9.33,4.89
	C182.92,367.96,177.77,367.73,172.53,367.87z"/>
<path class="st189" d="M157.79,359c-0.06,3.38,3.37,7.74-3.69,9.32c-4.28,0.96-9.74,1.89-13.39-0.43c-3.76-2.4-3.36-5.89,0.01-8.86
	C146.4,356,152.09,356.04,157.79,359z"/>
<path class="st190" d="M189.01,338.61c4.45,0.21,8.91,0.41,13.36,0.62c0.97,0.27,1.43,0.79,1.49,1.51c0.69,1.64,3.97,1.05,4.57,2.74
	c-0.95,3.22,2.25,7.15-3.15,9.62c-0.87-0.75-1.81-1.47-2.78-2.15c-1.59-1.12-4-3.1-5.48-1.9c-2.48,2,2.73,2.64,2.96,4.47
	c1.85,1.2,3.71,2.4,5.56,3.6c-3.92,2.15-7.76,2.7-11.45-0.27c-9.93-0.87-6.59-8.21-11.06-11.74c-1.97-4.07,4.96-1.9,5.61-4.13
	C188.77,340.18,188.89,339.4,189.01,338.61z"/>
<path class="st191" d="M182.52,319.49c1.95,6.71-2.34,9.15-11.28,8.93c-9.7-0.24-8.46-4.64-7.27-9.17
	C170.27,315.02,176.45,315,182.52,319.49z"/>
<path class="st192" d="M194.1,356.84c3.82,0.09,7.63,0.18,11.45,0.27c0.02,3.46,5.1,8.28-3.73,9.49c-4.4,0.61-10.68,2.45-13.36-1.9
	C186.35,361.29,186.59,357.37,194.1,356.84z"/>
<path class="st193" d="M182.91,302.74c0.09,2.63,0.18,5.26,0.27,7.89c-6.72,3.6-13.4,4.13-20.05-0.09c0.11-2.58,0.21-5.16,0.32-7.75
	C169.91,298.75,176.4,299.13,182.91,302.74z"/>
<path class="st194" d="M163.88,338.66c-2.33-6.29,1.38-7.87,9.88-7.96c9.3-0.1,9.74,3.1,8.35,8.01
	C176,343.17,169.94,340.98,163.88,338.66z"/>
<path class="st195" d="M140.71,355.48c-3.38-2.81-2.16-5.59,0.11-8.36c4.79-2.87,10.32-3.5,15.27-0.95c4.3,2.21,4,5.63,1.14,8.8
	l0.21,0.06C152.02,358.13,146.41,357.72,140.71,355.48z"/>
<path class="st196" d="M182.31,347.34c2.69,8.29-5.78,7.61-12.42,7.52c-9.36-0.12-7.16-4.19-4.49-8.11
	C171.15,345.24,176.94,343.22,182.31,347.34z"/>
<path class="st197" d="M182.31,347.34c-5.63-0.19-11.27-0.39-16.9-0.58c6.65-3.4-0.07-5.49-1.53-8.09
	c6.08,0.02,12.15,0.04,18.23,0.05c1.02,2.49,3.79,2.36,6.54,2.25c1.72,3.9-5.68,1.39-5.61,4.13
	C182.79,345.85,182.55,346.59,182.31,347.34z"/>
<path class="st198" d="M202.37,340.71c0.03-0.49,0.03-0.99,0-1.48c8.45-0.95,16.89-1.91,25.34-2.87c1.86,0.94,3.71,1.87,5.57,2.81
	c-1.55,1.04-0.66,2.86-2.38,3.85c-5.83,2.84-12.62,1.74-18.98,2.39c-0.3-0.77-0.6-1.53-0.9-2.3c0.34-0.56,0.93-0.78,1.76-0.65
	c-0.01-0.01-0.35-0.76-0.35-0.76s-0.92,0.44-0.99,0.44C208.43,341.5,204.78,343.1,202.37,340.71z"/>
<path class="st199" d="M157.24,354.97c2.58-11.33-9.52-6.77-16.42-7.84c0.15-0.79,0.3-1.58,0.45-2.37
	c3.05-1.43,6.99,0.21,11.11-1.66c0.69-0.1-2.43-0.88-1.29,0.19c-3.37,1.5-6.68,0.98-9.96-0.18c-1.97,0.67-3.95,1.34-5.92,2.01
	c0.01-1.3,0.01-2.59,0.02-3.89c6.42-1.22,13.63,1.16,19.58-2.21c0.87,0.03,1.71-0.08,2.52-0.33
	C161.18,344.13,163.57,349.56,157.24,354.97z"/>
<path class="st200" d="M199.98,353.52c-3.94-1.26-11.38,1.93-11.47-4.13c-0.07-5,6.05-4,10.23-4.24c9.31-0.54,7.18,4.09,6.54,7.95
	C203.52,353.25,201.75,353.38,199.98,353.52z"/>
<path class="st201" d="M182.91,302.74c-6.49,0.02-12.98,0.03-19.47,0.05c0,0-0.85-0.43-0.85-0.43c-0.91-2-0.92-4,0.11-5.98
	c1.01-0.78,2.22-1.3,3.65-1.56c5.67-0.05,11.59-1.36,16.61,1.76C182.94,298.64,182.93,300.69,182.91,302.74z"/>
<path class="st202" d="M163.13,310.54c6.68,0.03,13.37,0.06,20.05,0.09c-0.11,1.95-0.22,3.91-0.33,5.86
	c-8.18,0.46-19.13,6.51-21.19-5.41C162.14,310.89,162.63,310.71,163.13,310.54z"/>
<path class="st203" d="M140.71,355.48c5.58-0.15,11.16-0.3,16.73-0.46c0.12,1.32,0.23,2.65,0.35,3.97
	c-5.69,0.01-11.38,0.02-17.07,0.03C140.72,357.85,140.71,356.67,140.71,355.48z"/>
<path class="st204" d="M161.65,311.08c3.1,9.82,13.88,4.1,21.19,5.42c-0.11,1-0.21,2-0.32,2.99c-6.18-0.08-12.37-0.17-18.55-0.25
	C159.64,317.04,159.63,314.21,161.65,311.08z"/>
<path class="st205" d="M160.4,296.19c6.57-7.79,17.38-1.53,25.56-3.99c0,0,0.3,0.22,0.31,0.22c-1.06,0.76-2.12,1.51-3.18,2.27
	c-6.33,2.32-13.6-0.7-19.89,1.83l0.03-0.03C162.03,297.64,161.09,297.54,160.4,296.19z"/>
<path class="st206" d="M163.19,296.52c6.04-3.91,13.23-1.39,19.89-1.83c0.09,0.64,0.05,1.27-0.12,1.9
	C176.37,296.56,169.78,296.54,163.19,296.52z"/>
<path class="st207" d="M216.44,341.3c-1.8,0.61-3.6,1.21-5.41,1.82c0,0-1.36-0.02-1.36-0.02s-1.25,0.38-1.25,0.38
	c-3.1-0.83-7.18,1.31-9.59-1.63c1.18-0.38,2.35-0.76,3.53-1.15c4.64,0.17,9.28,0.34,13.92,0.51L216.44,341.3z"/>
<path class="st208" d="M141.13,343.11c3.61,0,7.22,0,10.83,0c0.03,0.55,0.07,1.1,0.1,1.65c-3.6,0-7.2,0-10.8,0
	C141.16,344.22,141.12,343.67,141.13,343.11z"/>
<path class="st206" d="M160.4,296.19c0.94,0.1,1.88,0.2,2.82,0.3c-0.21,1.96-0.42,3.92-0.63,5.87
	C159.74,300.69,160.64,298.34,160.4,296.19z"/>
<path class="st209" d="M233.84,314.41c0.25,4.45-1.9,9,3.06,13.13c2.92,2.43-1.14,3.04-3.6,3.68c0,0,0.14-0.05,0.14-0.05
	c-1.47-1.59-4.34-1.8-6.04-3.17c-0.37-0.37-0.72-0.75-1.09-1.12c-0.55-0.82-0.94-1.69-1.21-2.58c0.75-6.12-5.28-9.69-10.08-13.74
	c-0.67-0.91-1.14-1.86-1.49-2.86c-3.13-8.37,2.99-15.52,6.56-22.78c2.65-5.39,8.84-6.31,14.72-1.33c0.38,1.04,0.35,2.08-0.07,3.11
	c-6.79,8.45-4.7,17.19-1.66,25.98C233.61,313.19,233.86,313.77,233.84,314.41z"/>
<path class="st210" d="M256.35,282.57c-9.88,3.92-21.2,7.12-17.46,17.9c-1.33-2.58-2.66-5.16-4.67-9.06
	c-0.41,4.76-0.71,8.19-1.01,11.61c-6.7-5.61-5.7-11.11,0.5-16.52l-0.02,0.02c4.99-6.58,13.1-8.67,22.97-8.22
	C257.83,279.78,257.79,281.2,256.35,282.57z"/>
<path class="st149" d="M233.71,286.5c-4.02,5.44-4.5,10.94-0.5,16.52c-0.04,3.22-0.08,6.44-0.12,9.65
	C225.44,305,225.75,291.8,233.71,286.5z"/>
<path class="st211" d="M230.91,343.03c-0.14-1.58-0.45-3.22,2.38-3.85c0.1,1.31,0.19,2.63,0.29,3.94c0,0-1.35,0.18-1.35,0.18
	L230.91,343.03z"/>
<path class="st212" d="M227.65,335.12c-4.83-5.02-11.33-9.45-10.96-16.28c0.47-0.29,0.95-0.58,1.42-0.87
	c1.91-0.4,3.65-0.19,5.19,0.75c1.14,1.07,1.65,2.32,1.8,3.64c0.05,1.75,0.83,3.31,2.39,4.66l0.88-0.15
	c0.99,1.05,1.24,2.13,0.25,3.27C228.25,331.8,230.72,333.74,227.65,335.12z"/>
<path class="st149" d="M228.62,330.14c-0.08-1.09-0.17-2.18-0.25-3.27c1.69,1.43,3.39,2.86,5.08,4.3
	C231.84,330.82,230.23,330.48,228.62,330.14z"/>
<path class="st213" d="M75.91,318.75c2.46-14.49,18.29-19.3,33.95-24.22c-0.42,1.59-0.21,4.26-1.36,4.61
	c-11.93,3.62-22.92,7.57-23.65,18.65C84.83,318.21,79.03,318.43,75.91,318.75z"/>
<path class="st212" d="M140.83,274.33c0.86,0.01,1.73,0.01,2.59-0.02C142.57,275.37,141.71,275.33,140.83,274.33z"/>
<path class="st214" d="M256.35,282.57c-0.02-1.25-0.03-2.5-0.05-3.75c0.56-1.31,2.04-1.83,3.66-2.23c2.1-0.42,4.36-0.16,6.41-0.79
	c1.47-0.45,2.98-0.81,4.45-1.27c15-1.44,18.21-7.57,13.06-17c-5.84-10.7-15.36-18.58-31.28-22.02c-4.67-1.01-10.31-0.78-13.71-4.14
	c12.45-4.03,23.21,0.65,32.14,5.18c8.14,4.13,15.46,10.09,18.7,17.59c7.06,17.79,0.22,24.31-27.69,26.35
	c-1.02,0.7-2.22,1.23-3.32,1.86C257.94,282.44,257.15,282.51,256.35,282.57z"/>
<path class="st210" d="M258.73,282.35c1.1-0.62,2.21-1.24,3.32-1.86c-0.14,0.63-0.23,1.27-0.26,1.91
	C260.77,282.39,259.75,282.37,258.73,282.35z"/>
<path class="st158" d="M287.05,217.85c2.97,0.48,5.94,0.95,8.9,1.42C292.65,219.87,289.47,220.09,287.05,217.85z"/>
<path class="st212" d="M216.69,318.85c-13.45-4.76-7.31-14.27-9.94-21.62c-0.74-2.06,0.51-4.49,0.84-6.75
	c0.5-6.14,5.83-10.85,9.28-16.12c7.46-4.29,16.78-5.29,25.43-7.49c5.22-1.4,10.78-2.26,15.25-4.85c0.62-0.67,1.17-1.37,1.55-2.12
	c-2.23-5.12-9.69-2.62-13.82-4.93c-8.25-3.98-16.93-6.77-27.25-6.55c-6.2,0.13-11.6-2.21-17.02-4.13c-19.47-3.76-27-2.52-34.76,5.77
	c-4.98,3.72-9.53,7.24-8.85,13.3c0.52,4.65-1.88,9.22-10.61,9.14c-1.09-0.78-2.18-1.57-3.27-2.35c10.86-7.78,9.66-19.25,16.75-28.19
	c13.13-9.3,29.16-7.46,44.17-4.53c8.87,1.73,17.69,3.28,26.59,4.83c12.45,2.17,25.91,5.37,35.42,11.13
	c10.96,6.65,2.07,12.88-7.34,17.19c-4.5,6.23-13.59,7.43-21.32,7.83c-16.18,0.84-20.61,8.32-22.13,17.64
	c-0.78,4.79-1.88,9.87,1.03,14.65l0.04,0.06c1.5,1.11,2.43,2.41,2.57,3.98c-0.08,1.58-1.06,2.87-2.49,4.02L216.69,318.85z"/>
<path class="st215" d="M132.5,250.18c3.45-0.26,5.22-1.7,5.59-4.12c3.71-0.02,7.42-0.03,11.14-0.05c-1.91,4.25-6.15,7.61-6.14,12.73
	c0.01,6.03-7.43,7.49-16.47,8.37C130.68,261.29,133.6,256,132.5,250.18z"/>
<path class="st216" d="M75.48,306.42c-1.57,2.16-3.15,4.33-4.72,6.49C70.47,310.05,70.41,307.27,75.48,306.42z"/>
<path class="st184" d="M101.11,211.39c1.89-0.66,3.78-1.32,5.67-1.98C105.82,211.44,103.71,211.78,101.11,211.39z"/>
<path class="st184" d="M106.73,209.41c-0.14-0.58-0.07-1.14,0.2-1.69c0.35,0.44,0.69,0.89,1.04,1.33
	C107.56,209.17,107.15,209.29,106.73,209.41z"/>
<path class="st217" d="M87.05,209.42c-1.76,0.67-3.52,1.34-5.29,2.01c-0.05,1.27-1.85,1.5-2.66,2.32l-0.12,0.06
	c-1.14,0.53-2.39,0.81-3.74,0.81c-6.22-0.24-11.01-2.96-16.26-4.88l0.06-0.01c-3.6-5.38,1.63-8.54,5.81-11.96
	c2.94-0.08,5.87-0.15,8.81-0.23C77.55,201.83,85.34,203.86,87.05,209.42z"/>
<path class="st218" d="M58.98,209.74c7.18-1.8,11.42,3.05,17.39,3.96c0.62,0.81,0.29,1.37-0.86,1.73
	C68.62,215.63,61.46,216.2,58.98,209.74z"/>
<path class="st218" d="M64.85,197.77c1.31,4.8-7.12,7.16-5.81,11.97C53.82,203.95,52.3,199.09,64.85,197.77z"/>
<path class="st175" d="M79.11,213.75c0.88-0.77,1.77-1.55,2.66-2.32c0.8,0.8,1.6,1.59,2.39,2.39
	C82.47,213.79,80.79,213.77,79.11,213.75z"/>
<path class="st175" d="M75.52,215.43c0.21-0.6,0.49-1.17,0.85-1.73c0.87,0.01,1.74,0.04,2.61,0.1
	C77.83,214.35,76.68,214.89,75.52,215.43z"/>
<path class="st176" d="M171.51,197.38c0.14,3.01,1.26,6.2-2.89,8.45c-2.71-0.1-5.52-0.57-8.12-0.22c-9.84,1.32-16.56-0.36-17.7-8.42
	c-1.15-8.05,5.75-9.62,14.7-9.64c1.94,0.46,3.53,1.21,4.28,2.66c1.04,3.24-3.28,4.27-5.51,6.77
	C161.45,198.62,166.88,194.33,171.51,197.38z"/>
<path class="st219" d="M160.57,189.41c-1.02-0.62-2.05-1.24-3.07-1.87c-3.24-1.87-3.24-1.87-17.28-2.39
	c7.23-2.73,14.94-1.49,22.51-1.39c0.19,1.85,0.39,3.71,0.58,5.56C162.44,190.07,161.52,190.06,160.57,189.41z"/>
<path class="st143" d="M160.48,209.76c-0.32,0.66-0.3,1.32,0.07,1.97c-7.38-0.97-15.3,1.27-22.3-1.93
	C145.66,209.78,153.07,209.77,160.48,209.76z"/>
<path class="st220" d="M289.7,199.38c-0.68,2.08-2.59,4.24-5.22,2.41c-3.57-2.47-0.08-4.55,2.79-6.21
	C289.09,196.52,288.02,198.4,289.7,199.38z"/>
<path class="st221" d="M289.7,199.38c-2.87-0.58-2.21-2.34-2.43-3.8c0,0,0.48-0.06,0.48-0.06c0.47-0.07,0.94-0.14,1.41-0.21
	c0.66,0.07,1.03,0.35,1.13,0.82l0.23,0.67C290.24,197.66,289.97,198.52,289.7,199.38z"/>
<path class="st138" d="M290.51,196.8c0,0-0.24-0.68-0.23-0.68c0.01,0.01,0.91,0.23,0.91,0.23L290.51,196.8z"/>
<path class="st138" d="M289.15,195.31c-0.44,0.19-0.91,0.26-1.42,0.21C288.01,194.74,288.27,193.96,289.15,195.31z"/>
<path class="st222" d="M216.5,205.18c-0.9,0.08-1.78,0.21-2.66,0.39c-1.39,1.25-4.23,0.72-5.39,2.26l0.08-0.06
	c-3.94,1.06-7.85,1.54-11.63-0.34c-0.75-2.64,2.03-4.38,3.16-6.53c2.62-3.54,1.35-7.02-0.4-10.49c-2.05-6.36,2.27-6.97,9.16-5.25
	c0.9-0.06,1.66,0.15,2.29,0.61c1.06,0.44,2.05,0.95,2.96,1.53C223.84,192.63,220.01,198.92,216.5,205.18z"/>
<path class="st223" d="M197.49,205.91c2.99,2.76,7.38,1.17,11.04,1.86c-9.15,3.67-18.99,1.36-28.52,1.67
	c-6.12,0.2-6.15-3.04-6.14-6.18c0.03-6,0.02-11.99,0.03-17.99c1.1-0.81,2.21-1.63,3.31-2.44c8.47,0.14,16.95,0.28,25.42,0.42
	c2.06,0.64,4.12,1.27,6.18,1.91c-6.73-0.35-8.21,1.89-5.78,6.06c-0.53,0.25-1.06,0.49-1.58,0.74c-4.59,0.04-8.02-2.39-12.31-2.95
	c-9.87-0.34-7.79,4.98-7.99,8.96c-0.22,4.42,2.68,6.83,9.29,6.11c2.02-0.13,3.97,0.03,5.78,0.71
	C196.67,205.16,197.08,205.53,197.49,205.91z"/>
<path class="st223" d="M214.08,187.3c-0.99-0.51-1.97-1.02-2.96-1.53C212.11,186.28,213.09,186.79,214.08,187.3z"/>
<path class="st224" d="M160.57,189.41c0.91-0.12,1.82-0.15,2.74-0.09c2.69,0.08,5.38,0.17,8.07,0.25c0.04,2.6,0.09,5.21,0.13,7.81
	c-0.45,0.05-0.9,0.13-1.36,0.16c-6.72,0.4-13.85,7.79-19.56,1.87C144.11,192.69,161.12,194.94,160.57,189.41z"/>
<path class="st149" d="M216.68,310.71c-9.64-20.43-3.27-29.98,23.8-35.82c6.24-1.35,12.42-2.86,18.62-4.3
	c2.34,3.72,7.13,3.67,11.72,3.93c-1.18,0.68-2.36,1.35-3.54,2.03c-1.91,0.96-4.3,0.88-6.36,1.51c-1.54,0.25-3.08,0.5-4.61,0.75
	c-7.54,2.57-15.07,5.14-22.61,7.71c-3.03-5.84-8.51-6.14-10.61-0.58C220.05,293.98,213.85,301.83,216.68,310.71z"/>
<path class="st223" d="M208.46,207.83c0.96-1.79,2.98-2.26,5.39-2.26C212.05,206.32,210.25,207.07,208.46,207.83z"/>
<path class="st225" d="M245.03,268.25c-9.15,2.6-17.86,6.23-28.16,6.11c-6.74,0.72-9.18,5.39-14,7.87c-2.43,1.25-3.98,4.47-8,2.82
	c-4.68-1.92-1.49-4.66-0.77-7.15c1-3.42,8.61-5.76,4.39-9.75c-4.09-3.87-13-0.42-17.6-4.7c-0.11-0.1-2.5,0.62-3.02,1.29
	c-2.17,2.74-3.23,7.63-9.09,5.48c-5.07-1.86-2.68-6.78-2.53-10.31c0.14-3.29,1.73-6.54,2.68-9.81c0.85-6.48,6.35-9.24,14.82-9.05
	c6.29,0.14,12.76-1.08,18.88,0.94c6.56,2.59,13.32,4.97,21.05,4.04c10.69-1.3,17,3.84,24.1,7.95c2.8,2.05,6.66,1.78,10.1,2.49
	c3.83,0.8,6.72,2.34,3.9,5.69l-0.1,0.09C256.77,265.14,248.36,263.05,245.03,268.25z"/>
<path class="st226" d="M202.65,241.99c-12.56-0.14-25.75-1.65-33.7,8.11c-0.9-0.02-1.8-0.03-2.69-0.03
	c-1.29-7.33,2.89-11.04,13.42-10.08C187.32,240.68,195.6,237.76,202.65,241.99z"/>
<path class="st227" d="M216.3,341.23c1.78-1.8,3.97-2.73,6.88-1.38c0.49,0.23,0.82,1.32,0.5,1.63c-2.45,2.4-4.81-0.01-7.24-0.18
	C216.44,341.3,216.3,341.23,216.3,341.23z"/>
<path class="st149" d="M216.87,314.53c-0.05-1.25-0.1-2.51-0.15-3.76c10.84,2.16,12.33,7.85,10.74,14.7
	c-2.9,0.06-3.9-1.48-4.89-3.02c-0.34-1.21-0.68-2.42-1.02-3.63C219.7,317.56,218.04,316.19,216.87,314.53z"/>
<path class="st150" d="M222.57,322.46c1.63,1,3.26,2.01,4.89,3.01c0.03,0.52,0.04,1.03,0.03,1.55
	C223.79,326.65,222.29,325.05,222.57,322.46z"/>
<path class="st150" d="M216.87,314.53c2.57,0.87,4.5,2.09,4.67,4.3c-1.58-0.02-3.16-0.04-4.74-0.06
	C216.83,317.36,216.85,315.94,216.87,314.53z"/>
<path class="st210" d="M260.92,278.06c2.12-0.51,4.24-1.01,6.36-1.52C265.72,278.28,263.37,278.29,260.92,278.06z"/>
<path class="st228" d="M245.03,268.25c0.09-9.85,10.56-4.79,16.67-6.01C258.11,267.06,251.01,266.86,245.03,268.25z"/>
<path class="st228" d="M261.81,262.15c-0.73-6.21-12.85-2.35-14.01-8.18C254.09,255.26,266.79,250.88,261.81,262.15z"/>
<path class="st223" d="M203.05,191.22c3.58,3.53,3.35,7.07,0.08,10.62c-0.6-0.35-1.19-0.7-1.79-1.05c-2.28-3.23-2.66-6.35,1.05-9.23
	L203.05,191.22z"/>
<path class="st223" d="M203.13,201.83c-0.59,2.28-2.49,3.62-5.64,4.07c0,0-0.74-0.62-0.74-0.62c-0.42-2.89,1.52-4.15,5.43-4.04
	L203.13,201.83z"/>
<path class="st229" d="M191.65,205.23c-4.16,3.22-10.56,3.88-12.73,0.39c-3.51-5.65-3.44-12.63-0.02-18.29
	c2.16-3.59,8.55-2.72,12.79,0.29C197.08,193.49,197.18,199.36,191.65,205.23z"/>
<path class="st230" d="M191.65,205.23c0.01-5.87,0.02-11.74,0.03-17.61c4.93-0.59,7.77,1.75,10.71,3.95
	c-0.07,3.23-0.14,6.46-0.21,9.68c-1.81,1.35-3.62,2.69-5.43,4.04C195.05,205.27,193.35,205.25,191.65,205.23z"/>
</svg>
