<?xml version="1.0" encoding="utf-8"?>
<!-- Generator: Adobe Illustrator 23.1.0, SVG Export Plug-In . SVG Version: 6.00 Build 0)  -->
<svg version="1.1" id="Capa_1" xmlns="http://www.w3.org/2000/svg" xmlns:xlink="http://www.w3.org/1999/xlink" x="0px" y="0px"
	 viewBox="0 0 400 400" style="enable-background:new 0 0 400 400;" xml:space="preserve">
<style type="text/css">
	.st0{fill:#170D49;}
	.st1{fill:#160E41;}
	.st2{fill:#160E42;}
	.st3{fill:#050133;}
	.st4{fill:#FDFDFD;}
	.st5{fill:#F9F8F8;}
	.st6{fill:#FEFEFE;}
	.st7{fill:#FEFEFD;}
	.st8{fill:#F9F9F8;}
	.st9{fill:#E5E3EF;}
	.st10{fill:#0A062A;}
	.st11{fill:#07041B;}
	.st12{fill:#140B42;}
	.st13{fill:#191338;}
	.st14{fill:#170D48;}
	.st15{fill:#0D0632;}
	.st16{fill:#1A143A;}
	.st17{fill:#08031C;}
	.st18{fill:#150E3D;}
	.st19{fill:#150D3F;}
	.st20{fill:#0B062A;}
	.st21{fill:#FBFBFA;}
	.st22{fill:#08051D;}
</style>
<path class="st0" d="M0.19,21.37c0-6.13,0-12.25,0-19.95c6.03,4.44,10.99,8.19,16.05,11.81c28.26,20.21,57.5,21.16,87.63,3.89
	c4.11-2.36,8.18-4.77,12.27-7.16c0.68,0.17,1.59,0.4,1.97,0.02c9.04-9,17.78-4.86,26.92,0.07c7.55,4.08,17.2,4.4,23.17,11.46
	c1.42,1.68,4.66,2.78,3.7,5.23c-1.13,2.87-4.47,2.39-7.19,2.22c-1.7-0.1-3.4-0.15-5.11-0.11c-6.35-0.04-12.15-2.35-17.47-5.09
	c-7.9-4.08-14.63-3.98-21.36,1.91c-2.47,2.16-5.62,3.65-8.42,5.51c-10.07,5.89-20.97,9.72-32.54,11.93
	c-2.43,0.33-4.87,0.63-7.23,1.32c-12.14,2.15-23.97,0.23-36.2-3.36c0.1,3.83,2.72,5.07,4.43,6.69
	c50.46,47.8,101.05,95.46,151.34,143.42c5.89,5.62,9.39,6.33,15.56,0.23c19.07-18.86,38.93-37.01,58.34-55.57
	c33.1-30.86,65.66-62.23,97.98-93.82c1.48-1.44,2.72-2.94,2.48-5.1c-1.73-3.86-3.57-7.7-2.46-12.06
	c11.93-6.4,23.12-13.8,35.73-24.87c0,7.81-0.1,13.02,0.02,18.23c1.18,52.86-2.54,105.28-16.17,156.77
	c-0.49,1.85-1.38,3.61-2.08,5.42c-3.07,0.71-3.74,6.35-8.2,3.86c-3.75-2.09-4.13-5.69-3.35-9.41c0.61-2.93,0.21-5.78-0.43-8.65
	c2.35-17.75,7.6-35.09,8.7-55.2c-49.02,46.4-96.92,91.61-144.68,136.95c-8.16,7.39-15.98,15.1-24.06,22.58
	c-9.79,9.06-11.89,9.11-21.5-0.5c-9.16-9.18-18.38-18.31-27.36-27.64c-11.71-11.54-23.89-22.63-35.74-34.02
	c-2.88-2.77-6.21-5.24-7.61-9.13c-1.53-5.56-6.36-7.79-11.26-9.94c-4.85-2.6-8.69-6.26-12.53-10.03
	c-23.33-22.85-47.32-45.06-72.57-68.99c1.03,18.62,6.51,34.47,7.48,50.89c-0.91,3.52-0.62,7.12-0.92,10.67
	c-0.29,3.42,0.56,7.82-4.32,8.84c-4.73,0.99-3.76-4.76-6.76-6.13c-8.67-26.1-11.84-53.1-14.34-80.16
	C1.04,83.14-0.71,71.86,0.31,60.48C1.44,47.44,1.71,34.4,0.19,21.37z"/>
<path class="st1" d="M371.42,166.4c2.81,3.22,1.85,6.66,0.59,10.06c-0.93,2.52,0,5,1.94,6.03c3.97,2.12,2.77-2.27,4.09-3.56
	c2.71-2.66,3.09-0.59,3.5,1.48c-10.95,44.99-31.29,85.94-60,123.14c-30.78,39.88-70.09,70.54-115.41,94.73
	c-6.14,3.28-10.12,1.3-14.93-1.27C113.65,355.64,59.27,295.66,29.14,216.29c-5.18-13.63-11.12-27.1-12.72-41.73
	c4.64-1.8,2.66,5.67,7.35,4.23c3.36-5.54-1.42-12.62,2.82-18.27c5.97,8.41,7.57,17.93,7.93,27.75c-6.67,5.41-6.67,5.41-3.73,12.45
	c0.34-3.85-1.01-7.85,2.42-10.84c4.22-0.49,4.64,2.84,5.98,5.27c17.03,52.84,45.99,99.03,87.75,137.63
	c19.01,17.57,40.57,32.36,63.4,45.39c6.16,3.51,11.55,4.12,18.2,0.33c65.74-37.49,113.44-89.48,141.85-157.05
	c3.94-9.38,7.67-18.87,10.42-28.67C364.62,184.09,364.13,173.83,371.42,166.4z"/>
<path class="st2" d="M159.6,27.29c3.13-4.15,7.14,2.42,9.77-0.4c-8.2-13.04-24.62-13.49-36.6-21.07c-3.36-2.12-5.14,0.72-6.93,2.39
	c-2.94,2.75-5.7,4.92-9.7,1.75c1.24-1.13,2.61-2.15,3.69-3.41c5.2-6.03,9.5-6.06,17.53-2.09c42.18,20.83,84.81,21.4,126.61-1.58
	c4.7-2.58,7.43-2.53,11.51,0.82c8.87,7.29,18.88,13.1,29.41,18.07c19.25,9.08,38.98,9.81,59.15,3.11c1.64,3.92,3.28,7.85,4.93,11.77
	c-11.35,10.85-25.91,9.46-39.82,8.39c-14.55-1.12-28.34-5.6-40.76-13.22c-12.11-10.47-24.95-14.61-39.7-4.4
	c-1.6,1.11-3.84,1.42-5.81,2.03c-7.32,2.21-14.81,3.73-22.36,5.06c-1.04,0.22-2.08,0.3-3.14,0.3c-1.07,0-2.11-0.13-3.15-0.33
	c-8.4-1.11-16.78-1.32-25.14,0.3c-1.07,0.28-2.15,0.43-3.26,0.49C176.9,33.19,166.55,35.21,159.6,27.29z"/>
<path class="st3" d="M0.19,21.37C3.33,34.4,3.08,47.43,0.31,60.48C0.27,47.44,0.23,34.4,0.19,21.37z"/>
<path class="st4" d="M267.24,136.62c-21.21,20.45-42.52,40.81-63.55,61.43c-4.17,4.09-6.15,1.52-8.9-1.09
	C145.92,150.5,97.02,104.06,48.14,57.6c-6.07-5.76-12.04-11.61-19.47-18.77c15.44,1.46,29.48,5.31,43.84,3.9
	c0.77,1.41,0.6,3.26,2.26,4.26c4.03,3.51,7.82,7.23,11.8,10.78c25.05,23.82,50.23,47.51,75.35,71.26c3.3,3.12,6.39,6.94,13.64,4.82
	c-24.65-26.12-52.02-48.44-76-73.84c-1.18-2.51-0.32-4.21,2.29-5.23c20.96-1.95,41.96-0.39,62.93-0.92
	c6.49,0.06,12.98,0.05,19.46,0.07c5.18-0.41,11.39,2.81,14.61-4.47c0.89-2,3.94-0.39,4.96,1.13c2.18,3.23,6.25,4.9,7.69,8.67
	c2.16,20.85,0.4,41.74,1.06,62.6c0.13,4.05-1.21,8.52,2.62,12.06c4.52-2.2,3.23-6.2,3.37-9.5c0.34-8.15-0.17-16.32,0.32-24.47
	c0.29-4.8,1.44-9.63,7.49-10.22c12.69-1.23,25.44-1.73,38.1,0.45c1.39,0.24,2.39,1.23,3.12,2.37c-1.2,7.58-8.29,10.9-13.21,15.61
	c-5.26,5.02-5.57,8.56,1.18,12.01C260.06,125.28,266.4,129.2,267.24,136.62z"/>
<path class="st5" d="M362.59,193.86c-15.03,50.92-42.29,95.23-80.96,133.28c-22.14,21.79-47.48,39.72-74.94,55.11
	c-5.06,2.84-8.72,2.85-13.86,0.02C115.97,340.04,65.12,278.22,37.58,198.72c-0.31-0.89-0.13-1.94-0.18-2.91
	c5.73-8.82,8.93-9.61,16.57-3.35c5.51,4.5,11.45,6.64,18.81,5.94c9.4-0.9,12.22,1.68,12.77,10.72c0.26,4.24-0.95,8.43-0.7,12.62
	c0.31,5.06,0.23,10.03,6.51,13.13c9.03,4.45,9.13,12.94,1.04,20.25c-4.56,0.8-5.72-2.75-7.55-5.38
	c-6.11-8.77-10.19-18.48-14.45-28.1c-1.07-2.41-1.94-4.89-3.22-7.21c-1.07-1.95-2.02-5-4.95-3.96c-3.6,1.27-1.98,4.42-1.07,6.74
	c2.04,5.19,4.13,10.38,6.68,15.38c26.6,52.06,65.56,93.79,116.98,125.04c3.47,0.45,2.9-2.12,2.91-3.8
	c0.12-24.17,0.16-48.33,0.01-72.5c-0.01-1.59-0.16-3.2-4.17-5.36c-0.76,17.23-0.18,33.25-0.41,49.22c0.05,3.25-0.09,6.49-0.28,9.73
	c-0.2,3.46,0.89,7.88-3.09,9.66c-3.44,1.54-6.38-1.62-9-3.52c-25.43-18.52-47.55-40.15-67.03-64.22c-2.45-3.02-5.22-6.14-5.03-10.4
	c7.57-8.13,13.6-8.22,19.73,0.07c4.32,5.84,9.55,11.1,12.24,18.04c1.44,3.72,4.72,6.43,9.04,7.49c10.13,2.49,16.73,8.74,20.34,17.74
	c1.86,4.63,7.4,6.97,7.84,12.4c0.15,1.8,1.93,2.63,3.89,2.19c1.86-0.42,3.23-1.82,3.24-3.44c0.05-8.27,3.3-16.97-3.3-24.43
	c-1.58-1.78-3.65-4-2.85-6.05c2.2-5.6-1.78-10.17-2.1-14.72c-0.82-11.65-6.95-22.48-5.28-34.31c10.79,10.08,21.88,19.89,32.23,30.36
	c4.76,4.81,7.39,4.33,11.87-0.18c8.47-8.53,17.66-16.41,26.56-24.56c5.72,11.49,0.15,22.19-3.97,32.29
	c-2.31,5.67-4.1,9.9-0.55,15.23c3.7,5.56,2.74,11.91,3.03,18.04c0.09,1.86-0.35,4.3,2.14,4.98c2.37,0.65,3.74-1.3,4.73-2.97
	c2.19-3.68,5.46-5.28,9.75-6.37c8.86-2.24,14.34-8.36,17.43-16.26c1.67-4.27,2.29-9.68,7.88-10.4c5.72-0.74,7.76,4.33,10.08,8.29
	c0.46,3.95-1.71,6.94-4.31,9.58c-14.85,15.02-30.43,29.31-47.59,41.97c-2.82,2.08-5.89,5.28-10.09,2.92
	c-3.81-2.14-3.6-6.09-3.63-9.65c-0.15-16.3-0.04-32.61-0.08-48.91c-0.01-3.12,0.9-6.46-1.5-9.33c-4.01,1.06-3.41,4.07-3.43,6.46
	c-0.16,23.15,0,46.3-0.13,69.45c-0.04,6.38,1.93,7.66,7.65,3.88c52.27-34.57,93.3-78.01,118.18-134.11
	c1.52-3.43,6.43-8.77,0.51-10.89c-4.9-1.75-4.54,5.14-6.31,8.27c-4.32,7.62-5.99,16.72-14.04,22.23c-9.61-7.8-10.41-18.89-0.9-24.28
	c3.38-1.92,1.98-3.46,2.06-5.3c0.34-8.57,4.12-13.98,12.26-13.67c9.64,0.36,18.32-0.87,26.53-5.62
	C359.44,191.98,361.27,192.53,362.59,193.86z"/>
<path class="st6" d="M362.59,193.86c-5.86-1.76-7.05,5.57-13.18,5.64c-4.96,0.06-9.82,1.95-15.54,0.92
	c-9.29-1.68-14.69,5.77-11.02,14.97c1.58,3.96,0.83,6.73-2.9,5.37c-8.94-3.24-4.75,4.95-7.57,6.78c6.2,2.94,2.04,9.77,5.72,13.66
	c0.87,1.95,0.46,3.88-0.5,5.59c-8.12,14.56-18,28.02-29.02,40.74c-1.51,1.74-3.55,3.05-6.25,2.55c-11.2-8.27-9.9-7.75-15.74,5.21
	c-3.03,6.73-7.96,15.65-18.59,15.53c-4.78-0.05-6.75,1.1-7.84,5.43c-1.12,4.43-6.09,6.32-9.65,5.88c-4.48-0.55-2.24-5.39-2.41-8.33
	c-0.44-7.67,1.25-15.5-5.45-22.11c-1.72-1.7-1.79-7.44-0.11-9.25c9.65-10.43,8.23-23.22,9.68-35.43
	c34.15-32.69,68.27-65.41,102.45-98.06c14.99-14.32,30.12-28.51,46.85-44.32c-1.34,22.25-6.12,41.96-10.11,61.77
	C368.37,175.52,367.13,185.17,362.59,193.86z"/>
<path class="st7" d="M161.56,241.4c2.12,9.8,8.1,18.88,6.32,29.4c-1.18,6.96,4.04,8.83,10.88,10.26
	c-7.27,5.37-13.05,10.05-2.25,15.66c2.21,1.15,2.77,26.59,0.94,28.61c-2.44,2.69-6.26,2.75-9.46,2.87
	c-2.46,0.09-2.65-3.19-3.74-5.15c-6.36-11.36-9.03-25.93-26.09-28.49c-5.16-0.77-8.29-4.72-9.57-8.12
	c-2.52-6.68-8.42-11.12-11.22-16.96c-5.06-10.52-10.76-7.59-17.72-3.11c-6.88-1.47-9.34-5.68-8.35-12.03
	c7.08-8.35,5.54-13.14-3.56-17.74c-6.6-3.33-6.45-10.8-5.73-16.9c0.5-4.19,0.87-8.36,0.87-12.54c0-6.69-3.63-8.93-10.03-6.26
	c-7.62,3.18-15.35-0.24-18.49-4.6c-6.58-9.12-11.17-5.33-16.93-0.5c-1.29-2.14-2.59-4.27-3.88-6.41l0.1,0.14
	c-2.35-9.68-4.7-19.35-7.04-29.03c-3.15-17.5-6.29-34.99-9.44-52.49c0.67-0.59,1.35-1.18,2.02-1.76
	c29.24,27.32,58.48,54.64,87.72,81.95c4.95,1.91,8.63,5.02,10.57,9.83C132.17,212.5,146.86,226.95,161.56,241.4z"/>
<path class="st8" d="M209.37,56.64c-7.44,3.49-4.92-4.95-9.13-6.53c-0.33,9.92-7.91,6.29-13.58,6.56c-3.21-6.01-8.55-7.2-15.3-7.2
	c-28.08,0-56.16,0.7-84.23-0.31c-3.24-0.61-6.58-1.18-9.52-2.5c-6.12-2.76-2.55-4.15,1.13-5.3c11.53-2.9,22.5-7.18,33.19-12.14
	c4.58,1.73,6.15,5.21,5.25,9.43c-0.91,4.26-5,2.22-7.8,2.84c0.97,1.45,3.13,1.36,3.81,0.96c12.49-7.35,24.92,0.26,37.35-0.01
	c5.6-0.12,10.81-0.04,14.71-5.12c2.56-3.33,7.3-4.93,11.15-2.76c7.53,4.25,16.18,2.35,23.95,4.96c-3.56-4.21-11.5,0.62-13.78-6.06
	c0.7-0.21,1.41-0.41,2.11-0.62c8.92-1.2,17.86-0.85,26.79-0.2c0.72,0.19,1.44,0.37,2.16,0.56c2.09,2.39,0.16,3.75-0.92,5.16
	c2.58-0.69,1.33-3.88,2.89-5.49c7.64-1.78,15.27-3.56,22.91-5.35c1.81,1.04,4.01,0.88,5.9,1.67c3.46,1.46,5.95,3.5,4.51,7.5
	c-1.21,3.38-3.61,5.39-7.62,5.46c-3.05,0.06-5.66-2.02-10.9-1.23c11.42,2.27,20.74,3.53,29.52-1.54c3.48-2.01,6.03-1.47,9.44,0.25
	c10.27,5.19,12.44,3.9,13.05-6.85c0.08-1.34,0.59-2.52,1.66-3.45c20.92,9.82,42.35,17.28,66.27,11.79
	c4.96-1.14,9.75-2.97,14.61-4.49c3.34,1.47,1.3,2.97-0.08,4.27c-33.87,31.92-67.76,63.81-101.65,95.71
	c-4.13-5.22-8.27-10.44-12.4-15.65c-0.14-6.05,5.4-8.46,8.89-12.07c5.22-5.42,10.98-10.35,16.17-15.82
	c15.22-14.63,30.63-29.07,45.99-43.6c-33.79,0.15-67.42,0.19-101.04-0.06C217.98,49.36,212.81,50.93,209.37,56.64z"/>
<path class="st4" d="M186.59,33.44c3.96,3.03,8.62,1.35,12.95,1.58c3.62,0.19,6.75,1.41,6.29,4.81c-0.52,3.84-5.55,4.11-7.47,2.76
	c-6.76-4.78-16.21,1.01-22.56-6.08c-2.22-2.48-8.43-0.36-9.29,2.95c-1.59,6.11-5.93,6.12-10.15,5.24
	c-8.72-1.8-19.53,5.54-26.31-5.23c-0.3-0.48-3.53-0.22-3.71,0.25c-3.59,9.71-12.08,3.58-18.15,4.99c-2.32,0.54-6.34,0.83-5.98-3.16
	c0.29-3.28,4.09-2.83,6.58-3.39c2.23-0.5,4.15,2.44,6.77,0.89c0.83-3.98-2.48-6.56-3.62-9.84c11.29-11.36,23.63-14.31,38-4.77
	c2.63,1.75,6.41,1.94,9.66,2.85C168.15,31.08,177.59,31.4,186.59,33.44z"/>
<path class="st9" d="M78.75,41.34c0.01,1.2-6.21,3.3,0.56,3.51c2.08,0.06,4.16-0.01,5.7,1.65c-3.74,3.92-7.75,2.67-11.8,0.54
	c-3.11-1.02-0.92-2.81-0.7-4.31C74.34,41.26,76.51,41.16,78.75,41.34z"/>
<path class="st10" d="M117.47,198.05c-3.52-3.28-7.05-6.55-10.57-9.83C112.84,189.18,117.98,190.9,117.47,198.05z"/>
<path class="st0" d="M33.53,189.4c-0.12,2.59,0.22,5.3-0.49,7.74c-0.94,3.19,3.48,9.19-1.24,8.9c-3.64-0.23-6.77-7.05-6.77-12.22
	c0-5.97,4.18-5.62,8.6-4.27C33.63,189.55,33.53,189.4,33.53,189.4z"/>
<path class="st4" d="M288.09,29.34c0.2,1.61,0.93,3.37,0.5,4.8c-1.12,3.7,5.82,8.38,1.02,9.87c-5.39,1.66-12.89,3.7-17.97-2.2
	c-1.48-1.72-3.33-3.55-4.79-1.77c-8.17,9.96-19.23,2.72-28.7,4.64c-2.89,0.59-5.11-1.66-6.76-3.84c-1.03-1.36-1.64-2.98-0.21-4.43
	c1.16-1.18,2.49-0.47,3.76,0.03c2.22,0.88,4.45,1.75,6.69,2.58c3.7,1.38,7.31,2.56,9.31-2.35c2.18-5.35-2.11-5.1-5.4-5.68
	c-2.09-0.37-2.67-1.79-3-3.47c6.84-2.87,13.85-5.43,20.45-8.72c4.27-2.13,7.41-1.83,11.06,0.99
	C278.51,23.21,283.39,26.17,288.09,29.34z"/>
<path class="st11" d="M215.49,32.62c-8.92,1.04-17.86,0.99-26.79,0.2C197.61,29.98,206.54,30.31,215.49,32.62z"/>
<path class="st4" d="M219.63,32.85c0,0.97,0.14,1.96-0.02,2.91c-0.64,3.87-3.46,7.52-6.82,7.58c-3.97,0.07-3.56-2.86-0.31-4.78
	c1.44-0.85,2.99-1.62,4.2-2.71c0.64-0.58,0.67-1.76,0.97-2.67C218.31,33.07,218.97,32.96,219.63,32.85z"/>
<path class="st12" d="M209.37,56.64c-0.39-7.26,1.9-10.36,10.9-10.19c34.14,0.67,68.3,0.28,102.46,0.28c2.6,0,5.19,0,6.08,0
	c-16.13,16.17-32.55,32.64-48.98,49.1c-4.86,0.42-9.77,4.9-14.58-0.13c0.67-1.69,3.94-4.14-1.3-4.15
	c-12.76-0.02-25.53,0.08-38.29-0.07c-5.04-0.06-4.22,3.18-4.23,5.97c-0.05,11.43,0.05,22.86-0.05,34.28
	c-0.03,3.6,1.58,7.91-5.51,7.94c-6.72,0.03-5.94-3.72-5.96-7.67C209.75,106.88,209.55,81.76,209.37,56.64z"/>
<path class="st13" d="M101.36,60.55c25.13,23.69,50.27,47.37,75.39,71.08c1.18,1.11,2.88,2.12,2.34,4.04
	c-0.75,2.68-3.22,1.86-5.12,1.95c-2.97,0.13-5.66,0.45-8.33-2.1c-26.86-25.71-53.93-51.23-80.93-76.81
	c0.93-1.17,2.23-1.58,3.71-1.64C92.79,58.01,96.9,59.85,101.36,60.55z"/>
<path class="st14" d="M101.36,60.55C96.5,64.3,92.89,61,89.12,58.6c-0.77-0.66-1.57-1.28-2.39-1.88c-2.62-1.92-7.02-3.38-5.66-7.16
	c1.34-3.72,5.72-1.25,8.29-1.14c27.89,1.21,55.79-1.24,83.66,0.38c1.38,0.08,2.77-0.02,4.14,0.11c2.81,0.26,6,0.56,5.76,4.11
	c-0.23,3.31-3.43,2.52-5.69,2.58c-4.14,0.11-8.29,0.04-12.44,0.03c-18.46,0-36.9-0.08-55.35,0.08c-3.22,0.03-6.84-1.4-9.7,1.35
	C100.28,58.21,100.82,59.38,101.36,60.55z"/>
<path class="st15" d="M165.79,54.72c5.02-0.51,10.23,0.93,18.21-2.29c-35.71-5.28-68.77-0.06-101.88-2.8
	c1.58,3.84,7.71,4.07,6.99,8.97c-1.47,0.03-2.94,0.07-4.41,0.1c-4.55-3.25-8.59-6.95-11.49-11.66c3.93-0.18,7.86-0.36,11.8-0.54
	c30.56,0.09,61.13,0.62,91.68,0.01c9.13-0.18,11.29,2.67,9.97,10.15c-6.96-0.05-13.92-0.09-20.88-0.14
	c-0.65-0.41-0.86-0.81-0.64-1.21C165.35,54.92,165.57,54.72,165.79,54.72z"/>
<path class="st16" d="M265.25,95.7c4.85,0.95,9.74-2.33,14.58,0.13c-8.33,8.38-16.66,16.76-24.99,25.14
	c-10.89-3.15-11.63-5.19-4.18-12.19C255.42,104.32,260.38,100.05,265.25,95.7z"/>
<path class="st17" d="M165.79,54.72c0.02,0.6,0.02,1.21-0.01,1.81c-22.02,0.17-44.03,0.35-66.04,0.52c2.27-3.71,6.11-2.28,9.31-2.3
	C127.96,54.63,146.87,54.71,165.79,54.72z"/>
<path class="st18" d="M282.34,290.08c14.34-14.71,26.22-31.02,35.76-48.88c5.78-9.28,10.57-19.04,13.48-29.42
	c1.74-6.22,5.62-5,10.01-4.09c5.81,1.21,3.3,4.81,2.16,7.53c-26.65,63.64-71.83,112.5-132.56,149.24c-3.05-2.72-1.67-5.8-1.68-8.43
	c-0.11-25.78,0.02-51.55-0.02-77.33c0-3.74-0.45-6.7,5.53-6.65c5.87,0.04,5.68,2.73,5.66,6.7c-0.12,19.58-0.06,39.15,0.02,58.73
	c0.01,2.15-0.99,4.54,1.58,7.09C244.27,328.21,265.12,310.96,282.34,290.08z"/>
<path class="st19" d="M91.28,254.35c1.74,4.66,4.99,8.38,8.35,12.03c21.14,30.52,48.59,55.19,80.02,78.33
	c0.35-6.9,0.63-12.26,0.9-17.62c1.92-9.37,0.46-18.82,0.81-28.24c0.23-6.19,0.02-12.39,0.06-18.59c0.02-3.14,0.76-6.34,4.61-6.51
	c5.17-0.23,3.51,3.99,3.52,6.49c0.13,23.48-0.01,46.96,0.15,70.44c0.04,5.1-1.28,8.32-7.38,7.97
	c-46.26-27.84-82.37-64.68-108.43-110.24c-5.87-10.26-10.91-20.99-15.62-31.78c-1.07-2.44-7.15-6.4,0.41-9.18
	c5.84-2.15,8.77-1.52,10.99,5.09C74.65,227.4,81.52,241.59,91.28,254.35z"/>
<path class="st20" d="M182.33,358.66c3.53-2.4,6.61-4.36,6.5-9.7c-0.47-22.49-0.15-44.99-0.26-67.49c-0.01-2.28,1.36-6.2-2.75-6.09
	c-3.19,0.08-3.39,3.58-3.39,6.27c-0.01,12.06,0.07,24.13-0.06,36.19c-0.03,3.13,1.16,6.59-1.81,9.25
	c-0.12-16.26-0.19-32.52-0.41-48.78c-0.05-3.9-0.19-6.61,5.72-6.48c5.56,0.11,5.03,2.81,5.02,6.17
	c-0.04,28.29-0.02,56.58-0.02,85.26C186.77,363.27,184.58,360.92,182.33,358.66z"/>
<path class="st21" d="M300.5,56.51c0.56,0.33,1.67,0.79,1.62,0.99c-1.85,7.46-21.83,23.11-29.51,23.17
	c-14.08,0.11-28.17-0.13-42.23,0.39c-7.17,0.27-10.25-1.83-9.03-8.74c0.28-1.58,0.36-3.3,0.03-4.86
	c-1.89-8.63,2.39-11.63,10.89-10.93C255,55.13,277.75,55.16,300.5,56.51z"/>
<path class="st22" d="M300.5,56.51c-22.75,0.01-45.5,0.01-68.24,0.02c3.41-3.28,7.74-1.73,11.64-1.78
	c15.66-0.19,31.32-0.14,46.99-0.04C294.14,54.74,297.78,53.63,300.5,56.51z"/>
</svg>
