<?xml version="1.0" encoding="utf-8"?>
<!-- Generator: Adobe Illustrator 23.1.0, SVG Export Plug-In . SVG Version: 6.00 Build 0)  -->
<svg version="1.1" id="Capa_1" xmlns="http://www.w3.org/2000/svg" xmlns:xlink="http://www.w3.org/1999/xlink" x="0px" y="0px"
	 viewBox="0 0 400 400" style="enable-background:new 0 0 400 400;" xml:space="preserve">
<style type="text/css">
	.st0{fill:#273D24;}
	.st1{fill:#263D24;}
	.st2{fill:#253C23;}
	.st3{fill:#263C24;}
	.st4{fill:#263B23;}
	.st5{fill:#273C26;}
	.st6{fill:#253D25;}
	.st7{fill:#273F24;}
	.st8{fill:#243D25;}
	.st9{fill:#263024;}
	.st10{fill:#293D27;}
	.st11{fill:#283C26;}
	.st12{fill:#273025;}
	.st13{fill:#283E27;}
	.st14{fill:#253D26;}
	.st15{fill:#F1FAEF;}
	.st16{fill:#F2F8EE;}
	.st17{fill:#202B1E;}
	.st18{fill:#283026;}
	.st19{fill:#F3F8F1;}
	.st20{fill:#EEF7EE;}
	.st21{fill:#394637;}
	.st22{fill:#F0F7ED;}
	.st23{fill:#F0F8EE;}
	.st24{fill:#EDF4EC;}
	.st25{fill:#EEF8EC;}
	.st26{fill:#32402F;}
	.st27{fill:#EFF9EF;}
	.st28{fill:#2F3B2D;}
	.st29{fill:#384935;}
	.st30{fill:#2E3C2B;}
	.st31{fill:#313E2F;}
	.st32{fill:#2D3829;}
	.st33{fill:#273724;}
	.st34{fill:#323E31;}
	.st35{fill:#263324;}
	.st36{fill:#364434;}
	.st37{fill:#364132;}
	.st38{fill:#435041;}
	.st39{fill:#212E1F;}
	.st40{fill:#EBF5E7;}
	.st41{fill:#2A3429;}
	.st42{fill:#EFF6ED;}
	.st43{fill:#3B453A;}
	.st44{fill:#E8F3E6;}
	.st45{fill:#182C16;}
	.st46{fill:#172A14;}
	.st47{fill:#DEE8DA;}
	.st48{fill:#BFCFBB;}
	.st49{fill:#AAC0A9;}
	.st50{fill:#091507;}
	.st51{fill:#142412;}
	.st52{fill:#96A794;}
	.st53{fill:#E1ECDF;}
	.st54{fill:#BDCEBE;}
	.st55{fill:#FEFEFE;}
	.st56{fill:#EAF5E8;}
	.st57{fill:#95A792;}
	.st58{fill:#E8F4E5;}
	.st59{fill:#D5E4D1;}
	.st60{fill:#CFE0CD;}
</style>
<path class="st0" d="M272.85,146.16c8.56-2.2,16.02-7.06,23.96-10.77c2.62,1.35,2.73,3.82,2.69,6.4
	c-0.26,14.68,0.57,29.37-0.53,44.02c-4.85,6.97-11.88,11.59-17.88,17.27c-35.04,33.17-69.09,67.46-104.63,100.06
	c-2.3,2.11-4.28,4.48-5.97,7.13c-0.89,1.54-2.12,2.74-3.54,3.73c-13.05-8.87-25.19-18.8-34.35-32.17c0.43-1.62,0.05-3.59,1.85-4.61
	c8.23-5.46,15.32-12.42,22.28-19.41c25.8-25.87,52.85-50.29,79.44-75.23c8.35-7.83,15.44-17.03,24.38-24.2
	c1.22-0.94,2.51-1.78,3.63-2.86c0.63-0.61,1.8-1.3,1.38-2.13c-0.61-1.22-2.14-0.54-3.27-0.82c-1.83-0.41-3.72-0.69-4.26-3.02
	C262.16,144.6,268.59,150.55,272.85,146.16z"/>
<path class="st1" d="M58.73,215.19c-1.11,15.05-0.64,30.6-11.41,42.79c-1.62,1.83-1.38,3.4-0.64,5.1
	c3.49,7.96,6.51,16.18,12.79,25.74c-3.72-19.29-0.08-35.06,6.24-52.69c2.88,16.12,7.52,29.59,8.31,43.87
	c0.23,4.09,0.23,8.28-0.36,12.31c-0.67,4.58-2.14,9.03-3.16,13.56c-0.09,0.41,0.56,1.06,0.94,1.52c3.91,4.8,7.84,9.58,13.02,15.91
	c-0.62-4.91-1.01-7.94-1.4-10.97c1.51-5.22,0.49-10.56,0.63-15.84c0.1-3.55,0.32-6.43,4.84-5.5c9.55,13.78,17.38,28.27,15.72,46.1
	c-0.41,4.39,2.63,5.37,4.86,7.09c3.61,2.8,7.55,5.13,13.33,8.99c-6.3-12.98-10.91-24.45-12.42-40.16
	c10.86,11.91,20,21.94,29.14,31.96c4.12,1.2,5.91,4.88,6.55,8.49c1.4,7.97,6.16,10.94,12.82,11.41c-6.63-6.68-12.65-14.08-15.06-24
	c0.28-0.48,0.72-1.42,0.81-1.39c17.66,7.16,38.44,9.85,44.74,33.47c0.78,2.04,3.43,2.26,4.03,4.49
	c-13.98,19.49-34.8,20.71-55.41,22.48c-1.45,0.12-3.08,0.36-3.66-1.72c-0.82-2.96,1.24-3.84,3.17-4.82
	c11.62-5.94,23.01-12.38,35.57-16.82c-8.36-2.37-16.15-4.58-23.95-6.79c-4.76-0.44-9.59-0.64-13.42-4.26
	c-8.13-4.72-16.25-9.46-24.41-14.12c-1.42-0.81-2.56-2.14-4.77-0.88c-13.22,7.58-26.27,4.45-39.18-1.21
	c-10.95-4.79-20.07-12.37-31.12-21.39c10.34,0.73,18.33,1.29,26.32,1.85c6.87,1.94,14.54-3.22,21.27,3.66
	c-6.98-9.89-13.35-19.22-26.22-17.19c-21.17-5.35-32.86-22.52-45.97-40.03c13.65,2.83,25.79,6.46,36.95,13.25
	c1.04,1.41,3.22,1.71,3.88,1.13c1.47-1.3,0.77-3.21-0.43-4.7c-3.05-9.19-7.43-16.09-17.74-18.86
	c-10.35-2.79-17.34-11.43-22.32-21.27c-4.35-8.61-8.39-17.4-11.6-27.18c11.72,6.24,22.77,13.12,33.14,23.04
	c1.8-8.01-2.36-15.02-2-22.29c0.48-2.52,1.14-4.83,4.4-4.18c2.98,4.63,2.92,10,3.57,14.34c-0.47,2.14,1.44,1.21,0.23,1.34
	c-0.2,0.02-0.23-0.28-0.1-0.92c1.82-8.98,5.18-17.3,10.13-24.87c1.59-2.44,2.62-5.92,6.59-5.29
	C62.02,203.91,56.34,210.33,58.73,215.19z"/>
<path class="st2" d="M362.73,232.7c0.29,2.91-0.06,5.69-0.95,9.4c11.69-8.83,23.6-17.26,38.22-25.59
	c-11.52,23.4-17.36,49.09-46.26,53.45c-2.23,0.34-2.2,1.78-2.78,2.92c-3.32,6.57-6.49,13.22-9.3,20.85
	c14.07-7.9,28.17-15.55,44.56-17.07c-8.92,10.86-15.53,23.64-27.81,31.04c-9.48,5.72-18.88,11.52-30.4,6.84
	c-1.03-0.42-1.65-0.56-2.11,0.16c-4.78,7.4-13.27,11.62-16.26,20.54c-4.56,5.56-8.86,11.54-16.9,11.62
	c-10.25,7.2-21.2,13.08-32.27,18.75c-2.64,5.07-6.31,6.95-11.53,4.05c-7.94,2.12-15.87,4.25-25.73,6.88
	c18.3,4.38,31.96,15.35,49.31,22.38c-23.59,2.81-56.59-3.31-65.91-19.53c0.02-2.32,1.95-3.99,1.96-6.3
	c6.55-22.31,26.13-26.04,43.66-33.68c-0.47,7.98-5.72,12.74-8.8,18.61c0.06,2.54-1.86,4.14-3.28,6.24
	c7.03-0.15,10.49-4.38,12.95-9.95c5.1-9.47,11.76-17.67,19.18-25.22c4.73-4.81,9.56-9.52,15.36-15.27
	c-0.98,13.87-4.72,25.03-11.07,35.65c13.81-4.1,17.57-8.01,17.61-21.65c0.04-14.35,8.41-24.76,14.02-36.51
	c1.6-3.36,3.57-6.54,5.42-9.9c3.57,10.07,3.61,21.92,0.18,37.55c10.73-6.86,12.79-12.05,10.5-24.56
	c-1.68-9.17-0.74-18.27,1.41-27.33c2.25-9.46,4.06-19.03,6.37-30.03c7.04,15.45,8.32,30.32,6.82,47.65
	c5.82-8.09,8.41-15.65,11.43-22.99c0.75-1.83,0.04-2.94-0.82-4.23c-12.58-19.01-9.8-40.83-9.82-62.54
	c2.82,4.23,5.65,8.45,8.47,12.68c6.92,6.22,9.72,14.31,9.88,23.6c0,0.18-0.11,0.36-0.17,0.53c0.65,0.2,1.13-0.04,1.48-0.74
	C362.59,229.74,362.92,229.91,362.73,232.7z"/>
<path class="st3" d="M71.22,114.18c1.02-1.46,2.23-2.16,3.69-0.68c2.02,2.03-0.01,3.32-0.95,4.71
	c-7.27,10.79-13.93,22.04-22.4,31.91c-2.46,8.21-11.27,10.15-15.29,16.82c-1.51,0.94-3.17,1.23-4.9,1.22
	c-12.85-5.32-15.09-17.13-16.11-29.36c-0.87-10.37,0.46-20.7,1.85-32.36c8.13,11.66,14.96,22.53,17.97,35.96
	c2.26-9.24,10.56-16.74,2.54-28.3c-8.04-11.59-2.84-25.04,0.2-37.55c1.33-5.47,3.5-10.73,5.7-17.34
	c5.01,13.36,9.41,25.63,6.88,41.96C57.9,94.3,60.75,86.58,64.86,79.9c2.66-7.91,7.48-14.01,14.25-18.47
	c7.63-4.18,13.92-8.29,12.71-19.74c-1.16-10.96,6.67-18.6,14.16-25.27c4.35-3.87,9.39-6.91,15.11-11.04
	c-0.04,11.17-4.01,19.88-9.96,30.7c8.72-6.2,16.46-8.78,19.17-18.22c1.77-6.15,7.65-8.67,13.22-10.67
	c6.48-2.33,12.86-5.1,22.17-5.53c-11,12.87-18.43,26.55-35.84,27.5c-5.86,0.32-9.61,5.92-15.15,10.7
	c14.98-2.03,27.8,0.14,42.21,7.35c-12.77,1.71-23.32,3.13-33.87,4.55c-3.01,1.68-6.27,2.76-9.59,1.98
	c-7.56-1.78-14.23,0.01-19.61,4.4c5.38-2.15,11.87-2.66,18.31-3.26c3.11-0.29,6.8-0.96,8.76,3.02c1.7,1.31,4.73,2.01,0.03,4.03
	c-14.99,6.42-29.03,15.89-46.25,14.68c-0.33-0.02-0.71,0.88-1.07,1.35c-1.86,3.52-2.52,7.76-5.76,10.67
	c4.05-2.75,8.55-3.92,13.2-4.57c5.25-1.23,10.51-2.45,15.76-3.68c-8.42,10.54-18.12,19.15-28.59,26.85
	c-2.34,3.86-5.67,6.55-9.8,7.78c-5.58,1.66-8.09,5.69-9.76,12.26C56.53,121.95,62.83,116.02,71.22,114.18z"/>
<path class="st4" d="M327.84,74.24c5.55,11.15,14.03,20.45,18.79,32.1c3.61,3.82,6.73,7.9,6.58,13.68c2.84,8.61,5.68,17.22,8.7,26.4
	c3.05-14.51,10.47-26.29,17.56-38.35c4.9,12.34,4.67,37.47-0.84,48.29c-2.31,4.54-4.4,9.74-11.06,9.55
	c-5.31-0.16-3.5,5.08-2.81,6.95c3.05,8.27,2.14,16.67,1.92,25.09c-8.86,0.62-9.95-1.32-6.06-10.77c-0.32-2.21-0.26-4.43-0.44-6.62
	c-0.86-10.57-2.78-20.28-12.66-26.55c-5.05-3.21-8.91-8.38-10.57-14.75c-3.93-9.16-9.5-17.14-16.83-24.9c2.44,0,4.17,0,5.89,0
	c8.63,1.53,15.25,6.79,21.51,12.45c-2.23-8.35-2.23-8.36-9.13-12.16c-2.64-1.45-5.54-2.53-6.94-5.64
	c-10.37-8.82-20.75-17.64-32.36-27.52c8.93-1.06,14.81,3.59,21.46,4.22c2.49-0.48,4.74,0.29,7.01,1.59
	c-3.21-6.06-6.75-11.34-14.32-10.72c-14.16-2.87-26.5-10.37-40.85-16.86c11.09-4.74,21.14-0.28,32.47-0.92
	c-5.06-5.69-8.27-9.58-15.89-8.22c-15.13,2.7-30.21-0.84-45.78-2.88c2.11-4.41,6.14-3.93,9.11-5.2c3.05-1.3,6.4-1.86,9.62-2.74
	c4-1.29,8.11-0.26,12.15-0.65c1.45-0.14,4.01,0.54,2.44-2.69c-4.73-4.02-9.81-6.93-15.92-8.62C247.28,24.08,240.54,12.52,231.99,0
	c10.24,3.29,18.9,4.7,26.61,9.28c4.58,2.72,9.45,6.04,10.4,11.43c1.88,10.62,10.75,11.12,17.38,15.28
	c-5.52-8.99-8.6-18.52-9.99-28.95c13.99,4.79,30.79,21.53,29.13,32.5c-1.83,12.13,4.54,17.23,11.52,23.23
	c4.01,1.67,6.57,5.26,9.8,7.97C327.73,71.74,328.46,72.79,327.84,74.24z"/>
<path class="st5" d="M362.31,187.91c0.54,1.41,1.74,2.97,1.48,4.19c-0.47,2.21-1.7,0.1-2.62-0.03c-3.11-0.44-1.41,1.46-1.1,2.59
	c1.01,3.65,4.48,2.01,6.6,3.28c7.37-14.64,17.04-27.3,30.63-38.79c-2.72,14.16-3.75,27.15-9,39.17c-2.68,6.14-5.92,12.35-11.73,15.3
	c-8.04,4.08-12.93,9.81-13.85,19.09c-1.01-2.37-2.32-0.69-3.53-0.29c-2.29-2.76-1.51-6.02-1-9.02c1.16-6.83,0.37-13.22-2.99-19.23
	c-9.83-14.61-13.97-31.73-19.58-48.2c-0.15-0.45,0.85-1.33,1.31-2.02c3.91-2.11,6.22,0.9,8.52,3.15
	C354.1,165.54,361.21,174.96,362.31,187.91z"/>
<path class="st6" d="M292.74,346.86c6.27-2.87,10.28-9.31,16.9-11.62c16.11-4.17,32.4-6.75,51.88-6.05
	c-19.65,13.92-36.14,28.44-59.67,25.25C297.58,353.86,292.16,354.07,292.74,346.86z"/>
<path class="st7" d="M135.34,365.51c4.75,0.46,9.96-0.62,13.42,4.26c-2.08,8.15-9.04,9.56-15.26,11.23
	c-19.53,5.24-37.46-1.64-57.43-8.6C97.02,367.9,115.85,363.66,135.34,365.51z"/>
<path class="st8" d="M248.94,369.66c4.39,0.35,7.81-2.3,11.53-4.05c19.6-1.88,38.67,1.35,59.86,6.91
	c-22.35,8.57-42.58,15.98-64.2,4.81C253.02,375.73,249.22,374.35,248.94,369.66z"/>
<path class="st9" d="M272.85,146.16c-3.84,5.38-10.27-0.02-14.49,3.77c-5.27,3.79-9.26-0.78-13.09-2.86
	c-5.92-3.22-10.75-3.46-17-0.34c-16.21,8.12-32.78,8.4-48.99-0.66c-3.02-1.69-6.01-3.33-9.41-1.32
	c-17.43,10.29-35.24,9.99-53.33,2.33c-4.27,7.31-0.79,15.3-2.05,22.81c-0.65,3.9,1.87,9.17-4.03,11.02
	c-0.53-12.98-1.13-25.95-1.52-38.93c-0.07-2.29-1.26-5.35,1.72-6.73c2.37-1.1,3.88,1.06,5.56,2.31
	c16.99,12.55,34.28,10.8,51.21,0.31c4.63-2.87,7.43-3.39,12,0.01c15.29,11.35,34.43,11.4,50.33,0.1c4.81-3.42,8.24-3.65,12.9-0.11
	C251.6,144.65,261.88,147,272.85,146.16z"/>
<path class="st1" d="M27.56,217.37c-15.93-7.36-20.01-22.61-23.39-38.26c-1.18-5.45-1.95-10.99-2.91-16.46
	c9.86,2.35,20,14.53,27.67,33.3c1.67-0.37,2.58-2.77,4.71-1.92c0.63,0.65,1.09,1.43,1.39,2.3c1.45,5.12-3.58,9.72-0.96,15.35
	C34.64,212.88,31.71,217.77,27.56,217.37z"/>
<path class="st10" d="M27.56,217.37c3.18-3.71,8.56-6.84,2.06-12.56c-1.44-1.26-3.3-4.78,2.25-3.24c2.76,0.76,0.92-3.66,1.65-5.57
	c0.94-3.35,0.41-6.92,1.33-10.29c3.74-13.55,10.7-24.51,23.11-31.07c1.23-0.83,2.46-1.66,4.63-3.12
	c-2.15,13.49-7.5,25.05-10.8,37.21c-2.96,10.67-9.43,18.93-16.83,26.54c-1.27,1.35-2.54,2.7-3.81,4.05
	C29.95,218.67,28.75,218.02,27.56,217.37z"/>
<path class="st11" d="M79.12,61.43c-4.75,6.16-9.5,12.31-14.25,18.47c-4.71,0.98-4.61-3.09-5.15-5.8
	c-2.28-11.49,0.5-21.9,7.02-31.27c3.71-5.33,7.65-10.48,12.51-17.12C81.74,35.94,81.4,44.38,80,53.02
	C79.56,55.73,76.38,58.34,79.12,61.43z"/>
<path class="st12" d="M166.94,314.01c0.39-1.16,0.78-2.32,1.17-3.48c6.57,0.18,11.06,4.89,16.05,8.29
	c4.83,3.29,9.64,6.66,14.3,10.21c4.21,3.21,8.32,3.61,12.62,0.5c16.71-12.12,34.38-22.83,49.58-37.11
	c10.3-9.67,18.62-20.83,23.35-34.64c0.89-2.59,1.6-5.57,4.56-6.76c2.45,0.37,1.36,3.01,2.5,4.22
	c-4.38,19.41-15.49,34.16-30.43,45.79c-15.3,11.91-31.26,22.9-46.72,34.6c-5.99,4.54-11.04,5.02-17.2,0.13
	C187.08,328.11,176.9,321.22,166.94,314.01z"/>
<path class="st13" d="M327.84,74.24c-0.38-0.56-0.76-1.13-1.13-1.69c-4.64-4.05-7.27-9.21-7.9-15.48
	c-0.68-9.79-1.37-19.58-2.07-29.61c16.01,8.16,24.57,30.79,19.95,52.12C332.38,80.27,331.12,75.37,327.84,74.24z"/>
<path class="st14" d="M347.53,106.62c0.4-11.88-1.79-23.96,2.43-35.54c1.16-3.2,1.9-6.67,5.08-9.8
	c4.39,17.07,14.21,32.81,6.08,51.11c-1.32,2.97-1.59,6.9-5.77,7.53C350.93,116.65,350.3,110.95,347.53,106.62z"/>
<path class="st15" d="M34.95,215.28c-0.14-6.48,5.98-8.73,8.46-13.49c2.39-4.58,5.55-8.72,8.37-13.05c1.07,2.34-2.71,9.38,4.86,5.43
	c2.88-1.5,4.08,0.61,4.09,2.85c0.02,4.2,1.47,8.66-1.31,12.57c-3.26-2.27,1.16-8.06-4-9.45c-8.13,11.07-13.76,23.26-15.11,38.9
	C36.24,230.57,36.34,222.73,34.95,215.28z"/>
<path class="st16" d="M362.31,187.91c-4.64-14.41-13.06-25.76-25.37-33.96c-7.43-4.91,2.18-9.81,0-14.71
	c5.9,7.17,11.98,14.1,19.67,19.33c7.59,5.16,2.2,14.24,5.41,20.91C363.13,181.76,362.28,185.07,362.31,187.91z"/>
<path class="st17" d="M291.07,255.23c-0.61-1.43-1.23-2.86-1.84-4.28c-1.06-1.23-1.8-2.76-1.52-4.31c3.62-19.76,3.9-40.04,8.5-59.65
	c4.15-17.15,3.27-34.36,0.6-51.6c1.93-0.52,3.92-0.57,3.9,2.14C300.34,177.02,302.71,216.75,291.07,255.23z"/>
<path class="st18" d="M134.08,277.93c-0.5,1.3-0.99,2.61-1.49,3.91c-15.1-20.88-20.07-44.93-20.33-70.45c2.04-2.24-1-6.18,2.47-7.94
	c3.12,1.37,3.22,4.37,3.36,7.17c1.09,22.02,5.69,43.07,15.51,62.74C134.3,274.77,134.58,276.33,134.08,277.93z"/>
<path class="st19" d="M57.96,154.64c-8.23,9.73-18.56,17.95-21.18,31.74c-3.94-0.25-3.25-3.69-3.95-6.18
	c-0.1-4.99-0.62-10.08,2.75-14.36c2.4-8.47,11.42-9.64,15.98-15.73C52.69,153.16,55.03,154.34,57.96,154.64z"/>
<path class="st20" d="M71.22,114.18c-6.7,6.22-15.73,9.01-21.85,16.15c-0.75,0.88-3.08,1.31-4.02,0.75
	c-1.62-0.97-0.06-2.59,0.18-4.02c2.24-13.33,14.41-14.13,22.7-19.81C68.01,110.13,68.62,112.62,71.22,114.18z"/>
<path class="st21" d="M166.16,76.67c7.43,0.92,7.13,8.45,7.4,11.96c0.44,5.65-6.62,6.32-10.51,5.99c-7.35-0.62-5.28-8.92-5.98-13.13
	C156.17,76.03,163.68,79.7,166.16,76.67z"/>
<path class="st22" d="M143.47,340.87c7.34,8.9,11.89,20.1,20.79,28.25c-4.51-1.28-9.01-2.56-13.53-3.83
	c-3.7-1.04-6.31-2.71-6.29-7.51c0.02-4.88-3.25-8.64-5.27-12.8C140.6,343.61,142.03,342.24,143.47,340.87z"/>
<path class="st23" d="M331.45,108.99c11.19,3.55,19.76,9.54,20.12,25.79c-7.4-10.38-17.03-14.57-25.56-20.44
	C328.37,113.15,330.12,111.31,331.45,108.99z"/>
<path class="st24" d="M120.92,57.91c-10.58-0.79-21.03-0.05-31.63,3.53c8.38-16.13,21.87-9.67,33.76-9.67
	C122.34,53.82,121.63,55.87,120.92,57.91z"/>
<path class="st25" d="M355.21,204.17c7.35,3.87,6.75,10.4,5.46,17.28c-0.68,3.62-0.99,7.31-1.47,10.97
	c-0.12,0.29-0.26,0.57-0.35,0.86c-0.3,1.01-1.41,1.54-1.5,0.5c-0.9-9.57-5.74-17.58-9.19-26.14
	C350.9,207.35,353.27,206.23,355.21,204.17z"/>
<path class="st26" d="M224.26,84.34c-2.57,1.03-0.77,5.8-4.5,5.12c-2.66-0.48-1.73-2.97-1.45-4.55c0.68-3.82-0.68-9.38,3.07-10.93
	c4.56-1.89,4.48,4.58,6.96,6.78c2.2-1.52,0.17-6.25,4.18-6.26c1.94-0.01,2.25,1.93,1.9,3.49c-0.97,4.39,0.93,10.52-3.16,12.81
	C227.6,92.84,227.05,86.64,224.26,84.34z"/>
<path class="st27" d="M57.23,316.24c5.18,1.27,11.22-2.68,15.56,1.22c5.91,5.31,10.82,11.84,15.53,18.63
	c-8.35-4.92-17.72-3.58-26.15-6.32c2.66-0.39,5.42-0.34,7.46-2.75c1.49-1.76,2.43-3.63,1.95-5.98c-0.58-2.87-2.85-2.68-4.97-2.91
	C63.44,317.79,59.88,319.37,57.23,316.24z"/>
<path class="st28" d="M157.75,93.51c-2.24,6.34-8.54,7.01-12.38,5.66c-4.45-1.56-5.18-9.38-4.94-13.12
	c0.23-3.68,7.66-3.64,11.27-4.61c5.03,1.06-5.07,6.41,2.65,6.16C153.4,90.86,155.23,92.4,157.75,93.51z"/>
<path class="st29" d="M197.81,121.76c-0.38,3.43-1.94,5.11-3.93,5.75c-3.21,1.03-6.76,1.31-9.22-1.69
	c-3.08-3.76,0.59-3.17,2.49-4.35c1.46-0.9-0.95-1.19-1.48-1.86c-1.39-1.76-2.79-3.41-1.26-5.8c1.47-2.3,3.64-3.09,6.2-3.09
	c4.32,0.01,2.44,2.73,2.36,5.1C192.89,119.08,198.52,118.58,197.81,121.76z"/>
<path class="st30" d="M294.75,96.78c4.15,0.59,7.85,2.55,7.87,7.99c0.01,5.35-2.67,9.43-8.07,9.26c-4.9-0.15-8.88-3.23-8.35-8.98
	C286.62,100.51,288.85,96.63,294.75,96.78z"/>
<path class="st31" d="M130.97,87.95c7.98-0.63,7.85,5.73,8.58,10.86c0.82,5.78-3.74,7.28-7.47,7.14c-6.42-0.24-7.27-6.63-9.15-11.47
	c-0.2-0.51,0.68-1.77,1.35-2.28c1.16-0.9,1.99-0.2,2.95,0.84c2.05,2.23,2.19,8.57,5.09,6.88c5.05-2.95-1.52-6.98-1.24-10.84
	C131.08,88.87,131.03,88.64,130.97,87.95z"/>
<path class="st32" d="M243.3,89.94c4.23-2.11,4.99-5,4.17-8.81c-0.37-1.71,0.38-3.2,2.4-2.91c1.12,0.16,3,0.67,3.12,1.32
	c0.91,4.77,0.39,9.86-3.17,12.92c-3.63,3.13-8.75,2.17-11.22-1.78c-2.81-4.48-0.84-9.65,1.61-14.11c0.25-0.45,2.18-0.58,2.43-0.2
	c0.61,0.89,1.19,2.38,0.88,3.28C242.4,82.89,240.87,85.98,243.3,89.94z"/>
<path class="st33" d="M270.99,86.08c-3.15,3.41-5.49-1.25-8,0.39c-1.85,4.37,7.74,1.72,3.88,6.29c-1.73,2.05,3.04,9.5-4.67,6.41
	c-4.19-1.68-9.48-1.46-6.4-9.53C259.66,79.51,259,79.2,270.99,86.08z"/>
<path class="st34" d="M207.61,79.61c-0.3,7.7-3.11,10.4-8.79,10.17c-5.44-0.22-7.65-3.66-7.61-8.57c0.05-5.65,3.42-8.78,8.82-8.4
	C204.86,73.15,207.86,75.94,207.61,79.61z"/>
<path class="st35" d="M235.91,119.96c0.56-3.66-2.04-9.24,5.39-8.81c5.22,0.3,8.79,1.9,8.83,8.02c0.04,6.26-2.91,8.53-8.95,8.81
	C234.39,128.28,236.18,123.75,235.91,119.96z"/>
<path class="st31" d="M115.31,116.85c-2.2-3.44-4.33-6.67-6.36-9.96c-1.11-1.81-2.77-3.85,0.03-5.53c2.79-1.68,5.13-5,8.81-3.97
	c2.53,0.71,4.27,3.31,3.31,5.85c-1.39,3.68-5.11,6.55-3.03,11.3C118.16,114.74,116.8,115.62,115.31,116.85z"/>
<path class="st36" d="M278.84,96.63c4.03,0.46,5.05-8.08,8.56-4.03c3.08,3.56-2.92,5.6-4.86,8.24c-1.7,2.31-3.77,5.43-7.46,3.37
	c-3.25-1.81-1.58-4.95-1.6-7.61c0-0.31,0.05-0.63,0.12-0.93c0.73-3.1-0.79-8.96,2.43-8.77C281.34,87.22,277.18,93.11,278.84,96.63z"
	/>
<path class="st37" d="M165.21,121.62c1.43,6.51-3.24,6.17-6.91,6.3c-4.93,0.17-6.92-3.43-7.13-7.88c-0.21-4.43,1.49-8.28,6.2-8.91
	c3.7-0.5,8.08-0.9,7.84,5.37c-1.43,1.56-3.94,0.91-5.39,2.61C161.14,121.47,163.88,119.85,165.21,121.62z"/>
<path class="st38" d="M110.47,180.91c3.28-11.04,0.43-22.36,1.49-33.49c0.21-2.23-1.84-7.06,3.84-4.96
	c1.52,15.13,1.28,30.26,0.16,45.4c-2.13,4.6,0.07,10.56-4.18,14.5C109.95,195.3,110.23,188.1,110.47,180.91z"/>
<path class="st39" d="M35.57,165.84c-0.21,4.96-0.42,9.93-0.63,14.89c-1.77,4.36,1.55,9.39-1.62,13.57
	c-1.47,0.55-2.93,1.09-4.4,1.64c0.81-9.26,1.62-18.53,2.43-27.79C32.21,166.28,33.77,165.81,35.57,165.84z"/>
<path class="st40" d="M253.1,354.32c1.5,14.53-10.82,9.47-16.34,14.06c-0.83-0.93-1.66-1.85-2.5-2.78c3.05-2.53,6.11-5.05,9.16-7.58
	C247.45,359.04,250.01,355.93,253.1,354.32z"/>
<path class="st41" d="M178.15,74.75c2.76,0.72,1.91,3.48,2.6,5.32c1.16,3.05,0.09,8.27,6.21,5.83c1.71-0.68,3.21,1.57,2.18,2.69
	c-2.37,2.58-6.23,2.88-9.19,2.52c-4.19-0.5-3.09-5.26-3.59-8.27c-0.41-2.5-1.98-5.55,0.89-7.78
	C177.48,74.9,177.81,74.87,178.15,74.75z"/>
<path class="st42" d="M81.07,84.08c-5.61,3.16-11.22,6.32-16.84,9.48c1.67-6.39,5.23-11.19,9.39-15.58
	C73.58,83.36,78.73,81.85,81.07,84.08z"/>
<path class="st43" d="M226.02,118.38c-1.53,4.02-2.73,7.93-4.48,11.55c-1.16,2.4-3.92,3.97-6.05,2.27c-3.62-2.89,2.5-2.93,1.77-4.14
	c-3.79-6.3,3.58-6.96,4.71-10.7c0.48-1.61,1.94-1.42,3.01-1.06C225.5,116.46,225.69,117.66,226.02,118.38z"/>
<path class="st44" d="M313.24,76.56c11.01-2.38,14.02,6.47,17.61,14.84c-3.44-1.9-6.87-3.8-10.31-5.71
	C324.79,76.85,314.7,80.45,313.24,76.56z"/>
<path class="st45" d="M208.57,373.1c4.03,3.68,0.18,4.71-1.96,6.3c-4.22-2.91-9.08-1.08-13.57-1.96c-2.52-0.35-4.18-1.53-4.03-4.49
	C195.53,373,202.05,373.05,208.57,373.1z"/>
<path class="st46" d="M88.55,291c-3.24,1.6-4.08,4.16-4.05,7.92c0.03,4.45,1.72,9.28-1.42,13.41c-1.21-10.29-0.59-20.55-0.05-32.56
	C85.88,284.36,87.92,287.28,88.55,291z"/>
<path class="st47" d="M165.21,121.62c-3.02-1.22-4.88,4.51-8.12,1.54c-1.56-1.43-1.37-3.58-0.84-5.32c2.02-6.66,6.09,0.17,8.95-1.34
	C166.34,118.21,166.34,119.91,165.21,121.62z"/>
<path class="st48" d="M318.8,57.06c2.63,5.16,5.27,10.32,7.9,15.48c-4.7-1.67-7.13-5.76-9.65-9.77
	C319.47,61.48,318.08,58.92,318.8,57.06z"/>
<path class="st49" d="M276.52,36.39c1.28,0.69,2.57,1.37,6.24,3.34c-8.57,0-14.7,0-20.84,0C266.24,35.99,272.08,39.51,276.52,36.39z
	"/>
<path class="st50" d="M111.78,202.36c1.75-4.39-0.99-9.42,1.82-13.65c4,4.79,3.68,9.73,0.5,14.78c-1.07,2.52,0.45,5.69-1.84,7.91
	C112.1,208.38,111.94,205.37,111.78,202.36z"/>
<path class="st51" d="M55.43,200.12c0.73-1.28,1.31-3.49,2.24-3.66c2.2-0.42,1.55,1.77,1.59,3.11c0.09,3.33,0.12,6.67,0.17,10.01
	c-0.23,1.87-0.47,3.75-0.7,5.62C55.35,210.71,59,204.56,55.43,200.12z"/>
<path class="st52" d="M347.53,106.62c3.97,3.57,5.13,8.93,7.83,13.3c-0.72,0.03-1.43,0.06-2.15,0.09
	c-3.19-4.04-4.73-8.94-6.58-13.68C347.01,106.14,347.31,106.23,347.53,106.62z"/>
<path class="st53" d="M157.75,93.51c-2.81,0.4-5.62,0.8-8.66,1.24c-0.87-4.94,6.11-2.84,5.25-7.15
	C156.46,88.95,156.94,91.33,157.75,93.51z"/>
<path class="st54" d="M51.65,285.89c1.77,2.73,3.53,5.46,6.06,9.37c-5-0.61-7.01-3.65-9.5-5.8
	C50.53,289.5,51.63,288.26,51.65,285.89z"/>
<path class="st55" d="M114.1,203.49c-0.17-4.93-0.34-9.86-0.5-14.78c-0.12-12.36-0.39-24.72-0.24-37.07
	c0.04-3.09-1.82-7.15,2.45-9.17c17.52,11.05,35.1,9.94,52.57,0.02c3.01-1.71,4.96-3.34,8.7-0.75c17.43,12.07,35.61,10.76,53.37,1.08
	c5.02-2.74,8.16-2.82,12.73,0.46c4.47,3.21,9.43,6.19,15.2,6.66c1.83,0.18,3.67,0.37,5.5,0.55c2.56,3.73-0.25,6.24-1.88,9.02
	c-40.2,38.47-80.4,76.95-120.62,115.4c-2.02,1.93-3.5,5.54-7.27,3.02c-12.23-18.85-16.07-40.37-18.26-62.4
	C115.42,211.49,115.82,207.32,114.1,203.49z"/>
<path class="st55" d="M296.2,186.99c0.49,21.65-3.43,42.78-6.98,63.95c-9.82,33.69-35.87,51.82-61.76,70.26
	c-22.21,15.82-22.03,16.01-43.82-0.08c-5.04-3.73-10.35-7.07-15.53-10.59c0.15-2.89,2.31-4.34,4.07-6.03
	c38.68-37.09,77.37-74.16,116.1-111.19C290.72,190.98,293.55,189.09,296.2,186.99z"/>
<path class="st56" d="M261.98,159.51c0.63-3.01,1.26-6.02,1.88-9.02c2.27-0.55,4.54-1.03,7.31,0.75
	C268.01,154.15,265.99,157.9,261.98,159.51z"/>
<path class="st57" d="M33.32,194.3c0.63-4.51-1.08-9.32,1.62-13.57c0.94,1.77-0.28,4.29,1.83,5.64c-0.23,3.52-0.96,6.85-3.25,9.61
	C33.62,195.41,33.56,194.84,33.32,194.3z"/>
<path class="st58" d="M298.28,104.31c-0.7,2.36-1.37,5.09-4.19,5.47c-2.17,0.29-3.23-1.64-3.12-3.7c0.12-2.3,1.16-4.43,3.48-4.95
	C296.53,100.66,297.8,102.07,298.28,104.31z"/>
<path class="st59" d="M199.5,76.73c2.57,0.22,3.28,2.33,3.31,4.52c0.03,2.16-0.45,4.5-3.28,4.5c-2.65,0-3.49-1.79-3.48-4.3
	C196.07,79.01,196.92,77.3,199.5,76.73z"/>
<path class="st60" d="M245.68,120.1c-0.03,2.09-0.75,3.89-2.97,3.75c-3.08-0.19-2.44-2.92-2.49-4.96c-0.05-1.91,0.23-4.21,2.58-3.87
	C245.22,115.37,245.75,117.76,245.68,120.1z"/>
</svg>
