<?xml version="1.0" encoding="utf-8"?>
<!-- Generator: Adobe Illustrator 23.1.0, SVG Export Plug-In . SVG Version: 6.00 Build 0)  -->
<svg version="1.1" id="Capa_1" xmlns="http://www.w3.org/2000/svg" xmlns:xlink="http://www.w3.org/1999/xlink" x="0px" y="0px"
	 viewBox="0 0 400 400" style="enable-background:new 0 0 400 400;" xml:space="preserve">
<style type="text/css">
	.st0{fill:#FBE440;}
	.st1{fill:#069601;}
	.st2{fill:#CED223;}
	.st3{fill:#77B682;}
	.st4{fill:#041004;}
</style>
<path class="st0" d="M207.12,393.61c-4.16,1.2-5.15,6.53-10.56,6.1c0.87-6.84-3.79-11.4-9.29-14.97
	c-12.25-7.92-14.68-18.29-14.63-31.08c0.52-105.56,0.3-211.12,0.3-316.67c0-5.31,0-10.61,0-17.74c19.66,8.22,37.22,6.07,54.52-0.58
	c0.16,18.84,0.42,37.66,0.46,56.5c0.2,98.15,0.36,196.3,0.54,294.45C219.74,376.54,207.28,380.98,207.12,393.61z"/>
<path class="st1" d="M228.42,369.6c-0.18-98.15-0.32-196.3-0.54-294.45c-0.04-18.84-0.3-37.66-0.46-56.5
	c0.3-1.91,0.57-3.83,0.87-5.74c1.66-0.22,3.79,0.03,4.93-0.76c16.69-11.71,33.19-14.56,49.66,0.21c-2.48,4.92,3.92,7.79,3.73,12.17
	c0,109.25,0,218.51,0,327.76c-1.41,7.15-8.38,5.07-13.32,5.74C257.69,360.11,242.36,362.74,228.42,369.6z M259.26,96.31
	c8.16,0.67,13.79-0.07,12.78-7.32c-0.77-5.6-4.52-9.09-10.78-10.11c-6.44-1.03-12.82-0.57-16.88,4.68
	c-4.22,5.45-2.71,11.05-0.55,17.02c1.21,3.35,11.45,5.6,2.04,11.12c-7.75,4.54-5.49,11.77-1.51,17.07
	c3.96,5.26,10.86,6.36,18.35,4.28c8.13-2.25,9.55-7.2,9.95-13.73C273.19,110.27,265.17,105.32,259.26,96.31z"/>
<path class="st0" d="M56.35,30.66c16.33-1.87,32.3-4.8,46.85-11.95c2.44,2.96,6.06,3.06,9.73,3.08
	c0.04,111.09,0.08,222.17,0.12,333.26c-19.34,0.96-38.56,0.26-57.65-2.9c0.18-5.95,0.52-11.89,0.52-17.83
	C56.09,233.1,56.23,131.89,56.35,30.66z"/>
<path class="st1" d="M113.05,355.06c-0.04-111.09-0.08-222.17-0.12-333.26c0.02-4.11,7.11-7.48,1.7-12.15
	c11.06-11.38,23.03-13.2,36.25-2.7c4.1,3.25,8.96,5.24,14.47,6.03c3.29,6.72,5.09,13.49,5.07,21.04
	c-0.26,105.92-0.18,211.84-0.18,317.76c0,3.46-0.06,6.93-0.18,10.38c-0.16,4.8-3.33,6.21-7.89,4.28
	C146.64,359.87,128.96,360.35,113.05,355.06z M127.63,106.92c0,3.95-0.38,7.94,0.08,11.84c0.77,6.5-4.28,15.93,10.6,15.68
	c12.15-0.22,19.78-4.14,19.96-15.49c0.14-8.41,0.26-16.81-0.04-25.2c-0.42-11.47-9.25-12.82-20.09-13.03
	c-11.87-0.22-10.54,6.41-10.52,12.86C127.63,98.03,127.63,102.48,127.63,106.92z"/>
<path class="st1" d="M56.35,30.66c-0.14,101.23-0.26,202.44-0.42,303.66c0,5.95-0.34,11.89-0.52,17.83
	c-24.79,7.84-44.97-4.01-44.97-26.57c-0.06-90.24-0.02-180.49-0.02-270.73c0-7.44-1.39-15.16,0.48-22.24
	c2.91-11.1,15.7,3.68,20.61-4.8C39.46,30.91,48.12,29.39,56.35,30.66z M29.73,86.41c6.58,4.81,3.88,15.64,13.57,10.59
	c4.91-2.56,3.61-9.26,0.71-13.61c-2.75-4.14-8.26-5.14-13.57-4.68c-5.23,0.46-11.59,1.93-11.93,6.81
	c-0.91,13.79-1.45,27.73,0.02,41.43c0.73,6.84,9.33,7.87,16.53,6.89c9.25-1.27,11.69-6.81,10.72-14.16
	c-0.44-3.32,0.55-7.94-5.11-7.86c-9.08,0.14-4,7.92-7.25,11.33c-0.5,0.52-1.84,0.43-3.71,0.81
	C29.73,112.26,29.73,100.73,29.73,86.41z"/>
<path class="st1" d="M368.4,27.67c4.48-5.09,11.36-1.93,16.81-3.64c3.94,5.91,2.99,12.41,2.99,18.79c0,92.2,0,184.42,0,276.62
	c0,24-0.97,25.2-26.56,33.11c-6-2.1-12.45,7.29-18.23-0.52c-0.04-105.21-0.08-210.45-0.12-315.66
	C350.16,30.23,362.09,35.05,368.4,27.67z M369.58,97.68c6.36-1.65,13.42-1.1,12.13-8.66c-1.07-6.33-5.43-9.68-12.47-10.38
	c-5.91-0.58-11.69,0.1-15.24,4.85c-4.52,6.05-2.85,11.98,0.22,18.32c1.29,2.65,11.26,4.98,1.53,9.83
	c-8.44,4.21-5.67,11.62-2.16,16.86c3.67,5.48,10.88,6.45,18.23,4.61c7.91-1.98,10.09-6.57,10.54-13.37
	C382.98,110.63,375.47,105.56,369.58,97.68z"/>
<path class="st2" d="M31.5,27.81c-4.91,8.47-17.7-6.31-20.61,4.8c-1.86,7.08-0.48,14.8-0.48,22.24c0,90.24-0.04,180.49,0.02,270.73
	c0.02,22.59,20.17,34.41,44.97,26.57c19.06,3.16,38.31,3.87,57.65,2.9c15.91,5.29,33.57,4.81,49.13,11.4
	c4.56,1.93,7.71,0.52,7.89-4.28c0.12-3.46,0.18-6.93,0.18-10.38c0-105.92-0.08-211.84,0.18-317.76c0.02-7.55-1.78-14.32-5.07-21.04
	c20.99,4.98,41.97,8.71,62.94-0.07c-0.28,1.91-0.57,3.83-0.85,5.74c-17.3,6.65-34.86,8.8-54.52,0.58c0,7.13,0,12.44,0,17.74
	c0,105.56,0.22,211.12-0.3,316.67c-0.06,12.79,2.38,23.15,14.63,31.08c5.53,3.58,10.17,8.13,9.29,14.97
	c-3.88,0.95-6.08-0.53-8.44-3.3c-22.45-26.51-55.75-30.46-90.07-32.59c-25.51-1.6-51.01-3.56-76.42-6.05
	c-7.61-0.74-10.8-8.2-16.83-11.74C4.61,240.23,4.43,134.42,4.33,28.62c0-2.42,0.87-4.85,1.35-7.27
	C14.12,24.03,24.5,20.83,31.5,27.81z"/>
<path class="st0" d="M361.66,352.56c25.58-7.91,26.56-9.11,26.56-33.11c0-92.2,0-184.42,0-276.62c0-6.38,0.95-12.87-2.99-18.79
	l0.18,0.33c10.78,2.84,6.28,10.66,6.3,16.28c0.48,100.44,0.59,200.87,0.79,301.31c-1.05,18.32-19.24,13.05-30.84,16.85
	C361.64,356.71,361.64,354.64,361.66,352.56z"/>
<path class="st2" d="M361.66,352.56c0,2.08,0,4.16-0.02,6.24c-23.11,0.96-46.02,3.4-69.3,3.76c-31.59,0.5-61.1,11.83-85.22,31.04
	c0.18-12.63,12.62-17.07,21.3-24.01c13.93-6.86,29.27-9.49,44.87-11.57c4.95-0.65,11.93,1.43,13.32-5.74
	c18.99,7.72,37.87,0.57,56.8-0.24C349.21,359.85,355.63,350.47,361.66,352.56z"/>
<path class="st1" d="M5.7,21.35c-0.48,2.42-1.35,4.85-1.35,7.27c0.1,105.8,0.28,211.62,0.46,317.41c-7.33-1.24-3.96-6.36-3.96-9.54
	C0.62,233.79,0.62,131.08,0.8,28.38c0-2.89-2.97-6.94,2.54-8.8c0.28-0.1,0.89,0.36,1.25,0.64C5,20.54,5.32,20.97,5.7,21.35z"/>
<path class="st3" d="M387.22,21.21c6.24-3.13,12.07-5.47,11.95,4.4c-0.02,2.48,0,4.97,0,7.44c0,97.72,0.1,195.44-0.22,293.16
	c-0.02,5.11,4.5,12.29-5.09,15.35c0.18-0.48,0.5-0.95,0.5-1.43c0.36-103.29,0.67-206.58,1.09-309.87
	C395.49,25.11,393.8,21.62,387.22,21.21z"/>
<path class="st2" d="M387.22,21.21c6.58,0.4,8.24,3.88,8.22,9.06c-0.42,103.29-0.73,206.58-1.09,309.87c0,0.48-0.32,0.95-0.5,1.43
	c-0.02,0-1.41,0.38-1.41,0.38c-0.2-100.44-0.32-200.87-0.79-301.31c-0.02-5.6,4.48-13.44-6.3-16.28
	C385.99,23.32,386.61,22.26,387.22,21.21z"/>
<path class="st2" d="M368.4,27.67c-6.3,7.37-18.23,2.56-25.09,8.71c-18.37-2.85-36.5-6.43-53.69-13.03
	c-0.67-0.26-1.98,0.76-2.99,1.17c0.2-4.38-6.2-7.25-3.73-12.17c2.2,0.43,4.95,0.28,6.54,1.38C313.05,30.17,340.79,28.5,368.4,27.67z
	"/>
<path class="st2" d="M114.63,9.64c5.41,4.68-1.68,8.04-1.7,12.15c-3.67-0.02-7.29-0.12-9.73-3.08
	C107.78,16.41,107.76,9.76,114.63,9.64z"/>
<path class="st0" d="M286.61,24.55c1.01-0.41,2.32-1.43,2.99-1.17c17.18,6.58,35.31,10.16,53.69,13.03
	c0.04,105.21,0.08,210.45,0.12,315.66c-18.93,0.81-37.81,7.98-56.8,0.24C286.61,243.05,286.61,133.8,286.61,24.55z"/>
<path class="st4" d="M259.26,96.31c5.91,9.01,13.93,13.96,13.38,23c-0.4,6.53-1.82,11.47-9.95,13.73
	c-7.49,2.08-14.37,0.98-18.35-4.28c-3.98-5.28-6.24-12.53,1.51-17.07c9.41-5.52-0.83-7.77-2.04-11.12
	c-2.14-5.96-3.67-11.57,0.55-17.02c4.06-5.24,10.44-5.71,16.88-4.68c6.26,1.01,9.99,4.5,10.78,10.11
	C273.03,96.24,267.43,96.98,259.26,96.31z"/>
<path class="st4" d="M127.63,106.92c0-4.45,0.02-8.89,0-13.34c-0.02-6.43-1.37-13.08,10.52-12.86c10.84,0.21,19.68,1.56,20.09,13.03
	c0.3,8.39,0.18,16.79,0.04,25.2c-0.18,11.34-7.81,15.28-19.96,15.49c-14.88,0.26-9.83-9.18-10.6-15.68
	C127.24,114.86,127.63,110.87,127.63,106.92z M141.76,89.33c-3.69,11.57-3.69,23.07,0.2,34.46
	C144.95,112.23,146,100.71,141.76,89.33z"/>
<path class="st4" d="M29.73,86.41c0,14.32,0,25.85,0,37.56c1.88-0.38,3.21-0.29,3.71-0.81c3.25-3.42-1.82-11.21,7.25-11.33
	c5.67-0.09,4.68,4.52,5.11,7.86c0.95,7.34-1.47,12.89-10.72,14.16c-7.19,0.98-15.79-0.05-16.53-6.89
	c-1.47-13.7-0.91-27.64-0.02-41.43c0.32-4.88,6.7-6.34,11.93-6.81c5.31-0.46,10.82,0.53,13.57,4.68c2.87,4.35,4.2,11.05-0.71,13.61
	C33.62,102.07,36.31,91.22,29.73,86.41z"/>
<path class="st4" d="M369.58,97.68c5.89,7.89,13.4,12.96,12.78,22.07c-0.46,6.81-2.64,11.38-10.54,13.37
	c-7.35,1.84-14.57,0.88-18.23-4.61c-3.49-5.24-6.28-12.65,2.16-16.86c9.73-4.85-0.24-7.19-1.53-9.83
	c-3.07-6.34-4.76-12.27-0.22-18.32c3.55-4.74,9.33-5.43,15.24-4.85c7.04,0.7,11.4,4.06,12.47,10.38
	C383.02,96.58,375.97,96.03,369.58,97.68z"/>
<path class="st1" d="M141.76,89.33c4.26,11.38,3.21,22.9,0.2,34.46C138.06,112.38,138.08,100.9,141.76,89.33z"/>
</svg>
