<?xml version="1.0" encoding="utf-8"?>
<!-- Generator: Adobe Illustrator 23.1.0, SVG Export Plug-In . SVG Version: 6.00 Build 0)  -->
<svg version="1.1" id="Capa_1" xmlns="http://www.w3.org/2000/svg" xmlns:xlink="http://www.w3.org/1999/xlink" x="0px" y="0px"
	 viewBox="0 0 400 400" style="enable-background:new 0 0 400 400;" xml:space="preserve">
<style type="text/css">
	.st0{fill:#0B090D;}
	.st1{fill:#090808;}
	.st2{fill:#E1EFEB;}
	.st3{fill:#FD0101;}
	.st4{fill:#FEFE03;}
	.st5{fill:#F5F616;}
	.st6{fill:#EEF21F;}
	.st7{fill:#D1150A;}
	.st8{fill:#9D4701;}
	.st9{fill:#EEEA2E;}
	.st10{fill:#9E4A00;}
	.st11{fill:#E4E243;}
	.st12{fill:#FEBC5C;}
	.st13{fill:#4E0505;}
	.st14{fill:#B11211;}
	.st15{fill:#440703;}
	.st16{fill:#C61017;}
	.st17{fill:#B3C538;}
	.st18{fill:#F1ED38;}
	.st19{fill:#410504;}
	.st20{fill:#410705;}
	.st21{fill:#680505;}
	.st22{fill:#630607;}
	.st23{fill:#E5C579;}
	.st24{fill:#EEF350;}
	.st25{fill:#7C0804;}
	.st26{fill:#C30E19;}
	.st27{fill:#470605;}
	.st28{fill:#AE1411;}
	.st29{fill:#250912;}
	.st30{fill:#B2130E;}
	.st31{fill:#4C0B10;}
	.st32{fill:#9F1012;}
	.st33{fill:#5F090E;}
	.st34{fill:#6F0C0C;}
	.st35{fill:#3B0102;}
	.st36{fill:#330D0D;}
	.st37{fill:#AC1117;}
	.st38{fill:#070406;}
	.st39{fill:#07060A;}
	.st40{fill:#E20D0D;}
	.st41{fill:#CD1516;}
	.st42{fill:#D01608;}
	.st43{fill:#1B0803;}
	.st44{fill:#CF0F11;}
	.st45{fill:#B11311;}
	.st46{fill:#DB0B1A;}
	.st47{fill:#D11416;}
	.st48{fill:#B41618;}
	.st49{fill:#5F0606;}
	.st50{fill:#D61109;}
	.st51{fill:#D01310;}
	.st52{fill:#C81518;}
	.st53{fill:#C41218;}
	.st54{fill:#AC1013;}
	.st55{fill:#C71516;}
	.st56{fill:#A41218;}
	.st57{fill:#F8F829;}
	.st58{fill:#111011;}
	.st59{fill:#131011;}
	.st60{fill:#EBEA3C;}
	.st61{fill:#D9DE5A;}
	.st62{fill:#F8FA13;}
	.st63{fill:#161006;}
	.st64{fill:#E5E492;}
	.st65{fill:#E1E861;}
	.st66{fill:#F9F326;}
	.st67{fill:#DCDB4D;}
	.st68{fill:#E3E639;}
	.st69{fill:#E8E470;}
	.st70{fill:#DDEDA7;}
	.st71{fill:#E2E85F;}
	.st72{fill:#F1E91B;}
	.st73{fill:#FDFD32;}
	.st74{fill:#F1F051;}
	.st75{fill:#F4FA1B;}
	.st76{fill:#0F0F08;}
	.st77{fill:#E6ED69;}
	.st78{fill:#FEBC5B;}
	.st79{fill:#360408;}
	.st80{fill:#D20F17;}
	.st81{fill:#490206;}
	.st82{fill:#7B0608;}
	.st83{fill:#390B10;}
	.st84{fill:#922E23;}
	.st85{fill:#290507;}
	.st86{fill:#672A35;}
	.st87{fill:#070809;}
	.st88{fill:#120F1B;}
	.st89{fill:#DDE097;}
	.st90{fill:#ECEA4E;}
	.st91{fill:#09051A;}
	.st92{fill:#060125;}
	.st93{fill:#D4E34C;}
	.st94{fill:#08061B;}
	.st95{fill:#E9F649;}
</style>
<path class="st0" d="M206.52,399.46c-6.39,1.76-11.23-1.06-15.92-4.27c-14.99-10.28-29.97-20.56-44.95-30.85
	c-21.44-19.46-44.53-37.57-62.35-59.99c2.47-1.12,4.03-3.06,5.73-4.91c4.19-0.62,6.98,1.9,10.2,3.49c3.87,2.79,7.6,5.7,10.13,9.6
	c3.06,8.6,10.46,13.85,18.41,18.68c3.25,1.69,6.46,3.43,8.97,5.97c1.7,3.92,4.99,6.47,9.12,8.31c2.83,4.32,5.31,8.87,10.03,11.94
	c5.28,5.69,11.99,9.35,20.01,11.17c1.02,0.25,2,0.61,2.94,1.03c4.43,2.84,7.58,7.36,13.57,8.19c2.71,1.17,5.06,2.83,7.54,4.3
	c5.73,1.43,8.75-2.89,12.88-4.8c21.79-15.56,43.68-31.02,62.87-49.18c6.16-5.21,12.18-10.53,18.04-16.01
	c0.7-0.73,1.46-1.4,2.22-2.07c12.74-14.17,26.92-27.42,35.72-44.09c0.85-1.85,1.97-3.57,3.14-5.27
	c12.13-15.03,19.53-31.98,25.59-49.47c6.09-15.82,11.09-31.88,13.68-48.48c1.42-3.6,1.52-7.43,2.46-11.12
	c3.11-23.72,6.79-47.37,6.24-71.37c-0.17-7.26-4.12-11.57-9.91-15.45c-19.03-12.78-38.63-24.88-57.59-37.73
	c-16.24-11.99-16.24-11.99-30.02-4.9c-2.93,1.69-5.92,3.29-9.23,4.34c-20.42,6.62-41.21,12.06-62.7,15.21
	c-4.53,0.25-9.06,0.22-13.59,0.14c-8.2-1.36-16.58-1.74-24.75-3.26c-4.47-2.93-10.1-2.86-15.09-4.44
	c-4.11-3.08-9.65-2.57-14.25-4.42c-7.18-3.74-14.68-6.76-22.91-8.22c-2.83-1.64-5.39-3.49-6.12-6.65c8.73-2.57-1.83-6.23,0.65-9.16
	c19.15,6.95,37.5,15.64,58.24,18.97c31.79,5.1,61.5-1.29,90.59-11.77c5.8-2.09,12.12-3.79,16.97-7.08
	c12.36-8.38,22.1-5.52,33.32,2.49c19.83,14.14,40.74,27.11,61.36,40.38c6.4,4.12,10.22,10.66,18.47,13.28
	c4.52,1.43,3.51,7.29,3.62,11.42c3.16,123.99-44.64,227.06-158.54,302.97C229.73,384.09,218.12,391.77,206.52,399.46z"/>
<path class="st1" d="M117.28,5.73c-1.55,2.78,13.28,5.45,0.08,8.32c-5.43,1.38-11.41-0.83-16.59,2.07
	c-0.86,0.54-1.78,0.98-2.72,1.39c-6.09,1.24-10.03,4.68-12.58,9.58c-2.47,2.84-5.95,4.33-9.55,5.67c-5.03,1.64-9.53,4.38-14.71,5.71
	c-5.4,1.59-10.52,3.48-12.43,8.91c-1.21,2.41-3.33,3.78-6.18,4.35c-10.97,3.46-21,7.84-27.26,17.36c-2.84,4.32-1.9,7.71,0.65,11.43
	c5.99,21.82,7.22,44.23,10.33,66.39c0.82,5.87,2.22,11.5,3.93,17.14c1.06,5.67-0.25,11.7,3.27,17.01c0.48,0.95,0.84,1.93,1.14,2.93
	c0.68,5.02,1.41,10.03,4.55,14.45c1.71,10.23,8.93,18.94,10.42,29.23c-0.87,10.48,4.59,18.64,12.22,26
	c2.96,2.25,5.43,4.78,6.16,8.32c0.01,4.37,2.87,7.83,4.74,11.61c2.32,4.66,5.21,9.01,8.92,12.92c2.54,4.44,10.41,6.61,7.37,13.44
	c0.63,4.05-1.04,5.75-5.72,4.39c-31.96-34.14-51.03-73.88-64.01-116.19C7.76,150.54,2.36,112.09,0.05,73.23
	C-0.41,65.5,2.29,60.1,9.69,55.75c8.73-5.13,16.8-11.16,25.15-16.79c3.67-1.36,5.18-5.74,9.95-5.58c2.45-5.68,9.38-5.74,13.93-8.76
	c11.03-6.52,22.62-12.43,32.93-19.75C101.17-1.89,109.04-1.62,117.28,5.73z"/>
<path class="st2" d="M44.78,33.39c-2.8,2.57-5.31,5.56-9.94,5.57c5.63-3.37-7.14-4.88-1.09-8.15C38.27,28.37,41.49,31.2,44.78,33.39
	z"/>
<path class="st2" d="M58.73,24.62c-3.91,3.83-8.45,6.87-13.92,8.75C42.48,21.75,53.17,26.39,58.73,24.62z"/>
<path class="st3" d="M27.91,166.24c-7.93-28.78-9.81-58.32-14.12-87.56c-2.93-6.87,1.88-10.67,7.19-14.27
	c9.03,0.1,13.76-5.89,19.3-10.75c0.79-0.64,1.68-1.14,2.65-1.54c5.59,0.03,5.86-4.48,7.99-7.39c2.98-1.86,6.58-2.7,9.53-4.61
	c6.12-1.47,10.53-5.1,14.63-9.11c3.02-1.57,6.04-3.15,9.05-4.72c3.43-3.96,7.99-6.4,13.32-7.83c12.4-2.87,21.45,3.29,30.71,8.91
	c18.38,4.11,35.42,13.04,55.25,11.8c2.02,0.08,3.96,0.35,5.67,1.41c3.01,2.29,5.81,4.87,6.13,8.5c1.2,13.75,1,27.52,0.14,41.27
	c-0.31,4.88-4.47,6.89-9.15,8.25c-5.1,1.49-9.29,3.72-8.99,9.32c0.06,4.81,0.2,9.62-1.42,14.29c-6.14,9.1-9.16,18.84-8.3,29.54
	c0.33,4.09,0.4,8.28-1.42,12.23c-4.64,4.48-1.64,11.45-6.53,15.87c-6.25,3.02-13.04,1.56-19.61,1.83
	c-8.19-0.38-12.02-3.54-9.21-11.14c1.67-4.51-3.02-8.24-2.31-12.68c-0.36-7.55,6.39-13.85,4.66-21.78
	c-0.79-3.62-0.02-7.51-2.86-10.69c-1.75-10.74-3.57-21.44-18.32-24.58c-14.79-5.18-28.6-3.1-41.71,4.34
	c-6.68,2.19-10.19,7.44-10.37,12.73c-0.57,16.86-2.73,33.88,2.6,50.53c1.71,4.09,1.53,8.36,1.51,12.61
	c0.26,5.7-2.58,12.44,6.53,15.15c2.04,0.52,3.94,1.31,5.7,2.35c2.24,1.31,4.24,2.84,5.72,4.84c4.35,8.15,10.98,3.76,17.05,2.4
	c11.1-0.19,20-4.32,27.3-11.61c2.15-2.15,3.52-5.64,8.04-4.85c3.08,1.36,4.17,3.89,5.01,6.57c4.91,8.19,14.1,8.18,22.65,9.14
	c11.79,1.32,24.02-2.13,35.53,2.54c1.37,1.64,1.39,3.42,0.7,5.28c-3.03,4.45-2.18,9.4-2.18,14.19
	c-0.04,43.57-0.02,87.14-0.03,130.72c0,2.77,0.1,5.54-0.1,8.3c-0.76,10.33-3.31,11.6-13.37,6.78c-1.37-0.66-2.79-1.25-4.16-1.91
	c-0.61-0.07-1.22-0.16-1.82-0.27c-2.06-0.85-3.91-1.9-4.74-3.92c-1.23-7.08-9.9-7.75-13.86-12.55c-2.44-2.96-6.09-5.05-8.67-7.99
	c-1.91-6.09-6.25-10.07-13.14-11.84c-6.29-5.09-12.12-10.68-19.77-14.3c-2.49-1.97-4.57-4.2-5.68-7.03
	c-0.8-5.93-4.32-9.85-10.91-11.48c-0.92-0.43-1.69-1.01-2.35-1.72c-1.54-2.77-2.5-5.81-4.86-8.21c-1.67-4.33-4.2-8.15-8.23-11.1
	c-0.7-0.69-1.27-1.46-1.72-2.29c-1.36-5.28-5.59-8.42-10.53-11.04c-0.72-0.71-1.3-1.5-1.78-2.36c-1.29-6.46-6.29-10.86-10.99-15.43
	c-0.76-1.38-1.18-2.85-1.38-4.37c0.66-8.77-6.08-15.35-8.71-23.13c-3.4-10.06-9.96-19.01-12.74-29.26c-2.29-2.88-0.51-7.03-3.83-9.6
	l-0.01-0.02C28.57,177.95,32.26,171.22,27.91,166.24z"/>
<path class="st4" d="M277.11,23.74c2.1-1.18,4.2-2.36,6.3-3.55c10.76-3.96,20.78-4.03,29.18,4.37c7.08,7.61,18.04,10.95,25.59,17.81
	c11.15,10.13,26.77,14.79,37.55,25.34c5,4.89,7.52,9.75,7.87,16.51c0.93,18.07-2.48,35.73-4.92,53.5
	c-0.09,5.16,0.46,10.36-1.33,15.4c-2.97,4.98-3.1,10.39-3.55,15.87c-0.6,7.3-1.11,14.96-9.65,19.28c-2.65-0.05-4.3-1.84-6.4-2.87
	c-4.74-2.5-10.47-1.3-15.38-3.18c-8.26-3.55-11.83-9.41-11.66-17.51c0.18-8.84-3.83-16.03-12.37-20.85
	c-5.07-2.86-6.95-6.31-3.86-11.24c2.61-1.9,5.58-2.03,8.69-1.37c3.56,1.26,7.45,3.5,7.66-2.8c0.17-5.11-0.3-10.25,0.87-15.31
	c1.83-8.45-3.24-11.05-11.68-10.79c-4.83-0.07-9.7,0.34-14.32-1.36c-20.61-7.94-39.11,2.28-39.26,21.68
	c-0.06,7.24,0.3,14.48-0.26,21.71c-0.09,0.68-0.02,1.58-0.51,1.97c-9.15,7.12-7.52,14.17,0.1,21.23
	c0.41,12.43,0.28,12.55-16.73,14.99c-3.59,0.71-6.68,2.54-10.12,3.6c-2.89,0.28-4.76-0.92-5.89-3.2
	c-2.17-5.78,0.29-12.53-4.77-17.71c-2.03-6.53-0.88-13.22-1.25-19.83c0.67-13.47-6.94-26.06-5.23-39.74
	c0.52-4.17-3.68-6.57-8.33-7.31c-6.97-1.11-9.75-5.08-9.83-11.01c-0.16-11.75-0.27-23.5,0.06-35.24c0.12-4.37,1.84-8.1,6.03-10.66
	c1.02-0.67,2.19-1.08,3.46-1.23c19.43-0.7,37.28-8,56.26-10.68C273.21,29.04,275.48,26.64,277.11,23.74z"/>
<path class="st4" d="M277.4,329.82c-18.98,18.8-40.89,34.61-64.02,49.16c-2.77,1.78-5.42,1.93-7.9-0.46
	c-4.01-10.95-1.08-22.24-2.05-33.35c0.08-41.81,0.02-83.61-0.01-125.42c-0.01-8.12,1.57-14.68,12.99-14.51
	c9.34,1.03,19.03-2.16,28.26,1.94c3.58,1.59,2.17-2.66,3.92-3.51c1.37-0.92,2.87-1.12,4.49-0.74c2.83-1.69,2.16,9.66,6.71,1.39
	c-0.42-1.41-0.83-2.78-1.15-4.2c-0.54-3.26-0.65-6.45,1.87-9.22c5.84-2.77,9.32,0.51,12.77,3.89c4.34,7.36,11.84,10.02,20.58,10.57
	c5.35,0.33,10.78-0.31,16.06,0.98c2.25,0.59,4.37,1.47,6.55,2.23c9.87,3.46,9.99,3.69,20.07-0.59c7.42-3.15,14.05-1.33,19.71,2.46
	c6.35,4.25,2.07,9.23-0.52,13.86c-2.88,5.17-4.01,11.25-10.41,14.5c-1.28,0.65-1.15-0.34-0.85,0.48c3.44,9.43-8.29,14.73-7.83,23.25
	c-0.98,1.32-1.95,2.65-2.93,3.97c-7.91,4.03-8.35,12.53-14.08,18.25c-8.56,8.54-16.97,17.52-23.46,27.61l-0.02-0.06
	C287.91,316.47,280.95,321.71,277.4,329.82z"/>
<path class="st5" d="M336.64,262.55c-1.83-0.97-3.39-2.77-2.44-4.23c3.98-6.1,8.58-11.32,5.01-19.59c-2.29-5.3,7.18-0.6,8.89-5.01
	c1.83-4.72,4.99-9.03,7.5-13.55c2.67-4.81,2.82-7.78-4.75-9.54c-12.21-2.83-19.36-0.12-24.2,11.59c0.59-10.72-11.15-9.08-16.25-14.1
	c-1.31-1.28-1.77-2.77-1.44-4.47c4.83-6.24,12.73-7.49,20.03-9.74c4.62-0.27,7.49,2.61,10.83,4.67c4.93,3.44,10.84,2.4,16.45,2.78
	c2.58,0.26,5.01,0.81,6.74,2.71c0.69,2.92,0.66,5.8-0.49,8.64C357.54,230.8,349.15,247.51,336.64,262.55z"/>
<path class="st6" d="M376.36,137.18c1.55-17.32,6.59-34.33,4.75-51.96c-1-9.62-14.8-25.34-25.74-27.26
	c-2.67-0.47-5.84-0.06-7.34-2.45c-6.61-10.54-18.75-15.09-29.06-21.68c-3.57-2.29-7.87-4.7-8.6-9.34c1.74-1.28,3.53-1.12,5.35-0.16
	c21.45,13.89,42.9,27.77,64.35,41.67c3.3,2.14,5.55,4.71,5.54,8.63c-0.09,25.96-1.12,51.85-6.78,77.43
	C375.49,147.41,379.54,141.82,376.36,137.18z"/>
<path class="st7" d="M178.32,370.91c4.72-0.79,8.94,0.49,12.44,3.56c2.94-4.58,1.86-8.45,1.86-12.15
	c0.08-47.51-0.04-95.02,0.3-142.53c0.02-2.33-5.11-8.62,4.15-7.67c4.17,3.13,3.55,7.5,3.56,11.57c0.1,48.12,0.19,96.23-0.11,144.35
	c-0.03,4.83,2.29,12.08-8.17,11.67C185.02,380.09,182,375.09,178.32,370.91z"/>
<path class="st8" d="M192.34,379.71c5.24-0.91,5.13-4.42,5.12-8.02c-0.15-53.19-0.27-106.38-0.4-159.56
	c0.01-1.29,0.03-2.58,0.04-3.87c-4.58-4.74-1.2-11.53-5.41-16.37c-1.18-3.64-1.43-6.91,4.08-7.82c1.43,0.13,2.67,0.62,3.76,1.46
	c1.65,1.4,2.48,3.16,2.94,5.09c1.22,44.15,0.33,88.31,0.5,132.46c0.07,18.42,0.57,36.85-0.35,55.28c-0.44,2.1-1.3,3.97-3.47,5.15
	C195.98,383.52,194.08,381.73,192.34,379.71z"/>
<path class="st9" d="M277.11,23.74c1.55,6.73-1.32,9.44-9.25,9.22c-5.59-0.15-13.17-2.53-14.75,5.93c-0.07,0.39-1.5,1.04-1.77,0.88
	c-12.96-7.79-24.92,6.4-37.71,1.31c-0.64-0.42-0.84-0.84-0.61-1.24c0.22-0.4,0.45-0.6,0.67-0.6C235.3,35.6,256.1,29.33,277.11,23.74
	z"/>
<path class="st6" d="M362.52,212.69c-0.11-2.86-0.22-5.72-0.32-8.58c-4.16-5.7-4.83-11.35,0.26-16.94
	c7.54-5.13,8.83-12.27,9.29-20.15c0.26-4.5-3.71-10.62,4.26-13.37c2.6,3.14,1.51,6.42,0.44,9.69
	C374.43,180.38,370.06,196.89,362.52,212.69z"/>
<path class="st10" d="M187.79,41.29c-1.44-0.05-2.87-0.1-4.31-0.15c-2.77-2.59-7.92,1-10.13-3.06c0.24-0.44,0.48-0.87,0.72-1.31
	c8.57,0.56,17.25,0.42,25.52,2.99c3.97,3.2,3.29,7.51,3.34,11.56c0.14,11.68-0.04,23.36,0.1,35.04c0.04,3.69-0.97,7.63,2.17,10.86
	c2.59,1.91,5.99,1.29,8.89,2.22c3.57,1.14,6.67,2.47,4.68,6.66c-8.93,1.33-17.8,2-26.25-1.88c4.13-17.01,1.78-34.27,2.58-51.41
	C195.37,47.28,193.67,43.41,187.79,41.29z"/>
<path class="st11" d="M296.17,312.37c-0.59-4.07,0.61-7.45,4.43-10.08c9.35-6.43,12.08-17.69,21.99-23.77
	c2.18-1.34,2.01-3.72,1.89-5.76c-0.38-6.21,4.07-6.59,9.23-6.25C325.51,284.57,310.72,298.4,296.17,312.37z"/>
<path class="st12" d="M202.37,101.54c-4.84-2.13-2.49-6.07-2.54-9.11c-0.28-17.56-0.18-35.12-0.22-52.68
	c4.65-0.93,9.33-1.41,14.07-0.51c0.09,0.62,0.07,1.23-0.05,1.84c-0.65,0.04-1.29,0.15-1.91,0.33c-5.84,2.04-7.61,5.78-7.43,11.3
	c0.41,13.02,0.1,26.05,0.15,39.08C204.45,95.16,205.52,98.7,202.37,101.54z"/>
<path class="st13" d="M89.02,299.96c-1.23-5.32-7.22-7.86-9.42-12.61c-1.92-2.62-2.78-5.32-0.74-8.22c1.78-1.24,3.55-1.44,5.3,0.06
	l0.01-0.01c2.78,3.36,5.72,6.63,7.11,10.71c1.58,3.8,4.53,6.81,7.32,9.92l0.18-0.08c1.1,1.59,0.98,3.08-0.44,4.47
	C94.31,304.36,92.32,301.03,89.02,299.96z"/>
<path class="st14" d="M117.41,318.63c8.28,2.8,14.78,7.42,18.82,14.53c1.08,0.83,1.5,1.87,1.3,3.12c-0.27,0.77-0.8,1.37-1.59,1.78
	c-2.96-1.66-5.93-3.32-8.89-4.98C123.9,328.23,114.83,326.48,117.41,318.63z"/>
<path class="st15" d="M117.41,318.63c-0.08,6.54,9.14,8.21,9.64,14.44c-9.16-4.61-17.8-9.61-19.32-20.01
	c1.51-1.67,3.01-2.17,4.49,0.02C113.94,314.94,115.68,316.79,117.41,318.63z"/>
<path class="st16" d="M112.21,313.09c-1.5-0.01-3-0.02-4.49-0.03c-3.13-2.96-6.26-5.93-9.39-8.9c0.15-1.49,0.29-2.98,0.44-4.47
	C108.74,299.85,113.36,304.2,112.21,313.09z"/>
<path class="st17" d="M315.72,24.32c-1.78,0.05-3.56,0.11-5.35,0.16c-8.06-6.02-17.57-4.83-26.96-4.28
	C299.56,11.36,299.56,11.36,315.72,24.32z"/>
<path class="st18" d="M277.4,329.82c0.68-9.98,7.54-16.39,18.75-17.51C291.16,319.2,284.97,325.09,277.4,329.82z"/>
<path class="st19" d="M173.65,366.96c0.95,1.23,1.9,2.46,2.85,3.68c-9.69-0.66-17.25-4.25-21.53-12.32c1.23-1.23,2.82-1.61,4.6-1.53
	C165.27,359.08,170.06,362.37,173.65,366.96z"/>
<path class="st20" d="M122.52,19.89c9.07,0.01,17.06,2.39,23.42,8.36c-0.33,0.41-0.65,0.82-0.98,1.24c-2.6,1.42-5.36,1.26-8.16,0.64
	c-4.89-2.8-11.07-3.68-15.11-7.79C121.35,21.37,121.63,20.55,122.52,19.89z"/>
<path class="st20" d="M98.58,14.22c6.22-3.85,12.49-3.07,18.78-0.17c1.72,1.95,3.43,3.9,5.15,5.84c0,0-0.53,0.44-0.53,0.44
	C112.92,22.07,106.15,16.96,98.58,14.22z"/>
<path class="st21" d="M159.74,358.3c-1.59,0.01-3.18,0.01-4.78,0.02c-6.37-1.93-9.81-5.77-9.8-11.85c0.26-0.4,0.52-0.8,0.77-1.2
	c1.07-0.21,2.03-0.01,2.89,0.59C152.87,349.72,159.36,351.91,159.74,358.3z"/>
<path class="st22" d="M160.03,32.49c4.66,1.48,11.41-2.44,14.05,4.27c0,0,0.3,0.97,0.3,0.97c-7.62,1.55-15.8,4.79-19.63-5.1
	C156.47,31.58,158.24,31.58,160.03,32.49z"/>
<path class="st23" d="M199.16,383.5c0.31-1.42,0.63-2.84,0.94-4.27c0.67-0.69,1.49-1.19,2.47-1.47c1.6-0.18,2.98,0.28,4.23,1.13
	c2.19,0.03,4.38,0.06,6.57,0.09C208.89,381.1,206.57,388.59,199.16,383.5z"/>
<path class="st24" d="M376.43,163.35c-0.14-3.23-0.29-6.46-0.43-9.69c0.12-5.49,0.25-10.99,0.37-16.48
	c4.32,4.5,1.33,9.95,2.47,14.86C378.68,155.91,379.26,159.91,376.43,163.35z"/>
<path class="st20" d="M160.03,32.49c-1.7,0.12-3.4,0.24-5.09,0.36c-5.27,2.94-8.33,1.27-9.81-3.69c0.27-0.3,0.54-0.6,0.81-0.9
	C150.62,29.7,157.3,25.95,160.03,32.49z"/>
<path class="st25" d="M145.16,346.47c-5.99-0.3-10.32-2.02-9.22-8.41c0.04-0.36,0.11-0.71,0.23-1.05c5.75,0.6,11.25,1.43,9.52,8.56
	L145.16,346.47z"/>
<path class="st26" d="M37.39,191.21c1.96,0.39,4.08,1.02,4.2,2.99c0.8,13.53,10.66,24.1,15.47,36.34c2.08,5.29,3.9,10.06,3.48,15.55
	c-8.55,1.21-7.92-5.99-10.86-9.68c-1.63-2.04-0.41-5.46-2.88-7.59c-1.42-10.79-9.77-19.83-9.89-30.94
	C35.73,195.57,35.02,193.3,37.39,191.21z"/>
<path class="st27" d="M22.71,66.09c-6.62,2.17-7.19,7.7-8.91,12.59c-11.96-5.3-0.58-12.58,1.2-14.23
	c7.26-6.79,15.3-13.9,27.03-14.89c1.3,1.39,1.3,2.73-0.2,4.02l0.09,0.1C35.84,58.22,29.68,62.65,22.71,66.09z"/>
<path class="st28" d="M98.58,14.22c9.04-1.69,15.23,5.19,23.4,6.12c3.33,4.63,11.56,2.73,14.17,8.33c-3.15,2.54-6.29,2.07-9.44,0
	c-9.72-3.95-18.51-10.67-30.44-8.11c-1.73-2.29,0.9-3.25,1.85-4.72C98.41,15.33,98.57,14.79,98.58,14.22z"/>
<path class="st29" d="M46.8,228.81c5.73,0.59,3.66,5.36,5.55,8c2.37,3.31,2.28,8.4,8.19,9.26c0.16,1.19,0.33,2.39,0.49,3.58
	c1.17,1.6,1,3.06-0.56,4.39c-9.87-3.37-9.94-12.35-13.69-19.16C45.88,233.25,46.75,230.85,46.8,228.81z"/>
<path class="st30" d="M75.09,31.02c-0.82,7.59-6.12,10.4-14.08,10.36c-1.49-1.38-1.66-2.85-0.35-4.41
	C65.93,35.87,69.03,30.63,75.09,31.02z"/>
<path class="st31" d="M60.65,36.97c0.12,1.47,0.24,2.94,0.35,4.41c-1.04,4.82-5.91,3.41-9.26,4.47c-1.63,0.81-3.22,0.81-4.76-0.21
	C48.69,39.22,53.99,37.25,60.65,36.97z"/>
<path class="st32" d="M60.47,254.04c0.19-1.46,0.37-2.92,0.56-4.38c7.43,2.9,10.84,8.11,11.05,15.15c-3.47,1.7-4.97-0.47-6.49-2.6
	C63.88,259.49,62.18,256.76,60.47,254.04z"/>
<path class="st33" d="M98.12,15.84c-0.62,1.57-1.23,3.14-1.85,4.72c-3.52,2.78-7.63,4.57-12.12,5.74
	C84.92,18.73,90.38,16.09,98.12,15.84z"/>
<path class="st34" d="M27.91,166.24c8.45,4.07,2.86,11.22,4.67,16.75C26.22,178.46,27.6,172.24,27.91,166.24z"/>
<path class="st35" d="M65.59,262.21c2.16,0.86,4.33,1.73,6.49,2.6c0.02,0.58,0.19,1.12,0.51,1.62c2.6,2.48,5.12,4.97,2.74,8.68
	c-1.74,0.95-3.44,1.01-5.06-0.23C68.95,270.58,63.53,267.48,65.59,262.21z"/>
<path class="st36" d="M70.27,274.88c1.58-0.01,3.16-0.02,4.74-0.03c3.66-0.22,5.77,0.79,4.51,4.47c0.03,2.68,0.05,5.35,0.08,8.03
	C74.16,284.56,73.43,279,70.27,274.88z"/>
<path class="st34" d="M37.39,191.21c-0.16,2.22-0.32,4.44-0.47,6.66c-6.4-3.82-4.47-9.54-4.31-14.85
	C38.59,183.73,36.37,188.21,37.39,191.21z"/>
<path class="st37" d="M46.99,45.64c1.59,0.07,3.17,0.14,4.76,0.21c0.47,6.39-2.91,8.89-9.92,7.74c0.07-1.34,0.13-2.68,0.2-4.02
	C44.75,49.32,46.34,47.94,46.99,45.64z"/>
<path class="st38" d="M61.01,182.69c-0.18-4.71-0.35-9.42-0.53-14.13c-3.11-13.66-1.9-27.46-1.85-41.22
	c1.8-6.02,8.91-9.24,10.4-15.45c3.8-3.77,7.24-7.91,12.66-10.11c10.97-1.72,21.92-1.7,32.87,0.14c15.04,8,21.2,25.02,15.71,43.33
	c-8.13,5.09-17.11,3.29-25.85,2.09c-5.13-0.7-6.07-4.71-6.68-8.66c-0.71-4.66,0.9-9.63-2.11-13.95c-2.41-0.17-2.8,1.33-2.88,2.6
	c-0.92,15.86-0.5,31.73-0.2,47.6c0.04,1.9-0.98,5.38,3.76,4.6c3.01-6.14-0.29-14.2,7.53-18.76c4.45-1.82,9.17-1.55,13.81-1.31
	c10.91,0.56,14.51,4.44,12.37,14.11c-1.2,5.41,1.34,11.11-2.01,16.25c-3.77,5.79-7.93,11.14-16.2,12.26
	c-12.47,0.65-25,2.03-37.09-2.21c-1.5-0.64-3-1.28-4.5-1.93C63.33,194.69,63.28,188.16,61.01,182.69z"/>
<path class="st39" d="M193.22,103.29c8.22,1.66,16.96-1.12,24.98,2.3c3.3,1.91,4.28,5.11,4.27,8.08
	c-0.06,10.72,4.77,20.71,5.44,31.28c0.09,7.52,0.82,15,2.15,22.44c4.45,5.16,1.23,11.68,3.93,17.16c2.23,5.93,4.64,12.03,0.46,17.86
	c-2.05,2.85-22.45,3.17-27.44,1.23c-4.47-1.73-4.78-5.06-4.92-8.63c-0.15-3.73,0.73-7.88-4.58-9.71l-0.11-0.79
	c-4.68-3.36-6.69-1.52-7.03,2.96c-0.27,3.61,0.44,7.38-3.06,10.24c-12.32,4.63-20.98,0.29-21.42-11.1
	c-0.31-8.22-0.42-16.48,0.83-24.69c-0.79-13.55,3.51-26.41,6.73-39.42c0.21-4.7,0.42-9.41,0.63-14.11
	C178.57,101.08,184.81,98.97,193.22,103.29z"/>
<path class="st40" d="M98.64,183.45c-0.03,2.4-1.09,4.45-4.08,3.55c-4.24-1.28-5.32-4.73-5.32-8.36
	c-0.02-11.39,0.05-22.78,0.08-34.17c0.02-6.55-0.17-13.11,0.09-19.66c0.15-3.76,2.98-7.04,6.83-7.09c3.55-0.05,2.65,4.34,3.92,6.68
	c0.16,0.3,0.12,0.68,0.25,1.01c2.55,6.41-4.84,15.84,4.77,19.33c6.69,2.43,15.36,0.57,23.15,0.63c5.14-6.47-1.07-14.43,3.49-20.97
	c8.3,7.88,4.98,16.71,1.76,25.02c-1.13,2.92-2.03,5.65-2.25,8.66c-8.34,4.17-17.46,0.97-26.1,2.18c-6.14,1.45-5.01,6.18-5.59,10.01
	C98.98,174.63,100.56,179.14,98.64,183.45z"/>
<path class="st41" d="M103.17,158.07c9.39,0,18.78-0.01,28.17-0.01c-0.12,5.65,6.53,10.54,1.01,17.19
	c-2.45,2.95,3.22,3.35,6.18,3.59c3.17,4.37-0.05,7.26-3,10.21c-0.5,0.2-1,0.4-1.51,0.6c-8.74,10.85-18.92,19.53-35.56,18.36
	c-1.38-1.31-1.41-2.77-0.58-4.32c4.23-3.23,10.38-0.95,14.68-4c11.3-5.8,19-20.58,16.24-31.46c-0.93-3.65-3.05-6.15-8.03-5.95
	c-5.84,0.23-11.71-0.02-17.56-0.06C101.92,160.85,101.75,159.47,103.17,158.07z"/>
<path class="st42" d="M193.22,103.29c-6.9,0.15-13.75,0.45-19.13,5.09c-1.48-7.74,2.82-12,11-12.74c5.32-0.48,7.72-1.88,7.64-6.83
	c-0.22-12.47-0.4-24.95,0.1-37.4c0.18-4.49-4.57-6.31-5.03-10.12c4.85-0.28,9.59-0.56,9.57,5.73c-0.06,16.45-0.11,32.89,0.07,49.34
	C197.47,99.61,195.06,101.2,193.22,103.29z"/>
<path class="st7" d="M192.88,191.47c8.91,4.11,2.91,11.16,4.23,16.78c-12.09-0.07-24.2-0.63-36.24-0.03
	c-8.19,0.4-14.25-4.64-22.12-5.13c-4-0.25-2.57-5.02-2.21-8.03c7.78,2.03,15.29,5.56,23.84,3.38c5.37,0.3,10.9,0.05,16.05,1.1
	c7.87,1.61,12.53-0.66,15.08-7.16C191.96,192.08,192.42,191.78,192.88,191.47z"/>
<path class="st43" d="M159.65,199.67c-9,3.57-16.82,2.51-23.1-4.61c0.63-2.34-1.07-3.83-2.52-5.41c0,0-0.06-0.1-0.06-0.1
	c6.09-5.73,11.2-14.12,22.23-6.4C157.76,188.59,165.18,193.07,159.65,199.67z"/>
<path class="st44" d="M61.22,124.81c-0.25,14.58-0.49,29.17-0.74,43.76c-8.12-4-2.98-11-3.83-16.27
	c-1.74-10.84-1.46-22.15-0.17-33.09c0.79-6.72,1.62-15.46,13.44-15.67c0.38,0.35,0.76,0.69,1.15,1.04c1.72,3.89-2.88,5.95-3.39,9.19
	C65.86,117.59,62.98,120.94,61.22,124.81z"/>
<path class="st44" d="M114.95,103.91c-11.78-0.05-23.56-0.1-35.34-0.15c-2.92,2.08-5.92,2.55-9.05,0.34c0,0-0.63-0.57-0.63-0.57
	c10.76-9.5,33.81-11.71,42.71-4.1C113.83,100.76,116.48,101.49,114.95,103.91z"/>
<path class="st45" d="M173.46,122.49c3.19,13.62-5.4,26.18-4.54,39.59c-1.82,2.39-0.7,5.12-1.1,7.67c-0.34,2.17-1.01,3.91-4.13,2.6
	c-2.13-2.83-1.57-5.55,0.42-8.21c1.45-12.7-2.86-26.07,5.51-37.96C170.61,124.79,172.17,123.71,173.46,122.49z"/>
<path class="st46" d="M126.71,28.66c3.15,0,6.29,0,9.44,0c2.99,0.16,5.98,0.33,8.97,0.49c2.36,3.12,5.95,3.69,9.81,3.69
	c4.96,6.36,13.06,2.9,19.43,4.88c2.42,2.45,7.01,0.32,9.12,3.41c-14.04,0.97-27.61-0.08-39.68-7.38
	C138.63,30.63,129.96,36.78,126.71,28.66z"/>
<path class="st47" d="M114.95,103.91c-0.77-1.49-1.54-2.98-2.31-4.48c14.01,1.73,18.52,7.6,19.19,24.96
	c-2.34,6.84,3.4,14.73-3.49,20.97c0.22-5.79,0.29-11.59,0.7-17.38C129.78,117.42,123.3,110.26,114.95,103.91z"/>
<path class="st48" d="M159.74,358.3c-3.98-4.15-7.95-8.31-11.93-12.46c0.82-0.81,1.73-0.85,2.7-0.24
	c8.44,2.88,11.72,11.82,21.23,13.84c3.07,0.65,2.06,4.79,1.91,7.52C167.5,365.98,164.85,360.6,159.74,358.3z"/>
<path class="st49" d="M112.55,199.7c-3.5,4.5-8.98,4.04-14.12,4.47c-6.34,3.33-12.59,3.84-18.68-0.48c-1.67-1.27-3.34-2.53-5-3.8
	C87.35,199.82,99.95,199.76,112.55,199.7z"/>
<path class="st7" d="M154.95,183.12c-10.1-5.8-14.03,4.21-20.99,6.43c1.52-3.57,3.05-7.14,4.57-10.71
	c6.97-0.06,13.94-0.11,20.91-0.17c1.66-1.03,3.38-1.09,5.15-0.24c2.45,3.64,1.07,6.82-2.63,8.49
	C158.31,188.59,157.21,184.59,154.95,183.12z"/>
<path class="st50" d="M79.75,203.68c6.23,0.16,12.46,0.32,18.68,0.48c0.01,1.29,0.02,2.57,0.03,3.85
	C90.41,212.72,83.24,214.43,79.75,203.68z"/>
<path class="st51" d="M150.52,345.6c-0.9,0.08-1.8,0.16-2.7,0.23c-0.72-0.01-1.43-0.09-2.12-0.27c-1.02-4.74-6.59-5.49-9.52-8.56
	c0.02-1.28,0.04-2.56,0.06-3.85C145.74,333.02,150.46,337.21,150.52,345.6z"/>
<path class="st52" d="M22.71,66.09c4.07-6.97,11.61-9.72,19.21-12.41C37.72,60.5,33.04,66.73,22.71,66.09z"/>
<path class="st53" d="M79.52,279.32c-0.84-2.02-2.23-3.6-4.51-4.47c-0.81-2.81-1.61-5.62-2.42-8.42
	c8.99,0.59,12.08,5.39,11.57,12.75C82.61,279.22,81.07,279.27,79.52,279.32z"/>
<path class="st54" d="M61.01,182.69c3.08,5.09,6.15,10.18,9.23,15.27C58.08,197.18,60.99,189.25,61.01,182.69z"/>
<path class="st55" d="M89.53,291.38c-0.92-4.37-6.41-7.17-5.36-12.22c7.49,1.39,9.77,6.09,9.84,12.19
	C92.53,292.77,91.04,292.73,89.53,291.38z"/>
<path class="st40" d="M164.09,178.86c-1.55-0.06-3.09-0.12-4.64-0.18c2.01-4.73-3.83-11.45,4.67-14.54
	c0.19,2.92,0.38,5.83,0.56,8.75C166.42,175.03,166.38,177.04,164.09,178.86z"/>
<path class="st56" d="M89.53,291.38c1.49-0.01,2.98-0.02,4.48-0.03c5.73,1.02,4.22,5.12,4.59,8.43
	C93.26,298.95,91.71,294.9,89.53,291.38z"/>
<path class="st57" d="M225.71,145.44c-2.5-13.28-5.01-26.56-7.51-39.84c-3.24-7.62-10.87-1.75-15.83-4.06
	c-0.09-17.13,0.03-34.27-0.39-51.4c-0.16-6.43,1.69-10.01,9.74-8.72c-5.08,5.39-5.17,11.77-4.98,18.34
	c0.25,8.63,0.25,17.28,0.01,25.91c-0.16,5.66-0.1,10.3,8.8,9.99c5.15-0.18,9.98,3.74,9.49,7.55c-1.9,14.62,6.36,28.07,5.15,42.47
	C228.61,146.75,227.12,146.73,225.71,145.44z"/>
<path class="st58" d="M355.6,203.27c-5.87-0.69-13.27,4.62-17.25-3.46c-3.66-5.19-3.56-10.71-1.87-16.38
	c1.41-2.48,3.11-4.39,6.63-2.51c5.5,1.53,11.77-1.64,16.89,2.18c2.08,4.9,0.48,9.99,0.98,14.97
	C361.33,201.6,358.91,202.78,355.6,203.27z"/>
<path class="st59" d="M261.3,191.57c-0.26,3.4-0.52,6.79-0.78,10.19c-4.88,3.06-10.67,1.41-15.86,1.77
	c-7.9,0.55-10.13-7.85-5.33-18.26c0.27-4.47,4.38-3.83,7.54-4.43C263.2,178.82,265.11,180.25,261.3,191.57z"/>
<path class="st60" d="M263.37,145.41c-0.02-10.05-0.21-20.09-0.02-30.13c0.21-11.07,10.4-15.11,19.35-18.29
	c7.22-2.56,16.36-4.9,23.31,2.23c-0.93,1.49-2.49,2.17-4.23,2.63c-11,2.75-24.71,1.12-29.3,14.24c-3.1,9.8,0.66,19.93-1.84,29.75
	C268.1,147.3,265.67,147.18,263.37,145.41z"/>
<path class="st61" d="M343.11,180.93c-1.53,0.73-3.06,1.47-4.59,2.2c-2.51,1.47-3.08,6.48-8.06,3.49
	c-2.81-4.49-2.15-9.43-1.81-14.15c0.59-8.17-2.25-14.85-9.1-20.24c-1.22-1.05-2.4-2.15-3.6-3.21c-4.64-5.95-15.83-5.8-17.39-14.62
	c1.67-1.7,3.8-2.71,6.21-3.31c3.88-0.59,7.72-1.01,10.58,2.21c0.25,2.84-1.8,6.35,2.94,7.88c12.92,4.18,16.1,13.83,15.78,24.32
	C333.84,172.69,338.16,176.69,343.11,180.93z"/>
<path class="st62" d="M263.37,145.41c2.23,0.02,4.46,0.05,6.68,0.07c2.43,0.36,3.53,1.98,4.51,3.71
	c10.9,11.23,10.9,11.23-3.47,18.19c-0.7,1.27-1.52,2.46-2.73,3.4c-4.32,1.05-3.2-2.9-4.96-4.22
	C251.58,158.61,251.58,158.61,263.37,145.41z"/>
<path class="st63" d="M315.35,133.29c-3.92-0.17-7.83-0.34-11.75-0.51c-5.1-2.98-0.83-10.7-8.12-12.58
	c-0.96-0.57-1.69-1.31-2.25-2.2c-0.07-1.08,0.35-1.96,1.25-2.68c4.94-2.42,10.37-1.41,15.61-1.75c4.41-0.29,9.27,0.81,12.66-2.99
	c0.99-0.8,2.14-1.15,3.47-1.09c2.83,0.74,4.53,2.37,5.08,4.94c0.44,4.39,0.44,8.8,0.13,13.17c-0.29,4.03-1.28,7.75-7.58,5.59
	C321.02,133.22,318.19,133.26,315.35,133.29z"/>
<path class="st64" d="M239.33,185.26c1.1,16.53,1.1,16.53,21.19,16.49c0.82,0.55,1.63,1.09,2.45,1.64c-2.73,2.94-5.86,2.74-9.2,0.93
	c-1.5-0.02-3.01-0.05-4.51-0.07c-9.05,3.11-18.53,0.9-27.77,1.75c-6.29-0.55-12.74,1.2-18.9-1.08c-4.2-5.31,0.77-11.92-3.08-17.28
	c-0.67-0.78-1.33-1.56-2-2.35c6.52-1.46,7.45,2.21,6.84,6.37c-1.35,9.18,3.75,11.54,12.78,10.03c5.67-0.95,13.64,3.09,16.57-2.5
	c2.11-4.03-0.64-10.06-1.22-15.19c0.26-1.37,1.06-1.69,2.4-0.97C235.69,184.83,237.46,185.12,239.33,185.26z"/>
<path class="st65" d="M263.41,166.57c1.17,1.41,2.34,2.82,3.52,4.23c7.06,6.92,4.17,15.97,6.55,23.9c-0.37,0.47-0.75,0.94-1.13,1.41
	c-4.16-0.6-5.93-5.78-11.05-4.53c2.49-11.28-6.76-10.17-14.43-10.74c1.26-0.66,2.66-2.03,3.75-1.86
	C262.49,180.88,264.23,174.81,263.41,166.57z"/>
<path class="st66" d="M328.12,112.26c-1.03-0.9-2.05-1.8-3.08-2.7c-4.09,0.02-5.76-2.26-6.54-5.39c-0.11-2.3,1.76-3.37,3.55-4.49
	c9.35,0.12,15.49,2.65,11.9,12.47C332.04,113.45,330.1,113.48,328.12,112.26z"/>
<path class="st67" d="M328.12,112.26c1.94-0.04,3.88-0.08,5.83-0.12c-0.03,6.54-0.03,13.08-0.09,19.61
	c-0.02,2.6-0.78,4.72-4.26,5.22c-3.49,0.5-4.95-1.18-5.74-3.78c6.1,0.02,6.65-3.56,6.16-7.65
	C329.49,121.11,328.76,116.69,328.12,112.26z"/>
<path class="st68" d="M234.87,183.03c-0.8,0.32-1.6,0.63-2.4,0.96c-3.02-4.89-2.61-10.34-3.22-15.62c-0.2-1.14,0.31-1.92,1.51-2.35
	C238.97,170.39,233.56,177.35,234.87,183.03z"/>
<path class="st69" d="M230.76,166.01c-0.5,0.78-1.01,1.57-1.51,2.35c-1.18-7.64-2.36-15.28-3.54-22.93
	c1.49,0.08,2.98,0.15,4.47,0.23C230.37,152.45,230.57,159.23,230.76,166.01z"/>
<path class="st70" d="M355.6,203.27c8.54-5.51,2.44-13.52,4.4-20.16c2.43,0.59,1.95,2.56,2.45,4.06
	c-0.08,5.65-0.17,11.29-0.25,16.94C359.99,203.84,357.8,203.55,355.6,203.27z"/>
<path class="st71" d="M322.05,99.67c-0.81,1.67-1.63,3.33-2.44,5c-7,0.04-14.57,1.98-19.55-4.65c1.98-0.27,3.96-0.54,5.94-0.81
	C311.36,99.36,316.7,99.52,322.05,99.67z"/>
<path class="st72" d="M206.8,378.89c-1.52,0.07-3.04,0.15-4.56,0.22c-1.98-2.11-1.3-4.64-1.3-7.02
	c-0.03-51.81-0.03-103.62-0.03-155.44c0-1.4,0.13-2.78,0.54-4.13c7.82,0.33,3.88,5.64,3.91,8.4c0.29,37.86,0.16,75.72,0.25,113.58
	c0.01,3.75-1.09,7.65,1.1,11.25C206.75,356.81,206.78,367.85,206.8,378.89z"/>
<path class="st73" d="M206.72,345.76c-3.81-3.08-2.21-7.14-2.22-10.76c-0.12-37.31-0.03-74.62-0.14-111.92
	c-0.01-3.65,1.45-7.67-2.06-10.86c-2.01-2.7-2.22-5.38,0.12-8.03c6.2,0.07,12.41,0.15,18.61,0.22c1.28,1.27,1.25,2.48-0.19,3.64
	c-11.09-1.64-14.5,2.19-14.35,12.31C207.13,262.15,206.74,303.96,206.72,345.76z"/>
<path class="st74" d="M310.49,203.8c-0.03,1.43-0.07,2.87-0.1,4.3c-10.75-0.44-21.42,1.16-32.02-3.69
	c-5.08-2.32-5.75-4.55-6.03-8.32c0,0,0.66-0.82,0.66-0.82C285.29,198.83,298.1,200.62,310.49,203.8z"/>
<path class="st75" d="M220.84,208.05c0.06-1.21,0.13-2.43,0.19-3.64c9.41-0.05,18.82-0.1,28.23-0.15c-0.94,2.5,1.9,5.16-0.85,8.31
	C240.55,204.64,230.28,208.76,220.84,208.05z"/>
<path class="st75" d="M253.77,204.33c3.07-0.31,6.13-0.62,9.2-0.93c-0.2,3.4,2.37,8.34-4.47,8.53
	C252.45,212.11,254.35,207.39,253.77,204.33z"/>
<path class="st76" d="M310.49,203.8c-13.52,0.68-26.62-0.07-37.49-8.52c-5.37-7.51-5.02-16.14-6.08-24.48
	c0.41-1.43,0.83-2.87,1.24-4.31c5.87-3.66,12.75-2.57,19.11-2.53c8.97,0.05,9.7,6.45,9.93,12.56c-0.07,3.31,1.42,5.64,5.34,6.38
	c5.76,2.83,10.78,3.73,11.26-4.17c0.33-5.47,4.23-5.8,8.9-5.76c2.41,0.02,3.56-1.39,2.77-3.42c-0.67-1.71-2.5-1.27-4.02-1.01
	c-5.17,0.91-8.41,3.36-8.72,8.34c-0.24,3.91-0.41,8.06-7.08,6.82c-3.73-7.96-6.2-16.56-14.31-22.33c-0.02-7.95,6.74-3.97,10.77-4.82
	c1.07,0.19,2.09,0.51,3.08,0.91c10.47,4.98,10-5.29,14.72-8.3c12.04,5.99,11.98,16.51,12.56,26.69c0.21,3.71-0.36,7.46-0.58,11.19
	c2.47,4.22,0.13,6.68-3.98,8.48C322.11,198.29,316.3,201.04,310.49,203.8z"/>
<path class="st77" d="M327.92,195.53c1.33-2.82,2.65-5.65,3.98-8.48c2.29-1.2,3.08-4.39,6.62-3.93c-0.06,5.56-0.11,11.13-0.17,16.69
	C334.14,199.79,332.78,194.33,327.92,195.53z"/>
<path class="st78" d="M202.42,204.19c-0.04,2.68-0.08,5.35-0.12,8.03c-0.02,55.63-0.04,111.26-0.05,166.89
	c-0.71,0.07-1.43,0.11-2.15,0.12c-0.14-60.39-0.28-120.79-0.43-181.18c-0.01-3.47-0.11-6.94-0.16-10.41
	C204.6,192.59,200.54,198.8,202.42,204.19z"/>
<path class="st79" d="M187.76,195.53c0.08-3.8,0.18-7.59,0.25-11.39c0.05-2.66,0.81-4.79,4.41-5.02c4.55-0.29,4.95,2.4,4.98,5.38
	c-4.36,0.87-5.19,3.54-4.52,6.97c0,0-0.69-0.07-0.69-0.07C190.76,192.82,192.39,196.81,187.76,195.53z"/>
<path class="st80" d="M103.17,158.07c0.01,1.39,0.02,2.77,0.03,4.16c-5.09,6.47-0.05,14.64-4.56,21.21
	c-0.07-6.17-0.18-12.34-0.21-18.5C98.41,161.82,98.21,158.53,103.17,158.07z"/>
<path class="st81" d="M61.22,124.81c-2.21-5.2,2.44-8.54,4.38-12.61c1.61-1.24,3.2-1.37,4.76,0.06
	C70.88,118.48,67.33,122.38,61.22,124.81z"/>
<path class="st82" d="M70.36,112.26c-1.59-0.02-3.17-0.04-4.76-0.06c1.65-2.7,3.3-5.4,4.96-8.09c3.02-0.11,6.04-0.23,9.05-0.34
	C78.37,108.17,74.84,110.62,70.36,112.26z"/>
<path class="st83" d="M187.76,195.53c1.47-1.38,2.95-2.75,4.42-4.12c1.42,6.98-2.07,10.63-9.87,10.42
	c-7.59-0.2-15.48,1.53-22.67-2.15c1.69-6.24-6.51-10.28-4.69-16.55c4.62,1.23,10.07,3.85,9.13-4.26c0.2-1.99,0.39-3.98,0.59-5.97
	c3.78-2.87,0.5-7.92,4.24-10.81c0.04,7.59,0.12,15.18,0.11,22.77C169.03,196.27,175.63,200.04,187.76,195.53z"/>
<path class="st84" d="M202.74,166.43c-7.76,1.16-11.5-1.36-10.23-8.64c0.74-4.21-1.16-8.79,2.29-12.62c2.82-1.54,5.53-1.6,8.1,0.43
	C205.28,152.56,205.24,159.5,202.74,166.43z"/>
<path class="st85" d="M202.74,166.43c-0.23-6.98-0.47-13.96-0.7-20.94c-5.55-4.87-3.72-10.69-2.66-16.4c3,0.88,6.86,1.72,6.98,4.8
	c0.39,10.35,1.53,20.75-0.69,31.04C205.53,165.57,203.76,165.94,202.74,166.43z"/>
<path class="st86" d="M199.38,129.09c0.89,5.47,1.78,10.94,2.66,16.4c-2.41-0.11-4.82-0.21-7.24-0.32
	C194.49,139.4,196.58,134.17,199.38,129.09z"/>
<path class="st87" d="M293.89,116.32c0.14,0.9,0.27,1.8,0.41,2.71c2.55,2.31,2.23,5.32,2.58,8.17c-0.06,2.78,1.76,5.23,1.88,7.98
	c5.61,4.88,13.72,6.78,18.71,12.39c-2.71,5.61-3.4,13.35-14.12,10.47l-0.02-0.01c-6.97-6.31-16.29-2.34-24.25-4.35
	c-2.56-0.92-5.34-1.6-6.26-4.36c-0.91-1.28-1.83-2.55-2.74-3.83c-3.28-10.55-5.08-21.1,0.02-31.64c4.14-2.14,5.58-8.33,12.39-6.49
	c4.29,2.76,3.46,7.14,4.41,10.95c1.58,1.56,2.02,3.4,1.54,5.57c1.76-2.97-1.4-4.73-1.89-7.08
	C288.79,114.27,291.27,114.38,293.89,116.32z"/>
<path class="st63" d="M282.09,107.98c-5.01,0.34-6.85,5.79-12.02,5.86c5.39-12.46,18.29-12.12,29.99-13.82
	c6.51,1.55,13.03,3.1,19.55,4.65c1.81,1.63,3.63,3.26,5.44,4.89c-0.28,0.25-0.56,0.5-0.85,0.75
	C310.3,107.57,296.02,110.26,282.09,107.98z"/>
<path class="st88" d="M303.33,158.04c8.74,0.78,6.76-9.79,14.12-10.47c0.82,0.54,1.65,1.07,2.47,1.6c0.81,5.63-1.74,9.97-7.3,12.37
	C308.66,163.26,305.3,161.58,303.33,158.04z"/>
<path class="st89" d="M298.75,135.17c-3.21-1.16-4.39-3.4-4.28-6.33c4.37-2.74,1.88-6.55,1.99-9.96c4.6-2.31,6.52-0.35,6.86,3.56
	c0.29,3.43,0.21,6.89,0.29,10.34C302.66,134.66,300.76,135,298.75,135.17z"/>
<path class="st90" d="M272.79,149.31c2.3,0.71,3.74,3.21,6.71,2.53c3.87,2.84,10.1,2.78,12.2,7.79
	c9.69,5.44,15.16,12.82,13.75,23.38c-0.88,0.66-1.84,0.75-2.86,0.29c-2.64-0.96-3.38-6.91-8.11-2.43
	c-0.55-14.68-0.55-14.68-26.32-14.38c1.3-8.25,11.5-1.09,14.4-6.6C281.2,155.04,270.19,157.1,272.79,149.31z"/>
<path class="st91" d="M282.09,107.98c5.65-0.25,11.1,0.36,16.4-3.25c3.41-2.33,8.9-1.69,13.01,1.13c3.74,2.57,7.9,4.24,12.7,4.45
	c0.83,4.75-1.95,6.11-6.78,6.03c-7.84-0.13-15.69-0.03-23.54-0.02c-2.58,0.05-5.35-0.38-7.04,2.06
	C283.67,115.48,283.08,111.66,282.09,107.98z"/>
<path class="st92" d="M306.18,121.17c6.97-0.16,13.21-3.41,17.79,2.34c1.28,1.61,0.36,4.21-2.51,4.89
	C315.04,129.9,310.06,128.28,306.18,121.17z"/>
<path class="st93" d="M296.46,118.88c4.76,4.17,9.48,8.34-1.99,9.96c-0.06-3.27-0.11-6.55-0.17-9.82
	C295.01,118.94,295.73,118.9,296.46,118.88z"/>
<path class="st94" d="M272.76,179.75c-1.05-5.86,0.46-9.76,9.57-9.43c7.05,0.25,9.88,2.15,9.26,8.43
	c-0.68,6.84-2.33,15.42-9.92,15.89C274.17,195.12,272.38,186.97,272.76,179.75z"/>
<path class="st88" d="M303.3,182.84c0.68,0.41,1.4,0.46,2.15,0.17c3.32-0.18,5.49-1.86,4.8-4.67c-2.78-11.2,7.6-11.42,14.8-14.36
	c3.61-1.47,3.97,0.82,4.08,2.94c0.17,3.42,0.05,6.84,0.05,9.59c-3.91,2.84-13.73-9.61-11.74,5.45c0.87,6.57-9.95,4.98-16.4,3.2
	C300.33,183.26,301.17,182.56,303.3,182.84z"/>
<path class="st88" d="M291.7,159.63c-4.45-2.13-9.18-3.91-12.2-7.79c7.18,1.66,15.58-4.45,21.88,2.63c0.9,1.01,1.3,2.36,1.93,3.56
	C299.44,158.56,295.57,159.09,291.7,159.63z"/>
<path class="st95" d="M303.3,182.84c-0.76,0.77-1.52,1.55-2.28,2.32c-3.55,0.21-6.53-0.25-6.54-4.29c1.06-3.09,2.12-6.19,3.43-10.02
	C302.86,174.25,299.63,179.83,303.3,182.84z"/>
<path class="st91" d="M291.56,133.73c-3.17-2.11-3.63-2.25-3.75-2.52c-1.87-4.18-2.39-8.45-0.87-12.81
	c0.01-0.02,1.58,0.13,2.09,0.53C294,122.92,290.62,127.36,291.56,133.73z"/>
</svg>
