<?xml version="1.0" encoding="utf-8"?>
<!-- Generator: Adobe Illustrator 23.1.0, SVG Export Plug-In . SVG Version: 6.00 Build 0)  -->
<svg version="1.1" id="Capa_1" xmlns="http://www.w3.org/2000/svg" xmlns:xlink="http://www.w3.org/1999/xlink" x="0px" y="0px"
	 viewBox="0 0 400 400" style="enable-background:new 0 0 400 400;" xml:space="preserve">
<style type="text/css">
	.st0{fill:#0C2E78;}
	.st1{fill:#C51700;}
	.st2{fill:#2C2967;}
	.st3{fill:#B9C1CB;}
	.st4{fill:#032A70;}
	.st5{fill:#011770;}
	.st6{fill:#FBFAFA;}
	.st7{fill:#022A70;}
	.st8{fill:#FEFEFE;}
	.st9{fill:#5B6B93;}
	.st10{fill:#001B6F;}
	.st11{fill:#FCFCFB;}
	.st12{fill:#082773;}
	.st13{fill:#FCFCFC;}
	.st14{fill:#001970;}
	.st15{fill:#FBFCFA;}
	.st16{fill:#00186F;}
	.st17{fill:#002073;}
	.st18{fill:#002072;}
	.st19{fill:#FDFDFD;}
	.st20{fill:#002972;}
	.st21{fill:#00176F;}
	.st22{fill:#052D7B;}
	.st23{fill:#5C6C93;}
	.st24{fill:#002675;}
	.st25{fill:#001D72;}
	.st26{fill:#CE1A05;}
	.st27{fill:#CC0000;}
	.st28{fill:#CC1C00;}
	.st29{fill:#FDFCFC;}
	.st30{fill:#FDFDFC;}
	.st31{fill:#FCFAFA;}
	.st32{fill:#CB2316;}
	.st33{fill:#F2E0DE;}
	.st34{fill:#F1E0DD;}
	.st35{fill:#EABDBB;}
	.st36{fill:#F1DFDD;}
	.st37{fill:#F4E9E7;}
	.st38{fill:#C60706;}
	.st39{fill:#C70000;}
	.st40{fill:#C10000;}
	.st41{fill:#C90000;}
	.st42{fill:#C70C0C;}
	.st43{fill:#C6110C;}
	.st44{fill:#CC2010;}
	.st45{fill:#C8241C;}
	.st46{fill:#CA2315;}
	.st47{fill:#CD0000;}
	.st48{fill:#C60000;}
	.st49{fill:#CE1B07;}
</style>
<path class="st0" d="M47.95,351.18c-24.47-2.93-39.72-15.07-45.33-36.79c-1.8-1.76-1.24-3.7-0.51-5.64l0.84,0.12
	c1.51-23.65,0.17-47.33,0.73-70.99c0.08-3.59-1.83-7.89,3.13-10.39c4.86-1.63,9.94-1.1,14.94-1.1
	c118.52-0.03,237.05-0.04,355.57,0.01c5.32,0,10.82-0.82,15.84,1.69c3.42,2.59,3.38,6.21,3.38,9.72
	c-0.01,24.34,0.42,48.69-0.2,73.03c-0.12,0.61-0.24,1.22-0.36,1.83c-5.5,27.39-24.79,37.13-58.57,41.05
	c-24.56,2.85-49.5,3.83-73.38,10.38c-23.82,6.53-45.35,16.6-61.7,34.17c-3.82,4.1-5.18-0.08-7.14-1.92
	c-19.71-18.62-43.91-29.7-71.78-34.63c-0.9,0.38-1.79,0.38-2.67-0.04c-3.33-1.6-6.93-2.59-10.5-3.64c-4.11-1.38-8.23-2.55-12.6-0.93
	c-1.48,0.17-2.96,0.34-4.44,0.51c-4.08,1.69-7.47,0.19-10.74-1.87c-2.18-0.22-4.35-0.44-6.53-0.66c-4.72-2.41-9.67-3.42-15.01-1.9
	c-2.54,0.26-5,0.23-7.09-1.38c0.97-1.15,2-1.49,3.15-0.19c-0.5-1.16-1.64-1.06-2.67-1.03C52.16,350.65,49.97,350.22,47.95,351.18z"
	/>
<path class="st0" d="M119.12,27.56c5.2-1.36,10.95,0.7,15.94-2.02c1.64-2.17,3.73-1.26,5.78-0.7l-0.22,0.83
	c2.23,0.78,4.47,1.61,6.3-0.68c16.77-4.28,33.75-7.99,49.02-16.08c3.43-1.82,7.1,0.06,10.6,1.58c16.83,7.34,34.07,13.57,53.08,14.47
	c1.45-0.75,2.23-0.01,2.91,1c2.36,1.79,5.71,1.41,8.16,2.99c2.43-1.98,5.52-1.73,8.45-2.04c0.41,0.14,0.82,0.28,1.24,0.42
	c0.82,0.34,1.66,0.62,2.54,0.81c6.05,0.59,12.08,0.54,18.11-0.04c0.87-0.19,1.72-0.45,2.54-0.79c0.42-0.13,0.85-0.26,1.27-0.39
	c2.96-0.08,5.93-0.16,8.89-0.24c0.44-0.02,0.89-0.05,1.33-0.07c1.12-1.8,4.46,3.77,4.65-1.15c1.4-1.4,2.96-1.47,4.65-0.49
	c24.62-2.23,46.28-11.51,67.1-22.8c3.45,1.43,4.17,4.12,4.17,7.19c0.05,34.39,0.2,68.78-0.08,103.17c-0.01,1.64-0.48,3.17-1.62,4.5
	c-4.08,2.83-8.91,2.2-13.52,2.2c-120.59,0.06-241.18,0.05-361.77,0.02c-3.94,0-7.94,0.27-11.75-1.06c-4.22-1.84-3.23-5.37-3.23-8.47
	C3.58,76.62,3.59,43.5,3.61,10.38c0-3.15-0.77-6.59,3.21-8.55C27.61,13.18,49.21,22.59,73.84,24.9c1.43-0.63,2.25,0.08,2.96,1.05
	c2.34,1.75,6.01,0.68,8.07,3.03c2.48-1.69,5.25-2.2,8.27-1.59c1.27,0.75,2.74,0.69,4.17,0.8c6.33,0.42,12.66,0.56,18.98-0.14
	C117.22,27.86,118.17,27.71,119.12,27.56z"/>
<path class="st1" d="M2.81,227.2c0-35.6,0-71.21,0-106.81c1.56-0.31,2.72,0.16,3.49,1.42c2.52,4.55,2.02,9.47,2.03,14.29
	c0.07,23.29,0,46.58,0.04,69.87c0.03,15.9,0.07,15.96,18.2,15.96c115.09,0.02,230.18,0,345.28,0.04c6.43,0,12.97-0.69,19.24,1.41
	c1.33,0.57,2.31,1.46,2.94,2.66c-0.4,1.41-1.41,2.11-3.03,2.08c-127.37,0.09-254.74,0.02-382.11,0.04
	C6.82,228.08,4.64,228.52,2.81,227.2z"/>
<path class="st2" d="M4.66,120.7c-0.6-0.21-1.21-0.31-1.85-0.3c-0.01-0.66-0.01-1.32-0.02-1.99c1.85-1.28,4.02-0.85,6.09-0.93
	c127.28,0.01,254.56-0.03,381.84,0.02c1.6-0.1,2.7,0.52,3.31,1.85c-0.48,1.28-1.41,2.2-2.76,2.78c-4.17,1.38-8.52,1.02-12.82,1.02
	c-119.77,0.03-239.53,0.03-359.3,0.01c-3.59,0-7.2,0.16-10.75-0.59C7.04,122.12,5.79,121.49,4.66,120.7z"/>
<path class="st3" d="M397.38,312.65l-0.71-0.03l-0.71,0.03l-0.82,0.07c-1.28-28.48-0.05-56.98-0.64-85.47
	c-0.92-4.08-2.01-8.08-2-12.33c0.1-28.03,0.04-56.06,0.07-84.08c0-3.54-0.09-7.11,1.75-10.41c0.67-36.04,0.07-72.09,0.34-108.14
	c0.03-3.47-1.04-7.08,0.99-10.42c0.03-0.32-0.07-0.74,0.11-0.95c0.33-0.38,0.83-0.63,1.26-0.94c0.26,2.79,0.73,5.58,0.74,8.37
	c0.11,71.04,0.17,142.08,0.25,213.12c1.96,26.97,0.41,53.98,0.78,80.97C398.84,305.84,400.31,309.55,397.38,312.65z"/>
<path class="st4" d="M6.81,118.37c-1.34,0.01-2.68,0.03-4.03,0.04C2.66,81.45,2.5,44.5,2.48,7.55c0-2.47-1.88-6.79,4.35-5.72
	c-1.55,2.62-2.21,5.38-2.21,8.39c0.06,33.35,0.04,66.7,0.04,100.05c0,2.27-0.13,4.58,2.15,6.21c0.74,0.42,0.98,0.84,0.74,1.26
	C7.31,118.16,7.06,118.37,6.81,118.37z"/>
<path class="st5" d="M395.65,1.89c-0.11,39.42-0.21,78.83-0.32,118.25c-0.73,0.73-1.37,0.67-1.9-0.19c0.05-0.52,0.07-1.05,0.05-1.57
	c-0.8-0.42-1.06-0.84-0.8-1.26c0.26-0.42,0.53-0.63,0.8-0.63c0.01-34.36,0.02-68.73,0.03-103.09c0-3.84,0.48-7.75-2.07-11.2
	C392.84,2.08,394.25,1.99,395.65,1.89z"/>
<path class="st6" d="M397.38,312.65c0.21-30.39,0.42-60.78,0.63-91.16c2.19,1.69,1.97,3.99,1.97,6.23c0,26.03,0.01,52.05-0.01,78.08
	C399.97,308.32,400.46,311.05,397.38,312.65z"/>
<path class="st7" d="M2.81,227.2c1.34,0.11,2.67,0.22,4.01,0.33c0.72,0.36,0.96,0.72,0.72,1.08c-0.24,0.36-0.48,0.54-0.73,0.54
	c-3.44,2.85-2.08,6.6-2.1,9.98c-0.12,19.85-0.01,39.7-0.11,59.54c-0.02,3.43,1.11,7.09-1.66,10.19
	C2.9,281.64,2.85,254.42,2.81,227.2z"/>
<path class="st8" d="M279.13,26.92c8.57-2.76,17.13-2.81,25.69,0.02c0,0,0.3,0.47,0.3,0.47c-8.76,2.53-17.53,2.55-26.29-0.01
	L279.13,26.92z"/>
<path class="st9" d="M95.49,29.19c-0.78-0.61-1.57-1.21-2.35-1.82c0.79-0.21,1.57-0.41,2.36-0.62c7.9-0.98,15.8-0.89,23.7-0.05
	c0,0-0.08,0.85-0.08,0.85c0.1,0.51,0.11,1.02,0.03,1.54C111.27,30.6,103.38,30.43,95.49,29.19z"/>
<path class="st8" d="M119.2,26.71c-7.9,0.02-15.8,0.03-23.7,0.05C103.39,24.2,111.29,24.28,119.2,26.71z"/>
<path class="st10" d="M60.9,353.18c5.42-2,10.84-4.07,15.01,1.9C70.63,356.22,65.98,353.33,60.9,353.18z"/>
<path class="st11" d="M76.02,27.08c-0.73-0.73-1.46-1.46-2.18-2.19c4.38-2.17,8.62-3.86,10.69,2.37
	C81.66,28.38,78.82,28.61,76.02,27.08z"/>
<path class="st12" d="M110.51,357.39c3.75,0.77,8.97-2.2,10.8,3.45c-2.78,2.17-5.66,1.77-8.59,0.29c-0.74-0.71-1.49-1.42-2.23-2.12
	c-0.47-0.36-0.62-0.73-0.46-1.08C110.19,357.57,110.35,357.39,110.51,357.39z"/>
<path class="st13" d="M324.34,24.98c-1.45,0.7-2.9,1.4-4.35,2.1c-2.09,1.44-4.27,1.15-6.48,0.27l0.2-0.65
	C316.24,21.08,320.23,22.72,324.34,24.98z"/>
<path class="st13" d="M261.76,27.1c-0.72-0.71-1.43-1.42-2.15-2.12c3.47-1.82,7.07-4.16,8.59,1.75
	C266.19,28.76,264,28.3,261.76,27.1z"/>
<path class="st14" d="M110.51,357.39c-0.01,0.54-0.02,1.08-0.02,1.61c-4.29-0.64-8.58-1.27-12.86-1.91
	C101.99,354.63,106.29,354.44,110.51,357.39z"/>
<path class="st15" d="M82.43,355.74c3.58,0.62,7.16,1.24,10.74,1.87C88.98,359.87,84.93,361.4,82.43,355.74z"/>
<path class="st14" d="M261.76,27.1c2.15-0.12,4.29-0.25,6.44-0.37c0.83,0.74,1.65,1.49,2.48,2.23
	C267.74,28.2,263.85,31.15,261.76,27.1z"/>
<path class="st16" d="M76.02,27.08c2.84,0.06,5.67,0.12,8.51,0.18c0.08,0.57,0.19,1.14,0.34,1.7
	C81.96,28.18,78.04,31.22,76.02,27.08z"/>
<path class="st13" d="M140.83,24.84c-1.93,0.23-3.85,0.46-5.78,0.7c-0.92-0.34-2.37-0.49-2.63-1.07c-0.57-1.25,0.92-1.14,1.72-1.18
	C136.53,23.17,138.97,23.03,140.83,24.84z"/>
<path class="st17" d="M47.95,351.18c2.12-2.04,4.85-1.58,7.48-1.42c0.35,0.02,0.65,0.63,0.98,0.97c-0.86,0.36-1.72,0.71-2.59,1.07
	C51.86,351.59,49.9,351.39,47.95,351.18z"/>
<path class="st18" d="M146.91,25c2.27,2.79-1.01,1.87-2,2.29c-1.98,0.85-3.85,1.03-4.3-1.62C142.71,25.45,144.81,25.23,146.91,25z"
	/>
<path class="st13" d="M112.71,361.13c2.86-0.1,5.73-0.19,8.59-0.29c0.7,0.29,1.39,0.57,2.09,0.86
	C119.68,363.82,116.07,364.31,112.71,361.13z"/>
<path class="st19" d="M2.1,308.74c0.17,1.88,0.34,3.76,0.51,5.64c-0.56,0.67-0.44,3.38-1.79,1.51
	C-0.59,313.95-0.19,310.88,2.1,308.74z"/>
<path class="st20" d="M6.81,229.15c0-0.54,0-1.08,0-1.62c30.52-0.11,61.04-0.3,91.56-0.32c94.46-0.04,188.92-0.01,283.38,0.01
	c3.94,0,7.89,0.21,11.83,0.32c0.5,0.39,0.65,0.76,0.45,1.11c-0.19,0.34-0.38,0.51-0.56,0.51C264.59,229.17,135.7,229.16,6.81,229.15
	z"/>
<path class="st21" d="M393.48,229.18c0.03-0.54,0.07-1.08,0.11-1.62c0,0-0.18-0.68-0.18-0.68c0.86-0.66,1.51-0.52,1.93,0.42
	c-0.07,28.48-0.13,56.96-0.2,85.44c-3.04-4.13-1.53-8.77-1.56-13.15C393.41,276.11,393.49,252.64,393.48,229.18z"/>
<path class="st22" d="M393.48,116.48c0.02,0.63,0.02,1.26,0,1.9c-128.89,0-257.78,0-386.67,0c0-0.63,0-1.26-0.01-1.89
	C135.7,116.48,264.59,116.48,393.48,116.48z"/>
<path class="st23" d="M278.83,27.39c8.76,0,17.53,0.01,26.29,0.01c-0.08,0.52-0.14,1.04-0.19,1.56c-8.64,1.66-17.28,1.75-25.91-0.04
	C278.99,28.41,278.93,27.9,278.83,27.39z"/>
<path class="st24" d="M279.02,28.93c8.64,0.01,17.28,0.03,25.91,0.04C296.29,32.18,287.65,32.25,279.02,28.93z"/>
<path class="st24" d="M95.49,29.19c7.89-0.03,15.77-0.06,23.66-0.09C111.28,32.2,103.39,32.08,95.49,29.19z"/>
<path class="st25" d="M313.51,27.35c2.16-0.09,4.32-0.18,6.48-0.27c0.59,0.54,3.8,0.36,1.33,1.62
	C319.13,29.82,315.74,29.59,313.51,27.35z"/>
<path class="st26" d="M4.66,120.7c0.76-0.01,1.52-0.01,2.28-0.02c3.84,1.27,7.83,0.65,11.74,0.65
	c121.03,0.04,242.06,0.02,363.09,0.06c3.92,0,7.9-0.56,11.76,0.58c2.29,7.95,0.87,16.03,0.95,24.04
	c0.23,23.26,0.12,46.52,0.03,69.77c-0.01,3.16,0.95,6.47-1.03,9.48c-124.84,0-249.68,0.01-374.53,0.01
	c-14.29,0-14.3-0.01-14.3-13.34C4.65,181.52,4.66,151.11,4.66,120.7z"/>
<path class="st27" d="M393.48,225.27c0-34.32,0-68.64-0.01-102.96c-0.78-0.41-1.02-0.78-0.73-1.12c0.28-0.32,0.56-0.48,0.85-0.48
	c0,0-0.16-0.76-0.16-0.76c0.62,0.21,1.25,0.27,1.9,0.19c0,35.72,0,71.44,0,107.16c-0.67-0.05-1.31-0.19-1.93-0.42
	C393.45,226.34,393.48,225.81,393.48,225.27z"/>
<path class="st28" d="M393.6,120.7c-0.04,0.53-0.08,1.07-0.12,1.6c-124.7,0-249.39,0.02-374.09-0.06c-4.16,0-8.67,1.28-12.45-1.57
	c31.95-0.1,63.9-0.29,95.85-0.3c92.64-0.04,185.27-0.02,277.91,0C384.99,120.38,389.29,120.59,393.6,120.7z"/>
<path class="st29" d="M242.43,182.53c-2.03,10.98-7.74,19.35-20.14,22.97c-9.24,2.76-18.72,0.73-28.09,1.16
	c-3.48-1.14-4.85-3.39-4.83-6.69c0.1-17.99-0.1-35.98,0.09-53.98c0.01-1.27,1.08-1.5,1.81-2.11c5.74-0.1,11.48-0.29,17.23-0.3
	c22.99-0.03,25.1,1.25,33.45,19.94C244.5,169.81,243.63,176.17,242.43,182.53z"/>
<path class="st19" d="M281.25,161.71c-1.65-2.03-2.85-4.71-5.05-5.93c-3.19-1.76-7.59-1.78-9.18,1.79c-1.2,2.7,1.01,4.85,4.75,5.9
	c10.37,2.9,21.78,4.67,26.4,15.57c2.1,6.81,3.34,13.49-3.37,19.04c-3.47,4.17-9.15,5.14-13.74,7.69
	c-5.86,1.51-11.66,2.25-17.12-1.13c-10.51-3.56-14.5-10.5-13.01-20.29c5.04-0.96,10.07-1.84,14.98,0.47
	c-1.2,5.44,3.91,6.84,7.51,8.6c3.8,1.86,5.73-1.74,7.51-3.86c2.81-3.35-0.48-5.61-3.05-6.85c-4.45-2.14-9.29-3.72-14.12-5.11
	c-7.06-2.03-10.06-7.06-12.51-12.64c-2.18-2.44-1.95-4.91-0.1-7.4c6.43-12.86,16.23-17.13,31.38-13.67
	c9.82,2.25,14.3,9.05,11.59,17.58C289.86,162.59,285.55,162.23,281.25,161.71z"/>
<path class="st29" d="M95.49,205.56c-8.51-3.14-14.64-8.01-15.47-16.88c-0.19-2.04-0.14-3.77,2.42-4.53
	c6.74-1.15,13.24-1.91,18.11,4.13c1.44,1.79,4.49,2.97,6.2,0.33c1.41-2.18-1.36-3.24-3.13-4.17c-3.08-1.61-6.17-3.17-8.16-5.96
	c-8.56-2.58-12.44-8.67-14.76-15.92c-1.86-0.91-1.78-1.86-0.05-2.83c5.46-14.75,15.45-19.69,31.91-15.77
	c9.6,2.29,14.14,9.59,10.89,17.53c-4.34,0.79-8.66,1.4-12.89-0.44c-1.3-1.46-2.79-2.81-3.88-4.39c-2.08-3.04-5.06-1.62-7.63-1.2
	c-0.8,0.13-1.72,1.93-1.79,3.01c-0.21,3.17,2.24,4.19,5.26,4.97c4.3,1.1,8.53,2.5,12.68,4.01c10.54,3.83,13.37,11.59,12.88,20.96
	c1.31,3.11,0.45,5.59-2.7,7.38c-4.61,2.84-7.38,7.69-12.92,9.5C106.86,207.97,101.19,207.39,95.49,205.56z"/>
<path class="st29" d="M348.01,144.76c6.13,19.47,12.26,38.93,18.6,59.09c-7.4-0.78-16.37,4.99-19.27-7.2
	c-1.1-4.64-8.21-1.58-12.53-2.2c-3.32-0.47-6.92-0.26-7.4,3.59c-1.2,9.61-9.36,6.27-14.77,5.94c-6.36-0.4-2.28-5.08-1.57-7.31
	c5.66-17.6,11.76-35.09,17.73-52.61C335.3,142.32,341.77,140.98,348.01,144.76z"/>
<path class="st30" d="M20.02,161.5c5.17-11.84,13.47-19.43,28.97-18.42c8.77,0.57,14.77,4.31,18.8,11c1.85,3.06,4.89,7.65,0.8,9.31
	c-3.6,1.46-9.16,3.34-13.86-0.94c-8.81-8.03-9.98-7.65-17.24,2.67c1.03,6.42,0.9,12.84,0.1,19.27c5.39,8.68,12.83,9.81,16.86,2.03
	c2.64-5.1,4.43-6.33,10.7-4.26c6.95,2.29,6.54,5.45,4.3,10.09c-0.26,0.54-0.03,1.26-0.03,1.9c0.16,4.34-3.35,6.01-6.88,7.67
	c-2.07,1-4.14,1.99-6.22,2.99c-5.38,3.77-11.14,2-16.84,0.9c-20.07-6.37-19.61-21.81-20.12-36.83
	C18.72,166.36,17.78,163.81,20.02,161.5z"/>
<path class="st31" d="M143.99,171.8c10.54-3.94,12.02,3.45,15.28,8.93c5.36-3.25,5.15-14.08,16.31-8.74
	c-4.99,9.75-13.13,18.83-11.33,30.99c0.6,4.07-5.51,1.43-8.93,5.48C158.16,193.43,150.67,182.67,143.99,171.8z"/>
<path class="st32" d="M95.46,178.49c5.04-0.39,7.65,5.07,13.29,4.2c2.07-0.32,3.23,3.1,3.04,5.41c-0.23,2.8-2,4.73-5.1,5.46
	c-3.44,0.82-7.6,0.09-8.39-2.54c-2.49-8.31-9.4-6.83-15.85-6.86C85.98,180.77,93.31,184.46,95.46,178.49z"/>
<path class="st27" d="M191.27,143.88c-0.02,17.67-0.12,35.33-0.01,53c0.02,3.25-1.76,7.35,3.48,9.1c0.74,0.39,0.99,0.79,0.75,1.18
	c-0.24,0.4-0.49,0.6-0.73,0.6c-4.33-0.28-6.43-2.5-6.43-6.28c-0.01-17.97,0.02-35.94,0.07-53.91
	C188.41,145.84,189.48,144.59,191.27,143.88z"/>
<path class="st33" d="M302.63,196.59c2.28,2.11,4.46,4.27,2.22,7.45c-1.65,2.34-4.53,2.42-6.62,1.57c-3.74-1.52-1.78-4.83-1.84-7.46
	C297.89,195.75,299.49,193.67,302.63,196.59z"/>
<path class="st34" d="M248.9,200.54c0.15,3.53-0.33,5.36-3.86,5.34c-3.44-0.02-5.5-1.33-5.64-4.33c-0.11-2.46,1.54-4.36,4.35-4.58
	C247.18,196.71,248.74,198.68,248.9,200.54z"/>
<path class="st35" d="M132.07,196.29c2.39,2.23,5.85,4.16,2.65,7.92c-1.18,1.39-2.74,2.09-4.59,1.77c-4.75-0.82-4.78-3.99-4.28-7.35
	C127.11,196.1,128.47,193.79,132.07,196.29z"/>
<path class="st36" d="M71.86,196.63c4.06,0.02,6.99,1.3,6.66,5.47c-0.21,2.64-2.21,3.59-5.08,3.78c-5.32,0.35-3.94-3.27-4.5-5.78
	C68.36,197.88,69.56,196.88,71.86,196.63z"/>
<path class="st37" d="M376.71,196.97c2.95,0.37,4.55,1.97,4.59,4.41c0.04,2.45-1.43,4.33-4.39,4.35c-3.34,0.02-5.21-1.61-5.02-4.75
	C372.05,198.24,374.21,197.38,376.71,196.97z"/>
<path class="st38" d="M302.63,196.59c-2.08,0.52-4.16,1.03-6.24,1.55c0,0-0.79-0.09-0.79-0.09s-0.8,0.02-0.8,0.02
	c2.93-6.09,4.22-12.41,3.37-19.04C303.64,184.06,298.28,191.33,302.63,196.59z"/>
<path class="st39" d="M194.76,207.76c0-0.59-0.01-1.19-0.01-1.78c9.18-0.16,18.36-0.32,27.54-0.48c-1.08,4.74-5.18,1.95-7.66,2.12
	C208.04,208.1,201.39,207.77,194.76,207.76z"/>
<path class="st40" d="M242.43,182.53c-0.16-6.33-0.32-12.67-0.48-19C246.47,169.77,245.09,176.14,242.43,182.53z"/>
<path class="st41" d="M37.59,184.39c-1.69-6.42-1.6-12.84-0.1-19.27C40.31,171.53,40.16,177.96,37.59,184.39z"/>
<path class="st39" d="M263.94,204.64c5.71,0.38,11.41,0.75,17.12,1.13C275.09,208.6,269.22,210.18,263.94,204.64z"/>
<path class="st40" d="M348.01,144.76c-6.34-1.55-12.8-0.62-19.21-0.71C335.37,140.8,341.83,139.75,348.01,144.76z"/>
<path class="st39" d="M39.47,205.7c5.61-0.3,11.23-0.6,16.84-0.9c-4.78,5.47-11.15,2.35-16.9,2.49c-0.11,0-0.35-0.49-0.34-0.74
	C39.09,206.26,39.33,205.98,39.47,205.7z"/>
<path class="st42" d="M132.07,196.29c-2.07,0.78-4.15,1.56-6.22,2.34c-0.15-0.96-0.3-1.91-0.46-2.87c0.9-2.46,1.8-4.92,2.7-7.38
	C129.42,191.02,130.74,193.65,132.07,196.29z"/>
<path class="st43" d="M71.86,196.63c-0.97,1.16-1.94,2.31-2.92,3.47c-2.14,0.57-4.28,1.15-6.42,1.72c2.29-2.56,4.59-5.11,6.88-7.67
	C70.23,194.97,71.05,195.8,71.86,196.63z"/>
<path class="st39" d="M95.49,205.56c5.66-0.1,11.32-0.2,16.98-0.3C106.89,209.28,101.22,208.83,95.49,205.56z"/>
<path class="st44" d="M265.91,184.82c-4.92-1.99-10,0.21-14.98-0.47C256.03,181.75,261.07,180.81,265.91,184.82z"/>
<path class="st45" d="M281.25,161.71c4.29-0.08,8.59-0.16,12.88-0.24C289.89,164.02,285.6,164.03,281.25,161.71z"/>
<path class="st46" d="M110.56,161.05c4.3,0.15,8.59,0.3,12.89,0.44C119.05,163.75,114.72,164.51,110.56,161.05z"/>
<path class="st41" d="M251.15,157.55c0.03,2.47,0.07,4.93,0.1,7.4C247.89,162.52,247.44,160.05,251.15,157.55z"/>
<path class="st47" d="M80.65,159.74c0.02,0.94,0.04,1.88,0.05,2.83c-3.97,1.7-2.29-1.43-2.5-2.56c-0.16-0.86-0.72-2.47,1.2-2.52
	C79.8,157.47,80.23,158.95,80.65,159.74z"/>
<path class="st48" d="M20.02,161.5c-0.22,2.46-0.45,4.92-0.67,7.37C17.3,166.25,15.94,163.68,20.02,161.5z"/>
<path class="st49" d="M209.76,190.36c-3.54-9.65-1.38-19.6-1.21-29.36c0.05-2.93,5.4-3.94,9.32-1.6
	c8.92,5.35,10.27,19.97,2.58,28.98c-5.95,1.91-10.31,1.64-9.46-5.77C210.47,185.26,212.11,188.06,209.76,190.36z"/>
<path class="st47" d="M209.76,190.36c0.17-3.15,0.34-6.3,0.52-9.45c1.54,4.72,3.3,8.83,10.17,7.47
	C217.64,192.34,213.73,191.45,209.76,190.36z"/>
<path class="st39" d="M336.75,162.83c4.53,5.91,1.93,11.56,5.7,15.71c1.89,2.08-1.78,2.76-3.81,2.76c-2.62,0-6.5,0.96-5.71-3.38
	C333.75,173.46,335.14,169.08,336.75,162.83z"/>
</svg>
