<?xml version="1.0" encoding="utf-8"?>
<!-- Generator: Adobe Illustrator 23.1.0, SVG Export Plug-In . SVG Version: 6.00 Build 0)  -->
<svg version="1.1" id="Capa_1" xmlns="http://www.w3.org/2000/svg" xmlns:xlink="http://www.w3.org/1999/xlink" x="0px" y="0px"
	 viewBox="0 0 400 400" style="enable-background:new 0 0 400 400;" xml:space="preserve">
<style type="text/css">
	.st0{fill:#040402;}
	.st1{fill:#EED21C;}
	.st2{fill:#2C791E;}
	.st3{fill:#317B1E;}
</style>
<path class="st0" d="M400,76.47c-1.8,3.15-2.08,6.7-2.25,10.18c-0.9,18.62-4.91,36.72-8.66,54.85c-3.7,17.87-8.61,35.41-14.16,52.79
	c-9.24,28.93-21.6,56.17-38.83,81.11c-10.69,15.48-22.29,30.13-35.21,43.66c-14.11,14.78-29.08,28.62-44.89,41.52
	c-13.96,11.38-28.44,21.98-43.38,31.97c-3.5,2.34-8.33,2.9-10.32,7.45c-1.53,0-3.07,0-4.6,0c-6.58-4.69-13.1-9.47-19.74-14.07
	c-24.81-17.21-47.81-36.64-69.59-57.73c-11.27-10.91-21.61-22.68-31.26-34.94c-23.23-29.54-40.6-62.46-51.96-98.72
	c-5-15.96-9.18-32.13-13.06-48.34c-3.27-13.66-5.61-27.63-7.72-41.6C2.9,94.78,2.27,84.93,1.05,75.12C1,74.75,0.36,74.45,0,74.12
	c0-3.14,0-6.27,0-9.41c1.76-3.02,3.28-6.22,5.31-9.03c9.45-13.11,19.03-26.13,28.59-39.15c5.3-7.23,8.41-7.9,15.65-2.79
	c5.95,4.19,11.11,9.84,17.48,13.04c17.49,8.78,35.19,16.73,55.81,12.22c15.25-3.34,30.11-7.74,43.32-15.98
	C176.88,16.34,187.21,8.76,196.55,0c1.92,0,3.83,0,5.75,0c0.63,2.1,2.83,1.15,4.17,2.36c8.68,7.83,18.17,14.56,28.09,20.66
	c17.18,10.57,35.77,16.52,55.81,16.9c16.98,0.32,31.64-7.17,46.11-15.31c6.06-3.41,10.09-9.4,16.62-12.14
	c6-2.51,9.12-2.23,12.74,2.94c11.27,16.13,23.83,31.3,34.16,48.12C400,67.84,400,72.16,400,76.47z M264.28,338.8
	c0,0,0.07-0.06,0.07-0.06c0.39-0.36,0.78-0.73,1.18-1.09c4.23-4.02,8.45-8.04,12.68-12.06c0.32-0.3,0.64-0.61,0.96-0.91
	c8.47-8.21,17.5-15.86,24.28-25.74c0.4-0.41,0.81-0.82,1.21-1.23c0.88-0.74,1.86-1.39,2.64-2.23
	c11.89-12.68,22.18-26.57,30.68-41.88c9.86-17.77,19.06-35.76,25.74-55.15c4.91-14.26,9.21-28.7,13.96-43
	c2.95-8.9,2.48-18.54,6.21-27.21c0.28-0.66-0.01-1.56,0.08-2.34c1.16-10.02,2.26-20.06,3.55-30.06c0.99-7.69,2.29-15.33,3.33-23.01
	c1.4-10.38-6.97-15.98-11.64-23.15c-2.47-3.8-4.44-8.75-9.13-10.89c-3.43-4.9-6.86-9.81-10.31-14.69c-1.73-2.45-3.45-3.12-6.09-0.8
	c-16.81,14.77-35.63,24.66-58.22,26.65c-11.99,1.06-23.53,0.62-34.93-3.35c-20.9-7.28-39.25-19.17-56.61-32.79
	c-2.76-2.16-4.7-2.54-7.48-0.21c-13.87,11.66-29.19,21.02-45.44,28.7c-18.16,8.58-37.09,10.41-56.72,6.12
	C76.57,44.54,61.27,36.03,47.51,24.3c-1.89-1.61-4.09-3.59-5.89-1.31c-4.12,5.21-8.98,10.04-10.83,16.83
	c-2.06,0.01-3.65,0.62-4.53,2.81c-1.76,4.36-4.8,8.22-7.76,11.39C11.3,61.7,7.63,69.35,10.06,80.44c2.39,10.91,2.2,22.39,4.28,33.39
	c3.02,15.95,6.81,31.75,10.79,47.51c4.6,18.24,11.02,35.8,17.71,53.26c3.51,9.15,9.15,17.44,12.65,26.59
	c6.16,16.07,17.61,28.53,26.74,42.53c2.35,3.6,6.99,6.08,9.28,10.44c0.93,1.77,2.76,2.67,4.89,2.42c0.07,1.34-0.02,2.62,1.09,3.75
	c11.52,11.73,22.34,24.19,34.78,34.96c0.34,0.3,0.68,0.6,1.02,0.9c8.65,8.63,17.74,16.71,27.63,23.83c0.38,0.33,0.75,0.66,1.13,0.99
	c3.08,2.42,6.15,4.83,9.23,7.25c0.14,0.6,0.38,1.07,1.11,0.93c0.77,0.48,1.54,0.95,2.3,1.43c0.4,0.35,0.8,0.71,1.2,1.06
	c2.67,2,5.34,3.99,8.01,5.99c0.14,0.62,0.39,1.08,1.13,0.96c3.48,2.42,6.96,4.83,10.44,7.25c0.34,0.27,0.69,0.54,1.03,0.81
	c0.38,0.13,0.76,0.27,1.14,0.4c0.18,0.58,0.42,1.08,1.16,0.84c0.79,0.01,1.58,0.03,2.37,0.04c0.75,0.2,1-0.28,1.18-0.88
	c0.37-0.11,0.75-0.23,1.12-0.34c0.75,0.23,0.95-0.28,1.11-0.85c15.16-10.27,29.89-21.11,43.72-33.21c0.36-0.3,0.72-0.61,1.08-0.91
	c4.95-3.63,9.59-7.62,13.87-12.06C263.6,339.4,263.94,339.1,264.28,338.8z"/>
<path class="st1" d="M195.47,385.87c-3.48-2.42-6.96-4.83-10.44-7.25c-0.38-0.32-0.75-0.64-1.13-0.96c-2.67-2-5.34-3.99-8.01-5.99
	c-0.4-0.35-0.8-0.71-1.2-1.06c-0.77-0.48-1.54-0.95-2.3-1.43c-0.37-0.31-0.74-0.62-1.11-0.93c-3.08-2.42-6.15-4.83-9.23-7.25
	c-0.38-0.33-0.75-0.66-1.13-0.99c-9.89-7.12-18.98-15.2-27.62-23.83c-0.34-0.3-0.68-0.6-1.02-0.9
	c-12.44-10.77-23.26-23.23-34.78-34.96c-1.11-1.13-1.02-2.41-1.09-3.75c13.01-12.43,26.04-24.83,39.02-37.28
	c20.11-19.28,40.16-38.63,60.3-57.87c3.22-3.08,3.19-5.06-0.28-8.25c-26.61-24.47-52.98-49.22-79.5-73.79
	c-17.73-16.43-35.88-32.4-53.27-49.21c-10.55-10.2-22.19-19.21-31.89-30.34c1.85-6.78,6.71-11.61,10.83-16.83
	c1.8-2.27,4-0.29,5.89,1.31c13.76,11.72,29.06,20.24,46.78,24.11c19.63,4.29,38.56,2.46,56.72-6.12
	c16.25-7.68,31.56-17.04,45.44-28.7c2.77-2.33,4.72-1.96,7.48,0.21c17.37,13.62,35.72,25.51,56.61,32.79
	c11.4,3.97,22.94,4.4,34.93,3.35c22.59-1.99,41.41-11.88,58.22-26.65c2.64-2.32,4.36-1.64,6.09,0.8c3.45,4.88,6.87,9.79,10.31,14.69
	c-1,2.46-3.01,4.01-4.84,5.72c-18.68,17.41-37.34,34.85-56.06,52.21c-17.87,16.57-35.83,33.03-53.7,49.58
	c-17.03,15.76-33.94,31.66-51.05,47.32c-3.15,2.88-2.71,4.96-0.04,7.52c18.99,18.22,37.98,36.43,56.94,54.68
	c14.06,13.54,28.08,27.13,42.12,40.69c0,0.81,0.01,1.61,0.01,2.42c-6.78,9.88-15.81,17.53-24.28,25.74
	c-0.32,0.3-0.64,0.61-0.96,0.91c-4.23,4.02-8.45,8.04-12.68,12.06c-0.39,0.36-0.78,0.73-1.18,1.09c0,0-0.07,0.06-0.07,0.06
	c-0.34,0.3-0.68,0.6-1.01,0.9c-4.27,4.44-8.92,8.43-13.87,12.06c-0.36,0.3-0.72,0.61-1.08,0.91c-13.83,12.1-28.56,22.95-43.72,33.21
	c-0.37,0.28-0.74,0.57-1.11,0.85c-0.37,0.11-0.75,0.23-1.12,0.34c-0.39,0.29-0.79,0.59-1.18,0.88c-0.79-0.01-1.58-0.03-2.37-0.04
	c-0.39-0.28-0.78-0.56-1.16-0.84c-0.38-0.13-0.76-0.27-1.14-0.4C196.15,386.41,195.81,386.14,195.47,385.87z M200.07,305.69
	c9.45-0.08,9.9,0.49,9.77,10.34c-0.05,3.47,1.38,6.18,5.35,6.21c2.49,0.02,4.99,0.01,7.46-0.26c4.93-0.53,6.48-4.15,3.16-8.07
	c-3.47-4.1-5.35-8.86-7.19-13.8c-3.66-9.81-7.46-19.56-11.36-29.27c-1.91-4.76-11.48-7.31-15.52-4.36
	c-1.19,0.87-2.07,2.11-1.69,3.48c2.54,9.22-2.74,16.69-5.38,24.65c-1.94,5.84-3.13,12.25-7.08,17.1c-2,2.46-4.97,4.22-3.25,7.81
	c1.51,3.14,4.82,2.64,7.65,2.74c1.53,0.05,3.07,0.06,4.59-0.1c3.99-0.44,5.66-2.55,4.96-6.8
	C190.16,306.92,191.25,305.77,200.07,305.69z M223.8,86.67c0-1.18,0.01-1.97,0-2.75c-0.14-7.22-1.13-8.05-7.95-6.14
	c-2.1,0.59-3.63-0.46-5.43-1.03c-9.28-2.93-17.93-1.71-24.85,5.61c-8.86,9.38-9.57,20.56-6.35,32.69c2.57,9.68,9.92,17.21,18.78,18
	c11.56,1.03,21.19-4.51,25.16-14.32c1-2.47,1.19-4.7-1.3-6.11c-2.54-1.44-5.17-1.56-7.13,1.18c-0.79,1.1-1.31,2.38-2.02,3.54
	c-5.64,9.19-17.34,8.96-22.26-0.64c-3.45-6.73-2.9-14.05-1.47-21.2c1.07-5.34,4.29-9.2,9.63-10.53c5.5-1.37,9.81,1.12,12.96,5.49
	c2.46,3.41,5.07,6.24,9.46,4.54C225.08,93.42,223.47,89.4,223.8,86.67z"/>
<path class="st2" d="M30.79,39.82c9.7,11.13,21.34,20.14,31.89,30.34c17.38,16.8,35.54,32.77,53.27,49.21
	c26.52,24.58,52.89,49.32,79.5,73.79c3.47,3.19,3.5,5.18,0.28,8.25c-20.14,19.24-40.19,38.59-60.3,57.87
	c-12.98,12.45-26.01,24.86-39.02,37.28c-2.13,0.26-3.96-0.65-4.89-2.42c-2.3-4.36-6.94-6.84-9.28-10.44
	c-9.13-14-20.58-26.46-26.74-42.53c-3.51-9.15-9.14-17.44-12.65-26.59c-6.69-17.45-13.12-35.01-17.71-53.26
	c-3.97-15.76-7.76-31.56-10.79-47.51c-2.08-11-1.9-22.48-4.28-33.39C7.63,69.35,11.3,61.7,18.49,54.01c2.96-3.16,6-7.03,7.76-11.39
	C27.14,40.43,28.73,39.83,30.79,39.82z M122.83,193.24c-0.1,3.38,0.09,7.84-0.77,12.33c-1.47,7.64-4.03,9.92-12.17,9.76
	c-6.34-0.13-9.06-3.01-9.87-10.32c-0.65-5.84-1.05-11.68-1.06-17.57c0-4.71,0.14-8.98,5.21-11.27c1.77-0.8,2.93-2.68,2.13-4.9
	c-0.62-1.73-1.84-2.99-3.84-3c-5.55-0.01-11.1-0.02-16.65,0.01c-2.03,0.01-3.11,1.44-3.68,3.17c-0.63,1.9,0.13,3.92,1.7,4.57
	c5.36,2.24,5,6.8,4.97,11.36c-0.03,4.51-0.14,9.02,0.02,13.52c0.56,16.02,5.82,22.6,19.56,24.71c13.9,2.13,24.96-7.55,24.97-21.84
	c0-6.27,0.12-12.54-0.05-18.81c-0.09-3.59,0.35-6.59,4.05-8.15c2.24-0.94,3.2-2.87,2.53-5.25c-0.64-2.3-2.24-3.42-4.74-3.35
	c-4.78,0.12-9.57,0.05-14.36,0.03c-2.36-0.01-4.19,0.75-4.61,3.37c-0.38,2.33,0.2,4.19,2.63,5.19c3.37,1.39,4.05,4.39,4.03,7.71
	C122.82,187.04,122.83,189.59,122.83,193.24z"/>
<path class="st2" d="M303.43,296.52c-14.04-13.57-28.06-27.15-42.12-40.69c-18.96-18.25-37.95-36.47-56.94-54.68
	c-2.67-2.56-3.12-4.64,0.04-7.52c17.11-15.66,34.03-31.55,51.05-47.32c17.88-16.55,35.84-33.02,53.7-49.58
	c18.72-17.36,37.38-34.8,56.06-52.21c1.83-1.71,3.85-3.27,4.84-5.72c4.69,2.14,6.65,7.09,9.13,10.89
	c4.67,7.17,13.03,12.76,11.64,23.15c-1.03,7.68-2.34,15.33-3.33,23.01c-1.29,10.01-2.39,20.04-3.55,30.06
	c-0.09,0.77,0.21,1.67-0.08,2.34c-3.73,8.67-3.25,18.31-6.21,27.21c-4.74,14.3-9.05,28.74-13.96,43
	c-6.67,19.39-15.88,37.38-25.74,55.15c-8.5,15.32-18.79,29.2-30.68,41.88c-0.78,0.84-1.76,1.49-2.64,2.23
	C304.25,297.31,303.84,296.91,303.43,296.52z M289.46,168.23c-1.3,0-2.83-0.07-4.36,0.01c-9.22,0.49-15.18,6.97-15.03,16.28
	c0.13,7.64,4.9,12.71,14.74,15.35c4.41,1.19,9.02,1.71,13.17,3.77c2.3,1.14,4.32,2.9,4.12,5.82c-0.19,2.82-2.15,4.51-4.59,5.49
	c-7.76,3.09-15.63,0.17-19.25-7.37c-1.14-2.38-2.56-4.12-5.12-3.74c-2.71,0.4-5.31,1.69-5.7,4.93c-0.37,3.09-0.49,6.24-0.39,9.35
	c0.19,5.9,1.86,7.46,7.52,6.29c2.63-0.55,4.98-0.2,7.28,0.48c4.14,1.23,8.32,1.32,12.5,1.02c10-0.72,17.71-7.9,18.35-16.89
	c0.56-7.75-5.48-14.64-15.14-17.21c-4.23-1.12-8.51-2.05-12.72-3.25c-2.53-0.72-4.7-2.27-4.45-5.31c0.25-3.05,2.4-4.99,5.16-5.54
	c5.65-1.14,10.68-0.06,13.87,5.53c1.71,2.99,3.99,4.68,7.57,3.8c2.78-0.69,3.76-2.69,3.36-5.28c-0.68-4.41,2.17-9.47-2.23-13.18
	c-0.37-0.31-1.25-0.44-1.65-0.22C300.81,171.54,295.29,167.14,289.46,168.23z"/>
<path class="st1" d="M303.43,296.52c0.41,0.4,0.81,0.79,1.22,1.19c-0.4,0.41-0.81,0.82-1.21,1.23
	C303.44,298.13,303.44,297.33,303.43,296.52z"/>
<path class="st1" d="M278.2,325.59c0.32-0.3,0.64-0.61,0.96-0.91C278.84,324.98,278.52,325.29,278.2,325.59z"/>
<path class="st1" d="M132.27,335.28c0.34,0.3,0.68,0.6,1.02,0.9C132.95,335.88,132.61,335.58,132.27,335.28z"/>
<path class="st1" d="M264.35,338.74c0.39-0.36,0.78-0.73,1.18-1.09C265.13,338.02,264.74,338.38,264.35,338.74z"/>
<path class="st1" d="M263.26,339.7c0.34-0.3,0.68-0.6,1.01-0.9C263.94,339.1,263.6,339.4,263.26,339.7z"/>
<path class="st1" d="M248.31,352.67c0.36-0.3,0.72-0.61,1.08-0.91C249.03,352.06,248.67,352.37,248.31,352.67z"/>
<path class="st1" d="M160.91,360c0.38,0.33,0.75,0.66,1.13,0.99C161.66,360.66,161.29,360.33,160.91,360z"/>
<path class="st1" d="M171.26,368.24c0.37,0.31,0.74,0.62,1.11,0.93C171.65,369.31,171.41,368.84,171.26,368.24z"/>
<path class="st1" d="M174.68,370.6c0.4,0.35,0.8,0.71,1.2,1.06C175.48,371.31,175.08,370.95,174.68,370.6z"/>
<path class="st1" d="M183.9,377.65c0.38,0.32,0.75,0.64,1.13,0.96C184.29,378.74,184.03,378.27,183.9,377.65z"/>
<path class="st1" d="M195.47,385.87c0.34,0.27,0.69,0.54,1.03,0.81C196.15,386.41,195.81,386.14,195.47,385.87z"/>
<path class="st1" d="M203.49,386.74c0.37-0.28,0.74-0.57,1.11-0.85C204.44,386.46,204.24,386.97,203.49,386.74z"/>
<path class="st1" d="M197.64,387.08c0.39,0.28,0.78,0.56,1.16,0.84C198.06,388.16,197.83,387.65,197.64,387.08z"/>
<path class="st1" d="M201.18,387.96c0.39-0.29,0.79-0.59,1.18-0.88C202.18,387.68,201.93,388.16,201.18,387.96z"/>
<path class="st3" d="M200.07,305.69c-8.82,0.08-9.92,1.22-8.53,9.68c0.69,4.25-0.98,6.36-4.96,6.8c-1.52,0.17-3.06,0.16-4.59,0.1
	c-2.83-0.1-6.14,0.41-7.65-2.74c-1.72-3.59,1.25-5.35,3.25-7.81c3.95-4.86,5.14-11.26,7.08-17.1c2.64-7.96,7.92-15.43,5.38-24.65
	c-0.38-1.37,0.49-2.61,1.69-3.48c4.04-2.95,13.61-0.4,15.52,4.36c3.9,9.71,7.7,19.46,11.36,29.27c1.84,4.93,3.72,9.69,7.19,13.8
	c3.32,3.93,1.77,7.55-3.16,8.07c-2.47,0.26-4.97,0.28-7.46,0.26c-3.97-0.04-5.4-2.74-5.35-6.21
	C209.97,306.19,209.52,305.61,200.07,305.69z M204.63,292c-1.72-2.33-0.92-8.39-3.69-8.3c-3.74,0.13-3.11,5.86-4.16,9.17
	c-0.81,2.58,1.65,3.12,3.62,3.14C202.57,296.03,204.69,295.7,204.63,292z"/>
<path class="st3" d="M223.8,86.67c-0.32,2.73,1.29,6.75-2.78,8.33c-4.39,1.7-7-1.13-9.46-4.54c-3.15-4.37-7.46-6.86-12.96-5.49
	c-5.34,1.33-8.56,5.19-9.63,10.53c-1.43,7.15-1.98,14.47,1.47,21.2c4.92,9.6,16.62,9.83,22.26,0.64c0.71-1.16,1.24-2.44,2.02-3.54
	c1.96-2.74,4.59-2.62,7.13-1.18c2.49,1.41,2.3,3.64,1.3,6.11c-3.97,9.81-13.6,15.35-25.16,14.32c-8.85-0.79-16.21-8.32-18.78-18
	c-3.22-12.13-2.51-23.31,6.35-32.69c6.92-7.32,15.57-8.54,24.85-5.61c1.8,0.57,3.33,1.62,5.43,1.03c6.82-1.91,7.81-1.08,7.95,6.14
	C223.81,84.7,223.8,85.48,223.8,86.67z"/>
<path class="st1" d="M122.83,193.24c0-3.66-0.01-6.2,0-8.75c0.02-3.32-0.66-6.32-4.03-7.71c-2.43-1-3.01-2.85-2.63-5.19
	c0.42-2.62,2.25-3.38,4.61-3.37c4.79,0.03,9.57,0.09,14.36-0.03c2.5-0.06,4.09,1.05,4.74,3.35c0.67,2.39-0.29,4.31-2.53,5.25
	c-3.71,1.56-4.15,4.56-4.05,8.15c0.17,6.27,0.05,12.54,0.05,18.81c-0.01,14.3-11.07,23.98-24.97,21.84
	c-13.74-2.11-19-8.7-19.56-24.71c-0.16-4.5-0.05-9.01-0.02-13.52c0.03-4.56,0.39-9.12-4.97-11.36c-1.57-0.65-2.33-2.67-1.7-4.57
	c0.57-1.73,1.66-3.15,3.68-3.17c5.55-0.04,11.1-0.02,16.65-0.01c2,0,3.22,1.26,3.84,3c0.79,2.22-0.37,4.1-2.13,4.9
	c-5.06,2.29-5.21,6.56-5.21,11.27c0,5.89,0.41,11.73,1.06,17.57c0.81,7.32,3.53,10.2,9.87,10.32c8.14,0.16,10.7-2.13,12.17-9.76
	C122.92,201.08,122.73,196.62,122.83,193.24z"/>
<path class="st1" d="M289.46,168.23c5.83-1.08,11.35,3.31,17.02,0.14c0.41-0.23,1.28-0.1,1.65,0.22c4.4,3.71,1.55,8.77,2.23,13.18
	c0.4,2.59-0.59,4.59-3.36,5.28c-3.58,0.89-5.86-0.81-7.57-3.8c-3.19-5.58-8.21-6.66-13.87-5.53c-2.76,0.56-4.91,2.49-5.16,5.54
	c-0.25,3.04,1.92,4.58,4.45,5.31c4.21,1.2,8.49,2.13,12.72,3.25c9.66,2.57,15.69,9.46,15.14,17.21
	c-0.64,8.98-8.36,16.17-18.35,16.89c-4.19,0.3-8.36,0.21-12.5-1.02c-2.3-0.68-4.65-1.02-7.28-0.48c-5.66,1.18-7.33-0.39-7.52-6.29
	c-0.1-3.11,0.02-6.26,0.39-9.35c0.39-3.24,2.98-4.53,5.7-4.93c2.56-0.38,3.98,1.36,5.12,3.74c3.62,7.54,11.49,10.47,19.25,7.37
	c2.44-0.97,4.4-2.67,4.59-5.49c0.19-2.92-1.82-4.68-4.12-5.82c-4.15-2.06-8.76-2.59-13.17-3.77c-9.84-2.64-14.62-7.71-14.74-15.35
	c-0.15-9.31,5.81-15.78,15.03-16.28C286.63,168.16,288.16,168.23,289.46,168.23z"/>
<path class="st1" d="M204.63,292c0.06,3.7-2.06,4.02-4.22,4.01c-1.97-0.01-4.44-0.55-3.62-3.14c1.04-3.32,0.41-9.05,4.16-9.17
	C203.71,283.61,202.9,289.68,204.63,292z"/>
</svg>
