<svg id="Capa_1" data-name="Capa 1" xmlns="http://www.w3.org/2000/svg" viewBox="0 0 669.96 700.14"><defs><style>.cls-1{fill:#d9d9d9;}</style></defs><title>ligalogogris</title><path class="cls-1" d="M569.8,0c13.45,18.69,36.63,30.39,41.79,57.08-11.74,8.33-24.35,5.79-36.16,5.8q-227.14.25-454.3.15c-38.78,0-38.93.18-38.94,39.76-.07,146.55.44,293.11-.49,439.66-.15,24.73,7.24,40,29.79,51.45,119.45,60.7,236.54,59.88,352.19-9.79C532.74,542.5,577.62,481.55,606.1,407.28c5.16-13.46,11.48-25.43-8.28-35.74-20.42-10.65-1.72-29.53-3-44.65-1-12.1,10.06-17.17,21.43-17.29,23.68-.24,47.36.1,71,.2V347c-1.38,3.86-3.35,7.61-4.07,11.58-20.8,113.77-77.31,204-172.29,271.17C457.33,667.61,396.42,684,334.8,700.14H223.48c-59.25-16.06-117.74-33.37-170.65-66.62-24.31-15.28-35.78-32.36-35.48-62,1.31-130.77.42-261.57.64-392.36C18.09,119.4,18.91,59.7,19.4,0Z" transform="translate(-17.34)"/><path class="cls-1" d="M687.3,272.62c-29.81.52-59.66,2-89.44,1.2-20.44-.55-27.4,7.67-26.46,27.4,6.3,132.22-102.25,239-207.28,272.66-15.07,4.82-23.05,1.64-24.86-15.75-3.54-33.93,0-38.33,31.3-52.49,98.05-44.29,160.5-148.64,137-259.51-9.37-44.22-25.62-84.57-59.67-116-4.25-3.92-9.86-7.94-8-16.15,10.74-7.71,23.4-3.86,35.18-4,45.27-.51,90.56-.25,135.85-.19,42.8.07,51.1,8.52,54.2,55.78-35.6,9.46-73.18-2.61-108.79,7.18,3.67,36,3.67,36,35.37,36.41q47.83.66,95.65,1.48Z" transform="translate(-17.34)"/><path class="cls-1" d="M247.49,292.36c0-50.46.66-100.93-.31-151.37-.43-22.61,8.29-30.27,30.77-30.85,82.13-2.14,139.67,43.63,168.2,104.39,25.93,55.25,22.24,144.76-37.56,199.8C370.1,449.76,329.23,475.27,274.38,472c-19.84-1.19-27.29-8.9-27.07-28.25C247.88,393.28,247.5,342.82,247.49,292.36Zm63.3-1.21h.14c0,29.89-.74,59.8.25,89.65.67,20,10.14,25.52,25,15,79.13-56.08,78.81-143.16,14.55-206-8.35-8.17-20-11.74-31.49-6.65-10.65,4.72-8.19,15.66-8.3,24.56C310.58,235.49,310.79,263.32,310.79,291.15Z" transform="translate(-17.34)"/><path class="cls-1" d="M135.22,332.23c0-63.87-.24-127.74.11-191.6.15-28.11,3.17-30.71,29.29-30.76s29.45,2.58,29.52,30.52c.28,111.25.05,222.5.15,333.75,0,35.41,1.92,38.5,36.85,43.4,19.23,2.7,39,2.19,58.49,2.31,21,.14,22.41,14.18,21.59,29.54-.78,14.52,4.62,33.11-19.61,34.39-46.79,2.46-92-2.87-135-23.71-16.34-7.92-21.91-18.67-21.71-36.25C135.67,460,135.23,396.09,135.22,332.23Z" transform="translate(-17.34)"/></svg>