<?xml version="1.0" encoding="utf-8"?>
<!-- Generator: Adobe Illustrator 23.1.0, SVG Export Plug-In . SVG Version: 6.00 Build 0)  -->
<svg version="1.1" id="Capa_1" xmlns="http://www.w3.org/2000/svg" xmlns:xlink="http://www.w3.org/1999/xlink" x="0px" y="0px"
	 viewBox="0 0 700 700" style="enable-background:new 0 0 700 700;" xml:space="preserve">
<style type="text/css">
	.st0{fill:#0B8B40;}
	.st1{fill:#DD0124;}
	.st2{fill:#E39825;}
	.st3{fill:#02488D;}
</style>
<g>
	<path class="st0" d="M569.8,0c13.45,18.69,36.63,30.39,41.78,57.08c-11.74,8.32-24.35,5.78-36.16,5.79
		C424,63.05,272.56,62.95,121.13,63.03c-38.78,0.02-38.93,0.18-38.95,39.76c-0.07,146.56,0.45,293.12-0.48,439.67
		c-0.16,24.73,7.24,39.99,29.78,51.45c119.45,60.69,236.55,59.88,352.19-9.79c69.07-41.61,113.94-102.56,142.42-176.84
		c5.16-13.46,11.49-25.42-8.28-35.73c-20.42-10.65-1.72-29.53-2.99-44.65c-1.02-12.1,10.06-17.17,21.43-17.29
		c23.68-0.25,47.36,0.1,71.04,0.2c0,12.39,0,24.78,0,37.18c-1.39,3.85-3.35,7.6-4.08,11.58c-20.8,113.77-77.31,204.04-172.29,271.17
		c-53.61,37.89-114.52,54.3-176.14,70.42c-37.11,0-74.21,0-111.32,0c-59.26-16.06-117.74-33.38-170.65-66.63
		c-24.31-15.28-35.78-32.36-35.49-62.04c1.31-130.78,0.42-261.58,0.64-392.37C18.09,119.4,18.91,59.7,19.4,0
		C202.87,0,386.34,0,569.8,0z"/>
	<path class="st1" d="M687.3,272.62c-29.82,0.51-59.67,2.01-89.45,1.2c-20.44-0.55-27.4,7.66-26.45,27.4
		c6.3,132.22-102.25,239.05-207.28,272.66c-15.07,4.82-23.05,1.64-24.86-15.75c-3.53-33.93-0.04-38.33,31.31-52.49
		C468.61,461.35,531.06,357,507.54,246.13c-9.38-44.22-25.63-84.57-59.68-115.98c-4.25-3.92-9.86-7.94-8.03-16.16
		c10.74-7.7,23.4-3.85,35.18-3.99c45.28-0.51,90.57-0.25,135.85-0.19c42.8,0.06,51.1,8.51,54.2,55.78
		c-35.6,9.46-73.18-2.61-108.79,7.18c3.67,35.99,3.67,35.95,35.37,36.4c31.89,0.45,63.77,0.99,95.65,1.49
		C687.3,231.32,687.3,251.97,687.3,272.62z"/>
	<path class="st2" d="M247.49,292.36c-0.01-50.46,0.65-100.93-0.31-151.37c-0.43-22.61,8.29-30.27,30.77-30.85
		c82.13-2.14,139.66,43.63,168.19,104.4c25.93,55.24,22.24,144.76-37.55,199.79c-38.5,35.43-79.37,60.94-134.22,57.65
		c-19.84-1.19-27.28-8.9-27.07-28.24C247.88,393.28,247.5,342.82,247.49,292.36z M310.79,291.15c0.04,0,0.09,0,0.13,0
		c0,29.89-0.74,59.8,0.26,89.65c0.67,19.98,10.14,25.52,24.98,15c79.12-56.08,78.81-143.16,14.54-206.05
		c-8.35-8.17-20-11.74-31.48-6.65c-10.65,4.72-8.19,15.66-8.3,24.56C310.58,235.49,310.79,263.32,310.79,291.15z"/>
	<path class="st3" d="M135.22,332.23c-0.01-63.87-0.24-127.73,0.1-191.6c0.15-28.11,3.17-30.71,29.3-30.76
		c26.24-0.05,29.44,2.58,29.51,30.51c0.28,111.25,0.06,222.5,0.15,333.75c0.03,35.41,1.92,38.5,36.85,43.41
		c19.23,2.7,38.97,2.18,58.49,2.31c21.01,0.14,22.41,14.17,21.59,29.54c-0.78,14.52,4.63,33.11-19.61,34.38
		c-46.79,2.46-91.99-2.87-134.95-23.7c-16.35-7.93-21.92-18.67-21.72-36.26C135.67,459.96,135.23,396.09,135.22,332.23z"/>
</g>
</svg>
